<svg width="40" height="40" viewBox="0 0 40 40" fill="none" xmlns="http://www.w3.org/2000/svg">
<circle cx="20" cy="20" r="19.5" fill="white" stroke="#469C73"/>
<path d="M17.4626 25.5674C17.381 25.5678 17.3 25.5522 17.2245 25.5213C17.1489 25.4904 17.0801 25.4449 17.0221 25.3874L12.3439 20.7093C12.2284 20.593 12.1635 20.4357 12.1635 20.2718C12.1635 20.1079 12.2284 19.9507 12.3439 19.8344C12.4016 19.7763 12.4702 19.7301 12.5458 19.6986C12.6215 19.6671 12.7025 19.6509 12.7845 19.6509C12.8664 19.6509 12.9475 19.6671 13.0231 19.6986C13.0987 19.7301 13.1673 19.7763 13.225 19.8344L17.4626 24.0721L27.7869 13.7478C27.9032 13.6322 28.0604 13.5674 28.2243 13.5674C28.3883 13.5674 28.5455 13.6322 28.6618 13.7478C28.7199 13.8055 28.7661 13.8741 28.7976 13.9497C28.8291 14.0253 28.8453 14.1064 28.8453 14.1883C28.8453 14.2702 28.8291 14.3513 28.7976 14.4269C28.7661 14.5025 28.7199 14.5712 28.6618 14.6288L17.897 25.3874C17.7814 25.5021 17.6254 25.5667 17.4626 25.5674Z" fill="#469C73"/>
</svg>
