<svg width="24" height="24" viewBox="0 0 24 24" fill="none" xmlns="http://www.w3.org/2000/svg">
<path d="M12 20C7.58159 20 4 16.4184 4 12C4 7.58159 7.58159 4 12 4C16.4184 4 20 7.58159 20 12C20 16.4184 16.4184 20 12 20ZM12 4.87029C8.08368 4.87029 4.87029 8.08368 4.87029 12C4.87029 15.9163 8.08368 19.1297 12 19.1297C15.9163 19.1297 19.1297 15.9163 19.1297 12C19.1297 8.08368 15.9163 4.87029 12 4.87029Z" fill="#182452"/>
<path d="M7.74902 11.5314H16.2511V12.4686H7.74902V11.5314Z" fill="#182452"/>
<path d="M11.5312 7.74896H12.4685V16.2511H11.5312V7.74896Z" fill="#182452"/>
</svg>
