<svg width="22" height="28" viewBox="0 0 22 28" fill="none" xmlns="http://www.w3.org/2000/svg">
<path d="M21.5401 21.24C21.1582 22.1264 20.6857 22.9709 20.1301 23.76C19.6136 24.5701 19.01 25.3213 18.3301 26C17.703 26.6088 16.8733 26.9649 16.0001 27C15.2578 26.966 14.5285 26.793 13.8501 26.49C13.1191 26.1785 12.3345 26.0121 11.5401 26C10.7215 26.0167 9.91361 26.1898 9.16005 26.51C8.51094 26.8012 7.81837 26.9836 7.11005 27.05C6.66338 27.0425 6.22271 26.9458 5.81398 26.7655C5.40524 26.5851 5.03671 26.3249 4.73005 26C4.02177 25.3121 3.38824 24.5512 2.84005 23.73C1.98402 22.5001 1.31037 21.1528 0.840053 19.73C0.299904 18.2108 0.0160352 16.6123 5.33587e-05 15C-0.0433171 13.4171 0.351177 11.853 1.14005 10.48C1.69766 9.45891 2.51528 8.60334 3.51005 8.00001C4.48446 7.41827 5.59529 7.10434 6.73005 7.09001C7.58657 7.14324 8.42817 7.33928 9.22005 7.67001C9.85725 7.95337 10.5301 8.1485 11.2201 8.25001C11.9701 8.09378 12.7034 7.86607 13.4101 7.57001C14.3611 7.18228 15.3838 7.0016 16.4101 7.04001C17.3798 7.06733 18.3304 7.31684 19.1886 7.76933C20.0468 8.22183 20.7897 8.86524 21.3601 9.65001C20.455 10.1277 19.7018 10.8492 19.1858 11.7329C18.6697 12.6166 18.4114 13.6271 18.4401 14.65C18.4298 15.4321 18.5859 16.2074 18.8979 16.9246C19.21 17.6417 19.6709 18.2844 20.2501 18.81C20.7606 19.3044 21.3526 19.7069 22.0001 20C21.8501 20.42 21.7001 20.82 21.5401 21.21V21.24ZM16.5001 1.40001C16.482 2.75287 15.9739 4.05327 15.0701 5.06002C14.6127 5.6899 14.0105 6.20046 13.3143 6.54857C12.6181 6.89668 11.8483 7.0721 11.0701 7.06002C11.0595 6.89685 11.0595 6.73318 11.0701 6.57001C11.1128 5.19835 11.6489 3.88814 12.5801 2.88001C13.098 2.29812 13.727 1.82555 14.4301 1.49001C15.0874 1.15409 15.8043 0.950246 16.5401 0.890015C16.5497 1.06321 16.5497 1.23682 16.5401 1.41001L16.5001 1.40001Z" fill="black"/>
</svg>
