<svg width="210" height="209" viewBox="0 0 210 209" fill="none" xmlns="http://www.w3.org/2000/svg">
<path d="M108.244 1.47304C54.8691 -0.0977095 8.63502 38.4988 1.64988 89.1422C-5.98734 144.514 36.0472 194.335 87.769 202.315C152.102 212.24 214.502 154.821 208.899 92.5299C204.678 45.599 162.501 3.0697 108.244 1.47304Z" fill="#F5F5F5"/>
<path d="M112.705 147.18C102.042 147.767 81.7189 105.302 95.9184 82.7074C101.843 73.279 110.786 72.0749 114.567 60.0686C117.942 49.3554 112.313 45.5796 114.081 33.6472C116.568 16.869 131.498 -1.31951 145.25 0.0755059C152.15 0.775469 159.869 6.51867 162.099 14.6779C163.885 21.2128 158.462 27.8602 160.379 29.1838C161.953 30.2709 165.146 25.8427 167.955 26.668C172.099 27.8853 174.958 40.3975 171.213 50.8928C164.801 68.86 143.11 69.4887 142.224 82.4376C141.659 90.6914 150.278 93.2628 148.859 101.766C147.609 109.248 140.367 110.67 131.098 119.932C116.579 134.44 118.422 146.865 112.705 147.18Z" fill="#95C6AF"/>
<mask id="mask0_2235_18215" style="mask-type:luminance" maskUnits="userSpaceOnUse" x="91" y="0" width="82" height="148">
<path d="M112.704 147.18C102.041 147.767 81.7177 105.302 95.9171 82.7074C101.842 73.279 110.785 72.0749 114.566 60.0686C117.94 49.3554 112.312 45.5796 114.08 33.6472C116.567 16.869 131.497 -1.31951 145.249 0.0755059C152.149 0.775469 159.868 6.51867 162.098 14.6779C163.884 21.2128 158.461 27.8602 160.378 29.1838C161.952 30.2709 165.145 25.8427 167.954 26.668C172.097 27.8853 174.957 40.3975 171.212 50.8928C164.8 68.86 143.109 69.4887 142.223 82.4376C141.658 90.6914 150.277 93.2628 148.857 101.766C147.608 109.248 140.366 110.67 131.097 119.932C116.578 134.44 118.42 146.865 112.704 147.18Z" fill="white"/>
</mask>
<g mask="url(#mask0_2235_18215)">
<g opacity="0.5">
<path d="M115.403 156.514C115.188 156.576 114.949 156.499 114.815 156.306C114.697 156.136 114.692 155.923 114.783 155.753C114.786 155.431 114.572 154.391 114.327 153.197C112.945 146.483 109.276 128.646 112.922 100.264C117.507 64.568 131.8 25.633 155.405 -15.4601C155.552 -15.7147 155.878 -15.803 156.133 -15.6573C156.389 -15.5114 156.477 -15.1866 156.331 -14.9317C130.97 29.2179 103.278 94.1879 115.372 152.984C115.919 155.644 116.018 156.123 115.557 156.441C115.508 156.474 115.456 156.498 115.403 156.514Z" fill="white"/>
<path d="M122.674 62.4275C122.403 62.5062 122.115 62.3607 122.021 62.0925C121.924 61.8153 122.07 61.5122 122.349 61.4152C145.24 53.4378 158.815 45.2673 166.172 39.818C174.139 33.9173 176.729 29.8507 176.754 29.8104C176.909 29.5616 177.238 29.4848 177.489 29.6394C177.739 29.7941 177.816 30.1211 177.661 30.3705C177.555 30.5405 174.985 34.5998 166.896 40.6064C159.476 46.117 145.785 54.3743 122.701 62.4188C122.692 62.422 122.683 62.4249 122.674 62.4275Z" fill="white"/>
<path d="M130.981 36.7745C130.875 36.8053 130.76 36.804 130.648 36.7633C124.419 34.4906 120.124 26.7939 117.883 13.8869C116.232 4.37322 116.37 -4.60776 116.372 -4.69741C116.377 -4.9914 116.62 -5.22514 116.914 -5.21963C117.209 -5.21449 117.444 -4.97233 117.438 -4.67865C117.432 -4.32606 116.98 30.6443 131.015 35.7649C131.292 35.8657 131.434 36.1712 131.333 36.4468C131.272 36.6118 131.138 36.7287 130.981 36.7745Z" fill="white"/>
<path d="M112.889 107.189C112.74 107.233 112.573 107.211 112.436 107.116C103.815 101.164 99.6478 90.7654 97.6699 83.0896C95.5357 74.807 95.4215 67.818 95.4206 67.7484C95.4168 67.455 95.6523 67.214 95.9469 67.21C96.2415 67.2061 96.4835 67.4409 96.4873 67.7346C96.4885 67.8031 96.6029 74.6853 98.7094 82.8486C100.643 90.341 104.699 100.481 113.043 106.242C113.285 106.409 113.346 106.74 113.178 106.982C113.106 107.086 113.002 107.156 112.889 107.189Z" fill="white"/>
</g>
</g>
<path d="M109.464 170.687C105.975 153.726 106.462 140.582 107.48 132.007C108.279 125.276 110.057 115.869 114.862 114.687C117.164 114.12 118.477 115.857 120.881 115.155C125.419 113.829 125.302 106.303 128.166 100.829C133.066 91.4651 148.838 83.9948 160.133 89.5314C173.734 96.1986 175.18 118.951 167.866 125.963C163.532 130.118 155.778 129.076 155.357 132.097C154.932 135.138 162.703 136.786 163.248 141.662C163.812 146.709 156.193 151.283 155.73 151.553C146.496 156.964 139.232 151.368 129.098 153.865C123.601 155.219 116.438 159.158 109.464 170.687Z" fill="#E8F3EE"/>
<path d="M109.466 170.688C105.977 153.727 106.464 140.583 107.482 132.008C108.281 125.277 110.058 115.87 114.863 114.688C117.166 114.121 118.479 115.858 120.882 115.156C125.42 113.83 125.304 106.304 128.168 100.83C133.068 91.4661 148.84 83.9957 160.135 89.5324C173.736 96.1996 175.181 118.952 167.868 125.964C163.534 130.119 155.78 129.077 155.358 132.098C154.934 135.139 162.705 136.787 163.25 141.663C163.814 146.71 156.194 151.284 155.732 151.554C146.498 156.965 139.234 151.369 129.1 153.866C123.603 155.22 116.44 159.159 109.466 170.688Z" fill="#E8F3EE"/>
<mask id="mask1_2235_18215" style="mask-type:luminance" maskUnits="userSpaceOnUse" x="106" y="87" width="67" height="84">
<path d="M109.461 170.688C105.973 153.727 106.459 140.583 107.477 132.008C108.276 125.277 110.054 115.87 114.859 114.688C117.161 114.121 118.474 115.858 120.878 115.156C125.416 113.83 125.299 106.304 128.164 100.83C133.063 91.4661 148.836 83.9957 160.13 89.5324C173.731 96.1996 175.177 118.952 167.863 125.964C163.529 130.119 155.775 129.077 155.354 132.098C154.929 135.139 162.7 136.787 163.245 141.663C163.809 146.71 156.19 151.284 155.728 151.554C146.493 156.965 139.229 151.369 129.096 153.866C123.599 155.22 116.435 159.159 109.461 170.688Z" fill="white"/>
</mask>
<g mask="url(#mask1_2235_18215)">
<g opacity="0.8">
<path d="M107.554 184.405L107.819 184.415C109.332 143.826 134.845 108.531 176.066 89.9993L175.957 89.7588C156.422 98.5414 139.795 111.606 127.875 127.541C115.343 144.294 108.317 163.957 107.554 184.405Z" fill="white"/>
<path d="M95.0776 125.531C102.539 133.784 109.79 149.894 111.241 161.441L111.504 161.408C110.047 149.815 102.767 133.642 95.2743 125.354L95.0776 125.531Z" fill="white"/>
<path d="M107.943 176.441L108.195 176.523C110.092 170.777 114.832 166.208 122.282 162.943C127.744 160.548 134.51 158.898 142.39 158.037L142.361 157.774C134.454 158.638 127.662 160.296 122.175 162.701C114.654 165.998 109.866 170.621 107.943 176.441Z" fill="white"/>
<path d="M129.655 125.345L129.901 125.44C134.037 114.793 131.227 103.118 128.142 95.1982L127.895 95.2938C130.963 103.17 133.76 114.777 129.655 125.345Z" fill="white"/>
<path d="M148.048 106.714L148.172 106.947C159.568 100.908 172.938 103.088 179.893 104.924L179.961 104.669C172.968 102.823 159.523 100.633 148.048 106.714Z" fill="white"/>
</g>
</g>
<path d="M119.381 25.4889L138.894 187.12C139.186 189.544 137.51 191.716 135.163 191.948L53.8897 200.841C48.911 201.149 46.185 198.614 45.8778 196.037L25.3917 24.1959C25.0862 21.6333 27.5288 19.3126 32.5287 19.3125L114.541 21.034C116.915 21.0735 119.09 23.0781 119.381 25.4889Z" fill="#FF7312"/>
<path d="M123.038 25.2107L142.658 187.651C142.952 190.086 141.27 192.27 138.914 192.504L54.6567 200.864C52.015 201.126 49.5942 199.222 49.2852 196.631L28.6842 23.902C28.377 21.3262 30.3173 19.2557 32.9878 19.3005L118.179 20.733C120.562 20.773 122.745 22.7879 123.038 25.2107Z" fill="#FF7312"/>
<path d="M121.437 34.1709L139.622 184.785C139.897 187.061 138.322 189.097 136.116 189.311L56.8755 196.987C54.4199 197.225 52.1695 195.447 51.8818 193.036L32.8434 33.4744C32.5571 31.0758 34.3585 29.135 36.8389 29.1614L116.893 30.011C119.122 30.0346 121.164 31.9064 121.437 34.1709Z" fill="#FFF6F0"/>
<path d="M78.945 25.0982C79.0488 25.9628 78.4263 26.6548 77.5535 26.6439C76.6798 26.6329 75.8865 25.9217 75.7826 25.0554C75.6785 24.1891 76.3035 23.4972 77.1773 23.5099C78.0502 23.5226 78.8412 24.2337 78.945 25.0982Z" fill="#FF7312"/>
<g opacity="0.5">
<path d="M107.739 135.272C91.5171 105.381 67.2834 96.4341 59.9871 65.6288C56.0432 48.9772 58.7303 33.0396 63.256 19.8086L32.9879 19.2995C30.3175 19.2547 28.3772 21.3251 28.6845 23.901L49.2855 196.63C49.5945 199.221 52.0152 201.125 54.6569 200.863L120.891 194.291C121.381 167.508 114.971 148.595 107.739 135.272Z" fill="white"/>
</g>
<g opacity="0.8">
<path d="M112.157 114.672C112.07 113.812 111.372 113.086 110.601 113.107L65.2559 114.311C64.444 114.333 63.8616 115.112 63.9555 115.996L64.4779 120.924C64.5716 121.807 65.3054 122.506 66.1164 122.481L111.409 121.074C112.18 121.05 112.733 120.33 112.646 119.47L112.157 114.672Z" fill="#EDEDED"/>
<path d="M108.79 125.236C108.702 124.375 108.006 123.69 107.232 123.716L71.267 124.884C70.4605 124.91 69.8808 125.651 69.9738 126.531L72.4648 150.103C72.5574 150.979 73.2837 151.661 74.087 151.623L109.912 149.928C110.683 149.892 111.238 149.165 111.15 148.307L108.79 125.236ZM98.3 143.153C98.4146 144.261 97.6919 145.125 96.6885 145.169L86.5407 145.619C85.5248 145.664 84.6079 144.866 84.4911 143.75L83.314 132.454C83.1969 131.335 83.9265 130.337 84.9446 130.301L95.1143 129.937C96.1199 129.901 97.0296 130.833 97.1444 131.943L98.3 143.153Z" fill="#EDEDED"/>
<path d="M89.6223 143.402C89.2591 143.417 88.8799 143.281 88.5708 142.988L85.5969 140.168C84.9762 139.579 84.8726 138.588 85.3655 137.953C85.8584 137.32 86.76 137.284 87.3796 137.873L89.2294 139.631L93.8279 133.702C94.3163 133.073 95.2096 133.039 95.8232 133.627C96.4364 134.214 96.5384 135.199 96.0514 135.829L90.5773 142.901C90.3323 143.218 89.9854 143.386 89.6223 143.402Z" fill="#FF7312"/>
<path d="M110.878 65.9717H54.8281C51.0088 65.9717 48.0856 69.0523 48.5052 72.9719L50.1248 88.0825C50.5431 91.9889 54.1317 95.1857 57.9347 95.125L113.747 94.2345C117.307 94.1777 119.916 91.0543 119.536 87.2948L118.063 72.7222C117.682 68.9508 114.452 65.9717 110.878 65.9717Z" fill="#EDEDED"/>
</g>
<path d="M175.489 92.8047C175.489 92.8047 173.939 104.309 186.103 112.421L173.159 115.498C173.159 115.498 169.016 107.778 172.016 94.9905L175.489 92.8047Z" fill="#EBEBEB"/>
<path d="M173.211 94.9894C173.211 94.9894 172.514 93.2733 172.626 92.5008C172.739 91.7282 174.584 90.6972 175.842 89.6326C177.1 88.5679 175.795 90.7033 175.502 91.1891C175.21 91.675 174.184 92.4036 174.331 94.0553L173.211 94.9894Z" fill="#F36F56"/>
<path d="M151.841 26.694L107.012 86.4307L154.311 121.683L199.14 61.9468L151.841 26.694Z" fill="white"/>
<path d="M153.105 50.0522L144.776 43.8439L151.005 35.543L159.334 41.7513L153.105 50.0522ZM147.375 43.4701L152.73 47.4612L156.735 42.1249L151.38 38.1338L147.375 43.4701Z" fill="#FFDEC8"/>
<path d="M160.821 46.5608L158.04 50.2666L186.3 71.3296L189.081 67.6238L160.821 46.5608Z" fill="#FFDEC8"/>
<path d="M143.315 63.0961L134.986 56.8878L141.215 48.5869L149.545 54.7952L143.315 63.0961ZM137.586 56.5142L142.94 60.5052L146.945 55.1689L141.59 51.1778L137.586 56.5142Z" fill="#FFDEC8"/>
<path d="M151.031 59.6058L148.25 63.3115L176.51 84.3745L179.291 80.6687L151.031 59.6058Z" fill="#FFDEC8"/>
<path d="M133.526 76.143L125.197 69.9347L131.426 61.6338L139.756 67.8421L133.526 76.143ZM127.797 69.561L133.151 73.5521L137.156 68.2158L131.801 64.2247L127.797 69.561Z" fill="#FFDEC8"/>
<path d="M141.242 72.6497L138.461 76.3555L166.721 97.4185L169.502 93.7127L141.242 72.6497Z" fill="#FFDEC8"/>
<path d="M123.735 89.1869L115.406 82.9786L121.635 74.6777L129.964 80.886L123.735 89.1869ZM118.005 82.6049L123.36 86.596L127.365 81.2597L122.01 77.2686L118.005 82.6049Z" fill="#FFDEC8"/>
<path d="M131.452 85.6936L128.671 89.3994L156.931 110.462L159.712 106.757L131.452 85.6936Z" fill="#FFDEC8"/>
<path d="M147.079 44.8693C147.075 44.8663 147.071 44.8634 147.067 44.8605C146.852 44.7002 146.71 44.468 146.695 44.2007L146.507 41.1282C146.477 40.6179 146.865 40.1848 147.376 40.1549C147.888 40.1251 148.326 40.517 148.356 41.0273L148.474 43.0493L158.392 41.0859C158.895 40.9862 159.384 41.3122 159.484 41.8136C159.584 42.315 159.257 42.8022 158.754 42.9018L147.803 45.0544C147.544 45.1056 147.29 45.0263 147.079 44.8693Z" fill="#182452"/>
<path d="M127.166 71.4025C127.162 71.3996 127.158 71.3966 127.154 71.3937C126.939 71.2333 126.797 71.0011 126.782 70.7339L126.594 67.6614C126.564 67.1511 126.952 66.718 127.464 66.6881C127.975 66.6583 128.413 67.0502 128.443 67.5605L128.561 69.5825L138.479 67.6191C138.982 67.5194 139.471 67.8454 139.571 68.3468C139.671 68.8482 139.344 69.3354 138.841 69.435L127.89 71.5876C127.631 71.6388 127.377 71.5596 127.166 71.4025Z" fill="#182452"/>
<path d="M117.485 84.2971C117.482 84.2941 117.478 84.2912 117.474 84.2882C117.259 84.1279 117.116 83.8956 117.101 83.6284L116.913 80.556C116.883 80.0457 117.271 79.6125 117.783 79.5827C118.295 79.5528 118.732 79.9446 118.762 80.455L118.88 82.477L128.798 80.5136C129.301 80.4139 129.79 80.74 129.89 81.2413C129.99 81.7427 129.663 82.2299 129.16 82.3296L118.209 84.4822C117.95 84.5334 117.696 84.4541 117.485 84.2971Z" fill="#182452"/>
<path d="M142.57 62.0777C142.38 61.9358 142.244 61.7216 142.208 61.4686L140.67 50.8458C140.597 50.3399 140.949 49.8706 141.457 49.7977C141.964 49.7248 142.435 50.0757 142.509 50.5816L144.046 61.2044C144.119 61.7104 143.767 62.1796 143.259 62.2526C143.005 62.289 142.761 62.2195 142.57 62.0777Z" fill="#C11919"/>
<path d="M136.471 57.5319C136.28 57.39 136.144 57.1758 136.108 56.9228C136.034 56.4169 136.387 55.9476 136.894 55.8747L147.554 54.3426C148.061 54.2697 148.532 54.6206 148.605 55.1265C148.679 55.6324 148.326 56.1017 147.819 56.1747L137.159 57.7068C136.906 57.7432 136.661 57.6737 136.471 57.5319Z" fill="#C11919"/>
<path d="M187.515 104.097C186.968 103.024 186.743 103.03 186.608 102.463C186.302 101.172 187.092 99.5318 187.763 99.509C188.195 99.4944 188.231 100.164 189.145 101.207C190.266 102.485 190.946 102.317 191.605 103.427C191.759 103.686 192.453 104.855 192.027 105.726C191.482 106.839 189.334 107.015 188.436 106.157C188.01 105.75 188.189 105.419 187.515 104.097Z" fill="#26264F"/>
<path d="M189.564 105.094C189.564 105.094 189.119 107.466 189.436 109.394C189.723 111.136 192.962 112.946 193.583 113.466C194.203 113.985 191.936 114.548 189.856 114.277C187.776 114.005 182.081 112.189 181.216 111.177C180.35 110.165 182.223 110.663 183.799 110.472C185.374 110.28 186.878 107.649 186.924 106.306C186.97 104.963 189.564 105.094 189.564 105.094Z" fill="#FDE2D0"/>
<path d="M188.542 106.777C188.542 106.777 187.173 107.377 185.959 106.41C184.873 105.544 186.488 102.885 187.593 102.851C187.962 102.84 188.5 103.103 188.818 103.488C189.005 103.715 189.017 103.867 189.33 104.233C189.62 104.57 189.747 104.6 189.791 104.764C189.846 104.969 189.752 105.311 189.008 105.9C189.378 105.832 189.698 105.929 189.822 106.144C189.842 106.179 189.883 106.286 189.87 106.397C189.826 106.798 189.3 106.984 188.542 106.777Z" fill="#FDE2D0"/>
<path d="M153.894 98.6157C153.894 98.6157 152.93 98.4818 153.231 96.6463C153.466 95.2076 153.288 94.7237 152.947 94.9788C152.606 95.2338 152.558 96.0652 152.558 96.0652C152.558 96.0652 151.315 95.0086 150.803 93.6241C150.291 92.2396 149.962 93.4055 149.853 94.0978C149.743 94.79 150.584 96.9396 151.059 97.3404C151.534 97.7412 152.229 99.5075 152.229 99.5075L153.894 98.6157Z" fill="#FDE2D0"/>
<path d="M189.56 200.126C190.056 201.134 189.917 201.568 189.793 201.758C189.431 202.318 188.56 201.789 186.284 202.058C186.017 202.09 185.507 202.158 184.872 202.009C184.327 201.881 183.685 201.592 183.713 201.447C183.723 201.394 183.819 201.373 183.856 201.365C184.488 201.231 188.441 200.021 188.441 200.021L189.56 200.126Z" fill="#37474F"/>
<path d="M189.862 197.907L189.509 200.162C189.509 200.162 188.538 200.846 188.282 200.015C188.099 199.417 188.104 197.807 188.104 197.807L189.862 197.907Z" fill="#FDE2D0"/>
<path d="M178.783 198.062L179.737 200.657L181.123 200.437L180.802 198.034L178.783 198.062Z" fill="#FDE2D0"/>
<path d="M180.169 202.087C180.84 201.293 181.439 201.365 181.56 200.82C181.655 200.392 181.391 199.866 180.994 199.667C180.436 199.386 179.76 199.824 179.607 199.923C178.569 200.595 178.852 201.647 177.874 202.102C177.677 202.194 177.365 202.292 177.036 202.599C176.896 202.729 176.55 203.052 176.631 203.275C176.725 203.532 177.342 203.523 177.928 203.515C178.632 203.505 178.984 203.5 179.322 203.289C179.791 202.998 179.651 202.699 180.169 202.087Z" fill="#37474F"/>
<path d="M197.281 143.977C197.024 149.221 196.271 153.698 195.414 157.347C194.492 161.273 193.99 161.944 193.67 164.665C192.974 170.588 194.875 171.478 195.083 178.193C195.312 185.608 193.209 191.452 192.384 193.681C191.663 195.63 190.918 197.2 190.36 198.29C189.665 198.867 188.628 198.617 187.535 198.371C187.275 191.645 186.906 185.312 186.646 178.585C185.559 168.451 184.471 158.318 183.384 148.184C188.016 146.781 192.648 145.379 197.281 143.977Z" fill="#263238"/>
<path opacity="0.3" d="M187.535 198.371C187.275 191.645 186.906 185.312 186.646 178.585C185.559 168.451 184.471 158.318 183.384 148.184C188.016 146.781 192.648 145.379 197.281 143.977C197.264 144.324 197.239 144.658 197.218 144.999C190.644 150.447 189.285 154.845 189.283 157.864C189.281 161.526 191.251 163.384 190.744 168.683C190.382 172.472 189.223 173.116 189.149 176.54C189.055 180.95 190.901 183.47 191.771 186.038C192.612 188.519 192.855 192.014 191.021 196.939C190.783 197.446 190.559 197.9 190.359 198.29C189.665 198.867 188.628 198.618 187.535 198.371Z" fill="#311944"/>
<path d="M189.423 147.898C185.254 152.985 182.876 157.741 181.504 161.073C179.854 165.082 178.657 168.087 179.032 171.978C179.445 176.261 181.394 177.8 182.688 181.451C183.943 184.992 184.555 190.441 181.28 198.548C180.456 198.833 179.632 199.117 178.808 199.401C178.26 197.21 177.375 193.933 176.05 190.03C173.426 182.296 170.81 177.206 170.103 175.625C167.612 170.058 167.36 160.118 177.729 140.941C181.627 143.26 185.525 145.579 189.423 147.898Z" fill="#263238"/>
<path d="M151.324 99.1083C152.421 98.3426 153.518 97.5772 154.615 96.8115C155.95 104.988 158.984 108.198 161.561 109.601C167.778 112.988 173.326 106.953 185.225 109.416C188.504 110.094 194.22 111.359 197.389 116.014C198.222 117.238 198.519 118.164 199.902 126.942C201.67 138.164 201.733 140.122 201.484 142.538C201.027 146.96 200.751 149.639 198.705 152.011C193.273 158.309 181.727 155.062 180.279 154.634C177.605 153.845 173.449 152.618 171.798 149.096C171.021 147.439 171.103 145.925 172.297 139.865C174.663 127.862 174.965 127.085 174.305 125.77C172.076 121.335 165.016 123.873 159.052 119.748C155.564 117.336 151.634 112.08 151.324 99.1083Z" fill="#F5F5F5"/>
<path opacity="0.3" d="M185.691 153.031C184.527 150.652 186.091 148.459 184.375 145.599C182.187 141.953 178.252 143.191 176.771 140.498C174.238 135.892 184.207 129.468 182.181 122.135C181.214 118.634 177.837 116.1 175.016 115.14C168.752 113.008 164.656 118.441 158.784 116.743C157.392 116.34 155.794 115.506 154.179 113.774C155.607 116.777 157.38 118.591 159.053 119.748C165.017 123.873 172.077 121.335 174.306 125.77C174.966 127.085 174.664 127.862 172.298 139.865C171.104 145.925 171.022 147.439 171.799 149.096C173.45 152.618 177.606 153.845 180.28 154.634C181.073 154.868 184.892 155.944 189.076 155.84C187.209 155.084 186.205 154.081 185.691 153.031Z" fill="#D3D3D3"/>
<path d="M56.8758 28.6712C56.8758 41.2167 46.732 52.0626 34.1805 52.8987C21.5862 53.7378 11.3448 44.1869 11.3448 31.5638C11.3448 18.9407 21.5862 8.08863 34.1805 7.32738C46.7321 6.56866 56.8758 16.1257 56.8758 28.6712Z" fill="#FFDEC8"/>
<path d="M59.5691 29.4749C59.5691 42.0204 49.4254 52.8663 36.8739 53.7024C24.2795 54.5415 14.0382 44.9906 14.0382 32.3675C14.0382 19.7444 24.2795 8.89233 36.8739 8.13108C49.4255 7.37244 59.5691 16.9294 59.5691 29.4749Z" fill="#182452"/>
<path d="M36.0724 43.2466C35.0852 43.3109 34.1668 42.8533 33.6558 42.0356L25.0739 28.302C24.2696 27.015 24.703 25.2522 26.0414 24.3649C27.3786 23.4782 29.1141 23.8021 29.9174 25.0886L35.8691 34.6218L43.7221 18.6826C44.4269 17.2521 46.1202 16.5959 47.5032 17.2164C48.8859 17.8366 49.4361 19.498 48.7323 20.9276L38.5838 41.5424C38.1191 42.4863 37.1953 43.1358 36.1715 43.2384C36.1384 43.2417 36.1054 43.2444 36.0724 43.2466Z" fill="#FF7312"/>
<path d="M45.7239 204.826C45.7239 204.826 45.5573 206.147 45.6691 206.589C45.7809 207.032 49.6343 207.352 50.9423 207.198C52.2503 207.044 50.1632 205.713 49.3298 205.463C48.4965 205.213 45.7239 204.826 45.7239 204.826Z" fill="#37474F"/>
<path d="M47.6646 202.623L47.2585 205.273C47.2585 205.273 46.223 205.736 45.7253 205.278L45.6705 202.505L47.6646 202.623Z" fill="#FDE2D0"/>
<path d="M25.9405 202.504C25.9405 202.504 26.7582 203.109 26.5402 203.833C26.3223 204.557 24.4145 207.459 23.0547 208.282C21.6951 209.106 22.1213 207.39 22.517 206.322C22.9127 205.253 23.9236 202.899 24.3183 202.504C24.713 202.11 25.9405 202.504 25.9405 202.504Z" fill="#37474F"/>
<path d="M27.4126 199.594C27.0174 200.692 26.6372 201.594 26.3399 202.26C25.682 203.733 25.3225 204.286 24.9153 204.765C24.5601 205.182 23.7194 206.073 23.4934 205.925C23.2639 205.774 23.879 204.692 25.0645 201.521C25.2366 201.06 25.7804 199.594 25.7804 199.594H27.4126V199.594Z" fill="#FDE2D0"/>
<path d="M55.7333 153.717C56.0153 156.477 56.2859 160.76 55.8814 165.958C55.3541 172.731 53.9951 177.017 52.2909 184.239C51.2494 188.652 49.846 195.147 48.576 203.271C48.2813 203.439 47.4144 203.881 46.2983 203.716C45.6733 203.624 45.206 203.376 44.93 203.198C41.5978 193.051 42.582 186.763 44.19 182.845C44.8754 181.175 45.7064 179.858 46.1507 177.291C46.7385 173.894 46.0117 171.996 44.9753 164.129C44.2366 158.522 44.3644 157.655 44.856 156.814C46.8207 153.452 52.8301 153.518 55.7333 153.717Z" fill="#263238"/>
<path d="M44.2637 154.897C42.2225 165.403 40.2191 170.921 38.703 174.042C38.3291 174.811 37.0816 177.295 35.9023 180.854C34.8583 184.006 34.4232 186.324 34.2004 187.344C33.4967 190.564 31.7573 195.266 27.0773 201.433C27.0189 201.467 26.221 201.917 25.458 201.516C25.072 201.313 24.8794 200.99 24.803 200.839C25.4148 194.943 26.1171 189.988 26.7268 186.164C26.8548 185.362 27.4181 181.853 28.3015 177.217C28.6472 175.403 29.1538 172.745 29.7607 170.014C30.5162 166.614 31.6748 161.989 33.4605 156.446C37.0615 155.93 40.6627 155.414 44.2637 154.897Z" fill="#263238"/>
<path d="M46.0036 113.342C47.1612 112.276 49.3759 111.046 50.4868 108.189C50.8212 107.328 52.0058 104.28 50.2583 101.949C49.2212 100.565 47.2946 99.6251 45.5966 99.9578C44.1456 100.242 43.9187 101.249 41.453 103.276C40.4932 104.065 38.9506 105.333 37.2336 106.039C34.292 107.247 32.5248 106.11 29.5716 106.24C25.9435 106.399 21.7289 108.417 19.6984 111.351C16.0944 116.559 21.3152 121.842 17.3676 127.943C16.0741 129.942 15.4367 129.494 12.3729 133.363C9.30519 137.238 7.77128 139.175 8.04423 141.549C8.42305 144.843 11.9838 147.991 15.337 148.204C18.6125 148.414 20.6947 145.845 22.3623 146.969C23.5492 147.768 22.8706 149.323 24.1312 151.192C25.7562 153.601 28.9501 154.081 29.4659 154.159C34.2537 154.878 40.7092 149.283 43.4511 142.655C48.3949 130.702 39.71 119.14 46.0036 113.342Z" fill="#263238"/>
<path d="M65.6485 116.66C65.681 113.324 58.0758 110.657 54.596 109.798C49.1829 108.462 44.8482 109.301 43.7954 109.523C37.0447 110.948 32.8402 114.985 31.2578 116.682C32.5536 117.523 36.1294 120.089 37.9004 124.956C38.4514 126.471 40.0792 131.648 37.7512 136.497C36.4099 139.291 34.0369 141.389 32.2348 142.983C29.5317 145.373 28.1319 145.74 27.2257 147.881C26.2388 150.212 27.2332 151.349 26.0077 152.945C24.6915 154.659 23.1493 153.863 20.9184 155.596C18.6332 157.372 19.4464 158.833 17.3667 160.795C14.3447 163.646 10.3387 162.72 10.1521 164.003C9.99155 165.106 12.8388 166.604 15.2578 167.211C20.0483 168.413 24.2266 166.395 25.4692 165.773C28.9092 164.05 28.315 162.936 30.9377 161.622C35.3295 159.424 38.3308 161.87 48.3337 162.122C53.7505 162.259 56.4894 162.29 57.99 160.463C59.3604 158.795 58.64 156.965 57.8176 149.079C57.4262 145.325 57.285 141.55 56.9966 137.787C56.1806 127.143 56.1557 126.207 56.8801 124.735C59.4751 119.463 65.6193 119.655 65.6485 116.66Z" fill="#F5F5F5"/>
<g opacity="0.3">
<path d="M17.3648 160.797C19.4445 158.834 18.6313 157.373 20.9166 155.598C23.1475 153.864 24.6896 154.661 26.0058 152.947C27.2313 151.351 26.2369 150.214 27.2238 147.882C28.13 145.741 29.5298 145.374 32.233 142.984C34.035 141.391 36.408 139.293 37.7493 136.499C40.0773 131.649 38.4496 126.472 37.8985 124.958C36.1276 120.09 32.5517 117.524 31.2559 116.684C31.3806 116.55 31.5278 116.397 31.6851 116.236C40.2226 117.406 45.2002 122.322 45.8158 123.778C47.2389 127.143 44.9861 128.379 44.9279 138.084C44.9001 142.723 45.4022 144.554 43.892 146.491C42.1647 148.705 40.1741 148.02 37.6763 150.915C35.7572 153.139 36.0646 154.55 34.2725 155.487C32.3456 156.495 31.1182 155.32 28.9449 155.782C25.3139 156.554 24.5378 160.726 22.1373 163.009C20.3222 164.735 16.9661 165.942 10.3475 164.646C10.1944 164.424 10.1205 164.207 10.1501 164.004C10.3367 162.721 14.3428 163.647 17.3648 160.797Z" fill="#F5F5F5"/>
</g>
<path d="M43.2298 126.396C44.1373 128.316 39.967 132.79 35.3319 134.914C34.3875 135.347 27.6056 138.454 24.5829 135.466C22.0853 132.996 23.6973 127.891 24.2728 126.068C27.0985 117.117 35.7766 112.563 39.4135 110.921C42.1277 117.684 40.5292 120.698 39.9 121.639C39.2427 122.622 37.4084 124.687 35.4602 126.506C34.0899 127.786 33.2366 128.408 33.3513 128.608C33.4941 128.856 35.1004 128.387 41.3394 125.361C42.0626 125.477 42.9197 125.74 43.2298 126.396Z" fill="#D3D3D3"/>
<path d="M69.3345 115.359L66.2733 130.552C66.1752 131.039 65.7966 131.421 65.3094 131.526L42.4837 136.407C41.6658 136.582 40.9093 135.923 40.9741 135.092L42.1788 119.64C42.2206 119.104 42.6018 118.656 43.1259 118.527C46.7466 117.636 60.6832 114.301 68.0336 113.867C68.8546 113.819 69.4963 114.556 69.3345 115.359Z" fill="#B2B2B2"/>
<path d="M46.5679 104.265C46.5679 104.265 46.1373 107.695 44.867 108.481C43.5965 109.266 41.5428 110.293 41.3165 110.572C41.0903 110.85 49.1865 111.718 53.1989 109.7C51.8766 109.425 51.5171 109.324 51.5171 109.324C51.1583 109.223 50.4889 109.035 49.8177 108.654C49.361 108.395 48.6248 107.888 47.9495 106.932L47.9642 105.033L46.5679 104.265Z" fill="#FDE2D0"/>
<path d="M46.374 105.478C46.374 105.478 47.2021 106.611 48.5009 106.139C49.6638 105.716 48.9698 102.723 48.0473 102.382C47.7397 102.268 47.1746 102.318 46.797 102.553C46.5314 102.718 45.822 103.596 46.2287 104.58C45.9349 104.495 45.6763 104.573 45.6116 104.717C45.5294 104.901 45.7781 105.152 45.8345 105.209C46.0299 105.405 46.2655 105.46 46.374 105.478Z" fill="#FDE2D0"/>
<path d="M67.8812 123.443C67.8812 123.443 69.3373 122.102 69.4957 120.544C69.6541 118.986 68.5553 117.739 67.4907 117.421C66.4263 117.104 65.8581 117.572 66.5727 119.106C67.2874 120.64 68.421 121.636 67.8812 123.443Z" fill="#FDE2D0"/>
</svg>
