<svg width="230" height="230" viewBox="0 0 230 230" fill="none" xmlns="http://www.w3.org/2000/svg">
<path d="M118.579 1.62478C59.6997 -0.107938 8.69798 42.4686 0.992536 98.3343C-7.43222 159.416 38.9369 214.375 95.9922 223.177C166.959 234.126 235.794 170.786 229.613 102.071C224.956 50.301 178.43 3.38609 118.579 1.62478Z" fill="#F5F5F5"/>
<path d="M123.5 162.357C111.737 163.004 89.3181 116.161 104.982 91.2361C111.518 80.8354 121.382 79.5071 125.554 66.2628C129.276 54.4449 123.067 50.2797 125.018 37.1169C127.761 18.6086 144.231 -1.45557 159.401 0.0832919C167.012 0.855435 175.527 7.19087 177.987 16.1915C179.957 23.4003 173.975 30.7331 176.089 32.1932C177.826 33.3924 181.348 28.5075 184.447 29.418C189.018 30.7608 192.172 44.5632 188.041 56.1408C180.968 75.9607 157.04 76.6543 156.062 90.9385C155.439 100.043 164.947 102.88 163.381 112.26C162.003 120.513 154.014 122.082 143.789 132.299C127.773 148.303 129.806 162.009 123.5 162.357Z" fill="#95C6AF"/>
<mask id="mask0_106_1986" style="mask-type:luminance" maskUnits="userSpaceOnUse" x="99" y="0" width="91" height="163">
<path d="M123.498 162.357C111.736 163.005 89.3169 116.161 104.981 91.2366C111.517 80.8359 121.381 79.5076 125.553 66.2633C129.275 54.4454 123.066 50.2802 125.016 37.1174C127.759 18.609 144.23 -1.45508 159.399 0.0837802C167.011 0.855923 175.525 7.19136 177.986 16.192C179.956 23.4008 173.974 30.7336 176.088 32.1937C177.824 33.3929 181.347 28.508 184.446 29.4185C189.016 30.7613 192.171 44.5637 188.04 56.1413C180.967 75.9612 157.039 76.6548 156.061 90.939C155.438 100.044 164.946 102.88 163.38 112.261C162.002 120.514 154.013 122.083 143.788 132.299C127.772 148.303 129.804 162.01 123.498 162.357Z" fill="white"/>
</mask>
<g mask="url(#mask0_106_1986)">
<g opacity="0.5">
<path d="M126.475 172.655C126.239 172.724 125.974 172.639 125.827 172.425C125.697 172.238 125.691 172.002 125.792 171.815C125.795 171.46 125.559 170.313 125.288 168.996C123.765 161.589 119.717 141.913 123.739 110.604C128.796 71.2274 144.564 28.2776 170.603 -17.053C170.764 -17.3339 171.124 -17.4312 171.406 -17.2706C171.688 -17.1097 171.786 -16.7513 171.624 -16.4702C143.648 32.2322 113.1 103.902 126.441 168.761C127.045 171.695 127.154 172.224 126.645 172.574C126.592 172.611 126.534 172.638 126.475 172.655Z" fill="white"/>
<path d="M134.496 68.8666C134.198 68.9534 133.88 68.7929 133.776 68.497C133.669 68.1913 133.831 67.8569 134.137 67.7499C159.389 58.9499 174.364 49.9368 182.48 43.9256C191.268 37.4165 194.125 32.9306 194.153 32.886C194.324 32.6116 194.687 32.5269 194.963 32.6974C195.239 32.8681 195.325 33.2288 195.154 33.5039C195.037 33.6915 192.201 38.1693 183.279 44.7954C175.093 50.8742 159.99 59.983 134.526 68.8571C134.516 68.8605 134.506 68.8637 134.496 68.8666Z" fill="white"/>
<path d="M143.66 40.5681C143.544 40.602 143.416 40.6005 143.293 40.5557C136.421 38.0486 131.683 29.5582 129.212 15.3203C127.39 4.82557 127.542 -5.08152 127.544 -5.18042C127.55 -5.50472 127.818 -5.76257 128.143 -5.75649C128.468 -5.75082 128.727 -5.48369 128.721 -5.15972C128.714 -4.77077 128.215 33.8057 143.698 39.4543C144.003 39.5655 144.16 39.9025 144.048 40.2066C143.981 40.3885 143.833 40.5176 143.66 40.5681Z" fill="white"/>
<path d="M123.703 118.244C123.538 118.292 123.354 118.268 123.202 118.163C113.692 111.598 109.096 100.126 106.914 91.6591C104.56 82.5224 104.434 74.8127 104.433 74.7359C104.429 74.4123 104.688 74.1464 105.013 74.142C105.338 74.1377 105.605 74.3967 105.609 74.7207C105.611 74.7963 105.737 82.3882 108.061 91.3933C110.193 99.6582 114.668 110.844 123.872 117.199C124.14 117.383 124.206 117.749 124.021 118.015C123.941 118.13 123.828 118.207 123.703 118.244Z" fill="white"/>
</g>
</g>
<path d="M119.924 188.289C116.076 169.578 116.613 155.079 117.736 145.62C118.617 138.195 120.578 127.818 125.878 126.513C128.418 125.888 129.867 127.804 132.518 127.03C137.524 125.567 137.396 117.265 140.555 111.227C145.96 100.897 163.359 92.6565 175.818 98.764C190.822 106.119 192.416 131.218 184.348 138.952C179.568 143.535 171.014 142.386 170.549 145.719C170.081 149.074 178.653 150.892 179.254 156.27C179.877 161.838 171.471 166.883 170.962 167.182C160.775 173.15 152.762 166.977 141.583 169.732C135.519 171.226 127.617 175.571 119.924 188.289Z" fill="#E8F3EE"/>
<path d="M119.926 188.289C116.078 169.579 116.615 155.08 117.738 145.621C118.619 138.195 120.58 127.818 125.88 126.514C128.42 125.889 129.869 127.805 132.52 127.03C137.526 125.567 137.398 117.266 140.557 111.227C145.962 100.898 163.361 92.657 175.82 98.7646C190.824 106.119 192.418 131.218 184.35 138.953C179.57 143.536 171.016 142.387 170.551 145.72C170.083 149.074 178.655 150.892 179.256 156.271C179.879 161.838 171.473 166.884 170.964 167.182C160.777 173.151 152.764 166.978 141.585 169.732C135.521 171.226 127.619 175.571 119.926 188.289Z" fill="#E8F3EE"/>
<mask id="mask1_106_1986" style="mask-type:luminance" maskUnits="userSpaceOnUse" x="116" y="96" width="74" height="93">
<path d="M119.921 188.29C116.073 169.58 116.61 155.081 117.733 145.622C118.614 138.197 120.575 127.819 125.875 126.515C128.415 125.89 129.864 127.806 132.515 127.031C137.521 125.569 137.393 117.267 140.552 111.229C145.957 100.899 163.356 92.6581 175.815 98.7657C190.819 106.12 192.413 131.219 184.345 138.954C179.565 143.537 171.011 142.388 170.546 145.721C170.078 149.076 178.65 150.894 179.251 156.272C179.874 161.839 171.468 166.885 170.959 167.183C160.772 173.152 152.759 166.979 141.58 169.733C135.516 171.227 127.614 175.572 119.921 188.29Z" fill="white"/>
</mask>
<g mask="url(#mask1_106_1986)">
<g opacity="0.8">
<path d="M117.818 203.422L118.109 203.433C119.779 158.659 147.923 119.723 193.395 99.2811L193.275 99.0157C171.724 108.704 153.383 123.116 140.234 140.694C126.41 159.174 118.659 180.865 117.818 203.422Z" fill="white"/>
<path d="M104.054 138.477C112.286 147.581 120.284 165.352 121.885 178.09L122.174 178.054C120.568 165.266 112.536 147.424 104.271 138.282L104.054 138.477Z" fill="white"/>
<path d="M118.247 194.637L118.524 194.727C120.618 188.389 125.846 183.349 134.064 179.746C140.09 177.105 147.553 175.284 156.246 174.334L156.214 174.045C147.491 174.998 139.999 176.827 133.946 179.48C125.649 183.117 120.367 188.216 118.247 194.637Z" fill="white"/>
<path d="M142.197 138.272L142.469 138.377C147.031 126.631 143.932 113.752 140.528 105.016L140.256 105.121C143.641 113.809 146.725 126.613 142.197 138.272Z" fill="white"/>
<path d="M162.487 117.72L162.624 117.977C175.195 111.316 189.943 113.72 197.616 115.745L197.691 115.464C189.977 113.427 175.146 111.012 162.487 117.72Z" fill="white"/>
</g>
</g>
<path d="M130.864 28.1177L152.389 206.417C152.712 209.09 150.863 211.486 148.273 211.742L58.6192 221.551C53.1271 221.892 50.12 219.096 49.7811 216.253L27.1826 26.6915C26.8455 23.8646 29.5401 21.3045 35.0555 21.3044L125.525 23.2034C128.144 23.247 130.543 25.4583 130.864 28.1177Z" fill="#444B8C"/>
<path d="M134.898 27.8108L156.541 207.002C156.866 209.688 155.01 212.097 152.411 212.355L59.4653 221.577C56.5513 221.866 53.8808 219.766 53.54 216.908L30.8146 26.3671C30.4757 23.5257 32.6161 21.2417 35.562 21.2912L129.538 22.8714C132.167 22.9156 134.575 25.1382 134.898 27.8108Z" fill="#444B8C"/>
<path d="M133.132 37.6942L153.193 203.839C153.496 206.35 151.758 208.596 149.325 208.832L61.9129 217.3C59.2041 217.562 56.7216 215.601 56.4043 212.942L35.4026 36.9259C35.0869 34.2799 37.0739 32.1391 39.8102 32.1681L128.119 33.1053C130.578 33.1313 132.831 35.1963 133.132 37.6942Z" fill="#DEE5FF"/>
<path d="M86.2582 27.6872C86.3728 28.6409 85.686 29.4043 84.7232 29.3922C83.7594 29.3801 82.8844 28.5956 82.7697 27.64C82.6549 26.6844 83.3443 25.9211 84.3082 25.9351C85.2712 25.9491 86.1438 26.7336 86.2582 27.6872Z" fill="#311944"/>
<g opacity="0.5">
<path d="M118.022 149.221C100.127 116.248 73.3941 106.379 65.3455 72.3969C60.9949 54.0283 63.9591 36.4471 68.9515 21.8517L35.5622 21.2902C32.6163 21.2408 30.476 23.5247 30.815 26.3662L53.5403 216.907C53.8812 219.765 56.5516 221.865 59.4657 221.576L132.53 214.327C133.07 184.782 125.999 163.919 118.022 149.221Z" fill="white"/>
</g>
<g opacity="0.8">
<path d="M122.896 126.499C122.799 125.55 122.029 124.75 121.178 124.773L71.1575 126.101C70.2619 126.125 69.6195 126.985 69.723 127.96L70.2993 133.396C70.4026 134.37 71.2121 135.141 72.1067 135.113L122.07 133.561C122.92 133.535 123.531 132.741 123.434 131.792L122.896 126.499Z" fill="white"/>
<path d="M119.181 138.152C119.084 137.202 118.316 136.447 117.462 136.475L77.7884 137.763C76.8988 137.792 76.2593 138.61 76.3619 139.581L79.1097 165.583C79.212 166.55 80.0131 167.302 80.8993 167.26L120.419 165.391C121.269 165.35 121.881 164.549 121.785 163.602L119.181 138.152ZM107.609 157.916C107.735 159.139 106.938 160.092 105.831 160.141L94.6372 160.636C93.5165 160.686 92.505 159.806 92.3762 158.574L91.0777 146.114C90.9485 144.879 91.7534 143.779 92.8765 143.739L104.095 143.338C105.204 143.298 106.208 144.326 106.334 145.551L107.609 157.916Z" fill="white"/>
<path d="M98.0366 158.192C97.6359 158.209 97.2177 158.058 96.8766 157.735L93.5961 154.624C92.9114 153.975 92.7971 152.881 93.3409 152.182C93.8846 151.483 94.8791 151.443 95.5626 152.093L97.6032 154.033L102.676 147.492C103.215 146.797 104.2 146.76 104.877 147.408C105.553 148.056 105.666 149.144 105.129 149.838L99.0901 157.64C98.8198 157.989 98.4372 158.174 98.0366 158.192Z" fill="#182452"/>
<path d="M121.484 72.7759H59.6544C55.4412 72.7759 52.2166 76.1741 52.6795 80.498L54.4661 97.1667C54.9276 101.476 58.8862 105.002 63.0813 104.935L124.649 103.953C128.576 103.89 131.454 100.445 131.035 96.2978L129.41 80.2225C128.99 76.0623 125.427 72.7759 121.484 72.7759Z" fill="white"/>
</g>
<path d="M192.758 102.374C192.758 102.374 191.048 115.065 204.466 124.013L190.188 127.407C190.188 127.407 185.618 118.891 188.926 104.785L192.758 102.374Z" fill="#EBEBEB"/>
<path d="M190.245 104.785C190.245 104.785 189.476 102.892 189.6 102.039C189.724 101.187 191.759 100.05 193.147 98.8754C194.534 97.701 193.095 100.057 192.772 100.592C192.45 101.128 191.318 101.932 191.48 103.754L190.245 104.785Z" fill="#F36F56"/>
<path d="M166.671 29.4454L117.219 95.342L169.396 134.23L218.847 68.3334L166.671 29.4454Z" fill="white"/>
<path d="M168.065 55.2118L158.877 48.3633L165.749 39.2064L174.937 46.0549L168.065 55.2118ZM161.745 47.951L167.652 52.3536L172.069 46.467L166.163 42.0644L161.745 47.951Z" fill="#B2B2B2"/>
<path d="M176.577 51.3611L173.51 55.449L204.684 78.6839L207.752 74.596L176.577 51.3611Z" fill="#B2B2B2"/>
<path d="M157.266 69.6014L148.078 62.7529L154.95 53.5961L164.138 60.4446L157.266 69.6014ZM150.946 62.3408L156.853 66.7434L161.27 60.8568L155.363 56.4542L150.946 62.3408Z" fill="#B2B2B2"/>
<path d="M165.778 65.7504L162.71 69.8383L193.884 93.0732L196.952 88.9853L165.778 65.7504Z" fill="#B2B2B2"/>
<path d="M146.468 83.9928L137.279 77.1443L144.151 67.9874L153.34 74.8359L146.468 83.9928ZM140.147 76.7321L146.054 81.1347L150.472 75.2481L144.565 70.8455L140.147 76.7321Z" fill="#B2B2B2"/>
<path d="M154.979 80.1398L151.911 84.2277L183.086 107.463L186.153 103.375L154.979 80.1398Z" fill="#B2B2B2"/>
<path d="M135.667 98.3829L126.478 91.5344L133.35 82.3776L142.539 89.2261L135.667 98.3829ZM129.346 91.1222L135.253 95.5248L139.671 89.6383L133.764 85.2356L129.346 91.1222Z" fill="#B2B2B2"/>
<path d="M144.179 94.5291L141.111 98.617L172.286 121.852L175.354 117.764L144.179 94.5291Z" fill="#B2B2B2"/>
<path d="M161.418 49.4947C161.414 49.4914 161.41 49.4882 161.405 49.4849C161.168 49.3081 161.011 49.0519 160.994 48.7571L160.787 45.3678C160.754 44.8049 161.181 44.3271 161.746 44.2941C162.311 44.2612 162.794 44.6935 162.827 45.2564L162.956 47.4869L173.898 45.3211C174.453 45.2111 174.992 45.5707 175.102 46.1239C175.212 46.6769 174.851 47.2144 174.297 47.3243L162.216 49.6989C161.931 49.7553 161.651 49.6678 161.418 49.4947Z" fill="#182452"/>
<path d="M139.452 78.7638C139.448 78.7606 139.443 78.7573 139.439 78.7541C139.202 78.5772 139.045 78.321 139.028 78.0263L138.821 74.637C138.788 74.0741 139.215 73.5962 139.78 73.5633C140.345 73.5303 140.827 73.9627 140.861 74.5256L140.99 76.7561L151.931 74.5902C152.486 74.4802 153.026 74.8399 153.136 75.393C153.246 75.9461 152.885 76.4836 152.33 76.5935L140.25 78.968C139.965 79.0245 139.685 78.9371 139.452 78.7638Z" fill="#182452"/>
<path d="M128.773 92.9883C128.769 92.985 128.764 92.9818 128.76 92.9785C128.523 92.8017 128.366 92.5455 128.348 92.2508L128.142 88.8615C128.109 88.2985 128.536 87.8207 129.101 87.7878C129.665 87.7548 130.148 88.1871 130.181 88.7501L130.311 90.9806L141.252 88.8147C141.807 88.7047 142.346 89.0644 142.456 89.6175C142.567 90.1706 142.206 90.708 141.651 90.8179L129.571 93.1925C129.286 93.249 129.005 93.1616 128.773 92.9883Z" fill="#182452"/>
<path d="M156.445 68.4793C156.235 68.3228 156.085 68.0864 156.044 67.8074L154.349 56.0892C154.268 55.5311 154.656 55.0134 155.216 54.9329C155.776 54.8526 156.296 55.2396 156.376 55.7977L158.072 67.516C158.153 68.074 157.765 68.5917 157.205 68.6722C156.925 68.7124 156.655 68.6357 156.445 68.4793Z" fill="#C11919"/>
<path d="M149.716 63.4646C149.506 63.3082 149.356 63.0718 149.315 62.7928C149.235 62.2347 149.623 61.7171 150.183 61.6366L161.942 59.9465C162.502 59.8661 163.021 60.2532 163.102 60.8113C163.183 61.3693 162.794 61.887 162.234 61.9675L150.476 63.6576C150.196 63.6978 149.926 63.6211 149.716 63.4646Z" fill="#C11919"/>
<path d="M206.024 114.831C205.421 113.647 205.172 113.654 205.024 113.029C204.686 111.604 205.558 109.795 206.297 109.77C206.774 109.754 206.813 110.492 207.822 111.643C209.058 113.053 209.808 112.868 210.536 114.092C210.706 114.378 211.472 115.667 211.001 116.629C210.4 117.856 208.03 118.05 207.04 117.104C206.57 116.655 206.767 116.29 206.024 114.831Z" fill="#26264F"/>
<path d="M208.285 115.93C208.285 115.93 207.793 118.546 208.143 120.673C208.459 122.595 212.032 124.592 212.717 125.165C213.402 125.737 210.901 126.359 208.606 126.059C206.312 125.76 200.03 123.757 199.075 122.64C198.12 121.524 200.186 122.074 201.924 121.862C203.662 121.651 205.321 118.749 205.372 117.267C205.422 115.786 208.285 115.93 208.285 115.93Z" fill="#FDE2D0"/>
<path d="M207.157 117.788C207.157 117.788 205.646 118.449 204.308 117.383C203.11 116.428 204.891 113.494 206.11 113.457C206.517 113.444 207.111 113.735 207.461 114.16C207.668 114.41 207.68 114.578 208.027 114.981C208.346 115.353 208.486 115.387 208.535 115.567C208.596 115.793 208.491 116.171 207.671 116.82C208.08 116.745 208.432 116.852 208.569 117.09C208.59 117.128 208.636 117.246 208.622 117.369C208.573 117.811 207.993 118.016 207.157 117.788Z" fill="#FDE2D0"/>
<path d="M168.936 108.784C168.936 108.784 167.872 108.636 168.204 106.611C168.464 105.024 168.267 104.49 167.891 104.772C167.515 105.053 167.462 105.97 167.462 105.97C167.462 105.97 166.091 104.805 165.526 103.277C164.962 101.75 164.599 103.036 164.478 103.8C164.357 104.564 165.284 106.935 165.809 107.377C166.333 107.819 167.099 109.768 167.099 109.768L168.936 108.784Z" fill="#FDE2D0"/>
<path d="M208.28 220.761C208.827 221.874 208.673 222.352 208.537 222.562C208.138 223.179 207.176 222.597 204.666 222.893C204.371 222.928 203.809 223.003 203.108 222.839C202.507 222.698 201.799 222.379 201.829 222.219C201.84 222.16 201.947 222.137 201.988 222.128C202.684 221.98 207.045 220.646 207.045 220.646L208.28 220.761Z" fill="#37474F"/>
<path d="M208.613 218.315L208.224 220.802C208.224 220.802 207.152 221.557 206.87 220.64C206.668 219.981 206.673 218.204 206.673 218.204L208.613 218.315Z" fill="#FDE2D0"/>
<path d="M196.392 218.485L197.444 221.348L198.973 221.105L198.618 218.454L196.392 218.485Z" fill="#FDE2D0"/>
<path d="M197.92 222.925C198.66 222.049 199.321 222.129 199.454 221.527C199.559 221.055 199.269 220.475 198.831 220.255C198.215 219.946 197.469 220.429 197.3 220.538C196.156 221.279 196.468 222.439 195.388 222.942C195.171 223.043 194.827 223.151 194.464 223.489C194.31 223.633 193.928 223.99 194.018 224.235C194.121 224.519 194.801 224.509 195.448 224.5C196.225 224.489 196.613 224.483 196.986 224.251C197.504 223.929 197.349 223.6 197.92 222.925Z" fill="#37474F"/>
<path d="M216.797 158.823C216.514 164.608 215.683 169.546 214.737 173.572C213.72 177.903 213.166 178.643 212.813 181.645C212.046 188.178 214.142 189.16 214.372 196.568C214.625 204.747 212.305 211.194 211.395 213.653C210.599 215.802 209.778 217.534 209.162 218.736C208.396 219.373 207.252 219.098 206.046 218.827C205.759 211.407 205.352 204.421 205.065 197C203.866 185.821 202.666 174.643 201.466 163.464C206.576 161.917 211.686 160.37 216.797 158.823Z" fill="#263238"/>
<path opacity="0.3" d="M206.046 218.827C205.759 211.406 205.352 204.42 205.065 197C203.866 185.821 202.666 174.643 201.466 163.464C206.576 161.917 211.687 160.37 216.797 158.823C216.778 159.206 216.751 159.575 216.727 159.951C209.475 165.96 207.977 170.812 207.975 174.142C207.972 178.182 210.145 180.231 209.586 186.077C209.186 190.256 207.907 190.967 207.827 194.744C207.723 199.609 209.759 202.388 210.718 205.221C211.646 207.959 211.914 211.814 209.891 217.246C209.629 217.806 209.382 218.307 209.162 218.736C208.396 219.373 207.252 219.098 206.046 218.827Z" fill="#311944"/>
<path d="M208.128 163.147C203.53 168.759 200.907 174.006 199.393 177.682C197.573 182.104 196.252 185.418 196.666 189.711C197.122 194.435 199.271 196.133 200.699 200.161C202.084 204.067 202.759 210.077 199.146 219.021C198.237 219.335 197.328 219.648 196.419 219.962C195.815 217.545 194.838 213.93 193.377 209.624C190.482 201.092 187.597 195.478 186.816 193.734C184.068 187.592 183.79 176.628 195.229 155.474C199.529 158.031 203.828 160.589 208.128 163.147Z" fill="#263238"/>
<path d="M166.101 109.327C167.312 108.483 168.522 107.638 169.732 106.794C171.204 115.814 174.551 119.354 177.394 120.902C184.251 124.638 190.372 117.981 203.498 120.698C207.115 121.446 213.42 122.841 216.916 127.976C217.835 129.326 218.162 130.348 219.688 140.032C221.639 152.41 221.708 154.57 221.433 157.236C220.93 162.113 220.625 165.069 218.368 167.685C212.376 174.633 199.639 171.051 198.042 170.579C195.092 169.708 190.507 168.355 188.686 164.47C187.829 162.642 187.92 160.971 189.237 154.287C191.846 141.046 192.18 140.189 191.451 138.739C188.993 133.845 181.205 136.645 174.626 132.095C170.779 129.434 166.443 123.636 166.101 109.327Z" fill="#F5F5F5"/>
<path opacity="0.3" d="M204.012 168.811C202.728 166.186 204.454 163.767 202.56 160.612C200.147 156.591 195.805 157.956 194.172 154.986C191.378 149.904 202.375 142.818 200.14 134.729C199.073 130.867 195.348 128.071 192.236 127.012C185.327 124.661 180.807 130.655 174.33 128.781C172.794 128.336 171.032 127.416 169.25 125.506C170.825 128.818 172.782 130.82 174.627 132.096C181.206 136.646 188.994 133.846 191.452 138.739C192.181 140.189 191.847 141.046 189.238 154.288C187.921 160.972 187.83 162.643 188.687 164.471C190.508 168.355 195.093 169.709 198.043 170.58C198.917 170.838 203.13 172.024 207.746 171.91C205.687 171.075 204.578 169.969 204.012 168.811Z" fill="#D3D3D3"/>
<path d="M61.9133 31.6279C61.9133 45.467 50.7235 57.4313 36.8777 58.3537C22.9847 59.2793 11.6873 48.7436 11.6873 34.8188C11.6873 20.894 22.9847 8.92282 36.8777 8.08308C50.7236 7.24612 61.9133 17.7887 61.9133 31.6279Z" fill="#DEE5FF"/>
<path d="M64.8843 32.5142C64.8843 46.3534 53.6946 58.3177 39.8488 59.24C25.9557 60.1656 14.6583 49.6299 14.6583 35.7051C14.6583 21.7803 25.9557 9.80917 39.8488 8.96942C53.6947 8.13255 64.8843 18.675 64.8843 32.5142Z" fill="#182452"/>
<path d="M38.9646 47.706C37.8756 47.777 36.8626 47.2721 36.2989 46.3701L26.832 31.2203C25.9448 29.8007 26.4229 27.856 27.8992 26.8773C29.3744 25.8991 31.2889 26.2564 32.1749 27.6755L38.7404 38.1919L47.4032 20.609C48.1807 19.031 50.0486 18.3072 51.5742 18.9916C53.0995 19.6757 53.7064 21.5085 52.93 23.0855L41.7351 45.8261C41.2224 46.8673 40.2033 47.5839 39.074 47.697C39.0375 47.7006 39.0011 47.7036 38.9646 47.706Z" fill="white"/>
<path d="M49.6114 225.948C49.6114 225.948 49.4277 227.405 49.551 227.893C49.6744 228.381 53.9251 228.734 55.368 228.564C56.8109 228.394 54.5086 226.925 53.5892 226.65C52.6699 226.374 49.6114 225.948 49.6114 225.948Z" fill="#37474F"/>
<path d="M51.7523 223.517L51.3043 226.44C51.3043 226.44 50.1621 226.952 49.613 226.446L49.5526 223.387L51.7523 223.517Z" fill="#FDE2D0"/>
<path d="M27.788 223.388C27.788 223.388 28.69 224.055 28.4495 224.853C28.2091 225.652 26.1046 228.853 24.6046 229.761C23.1048 230.67 23.575 228.777 24.0114 227.598C24.4479 226.42 25.5631 223.823 25.9985 223.388C26.4339 222.952 27.788 223.388 27.788 223.388Z" fill="#37474F"/>
<path d="M29.4118 220.176C28.9759 221.387 28.5565 222.383 28.2285 223.117C27.5028 224.742 27.1062 225.352 26.657 225.881C26.2652 226.341 25.3379 227.323 25.0885 227.16C24.8353 226.994 25.5138 225.8 26.8216 222.301C27.0115 221.794 27.6113 220.176 27.6113 220.176H29.4118V220.176Z" fill="#FDE2D0"/>
<path d="M60.6531 169.568C60.9642 172.612 61.2626 177.337 60.8164 183.072C60.2347 190.543 58.7356 195.271 56.8557 203.237C55.7068 208.105 54.1587 215.271 52.7577 224.232C52.4326 224.417 51.4764 224.905 50.2451 224.723C49.5557 224.621 49.0401 224.348 48.7357 224.151C45.06 212.958 46.1456 206.021 47.9194 201.7C48.6755 199.857 49.5922 198.404 50.0823 195.572C50.7307 191.826 49.929 189.732 48.7857 181.053C47.9708 174.868 48.1118 173.912 48.6541 172.984C50.8213 169.276 57.4505 169.348 60.6531 169.568Z" fill="#263238"/>
<path d="M48.0007 170.87C45.749 182.459 43.539 188.546 41.8665 191.989C41.4541 192.838 40.078 195.577 38.7771 199.504C37.6254 202.98 37.1454 205.537 36.8996 206.663C36.1234 210.215 34.2046 215.402 29.042 222.205C28.9777 222.243 28.0975 222.739 27.2558 222.296C26.8299 222.072 26.6175 221.715 26.5332 221.549C27.2081 215.045 27.9829 209.579 28.6554 205.361C28.7966 204.476 29.418 200.606 30.3925 195.492C30.7739 193.49 31.3327 190.558 32.0021 187.546C32.8356 183.795 34.1137 178.693 36.0835 172.579C40.0558 172.009 44.0284 171.44 48.0007 170.87Z" fill="#263238"/>
<path d="M49.9199 125.03C51.1969 123.854 53.64 122.498 54.8654 119.345C55.2342 118.397 56.541 115.034 54.6133 112.462C53.4693 110.936 51.3441 109.899 49.471 110.266C47.8703 110.58 47.62 111.691 44.9 113.927C43.8413 114.797 42.1396 116.196 40.2455 116.974C37.0007 118.306 35.0512 117.052 31.7934 117.195C27.7912 117.371 23.1421 119.597 20.9022 122.834C16.9265 128.579 22.6857 134.407 18.331 141.137C16.9041 143.342 16.2009 142.848 12.8213 147.116C9.4372 151.39 7.74511 153.527 8.04621 156.146C8.4641 159.78 12.392 163.252 16.091 163.488C19.7043 163.718 22.0012 160.885 23.8408 162.125C25.1501 163.006 24.4014 164.722 25.7921 166.783C27.5846 169.441 31.1079 169.971 31.6769 170.056C36.9584 170.85 44.0796 164.678 47.1042 157.366C52.5578 144.18 42.9773 131.426 49.9199 125.03Z" fill="#263238"/>
<path d="M71.5907 128.691C71.6265 125.01 63.237 122.069 59.3984 121.121C53.4271 119.647 48.6455 120.572 47.4841 120.817C40.0372 122.39 35.3992 126.843 33.6536 128.715C35.083 129.642 39.0276 132.473 40.9812 137.842C41.589 139.513 43.3847 145.224 40.8166 150.573C39.337 153.656 36.7193 155.97 34.7314 157.728C31.7495 160.364 30.2054 160.769 29.2057 163.131C28.117 165.703 29.214 166.957 27.8621 168.718C26.4102 170.608 24.709 169.729 22.2481 171.642C19.7271 173.6 20.6242 175.212 18.33 177.377C14.9965 180.521 10.5774 179.5 10.3715 180.915C10.1944 182.133 13.3353 183.784 16.0037 184.454C21.2882 185.78 25.8974 183.554 27.268 182.868C31.0629 180.968 30.4073 179.738 33.3005 178.289C38.1452 175.864 41.456 178.563 52.4903 178.841C58.4658 178.992 61.4871 179.025 63.1424 177.011C64.6541 175.17 63.8594 173.152 62.9523 164.452C62.5205 160.311 62.3648 156.147 62.0465 151.996C61.1464 140.255 61.1189 139.222 61.918 137.598C64.7806 131.783 71.5584 131.994 71.5907 128.691Z" fill="#F5F5F5"/>
<g opacity="0.3">
<path d="M18.328 177.377C20.6222 175.213 19.7251 173.601 22.2461 171.642C24.7071 169.73 26.4082 170.609 27.8601 168.718C29.212 166.957 28.115 165.703 29.2037 163.131C30.2033 160.769 31.7475 160.364 34.7294 157.728C36.7173 155.97 39.335 153.656 40.8146 150.574C43.3827 145.224 41.5871 139.513 40.9792 137.842C39.0256 132.473 35.081 129.643 33.6516 128.715C33.7892 128.567 33.9516 128.399 34.1251 128.222C43.5429 129.512 49.0338 134.935 49.7129 136.541C51.2827 140.253 48.7976 141.617 48.7334 152.322C48.7028 157.44 49.2566 159.46 47.5907 161.596C45.6853 164.039 43.4895 163.283 40.7341 166.477C38.617 168.93 38.9561 170.486 36.9793 171.52C34.8536 172.632 33.4997 171.336 31.1022 171.846C27.0969 172.697 26.2407 177.299 23.5927 179.817C21.5904 181.721 17.8883 183.053 10.5871 181.624C10.4183 181.379 10.3367 181.14 10.3694 180.916C10.5753 179.501 14.9945 180.522 18.328 177.377Z" fill="#F5F5F5"/>
</g>
<path d="M46.8601 139.429C47.8613 141.548 43.2609 146.483 38.1478 148.826C37.1061 149.303 29.6248 152.731 26.2905 149.435C23.5353 146.711 25.3135 141.078 25.9483 139.068C29.0655 129.193 38.6384 124.17 42.6503 122.359C45.6444 129.82 43.8811 133.144 43.187 134.182C42.4619 135.267 40.4384 137.545 38.2894 139.551C36.7777 140.963 35.8364 141.649 35.9631 141.87C36.1206 142.144 37.8924 141.626 44.7748 138.288C45.5727 138.416 46.5181 138.706 46.8601 139.429Z" fill="#D3D3D3"/>
<path d="M75.6567 127.256L72.2799 144.015C72.1717 144.552 71.754 144.974 71.2165 145.089L46.0371 150.474C45.1348 150.667 44.3004 149.94 44.3718 149.023L45.7008 131.978C45.7469 131.387 46.1674 130.892 46.7455 130.75C50.7396 129.767 66.1133 126.088 74.2216 125.61C75.1273 125.557 75.8353 126.369 75.6567 127.256Z" fill="#B2B2B2"/>
<path d="M50.5425 115.017C50.5425 115.017 50.0675 118.801 48.6662 119.668C47.2647 120.534 44.9992 121.667 44.7496 121.974C44.5 122.281 53.4311 123.238 57.8572 121.013C56.3987 120.709 56.002 120.598 56.002 120.598C55.6062 120.486 54.8678 120.279 54.1275 119.859C53.6236 119.573 52.8115 119.014 52.0666 117.959L52.0828 115.864L50.5425 115.017Z" fill="#FDE2D0"/>
<path d="M50.3286 116.355C50.3286 116.355 51.2421 117.605 52.6748 117.084C53.9576 116.618 53.192 113.316 52.1745 112.94C51.8351 112.814 51.2118 112.869 50.7952 113.128C50.5022 113.311 49.7197 114.279 50.1683 115.365C49.8442 115.271 49.5589 115.356 49.4876 115.516C49.3969 115.719 49.6713 115.995 49.7335 116.058C49.949 116.275 50.2089 116.336 50.3286 116.355Z" fill="#FDE2D0"/>
<path d="M74.0536 136.173C74.0536 136.173 75.6598 134.693 75.8345 132.974C76.0093 131.256 74.7972 129.88 73.6229 129.53C72.4486 129.179 71.8219 129.696 72.6102 131.389C73.3986 133.081 74.649 134.179 74.0536 136.173Z" fill="#FDE2D0"/>
</svg>
