<svg width="17" height="18" viewBox="0 0 17 18" fill="none" xmlns="http://www.w3.org/2000/svg">
<g clip-path="url(#clip0_7103_1107)">
<path d="M10.7692 10.6261C10.6759 10.5087 10.6528 10.3993 10.6688 10.2588L11.0697 6.74604C11.1017 6.46502 11.3365 6.27831 11.6176 6.31037C11.8986 6.34244 12.0853 6.57725 12.0532 6.85827L11.6524 10.371C11.6203 10.652 11.3855 10.8387 11.1045 10.8067C10.964 10.7906 10.8626 10.7435 10.7692 10.6261Z" fill="#182452"/>
<path d="M7.65739 6.71276C7.56403 6.59535 7.54093 6.48596 7.55696 6.34545C7.58903 6.06443 7.82384 5.87772 8.10486 5.90978L11.6176 6.31062C11.8986 6.34268 12.0853 6.5775 12.0533 6.85852C12.0212 7.13953 11.7864 7.32625 11.5054 7.29418L7.99263 6.89335C7.85212 6.87732 7.75074 6.83017 7.65739 6.71276Z" fill="#182452"/>
<path d="M4.90837 12.0924C4.72165 11.8576 4.75372 11.5766 4.98853 11.3899L11.2502 6.4108C11.4851 6.22409 11.7661 6.25615 11.9528 6.49097C12.1395 6.72578 12.1074 7.0068 11.8726 7.19351L5.61091 12.1726C5.3761 12.3593 5.09508 12.3272 4.90837 12.0924Z" fill="#182452"/>
</g>
<defs>
<clipPath id="clip0_7103_1107">
<rect width="12" height="12" fill="white" transform="translate(9.39258 0.861328) rotate(51.5097)"/>
</clipPath>
</defs>
</svg>
