<svg width="17" height="17" viewBox="0 0 17 17" fill="none" xmlns="http://www.w3.org/2000/svg">
<path d="M10.7692 9.76476C10.6759 9.64735 10.6528 9.53796 10.6688 9.39745L11.0697 5.88471C11.1017 5.60369 11.3365 5.41698 11.6176 5.44905C11.8986 5.48111 12.0853 5.71593 12.0532 5.99695L11.6524 9.50968C11.6203 9.7907 11.3855 9.97742 11.1045 9.94535C10.964 9.92932 10.8626 9.88217 10.7692 9.76476Z" fill="#FF7312"/>
<path d="M7.65714 5.85143C7.56378 5.73402 7.54068 5.62463 7.55671 5.48412C7.58878 5.2031 7.8236 5.01639 8.10461 5.04846L11.6174 5.44929C11.8984 5.48135 12.0851 5.71617 12.053 5.99719C12.021 6.27821 11.7861 6.46492 11.5051 6.43285L7.99238 6.03202C7.85187 6.01599 7.7505 5.96884 7.65714 5.85143Z" fill="#FF7312"/>
<path d="M4.90837 11.2311C4.72165 10.9963 4.75372 10.7152 4.98853 10.5285L11.2502 5.54947C11.4851 5.36276 11.7661 5.39482 11.9528 5.62964C12.1395 5.86445 12.1074 6.14547 11.8726 6.33219L5.61091 11.3112C5.3761 11.498 5.09508 11.4659 4.90837 11.2311Z" fill="#FF7312"/>
</svg>
