<svg width="18" height="22" viewBox="0 0 18 22" fill="none" xmlns="http://www.w3.org/2000/svg">
<path d="M9.00003 22C9.53046 22 10.0392 21.7893 10.4142 21.4142C10.7893 21.0391 11 20.5304 11 20H7.00003C7.00003 20.5304 7.21074 21.0391 7.58582 21.4142C7.96089 21.7893 8.4696 22 9.00003 22ZM1.00003 18H17C17.1978 18 17.3911 17.9413 17.5555 17.8314C17.7199 17.7215 17.848 17.5654 17.9237 17.3827C17.9994 17.2 18.0192 16.9989 17.9806 16.805C17.942 16.611 17.8468 16.4329 17.707 16.293L16 14.586V9C15.9968 7.3185 15.3889 5.69424 14.2874 4.42379C13.1858 3.15334 11.6641 2.32145 10 2.08V1C10 0.734784 9.89467 0.48043 9.70714 0.292893C9.5196 0.105357 9.26525 0 9.00003 0C8.73481 0 8.48046 0.105357 8.29292 0.292893C8.10539 0.48043 8.00003 0.734784 8.00003 1V2.08C6.33595 2.32145 4.81422 3.15334 3.71267 4.42379C2.61112 5.69424 2.00325 7.3185 2.00003 9V14.586L0.293031 16.293C0.153222 16.4329 0.0580152 16.611 0.0194476 16.805C-0.0191199 16.9989 0.000683092 17.2 0.0763531 17.3827C0.152023 17.5654 0.280163 17.7215 0.444573 17.8314C0.608982 17.9413 0.802281 18 1.00003 18ZM3.70703 15.707C3.89458 15.5195 3.99997 15.2652 4.00003 15V9C4.00003 7.67392 4.52682 6.40215 5.4645 5.46447C6.40218 4.52678 7.67395 4 9.00003 4C10.3261 4 11.5979 4.52678 12.5356 5.46447C13.4732 6.40215 14 7.67392 14 9V15C14.0001 15.2652 14.1055 15.5195 14.293 15.707L14.586 16H3.41403L3.70703 15.707Z" fill="#121212"/>
</svg>
