<svg width="24" height="24" viewBox="0 0 24 24" fill="none" xmlns="http://www.w3.org/2000/svg">
<path d="M11.9998 23C12.5302 23 13.0389 22.7893 13.414 22.4142C13.7891 22.0391 13.9998 21.5304 13.9998 21H9.99979C9.99979 21.5304 10.2105 22.0391 10.5856 22.4142C10.9606 22.7893 11.4694 23 11.9998 23ZM3.99979 19H19.9998C20.1975 19 20.3908 18.9413 20.5552 18.8314C20.7197 18.7215 20.8478 18.5654 20.9235 18.3827C20.9991 18.2 21.0189 17.9989 20.9804 17.805C20.9418 17.611 20.8466 17.4329 20.7068 17.293L18.9998 15.586V10C18.9966 8.3185 18.3887 6.69424 17.2871 5.42379C16.1856 4.15334 14.6639 3.32145 12.9998 3.08V2C12.9998 1.73478 12.8944 1.48043 12.7069 1.29289C12.5194 1.10536 12.265 1 11.9998 1C11.7346 1 11.4802 1.10536 11.2927 1.29289C11.1051 1.48043 10.9998 1.73478 10.9998 2V3.08C9.33571 3.32145 7.81397 4.15334 6.71243 5.42379C5.61088 6.69424 5.003 8.3185 4.99979 10V15.586L3.29279 17.293C3.15298 17.4329 3.05777 17.611 3.0192 17.805C2.98064 17.9989 3.00044 18.2 3.07611 18.3827C3.15178 18.5654 3.27992 18.7215 3.44433 18.8314C3.60874 18.9413 3.80204 19 3.99979 19ZM6.70679 16.707C6.89434 16.5195 6.99973 16.2652 6.99979 16V10C6.99979 8.67392 7.52657 7.40215 8.46425 6.46447C9.40193 5.52678 10.6737 5 11.9998 5C13.3259 5 14.5976 5.52678 15.5353 6.46447C16.473 7.40215 16.9998 8.67392 16.9998 10V16C16.9998 16.2652 17.1052 16.5195 17.2928 16.707L17.5858 17H6.41379L6.70679 16.707Z" fill="white"/>
</svg>
