<svg width="24" height="24" viewBox="0 0 24 24" fill="none" xmlns="http://www.w3.org/2000/svg">
<path d="M7.32012 22.3999H16.7601C17.8401 22.3999 18.6801 21.5199 18.6801 20.4799V7.4799H19.5201C19.7601 7.4799 19.9201 7.3199 19.9201 7.0799V6.1599C19.9201 5.3199 19.2401 4.6799 18.4401 4.6799H15.0401V3.6399C15.0401 2.9599 14.4801 2.3999 13.8001 2.3999H10.2401C9.56012 2.3999 9.00012 2.9599 9.00012 3.6399V4.6799H5.60012C4.76012 4.6799 4.12012 5.3599 4.12012 6.1599V7.0799C4.12012 7.3199 4.28012 7.4799 4.52012 7.4799H5.36012V20.4799C5.36012 21.5199 6.24012 22.3999 7.32012 22.3999ZM17.8801 20.4799C17.8801 21.1199 17.3601 21.5999 16.7601 21.5999H7.32012C6.68012 21.5999 6.20012 21.0799 6.20012 20.4799V7.4799H17.9201V20.4799H17.8801ZM9.80012 3.6399C9.80012 3.3999 10.0001 3.1999 10.2401 3.1999H13.8001C14.0401 3.1999 14.2401 3.3999 14.2401 3.6399V4.6799H9.84012V3.6399H9.80012ZM4.92012 6.1599C4.92012 5.7599 5.24012 5.4799 5.60012 5.4799H18.4001C18.8001 5.4799 19.0801 5.7999 19.0801 6.1599V6.6799H4.92012V6.1599Z" fill="url(#paint0_linear_2127_249)"/>
<path d="M15.16 19.6799C15.4 19.6799 15.56 19.5199 15.56 19.2799V9.75986C15.56 9.51986 15.4 9.35986 15.16 9.35986C14.92 9.35986 14.76 9.51986 14.76 9.75986V19.2799C14.76 19.5199 14.96 19.6799 15.16 19.6799ZM12.04 19.6799C12.28 19.6799 12.44 19.5199 12.44 19.2799V9.75986C12.44 9.51986 12.28 9.35986 12.04 9.35986C11.8 9.35986 11.64 9.51986 11.64 9.75986V19.2799C11.64 19.5199 11.8 19.6799 12.04 19.6799ZM8.87998 19.6799C9.11998 19.6799 9.27998 19.5199 9.27998 19.2799V9.75986C9.27998 9.51986 9.11998 9.35986 8.87998 9.35986C8.63998 9.35986 8.47998 9.51986 8.47998 9.75986V19.2799C8.47998 19.5199 8.63998 19.6799 8.87998 19.6799Z" fill="url(#paint1_linear_2127_249)"/>
<defs>
<linearGradient id="paint0_linear_2127_249" x1="12.0201" y1="2.65631" x2="12.0201" y2="21.6306" gradientUnits="userSpaceOnUse">
<stop stop-color="#FF7312"/>
<stop offset="1" stop-color="#182452"/>
</linearGradient>
<linearGradient id="paint1_linear_2127_249" x1="12.02" y1="9.49217" x2="12.02" y2="19.2829" gradientUnits="userSpaceOnUse">
<stop stop-color="#FF7312"/>
<stop offset="1" stop-color="#182452"/>
</linearGradient>
</defs>
</svg>
