<svg width="13" height="16" viewBox="0 0 13 16" fill="none" xmlns="http://www.w3.org/2000/svg">
<path d="M11.4175 5.71516L11.1598 13.5151C11.1379 14.1831 10.8565 14.8163 10.3753 15.2802C9.89421 15.7442 9.25121 16.0024 8.58284 16H3.68653C3.01858 16.0024 2.37596 15.7446 1.89489 15.2812C1.41383 14.8178 1.13213 14.1853 1.10952 13.5177L0.851822 5.71516C0.846184 5.54429 0.908652 5.37818 1.02549 5.25338C1.14232 5.12857 1.30395 5.05529 1.47481 5.04965C1.64568 5.04401 1.81179 5.10648 1.93659 5.22331C2.0614 5.34014 2.13469 5.50177 2.14032 5.67264L2.39802 13.4745C2.41086 13.8076 2.55225 14.1227 2.79252 14.3537C3.03278 14.5847 3.35322 14.7137 3.68653 14.7134H8.58284C8.91657 14.7136 9.23738 14.5844 9.47771 14.3528C9.71805 14.1212 9.85916 13.8055 9.87134 13.4719L10.129 5.67264C10.1347 5.50177 10.208 5.34014 10.3328 5.22331C10.4576 5.10648 10.6237 5.04401 10.7945 5.04965C10.9654 5.05529 11.127 5.12857 11.2439 5.25338C11.3607 5.37818 11.4232 5.54429 11.4175 5.71516ZM12.2699 3.11947C12.2699 3.29034 12.202 3.4542 12.0812 3.57503C11.9604 3.69585 11.7965 3.76372 11.6256 3.76372H0.644373C0.473507 3.76372 0.309639 3.69585 0.188819 3.57503C0.0679982 3.4542 0.00012207 3.29034 0.00012207 3.11947C0.00012207 2.9486 0.0679982 2.78474 0.188819 2.66392C0.309639 2.5431 0.473507 2.47522 0.644373 2.47522H2.64155C2.84568 2.47577 3.04271 2.40035 3.19431 2.26364C3.3459 2.12694 3.44121 1.93872 3.46168 1.73562C3.50923 1.25919 3.73244 0.817517 4.08783 0.496665C4.44322 0.175812 4.90533 -0.0012391 5.38413 6.52812e-06H6.88523C7.36403 -0.0012391 7.82614 0.175812 8.18153 0.496665C8.53693 0.817517 8.76014 1.25919 8.80768 1.73562C8.82816 1.93872 8.92346 2.12694 9.07506 2.26364C9.22665 2.40035 9.42368 2.47577 9.62781 2.47522H11.625C11.7959 2.47522 11.9597 2.5431 12.0805 2.66392C12.2014 2.78474 12.2692 2.9486 12.2692 3.11947H12.2699ZM4.5801 2.47522H7.69055C7.60589 2.28178 7.55052 2.0768 7.52626 1.86705C7.5103 1.70824 7.43597 1.56102 7.31765 1.4539C7.19934 1.34677 7.04548 1.28738 6.88588 1.28722H5.38477C5.22517 1.28738 5.07131 1.34677 4.953 1.4539C4.83469 1.56102 4.76035 1.70824 4.74439 1.86705C4.71993 2.07684 4.66498 2.28181 4.5801 2.47522ZM5.22886 12.2363V6.75047C5.22886 6.5796 5.16099 6.41574 5.04017 6.29492C4.91935 6.1741 4.75548 6.10622 4.58461 6.10622C4.41375 6.10622 4.24988 6.1741 4.12906 6.29492C4.00824 6.41574 3.94036 6.5796 3.94036 6.75047V12.2388C3.94036 12.4097 4.00824 12.5736 4.12906 12.6944C4.24988 12.8152 4.41375 12.8831 4.58461 12.8831C4.75548 12.8831 4.91935 12.8152 5.04017 12.6944C5.16099 12.5736 5.22886 12.4097 5.22886 12.2388V12.2363ZM8.33029 12.2363V6.75047C8.33029 6.5796 8.26241 6.41574 8.14159 6.29492C8.02077 6.1741 7.8569 6.10622 7.68604 6.10622C7.51517 6.10622 7.3513 6.1741 7.23048 6.29492C7.10966 6.41574 7.04179 6.5796 7.04179 6.75047V12.2388C7.04179 12.4097 7.10966 12.5736 7.23048 12.6944C7.3513 12.8152 7.51517 12.8831 7.68604 12.8831C7.8569 12.8831 8.02077 12.8152 8.14159 12.6944C8.26241 12.5736 8.33029 12.4097 8.33029 12.2388V12.2363Z" fill="url(#paint0_linear_4479_551)"/>
<defs>
<linearGradient id="paint0_linear_4479_551" x1="6.135" y1="0.205128" x2="6.135" y2="15.3846" gradientUnits="userSpaceOnUse">
<stop stop-color="#FF7312"/>
<stop offset="1" stop-color="#182452"/>
</linearGradient>
</defs>
</svg>
