<svg width="24" height="24" viewBox="0 0 24 24" fill="none" xmlns="http://www.w3.org/2000/svg">
<path d="M17.4174 9.71516L17.1597 17.5151C17.1378 18.1831 16.8564 18.8163 16.3752 19.2802C15.8941 19.7442 15.2511 20.0024 14.5827 20H9.6864C9.01846 20.0024 8.37584 19.7446 7.89477 19.2812C7.4137 18.8178 7.13201 18.1853 7.1094 17.5177L6.8517 9.71516C6.84606 9.54429 6.90853 9.37818 7.02536 9.25338C7.1422 9.12857 7.30382 9.05529 7.47469 9.04965C7.64556 9.04401 7.81166 9.10648 7.93647 9.22331C8.06128 9.34014 8.13456 9.50177 8.1402 9.67264L8.3979 17.4745C8.41073 17.8076 8.55213 18.1227 8.7924 18.3537C9.03266 18.5847 9.3531 18.7137 9.6864 18.7134H14.5827C14.9165 18.7136 15.2373 18.5844 15.4776 18.3528C15.7179 18.1212 15.859 17.8055 15.8712 17.4719L16.1289 9.67264C16.1346 9.50177 16.2078 9.34014 16.3326 9.22331C16.4575 9.10648 16.6236 9.04401 16.7944 9.04965C16.9653 9.05529 17.1269 9.12857 17.2438 9.25338C17.3606 9.37818 17.4231 9.54429 17.4174 9.71516ZM18.2698 7.11947C18.2698 7.29034 18.2019 7.4542 18.0811 7.57503C17.9602 7.69585 17.7964 7.76372 17.6255 7.76372H6.64425C6.47339 7.76372 6.30952 7.69585 6.1887 7.57503C6.06788 7.4542 6 7.29034 6 7.11947C6 6.9486 6.06788 6.78474 6.1887 6.66392C6.30952 6.5431 6.47339 6.47522 6.64425 6.47522H8.64143C8.84556 6.47577 9.04259 6.40035 9.19418 6.26364C9.34578 6.12694 9.44109 5.93872 9.46156 5.73562C9.5091 5.25919 9.73232 4.81752 10.0877 4.49666C10.4431 4.17581 10.9052 3.99876 11.384 4.00001H12.8851C13.3639 3.99876 13.826 4.17581 14.1814 4.49666C14.5368 4.81752 14.76 5.25919 14.8076 5.73562C14.828 5.93872 14.9233 6.12694 15.0749 6.26364C15.2265 6.40035 15.4236 6.47577 15.6277 6.47522H17.6249C17.7957 6.47522 17.9596 6.5431 18.0804 6.66392C18.2012 6.78474 18.2691 6.9486 18.2691 7.11947H18.2698ZM10.58 6.47522H13.6904C13.6058 6.28178 13.5504 6.0768 13.5261 5.86705C13.5102 5.70824 13.4358 5.56102 13.3175 5.4539C13.1992 5.34677 13.0454 5.28738 12.8858 5.28722H11.3847C11.225 5.28738 11.0712 5.34677 10.9529 5.4539C10.8346 5.56102 10.7602 5.70824 10.7443 5.86705C10.7198 6.07684 10.6649 6.28181 10.58 6.47522ZM11.2287 16.2363V10.7505C11.2287 10.5796 11.1609 10.4157 11.04 10.2949C10.9192 10.1741 10.7554 10.1062 10.5845 10.1062C10.4136 10.1062 10.2498 10.1741 10.1289 10.2949C10.0081 10.4157 9.94024 10.5796 9.94024 10.7505V16.2388C9.94024 16.4097 10.0081 16.5736 10.1289 16.6944C10.2498 16.8152 10.4136 16.8831 10.5845 16.8831C10.7554 16.8831 10.9192 16.8152 11.04 16.6944C11.1609 16.5736 11.2287 16.4097 11.2287 16.2388V16.2363ZM14.3302 16.2363V10.7505C14.3302 10.5796 14.2623 10.4157 14.1415 10.2949C14.0206 10.1741 13.8568 10.1062 13.6859 10.1062C13.5151 10.1062 13.3512 10.1741 13.2304 10.2949C13.1095 10.4157 13.0417 10.5796 13.0417 10.7505V16.2388C13.0417 16.4097 13.1095 16.5736 13.2304 16.6944C13.3512 16.8152 13.5151 16.8831 13.6859 16.8831C13.8568 16.8831 14.0206 16.8152 14.1415 16.6944C14.2623 16.5736 14.3302 16.4097 14.3302 16.2388V16.2363Z" fill="#FF7312"/>
</svg>
