<svg width="16" height="16" viewBox="0 0 16 16" fill="none" xmlns="http://www.w3.org/2000/svg">
<g clip-path="url(#clip0_1940_19044)">
<path fill-rule="evenodd" clip-rule="evenodd" d="M4.86231 2.72586C4.18356 2.72701 3.61923 2.73679 3.15837 2.79257C2.57989 2.86216 2.09268 3.01054 1.70574 3.35674C1.31945 3.70295 1.15233 4.13887 1.0752 4.65646C1 5.15507 1 5.7894 1 6.57555V8.9392C1 9.72536 1 10.3597 1.0752 10.8583C1.15298 11.3759 1.31881 11.8118 1.70574 12.158C2.09268 12.5042 2.57989 12.6526 3.15837 12.7228C3.71563 12.7895 4.42458 12.7895 5.30321 12.7895H5.30324H7.60991C7.59543 12.6511 7.58801 12.5106 7.58801 12.3684C7.58801 12.2192 7.59618 12.0718 7.61211 11.9268H5.33859C4.41624 11.9268 3.7722 11.9257 3.28692 11.8676C2.81514 11.8107 2.56575 11.7066 2.38771 11.5478C2.20966 11.3885 2.09397 11.1654 2.03034 10.7427C1.96542 10.3085 1.96413 9.73283 1.96413 8.90757V6.9695C2.97261 7.34791 3.80241 7.65386 4.53515 7.88447V8.62002C4.53515 8.73441 4.58594 8.84412 4.67634 8.92501C4.76675 9.0059 4.88936 9.05134 5.01722 9.05134C5.14507 9.05134 5.26768 9.0059 5.35809 8.92501C5.44849 8.84412 5.49928 8.73441 5.49928 8.62002V8.15707C6.31149 8.36377 7.15643 8.44831 7.9996 8.40724C8.55044 8.38423 9.09035 8.30027 9.67719 8.15707V8.62002C9.67719 8.69151 9.69703 8.76118 9.73397 8.82312C10.018 8.67426 10.3222 8.55854 10.6413 8.4811V7.88447C11.3741 7.65328 12.2039 7.34791 13.2123 6.96892V8.71197C13.5631 8.86803 13.8873 9.07309 14.1761 9.31845C14.1765 9.19618 14.1765 9.0698 14.1765 8.93923V8.9392V6.57555V6.57552C14.1765 5.78938 14.1765 5.15506 14.1019 4.65646C14.0235 4.13887 13.8577 3.70295 13.4707 3.35674C13.0838 3.01111 12.5966 2.86159 12.0181 2.79257C11.5572 2.73679 10.9929 2.72701 10.3135 2.72529C10.273 2.2559 10.0361 1.81747 9.65 1.49762C9.26392 1.17777 8.75716 1.00005 8.23099 1H6.94548C6.4191 0.99992 5.91209 1.17765 5.52586 1.49763C5.13962 1.81762 4.90264 2.25627 4.86231 2.72586ZM5.83223 2.72529H9.34424C9.3056 2.48577 9.1718 2.26672 8.96734 2.10829C8.76288 1.94986 8.50146 1.86265 8.23099 1.86264H6.94548C6.67501 1.86265 6.41359 1.94986 6.20913 2.10829C6.00468 2.26672 5.87087 2.48577 5.83223 2.72529ZM7.22187 7.54517C6.67167 7.52274 6.13175 7.43072 5.49928 7.26049V6.60719C5.49928 6.49279 5.44849 6.38308 5.35809 6.30219C5.26768 6.22131 5.14507 6.17586 5.01722 6.17586C4.88936 6.17586 4.76675 6.22131 4.67634 6.30219C4.58594 6.38308 4.53515 6.49279 4.53515 6.60719V6.96662C3.83262 6.73313 3.00475 6.42488 1.96542 6.03381C1.96863 5.50243 1.98149 5.09756 2.03034 4.77205C2.09397 4.34936 2.20966 4.12622 2.38771 3.96692C2.56575 3.80819 2.81514 3.7041 3.28692 3.64717C3.7722 3.58908 4.41624 3.58793 5.33859 3.58793H9.83788C10.7602 3.58793 11.4036 3.58908 11.8889 3.64717C12.3613 3.7041 12.6107 3.80762 12.7888 3.96692C12.9662 4.12622 13.0825 4.34936 13.1461 4.77148C13.195 5.09756 13.2078 5.503 13.2111 6.03381C12.1717 6.42488 11.3439 6.73313 10.6413 6.96662V6.60719C10.6413 6.49279 10.5905 6.38308 10.5001 6.30219C10.4097 6.22131 10.2871 6.17586 10.1593 6.17586C10.0314 6.17586 9.90879 6.22131 9.81838 6.30219C9.72798 6.38308 9.67719 6.49279 9.67719 6.60719V7.26049C9.04536 7.43015 8.5048 7.52216 7.95461 7.54517C7.71036 7.55552 7.46611 7.55552 7.22187 7.54517Z" fill="#FF7312"/>
<path d="M11.6001 9C10.9079 9 10.2312 9.20527 9.6556 9.58986C9.08003 9.97444 8.63143 10.5211 8.36652 11.1606C8.10161 11.8001 8.0323 12.5039 8.16735 13.1828C8.3024 13.8617 8.63574 14.4854 9.12523 14.9749C9.61471 15.4644 10.2383 15.7977 10.9173 15.9327C11.5962 16.0678 12.2999 15.9985 12.9395 15.7336C13.579 15.4687 14.1257 15.0201 14.5102 14.4445C14.8948 13.8689 15.1001 13.1922 15.1001 12.5C15.099 11.5721 14.7299 10.6824 14.0738 10.0263C13.4177 9.37015 12.528 9.00106 11.6001 9ZM11.6001 15.3C11.0463 15.3 10.505 15.1358 10.0445 14.8281C9.58404 14.5204 9.22516 14.0831 9.01324 13.5715C8.80131 13.0599 8.74586 12.4969 8.8539 11.9537C8.96194 11.4106 9.22861 10.9117 9.6202 10.5201C10.0118 10.1285 10.5107 9.86184 11.0538 9.7538C11.597 9.64576 12.16 9.70121 12.6716 9.91314C13.1832 10.1251 13.6205 10.4839 13.9282 10.9444C14.2359 11.4049 14.4001 11.9462 14.4001 12.5C14.3992 13.2423 14.104 13.954 13.5791 14.479C13.0541 15.0039 12.3424 15.2991 11.6001 15.3ZM11.6001 10.4C11.5541 10.4 11.5086 10.409 11.4661 10.4266C11.4237 10.4442 11.3851 10.47 11.3526 10.5025C11.3201 10.535 11.2943 10.5736 11.2767 10.616C11.2591 10.6585 11.2501 10.704 11.2501 10.75V12.4121L10.7665 13.3143C10.7226 13.3962 10.7131 13.4921 10.74 13.581C10.7669 13.6699 10.828 13.7444 10.9098 13.7882C10.9917 13.8321 11.0876 13.8416 11.1765 13.8147C11.2654 13.7878 11.3399 13.7267 11.3837 13.6448L11.9087 12.6653C11.9358 12.6144 11.9501 12.5576 11.9501 12.5V10.75C11.9501 10.704 11.9411 10.6585 11.9235 10.616C11.9059 10.5736 11.8801 10.535 11.8476 10.5025C11.8151 10.47 11.7765 10.4442 11.7341 10.4266C11.6916 10.409 11.6461 10.4 11.6001 10.4Z" fill="#FF7312"/>
</g>
<defs>
<clipPath id="clip0_1940_19044">
<rect width="16" height="16" fill="white"/>
</clipPath>
</defs>
</svg>
