<svg width="24" height="24" viewBox="0 0 24 24" fill="none" xmlns="http://www.w3.org/2000/svg">
<path d="M7.3972 3.0011C7.26838 3.0011 7.14483 3.05388 7.05374 3.14784C6.96265 3.24179 6.91147 3.36923 6.91147 3.5021V4.5011H4.73005C4.63432 4.5007 4.53945 4.51981 4.45089 4.55733C4.36233 4.59484 4.28183 4.65002 4.214 4.71971C4.14617 4.78939 4.09235 4.8722 4.05563 4.96339C4.0189 5.05458 4 5.15235 4 5.2511V20.2511C4 20.3498 4.0189 20.4476 4.05563 20.5388C4.09235 20.63 4.14617 20.7128 4.214 20.7825C4.28183 20.8522 4.36233 20.9074 4.45089 20.9449C4.53945 20.9824 4.63432 21.0015 4.73005 21.0011H19.2729C19.4657 21.0011 19.6507 20.9221 19.787 20.7814C19.9234 20.6408 20 20.45 20 20.2511V5.2511C20 5.05219 19.9234 4.86142 19.787 4.72077C19.6507 4.58012 19.4657 4.5011 19.2729 4.5011H17.0914V3.5021C17.0914 3.36923 17.0403 3.24179 16.9492 3.14784C16.8581 3.05388 16.7345 3.0011 16.6057 3.0011H16.1229C15.9941 3.0011 15.8705 3.05388 15.7794 3.14784C15.6883 3.24179 15.6372 3.36923 15.6372 3.5021V4.5011H8.36575V3.5021C8.36575 3.36923 8.31458 3.24179 8.22348 3.14784C8.13239 3.05388 8.00885 3.0011 7.88002 3.0011H7.3972ZM5.45719 6.0011H18.5457V7.5011H5.45719V6.0011ZM5.45719 9.0011H18.5457V19.5011H5.45719V9.0011ZM6.91147 10.5011V12.0011H8.36575V10.5011H6.91147ZM9.82003 10.5011V12.0011H11.2743V10.5011H9.82003ZM12.7286 10.5011V12.0011H14.1829V10.5011H12.7286ZM15.6372 10.5011V12.0011H17.0914V10.5011H15.6372ZM6.91147 13.5011V15.0011H8.36575V13.5011H6.91147ZM9.82003 13.5011V15.0011H11.2743V13.5011H9.82003ZM12.7286 13.5011V15.0011H14.1829V13.5011H12.7286ZM15.6372 13.5011V15.0011H17.0914V13.5011H15.6372ZM6.91147 16.5011V18.0011H8.36575V16.5011H6.91147ZM9.82003 16.5011V18.0011H11.2743V16.5011H9.82003ZM12.7286 16.5011V18.0011H14.1829V16.5011H12.7286Z" fill="#FF7312"/>
</svg>
