<svg width="16" height="16" viewBox="0 0 16 16" fill="none" xmlns="http://www.w3.org/2000/svg">
<path d="M4.64227 1C4.54207 1 4.44598 1.04105 4.37513 1.11413C4.30428 1.18721 4.26448 1.28632 4.26448 1.38967V2.16667H2.56782C2.49336 2.16636 2.41957 2.18122 2.35069 2.2104C2.28182 2.23958 2.2192 2.2825 2.16645 2.33669C2.11369 2.39089 2.07183 2.4553 2.04327 2.52623C2.0147 2.59715 2 2.6732 2 2.75V14.4167C2 14.4935 2.0147 14.5695 2.04327 14.6404C2.07183 14.7114 2.11369 14.7758 2.16645 14.83C2.2192 14.8842 2.28182 14.9271 2.35069 14.9563C2.41957 14.9854 2.49336 15.0003 2.56782 15H13.8789C14.0289 15 14.1727 14.9385 14.2788 14.8291C14.3849 14.7197 14.4444 14.5714 14.4444 14.4167V2.75C14.4444 2.59529 14.3849 2.44692 14.2788 2.33752C14.1727 2.22812 14.0289 2.16667 13.8789 2.16667H12.1822V1.38967C12.1822 1.28632 12.1424 1.18721 12.0716 1.11413C12.0007 1.04105 11.9046 1 11.8044 1H11.4289C11.3287 1 11.2326 1.04105 11.1618 1.11413C11.0909 1.18721 11.0511 1.28632 11.0511 1.38967V2.16667H5.39558V1.38967C5.39558 1.28632 5.35578 1.18721 5.28493 1.11413C5.21408 1.04105 5.11799 1 5.01779 1H4.64227ZM3.13337 3.33333H13.3133V4.5H3.13337V3.33333ZM3.13337 5.66667H13.3133V13.8333H3.13337V5.66667ZM4.26448 6.83333V8H5.39558V6.83333H4.26448ZM6.52669 6.83333V8H7.6578V6.83333H6.52669ZM8.78891 6.83333V8H9.92001V6.83333H8.78891ZM11.0511 6.83333V8H12.1822V6.83333H11.0511ZM4.26448 9.16666V10.3333H5.39558V9.16666H4.26448ZM6.52669 9.16666V10.3333H7.6578V9.16666H6.52669ZM8.78891 9.16666V10.3333H9.92001V9.16666H8.78891ZM11.0511 9.16666V10.3333H12.1822V9.16666H11.0511ZM4.26448 11.5V12.6667H5.39558V11.5H4.26448ZM6.52669 11.5V12.6667H7.6578V11.5H6.52669ZM8.78891 11.5V12.6667H9.92001V11.5H8.78891Z" fill="#FF7312"/>
</svg>
