<svg width="24" height="24" viewBox="0 0 24 24" fill="none" xmlns="http://www.w3.org/2000/svg">
<path d="M7.3972 3.00098C7.26838 3.00098 7.14483 3.05376 7.05374 3.14772C6.96265 3.24167 6.91147 3.3691 6.91147 3.50198V4.50098H4.73005C4.63432 4.50058 4.53945 4.51969 4.45089 4.5572C4.36233 4.59472 4.28183 4.6499 4.214 4.71958C4.14617 4.78927 4.09235 4.87208 4.05563 4.96327C4.0189 5.05446 4 5.15223 4 5.25098V20.251C4 20.3497 4.0189 20.4475 4.05563 20.5387C4.09235 20.6299 4.14617 20.7127 4.214 20.7824C4.28183 20.8521 4.36233 20.9072 4.45089 20.9447C4.53945 20.9823 4.63432 21.0014 4.73005 21.001H19.2729C19.4657 21.001 19.6507 20.922 19.787 20.7813C19.9234 20.6407 20 20.4499 20 20.251V5.25098C20 5.05206 19.9234 4.8613 19.787 4.72065C19.6507 4.57999 19.4657 4.50098 19.2729 4.50098H17.0914V3.50198C17.0914 3.3691 17.0403 3.24167 16.9492 3.14772C16.8581 3.05376 16.7345 3.00098 16.6057 3.00098H16.1229C15.9941 3.00098 15.8705 3.05376 15.7794 3.14772C15.6883 3.24167 15.6372 3.3691 15.6372 3.50198V4.50098H8.36575V3.50198C8.36575 3.3691 8.31458 3.24167 8.22348 3.14772C8.13239 3.05376 8.00885 3.00098 7.88002 3.00098H7.3972ZM5.45719 6.00098H18.5457V7.50098H5.45719V6.00098ZM5.45719 9.00098H18.5457V19.501H5.45719V9.00098ZM6.91147 10.501V12.001H8.36575V10.501H6.91147ZM9.82003 10.501V12.001H11.2743V10.501H9.82003ZM12.7286 10.501V12.001H14.1829V10.501H12.7286ZM15.6372 10.501V12.001H17.0914V10.501H15.6372ZM6.91147 13.501V15.001H8.36575V13.501H6.91147ZM9.82003 13.501V15.001H11.2743V13.501H9.82003ZM12.7286 13.501V15.001H14.1829V13.501H12.7286ZM15.6372 13.501V15.001H17.0914V13.501H15.6372ZM6.91147 16.501V18.001H8.36575V16.501H6.91147ZM9.82003 16.501V18.001H11.2743V16.501H9.82003ZM12.7286 16.501V18.001H14.1829V16.501H12.7286Z" fill="url(#paint0_linear_2326_1662)"/>
<defs>
<linearGradient id="paint0_linear_2326_1662" x1="12" y1="3.23175" x2="12" y2="20.3087" gradientUnits="userSpaceOnUse">
<stop stop-color="#FF7312"/>
<stop offset="1" stop-color="#182452"/>
</linearGradient>
</defs>
</svg>
