<svg width="16" height="18" viewBox="0 0 16 18" fill="none" xmlns="http://www.w3.org/2000/svg">
<path d="M3.3972 0.000976562C3.26838 0.000976563 3.14483 0.0537602 3.05374 0.147716C2.96265 0.241672 2.91147 0.369103 2.91147 0.501977V1.50098H0.730049C0.634315 1.50058 0.539448 1.51969 0.450891 1.5572C0.362334 1.59472 0.281831 1.6499 0.214002 1.71958C0.146172 1.78927 0.0923511 1.87208 0.0556271 1.96327C0.0189031 2.05446 -7.65857e-07 2.15223 0 2.25098V17.251C-7.65857e-07 17.3497 0.0189031 17.4475 0.0556271 17.5387C0.0923511 17.6299 0.146172 17.7127 0.214002 17.7824C0.281831 17.8521 0.362334 17.9072 0.450891 17.9447C0.539448 17.9823 0.634315 18.0014 0.730049 18.001H15.2729C15.4657 18.001 15.6507 17.922 15.787 17.7813C15.9234 17.6407 16 17.4499 16 17.251V2.25098C16 2.05206 15.9234 1.8613 15.787 1.72065C15.6507 1.57999 15.4657 1.50098 15.2729 1.50098H13.0914V0.501977C13.0914 0.369103 13.0403 0.241672 12.9492 0.147716C12.8581 0.0537602 12.7345 0.000976562 12.6057 0.000976562H12.1229C11.9941 0.000976563 11.8705 0.0537602 11.7794 0.147716C11.6883 0.241672 11.6372 0.369103 11.6372 0.501977V1.50098H4.36575V0.501977C4.36575 0.369103 4.31458 0.241672 4.22348 0.147716C4.13239 0.0537602 4.00885 0.000976562 3.88002 0.000976562H3.3972ZM1.45719 3.00098H14.5457V4.50098H1.45719V3.00098ZM1.45719 6.00098H14.5457V16.501H1.45719V6.00098ZM2.91147 7.50098V9.00098H4.36575V7.50098H2.91147ZM5.82003 7.50098V9.00098H7.27431V7.50098H5.82003ZM8.72859 7.50098V9.00098H10.1829V7.50098H8.72859ZM11.6372 7.50098V9.00098H13.0914V7.50098H11.6372ZM2.91147 10.501V12.001H4.36575V10.501H2.91147ZM5.82003 10.501V12.001H7.27431V10.501H5.82003ZM8.72859 10.501V12.001H10.1829V10.501H8.72859ZM11.6372 10.501V12.001H13.0914V10.501H11.6372ZM2.91147 13.501V15.001H4.36575V13.501H2.91147ZM5.82003 13.501V15.001H7.27431V13.501H5.82003ZM8.72859 13.501V15.001H10.1829V13.501H8.72859Z" fill="url(#paint0_linear_2326_1663)"/>
<defs>
<linearGradient id="paint0_linear_2326_1663" x1="8" y1="0.231746" x2="8" y2="17.3087" gradientUnits="userSpaceOnUse">
<stop stop-color="#FF7312"/>
<stop offset="1" stop-color="#182452"/>
</linearGradient>
</defs>
</svg>
