<svg width="20" height="20" viewBox="0 0 20 20" fill="none" xmlns="http://www.w3.org/2000/svg">
<path fill-rule="evenodd" clip-rule="evenodd" d="M12.5 3.80769V3.53846C12.5 3.24123 12.7423 3 13.0385 3C13.3346 3 13.5769 3.24123 13.5769 3.53846V3.80769H15.4615C15.7604 3.80769 16 4.04865 16 4.34615V9.38938C17.2815 10.067 18.1538 11.4132 18.1538 12.9615C18.1538 15.1905 16.3446 17 14.1154 17C12.5673 17 11.2211 16.1266 10.5427 14.8462H2.53846C2.23962 14.8462 2 14.6052 2 14.3077V4.34615C2 4.04865 2.23962 3.80769 2.53846 3.80769H4.42308V3.53846C4.42308 3.24123 4.66538 3 4.96154 3C5.25769 3 5.5 3.24123 5.5 3.53846V3.80769H7.11539V3.53846C7.11539 3.24123 7.35769 3 7.65385 3C7.95 3 8.19231 3.24123 8.19231 3.53846V3.80769H9.80769V3.53846C9.80769 3.24123 10.05 3 10.3462 3C10.6423 3 10.8846 3.24123 10.8846 3.53846V3.80769H12.5ZM14.1154 10C15.7496 10 17.0769 11.327 17.0769 12.9615C17.0769 14.596 15.7496 15.9231 14.1154 15.9231C12.4812 15.9231 11.1538 14.596 11.1538 12.9615C11.1538 11.327 12.4812 10 14.1154 10ZM13.5769 11.3462V12.9615C13.5769 13.1042 13.6335 13.2413 13.7358 13.3422L14.5435 14.1499C14.7535 14.3602 15.0927 14.3602 15.3027 14.1499C15.5154 13.9399 15.5154 13.5985 15.3027 13.3885L14.6538 12.7386V11.3462C14.6538 11.0489 14.4115 10.8077 14.1154 10.8077C13.8192 10.8077 13.5769 11.0489 13.5769 11.3462ZM4.42308 4.88462H3.07692V13.7692H10.1577C10.1039 13.5083 10.0769 13.238 10.0769 12.9615C10.0769 12.685 10.1039 12.4147 10.1577 12.1538H10.0769C9.78077 12.1538 9.53846 11.9126 9.53846 11.6154C9.53846 11.3182 9.78077 11.0769 10.0769 11.0769H10.5427C11.2211 9.79646 12.5673 8.92308 14.1154 8.92308C14.3927 8.92308 14.6619 8.95108 14.9231 9.00411V4.88462H13.5769V5.15385C13.5769 5.45108 13.3346 5.69231 13.0385 5.69231C12.7423 5.69231 12.5 5.45108 12.5 5.15385V4.88462H10.8846V5.15385C10.8846 5.45108 10.6423 5.69231 10.3462 5.69231C10.05 5.69231 9.80769 5.45108 9.80769 5.15385V4.88462H8.19231V5.15385C8.19231 5.45108 7.95 5.69231 7.65385 5.69231C7.35769 5.69231 7.11539 5.45108 7.11539 5.15385V4.88462H5.5V5.15385C5.5 5.45108 5.25769 5.69231 4.96154 5.69231C4.66538 5.69231 4.42308 5.45108 4.42308 5.15385V4.88462ZM4.69231 12.1538H5.23077C5.52692 12.1538 5.76923 11.9126 5.76923 11.6154C5.76923 11.3182 5.52692 11.0769 5.23077 11.0769H4.69231C4.39615 11.0769 4.15385 11.3182 4.15385 11.6154C4.15385 11.9126 4.39615 12.1538 4.69231 12.1538ZM7.38462 12.1538H7.92308C8.21923 12.1538 8.46154 11.9126 8.46154 11.6154C8.46154 11.3182 8.21923 11.0769 7.92308 11.0769H7.38462C7.08846 11.0769 6.84615 11.3182 6.84615 11.6154C6.84615 11.9126 7.08846 12.1538 7.38462 12.1538ZM4.69231 10.2692H5.23077C5.52692 10.2692 5.76923 10.028 5.76923 9.73077C5.76923 9.43354 5.52692 9.19231 5.23077 9.19231H4.69231C4.39615 9.19231 4.15385 9.43354 4.15385 9.73077C4.15385 10.028 4.39615 10.2692 4.69231 10.2692ZM7.38462 10.2692H7.92308C8.21923 10.2692 8.46154 10.028 8.46154 9.73077C8.46154 9.43354 8.21923 9.19231 7.92308 9.19231H7.38462C7.08846 9.19231 6.84615 9.43354 6.84615 9.73077C6.84615 10.028 7.08846 10.2692 7.38462 10.2692ZM10.0769 10.2692H10.6154C10.9115 10.2692 11.1538 10.028 11.1538 9.73077C11.1538 9.43354 10.9115 9.19231 10.6154 9.19231H10.0769C9.78077 9.19231 9.53846 9.43354 9.53846 9.73077C9.53846 10.028 9.78077 10.2692 10.0769 10.2692ZM7.38462 8.38462H7.92308C8.21923 8.38462 8.46154 8.14338 8.46154 7.84615C8.46154 7.54892 8.21923 7.30769 7.92308 7.30769H7.38462C7.08846 7.30769 6.84615 7.54892 6.84615 7.84615C6.84615 8.14338 7.08846 8.38462 7.38462 8.38462ZM10.0769 8.38462H10.6154C10.9115 8.38462 11.1538 8.14338 11.1538 7.84615C11.1538 7.54892 10.9115 7.30769 10.6154 7.30769H10.0769C9.78077 7.30769 9.53846 7.54892 9.53846 7.84615C9.53846 8.14338 9.78077 8.38462 10.0769 8.38462ZM12.7692 8.38462H13.3077C13.6038 8.38462 13.8462 8.14338 13.8462 7.84615C13.8462 7.54892 13.6038 7.30769 13.3077 7.30769H12.7692C12.4731 7.30769 12.2308 7.54892 12.2308 7.84615C12.2308 8.14338 12.4731 8.38462 12.7692 8.38462ZM4.69231 8.38462H5.23077C5.52692 8.38462 5.76923 8.14338 5.76923 7.84615C5.76923 7.54892 5.52692 7.30769 5.23077 7.30769H4.69231C4.39615 7.30769 4.15385 7.54892 4.15385 7.84615C4.15385 8.14338 4.39615 8.38462 4.69231 8.38462Z" fill="url(#paint0_linear_7103_3189)"/>
<defs>
<linearGradient id="paint0_linear_7103_3189" x1="10.0769" y1="3.17949" x2="10.0769" y2="16.4615" gradientUnits="userSpaceOnUse">
<stop stop-color="#FF7312"/>
<stop offset="1" stop-color="#182452"/>
</linearGradient>
</defs>
</svg>
