<svg width="24" height="24" viewBox="0 0 24 24" fill="none" xmlns="http://www.w3.org/2000/svg">
<path d="M7.39708 3.00098C7.26826 3.00098 7.14471 3.05376 7.05362 3.14772C6.96252 3.24167 6.91135 3.3691 6.91135 3.50198V4.50098H4.72993C4.63419 4.50058 4.53933 4.51969 4.45077 4.5572C4.36221 4.59472 4.28171 4.6499 4.21388 4.71958C4.14605 4.78927 4.09223 4.87208 4.05551 4.96327C4.01878 5.05446 3.99988 5.15223 3.99988 5.25098V20.251C3.99988 20.3497 4.01878 20.4475 4.05551 20.5387C4.09223 20.6299 4.14605 20.7127 4.21388 20.7824C4.28171 20.8521 4.36221 20.9072 4.45077 20.9447C4.53933 20.9823 4.63419 21.0014 4.72993 21.001H19.2727C19.4656 21.001 19.6505 20.922 19.7869 20.7813C19.9233 20.6407 19.9999 20.4499 19.9999 20.251V5.25098C19.9999 5.05206 19.9233 4.8613 19.7869 4.72065C19.6505 4.57999 19.4656 4.50098 19.2727 4.50098H17.0913V3.50198C17.0913 3.3691 17.0401 3.24167 16.949 3.14772C16.858 3.05376 16.7344 3.00098 16.6056 3.00098H16.1228C15.9939 3.00098 15.8704 3.05376 15.7793 3.14772C15.6882 3.24167 15.637 3.3691 15.637 3.50198V4.50098H8.36563V3.50198C8.36563 3.3691 8.31445 3.24167 8.22336 3.14772C8.13227 3.05376 8.00872 3.00098 7.8799 3.00098H7.39708ZM5.45707 6.00098H18.5456V7.50098H5.45707V6.00098ZM5.45707 9.00098H18.5456V19.501H5.45707V9.00098ZM6.91135 10.501V12.001H8.36563V10.501H6.91135ZM9.81991 10.501V12.001H11.2742V10.501H9.81991ZM12.7285 10.501V12.001H14.1828V10.501H12.7285ZM15.637 10.501V12.001H17.0913V10.501H15.637ZM6.91135 13.501V15.001H8.36563V13.501H6.91135ZM9.81991 13.501V15.001H11.2742V13.501H9.81991ZM12.7285 13.501V15.001H14.1828V13.501H12.7285ZM15.637 13.501V15.001H17.0913V13.501H15.637ZM6.91135 16.501V18.001H8.36563V16.501H6.91135ZM9.81991 16.501V18.001H11.2742V16.501H9.81991ZM12.7285 16.501V18.001H14.1828V16.501H12.7285Z" fill="#182452"/>
<path d="M5 6.00244H18.5V7.50244H5V6.00244Z" fill="#CCD4F2"/>
</svg>
