<svg width="20" height="21" viewBox="0 0 20 21" fill="none" xmlns="http://www.w3.org/2000/svg">
<path fill-rule="evenodd" clip-rule="evenodd" d="M12.5 4.66902V4.39979C12.5 4.10256 12.7423 3.86133 13.0385 3.86133C13.3346 3.86133 13.5769 4.10256 13.5769 4.39979V4.66902H15.4615C15.7604 4.66902 16 4.90998 16 5.20748V10.2507C17.2815 10.9284 18.1538 12.2745 18.1538 13.8229C18.1538 16.0518 16.3446 17.8613 14.1154 17.8613C12.5673 17.8613 11.2211 16.9879 10.5427 15.7075H2.53846C2.23962 15.7075 2 15.4665 2 15.169V5.20748C2 4.90998 2.23962 4.66902 2.53846 4.66902H4.42308V4.39979C4.42308 4.10256 4.66538 3.86133 4.96154 3.86133C5.25769 3.86133 5.5 4.10256 5.5 4.39979V4.66902H7.11539V4.39979C7.11539 4.10256 7.35769 3.86133 7.65385 3.86133C7.95 3.86133 8.19231 4.10256 8.19231 4.39979V4.66902H9.80769V4.39979C9.80769 4.10256 10.05 3.86133 10.3462 3.86133C10.6423 3.86133 10.8846 4.10256 10.8846 4.39979V4.66902H12.5ZM14.1154 10.8613C15.7496 10.8613 17.0769 12.1884 17.0769 13.8229C17.0769 15.4574 15.7496 16.7844 14.1154 16.7844C12.4812 16.7844 11.1538 15.4574 11.1538 13.8229C11.1538 12.1884 12.4812 10.8613 14.1154 10.8613ZM13.5769 12.2075V13.8229C13.5769 13.9656 13.6335 14.1026 13.7358 14.2036L14.5435 15.0113C14.7535 15.2215 15.0927 15.2215 15.3027 15.0113C15.5154 14.8013 15.5154 14.4599 15.3027 14.2499L14.6538 13.5999V12.2075C14.6538 11.9103 14.4115 11.669 14.1154 11.669C13.8192 11.669 13.5769 11.9103 13.5769 12.2075ZM4.42308 5.74594H3.07692V14.6306H10.1577C10.1039 14.3697 10.0769 14.0994 10.0769 13.8229C10.0769 13.5464 10.1039 13.2761 10.1577 13.0152H10.0769C9.78077 13.0152 9.53846 12.7739 9.53846 12.4767C9.53846 12.1795 9.78077 11.9383 10.0769 11.9383H10.5427C11.2211 10.6578 12.5673 9.78441 14.1154 9.78441C14.3927 9.78441 14.6619 9.8124 14.9231 9.86544V5.74594H13.5769V6.01517C13.5769 6.31241 13.3346 6.55364 13.0385 6.55364C12.7423 6.55364 12.5 6.31241 12.5 6.01517V5.74594H10.8846V6.01517C10.8846 6.31241 10.6423 6.55364 10.3462 6.55364C10.05 6.55364 9.80769 6.31241 9.80769 6.01517V5.74594H8.19231V6.01517C8.19231 6.31241 7.95 6.55364 7.65385 6.55364C7.35769 6.55364 7.11539 6.31241 7.11539 6.01517V5.74594H5.5V6.01517C5.5 6.31241 5.25769 6.55364 4.96154 6.55364C4.66538 6.55364 4.42308 6.31241 4.42308 6.01517V5.74594ZM4.69231 13.0152H5.23077C5.52692 13.0152 5.76923 12.7739 5.76923 12.4767C5.76923 12.1795 5.52692 11.9383 5.23077 11.9383H4.69231C4.39615 11.9383 4.15385 12.1795 4.15385 12.4767C4.15385 12.7739 4.39615 13.0152 4.69231 13.0152ZM7.38462 13.0152H7.92308C8.21923 13.0152 8.46154 12.7739 8.46154 12.4767C8.46154 12.1795 8.21923 11.9383 7.92308 11.9383H7.38462C7.08846 11.9383 6.84615 12.1795 6.84615 12.4767C6.84615 12.7739 7.08846 13.0152 7.38462 13.0152ZM4.69231 11.1306H5.23077C5.52692 11.1306 5.76923 10.8893 5.76923 10.5921C5.76923 10.2949 5.52692 10.0536 5.23077 10.0536H4.69231C4.39615 10.0536 4.15385 10.2949 4.15385 10.5921C4.15385 10.8893 4.39615 11.1306 4.69231 11.1306ZM7.38462 11.1306H7.92308C8.21923 11.1306 8.46154 10.8893 8.46154 10.5921C8.46154 10.2949 8.21923 10.0536 7.92308 10.0536H7.38462C7.08846 10.0536 6.84615 10.2949 6.84615 10.5921C6.84615 10.8893 7.08846 11.1306 7.38462 11.1306ZM10.0769 11.1306H10.6154C10.9115 11.1306 11.1538 10.8893 11.1538 10.5921C11.1538 10.2949 10.9115 10.0536 10.6154 10.0536H10.0769C9.78077 10.0536 9.53846 10.2949 9.53846 10.5921C9.53846 10.8893 9.78077 11.1306 10.0769 11.1306ZM7.38462 9.24594H7.92308C8.21923 9.24594 8.46154 9.00471 8.46154 8.70748C8.46154 8.41025 8.21923 8.16902 7.92308 8.16902H7.38462C7.08846 8.16902 6.84615 8.41025 6.84615 8.70748C6.84615 9.00471 7.08846 9.24594 7.38462 9.24594ZM10.0769 9.24594H10.6154C10.9115 9.24594 11.1538 9.00471 11.1538 8.70748C11.1538 8.41025 10.9115 8.16902 10.6154 8.16902H10.0769C9.78077 8.16902 9.53846 8.41025 9.53846 8.70748C9.53846 9.00471 9.78077 9.24594 10.0769 9.24594ZM12.7692 9.24594H13.3077C13.6038 9.24594 13.8462 9.00471 13.8462 8.70748C13.8462 8.41025 13.6038 8.16902 13.3077 8.16902H12.7692C12.4731 8.16902 12.2308 8.41025 12.2308 8.70748C12.2308 9.00471 12.4731 9.24594 12.7692 9.24594ZM4.69231 9.24594H5.23077C5.52692 9.24594 5.76923 9.00471 5.76923 8.70748C5.76923 8.41025 5.52692 8.16902 5.23077 8.16902H4.69231C4.39615 8.16902 4.15385 8.41025 4.15385 8.70748C4.15385 9.00471 4.39615 9.24594 4.69231 9.24594Z" fill="#FF7312"/>
</svg>
