<svg width="17" height="14" viewBox="0 0 17 14" fill="none" xmlns="http://www.w3.org/2000/svg">
<path fill-rule="evenodd" clip-rule="evenodd" d="M10.5 0.807692V0.538462C10.5 0.241231 10.7423 0 11.0385 0C11.3346 0 11.5769 0.241231 11.5769 0.538462V0.807692H13.4615C13.7604 0.807692 14 1.04865 14 1.34615V6.38938C15.2815 7.06704 16.1538 8.41319 16.1538 9.96154C16.1538 12.1905 14.3446 14 12.1154 14C10.5673 14 9.22115 13.1266 8.54269 11.8462H0.538462C0.239615 11.8462 0 11.6052 0 11.3077V1.34615C0 1.04865 0.239615 0.807692 0.538462 0.807692H2.42308V0.538462C2.42308 0.241231 2.66538 0 2.96154 0C3.25769 0 3.5 0.241231 3.5 0.538462V0.807692H5.11539V0.538462C5.11539 0.241231 5.35769 0 5.65385 0C5.95 0 6.19231 0.241231 6.19231 0.538462V0.807692H7.80769V0.538462C7.80769 0.241231 8.05 0 8.34615 0C8.64231 0 8.88462 0.241231 8.88462 0.538462V0.807692H10.5ZM12.1154 7C13.7496 7 15.0769 8.32704 15.0769 9.96154C15.0769 11.596 13.7496 12.9231 12.1154 12.9231C10.4812 12.9231 9.15385 11.596 9.15385 9.96154C9.15385 8.32704 10.4812 7 12.1154 7ZM11.5769 8.34615V9.96154C11.5769 10.1042 11.6335 10.2413 11.7358 10.3422L12.5435 11.1499C12.7535 11.3602 13.0927 11.3602 13.3027 11.1499C13.5154 10.9399 13.5154 10.5985 13.3027 10.3885L12.6538 9.73862V8.34615C12.6538 8.04892 12.4115 7.80769 12.1154 7.80769C11.8192 7.80769 11.5769 8.04892 11.5769 8.34615ZM2.42308 1.88462H1.07692V10.7692H8.15771C8.10386 10.5083 8.07692 10.238 8.07692 9.96154C8.07692 9.68504 8.10386 9.41473 8.15771 9.15385H8.07692C7.78077 9.15385 7.53846 8.91262 7.53846 8.61539C7.53846 8.31815 7.78077 8.07692 8.07692 8.07692H8.54269C9.22115 6.79646 10.5673 5.92308 12.1154 5.92308C12.3927 5.92308 12.6619 5.95108 12.9231 6.00411V1.88462H11.5769V2.15385C11.5769 2.45108 11.3346 2.69231 11.0385 2.69231C10.7423 2.69231 10.5 2.45108 10.5 2.15385V1.88462H8.88462V2.15385C8.88462 2.45108 8.64231 2.69231 8.34615 2.69231C8.05 2.69231 7.80769 2.45108 7.80769 2.15385V1.88462H6.19231V2.15385C6.19231 2.45108 5.95 2.69231 5.65385 2.69231C5.35769 2.69231 5.11539 2.45108 5.11539 2.15385V1.88462H3.5V2.15385C3.5 2.45108 3.25769 2.69231 2.96154 2.69231C2.66538 2.69231 2.42308 2.45108 2.42308 2.15385V1.88462ZM2.69231 9.15385H3.23077C3.52692 9.15385 3.76923 8.91262 3.76923 8.61539C3.76923 8.31815 3.52692 8.07692 3.23077 8.07692H2.69231C2.39615 8.07692 2.15385 8.31815 2.15385 8.61539C2.15385 8.91262 2.39615 9.15385 2.69231 9.15385ZM5.38462 9.15385H5.92308C6.21923 9.15385 6.46154 8.91262 6.46154 8.61539C6.46154 8.31815 6.21923 8.07692 5.92308 8.07692H5.38462C5.08846 8.07692 4.84615 8.31815 4.84615 8.61539C4.84615 8.91262 5.08846 9.15385 5.38462 9.15385ZM2.69231 7.26923H3.23077C3.52692 7.26923 3.76923 7.028 3.76923 6.73077C3.76923 6.43354 3.52692 6.19231 3.23077 6.19231H2.69231C2.39615 6.19231 2.15385 6.43354 2.15385 6.73077C2.15385 7.028 2.39615 7.26923 2.69231 7.26923ZM5.38462 7.26923H5.92308C6.21923 7.26923 6.46154 7.028 6.46154 6.73077C6.46154 6.43354 6.21923 6.19231 5.92308 6.19231H5.38462C5.08846 6.19231 4.84615 6.43354 4.84615 6.73077C4.84615 7.028 5.08846 7.26923 5.38462 7.26923ZM8.07692 7.26923H8.61539C8.91154 7.26923 9.15385 7.028 9.15385 6.73077C9.15385 6.43354 8.91154 6.19231 8.61539 6.19231H8.07692C7.78077 6.19231 7.53846 6.43354 7.53846 6.73077C7.53846 7.028 7.78077 7.26923 8.07692 7.26923ZM5.38462 5.38462H5.92308C6.21923 5.38462 6.46154 5.14338 6.46154 4.84615C6.46154 4.54892 6.21923 4.30769 5.92308 4.30769H5.38462C5.08846 4.30769 4.84615 4.54892 4.84615 4.84615C4.84615 5.14338 5.08846 5.38462 5.38462 5.38462ZM8.07692 5.38462H8.61539C8.91154 5.38462 9.15385 5.14338 9.15385 4.84615C9.15385 4.54892 8.91154 4.30769 8.61539 4.30769H8.07692C7.78077 4.30769 7.53846 4.54892 7.53846 4.84615C7.53846 5.14338 7.78077 5.38462 8.07692 5.38462ZM10.7692 5.38462H11.3077C11.6038 5.38462 11.8462 5.14338 11.8462 4.84615C11.8462 4.54892 11.6038 4.30769 11.3077 4.30769H10.7692C10.4731 4.30769 10.2308 4.54892 10.2308 4.84615C10.2308 5.14338 10.4731 5.38462 10.7692 5.38462ZM2.69231 5.38462H3.23077C3.52692 5.38462 3.76923 5.14338 3.76923 4.84615C3.76923 4.54892 3.52692 4.30769 3.23077 4.30769H2.69231C2.39615 4.30769 2.15385 4.54892 2.15385 4.84615C2.15385 5.14338 2.39615 5.38462 2.69231 5.38462Z" fill="url(#paint0_linear_4398_329)"/>
<defs>
<linearGradient id="paint0_linear_4398_329" x1="8.07692" y1="0.179487" x2="8.07692" y2="13.4615" gradientUnits="userSpaceOnUse">
<stop stop-color="#FF7312"/>
<stop offset="1" stop-color="#182452"/>
</linearGradient>
</defs>
</svg>
