<svg width="24" height="24" viewBox="0 0 24 24" fill="none" xmlns="http://www.w3.org/2000/svg">
<circle cx="12.0015" cy="12" r="12" fill="#F2F2F2"/>
<path d="M16.9663 7.61145H16.0654L15.8402 6.90764C15.6942 6.49466 15.4233 6.13732 15.0652 5.88511C14.7071 5.63291 14.2794 5.49833 13.8413 5.50002H10.2378C9.79551 5.50084 9.36463 5.64055 9.00599 5.89943C8.64735 6.15831 8.37906 6.52328 8.239 6.94283L8.01378 7.64664H7.1129C6.55291 7.64664 6.01586 7.86909 5.61989 8.26507C5.22392 8.66104 5.00146 9.19809 5.00146 9.75807V15.3886C5.00146 15.9486 5.22392 16.4856 5.61989 16.8816C6.01586 17.2775 6.55291 17.5 7.1129 17.5H16.9663C17.5262 17.5 18.0633 17.2775 18.4593 16.8816C18.8552 16.4856 19.0777 15.9486 19.0777 15.3886V9.75807C19.0824 9.47785 19.0312 9.1995 18.9272 8.93925C18.8232 8.67901 18.6684 8.44207 18.4718 8.24226C18.2753 8.04246 18.041 7.88378 17.7825 7.77547C17.524 7.66717 17.2465 7.61141 16.9663 7.61145ZM17.6701 15.3534C17.6701 15.54 17.5959 15.7191 17.4639 15.851C17.3319 15.983 17.1529 16.0572 16.9663 16.0572H7.1129C6.92624 16.0572 6.74722 15.983 6.61523 15.851C6.48324 15.7191 6.40909 15.54 6.40909 15.3534V9.72288C6.40909 9.53622 6.48324 9.3572 6.61523 9.22521C6.74722 9.09322 6.92624 9.01907 7.1129 9.01907H8.52052C8.674 9.02708 8.82588 8.98464 8.95297 8.89822C9.08006 8.8118 9.17536 8.68616 9.22433 8.54048L9.60439 7.38623C9.65161 7.24644 9.74156 7.12502 9.86154 7.03914C9.98152 6.95326 10.1255 6.90726 10.273 6.90764H13.8765C14.0241 6.90726 14.168 6.95326 14.288 7.03914C14.408 7.12502 14.4979 7.24644 14.5451 7.38623L14.9252 8.54048C14.9704 8.67473 15.055 8.79223 15.168 8.87761C15.281 8.963 15.4172 9.0123 15.5586 9.01907H16.9663C17.1529 9.01907 17.3319 9.09322 17.4639 9.22521C17.5959 9.3572 17.6701 9.53622 17.6701 9.72288V15.3534ZM12.0396 9.01907C11.4828 9.01907 10.9385 9.18418 10.4755 9.49353C10.0125 9.80287 9.65171 10.2426 9.43863 10.757C9.22555 11.2714 9.1698 11.8374 9.27843 12.3835C9.38705 12.9296 9.65518 13.4313 10.0489 13.825C10.4426 14.2187 10.9442 14.4868 11.4904 14.5955C12.0365 14.7041 12.6025 14.6483 13.1169 14.4353C13.6313 14.2222 14.071 13.8613 14.3804 13.3984C14.6897 12.9354 14.8548 12.3911 14.8548 11.8343C14.8548 11.0877 14.5582 10.3716 14.0303 9.84364C13.5023 9.31568 12.7862 9.01907 12.0396 9.01907ZM12.0396 13.2419C11.7612 13.2419 11.489 13.1594 11.2575 13.0047C11.0261 12.85 10.8456 12.6302 10.7391 12.373C10.6326 12.1158 10.6047 11.8328 10.659 11.5597C10.7133 11.2867 10.8474 11.0358 11.0442 10.839C11.2411 10.6421 11.4919 10.5081 11.765 10.4537C12.038 10.3994 12.321 10.4273 12.5783 10.5338C12.8355 10.6404 13.0553 10.8208 13.21 11.0523C13.3646 11.2838 13.4472 11.5559 13.4472 11.8343C13.4472 12.2076 13.2989 12.5657 13.0349 12.8297C12.7709 13.0936 12.4129 13.2419 12.0396 13.2419Z" fill="#121212"/>
</svg>
