<svg width="24" height="24" viewBox="0 0 24 24" fill="none" xmlns="http://www.w3.org/2000/svg">
<g clip-path="url(#clip0_5076_736)">
<path d="M14.1106 4.71485C14.1106 6.57585 12.602 8.08449 10.741 8.08449C8.87998 8.08449 7.37134 6.57585 7.37134 4.71485C7.37134 2.85385 8.87998 1.34521 10.741 1.34521C12.602 1.34521 14.1106 2.85385 14.1106 4.71485Z" stroke="#868686" stroke-width="1.25"/>
<path fill-rule="evenodd" clip-rule="evenodd" d="M13.654 10.4759C12.7146 10.1986 11.7333 10.0592 10.7409 10.0678C8.06256 10.054 5.48746 11.0999 3.57716 12.9772C2.20533 14.337 1.25519 16.0639 0.84083 17.9505C0.768808 18.2841 0.772698 18.6296 0.852214 18.9615C0.93173 19.2934 1.08484 19.6032 1.30021 19.8679C1.52326 20.1384 1.80414 20.3553 2.12216 20.5028C2.44017 20.6503 2.78722 20.7245 3.13775 20.7201H12.2945C11.8442 20.3662 11.4448 19.9465 11.1082 19.4701H3.13775H3.12985L3.12195 19.4702C2.95839 19.4723 2.79645 19.4376 2.64806 19.3688C2.50095 19.3006 2.37087 19.2005 2.26723 19.0758C2.17148 18.9571 2.10335 18.8186 2.06781 18.6703C2.03209 18.5212 2.03021 18.366 2.06229 18.2161C2.42513 16.5664 3.25598 15.0563 4.45526 13.8668C6.13002 12.222 8.38703 11.3057 10.7345 11.3177L10.7431 11.3178L10.7516 11.3177C11.2141 11.3137 11.6738 11.3465 12.1266 11.4146C12.3878 11.1946 12.6697 10.9953 12.9704 10.8192C13.1937 10.6888 13.4221 10.5745 13.654 10.4759Z" fill="#868686"/>
<path d="M14.7419 19.8375C15.0963 19.9294 15.4545 19.975 15.8076 19.975C16.5373 19.975 17.2578 19.7816 17.9084 19.4015L14.7419 19.8375ZM14.7419 19.8375C13.6645 19.5551 12.7625 18.871 12.1987 17.9077L14.7419 19.8375ZM19.8372 16.8563C20.1195 15.7756 19.9651 14.6536 19.4014 13.6891L19.8372 16.8563ZM19.8372 16.8563C19.555 17.9347 18.8712 18.8374 17.9084 19.4015L19.8372 16.8563ZM13.6917 12.195C15.6812 11.0339 18.2395 11.7036 19.4013 13.6888L11.7629 14.7401C12.0451 13.6617 12.7289 12.759 13.6917 12.195ZM12.1986 17.9075C11.6349 16.943 11.4805 15.8209 11.7628 14.7403L12.1986 17.9075Z" stroke="#868686" stroke-width="1.25"/>
<path d="M18.8 18.7998L23 22.9998" stroke="#868686" stroke-width="1.25" stroke-linecap="round"/>
</g>
<defs>
<clipPath id="clip0_5076_736">
<rect width="24" height="24" fill="white"/>
</clipPath>
</defs>
</svg>
