<svg width="24" height="24" viewBox="0 0 24 24" fill="none" xmlns="http://www.w3.org/2000/svg">
<rect y="0.000488281" width="24" height="24" rx="2" fill="white"/>
<path fill-rule="evenodd" clip-rule="evenodd" d="M20.5286 11.53L9.23445 11.53V12.4712L20.5286 12.4712V11.53Z" fill="#FF7312"/>
<path fill-rule="evenodd" clip-rule="evenodd" d="M17.5676 15.6278L20.8617 12.3337C20.9056 12.29 20.9403 12.238 20.9641 12.1808C20.9878 12.1237 21 12.0624 21 12.0005C21 11.9386 20.9878 11.8773 20.9641 11.8201C20.9403 11.763 20.9056 11.711 20.8617 11.6673L17.5676 8.37319L16.9013 9.03861L19.8632 12.0005L16.9013 14.9614L17.5676 15.6278ZM15.3521 19.5299C15.3521 19.6547 15.3025 19.7744 15.2143 19.8627C15.126 19.9509 15.0063 20.0005 14.8815 20.0005L3.5874 20.0005C3.46259 20.0005 3.34289 19.9509 3.25464 19.8627C3.16639 19.7744 3.11681 19.6547 3.11681 19.5299L3.11681 4.47108C3.11681 4.34627 3.16639 4.22657 3.25464 4.13832C3.34289 4.05007 3.46259 4.00049 3.5874 4.00049L14.8815 4.00049C15.0063 4.00049 15.126 4.05007 15.2143 4.13832C15.3025 4.22657 15.3521 4.34627 15.3521 4.47108V7.29461H14.4109V4.94167L4.05798 4.94167L4.05798 19.0593L14.4109 19.0593V16.7064H15.3521V19.5299Z" fill="#FF7312"/>
</svg>
