<svg width="19" height="16" viewBox="0 0 19 16" fill="none" xmlns="http://www.w3.org/2000/svg">
<path fill-rule="evenodd" clip-rule="evenodd" d="M1.35474 8.47047L12.6489 8.47047V7.5293L1.35474 7.5293L1.35474 8.47047Z" fill="#C11919"/>
<path fill-rule="evenodd" clip-rule="evenodd" d="M4.31567 4.37271L1.02155 7.66682C0.977729 7.71054 0.94296 7.76247 0.919236 7.81964C0.895512 7.87681 0.883301 7.9381 0.883301 8C0.883301 8.0619 0.895512 8.12319 0.919236 8.18036C0.94296 8.23753 0.977729 8.28946 1.02155 8.33318L4.31567 11.6273L4.98202 10.9619L2.02014 8L4.98202 5.03906L4.31567 4.37271ZM6.5312 0.470588C6.5312 0.34578 6.58078 0.226085 6.66903 0.137832C6.75728 0.0495798 6.87698 0 7.00179 0L18.2959 0C18.4207 0 18.5404 0.0495798 18.6287 0.137832C18.7169 0.226085 18.7665 0.34578 18.7665 0.470588L18.7665 15.5294C18.7665 15.6542 18.7169 15.7739 18.6287 15.8622C18.5404 15.9504 18.4207 16 18.2959 16L7.00179 16C6.87698 16 6.75728 15.9504 6.66903 15.8622C6.58078 15.7739 6.5312 15.6542 6.5312 15.5294V12.7059L7.47238 12.7059V15.0588H17.8253L17.8253 0.941176L7.47238 0.941176L7.47238 3.29412H6.5312L6.5312 0.470588Z" fill="#C11919"/>
</svg>
