<svg width="18" height="16" viewBox="0 0 18 16" fill="none" xmlns="http://www.w3.org/2000/svg">
<path fill-rule="evenodd" clip-rule="evenodd" d="M17.5286 7.53001L6.23445 7.53001V8.47119L17.5286 8.47119V7.53001Z" fill="url(#paint0_linear_4473_3077)"/>
<path fill-rule="evenodd" clip-rule="evenodd" d="M14.5676 11.6278L17.8617 8.33367C17.9056 8.28995 17.9403 8.23802 17.9641 8.18085C17.9878 8.12368 18 8.06239 18 8.00049C18 7.93859 17.9878 7.8773 17.9641 7.82013C17.9403 7.76296 17.9056 7.71103 17.8617 7.66731L14.5676 4.37319L13.9013 5.03861L16.8632 8.00049L13.9013 10.9614L14.5676 11.6278ZM12.3521 15.5299C12.3521 15.6547 12.3025 15.7744 12.2143 15.8627C12.126 15.9509 12.0063 16.0005 11.8815 16.0005L0.587396 16.0005C0.462588 16.0005 0.342891 15.9509 0.25464 15.8627C0.166387 15.7744 0.116807 15.6547 0.116807 15.5299L0.116807 0.471077C0.116807 0.34627 0.166387 0.226573 0.25464 0.138321C0.342891 0.0500689 0.462588 0.000489235 0.587396 0.000489235L11.8815 0.000489235C12.0063 0.000489235 12.126 0.0500689 12.2143 0.138321C12.3025 0.226573 12.3521 0.34627 12.3521 0.471077V3.29461H11.4109V0.941666L1.05798 0.941666L1.05798 15.0593L11.4109 15.0593V12.7064H12.3521V15.5299Z" fill="url(#paint1_linear_4473_3077)"/>
<defs>
<linearGradient id="paint0_linear_4473_3077" x1="11.8815" y1="8.45913" x2="11.8815" y2="7.56622" gradientUnits="userSpaceOnUse">
<stop stop-color="#FF7312"/>
<stop offset="1" stop-color="#182452"/>
</linearGradient>
<linearGradient id="paint1_linear_4473_3077" x1="9.0584" y1="15.7954" x2="9.0584" y2="0.615892" gradientUnits="userSpaceOnUse">
<stop stop-color="#FF7312"/>
<stop offset="1" stop-color="#182452"/>
</linearGradient>
</defs>
</svg>
