<svg width="18" height="16" viewBox="0 0 18 16" fill="none" xmlns="http://www.w3.org/2000/svg">
<path fill-rule="evenodd" clip-rule="evenodd" d="M17.4119 7.52953L6.11775 7.52953V8.4707L17.4119 8.4707V7.52953Z" fill="#469C73"/>
<path fill-rule="evenodd" clip-rule="evenodd" d="M14.4509 11.6273L17.745 8.33318C17.7889 8.28946 17.8236 8.23753 17.8474 8.18036C17.8711 8.12319 17.8833 8.0619 17.8833 8C17.8833 7.9381 17.8711 7.87681 17.8474 7.81964C17.8236 7.76247 17.7889 7.71054 17.745 7.66682L14.4509 4.37271L13.7846 5.03812L16.7465 8L13.7846 10.9609L14.4509 11.6273ZM12.2354 15.5294C12.2354 15.6542 12.1858 15.7739 12.0976 15.8622C12.0093 15.9504 11.8896 16 11.7648 16L0.470697 16C0.345889 16 0.226192 15.9504 0.137941 15.8622C0.0496875 15.7739 0.000107877 15.6542 0.000107877 15.5294L0.000107877 0.470589C0.000107877 0.345781 0.0496875 0.226085 0.137941 0.137833C0.226192 0.0495806 0.345889 9.53674e-07 0.470697 9.53674e-07L11.7648 9.53674e-07C11.8896 9.53674e-07 12.0093 0.0495806 12.0976 0.137833C12.1858 0.226085 12.2354 0.345781 12.2354 0.470589V3.29412H11.2942V0.941177L0.941285 0.941177L0.941285 15.0588L11.2942 15.0588V12.7059H12.2354V15.5294Z" fill="#469C73"/>
</svg>
