<svg width="16" height="16" viewBox="0 0 16 16" fill="none" xmlns="http://www.w3.org/2000/svg">
<path d="M9.99992 7.3335H8.66659V4.66683C8.66659 4.49002 8.59635 4.32045 8.47133 4.19542C8.3463 4.0704 8.17673 4.00016 7.99992 4.00016C7.82311 4.00016 7.65354 4.0704 7.52852 4.19542C7.40349 4.32045 7.33326 4.49002 7.33326 4.66683V8.00016C7.33326 8.17697 7.40349 8.34654 7.52852 8.47157C7.65354 8.59659 7.82311 8.66683 7.99992 8.66683H9.99992C10.1767 8.66683 10.3463 8.59659 10.4713 8.47157C10.5964 8.34654 10.6666 8.17697 10.6666 8.00016C10.6666 7.82335 10.5964 7.65378 10.4713 7.52876C10.3463 7.40373 10.1767 7.3335 9.99992 7.3335ZM7.99992 1.3335C6.68138 1.3335 5.39245 1.72449 4.29612 2.45703C3.19979 3.18957 2.34531 4.23077 1.84072 5.44894C1.33614 6.66711 1.20412 8.00756 1.46135 9.30076C1.71859 10.594 2.35353 11.7819 3.28588 12.7142C4.21823 13.6466 5.40611 14.2815 6.69932 14.5387C7.99253 14.796 9.33297 14.6639 10.5511 14.1594C11.7693 13.6548 12.8105 12.8003 13.5431 11.704C14.2756 10.6076 14.6666 9.3187 14.6666 8.00016C14.6646 6.23266 13.9616 4.53811 12.7118 3.28829C11.462 2.03847 9.76743 1.33546 7.99992 1.3335ZM7.99992 13.3335C6.94509 13.3335 5.91394 13.0207 5.03688 12.4347C4.15982 11.8486 3.47623 11.0157 3.07256 10.0411C2.6689 9.0666 2.56328 7.99425 2.76907 6.95968C2.97485 5.92512 3.48281 4.97481 4.22869 4.22893C4.97457 3.48305 5.92487 2.9751 6.95944 2.76931C7.99401 2.56352 9.06636 2.66914 10.0409 3.07281C11.0154 3.47647 11.8484 4.16006 12.4344 5.03712C13.0205 5.91418 13.3333 6.94533 13.3333 8.00016C13.3316 9.41415 12.7692 10.7698 11.7694 11.7696C10.7695 12.7695 9.41391 13.3319 7.99992 13.3335Z" fill="#FF7312"/>
</svg>
