<svg width="20" height="20" viewBox="0 0 20 20" fill="none" xmlns="http://www.w3.org/2000/svg">
<path d="M12.1 9.3H10.7V6.5C10.7 6.31435 10.6263 6.1363 10.495 6.00502C10.3637 5.87375 10.1857 5.8 10 5.8C9.81435 5.8 9.6363 5.87375 9.50503 6.00502C9.37375 6.1363 9.3 6.31435 9.3 6.5V10C9.3 10.1856 9.37375 10.3637 9.50503 10.495C9.6363 10.6262 9.81435 10.7 10 10.7H12.1C12.2857 10.7 12.4637 10.6262 12.595 10.495C12.7263 10.3637 12.8 10.1856 12.8 10C12.8 9.81435 12.7263 9.6363 12.595 9.50502C12.4637 9.37375 12.2857 9.3 12.1 9.3ZM10 3C8.61553 3 7.26215 3.41054 6.11101 4.17971C4.95987 4.94888 4.06266 6.04213 3.53285 7.32121C3.00303 8.6003 2.86441 10.0078 3.13451 11.3656C3.4046 12.7235 4.07129 13.9708 5.05026 14.9497C6.02922 15.9287 7.2765 16.5954 8.63437 16.8655C9.99224 17.1356 11.3997 16.997 12.6788 16.4672C13.9579 15.9373 15.0511 15.0401 15.8203 13.889C16.5895 12.7378 17 11.3845 17 10C16.9979 8.14412 16.2598 6.36484 14.9475 5.05253C13.6352 3.74022 11.8559 3.00206 10 3ZM10 15.6C8.89243 15.6 7.80972 15.2716 6.88881 14.6562C5.96789 14.0409 5.25013 13.1663 4.82628 12.143C4.40243 11.1198 4.29153 9.99379 4.50761 8.90749C4.72368 7.8212 5.25703 6.82337 6.0402 6.0402C6.82338 5.25703 7.8212 4.72368 8.9075 4.5076C9.99379 4.29153 11.1198 4.40242 12.143 4.82627C13.1663 5.25012 14.0409 5.96789 14.6562 6.88881C15.2716 7.80972 15.6 8.89242 15.6 10C15.5983 11.4847 15.0078 12.9081 13.9579 13.9579C12.9081 15.0078 11.4847 15.5983 10 15.6Z" fill="url(#paint0_linear_3126_839)"/>
<defs>
<linearGradient id="paint0_linear_3126_839" x1="10" y1="3.17949" x2="10" y2="16.4615" gradientUnits="userSpaceOnUse">
<stop stop-color="#FF7312"/>
<stop offset="1" stop-color="#182452"/>
</linearGradient>
</defs>
</svg>
