<svg width="25" height="24" viewBox="0 0 25 24" fill="none" xmlns="http://www.w3.org/2000/svg">
<path d="M23.0986 13.7962C23.0986 16.4872 20.9106 18.6762 18.2186 18.6762C18.2176 18.6762 18.2166 18.6762 18.2166 18.6762H15.7786C15.4476 18.6762 15.1786 18.4072 15.1786 18.0762C15.1786 17.7452 15.4476 17.4762 15.7786 17.4762H18.2176H18.2196C20.2486 17.4752 21.8986 15.8252 21.8986 13.7962C21.8986 11.9512 20.5226 10.3852 18.6996 10.1542C18.5336 10.1332 18.3846 10.0442 18.2876 9.90824C18.1896 9.77224 18.1536 9.60224 18.1866 9.43824C18.2566 9.09224 18.2916 8.76724 18.2916 8.44524C18.2916 5.82624 16.1596 3.69524 13.5406 3.69524C11.2776 3.69524 9.32056 5.30024 8.88656 7.51224C8.82856 7.81024 8.57156 8.01324 8.25556 7.99624C8.12056 7.98624 7.98456 7.97624 7.84956 7.97624C5.23056 7.97624 3.09856 10.1072 3.09856 12.7262C3.09856 15.3442 5.22956 17.4752 7.84756 17.4762H9.21856C9.54956 17.4762 9.81856 17.7452 9.81856 18.0762C9.81856 18.4072 9.54956 18.6762 9.21856 18.6762H7.85156C7.85056 18.6762 7.84956 18.6762 7.84956 18.6762C4.56756 18.6762 1.89856 16.0072 1.89856 12.7262C1.89856 9.45124 4.55856 6.78524 7.83256 6.77524C8.55956 4.26624 10.8826 2.49524 13.5416 2.49524C16.8226 2.49524 19.4916 5.16424 19.4916 8.44524C19.4916 8.65524 19.4806 8.86624 19.4576 9.08024C21.5706 9.62924 23.0986 11.5582 23.0986 13.7962ZM15.4226 15.1742L12.9226 12.6742C12.8676 12.6182 12.8006 12.5742 12.7276 12.5442C12.5816 12.4832 12.4166 12.4832 12.2696 12.5442C12.1956 12.5752 12.1296 12.6192 12.0746 12.6742L9.57456 15.1742C9.34056 15.4082 9.34056 15.7882 9.57456 16.0232C9.80856 16.2582 10.1876 16.2572 10.4226 16.0232L11.8996 14.5472V20.9052C11.8996 21.2372 12.1686 21.5052 12.4996 21.5052C12.8306 21.5052 13.0996 21.2362 13.0996 20.9052V14.5472L14.5766 16.0232C14.6936 16.1402 14.8476 16.1992 15.0006 16.1992C15.1536 16.1992 15.3076 16.1402 15.4246 16.0232C15.6566 15.7892 15.6566 15.4092 15.4226 15.1742Z" fill="#182452"/>
</svg>
