<svg width="15" height="16" viewBox="0 0 15 16" fill="none" xmlns="http://www.w3.org/2000/svg">
<path d="M10.3247 0H4.32941C3.18156 0.00124563 2.08108 0.457778 1.26943 1.26943C0.457778 2.08108 0.00124563 3.18156 0 4.32941V14.5882C0 14.9627 0.148739 15.3217 0.413496 15.5865C0.678253 15.8513 1.03734 16 1.41176 16H13.2424C13.6168 16 13.9759 15.8513 14.2406 15.5865C14.5054 15.3217 14.6541 14.9627 14.6541 14.5882V4.32941C14.6529 3.18156 14.1963 2.08108 13.3847 1.26943C12.573 0.457778 11.4726 0.00124563 10.3247 0ZM9.01177 15.0588H5.14353V12.8282C5.14353 12.6128 5.18604 12.3994 5.26864 12.2004C5.35123 12.0015 5.47228 11.8207 5.62485 11.6686C5.77742 11.5164 5.9585 11.3959 6.15774 11.3139C6.35697 11.2319 6.57043 11.19 6.78588 11.1906H7.37412C7.80845 11.1906 8.22499 11.3631 8.53211 11.6702C8.83923 11.9774 9.01177 12.3939 9.01177 12.8282V15.0588ZM13.7176 14.5882C13.7176 14.713 13.6681 14.8327 13.5798 14.921C13.4916 15.0092 13.3719 15.0588 13.2471 15.0588H9.95294V12.8282C9.9517 12.1447 9.6796 11.4895 9.19625 11.0061C8.71289 10.5228 8.05768 10.2507 7.37412 10.2494H6.78588C6.1015 10.2494 5.44508 10.521 4.96071 11.0044C4.47634 11.4879 4.2036 12.1439 4.20235 12.8282V15.0588H1.41176C1.28696 15.0588 1.16726 15.0092 1.07901 14.921C0.990756 14.8327 0.941176 14.713 0.941176 14.5882V4.32941C0.942421 3.43118 1.2998 2.57009 1.93494 1.93494C2.57009 1.2998 3.43118 0.942421 4.32941 0.941176H10.3247C11.2229 0.942421 12.084 1.2998 12.7192 1.93494C13.3543 2.57009 13.7117 3.43118 13.7129 4.32941L13.7176 14.5882Z" fill="#121212"/>
<path d="M4.03297 7.83526H3.56239C3.43758 7.83526 3.31788 7.88484 3.22963 7.9731C3.14138 8.06135 3.0918 8.18105 3.0918 8.30585C3.0918 8.43066 3.14138 8.55036 3.22963 8.63861C3.31788 8.72686 3.43758 8.77644 3.56239 8.77644H4.03297C4.15778 8.77644 4.27748 8.72686 4.36573 8.63861C4.45398 8.55036 4.50356 8.43066 4.50356 8.30585C4.50356 8.18105 4.45398 8.06135 4.36573 7.9731C4.27748 7.88484 4.15778 7.83526 4.03297 7.83526ZM4.03297 5.70821H3.56239C3.43758 5.70821 3.31788 5.75779 3.22963 5.84604C3.14138 5.93429 3.0918 6.05399 3.0918 6.17879C3.0918 6.3036 3.14138 6.4233 3.22963 6.51155C3.31788 6.5998 3.43758 6.64938 3.56239 6.64938H4.03297C4.15778 6.64938 4.27748 6.5998 4.36573 6.51155C4.45398 6.4233 4.50356 6.3036 4.50356 6.17879C4.50356 6.05399 4.45398 5.93429 4.36573 5.84604C4.27748 5.75779 4.15778 5.70821 4.03297 5.70821ZM4.03297 3.55762H3.56239C3.43758 3.55762 3.31788 3.6072 3.22963 3.69545C3.14138 3.7837 3.0918 3.9034 3.0918 4.02821C3.0918 4.15301 3.14138 4.27271 3.22963 4.36096C3.31788 4.44921 3.43758 4.49879 3.56239 4.49879H4.03297C4.15778 4.49879 4.27748 4.44921 4.36573 4.36096C4.45398 4.27271 4.50356 4.15301 4.50356 4.02821C4.50356 3.9034 4.45398 3.7837 4.36573 3.69545C4.27748 3.6072 4.15778 3.55762 4.03297 3.55762ZM10.8047 7.83526H10.3341C10.2093 7.83526 10.0896 7.88484 10.0014 7.9731C9.91314 8.06135 9.86356 8.18105 9.86356 8.30585C9.86356 8.43066 9.91314 8.55036 10.0014 8.63861C10.0896 8.72686 10.2093 8.77644 10.3341 8.77644H10.8047C10.9295 8.77644 11.0492 8.72686 11.1375 8.63861C11.2257 8.55036 11.2753 8.43066 11.2753 8.30585C11.2753 8.18105 11.2257 8.06135 11.1375 7.9731C11.0492 7.88484 10.9295 7.83526 10.8047 7.83526ZM10.8094 5.70821H10.3389C10.214 5.70821 10.0944 5.75779 10.0061 5.84604C9.91785 5.93429 9.86827 6.05399 9.86827 6.17879C9.86827 6.3036 9.91785 6.4233 10.0061 6.51155C10.0944 6.5998 10.214 6.64938 10.3389 6.64938H10.8094C10.9343 6.64938 11.0539 6.5998 11.1422 6.51155C11.2305 6.4233 11.28 6.3036 11.28 6.17879C11.28 6.05399 11.2305 5.93429 11.1422 5.84604C11.0539 5.75779 10.9343 5.70821 10.8094 5.70821ZM10.8094 3.55762H10.3389C10.214 3.55762 10.0944 3.6072 10.0061 3.69545C9.91785 3.7837 9.86827 3.9034 9.86827 4.02821C9.86827 4.15301 9.91785 4.27271 10.0061 4.36096C10.0944 4.44921 10.214 4.49879 10.3389 4.49879H10.8094C10.9343 4.49879 11.0539 4.44921 11.1422 4.36096C11.2305 4.27271 11.28 4.15301 11.28 4.02821C11.28 3.9034 11.2305 3.7837 11.1422 3.69545C11.0539 3.6072 10.9343 3.55762 10.8094 3.55762ZM7.55768 7.84938H7.08709C6.96228 7.84938 6.84259 7.89896 6.75434 7.98721C6.66608 8.07547 6.6165 8.19516 6.6165 8.31997C6.6165 8.44478 6.66608 8.56447 6.75434 8.65273C6.84259 8.74098 6.96228 8.79056 7.08709 8.79056H7.55768C7.68249 8.79056 7.80218 8.74098 7.89043 8.65273C7.97869 8.56447 8.02827 8.44478 8.02827 8.31997C8.02827 8.19516 7.97869 8.07547 7.89043 7.98721C7.80218 7.89896 7.68249 7.84938 7.55768 7.84938ZM7.56239 5.72232H7.0918C6.96699 5.72232 6.84729 5.7719 6.75904 5.86015C6.67079 5.94841 6.62121 6.0681 6.62121 6.19291C6.62121 6.31772 6.67079 6.43742 6.75904 6.52567C6.84729 6.61392 6.96699 6.6635 7.0918 6.6635H7.56239C7.68719 6.6635 7.80689 6.61392 7.89514 6.52567C7.98339 6.43742 8.03297 6.31772 8.03297 6.19291C8.03297 6.0681 7.98339 5.94841 7.89514 5.86015C7.80689 5.7719 7.68719 5.72232 7.56239 5.72232ZM7.56239 3.57174H7.0918C6.96699 3.57174 6.84729 3.62131 6.75904 3.70957C6.67079 3.79782 6.62121 3.91752 6.62121 4.04232C6.62121 4.16713 6.67079 4.28683 6.75904 4.37508C6.84729 4.46333 6.96699 4.51291 7.0918 4.51291H7.56239C7.68719 4.51291 7.80689 4.46333 7.89514 4.37508C7.98339 4.28683 8.03297 4.16713 8.03297 4.04232C8.03297 3.91752 7.98339 3.79782 7.89514 3.70957C7.80689 3.62131 7.68719 3.57174 7.56239 3.57174Z" fill="#121212"/>
</svg>
