<svg width="24" height="24" viewBox="0 0 24 24" fill="none" xmlns="http://www.w3.org/2000/svg">
<path d="M17.5199 11.7597C16.8071 11.7597 16.1255 11.9013 15.5039 12.1605C14.7071 11.2461 13.7112 10.5117 12.5831 10.0245C13.5479 9.14609 14.16 7.88369 14.16 6.47969C14.16 3.83249 12.0072 1.67969 9.35995 1.67969C6.71275 1.67969 4.55995 3.83249 4.55995 6.47969C4.55995 7.88369 5.16955 9.14609 6.13435 10.0245C3.23515 11.2773 1.19995 14.1645 1.19995 17.5197V18.4797C1.19995 19.2741 1.84555 19.9197 2.63995 19.9197H13.0968C14.04 21.3621 15.6695 22.3197 17.5199 22.3197C20.4312 22.3197 22.7999 19.9509 22.7999 17.0397C22.7999 14.1285 20.4312 11.7597 17.5199 11.7597ZM5.51995 6.47969C5.51995 4.36289 7.24315 2.63969 9.35995 2.63969C11.4768 2.63969 13.2 4.36289 13.2 6.47969C13.2 8.59649 11.4768 10.3197 9.35995 10.3197C7.24315 10.3197 5.51995 8.59649 5.51995 6.47969ZM12.6024 18.9597H2.63995C2.37355 18.9597 2.15995 18.7437 2.15995 18.4797V17.5197C2.15995 14.3493 4.21675 11.6541 7.06795 10.6965C7.74955 11.0685 8.52955 11.2797 9.35995 11.2797C10.188 11.2797 10.9704 11.0685 11.6519 10.6965C12.8015 11.0829 13.8216 11.7525 14.6304 12.6213C13.1927 13.5669 12.24 15.1941 12.24 17.0397C12.24 17.7165 12.3695 18.3645 12.6024 18.9597ZM17.5199 21.3597C15.1368 21.3597 13.2 19.4205 13.2 17.0397C13.2 14.6565 15.1368 12.7197 17.5199 12.7197C19.9007 12.7197 21.8399 14.6565 21.8399 17.0397C21.8399 19.4205 19.9007 21.3597 17.5199 21.3597Z" fill="#FF7312"/>
<path d="M17.52 14.1602C17.2536 14.1602 17.04 14.3738 17.04 14.6402V17.5202C17.04 17.7842 17.2536 18.0002 17.52 18.0002C17.784 18.0002 18 17.7842 18 17.5202V14.6402C18 14.3738 17.784 14.1602 17.52 14.1602Z" fill="#FF7312"/>
<path d="M17.52 19.92C17.7851 19.92 18 19.7051 18 19.44C18 19.1749 17.7851 18.96 17.52 18.96C17.2549 18.96 17.04 19.1749 17.04 19.44C17.04 19.7051 17.2549 19.92 17.52 19.92Z" fill="#FF7312"/>
</svg>
