<svg width="24" height="24" viewBox="0 0 24 24" fill="none" xmlns="http://www.w3.org/2000/svg">
<path d="M10.9424 12.0016L6.22874 7.28784C6.1572 7.21874 6.10014 7.13609 6.06088 7.0447C6.02162 6.95331 6.00096 6.85502 6.00009 6.75556C5.99923 6.6561 6.01818 6.55747 6.05584 6.46541C6.09351 6.37336 6.14913 6.28972 6.21946 6.21939C6.28979 6.14906 6.37342 6.09344 6.46548 6.05578C6.55753 6.01812 6.65617 5.99916 6.75563 6.00003C6.85509 6.00089 6.95338 6.02156 7.04476 6.06081C7.13615 6.10007 7.21881 6.15714 7.2879 6.22868L12.0017 10.9423L16.7153 6.22868C16.8563 6.09079 17.046 6.01406 17.2432 6.01514C17.4404 6.01623 17.6292 6.09504 17.7687 6.23448C17.9081 6.37391 17.987 6.56272 17.9881 6.75993C17.9892 6.95714 17.9125 7.14683 17.7747 7.28784L13.0609 12.0016L17.7747 16.7154C17.8455 16.7847 17.9019 16.8673 17.9405 16.9586C17.9792 17.0498 17.9994 17.1477 18 17.2468C18.0005 17.3459 17.9814 17.4441 17.9437 17.5357C17.9061 17.6274 17.8506 17.7106 17.7805 17.7807C17.7105 17.8507 17.6272 17.9062 17.5356 17.9438C17.4439 17.9815 17.3457 18.0006 17.2467 18C17.1476 17.9994 17.0496 17.9792 16.9584 17.9405C16.8672 17.9018 16.7846 17.8454 16.7153 17.7746L12.0017 13.061L7.2879 17.7746C7.14165 17.9209 6.94989 17.9941 6.75832 17.9941C6.56675 17.9941 6.37481 17.9209 6.22874 17.7746C6.08832 17.6341 6.00943 17.4436 6.00943 17.245C6.00943 17.0464 6.08832 16.8559 6.22874 16.7154L10.9424 12.0016Z" fill="url(#paint0_linear_3072_634)"/>
<defs>
<linearGradient id="paint0_linear_3072_634" x1="12" y1="6.15385" x2="12" y2="17.5384" gradientUnits="userSpaceOnUse">
<stop stop-color="#FF7312"/>
<stop offset="1" stop-color="#182452"/>
</linearGradient>
</defs>
</svg>
