<svg width="40" height="40" viewBox="0 0 40 40" fill="none" xmlns="http://www.w3.org/2000/svg">
<circle cx="20" cy="20" r="19.5" fill="white" stroke="#C11919"/>
<path d="M27.7445 12.0617C27.5332 11.8505 27.1575 11.8505 26.9462 12.0617L19.903 19.1024L12.8597 12.0617C12.6484 11.8505 12.2727 11.8505 12.0614 12.0617C11.8501 12.273 11.8501 12.6485 12.0614 12.8597L19.1047 19.9004L12.0614 26.9411C11.8501 27.1523 11.8501 27.5278 12.0614 27.739C12.1788 27.8564 12.3197 27.9033 12.4605 27.9033C12.6014 27.9033 12.7423 27.8564 12.8597 27.739L19.903 20.6983L26.9462 27.739C27.0636 27.8564 27.2045 27.9033 27.3454 27.9033C27.4862 27.9033 27.6271 27.8564 27.7445 27.739C27.9558 27.5278 27.9558 27.1523 27.7445 26.9411L20.7012 19.9004L27.7445 12.8597C27.9558 12.6485 27.9558 12.2964 27.7445 12.0617Z" fill="#C11919"/>
</svg>
