<svg width="23" height="22" viewBox="0 0 23 22" fill="none" xmlns="http://www.w3.org/2000/svg">
  <path d="M7.99915 6.59002L1.71303 0.293911C1.52485 0.105723 1.26961 0 1.00347 0C0.737334 0 0.482097 0.105723 0.29391 0.293911C0.105723 0.482099 0 0.737334 0 1.00347C0 1.26961 0.105723 1.52484 0.29391 1.71303L6.59002 7.99915L0.29391 14.2853C0.105723 14.4734 2.36288e-07 14.7287 2.38271e-07 14.9948C2.40254e-07 15.261 0.105723 15.5162 0.29391 15.7044C0.482097 15.8926 0.737334 15.9983 1.00347 15.9983C1.26961 15.9983 1.52485 15.8926 1.71303 15.7044L7.99915 9.40828L14.2853 15.7044C14.3782 15.7981 14.4887 15.8724 14.6105 15.9231C14.7323 15.9739 14.8629 16 14.9948 16C15.1268 16 15.2574 15.9739 15.3792 15.9231C15.5009 15.8724 15.6115 15.7981 15.7044 15.7044C15.7981 15.6115 15.8724 15.5009 15.9231 15.3792C15.9739 15.2574 16 15.1268 16 14.9948C16 14.8629 15.9739 14.7323 15.9231 14.6105C15.8724 14.4887 15.7981 14.3782 15.7044 14.2853L9.40828 7.99915L15.7044 1.71303C15.7981 1.62013 15.8724 1.50959 15.9231 1.38781C15.9739 1.26603 16 1.1354 16 1.00347C16 0.871541 15.9739 0.740916 15.9231 0.619132C15.8724 0.497348 15.7981 0.386816 15.7044 0.293911C15.6115 0.20024 15.5009 0.125891 15.3792 0.0751534C15.2574 0.024416 15.1268 -0.00170517 14.9948 -0.00170517C14.8629 -0.00170517 14.7323 0.024416 14.6105 0.0751534C14.4887 0.125891 14.3782 0.20024 14.2853 0.293911L7.99915 6.59002Z" 
    fill="#FF7312"
    transform="translate(3.5, 3)"
  />
</svg>
