<svg width="24" height="24" viewBox="0 0 24 24" fill="none" xmlns="http://www.w3.org/2000/svg">
<g clip-path="url(#clip0_4897_790)">
<path d="M5.39999 21.6004C4.60434 21.6004 3.84128 21.2843 3.27867 20.7217C2.71606 20.1591 2.39999 19.396 2.39999 18.6004V5.40039C2.39999 4.60474 2.71606 3.84168 3.27867 3.27907C3.84128 2.71646 4.60434 2.40039 5.39999 2.40039H9.52699C9.79221 2.40039 10.0466 2.50575 10.2341 2.69328C10.4216 2.88082 10.527 3.13517 10.527 3.40039C10.5302 3.67853 10.4295 3.94786 10.2445 4.15559C10.0595 4.36333 9.80365 4.4945 9.52699 4.52339H5.52699C5.26178 4.52339 5.00742 4.62875 4.81989 4.81628C4.63235 5.00382 4.52699 5.25817 4.52699 5.52339V18.4774C4.52699 18.7426 4.63235 18.997 4.81989 19.1845C5.00742 19.372 5.26178 19.4774 5.52699 19.4774H18.4C18.6652 19.4774 18.9196 19.372 19.1071 19.1845C19.2946 18.997 19.4 18.7426 19.4 18.4774V14.4774C19.442 14.1949 19.5857 13.9374 19.8041 13.7533C20.0224 13.5692 20.3005 13.4711 20.586 13.4774C20.8512 13.4774 21.1056 13.5827 21.2931 13.7703C21.4806 13.9578 21.586 14.2122 21.586 14.4774V18.6044C21.586 19.4 21.2699 20.1631 20.7073 20.7257C20.1447 21.2883 19.3816 21.6044 18.586 21.6044L5.39999 21.6004ZM15.575 14.0794C15.4488 14.0236 15.3417 13.9321 15.2668 13.8163C15.1918 13.7005 15.1523 13.5653 15.153 13.4274V11.0824C14.9648 11.0726 14.7764 11.068 14.588 11.0684C12.673 11.0684 9.26999 11.4194 7.94699 13.7754C7.88816 13.8831 7.80138 13.9729 7.69578 14.0353C7.59018 14.0978 7.46969 14.1307 7.34699 14.1304C7.28651 14.1306 7.22628 14.1225 7.16799 14.1064C7.02065 14.0648 6.89099 13.9761 6.79888 13.8539C6.70677 13.7316 6.65728 13.5825 6.65799 13.4294C6.72449 11.3744 7.53508 9.41352 8.93899 7.91139C10.6096 6.31096 12.8365 5.42181 15.15 5.43139V3.11039C15.1491 2.97304 15.1886 2.83846 15.2637 2.72341C15.3387 2.60837 15.4459 2.51794 15.572 2.46339C15.6981 2.41032 15.8373 2.39624 15.9715 2.42297C16.1057 2.44971 16.2288 2.51603 16.325 2.61339L21.38 7.77339C21.5117 7.9065 21.5855 8.08617 21.5855 8.27339C21.5855 8.46061 21.5117 8.64028 21.38 8.77339L16.325 13.9324C16.2287 14.0296 16.1056 14.0958 15.9715 14.1227C15.8374 14.1496 15.6983 14.1359 15.572 14.0834L15.575 14.0794ZM15.726 9.56039C15.8779 9.5791 16.0175 9.65325 16.1181 9.76859C16.2187 9.88394 16.2731 10.0324 16.271 10.1854V11.3474L19.289 8.27039L16.276 5.19339V6.36039C16.2757 6.52477 16.2107 6.68244 16.0951 6.79923C15.9794 6.91603 15.8224 6.98255 15.658 6.98439C14.7009 6.91881 13.7405 7.04924 12.8355 7.36768C11.9306 7.68613 11.1001 8.18589 10.395 8.83639C9.83307 9.42096 9.39947 10.1165 9.12199 10.8784C10.762 9.91478 12.6431 9.43981 14.544 9.50939C15.243 9.51039 15.7 9.56239 15.724 9.56239L15.726 9.56039Z" fill="#121212"/>
</g>
<defs>
<clipPath id="clip0_4897_790">
<rect width="24" height="24" fill="white"/>
</clipPath>
</defs>
</svg>
