<svg width="24" height="24" viewBox="0 0 24 24" fill="none" xmlns="http://www.w3.org/2000/svg">
<g clip-path="url(#clip0_639_1477)">
<path d="M12.0008 14.4C13.3264 14.4 14.401 13.3255 14.401 12C14.401 10.6745 13.3264 9.60001 12.0008 9.60001C10.6752 9.60001 9.60059 10.6745 9.60059 12C9.60059 13.3255 10.6752 14.4 12.0008 14.4Z" fill="#182452"/>
<path d="M20.0013 11.2H18.346C18.1666 9.79208 17.5247 8.4836 16.521 7.48001C15.5174 6.47641 14.2088 5.83455 12.8007 5.6552V4H11.2006V5.6552C9.79262 5.83468 8.4841 6.47659 7.48045 7.48016C6.4768 8.48373 5.83484 9.79214 5.65534 11.2H4V12.8H5.65534C5.83484 14.2079 6.4768 15.5163 7.48045 16.5198C8.4841 17.5234 9.79262 18.1653 11.2006 18.3448V20H12.8007V18.3448C14.2087 18.1653 15.5172 17.5234 16.5209 16.5198C17.5245 15.5163 18.1665 14.2079 18.346 12.8H20.0013V11.2ZM12.0007 16.8C9.35325 16.8 7.20027 14.6464 7.20027 12C7.20027 9.3536 9.35325 7.2 12.0007 7.2C14.6481 7.2 16.8011 9.3536 16.8011 12C16.8011 14.6464 14.6481 16.8 12.0007 16.8Z" fill="#182452"/>
</g>
<defs>
<clipPath id="clip0_639_1477">
<rect width="24" height="24" fill="white"/>
</clipPath>
</defs>
</svg>
