<svg width="40" height="40" viewBox="0 0 40 40" fill="none" xmlns="http://www.w3.org/2000/svg">
<circle cx="20" cy="20" r="20" fill="#FBF1F1"/>
<path d="M27.7496 16.5727L27.3715 28.2727C27.3393 29.2747 26.9265 30.2244 26.2207 30.9204C25.5148 31.6163 24.5715 32.0035 23.591 32H16.408C15.4281 32.0036 14.4854 31.6168 13.7797 30.9217C13.0739 30.2267 12.6607 29.2779 12.6275 28.2765L12.2495 16.5727C12.2412 16.3164 12.3328 16.0673 12.5042 15.8801C12.6756 15.6929 12.9127 15.5829 13.1634 15.5745C13.4141 15.566 13.6577 15.6597 13.8408 15.835C14.0239 16.0102 14.1314 16.2527 14.1397 16.509L14.5178 28.2118C14.5366 28.7114 14.744 29.1841 15.0965 29.5306C15.449 29.8771 15.9191 30.0705 16.408 30.0701H23.591C24.0806 30.0705 24.5512 29.8765 24.9038 29.5292C25.2564 29.1819 25.4634 28.7082 25.4813 28.2079L25.8593 16.509C25.8676 16.2527 25.9751 16.0102 26.1582 15.835C26.3413 15.6597 26.585 15.566 26.8357 15.5745C27.0863 15.5829 27.3234 15.6929 27.4948 15.8801C27.6662 16.0673 27.7579 16.3164 27.7496 16.5727ZM29 12.6792C29 12.9355 28.9004 13.1813 28.7232 13.3625C28.5459 13.5438 28.3055 13.6456 28.0549 13.6456H11.9451C11.6945 13.6456 11.4541 13.5438 11.2768 13.3625C11.0996 13.1813 11 12.9355 11 12.6792C11 12.4229 11.0996 12.1771 11.2768 11.9959C11.4541 11.8146 11.6945 11.7128 11.9451 11.7128H14.875C15.1745 11.7137 15.4635 11.6005 15.6859 11.3955C15.9083 11.1904 16.0481 10.9081 16.0782 10.6034C16.1479 9.88878 16.4754 9.22627 16.9967 8.745C17.5181 8.26372 18.196 7.99814 18.8985 8.00001H21.1006C21.803 7.99814 22.4809 8.26372 23.0023 8.745C23.5237 9.22627 23.8511 9.88878 23.9209 10.6034C23.9509 10.9081 24.0907 11.1904 24.3131 11.3955C24.5355 11.6005 24.8246 11.7137 25.124 11.7128H28.0539C28.3046 11.7128 28.545 11.8146 28.7222 11.9959C28.8995 12.1771 28.9991 12.4229 28.9991 12.6792H29ZM17.7189 11.7128H22.282C22.1578 11.4227 22.0766 11.1152 22.041 10.8006C22.0176 10.5624 21.9085 10.3415 21.735 10.1808C21.5614 10.0202 21.3357 9.93107 21.1015 9.93083H18.8994C18.6653 9.93107 18.4395 10.0202 18.266 10.1808C18.0924 10.3415 17.9834 10.5624 17.9599 10.8006C17.9241 11.1153 17.8435 11.4227 17.7189 11.7128ZM18.6707 26.3544V18.1257C18.6707 17.8694 18.5711 17.6236 18.3939 17.4424C18.2166 17.2611 17.9762 17.1593 17.7255 17.1593C17.4749 17.1593 17.2345 17.2611 17.0572 17.4424C16.88 17.6236 16.7804 17.8694 16.7804 18.1257V26.3583C16.7804 26.6146 16.88 26.8604 17.0572 27.0416C17.2345 27.2228 17.4749 27.3246 17.7255 27.3246C17.9762 27.3246 18.2166 27.2228 18.3939 27.0416C18.5711 26.8604 18.6707 26.6146 18.6707 26.3583V26.3544ZM23.2205 26.3544V18.1257C23.2205 17.8694 23.121 17.6236 22.9437 17.4424C22.7665 17.2611 22.5261 17.1593 22.2754 17.1593C22.0247 17.1593 21.7843 17.2611 21.6071 17.4424C21.4298 17.6236 21.3303 17.8694 21.3303 18.1257V26.3583C21.3303 26.6146 21.4298 26.8604 21.6071 27.0416C21.7843 27.2228 22.0247 27.3246 22.2754 27.3246C22.5261 27.3246 22.7665 27.2228 22.9437 27.0416C23.121 26.8604 23.2205 26.6146 23.2205 26.3583V26.3544Z" fill="#C11919"/>
</svg>
