<svg width="24" height="24" viewBox="0 0 24 24" fill="none" xmlns="http://www.w3.org/2000/svg">
<path d="M7.32012 22.4004H16.7601C17.8401 22.4004 18.6801 21.5204 18.6801 20.4804V7.48039H19.5201C19.7601 7.48039 19.9201 7.32039 19.9201 7.08039V6.16039C19.9201 5.32039 19.2401 4.68039 18.4401 4.68039H15.0401V3.64039C15.0401 2.96039 14.4801 2.40039 13.8001 2.40039H10.2401C9.56012 2.40039 9.00012 2.96039 9.00012 3.64039V4.68039H5.60012C4.76012 4.68039 4.12012 5.36039 4.12012 6.16039V7.08039C4.12012 7.32039 4.28012 7.48039 4.52012 7.48039H5.36012V20.4804C5.36012 21.5204 6.24012 22.4004 7.32012 22.4004ZM17.8801 20.4804C17.8801 21.1204 17.3601 21.6004 16.7601 21.6004H7.32012C6.68012 21.6004 6.20012 21.0804 6.20012 20.4804V7.48039H17.9201V20.4804H17.8801ZM9.80012 3.64039C9.80012 3.40039 10.0001 3.20039 10.2401 3.20039H13.8001C14.0401 3.20039 14.2401 3.40039 14.2401 3.64039V4.68039H9.84012V3.64039H9.80012ZM4.92012 6.16039C4.92012 5.76039 5.24012 5.48039 5.60012 5.48039H18.4001C18.8001 5.48039 19.0801 5.80039 19.0801 6.16039V6.68039H4.92012V6.16039Z" fill="black"/>
<path d="M15.16 19.6804C15.4 19.6804 15.56 19.5204 15.56 19.2804V9.76035C15.56 9.52035 15.4 9.36035 15.16 9.36035C14.92 9.36035 14.76 9.52035 14.76 9.76035V19.2804C14.76 19.5204 14.96 19.6804 15.16 19.6804ZM12.04 19.6804C12.28 19.6804 12.44 19.5204 12.44 19.2804V9.76035C12.44 9.52035 12.28 9.36035 12.04 9.36035C11.8 9.36035 11.64 9.52035 11.64 9.76035V19.2804C11.64 19.5204 11.8 19.6804 12.04 19.6804ZM8.87998 19.6804C9.11998 19.6804 9.27998 19.5204 9.27998 19.2804V9.76035C9.27998 9.52035 9.11998 9.36035 8.87998 9.36035C8.63998 9.36035 8.47998 9.52035 8.47998 9.76035V19.2804C8.47998 19.5204 8.63998 19.6804 8.87998 19.6804Z" fill="black"/>
</svg>
