<svg width="24" height="24" viewBox="0 0 24 24" fill="none" xmlns="http://www.w3.org/2000/svg">
<path d="M17.4175 9.71516L17.1598 17.5151C17.1379 18.1831 16.8565 18.8163 16.3753 19.2802C15.8942 19.7442 15.2512 20.0024 14.5828 20H9.68653C9.01858 20.0024 8.37596 19.7446 7.89489 19.2812C7.41383 18.8178 7.13213 18.1853 7.10952 17.5177L6.85182 9.71516C6.84618 9.54429 6.90865 9.37818 7.02549 9.25338C7.14232 9.12857 7.30395 9.05529 7.47481 9.04965C7.64568 9.04401 7.81179 9.10648 7.93659 9.22331C8.0614 9.34014 8.13469 9.50177 8.14032 9.67264L8.39802 17.4745C8.41086 17.8076 8.55225 18.1227 8.79252 18.3537C9.03278 18.5847 9.35322 18.7137 9.68653 18.7134H14.5828C14.9166 18.7136 15.2374 18.5844 15.4777 18.3528C15.718 18.1212 15.8592 17.8055 15.8713 17.4719L16.129 9.67264C16.1347 9.50177 16.208 9.34014 16.3328 9.22331C16.4576 9.10648 16.6237 9.04401 16.7945 9.04965C16.9654 9.05529 17.127 9.12857 17.2439 9.25338C17.3607 9.37818 17.4232 9.54429 17.4175 9.71516ZM18.2699 7.11947C18.2699 7.29034 18.202 7.4542 18.0812 7.57503C17.9604 7.69585 17.7965 7.76372 17.6256 7.76372H6.64437C6.47351 7.76372 6.30964 7.69585 6.18882 7.57503C6.068 7.4542 6.00012 7.29034 6.00012 7.11947C6.00012 6.9486 6.068 6.78474 6.18882 6.66392C6.30964 6.5431 6.47351 6.47522 6.64437 6.47522H8.64155C8.84568 6.47577 9.04271 6.40035 9.19431 6.26364C9.3459 6.12694 9.44121 5.93872 9.46168 5.73562C9.50923 5.25919 9.73244 4.81752 10.0878 4.49666C10.4432 4.17581 10.9053 3.99876 11.3841 4.00001H12.8852C13.364 3.99876 13.8261 4.17581 14.1815 4.49666C14.5369 4.81752 14.7601 5.25919 14.8077 5.73562C14.8282 5.93872 14.9235 6.12694 15.0751 6.26364C15.2266 6.40035 15.4237 6.47577 15.6278 6.47522H17.625C17.7959 6.47522 17.9597 6.5431 18.0805 6.66392C18.2014 6.78474 18.2692 6.9486 18.2692 7.11947H18.2699ZM10.5801 6.47522H13.6905C13.6059 6.28178 13.5505 6.0768 13.5263 5.86705C13.5103 5.70824 13.436 5.56102 13.3177 5.4539C13.1993 5.34677 13.0455 5.28738 12.8859 5.28722H11.3848C11.2252 5.28738 11.0713 5.34677 10.953 5.4539C10.8347 5.56102 10.7603 5.70824 10.7444 5.86705C10.7199 6.07684 10.665 6.28181 10.5801 6.47522ZM11.2289 16.2363V10.7505C11.2289 10.5796 11.161 10.4157 11.0402 10.2949C10.9193 10.1741 10.7555 10.1062 10.5846 10.1062C10.4137 10.1062 10.2499 10.1741 10.1291 10.2949C10.0082 10.4157 9.94036 10.5796 9.94036 10.7505V16.2388C9.94036 16.4097 10.0082 16.5736 10.1291 16.6944C10.2499 16.8152 10.4137 16.8831 10.5846 16.8831C10.7555 16.8831 10.9193 16.8152 11.0402 16.6944C11.161 16.5736 11.2289 16.4097 11.2289 16.2388V16.2363ZM14.3303 16.2363V10.7505C14.3303 10.5796 14.2624 10.4157 14.1416 10.2949C14.0208 10.1741 13.8569 10.1062 13.686 10.1062C13.5152 10.1062 13.3513 10.1741 13.2305 10.2949C13.1097 10.4157 13.0418 10.5796 13.0418 10.7505V16.2388C13.0418 16.4097 13.1097 16.5736 13.2305 16.6944C13.3513 16.8152 13.5152 16.8831 13.686 16.8831C13.8569 16.8831 14.0208 16.8152 14.1416 16.6944C14.2624 16.5736 14.3303 16.4097 14.3303 16.2388V16.2363Z" fill="url(#paint0_linear_4479_550)"/>
<defs>
<linearGradient id="paint0_linear_4479_550" x1="12.135" y1="4.20513" x2="12.135" y2="19.3846" gradientUnits="userSpaceOnUse">
<stop stop-color="#FF7312"/>
<stop offset="1" stop-color="#182452"/>
</linearGradient>
</defs>
</svg>
