<svg width="24" height="24" viewBox="0 0 24 24" fill="none" xmlns="http://www.w3.org/2000/svg">
<path d="M14 1H6C5.46957 1 4.96086 1.21071 4.58579 1.58579C4.21071 1.96086 4 2.46957 4 3V21C4 21.5304 4.21071 22.0391 4.58579 22.4142C4.96086 22.7893 5.46957 23 6 23H18C18.5304 23 19.0391 22.7893 19.4142 22.4142C19.7893 22.0391 20 21.5304 20 21V7" stroke="url(#paint0_linear_9395_1458)" stroke-linecap="round" stroke-linejoin="round"/>
<path d="M14 1V5C14 5.53043 14.2107 6.03914 14.5858 6.41421C14.9609 6.78929 15.4696 7 16 7H20L14 1Z" stroke="url(#paint1_linear_9395_1458)" stroke-linecap="round" stroke-linejoin="round"/>
<path d="M10 7H8" stroke="url(#paint2_linear_9395_1458)" stroke-linecap="round" stroke-linejoin="round"/>
<path d="M16 11H8" stroke="url(#paint3_linear_9395_1458)" stroke-linecap="round" stroke-linejoin="round"/>
<path d="M16 15H8" stroke="url(#paint4_linear_9395_1458)" stroke-linecap="round" stroke-linejoin="round"/>
<path d="M16 19H14" stroke="url(#paint5_linear_9395_1458)" stroke-linecap="round" stroke-linejoin="round"/>
<defs>
<linearGradient id="paint0_linear_9395_1458" x1="12" y1="1.28205" x2="12" y2="22.1538" gradientUnits="userSpaceOnUse">
<stop stop-color="#FF7312"/>
<stop offset="1" stop-color="#182452"/>
</linearGradient>
<linearGradient id="paint1_linear_9395_1458" x1="17" y1="1.07692" x2="17.2499" y2="17.2502" gradientUnits="userSpaceOnUse">
<stop stop-color="#FF7312"/>
<stop offset="1" stop-color="#182452"/>
</linearGradient>
<linearGradient id="paint2_linear_9395_1458" x1="9" y1="7.01282" x2="9" y2="7.96154" gradientUnits="userSpaceOnUse">
<stop stop-color="#FF7312"/>
<stop offset="1" stop-color="#182452"/>
</linearGradient>
<linearGradient id="paint3_linear_9395_1458" x1="12" y1="11.0128" x2="12" y2="11.9615" gradientUnits="userSpaceOnUse">
<stop stop-color="#FF7312"/>
<stop offset="1" stop-color="#182452"/>
</linearGradient>
<linearGradient id="paint4_linear_9395_1458" x1="12" y1="15.0128" x2="12" y2="15.9615" gradientUnits="userSpaceOnUse">
<stop stop-color="#FF7312"/>
<stop offset="1" stop-color="#182452"/>
</linearGradient>
<linearGradient id="paint5_linear_9395_1458" x1="15" y1="19.0128" x2="15" y2="19.9615" gradientUnits="userSpaceOnUse">
<stop stop-color="#FF7312"/>
<stop offset="1" stop-color="#182452"/>
</linearGradient>
</defs>
</svg>
