<svg width="17" height="20" viewBox="0 0 17 20" fill="none" xmlns="http://www.w3.org/2000/svg">
<path d="M16.3291 2.25211L14.1685 0.0915234C14.1395 0.0625055 14.105 0.0394876 14.0671 0.0237839C14.0292 0.0080803 13.9885 -1.49514e-06 13.9475 2.0747e-10L2.77254 2.0747e-10C2.68966 2.0747e-10 2.61017 0.032924 2.55157 0.0915291C2.49296 0.150134 2.46004 0.22962 2.46004 0.3125V2.09086H0.681641C0.59876 2.09086 0.519275 2.12378 0.46067 2.18239C0.402065 2.24099 0.369141 2.32048 0.369141 2.40336V19.6875C0.369141 19.7704 0.402065 19.8499 0.46067 19.9085C0.519275 19.9671 0.59876 20 0.681641 20H14.0172C14.1001 20 14.1796 19.9671 14.2382 19.9085C14.2968 19.8499 14.3297 19.7704 14.3297 19.6875V17.9091H16.1081C16.191 17.9091 16.2705 17.8762 16.3291 17.8176C16.3877 17.759 16.4206 17.6795 16.4206 17.5966V2.47312C16.4206 2.39023 16.3877 2.31073 16.3291 2.25211ZM14.26 1.06691L15.3537 2.16059H14.26V1.06691ZM0.994141 19.375V2.71586H11.5441V4.56402C11.5441 4.6469 11.577 4.72639 11.6356 4.78499C11.6942 4.8436 11.7737 4.87652 11.8566 4.87652H13.7047V19.375H0.994141ZM12.1691 3.15781L13.2628 4.25152H12.1691V3.15781ZM14.3297 17.2841V4.56402C14.3297 4.48114 14.2968 4.40166 14.2382 4.34305L12.0776 2.18238C12.0486 2.15336 12.0141 2.13035 11.9762 2.11464C11.9383 2.09894 11.8976 2.09086 11.8566 2.09086H3.08504V0.625H13.635V2.47312C13.635 2.55601 13.6679 2.63549 13.7265 2.6941C13.7851 2.7527 13.8646 2.78562 13.9475 2.78562H15.7956V17.2841H14.3297ZM11.6084 7.75223C11.6084 7.83511 11.5754 7.91459 11.5168 7.9732C11.4582 8.0318 11.3787 8.06473 11.2959 8.06473H3.40301C3.32013 8.06473 3.24064 8.0318 3.18204 7.9732C3.12343 7.91459 3.09051 7.83511 3.09051 7.75223C3.09051 7.66935 3.12343 7.58986 3.18204 7.53126C3.24064 7.47265 3.32013 7.43973 3.40301 7.43973H11.2959C11.3787 7.43973 11.4582 7.47265 11.5168 7.53126C11.5754 7.58986 11.6084 7.66935 11.6084 7.75223ZM11.6084 10.0782C11.6084 10.1611 11.5754 10.2406 11.5168 10.2992C11.4582 10.3578 11.3787 10.3907 11.2959 10.3907H3.40301C3.32013 10.3907 3.24064 10.3578 3.18204 10.2992C3.12343 10.2406 3.09051 10.1611 3.09051 10.0782C3.09051 9.99536 3.12343 9.91588 3.18204 9.85727C3.24064 9.79867 3.32013 9.76574 3.40301 9.76574H11.2959C11.3787 9.76574 11.4582 9.79867 11.5168 9.85727C11.5754 9.91588 11.6084 9.99536 11.6084 10.0782ZM11.6084 12.4043C11.6084 12.4872 11.5754 12.5667 11.5168 12.6253C11.4582 12.6839 11.3787 12.7168 11.2959 12.7168H3.40301C3.32013 12.7168 3.24064 12.6839 3.18204 12.6253C3.12343 12.5667 3.09051 12.4872 3.09051 12.4043C3.09051 12.3214 3.12343 12.2419 3.18204 12.1833C3.24064 12.1247 3.32013 12.0918 3.40301 12.0918H11.2959C11.3787 12.0918 11.4582 12.1247 11.5168 12.1833C11.5754 12.2419 11.6084 12.3214 11.6084 12.4043ZM11.6084 14.7304C11.6084 14.8132 11.5754 14.8927 11.5168 14.9513C11.4582 15.0099 11.3787 15.0429 11.2959 15.0429H3.40301C3.32013 15.0429 3.24064 15.0099 3.18204 14.9513C3.12343 14.8927 3.09051 14.8132 3.09051 14.7304C3.09051 14.6475 3.12343 14.568 3.18204 14.5094C3.24064 14.4508 3.32013 14.4179 3.40301 14.4179H11.2959C11.3787 14.4179 11.4582 14.4508 11.5168 14.5094C11.5754 14.568 11.6084 14.6475 11.6084 14.7304ZM11.6084 17.0564C11.6084 17.1392 11.5754 17.2187 11.5168 17.2773C11.4582 17.3359 11.3787 17.3689 11.2959 17.3689H3.40301C3.32013 17.3689 3.24064 17.3359 3.18204 17.2773C3.12343 17.2187 3.09051 17.1392 3.09051 17.0564C3.09051 16.9735 3.12343 16.894 3.18204 16.8354C3.24064 16.7768 3.32013 16.7439 3.40301 16.7439H11.2959C11.3787 16.7439 11.4582 16.7768 11.5168 16.8354C11.5754 16.894 11.6084 16.9735 11.6084 17.0564ZM3.09051 5.42617C3.09051 5.34329 3.12343 5.26381 3.18204 5.2052C3.24064 5.1466 3.32013 5.11367 3.40301 5.11367H9.06891C9.15179 5.11367 9.23127 5.1466 9.28988 5.2052C9.34848 5.26381 9.38141 5.34329 9.38141 5.42617C9.38141 5.50905 9.34848 5.58854 9.28988 5.64714C9.23127 5.70575 9.15179 5.73867 9.06891 5.73867H3.40301C3.32013 5.73867 3.24064 5.70575 3.18204 5.64714C3.12343 5.58854 3.09051 5.50905 3.09051 5.42617Z" fill="url(#paint0_linear_2187_631)"/>
<defs>
<linearGradient id="paint0_linear_2187_631" x1="8.39489" y1="0.25641" x2="8.39488" y2="19.2307" gradientUnits="userSpaceOnUse">
<stop stop-color="#FF7312"/>
<stop offset="1" stop-color="#182452"/>
</linearGradient>
</defs>
</svg>
