<svg width="24" height="24" viewBox="0 0 24 24" fill="none" xmlns="http://www.w3.org/2000/svg">
<rect width="24" height="24" rx="2" fill="white"/>
<g clip-path="url(#clip0_1845_17053)">
<path d="M18.3473 5.80169L16.6188 4.07322C16.5956 4.05 16.568 4.03159 16.5377 4.01903C16.5074 4.00646 16.4749 4 16.442 4L7.50206 4C7.43576 4 7.37217 4.02634 7.32529 4.07322C7.2784 4.12011 7.25206 4.1837 7.25206 4.25V5.67269H5.82935C5.76304 5.67269 5.69945 5.69903 5.65257 5.74591C5.60568 5.79279 5.57935 5.85638 5.57935 5.92269V19.75C5.57935 19.8163 5.60568 19.8799 5.65257 19.9268C5.69945 19.9737 5.76304 20 5.82935 20H16.4978C16.5641 20 16.6277 19.9737 16.6746 19.9268C16.7215 19.8799 16.7478 19.8163 16.7478 19.75V18.3273H18.1705C18.2368 18.3273 18.3004 18.3009 18.3473 18.2541C18.3942 18.2072 18.4205 18.1436 18.4205 18.0773V5.9785C18.4205 5.91219 18.3942 5.84859 18.3473 5.80169ZM16.692 4.85353L17.567 5.72847H16.692V4.85353ZM6.07935 19.5V6.17269H14.5193V7.65122C14.5193 7.71752 14.5457 7.78111 14.5925 7.828C14.6394 7.87488 14.703 7.90122 14.7693 7.90122H16.2478V19.5H6.07935ZM15.0193 6.52625L15.8943 7.40122H15.0193V6.52625ZM16.7478 17.8273V7.65122C16.7478 7.58491 16.7215 7.52133 16.6746 7.47444L14.9461 5.74591C14.9229 5.72269 14.8953 5.70428 14.865 5.69171C14.8347 5.67915 14.8021 5.67269 14.7693 5.67269H7.75206V4.5H16.192V5.9785C16.192 6.0448 16.2184 6.10839 16.2653 6.15528C16.3121 6.20216 16.3757 6.2285 16.442 6.2285H17.9205V17.8273H16.7478ZM14.5707 10.2018C14.5707 10.2681 14.5444 10.3317 14.4975 10.3786C14.4506 10.4254 14.387 10.4518 14.3207 10.4518H8.00644C7.94014 10.4518 7.87655 10.4254 7.82966 10.3786C7.78278 10.3317 7.75644 10.2681 7.75644 10.2018C7.75644 10.1355 7.78278 10.0719 7.82966 10.025C7.87655 9.97812 7.94014 9.95178 8.00644 9.95178H14.3207C14.387 9.95178 14.4506 9.97812 14.4975 10.025C14.5444 10.0719 14.5707 10.1355 14.5707 10.2018ZM14.5707 12.0626C14.5707 12.1289 14.5444 12.1925 14.4975 12.2394C14.4506 12.2863 14.387 12.3126 14.3207 12.3126H8.00644C7.94014 12.3126 7.87655 12.2863 7.82966 12.2394C7.78278 12.1925 7.75644 12.1289 7.75644 12.0626C7.75644 11.9963 7.78278 11.9327 7.82966 11.8858C7.87655 11.8389 7.94014 11.8126 8.00644 11.8126H14.3207C14.387 11.8126 14.4506 11.8389 14.4975 11.8858C14.5444 11.9327 14.5707 11.9963 14.5707 12.0626ZM14.5707 13.9234C14.5707 13.9897 14.5444 14.0533 14.4975 14.1002C14.4506 14.1471 14.387 14.1734 14.3207 14.1734H8.00644C7.94014 14.1734 7.87655 14.1471 7.82966 14.1002C7.78278 14.0533 7.75644 13.9897 7.75644 13.9234C7.75644 13.8571 7.78278 13.7935 7.82966 13.7467C7.87655 13.6998 7.94014 13.6734 8.00644 13.6734H14.3207C14.387 13.6734 14.4506 13.6998 14.4975 13.7467C14.5444 13.7935 14.5707 13.8571 14.5707 13.9234ZM14.5707 15.7843C14.5707 15.8506 14.5444 15.9142 14.4975 15.9611C14.4506 16.0079 14.387 16.0343 14.3207 16.0343H8.00644C7.94014 16.0343 7.87655 16.0079 7.82966 15.9611C7.78278 15.9142 7.75644 15.8506 7.75644 15.7843C7.75644 15.718 7.78278 15.6544 7.82966 15.6075C7.87655 15.5606 7.94014 15.5343 8.00644 15.5343H14.3207C14.387 15.5343 14.4506 15.5606 14.4975 15.6075C14.5444 15.6544 14.5707 15.718 14.5707 15.7843ZM14.5707 17.6451C14.5707 17.7114 14.5444 17.775 14.4975 17.8219C14.4506 17.8688 14.387 17.8951 14.3207 17.8951H8.00644C7.94014 17.8951 7.87655 17.8688 7.82966 17.8219C7.78278 17.775 7.75644 17.7114 7.75644 17.6451C7.75644 17.5788 7.78278 17.5152 7.82966 17.4683C7.87655 17.4214 7.94014 17.3951 8.00644 17.3951H14.3207C14.387 17.3951 14.4506 17.4214 14.4975 17.4683C14.5444 17.5152 14.5707 17.5788 14.5707 17.6451ZM7.75644 8.34094C7.75644 8.27463 7.78278 8.21104 7.82966 8.16416C7.87655 8.11728 7.94014 8.09094 8.00644 8.09094H12.5392C12.6055 8.09094 12.6691 8.11728 12.7159 8.16416C12.7628 8.21104 12.7892 8.27463 12.7892 8.34094C12.7892 8.40724 12.7628 8.47083 12.7159 8.51771C12.6691 8.5646 12.6055 8.59094 12.5392 8.59094H8.00644C7.94014 8.59094 7.87655 8.5646 7.82966 8.51771C7.78278 8.47083 7.75644 8.40724 7.75644 8.34094Z" fill="#121212"/>
</g>
<defs>
<clipPath id="clip0_1845_17053">
<rect width="16" height="16" fill="white" transform="translate(4 4)"/>
</clipPath>
</defs>
</svg>
