<svg width="20" height="20" viewBox="0 0 20 20" fill="none" xmlns="http://www.w3.org/2000/svg">
<g clip-path="url(#clip0_7103_3180)">
<path d="M10 17C6.15 17 3 13.85 3 10C3 6.15 6.15 3 10 3C13.85 3 17 6.15 17 10C17 13.85 13.85 17 10 17ZM10 4.16667C6.79167 4.16667 4.16667 6.79167 4.16667 10C4.16667 13.2083 6.79167 15.8333 10 15.8333C13.2083 15.8333 15.8333 13.2083 15.8333 10C15.8333 6.79167 13.2083 4.16667 10 4.16667Z" fill="url(#paint0_linear_7103_3180)"/>
<path d="M9.99984 10.5833C8.8915 10.5833 7.95817 9.88333 7.72484 8.95C7.6665 8.83333 7.6665 8.71667 7.6665 8.54167C7.6665 7.43333 8.7165 6.5 9.99984 6.5C11.2832 6.5 12.3332 7.43333 12.3332 8.54167C12.3332 8.71667 12.3332 8.83333 12.2748 8.95C12.2165 9.24167 11.8665 9.475 11.5748 9.35833C11.2832 9.3 11.0498 8.95 11.1665 8.65833V8.48333C11.1665 8.075 10.6415 7.66667 9.99984 7.66667C9.35817 7.66667 8.83317 8.075 8.83317 8.54167V8.71667C8.94984 9.125 9.4165 9.41667 9.99984 9.41667C10.3498 9.41667 10.5832 9.65 10.5832 10C10.5832 10.35 10.3498 10.5833 9.99984 10.5833Z" fill="url(#paint1_linear_7103_3180)"/>
<path d="M9.99984 13.5001C8.7165 13.5001 7.6665 12.5668 7.6665 11.4584C7.6665 11.2834 7.6665 11.1668 7.72484 11.0501C7.78317 10.7584 8.13317 10.5251 8.42484 10.6418C8.7165 10.7001 8.94984 11.0501 8.83317 11.3418V11.5168C8.83317 11.9834 9.35817 12.3918 9.99984 12.3918C10.6415 12.3918 11.1665 11.9834 11.1665 11.5168V11.3418C11.0498 10.9334 10.5832 10.6418 9.99984 10.6418C9.64984 10.6418 9.4165 10.4084 9.4165 10.0584C9.4165 9.70843 9.64984 9.4751 9.99984 9.4751C11.1082 9.4751 12.0415 10.1751 12.2748 11.1084C12.3332 11.1668 12.3332 11.2834 12.3332 11.4584C12.3332 12.5668 11.2832 13.5001 9.99984 13.5001Z" fill="url(#paint2_linear_7103_3180)"/>
<path d="M9.99984 14.6668C9.64984 14.6668 9.4165 14.4335 9.4165 14.0835V12.9168C9.4165 12.5668 9.64984 12.3335 9.99984 12.3335C10.3498 12.3335 10.5832 12.5668 10.5832 12.9168V14.0835C10.5832 14.4335 10.3498 14.6668 9.99984 14.6668ZM9.99984 7.66683C9.64984 7.66683 9.4165 7.4335 9.4165 7.0835V5.91683C9.4165 5.56683 9.64984 5.3335 9.99984 5.3335C10.3498 5.3335 10.5832 5.56683 10.5832 5.91683V7.0835C10.5832 7.4335 10.3498 7.66683 9.99984 7.66683ZM11.7498 9.41683C11.5748 9.41683 11.4582 9.3585 11.3415 9.24183C11.2248 9.12516 11.1665 9.0085 11.1665 8.8335C11.1665 8.6585 11.2248 8.54183 11.3415 8.42516C11.5748 8.19183 11.9248 8.19183 12.1582 8.42516C12.2748 8.54183 12.3332 8.6585 12.3332 8.8335C12.3332 9.0085 12.2748 9.12516 12.1582 9.24183C12.0415 9.3585 11.9248 9.41683 11.7498 9.41683Z" fill="url(#paint3_linear_7103_3180)"/>
</g>
<defs>
<linearGradient id="paint0_linear_7103_3180" x1="10" y1="3.17949" x2="10" y2="16.4615" gradientUnits="userSpaceOnUse">
<stop stop-color="#FF7312"/>
<stop offset="1" stop-color="#182452"/>
</linearGradient>
<linearGradient id="paint1_linear_7103_3180" x1="9.99984" y1="6.55235" x2="9.99984" y2="10.4263" gradientUnits="userSpaceOnUse">
<stop stop-color="#FF7312"/>
<stop offset="1" stop-color="#182452"/>
</linearGradient>
<linearGradient id="paint2_linear_7103_3180" x1="9.99984" y1="9.5267" x2="9.99984" y2="13.3453" gradientUnits="userSpaceOnUse">
<stop stop-color="#FF7312"/>
<stop offset="1" stop-color="#182452"/>
</linearGradient>
<linearGradient id="paint3_linear_7103_3180" x1="10.8748" y1="5.45315" x2="10.8748" y2="14.3078" gradientUnits="userSpaceOnUse">
<stop stop-color="#FF7312"/>
<stop offset="1" stop-color="#182452"/>
</linearGradient>
<clipPath id="clip0_7103_3180">
<rect width="14" height="14" fill="white" transform="translate(3 3)"/>
</clipPath>
</defs>
</svg>
