<svg width="14" height="14" viewBox="0 0 14 14" fill="none" xmlns="http://www.w3.org/2000/svg">
<g clip-path="url(#clip0_1940_19054)">
<path d="M7 14C3.15 14 0 10.85 0 7C0 3.15 3.15 0 7 0C10.85 0 14 3.15 14 7C14 10.85 10.85 14 7 14ZM7 1.16667C3.79167 1.16667 1.16667 3.79167 1.16667 7C1.16667 10.2083 3.79167 12.8333 7 12.8333C10.2083 12.8333 12.8333 10.2083 12.8333 7C12.8333 3.79167 10.2083 1.16667 7 1.16667Z" fill="#FF7312"/>
<path d="M6.99984 7.58333C5.8915 7.58333 4.95817 6.88333 4.72484 5.95C4.6665 5.83333 4.6665 5.71667 4.6665 5.54167C4.6665 4.43333 5.7165 3.5 6.99984 3.5C8.28317 3.5 9.33317 4.43333 9.33317 5.54167C9.33317 5.71667 9.33317 5.83333 9.27484 5.95C9.2165 6.24167 8.8665 6.475 8.57484 6.35833C8.28317 6.3 8.04984 5.95 8.1665 5.65833V5.48333C8.1665 5.075 7.6415 4.66667 6.99984 4.66667C6.35817 4.66667 5.83317 5.075 5.83317 5.54167V5.71667C5.94984 6.125 6.4165 6.41667 6.99984 6.41667C7.34984 6.41667 7.58317 6.65 7.58317 7C7.58317 7.35 7.34984 7.58333 6.99984 7.58333Z" fill="#FF7312"/>
<path d="M6.99984 10.5001C5.7165 10.5001 4.6665 9.56676 4.6665 8.45843C4.6665 8.28343 4.6665 8.16676 4.72484 8.0501C4.78317 7.75843 5.13317 7.5251 5.42484 7.64176C5.7165 7.7001 5.94984 8.0501 5.83317 8.34176V8.51676C5.83317 8.98343 6.35817 9.39176 6.99984 9.39176C7.6415 9.39176 8.1665 8.98343 8.1665 8.51676V8.34176C8.04984 7.93343 7.58317 7.64176 6.99984 7.64176C6.64984 7.64176 6.4165 7.40843 6.4165 7.05843C6.4165 6.70843 6.64984 6.4751 6.99984 6.4751C8.10817 6.4751 9.0415 7.1751 9.27484 8.10843C9.33317 8.16676 9.33317 8.28343 9.33317 8.45843C9.33317 9.56676 8.28317 10.5001 6.99984 10.5001Z" fill="#FF7312"/>
<path d="M6.99984 11.6668C6.64984 11.6668 6.4165 11.4335 6.4165 11.0835V9.91683C6.4165 9.56683 6.64984 9.3335 6.99984 9.3335C7.34984 9.3335 7.58317 9.56683 7.58317 9.91683V11.0835C7.58317 11.4335 7.34984 11.6668 6.99984 11.6668ZM6.99984 4.66683C6.64984 4.66683 6.4165 4.4335 6.4165 4.0835V2.91683C6.4165 2.56683 6.64984 2.3335 6.99984 2.3335C7.34984 2.3335 7.58317 2.56683 7.58317 2.91683V4.0835C7.58317 4.4335 7.34984 4.66683 6.99984 4.66683ZM8.74984 6.41683C8.57484 6.41683 8.45817 6.3585 8.3415 6.24183C8.22484 6.12516 8.1665 6.0085 8.1665 5.8335C8.1665 5.6585 8.22484 5.54183 8.3415 5.42516C8.57484 5.19183 8.92484 5.19183 9.15817 5.42516C9.27484 5.54183 9.33317 5.6585 9.33317 5.8335C9.33317 6.0085 9.27484 6.12516 9.15817 6.24183C9.0415 6.3585 8.92484 6.41683 8.74984 6.41683Z" fill="#FF7312"/>
</g>
<defs>
<clipPath id="clip0_1940_19054">
<rect width="14" height="14" fill="white"/>
</clipPath>
</defs>
</svg>
