<svg width="15" height="16" viewBox="0 0 15 16" fill="none" xmlns="http://www.w3.org/2000/svg">
<path d="M4.12993 9.32422C3.97217 9.47886 3.96963 9.73208 4.12422 9.88984L6.91719 12.6828C6.99209 12.758 7.0939 12.8001 7.2 12.8C7.3061 12.8001 7.40786 12.758 7.48281 12.6828L10.2758 9.88984C10.4282 9.73433 10.4282 9.4855 10.2758 9.32998C10.1211 9.17222 9.86792 9.16963 9.71016 9.32422L7.6 11.4344V0.4C7.6 0.179102 7.4209 0 7.2 0C6.9791 0 6.8 0.179102 6.8 0.4V11.4344L4.68979 9.32422C4.53433 9.17183 4.28545 9.17183 4.12993 9.32422ZM12 5.6H10.8C10.5791 5.6 10.4 5.7791 10.4 6C10.4 6.2209 10.5791 6.4 10.8 6.4H12C12.8832 6.40112 13.5989 7.1168 13.6 8V13.6C13.5989 14.4832 12.8832 15.1989 12 15.2H2.4C1.5168 15.1989 0.801123 14.4832 0.8 13.6V8C0.801123 7.1168 1.5168 6.40112 2.4 6.4H4.4C4.6209 6.4 4.8 6.2209 4.8 6C4.8 5.7791 4.6209 5.6 4.4 5.6H2.4C1.0751 5.60146 0.00146488 6.6751 0 8V13.6C0.00146488 14.9249 1.0751 15.9985 2.4 16H12C13.3249 15.9985 14.3985 14.9249 14.4 13.6V8C14.3985 6.6751 13.3249 5.60146 12 5.6Z" fill="black"/>
</svg>
