<svg width="16" height="16" viewBox="0 0 16 16" fill="none" xmlns="http://www.w3.org/2000/svg">
<path fill-rule="evenodd" clip-rule="evenodd" d="M11.6031 15.5893C11.3391 15.8631 11.0097 16 10.6149 16H1.38514C0.989712 16.0006 0.659999 15.8637 0.395999 15.5893C0.131998 15.315 -1.90735e-06 14.9733 -1.90735e-06 14.5644V4L3.85714 0H10.6149C11.0091 0.000592593 11.3386 0.137778 11.6031 0.411556C11.8677 0.685333 12 1.02667 12 1.43556V4.47885L11.1429 5.33598V1.43556C11.1434 1.29867 11.0886 1.17333 10.9783 1.05956C10.868 0.945778 10.7469 0.888889 10.6149 0.888889H4.28571V4.44444H0.857141V14.5636C0.856569 14.701 0.911427 14.8267 1.02171 14.9404C1.132 15.0542 1.25286 15.1111 1.38428 15.1111H10.6157C10.7477 15.1117 10.8686 15.0548 10.9783 14.9404C11.088 14.8261 11.1429 14.7007 11.1429 14.5644V10.3774L12 9.52026V14.5644C11.9994 14.9739 11.8671 15.3156 11.6031 15.5893Z" fill="white"/>
<path d="M15.4019 3.45002L15.4781 3.52174L15.5503 3.59794C15.8522 3.93784 16.0128 4.38017 15.9993 4.83453C15.9859 5.28889 15.7995 5.72096 15.4781 6.04245L9.51719 12.0033C9.37916 12.1413 9.20747 12.2409 9.01912 12.2922L6.47149 12.987C6.40798 13.0042 6.34104 13.0043 6.27746 12.9874C6.21387 12.9704 6.1559 12.937 6.10939 12.8904C6.06288 12.8439 6.0295 12.7859 6.01262 12.7223C5.99574 12.6587 5.99596 12.5917 6.01326 12.5282L6.70757 9.98015C6.75892 9.79198 6.8585 9.62047 6.99645 9.48258L12.9574 3.52174C13.2789 3.20045 13.711 3.0141 14.1654 3.00077C14.6198 2.98744 15.0621 3.14814 15.4019 3.45002ZM12.4747 5.06076L7.52491 10.0105C7.47898 10.0565 7.44585 10.1137 7.42878 10.1764L6.90581 12.0939L8.82338 11.571C8.88596 11.5537 8.94295 11.5204 8.98874 11.4743L13.9386 6.52507L12.4747 5.06076ZM13.4858 4.04969L13.0027 4.53281L14.4665 5.99712L14.9497 5.514C15.0458 5.41788 15.1221 5.30377 15.1741 5.17818C15.2262 5.05259 15.253 4.91797 15.253 4.78202C15.253 4.64607 15.2263 4.51145 15.1743 4.38583C15.1223 4.26022 15.046 4.14609 14.9499 4.04994C14.8538 3.95379 14.7397 3.87751 14.6141 3.82547C14.4885 3.77342 14.3539 3.74662 14.2179 3.7466C14.082 3.74657 13.9473 3.77333 13.8217 3.82533C13.6961 3.87734 13.582 3.95357 13.4858 4.04969Z" fill="white"/>
</svg>
