<svg width="24" height="24" viewBox="0 0 24 24" fill="none" xmlns="http://www.w3.org/2000/svg">
<path d="M6.341 20H16.3739C16.9957 19.9983 17.5914 19.7498 18.0303 19.3093C18.4692 18.8688 18.7154 18.2722 18.7149 17.6503V12.6091C18.7149 12.4318 18.6444 12.2616 18.519 12.1362C18.3935 12.0108 18.2234 11.9403 18.046 11.9403C17.8686 11.9403 17.6985 12.0108 17.5731 12.1362C17.4476 12.2616 17.3772 12.4318 17.3772 12.6091V17.6503C17.378 17.9175 17.2729 18.1741 17.0848 18.3638C16.8967 18.5535 16.641 18.6609 16.3739 18.6623H6.341C6.07384 18.6609 5.81816 18.5535 5.63006 18.3638C5.44197 18.1741 5.33683 17.9175 5.33772 17.6503V7.63485C5.33683 7.36769 5.44197 7.11109 5.63006 6.92136C5.81816 6.73164 6.07384 6.62429 6.341 6.62287H11.3574C11.5348 6.62287 11.705 6.5524 11.8304 6.42697C11.9558 6.30153 12.0263 6.13141 12.0263 5.95401C12.0263 5.77662 11.9558 5.6065 11.8304 5.48106C11.705 5.35562 11.5348 5.28516 11.3574 5.28516H6.341C5.71917 5.28693 5.12344 5.53533 4.68455 5.97585C4.24566 6.41637 3.99947 7.01302 4 7.63485V17.6503C3.99947 18.2722 4.24566 18.8688 4.68455 19.3093C5.12344 19.7498 5.71917 19.9983 6.341 20Z" fill="#868686"/>
<path d="M10.3241 10.9999L9.79634 13.4172C9.77245 13.5268 9.77653 13.6407 9.80821 13.7484C9.83988 13.856 9.89813 13.954 9.9776 14.0332C10.0582 14.1104 10.1561 14.1671 10.2633 14.1984C10.3704 14.2297 10.4835 14.2348 10.5929 14.2131L13.0048 13.684C13.1301 13.6565 13.2448 13.5936 13.3353 13.5028L19.4312 7.40681C19.6176 7.22048 19.7654 6.99926 19.8663 6.75579C19.9671 6.51232 20.0191 6.25137 20.0191 5.98783C20.0191 5.7243 19.9671 5.46334 19.8663 5.21987C19.7654 4.9764 19.6176 4.75518 19.4312 4.56885C19.0492 4.20375 18.541 4 18.0126 4C17.4841 4 16.976 4.20375 16.5939 4.56885L10.5073 10.6708C10.416 10.7607 10.3524 10.8749 10.3241 10.9999ZM17.5397 5.51528C17.6669 5.39338 17.8364 5.32533 18.0126 5.32533C18.1888 5.32533 18.3582 5.39338 18.4855 5.51528C18.6092 5.64145 18.6785 5.81112 18.6785 5.98783C18.6785 6.16455 18.6092 6.33421 18.4855 6.46038L18.0126 6.93326L17.0668 5.9875L17.5397 5.51528ZM11.5869 11.4775L16.1177 6.93527L17.0541 7.87635L12.5213 12.4199L11.3207 12.6834L11.5869 11.4775Z" fill="#868686"/>
</svg>
