<svg width="164" height="164" viewBox="0 0 164 164" fill="none" xmlns="http://www.w3.org/2000/svg">
<path d="M86.5242 7.17456H26.8843V82.6763H86.5242V7.17456Z" stroke="#FFDEC8" stroke-miterlimit="10" stroke-linecap="round" stroke-linejoin="round"/>
<path d="M83.4963 11.0083H29.9126V78.8433H83.4963V11.0083Z" stroke="#FFDEC8" stroke-miterlimit="10" stroke-linecap="round" stroke-linejoin="round"/>
<path d="M29.9106 33.1935C34.8339 32.1964 41.0528 30.002 48.4558 25.574C59.2535 19.119 65.3051 14.304 70.4613 11.0076" stroke="#FFDEC8" stroke-miterlimit="10" stroke-linecap="round" stroke-linejoin="round"/>
<path d="M29.9106 46.848C38.0418 37.1392 50.942 25.3476 66.0103 24.7277C73.0427 24.4391 78.8155 25.0164 83.496 26.0069" stroke="#FFDEC8" stroke-miterlimit="10" stroke-linecap="round" stroke-linejoin="round"/>
<path d="M29.9106 61.7755C36.0344 61.3195 43.3652 60.4011 52.0506 58.7775C67.9488 55.8026 77.6347 51.3549 83.496 47.3074" stroke="#FFDEC8" stroke-miterlimit="10" stroke-linecap="round" stroke-linejoin="round"/>
<path d="M61.0249 78.8446C69.2511 71.4778 77.5791 67.4499 83.4962 65.3015" stroke="#FFDEC8" stroke-miterlimit="10" stroke-linecap="round" stroke-linejoin="round"/>
<path d="M73.0949 41.2245C75.6062 41.2245 77.642 39.1887 77.642 36.6774C77.642 34.1662 75.6062 32.1304 73.0949 32.1304C70.5836 32.1304 68.5479 34.1662 68.5479 36.6774C68.5479 39.1887 70.5836 41.2245 73.0949 41.2245Z" stroke="#FFDEC8" stroke-miterlimit="10" stroke-linecap="round" stroke-linejoin="round"/>
<path d="M39.2563 21.9791C40.2491 21.9791 41.054 21.1742 41.054 20.1813C41.054 19.1884 40.2491 18.3835 39.2563 18.3835C38.2634 18.3835 37.4585 19.1884 37.4585 20.1813C37.4585 21.1742 38.2634 21.9791 39.2563 21.9791Z" stroke="#FFDEC8" stroke-miterlimit="10" stroke-linecap="round" stroke-linejoin="round"/>
<path d="M52.8978 37.8405C52.8978 38.775 52.1405 39.5323 51.206 39.5323C50.2715 39.5323 49.5142 38.775 49.5142 37.8405C49.5142 36.906 50.2715 36.1487 51.206 36.1487C52.1401 36.1487 52.8978 36.906 52.8978 37.8405Z" stroke="#FFDEC8" stroke-miterlimit="10" stroke-linecap="round" stroke-linejoin="round"/>
<path d="M77.3245 75.6973C78.2005 75.6973 78.9107 74.9871 78.9107 74.1111C78.9107 73.2351 78.2005 72.5249 77.3245 72.5249C76.4485 72.5249 75.7383 73.2351 75.7383 74.1111C75.7383 74.9871 76.4485 75.6973 77.3245 75.6973Z" stroke="#FFDEC8" stroke-miterlimit="10" stroke-linecap="round" stroke-linejoin="round"/>
<path d="M16.3024 107.709C16.2272 107.313 16.0734 106.894 15.8927 106.449C15.7074 106.008 15.5056 105.531 15.2606 105.097C14.7722 104.23 14.233 103.413 13.8532 102.953C13.7692 102.845 13.599 102.932 13.6331 103.064C13.7049 103.352 13.7994 103.73 13.907 104.161C14.0041 104.594 14.0975 105.086 14.195 105.574C14.4023 106.543 14.541 107.578 14.7188 108.314C14.8309 108.769 14.9369 109.198 15.0333 109.589C15.1353 109.977 15.2406 110.317 15.3479 110.599L14.4059 109.744C14.0923 109.458 13.7453 109.211 13.4166 108.943C13.5554 108.717 13.6216 108.212 13.5573 107.557C13.4816 106.917 13.3044 106.08 12.9472 105.228C12.7914 104.863 12.5763 104.456 12.3234 104.034C12.0662 103.618 11.7523 103.211 11.4368 102.805C10.7926 102.016 10.0776 101.314 9.60328 100.919C9.49635 100.827 9.34219 100.943 9.40386 101.068C9.53768 101.344 9.71447 101.699 9.89914 102.107C10.0717 102.518 10.2652 102.978 10.4636 103.449C10.8202 104.376 11.1931 105.346 11.4739 106.076C11.6549 106.518 11.8324 106.922 12.0036 107.278C12.1633 107.651 12.3168 107.976 12.4644 108.242L11.6933 107.717L10.8897 107.241C10.8667 107.115 10.787 106.964 10.6581 106.796C10.5237 106.637 10.337 106.466 10.1081 106.287C9.65609 105.919 9.00567 105.57 8.25652 105.296C7.58871 105.059 6.67359 104.91 5.80898 104.903C4.9447 104.888 4.14241 104.996 3.67468 105.111C3.56644 105.139 3.57759 105.331 3.67075 105.359C4.11387 105.486 4.83187 105.752 5.56331 106.065C6.29999 106.368 7.04751 106.741 7.65267 106.952C8.90792 107.41 10.0458 107.705 10.583 107.614L11.3801 108.086C11.6418 108.249 11.8914 108.432 12.1479 108.604C11.8524 108.57 11.5155 108.551 11.1482 108.565C10.7729 108.592 10.3718 108.644 9.9631 108.726C9.62395 108.788 9.22969 108.921 8.83215 109.084C8.43298 109.252 8.03839 109.423 7.65726 109.651C7.27907 109.871 6.92975 110.098 6.63127 110.307C6.33083 110.526 6.08023 110.737 5.89655 110.894C5.81291 110.966 5.81324 111.138 5.8959 111.115C6.26063 111.002 6.88252 110.865 7.60084 110.727C7.96886 110.662 8.34868 110.595 8.71408 110.531C9.08439 110.478 9.45208 110.416 9.785 110.341C10.5404 110.174 11.2623 110.03 11.8694 109.846C12.4687 109.675 12.92 109.512 13.1231 109.319C13.4389 109.576 13.7705 109.814 14.0739 110.086L14.9792 110.908C14.6899 110.832 14.3531 110.767 13.986 110.723C13.6213 110.675 13.2221 110.652 12.7914 110.678C12.0771 110.712 11.1718 110.883 10.3341 111.181C9.91816 111.323 9.53047 111.469 9.18902 111.622C8.84396 111.782 8.55171 111.934 8.33458 112.051C8.23585 112.105 8.20666 112.275 8.29653 112.27C8.69767 112.231 9.34875 112.239 10.1041 112.231C10.4817 112.226 10.8635 112.256 11.2531 112.256C11.6474 112.253 12.0252 112.251 12.3608 112.249C13.1267 112.235 13.9014 112.165 14.5134 112.099C15.1242 112.034 15.6063 111.927 15.833 111.768C16.4149 112.341 16.9298 112.976 17.4523 113.604C16.8928 113.38 16.1695 113.147 15.3138 113.065C14.5905 113.002 13.6708 113.022 12.7898 113.176C11.9075 113.328 11.1252 113.528 10.6483 113.687C10.5391 113.724 10.4856 113.887 10.5791 113.896C10.9947 113.963 11.6779 114.072 12.4097 114.189C13.1401 114.349 14.0018 114.47 14.6712 114.569C15.4443 114.666 16.2099 114.717 16.8442 114.719C17.4625 114.737 17.9532 114.691 18.1972 114.561L18.9267 115.548L19.605 116.57C19.0812 116.282 18.3776 115.982 17.5265 115.795C16.8183 115.64 15.8907 115.525 14.9835 115.562C14.0847 115.583 13.2664 115.669 12.7708 115.742C12.6543 115.764 12.5841 115.914 12.6727 115.945C13.0663 116.078 13.7295 116.295 14.4869 116.52C15.2219 116.789 16.0468 117.067 16.7376 117.223C17.5005 117.415 18.2546 117.555 18.884 117.624C19.5158 117.692 19.9924 117.705 20.2528 117.598L20.8737 118.656L21.4434 119.741C20.9527 119.399 20.2813 119.03 19.4574 118.757C18.7797 118.521 17.8548 118.343 16.9479 118.265C16.0491 118.179 15.2268 118.158 14.6975 118.176C14.579 118.179 14.4898 118.329 14.582 118.369C14.9923 118.543 15.6191 118.862 16.3581 119.181C17.0787 119.507 17.8472 119.872 18.5232 120.093C19.2606 120.359 19.9963 120.575 20.6152 120.71C21.2187 120.852 21.7071 120.909 21.9735 120.833C22.3277 121.57 22.6259 122.331 22.9237 123.092C22.4711 122.698 21.8354 122.259 21.0607 121.895C20.4004 121.593 19.5151 121.313 18.621 121.144C17.7377 120.968 16.9216 120.867 16.3965 120.834C16.2791 120.825 16.1741 120.964 16.261 121.013C16.6497 121.223 17.2362 121.599 17.9368 121.988C18.5918 122.392 19.3619 122.815 19.9714 123.119C21.4123 123.786 22.7633 124.326 23.3245 124.237L23.6794 125.409L23.9821 126.594C23.5853 126.146 23.0119 125.633 22.2818 125.183C21.6911 124.799 20.7923 124.436 19.9602 124.162C19.1015 123.892 18.2825 123.712 17.7908 123.617C17.6767 123.596 17.556 123.723 17.6321 123.781C17.9588 124.037 18.5629 124.45 19.1681 124.919C19.8015 125.38 20.4614 125.893 21.0567 126.258C22.3854 127.083 23.6738 127.789 24.2242 127.781C24.3718 128.579 24.4778 129.39 24.5119 130.19C24.5168 130.291 24.6234 130.366 24.7556 130.369C24.8874 130.372 24.9944 130.28 24.9891 130.174C24.9534 129.336 24.8448 128.514 24.6946 127.699C25.2115 127.553 26.1919 126.371 26.8544 124.666C27.1303 123.941 27.3569 122.94 27.4658 121.983C27.6023 121.015 27.599 120.108 27.6154 119.536C27.6177 119.406 27.4311 119.382 27.3779 119.503C27.1398 120.026 26.7495 120.883 26.3388 121.784C25.9095 122.682 25.489 123.587 25.2017 124.298C24.872 125.17 24.5955 125.951 24.4587 126.541C24.363 126.128 24.2518 125.719 24.1475 125.308L23.7791 124.091C24.0238 123.981 24.3426 123.608 24.665 123.037C24.996 122.463 25.3023 121.701 25.5293 120.826C25.7429 120.065 25.8068 119.079 25.8373 118.108C25.8285 117.162 25.7848 116.231 25.7117 115.686C25.6966 115.56 25.5083 115.559 25.4693 115.683C25.3076 116.223 24.994 117.13 24.6854 118.052C24.3905 118.97 24.0284 119.941 23.8526 120.666C23.622 121.57 23.4498 122.376 23.3891 122.978C23.0844 122.188 22.7735 121.399 22.4074 120.635C22.638 120.497 22.9168 120.086 23.1789 119.48C23.4242 118.882 23.6463 118.091 23.789 117.192C23.8864 116.437 23.8877 115.426 23.7975 114.478C23.6935 113.543 23.5577 112.627 23.4321 112.096C23.4045 111.974 23.2176 111.992 23.1913 112.119C23.0851 112.669 22.862 113.601 22.6498 114.547C22.4487 115.49 22.205 116.482 22.0968 117.228C21.9807 118.142 21.8839 118.97 21.8938 119.574L21.305 118.449L20.6625 117.354C20.8727 117.194 21.12 116.746 21.3011 116.126C21.4828 115.506 21.6225 114.696 21.6737 113.791C21.6993 113.027 21.5845 112.042 21.4192 111.097C21.2069 110.163 20.9409 109.269 20.7664 108.723C20.7284 108.597 20.5352 108.637 20.5286 108.767C20.4699 109.343 20.3738 110.286 20.2725 111.278C20.1898 112.243 20.014 113.258 19.9956 114.005C19.975 114.922 19.9615 115.757 20.035 116.357L19.3344 115.299L18.5803 114.278C18.7771 114.095 18.9647 113.635 19.0989 112.988C19.215 112.352 19.2593 111.532 19.2022 110.618C19.1674 109.825 18.8804 108.864 18.5829 107.916C18.252 106.996 17.8384 106.139 17.5806 105.611C17.5156 105.495 17.3336 105.556 17.3457 105.689C17.3939 106.276 17.4281 107.253 17.4684 108.233C17.5117 109.213 17.4815 110.259 17.5593 111.001C17.6458 111.927 17.7141 112.765 17.8587 113.347C17.3155 112.697 16.7835 112.036 16.1787 111.44C16.3516 111.234 16.4801 110.755 16.5261 110.092C16.5736 109.427 16.4893 108.618 16.3024 107.709Z" fill="#95C6AF"/>
<path d="M34.4602 87.7032C35.1651 86.8363 36.1061 85.6509 36.9409 84.5213C37.7943 83.4084 38.6051 82.3509 39.1001 81.7058C39.2169 81.5621 39.125 81.3676 38.9817 81.4558C38.3578 81.8442 37.3738 82.5244 36.3091 83.3274C35.2625 84.1336 34.2168 85.093 33.4263 85.9497C32.5109 87.0243 31.728 88.125 31.1923 89.0408L31.8401 86.7484L32.1704 85.604L32.5506 84.4751C33.0964 84.542 34.7413 83.1801 36.6398 81.3627C38.2722 79.7768 40.6958 76.9603 41.8431 75.8191C41.9688 75.685 41.8917 75.4813 41.7441 75.5574C41.1009 75.8933 40.0086 76.4555 38.9102 77.1754C38.3581 77.5329 37.7714 77.9128 37.2443 78.3152C36.7185 78.718 36.2206 79.1293 35.7965 79.5223C35.2635 80.0044 34.7941 80.5073 34.3752 80.9956C33.9534 81.4827 33.5782 81.9534 33.2666 82.3828C33.6963 81.3017 34.0768 80.2009 34.5465 79.1362C34.8472 78.9266 35.2969 78.2975 35.8079 77.3939C36.3629 76.5102 36.9409 75.3331 37.6008 74.0666C37.8832 73.4999 38.1781 72.837 38.5008 72.1498C38.655 71.8018 38.8128 71.4459 38.9709 71.0891C39.1329 70.7338 39.2956 70.3773 39.4556 70.0263C40.0906 68.6179 40.706 67.2971 41.114 66.5085C41.2065 66.3291 41.0514 66.216 40.9097 66.3685C40.2953 67.0294 39.3487 68.1623 38.4224 69.4405C38.1938 69.7623 37.9619 70.089 37.7307 70.4147C37.5142 70.7499 37.2981 71.0841 37.0871 71.4108C36.6634 72.0649 36.3049 72.7159 36.0146 73.2955C35.3888 74.4967 34.9548 75.6745 34.6196 76.6296C34.3149 77.5992 34.164 78.373 34.1673 78.8095L33.8157 79.6279L33.4955 80.4594L32.8553 82.1223C32.9071 81.6038 32.9425 81.0147 32.9599 80.3747C32.9678 79.7332 32.9763 79.047 32.9852 78.3372C32.9868 77.7425 32.9553 77.0708 32.9061 76.3682C32.8605 75.6676 32.813 74.9421 32.7674 74.2411C32.6467 72.8255 32.5735 71.5135 32.5096 70.703C32.4961 70.5187 32.2767 70.5915 32.2272 70.7971C32.1232 71.2462 31.9858 71.8392 31.8296 72.5136C31.6988 73.1942 31.5607 73.9541 31.4328 74.7292C31.2934 75.499 31.2238 76.3111 31.149 77.0619C31.0828 77.8167 31.031 78.5196 31.0565 79.1323C31.0962 81.9006 31.6355 83.9968 32.0989 84.3212L31.7243 85.4341C31.6072 85.8074 31.5069 86.1862 31.3973 86.5621L30.7538 88.8211C30.7646 87.782 30.6764 86.4631 30.5153 85.0373C30.4265 83.8607 30.1493 82.3713 29.9207 80.9766C29.6868 79.5715 29.4697 78.2673 29.3381 77.4765C29.3106 77.2958 29.0958 77.3867 29.0613 77.5943C28.9452 78.5189 28.7346 80.0139 28.6418 81.5903C28.5641 83.1745 28.5211 84.8044 28.688 86.0222C28.8471 87.4015 29.0725 88.5918 29.387 89.4869C29.6809 90.3761 29.982 90.9488 30.2303 91.0882L29.9663 92.2326L29.7645 93.3901L29.3637 95.7055C29.2643 94.6709 29.0403 93.3691 28.7228 91.9623C28.5122 90.7986 28.1134 89.3488 27.7201 87.9702C27.379 86.6107 27.03 85.3223 26.8152 84.5344C26.7663 84.3547 26.5659 84.4685 26.557 84.6814C26.4458 86.5467 26.4252 90.7543 27.0136 93.1379C27.5745 95.8553 28.5854 97.801 29.0951 98.0172C28.877 99.5706 28.8527 101.14 28.7727 102.705C28.6582 102.197 28.5057 101.626 28.3197 101.011C28.2269 100.704 28.1255 100.385 28.017 100.058C27.9018 99.7307 27.7939 99.3958 27.6985 99.0569C27.3603 97.9227 26.7814 96.5179 26.2563 95.1866C25.7728 93.8664 25.2906 92.6147 24.9948 91.8485C24.9272 91.6737 24.7399 91.8088 24.7534 92.023C24.7871 92.4891 24.8318 93.1041 24.8826 93.8034C24.9433 94.4987 24.9938 95.2676 25.1401 96.0623C25.2683 96.8538 25.4123 97.6548 25.5671 98.4013C25.6468 98.7749 25.7193 99.1334 25.8125 99.4729C25.9151 99.8133 26.0188 100.132 26.1221 100.422C26.5961 101.744 27.0894 102.864 27.5522 103.66C28.0353 104.449 28.4548 104.944 28.7277 105.027C28.7133 106.589 28.7356 108.151 28.7612 109.713C28.4611 108.712 28.0183 107.477 27.4495 106.184C27.2183 105.642 26.9264 105.046 26.6056 104.435C26.4412 104.13 26.274 103.82 26.1067 103.51C25.9453 103.19 25.7839 102.871 25.6255 102.556C24.957 101.276 24.3365 100.087 23.9603 99.3659C23.8717 99.1987 23.7024 99.3554 23.7425 99.5686C23.9183 100.5 24.2141 102.022 24.5864 103.557C25.0128 105.027 25.4937 106.546 25.9798 107.633C27.0638 110.114 28.2689 111.886 28.8173 112.033C28.8655 113.594 28.9311 115.155 29.0092 116.715C28.69 115.723 28.1819 114.505 27.5853 113.232C26.561 111.109 24.6166 108.11 23.7615 106.789C23.6634 106.639 23.5037 106.799 23.5555 106.995C23.9937 108.72 25.1279 112.595 26.1598 114.729C27.3311 117.169 28.5906 118.902 29.1423 119.031C29.2447 120.59 29.3542 122.148 29.489 123.705C29.1282 122.724 28.5923 121.523 27.95 120.27C26.8611 118.18 24.8104 115.251 23.9173 113.961C23.8156 113.815 23.6598 113.98 23.7169 114.174C24.2187 115.88 25.47 119.712 26.5754 121.813C27.8215 124.215 29.1407 125.906 29.6986 126.016C29.8505 127.567 30.0161 129.116 30.2159 130.665C30.2411 130.86 30.3687 131.005 30.4996 130.986C30.6301 130.967 30.7144 130.797 30.6892 130.602C30.4907 129.064 30.3254 127.519 30.1742 125.974C30.6977 125.815 31.6702 123.896 32.5709 121.363C33.3348 119.174 34.1765 115.393 34.557 113.747C34.6006 113.559 34.434 113.414 34.3424 113.56C33.5392 114.838 31.7722 117.86 30.9942 120.062C30.5058 121.418 30.1568 122.725 29.9738 123.767C29.8354 122.181 29.7239 120.594 29.6192 119.006C30.1499 118.865 31.1881 116.978 32.1668 114.474C33.0058 112.31 33.9623 108.563 34.4038 106.934C34.452 106.748 34.2893 106.597 34.1939 106.74C33.3539 107.987 31.4793 110.947 30.6341 113.123C30.0962 114.462 29.7176 115.757 29.4913 116.793C29.41 115.204 29.3437 113.614 29.2939 112.023C29.8272 111.9 30.9247 110.047 31.9913 107.58C32.4404 106.516 32.9488 105.053 33.387 103.66C33.8783 102.335 34.31 101.116 34.5602 100.372C34.6176 100.203 34.4628 100.05 34.3608 100.175C33.9134 100.725 33.182 101.658 32.4299 102.743C32.2423 103.015 32.052 103.294 31.8674 103.58C31.6935 103.875 31.5233 104.173 31.3599 104.47C31.0336 105.062 30.7361 105.645 30.4999 106.179C29.9341 107.499 29.4861 108.78 29.2404 109.808C29.2125 108.217 29.1905 106.625 29.2046 105.034C29.4723 104.982 29.8987 104.502 30.3953 103.733C30.9086 102.969 31.5308 101.949 32.1222 100.801C32.2505 100.554 32.381 100.284 32.5125 99.9983C32.6572 99.7133 32.8097 99.4132 32.9665 99.1045C33.2738 98.4872 33.5798 97.8365 33.8668 97.2051C34.1358 96.5724 34.4671 95.9656 34.7344 95.4247C34.9994 94.8864 35.2326 94.4131 35.4094 94.0546C35.4881 93.8919 35.3537 93.7211 35.2362 93.8349C34.721 94.3341 33.875 95.1829 32.9911 96.1768C32.1507 97.1716 31.3265 98.3216 30.7374 99.3236C30.5498 99.6323 30.3927 99.9426 30.2562 100.25C30.1145 100.557 29.9814 100.861 29.8584 101.157C29.612 101.75 29.4047 102.315 29.2447 102.821C29.3283 101.236 29.3467 99.6467 29.5687 98.0726C30.1286 98.0234 31.4072 96.3424 32.9301 94.2042C34.1565 92.3274 36.0763 89.1527 36.9435 87.8118C37.0396 87.657 36.9245 87.472 36.7949 87.5737C36.2278 88.0207 35.294 88.7827 34.3083 89.6814C33.3778 90.5887 32.4082 91.6396 31.7116 92.5714C30.9207 93.7332 30.2628 94.9104 29.8174 95.8767L30.2237 93.5302L30.4268 92.3569L30.6944 91.1964C30.9673 91.2027 31.4895 90.8261 32.1406 90.1977C32.7713 89.563 33.6094 88.6984 34.4602 87.7032Z" fill="#95C6AF"/>
<path d="M46.9279 105.849C48.4219 105.21 50.5755 103.923 51.5025 103.401C51.6094 103.342 51.5336 103.175 51.4047 103.185C50.8412 103.236 49.9179 103.351 48.93 103.534C47.9584 103.731 46.9092 103.986 46.1587 104.306C45.2187 104.69 44.4059 105.142 43.8371 105.56C44.3596 104.689 44.912 103.836 45.4653 102.985C45.9557 103.229 47.5517 102.887 49.3232 102.293C50.0855 102.035 51.0144 101.607 51.8744 101.227C52.7295 100.831 53.5161 100.497 53.9812 100.29C54.0881 100.247 54.0241 100.078 53.8985 100.072C53.3481 100.049 52.4337 100.065 51.4487 100.161C50.4676 100.261 49.42 100.447 48.6476 100.71C47.6852 101.025 46.857 101.436 46.2561 101.813C46.6845 101.206 47.1069 100.594 47.554 100C48.1057 99.9149 49.2153 98.8414 50.3791 97.4625C50.6356 97.1545 50.9177 96.796 51.1942 96.3981C51.4772 96.0085 51.7734 95.6004 52.0617 95.2032C52.6318 94.3986 53.2258 93.6882 53.6132 93.2552C53.6997 93.1555 53.5925 92.9961 53.4711 93.0529C52.9368 93.2903 52.0604 93.7423 51.2302 94.355C50.8058 94.6528 50.4014 94.9927 50.0157 95.3239C49.6476 95.6677 49.298 96.0032 49.0313 96.3256C47.9001 97.6649 47.2526 99.0159 47.2303 99.6361C46.7685 100.24 46.3414 100.869 45.9002 101.487C46.0488 100.805 46.138 99.8936 46.1997 98.8886C46.2407 98.0424 46.2013 96.9357 46.1639 95.8687C46.1318 94.8047 46.0967 93.7787 46.0961 93.146C46.0961 93.002 45.8989 92.9794 45.8415 93.1178C45.6093 93.7246 45.2423 94.7129 44.974 95.7625C44.6893 96.8101 44.4885 97.9181 44.4462 98.7755C44.3468 100.73 44.6784 102.335 45.0681 102.719C44.5233 103.558 43.9778 104.397 43.4632 105.255C43.559 104.558 43.6092 103.653 43.597 102.647C43.5747 101.8 43.4691 100.714 43.3297 99.6617C43.1965 98.6088 43.0706 97.6157 42.9942 97.0105C42.9774 96.8714 42.7826 96.8626 42.7426 96.9994C42.4028 98.2067 41.7943 100.936 41.8435 102.638C41.8809 104.585 42.2775 106.16 42.6999 106.53C42.1906 107.39 41.7022 108.263 41.2216 109.14C41.2968 108.447 41.2823 107.529 41.2256 106.533C41.1026 104.863 40.5086 102.175 40.2845 100.975C40.257 100.839 40.0641 100.841 40.0359 100.978C39.7699 102.179 39.3504 104.92 39.4757 106.609C39.6118 108.543 40.0848 110.101 40.5217 110.45C40.0477 111.33 39.6076 112.228 39.1589 113.121C39.2028 112.425 39.1575 111.514 39.047 110.518C38.8512 108.858 38.1293 106.211 37.8305 105.03C37.7963 104.897 37.6035 104.908 37.5818 105.045C37.4949 105.647 37.3699 106.636 37.2932 107.679C37.2328 108.73 37.1981 109.826 37.3063 110.672C37.5244 112.591 38.0683 114.136 38.5183 114.462C38.0807 115.361 37.6888 116.282 37.282 117.196C37.2893 116.498 37.2059 115.591 37.0459 114.597C36.9222 113.772 36.6326 112.7 36.3489 111.695C36.0675 110.694 35.7719 109.747 35.5879 109.168C35.5459 109.036 35.3557 109.056 35.3426 109.193C35.2212 110.395 35.0261 113.152 35.3134 114.839C35.6135 116.756 36.2524 118.272 36.7126 118.569C36.3413 119.499 35.9759 120.431 35.646 121.376C35.5971 120.673 35.4685 119.776 35.2543 118.791C35.069 117.963 34.7469 116.921 34.4002 115.919C34.0726 114.928 33.7367 113.988 33.5284 113.412C33.4808 113.281 33.2913 113.311 33.2837 113.451C33.2083 114.678 33.1469 117.461 33.534 119.135C33.9499 121.046 34.6741 122.514 35.1638 122.783C34.845 123.733 34.5642 124.695 34.3005 125.662C34.2005 124.966 34.0017 124.078 33.7196 123.105C33.2473 121.493 32.1295 118.947 31.6745 117.814C31.6208 117.685 31.4318 117.727 31.4312 117.868C31.4069 119.1 31.526 121.923 32.0281 123.581C32.5811 125.48 33.4264 126.885 33.9404 127.108C33.7141 128.084 33.5215 129.066 33.4015 130.072C33.387 130.2 33.4841 130.316 33.616 130.325C33.7472 130.333 33.8623 130.247 33.8758 130.124C33.9915 129.153 34.1811 128.18 34.4045 127.218C34.9375 127.268 36.3289 126.416 37.7927 125.288C39.0463 124.299 40.7746 122.52 41.5555 121.765C41.6428 121.678 41.5254 121.534 41.404 121.579C40.3308 121.968 37.9311 123.009 36.6296 124.02C35.8326 124.636 35.1753 125.289 34.7436 125.849C35.0106 124.871 35.293 123.897 35.6161 122.935C36.1429 123.035 37.6028 122.301 39.1575 121.262C40.483 120.351 42.3509 118.658 43.1631 117.933C43.2549 117.849 43.1457 117.697 43.0224 117.737C42.4815 117.913 41.592 118.217 40.6575 118.6C39.7447 118.987 38.7679 119.449 38.0935 119.907C37.2522 120.47 36.544 121.073 36.0734 121.598C36.4079 120.64 36.7766 119.694 37.1538 118.752C37.6835 118.891 39.1756 118.249 40.8011 117.295C42.1833 116.458 44.1445 114.844 44.9992 114.137C45.0957 114.057 44.9943 113.898 44.8687 113.934C44.317 114.089 43.411 114.359 42.4569 114.701C41.5077 115.041 40.5332 115.46 39.8158 115.875C38.9463 116.392 38.2067 116.955 37.6947 117.446C38.1053 116.517 38.5038 115.582 38.9479 114.668C39.4626 114.833 40.996 114.282 42.6681 113.392C43.3773 113.001 44.2576 112.424 45.0425 111.852C45.8428 111.29 46.5697 110.745 47.0086 110.413C47.1099 110.338 47.0171 110.177 46.8885 110.206C45.771 110.449 43.2126 111.138 41.7553 111.922C40.8559 112.399 40.0973 112.929 39.5567 113.391C40.0136 112.484 40.4597 111.57 40.9415 110.676C41.4444 110.864 43.0106 110.376 44.7122 109.563C46.1826 108.853 48.2595 107.408 49.177 106.82C49.2806 106.751 49.195 106.586 49.0664 106.607C47.9371 106.778 45.3561 107.34 43.8679 108.058C42.94 108.487 42.1689 108.99 41.6077 109.428C42.0964 108.537 42.5914 107.65 43.1093 106.775C43.6026 106.983 45.1941 106.571 46.9279 105.849Z" fill="#95C6AF"/>
<path d="M26.261 157.718H32.8922C38.1372 155.417 41.9892 147.795 41.9892 138.741C41.9892 134.929 41.3047 131.372 40.1226 128.357H19.0302C17.8484 131.372 17.1636 134.929 17.1636 138.741C17.1636 147.795 21.0159 155.417 26.261 157.718Z" fill="#EDEDED"/>
<path d="M133.568 154.596C133.568 153.093 134.786 151.874 136.29 151.874C137.793 151.874 139.011 153.093 139.011 154.596C139.011 156.099 137.793 157.318 136.29 157.318C134.786 157.318 133.568 156.099 133.568 154.596Z" fill="#FFDEC8" stroke="#FFDEC8" stroke-miterlimit="10" stroke-linecap="round" stroke-linejoin="round"/>
<path d="M134.929 154.596C134.929 153.845 135.538 153.235 136.29 153.235C137.041 153.235 137.65 153.844 137.65 154.596C137.65 155.348 137.041 155.957 136.29 155.957C135.538 155.957 134.929 155.347 134.929 154.596Z" fill="white" stroke="#FFDEC8" stroke-miterlimit="10" stroke-linecap="round" stroke-linejoin="round"/>
<path d="M104.416 154.596C104.416 153.093 105.634 151.874 107.137 151.874C108.64 151.874 109.859 153.093 109.859 154.596C109.859 156.099 108.64 157.318 107.137 157.318C105.634 157.318 104.416 156.099 104.416 154.596Z" fill="#FFDEC8" stroke="#FFDEC8" stroke-miterlimit="10" stroke-linecap="round" stroke-linejoin="round"/>
<path d="M105.776 154.596C105.776 153.845 106.386 153.235 107.137 153.235C107.889 153.235 108.498 153.844 108.498 154.596C108.498 155.348 107.889 155.957 107.137 155.957C106.385 155.957 105.776 155.347 105.776 154.596Z" fill="white" stroke="#FFDEC8" stroke-miterlimit="10" stroke-linecap="round" stroke-linejoin="round"/>
<path d="M91.6094 154.596C91.6094 153.093 92.8279 151.874 94.3311 151.874C95.8343 151.874 97.0529 153.093 97.0529 154.596C97.0529 156.099 95.8343 157.318 94.3311 157.318C92.8279 157.318 91.6094 156.099 91.6094 154.596Z" fill="#FFDEC8" stroke="#FFDEC8" stroke-miterlimit="10" stroke-linecap="round" stroke-linejoin="round"/>
<path d="M92.9702 154.596C92.9702 153.845 93.5793 153.235 94.3311 153.235C95.0829 153.235 95.692 153.844 95.692 154.596C95.692 155.348 95.0825 155.957 94.3311 155.957C93.5796 155.957 92.9702 155.347 92.9702 154.596Z" fill="white" stroke="#FFDEC8" stroke-miterlimit="10" stroke-linecap="round" stroke-linejoin="round"/>
<path d="M111.356 151.484H117.113V112.978C117.113 112.972 117.108 112.967 117.101 112.967H111.368C111.362 112.967 111.356 112.972 111.356 112.978V151.484H111.356Z" fill="#FFDEC8" stroke="#FFDEC8" stroke-miterlimit="10" stroke-linecap="round" stroke-linejoin="round"/>
<path d="M109.823 151.484H118.646V121.624H109.823V151.484Z" fill="#FFDEC8" stroke="#FFDEC8" stroke-miterlimit="10" stroke-linecap="round" stroke-linejoin="round"/>
<path d="M105.387 88.586C105.285 87.4609 104.058 86.7452 103.342 86.9496H85.3422C85.3422 86.9496 82.9901 86.9496 83.0921 88.6883C83.1941 90.427 88.6146 105.665 88.8193 106.177C89.024 106.688 90.66 107.404 91.0694 107.199C91.4784 106.995 102.114 107.199 102.114 107.199C102.114 107.199 103.546 107.097 103.751 105.768C103.956 104.438 105.49 89.711 105.387 88.586ZM100.575 104.513C100.4 105.65 99.1749 105.738 99.1749 105.738C99.1749 105.738 93.0239 105.563 92.674 105.738C92.324 105.913 90.9238 105.301 90.7489 104.863C90.5738 104.425 85.9359 91.3868 85.8486 89.8989C85.761 88.4115 87.7736 88.4115 87.7736 88.4115H100.225C100.838 88.2363 101.888 88.849 101.975 89.8117C102.063 90.7741 100.75 103.375 100.575 104.513Z" fill="#FFDEC8" stroke="#FFDEC8" stroke-miterlimit="10"/>
<path d="M105.387 88.586C105.285 87.4609 104.058 86.7452 103.342 86.9496H87.285C87.285 86.9496 84.933 86.9496 85.035 88.6883C85.1373 90.427 90.5575 105.665 90.7622 106.177C90.9668 106.688 92.6029 107.404 93.0123 107.199C93.4213 106.995 102.114 107.199 102.114 107.199C102.114 107.199 103.546 107.097 103.751 105.768C103.955 104.438 105.489 89.711 105.387 88.586ZM102.518 104.513C102.343 105.65 101.118 105.569 101.118 105.569C101.118 105.569 93.7211 105.569 93.3298 105.569C92.6741 105.569 91.5848 105.675 91.4044 104.863C91.3021 104.403 86.5917 91.3871 86.5041 89.8993C86.4165 88.4118 88.4291 88.4118 88.4291 88.4118H102.168C102.78 88.2366 103.83 88.8493 103.918 89.812C104.006 90.774 102.693 103.375 102.518 104.513Z" stroke="#FFDEC8" stroke-miterlimit="10"/>
<path d="M120.124 108.032H127.502C127.509 108.032 127.514 108.027 127.514 108.02V101.221H120.112V108.02C120.112 108.027 120.118 108.032 120.124 108.032Z" fill="#FFDEC8" stroke="#FFDEC8" stroke-miterlimit="10" stroke-linecap="round" stroke-linejoin="round"/>
<path d="M109.239 101.229H138.058C140.897 101.229 143.179 98.89 143.109 96.0515L142.413 55.7721C142.345 53.031 140.104 50.8442 137.362 50.8442H113.565C111.071 50.8442 108.95 52.664 108.571 55.1292L104.245 95.4086C103.774 98.4689 106.142 101.229 109.239 101.229Z" fill="#FFDEC8" stroke="#FFDEC8" stroke-miterlimit="10" stroke-linecap="round" stroke-linejoin="round"/>
<path d="M118.655 113.994L131.3 122.322" stroke="#FFDEC8" stroke-width="3" stroke-miterlimit="10" stroke-linecap="round" stroke-linejoin="round"/>
<path d="M131.779 121.061L133.932 122.513C134.673 123.012 134.769 124.066 134.131 124.691L133.981 124.837C133.466 125.342 132.653 125.376 132.097 124.918L130.118 123.285C129.492 122.769 129.439 121.829 130.004 121.247C130.472 120.763 131.22 120.685 131.779 121.061Z" fill="#FFDEC8" stroke="#FFDEC8" stroke-miterlimit="10" stroke-linecap="round" stroke-linejoin="round"/>
<path d="M90.7959 115.434H137.674C140.172 115.434 142.197 113.409 142.197 110.911C142.197 108.413 140.172 106.387 137.673 106.387H90.7956C88.2975 106.387 86.2725 108.413 86.2725 110.911C86.2725 113.409 88.2975 115.434 90.7959 115.434Z" fill="#FFDEC8" stroke="#FFDEC8" stroke-miterlimit="10" stroke-linecap="round" stroke-linejoin="round"/>
<path d="M86.3048 110.362C86.5764 108.054 88.6625 106.387 90.9854 106.387H115.279C117.602 106.387 119.688 108.054 119.959 110.362C120.282 113.105 118.147 115.434 115.468 115.434H90.7958C88.117 115.434 85.9821 113.105 86.3048 110.362Z" fill="#FFDEC8" stroke="#FFDEC8" stroke-miterlimit="10" stroke-linecap="round" stroke-linejoin="round"/>
<path d="M90.7354 153.129H139.026C139.026 151.768 137.922 150.665 136.562 150.665H93.1996C91.8387 150.665 90.7354 151.768 90.7354 153.129Z" fill="#FFDEC8" stroke="#FFDEC8" stroke-miterlimit="10" stroke-linecap="round" stroke-linejoin="round"/>
<path d="M102.03 153.129H116.678V150.665H104.494C103.133 150.665 102.03 151.768 102.03 153.129Z" fill="#FFDEC8" stroke="#FFDEC8" stroke-miterlimit="10" stroke-linecap="round" stroke-linejoin="round"/>
<path d="M142.947 88.586C142.845 87.4609 141.618 86.7452 140.902 86.9496H122.902C122.902 86.9496 120.55 86.9496 120.652 88.6883C120.754 90.427 126.175 105.665 126.379 106.177C126.584 106.688 128.22 107.404 128.629 107.199C129.038 106.995 139.675 107.199 139.675 107.199C139.675 107.199 141.106 107.097 141.311 105.768C141.516 104.438 143.05 89.711 142.947 88.586ZM138.135 104.513C137.96 105.65 136.735 105.738 136.735 105.738C136.735 105.738 130.584 105.563 130.234 105.738C129.884 105.913 128.484 105.301 128.309 104.863C128.134 104.425 123.496 91.3868 123.409 89.8989C123.321 88.4115 125.334 88.4115 125.334 88.4115H137.785C138.398 88.2363 139.448 88.849 139.535 89.8117C139.623 90.7741 138.31 103.375 138.135 104.513Z" fill="#FFDEC8" stroke="#FFDEC8" stroke-miterlimit="10"/>
<path d="M142.947 88.586C142.845 87.4609 141.618 86.7452 140.902 86.9496H124.845C124.845 86.9496 122.493 86.9496 122.595 88.6883C122.697 90.427 128.118 105.665 128.322 106.177C128.527 106.688 130.163 107.404 130.572 107.199C130.981 106.995 139.674 107.199 139.674 107.199C139.674 107.199 141.106 107.097 141.311 105.768C141.515 104.438 143.049 89.711 142.947 88.586ZM140.078 104.513C139.903 105.65 138.678 105.738 138.678 105.738C138.678 105.738 131.24 105.563 130.889 105.738C130.54 105.913 129.139 105.301 128.964 104.863C128.789 104.425 124.151 91.3868 124.064 89.8989C123.976 88.4115 125.989 88.4115 125.989 88.4115H139.727C140.34 88.2363 141.39 88.849 141.478 89.8117C141.566 90.7741 140.253 103.375 140.078 104.513Z" stroke="#FFDEC8" stroke-miterlimit="10"/>
<path d="M147.852 89.1725H146.67V72.7541L147.282 71.1614L147.852 72.7541V89.1725Z" fill="#FF7312" stroke="#BDBDBD" stroke-width="0.5" stroke-miterlimit="10" stroke-linecap="round" stroke-linejoin="round"/>
<path d="M147.843 72.7266L147.282 71.1614L146.682 72.7266H147.843Z" fill="white" stroke="#BDBDBD" stroke-width="0.5" stroke-miterlimit="10" stroke-linecap="round" stroke-linejoin="round"/>
<path d="M147.71 72.3586L147.282 71.1614L146.822 72.3586H147.71Z" fill="white" stroke="#BDBDBD" stroke-width="0.5" stroke-miterlimit="10" stroke-linecap="round" stroke-linejoin="round"/>
<path d="M152.633 70.7339L153.802 70.9087L151.375 87.1467L150.535 88.6315L150.206 86.9719L152.633 70.7339Z" fill="white" stroke="#BDBDBD" stroke-width="0.5" stroke-miterlimit="10" stroke-linecap="round" stroke-linejoin="round"/>
<path d="M153.5 73.0433L153.802 70.9087L152.633 70.7339L152.316 72.8459L153.5 73.0433Z" fill="#FF7312" stroke="#BDBDBD" stroke-width="0.5" stroke-miterlimit="10" stroke-linecap="round" stroke-linejoin="round"/>
<path d="M153.5 73.0434L153.55 72.6104L152.379 72.4067L152.316 72.8459L153.5 73.0434Z" fill="white" stroke="#BDBDBD" stroke-width="0.5" stroke-miterlimit="10" stroke-linecap="round" stroke-linejoin="round"/>
<path d="M150.211 87.0007L150.535 88.6316L151.36 87.1723L150.211 87.0007Z" fill="white" stroke="#BDBDBD" stroke-width="0.5" stroke-miterlimit="10" stroke-linecap="round" stroke-linejoin="round"/>
<path d="M150.288 87.384L150.535 88.6314L151.166 87.5152L150.288 87.384Z" fill="white" stroke="#BDBDBD" stroke-width="0.5" stroke-miterlimit="10" stroke-linecap="round" stroke-linejoin="round"/>
<path d="M147.87 87.6043L146.698 87.4471L148.88 71.1744L149.698 69.6768L150.052 71.3315L147.87 87.6043Z" fill="#C11919" stroke="#BDBDBD" stroke-width="0.5" stroke-miterlimit="10" stroke-linecap="round" stroke-linejoin="round"/>
<path d="M150.045 71.3027L149.698 69.6768L148.895 71.1485L150.045 71.3027Z" fill="white" stroke="#BDBDBD" stroke-width="0.5" stroke-miterlimit="10" stroke-linecap="round" stroke-linejoin="round"/>
<path d="M149.964 70.9205L149.698 69.6768L149.083 70.8025L149.964 70.9205Z" fill="white" stroke="#BDBDBD" stroke-width="0.5" stroke-miterlimit="10" stroke-linecap="round" stroke-linejoin="round"/>
<path d="M144.937 77.5959V89.3501H152.999V77.5959H144.937ZM152.354 79.9795L151.778 80.5548L151.294 80.0707L151.404 79.9608H152.335L152.354 79.9795ZM146.192 82.3096L146.676 81.8258L147.16 82.3096L146.676 82.7934L146.192 82.3096ZM146.444 83.0257L145.96 83.5098L145.476 83.026L145.961 82.5419L146.444 83.0257ZM147.392 82.5419L147.876 83.0257L147.392 83.5095L146.908 83.0257L147.392 82.5419ZM147.624 82.31L148.108 81.8262L148.591 82.31L148.108 82.7938L147.624 82.31ZM148.823 82.5415L149.307 83.0257L148.824 83.5095L148.34 83.0253L148.823 82.5415ZM149.055 82.3096L149.539 81.8258L150.023 82.31L149.539 82.7938L149.055 82.3096ZM150.255 82.5415L150.739 83.0253L150.255 83.5095L149.771 83.0257L150.255 82.5415ZM149.771 81.5939L150.255 81.1101L150.739 81.5939L150.255 82.0781L149.771 81.5939ZM149.539 81.362L149.056 80.8782L149.54 80.3941L150.023 80.8779L149.539 81.362ZM149.307 81.5939L148.824 82.0781L148.34 81.5943L148.824 81.1101L149.307 81.5939ZM148.108 81.362L147.624 80.8782L148.108 80.3941L148.592 80.8779L148.108 81.362ZM147.876 81.5939L147.392 82.0777L146.908 81.5939L147.392 81.1101L147.876 81.5939ZM146.676 81.362L146.192 80.8782L146.676 80.3944L147.16 80.8782L146.676 81.362ZM146.444 81.5939L145.96 82.0777L145.476 81.5936L145.96 81.1098L146.444 81.5939ZM145.728 82.3096L145.278 82.7603V81.8586L145.728 82.3096ZM145.728 83.7414L145.278 84.192V83.2907L145.728 83.7414ZM145.96 83.9733L146.444 84.457L145.96 84.9408L145.476 84.457L145.96 83.9733ZM146.192 83.7414L146.676 83.2572L147.16 83.741L146.676 84.2251L146.192 83.7414ZM147.392 83.9733L147.876 84.4574L147.392 84.9415L146.908 84.4574L147.392 83.9733ZM147.624 83.7414L148.108 83.2576L148.592 83.7417L148.108 84.2255L147.624 83.7414ZM148.823 83.9733L149.307 84.457L148.823 84.9408L148.34 84.457L148.823 83.9733ZM149.055 83.7414L149.539 83.2576L150.023 83.7414L149.539 84.2251L149.055 83.7414ZM150.255 83.9733L150.739 84.457L150.255 84.9408L149.771 84.457L150.255 83.9733ZM150.487 83.7414L150.971 83.2572L151.455 83.741L150.97 84.2248L150.487 83.7414ZM150.487 82.3096L150.971 81.8255L151.455 82.3093L150.971 82.7934L150.487 82.3096ZM150.487 80.8779L151.062 80.3026L151.546 80.7867L150.971 81.362L150.487 80.8779ZM150.83 80.0707L150.255 80.646L149.771 80.1622L149.973 79.9608H150.72L150.83 80.0707ZM149.307 80.1622L148.823 80.6463L148.339 80.1625L148.541 79.9612H149.106L149.307 80.1622ZM147.876 80.1622L147.392 80.646L146.908 80.1622L147.109 79.9608H147.674L147.876 80.1622ZM146.444 80.1622L145.96 80.646L145.476 80.1622L145.677 79.9608H146.242L146.444 80.1622ZM145.728 80.8782L145.278 81.3289V80.4276L145.728 80.8782ZM145.278 84.7224L145.728 85.1731L145.278 85.6237V84.7224ZM145.96 85.405L146.444 85.8888L145.961 86.3726L145.476 85.8884L145.96 85.405ZM146.192 85.1731L146.676 84.6893L147.16 85.1734L146.676 85.6572L146.192 85.1731ZM147.392 85.405L147.876 85.8888L147.392 86.3729L146.908 85.8888L147.392 85.405ZM147.624 85.1731L148.108 84.6889L148.592 85.1727L148.108 85.6569L147.624 85.1731ZM148.824 85.405L149.307 85.8888L148.823 86.3729L148.34 85.8891L148.824 85.405ZM149.056 85.1731L149.539 84.6893L150.023 85.1731L149.539 85.6569L149.056 85.1731ZM150.255 85.405L150.739 85.8888L150.255 86.3726L149.771 85.8888L150.255 85.405ZM150.487 85.1731L150.971 84.6893L151.455 85.1731L150.971 85.6569L150.487 85.1731ZM151.687 85.405L152.216 85.9347L151.732 86.4185L151.203 85.8888L151.687 85.405ZM151.203 84.457L151.687 83.9733L152.171 84.457L151.687 84.9408L151.203 84.457ZM151.203 83.0257L151.687 82.5415L152.171 83.0253L151.687 83.5095L151.203 83.0257ZM151.203 81.5939L151.778 81.0186L152.262 81.5024L151.687 82.0777L151.203 81.5939ZM152.657 86.9853H145.278V86.1538L145.728 86.6045L145.348 86.9853H145.811L145.96 86.8364L146.108 86.9853H146.572L146.192 86.6045L146.676 86.1207L147.159 86.6045L146.779 86.9849H147.243L147.391 86.8364L147.54 86.9849H148.004L147.623 86.6045L148.107 86.1207L148.591 86.6045L148.21 86.9853H148.674L148.822 86.8364L148.971 86.9853H149.435L149.054 86.6045L149.538 86.1203L150.022 86.6041L149.641 86.9849H150.105L150.254 86.836L150.403 86.9849H150.866L150.486 86.6041L150.969 86.1203L151.499 86.6501L151.164 86.9849H151.628L151.731 86.882L151.834 86.9849H152.298L151.963 86.6501L152.447 86.1663L152.633 86.3526V85.5162L152.447 85.7025L151.917 85.1727L152.401 84.6889L152.633 84.9208V84.457V83.9933L152.401 84.2251L151.917 83.7414L152.401 83.2572L152.633 83.4891V82.5615L152.401 82.7934L151.917 82.3096L152.493 81.7343L152.633 81.8747V81.1301L152.493 81.2705L152.009 80.7867L152.584 80.2114L152.633 80.2606V79.9608H152.656V86.9853H152.657Z" fill="white" stroke="#FF7312" stroke-width="0.5" stroke-miterlimit="10" stroke-linecap="round" stroke-linejoin="round"/>
<path d="M69.3529 44.7959H23.2964V80.2239H69.3529V44.7959Z" fill="#182452" stroke="#182452" stroke-miterlimit="10" stroke-linecap="round" stroke-linejoin="round"/>
<path d="M68.1903 44.7959H22.1338V80.2239H68.1903V44.7959Z" fill="white" stroke="#182452" stroke-miterlimit="10" stroke-linecap="round" stroke-linejoin="round"/>
<path d="M48.8073 88.2956L51.8971 57.4407H39.0343L35.8369 89.3689H48.6998H59.5687V88.2956H48.8073Z" fill="#C7C7C7" stroke="#182452" stroke-miterlimit="10" stroke-linecap="round" stroke-linejoin="round"/>
<path d="M47.9338 89.219L51.0236 57.4407H38.1607L34.9634 89.3689H47.8262H58.6952V89.219H47.9338Z" fill="#F0F0F0" stroke="#182452" stroke-miterlimit="10" stroke-linecap="round" stroke-linejoin="round"/>
<path d="M28.4443 157.981C27.8178 157.981 27.3078 157.615 27.3003 157.159L26.1841 90.9426H30.7049L29.5887 157.159C29.5808 157.615 29.0708 157.981 28.4443 157.981Z" fill="#868686" stroke="#868686" stroke-miterlimit="10" stroke-linecap="round" stroke-linejoin="round"/>
<path d="M67.4876 157.981C66.8611 157.981 66.3514 157.615 66.3436 157.159L65.2271 90.9426H69.7479L68.6314 157.159C68.6238 157.615 68.1141 157.981 67.4876 157.981Z" fill="#868686" stroke="#868686" stroke-miterlimit="10" stroke-linecap="round" stroke-linejoin="round"/>
<path d="M100.794 157.981C100.167 157.981 99.6573 157.615 99.6497 157.159L98.5332 90.9426H103.054L101.938 157.159C101.93 157.615 101.42 157.981 100.794 157.981Z" fill="#868686" stroke="#868686" stroke-miterlimit="10" stroke-linecap="round" stroke-linejoin="round"/>
<path d="M147.7 157.981C147.073 157.981 146.563 157.615 146.555 157.159L145.439 90.9426H149.96L148.844 157.159C148.836 157.615 148.326 157.981 147.7 157.981Z" fill="#868686" stroke="#868686" stroke-miterlimit="10" stroke-linecap="round" stroke-linejoin="round"/>
<path d="M154.044 89.2268H20.2427V92.6583H154.044V89.2268Z" fill="#868686"/>
<path d="M154.044 89.2268H94.7529V92.6583H154.044V89.2268Z" fill="#868686"/>
<path d="M154.044 93.8745H20.2427V97.306H154.044V93.8745Z" fill="#868686"/>
<path d="M154.044 93.8745H94.7529V97.306H154.044V93.8745Z" fill="#868686"/>
<path d="M99.9822 58.749L98.2729 72.2849L132.667 76.6273L134.376 63.0914L99.9822 58.749ZM110.263 62.2927C109.828 62.238 109.52 61.8411 109.575 61.4065C109.63 60.9719 110.027 60.6639 110.461 60.719C110.896 60.7741 111.204 61.1706 111.149 61.6052C111.094 62.0395 110.697 62.3475 110.263 62.2927ZM123.537 63.9688C123.103 63.914 122.795 63.5172 122.849 63.0826C122.904 62.648 123.301 62.34 123.736 62.3951C124.17 62.4498 124.478 62.8467 124.423 63.2813C124.369 63.7156 123.972 64.0236 123.537 63.9688Z" fill="#FF7312" stroke="#FF7312" stroke-miterlimit="10" stroke-linecap="round" stroke-linejoin="round"/>
<path d="M122.756 63.3226C122.708 63.2393 122.696 63.1357 122.734 63.0392L128.024 50.447C128.089 50.2794 128.278 50.197 128.446 50.263C128.614 50.3286 128.696 50.5185 128.631 50.6864L123.341 63.2787C123.276 63.4463 123.086 63.5286 122.919 63.4627C122.847 63.4345 122.791 63.384 122.756 63.3226Z" fill="#182452" stroke="#FF7312" stroke-miterlimit="10" stroke-linecap="round" stroke-linejoin="round"/>
<path d="M110.851 61.9278C110.755 61.9278 110.659 61.8855 110.595 61.8048L107.831 58.9762C107.719 58.8351 107.743 58.6305 107.884 58.5186C108.025 58.4064 108.23 58.43 108.342 58.5711L111.106 61.3998C111.218 61.5408 111.195 61.7455 111.054 61.8573C110.994 61.9049 110.922 61.9278 110.851 61.9278Z" fill="white" stroke="#FF7312" stroke-miterlimit="10" stroke-linecap="round" stroke-linejoin="round"/>
<path d="M105.631 68.8092C105.329 68.7701 105.056 68.6848 104.813 68.5534C104.573 68.4188 104.371 68.2487 104.206 68.0432C104.045 67.8344 103.928 67.6006 103.854 67.3418C103.78 67.0829 103.763 66.8064 103.801 66.5123C103.839 66.2181 103.927 65.9553 104.064 65.7239C104.202 65.4925 104.376 65.2985 104.588 65.142C104.801 64.9817 105.04 64.8689 105.305 64.8037C105.575 64.7352 105.861 64.7205 106.162 64.7597C106.468 64.7993 106.742 64.8886 106.985 65.0275C107.232 65.1631 107.433 65.3445 107.587 65.5716L107.173 65.8803C107.043 65.7023 106.888 65.5634 106.71 65.4634C106.531 65.3598 106.335 65.294 106.12 65.2661C105.897 65.2372 105.685 65.2479 105.483 65.2984C105.284 65.3493 105.107 65.4336 104.949 65.5513C104.792 65.6689 104.662 65.8169 104.558 65.9952C104.459 66.1702 104.395 66.367 104.366 66.5857C104.338 66.8045 104.349 67.013 104.4 67.2114C104.455 67.4065 104.544 67.5809 104.666 67.7348C104.788 67.8887 104.938 68.0156 105.117 68.1155C105.299 68.2159 105.502 68.2806 105.725 68.3094C105.939 68.3374 106.146 68.3258 106.344 68.2749C106.543 68.2202 106.729 68.1216 106.901 67.979L107.222 68.3831C107.015 68.5632 106.774 68.6892 106.5 68.761C106.23 68.8333 105.94 68.8494 105.631 68.8092Z" fill="white"/>
<path d="M107.954 69.0649L108.468 65.1051L109.034 65.1785L108.584 68.6462L110.728 68.9246L110.664 69.4167L107.954 69.0649Z" fill="white"/>
<path d="M113.023 69.7691C112.721 69.7299 112.447 69.6425 112.2 69.5069C111.956 69.3718 111.752 69.2015 111.587 68.996C111.423 68.7867 111.304 68.5526 111.23 68.2938C111.156 68.0349 111.138 67.7603 111.176 67.4699C111.213 67.1796 111.301 66.9187 111.438 66.6872C111.576 66.4558 111.751 66.2618 111.963 66.1053C112.175 65.945 112.416 65.8306 112.686 65.7621C112.956 65.6935 113.243 65.6791 113.549 65.7188C113.85 65.7579 114.121 65.8449 114.36 65.9795C114.604 66.1108 114.808 66.2812 114.973 66.4904C115.142 66.6964 115.261 66.9286 115.331 67.1869C115.405 67.4458 115.423 67.7223 115.384 68.0164C115.346 68.3106 115.258 68.5734 115.121 68.8048C114.987 69.0367 114.812 69.2326 114.596 69.3924C114.384 69.5489 114.143 69.6615 113.873 69.73C113.608 69.7952 113.324 69.8083 113.023 69.7691ZM113.088 69.2656C113.307 69.294 113.514 69.2825 113.708 69.2311C113.906 69.1801 114.082 69.0956 114.236 68.9775C114.393 68.8561 114.522 68.7078 114.621 68.5328C114.725 68.3583 114.79 68.1617 114.819 67.943C114.847 67.7243 114.834 67.5174 114.779 67.3223C114.727 67.1277 114.64 66.9535 114.519 66.7996C114.401 66.6424 114.253 66.5139 114.074 66.414C113.899 66.3145 113.702 66.2506 113.483 66.2222C113.261 66.1933 113.05 66.2044 112.852 66.2553C112.657 66.3067 112.481 66.3932 112.324 66.5146C112.166 66.6322 112.036 66.7783 111.933 66.9528C111.834 67.1278 111.77 67.3247 111.741 67.5434C111.713 67.7621 111.724 67.9688 111.776 68.1634C111.831 68.3584 111.919 68.5348 112.041 68.6925C112.163 68.8463 112.311 68.973 112.486 69.0724C112.665 69.1723 112.866 69.2367 113.088 69.2656Z" fill="white"/>
<path d="M117.14 70.3037C116.838 70.2645 116.556 70.1818 116.292 70.0556C116.029 69.9255 115.828 69.7767 115.689 69.6091L115.955 69.195C116.089 69.3466 116.267 69.4809 116.49 69.598C116.712 69.7151 116.95 69.7901 117.202 69.8229C117.433 69.8528 117.623 69.8506 117.773 69.8164C117.923 69.7822 118.038 69.7243 118.117 69.6426C118.198 69.5571 118.245 69.4559 118.26 69.339C118.278 69.2033 118.247 69.088 118.167 68.9933C118.091 68.8991 117.985 68.8181 117.848 68.7505C117.715 68.6796 117.567 68.6143 117.402 68.5545C117.237 68.4948 117.071 68.4291 116.904 68.3576C116.741 68.2827 116.593 68.1964 116.46 68.0986C116.331 68.0013 116.231 67.881 116.162 67.7377C116.093 67.5907 116.072 67.4116 116.099 67.2004C116.126 66.9968 116.203 66.8169 116.33 66.6609C116.462 66.5017 116.646 66.3856 116.882 66.3126C117.122 66.2364 117.415 66.2208 117.762 66.2659C117.992 66.2958 118.216 66.3556 118.435 66.4453C118.653 66.535 118.838 66.6472 118.989 66.7819L118.744 67.2102C118.589 67.075 118.42 66.9707 118.238 66.8972C118.056 66.8199 117.877 66.7697 117.7 66.7467C117.477 66.7178 117.291 66.7224 117.14 66.7603C116.989 66.7983 116.874 66.86 116.794 66.9455C116.717 67.0314 116.672 67.1329 116.657 67.2498C116.638 67.3893 116.667 67.5062 116.743 67.6004C116.823 67.6951 116.929 67.7761 117.063 67.8432C117.2 67.9109 117.35 67.9764 117.515 68.0399C117.679 68.0997 117.843 68.1651 118.007 68.2362C118.174 68.3077 118.322 68.3922 118.451 68.4895C118.584 68.5873 118.686 68.7078 118.755 68.8511C118.825 68.9943 118.846 69.1697 118.819 69.3771C118.793 69.5769 118.714 69.7565 118.582 69.9158C118.451 70.0713 118.263 70.1869 118.02 70.2626C117.78 70.3351 117.487 70.3488 117.14 70.3037Z" fill="white"/>
<path d="M120.312 68.3803L122.349 68.6447L122.287 69.1255L120.25 68.8611L120.312 68.3803ZM120.135 70.1462L122.443 70.4459L122.379 70.938L119.505 70.5648L120.02 66.605L122.814 66.9679L122.75 67.4601L120.521 67.1706L120.135 70.1462Z" fill="white"/>
<path d="M123.295 71.0569L123.809 67.0971L125.478 67.3138C125.9 67.3687 126.261 67.4999 126.56 67.7074C126.863 67.9155 127.084 68.18 127.222 68.5009C127.364 68.8224 127.41 69.1792 127.359 69.5714C127.308 69.9636 127.173 70.2969 126.953 70.5713C126.737 70.8463 126.456 71.0456 126.111 71.1694C125.768 71.2937 125.386 71.3285 124.964 71.2736L123.295 71.0569ZM123.925 70.6382L124.994 70.7771C125.322 70.8197 125.613 70.7942 125.867 70.7006C126.124 70.6075 126.333 70.4582 126.494 70.2529C126.656 70.0437 126.755 69.7921 126.793 69.4979C126.832 69.2 126.8 68.9312 126.697 68.6916C126.594 68.4519 126.43 68.2542 126.204 68.0984C125.983 67.9431 125.708 67.8442 125.38 67.8016L124.311 67.6627L123.925 70.6382Z" fill="white"/>
</svg>
