<svg width="16" height="16" viewBox="0 0 16 16" fill="none" xmlns="http://www.w3.org/2000/svg">
<path d="M4.249 1.50003C4.21617 1.50055 4.18376 1.50754 4.15363 1.52058C4.1235 1.53363 4.09623 1.55249 4.07339 1.57608C4.05054 1.59966 4.03257 1.62752 4.02049 1.65805C4.00841 1.68859 4.00247 1.7212 4.003 1.75403V2.50003H1.75C1.6837 2.50003 1.62011 2.52637 1.57322 2.57326C1.52634 2.62014 1.5 2.68373 1.5 2.75003L1.503 5.75003L2 5.5L2 3.00003H4.003V3.54603C3.713 3.65003 3.503 3.92653 3.503 4.25003C3.503 4.66103 3.8415 5.00003 4.253 5.00003C4.664 5.00003 5.003 4.66103 5.003 4.25003C5.003 3.92653 4.7925 3.65003 4.503 3.54603V3.00003H12.003V3.54603C11.713 3.65003 11.503 3.92653 11.503 4.25003C11.503 4.66103 11.8415 5.00003 12.253 5.00003C12.664 5.00003 13.003 4.66103 13.003 4.25003C13.003 3.92653 12.7925 3.65003 12.503 3.54603V3.00003H14.506V5.50003L15.003 5.75003L15.006 2.75003C15.006 2.68373 14.9797 2.62014 14.9328 2.57326C14.8859 2.52637 14.8223 2.50003 14.756 2.50003H12.503V1.75403C12.5035 1.72053 12.4973 1.68726 12.4848 1.6562C12.4722 1.62513 12.4535 1.59692 12.4298 1.57322C12.4061 1.54953 12.3779 1.53084 12.3468 1.51827C12.3158 1.50569 12.2825 1.49949 12.249 1.50003C12.2162 1.50055 12.1838 1.50754 12.1536 1.52058C12.1235 1.53363 12.0962 1.55249 12.0734 1.57608C12.0505 1.59966 12.0326 1.62752 12.0205 1.65805C12.0084 1.68859 12.0025 1.7212 12.003 1.75403V2.50003H4.503V1.75403C4.50354 1.72053 4.49734 1.68726 4.48477 1.6562C4.47219 1.62513 4.4535 1.59692 4.42981 1.57322C4.40611 1.54953 4.3779 1.53084 4.34684 1.51827C4.31578 1.50569 4.28251 1.49949 4.249 1.50003ZM4.2255 4.00503C4.24345 4.00698 4.26155 4.00698 4.2795 4.00503C4.34077 4.0102 4.39783 4.0383 4.43927 4.08373C4.48071 4.12915 4.50347 4.18855 4.503 4.25003C4.503 4.39103 4.394 4.50003 4.253 4.50003C4.22004 4.5005 4.18732 4.49436 4.15677 4.48196C4.12623 4.46957 4.09848 4.45117 4.07517 4.42786C4.05186 4.40455 4.03347 4.3768 4.02107 4.34626C4.00867 4.31571 4.00253 4.28299 4.003 4.25003C4.003 4.11903 4.099 4.01853 4.2255 4.00503ZM12.2255 4.00503C12.2434 4.00698 12.2616 4.00698 12.2795 4.00503C12.3408 4.0102 12.3978 4.0383 12.4393 4.08373C12.4807 4.12915 12.5035 4.18855 12.503 4.25003C12.503 4.39103 12.394 4.50003 12.253 4.50003C12.22 4.5005 12.1873 4.49436 12.1568 4.48196C12.1262 4.46957 12.0985 4.45117 12.0752 4.42786C12.0519 4.40455 12.0335 4.3768 12.0211 4.34626C12.0087 4.31571 12.0025 4.28299 12.003 4.25003C12.003 4.11903 12.099 4.01853 12.2255 4.00503ZM1.753 5.50003C1.6867 5.50003 1.62311 5.52637 1.57622 5.57326C1.52934 5.62014 1.503 5.68373 1.503 5.75003L1.503 14.75C1.503 14.8163 1.52934 14.8799 1.57622 14.9268C1.62311 14.9737 1.6867 15 1.753 15H14.753C14.8193 15 14.8829 14.9737 14.9298 14.9268C14.9767 14.8799 15.003 14.8163 15.003 14.75V5.75003C15.003 5.68373 14.9767 5.62014 14.9298 5.57326C14.8829 5.52637 14.8193 5.50003 14.753 5.50003H1.753ZM2.003 6.00003H14.503V14.5H2.003V6.00003ZM6.753 6.50003C6.6867 6.50003 6.62311 6.52637 6.57622 6.57326C6.52934 6.62014 6.503 6.68373 6.503 6.75003V7.75003C6.503 7.81634 6.52934 7.87993 6.57622 7.92681C6.62311 7.97369 6.6867 8.00003 6.753 8.00003H7.753C7.8193 8.00003 7.88289 7.97369 7.92978 7.92681C7.97666 7.87993 8.003 7.81634 8.003 7.75003V6.75003C8.003 6.68373 7.97666 6.62014 7.92978 6.57326C7.88289 6.52637 7.8193 6.50003 7.753 6.50003H6.753ZM8.753 6.50003C8.6867 6.50003 8.62311 6.52637 8.57622 6.57326C8.52934 6.62014 8.503 6.68373 8.503 6.75003V7.75003C8.503 7.81634 8.52934 7.87993 8.57622 7.92681C8.62311 7.97369 8.6867 8.00003 8.753 8.00003H9.753C9.8193 8.00003 9.88289 7.97369 9.92978 7.92681C9.97666 7.87993 10.003 7.81634 10.003 7.75003V6.75003C10.003 6.68373 9.97666 6.62014 9.92978 6.57326C9.88289 6.52637 9.8193 6.50003 9.753 6.50003H8.753ZM10.753 6.50003C10.6867 6.50003 10.6231 6.52637 10.5762 6.57326C10.5293 6.62014 10.503 6.68373 10.503 6.75003V7.75003C10.503 7.81634 10.5293 7.87993 10.5762 7.92681C10.6231 7.97369 10.6867 8.00003 10.753 8.00003H11.753C11.8193 8.00003 11.8829 7.97369 11.9298 7.92681C11.9767 7.87993 12.003 7.81634 12.003 7.75003V6.75003C12.003 6.68373 11.9767 6.62014 11.9298 6.57326C11.8829 6.52637 11.8193 6.50003 11.753 6.50003H10.753ZM12.753 6.50003C12.6867 6.50003 12.6231 6.52637 12.5762 6.57326C12.5293 6.62014 12.503 6.68373 12.503 6.75003V7.75003C12.503 7.81634 12.5293 7.87993 12.5762 7.92681C12.6231 7.97369 12.6867 8.00003 12.753 8.00003H13.753C13.8193 8.00003 13.8829 7.97369 13.9298 7.92681C13.9767 7.87993 14.003 7.81634 14.003 7.75003V6.75003C14.003 6.68373 13.9767 6.62014 13.9298 6.57326C13.8829 6.52637 13.8193 6.50003 13.753 6.50003H12.753ZM5.746 6.84203C5.68125 6.84349 5.61958 6.87002 5.574 6.91603L5.087 7.39853L4.9305 7.24403C4.90729 7.22032 4.8796 7.20147 4.84904 7.18857C4.81847 7.17567 4.78564 7.16898 4.75247 7.16889C4.71929 7.16881 4.68643 7.17533 4.6558 7.18807C4.62517 7.20082 4.59738 7.21953 4.57405 7.24312C4.55073 7.26671 4.53233 7.29471 4.51994 7.32548C4.50754 7.35626 4.50139 7.38919 4.50185 7.42236C4.50231 7.45554 4.50937 7.48829 4.52262 7.5187C4.53586 7.54912 4.55503 7.5766 4.579 7.59953L4.911 7.92753C4.9578 7.97379 5.02095 7.99973 5.08675 7.99973C5.15255 7.99973 5.2157 7.97379 5.2625 7.92753L5.926 7.27153C5.96231 7.23657 5.98721 7.19144 5.99742 7.14208C6.00763 7.09271 6.00267 7.04141 5.98321 6.99491C5.96374 6.94841 5.93067 6.90888 5.88834 6.88151C5.84601 6.85414 5.79639 6.8407 5.746 6.84203ZM3.003 7.00003V7.50003H3.503V7.00003H3.003ZM7.003 7.00003H7.503V7.50003H7.003V7.00003ZM9.003 7.00003H9.503V7.50003H9.003V7.00003ZM11.003 7.00003H11.503V7.50003H11.003V7.00003ZM13.003 7.00003H13.503V7.50003H13.003V7.00003ZM2.753 8.50003C2.6867 8.50003 2.62311 8.52637 2.57622 8.57326C2.52934 8.62014 2.503 8.68373 2.503 8.75003V9.75003C2.503 9.81634 2.52934 9.87992 2.57622 9.92681C2.62311 9.97369 2.6867 10 2.753 10H3.753C3.8193 10 3.88289 9.97369 3.92978 9.92681C3.97666 9.87992 4.003 9.81634 4.003 9.75003V8.75003C4.003 8.68373 3.97666 8.62014 3.92978 8.57326C3.88289 8.52637 3.8193 8.50003 3.753 8.50003H2.753ZM4.753 8.50003C4.6867 8.50003 4.62311 8.52637 4.57622 8.57326C4.52934 8.62014 4.503 8.68373 4.503 8.75003V9.75003C4.503 9.81634 4.52934 9.87992 4.57622 9.92681C4.62311 9.97369 4.6867 10 4.753 10H5.753C5.8193 10 5.88289 9.97369 5.92978 9.92681C5.97666 9.87992 6.003 9.81634 6.003 9.75003V8.75003C6.003 8.68373 5.97666 8.62014 5.92978 8.57326C5.88289 8.52637 5.8193 8.50003 5.753 8.50003H4.753ZM6.753 8.50003C6.6867 8.50003 6.62311 8.52637 6.57622 8.57326C6.52934 8.62014 6.503 8.68373 6.503 8.75003V9.75003C6.503 9.81634 6.52934 9.87992 6.57622 9.92681C6.62311 9.97369 6.6867 10 6.753 10H7.753C7.8193 10 7.88289 9.97369 7.92978 9.92681C7.97666 9.87992 8.003 9.81634 8.003 9.75003V8.75003C8.003 8.68373 7.97666 8.62014 7.92978 8.57326C7.88289 8.52637 7.8193 8.50003 7.753 8.50003H6.753ZM8.753 8.50003C8.6867 8.50003 8.62311 8.52637 8.57622 8.57326C8.52934 8.62014 8.503 8.68373 8.503 8.75003V9.75003C8.503 9.81634 8.52934 9.87992 8.57622 9.92681C8.62311 9.97369 8.6867 10 8.753 10H9.753C9.8193 10 9.88289 9.97369 9.92978 9.92681C9.97666 9.87992 10.003 9.81634 10.003 9.75003V8.75003C10.003 8.68373 9.97666 8.62014 9.92978 8.57326C9.88289 8.52637 9.8193 8.50003 9.753 8.50003H8.753ZM12.753 8.50003C12.6867 8.50003 12.6231 8.52637 12.5762 8.57326C12.5293 8.62014 12.503 8.68373 12.503 8.75003V9.75003C12.503 9.81634 12.5293 9.87992 12.5762 9.92681C12.6231 9.97369 12.6867 10 12.753 10H13.753C13.8193 10 13.8829 9.97369 13.9298 9.92681C13.9767 9.87992 14.003 9.81634 14.003 9.75003V8.75003C14.003 8.68373 13.9767 8.62014 13.9298 8.57326C13.8829 8.52637 13.8193 8.50003 13.753 8.50003H12.753ZM11.747 8.84203C11.6822 8.84349 11.6206 8.87002 11.575 8.91603L11.087 9.39853L10.9305 9.24403C10.9073 9.22032 10.8796 9.20147 10.849 9.18857C10.8185 9.17567 10.7856 9.16898 10.7525 9.16889C10.7193 9.16881 10.6864 9.17533 10.6558 9.18807C10.6252 9.20082 10.5974 9.21953 10.5741 9.24312C10.5507 9.26671 10.5323 9.29471 10.5199 9.32548C10.5075 9.35626 10.5014 9.38919 10.5019 9.42236C10.5023 9.45554 10.5094 9.48829 10.5226 9.5187C10.5359 9.54912 10.555 9.5766 10.579 9.59953L10.911 9.92753C10.9578 9.97379 11.0209 9.99973 11.0868 9.99973C11.1526 9.99973 11.2157 9.97379 11.2625 9.92753L11.927 9.27153C11.9633 9.23657 11.9882 9.19144 11.9984 9.14208C12.0086 9.09271 12.0037 9.04141 11.9842 8.99491C11.9647 8.94841 11.9317 8.90888 11.8893 8.88151C11.847 8.85414 11.7974 8.8407 11.747 8.84203ZM3.003 9.00003H3.503V9.50003H3.003V9.00003ZM5.003 9.00003H5.503V9.50003H5.003V9.00003ZM7.003 9.00003H7.503V9.50003H7.003V9.00003ZM9.003 9.00003H9.503V9.50003H9.003V9.00003ZM13.003 9.00003H13.503V9.50003H13.003V9.00003ZM2.753 10.5C2.6867 10.5 2.62311 10.5264 2.57622 10.5733C2.52934 10.6201 2.503 10.6837 2.503 10.75V11.75C2.503 11.8163 2.52934 11.8799 2.57622 11.9268C2.62311 11.9737 2.6867 12 2.753 12H3.753C3.8193 12 3.88289 11.9737 3.92978 11.9268C3.97666 11.8799 4.003 11.8163 4.003 11.75V10.75C4.003 10.6837 3.97666 10.6201 3.92978 10.5733C3.88289 10.5264 3.8193 10.5 3.753 10.5H2.753ZM4.753 10.5C4.6867 10.5 4.62311 10.5264 4.57622 10.5733C4.52934 10.6201 4.503 10.6837 4.503 10.75V11.75C4.503 11.8163 4.52934 11.8799 4.57622 11.9268C4.62311 11.9737 4.6867 12 4.753 12H5.753C5.8193 12 5.88289 11.9737 5.92978 11.9268C5.97666 11.8799 6.003 11.8163 6.003 11.75V10.75C6.003 10.6837 5.97666 10.6201 5.92978 10.5733C5.88289 10.5264 5.8193 10.5 5.753 10.5H4.753ZM8.753 10.5C8.6867 10.5 8.62311 10.5264 8.57622 10.5733C8.52934 10.6201 8.503 10.6837 8.503 10.75V11.75C8.503 11.8163 8.52934 11.8799 8.57622 11.9268C8.62311 11.9737 8.6867 12 8.753 12H9.753C9.8193 12 9.88289 11.9737 9.92978 11.9268C9.97666 11.8799 10.003 11.8163 10.003 11.75V10.75C10.003 10.6837 9.97666 10.6201 9.92978 10.5733C9.88289 10.5264 9.8193 10.5 9.753 10.5H8.753ZM10.753 10.5C10.6867 10.5 10.6231 10.5264 10.5762 10.5733C10.5293 10.6201 10.503 10.6837 10.503 10.75V11.75C10.503 11.8163 10.5293 11.8799 10.5762 11.9268C10.6231 11.9737 10.6867 12 10.753 12H11.753C11.8193 12 11.8829 11.9737 11.9298 11.9268C11.9767 11.8799 12.003 11.8163 12.003 11.75V10.75C12.003 10.6837 11.9767 10.6201 11.9298 10.5733C11.8829 10.5264 11.8193 10.5 11.753 10.5H10.753ZM12.753 10.5C12.6867 10.5 12.6231 10.5264 12.5762 10.5733C12.5293 10.6201 12.503 10.6837 12.503 10.75V11.75C12.503 11.8163 12.5293 11.8799 12.5762 11.9268C12.6231 11.9737 12.6867 12 12.753 12H13.753C13.8193 12 13.8829 11.9737 13.9298 11.9268C13.9767 11.8799 14.003 11.8163 14.003 11.75V10.75C14.003 10.6837 13.9767 10.6201 13.9298 10.5733C13.8829 10.5264 13.8193 10.5 13.753 10.5H12.753ZM7.747 10.841C7.6819 10.8422 7.61983 10.8688 7.574 10.915L7.087 11.3985L6.9305 11.244C6.9073 11.2203 6.8796 11.2015 6.84904 11.1886C6.81847 11.1757 6.78564 11.169 6.75247 11.1689C6.71929 11.1688 6.68643 11.1753 6.6558 11.1881C6.62517 11.2008 6.59738 11.2195 6.57405 11.2431C6.55073 11.2667 6.53233 11.2947 6.51994 11.3255C6.50754 11.3563 6.50139 11.3892 6.50185 11.4224C6.50231 11.4555 6.50937 11.4883 6.52262 11.5187C6.53586 11.5491 6.55503 11.5766 6.579 11.5995L6.911 11.9275C6.9578 11.9738 7.02095 11.9997 7.08675 11.9997C7.15255 11.9997 7.2157 11.9738 7.2625 11.9275L7.926 11.2705C7.96224 11.2356 7.98711 11.1906 7.99734 11.1413C8.00758 11.0921 8.00271 11.0408 7.98337 10.9944C7.96403 10.9479 7.93113 10.9084 7.88895 10.8809C7.84678 10.8535 7.79731 10.8399 7.747 10.841ZM3.003 11H3.503V11.5H3.003V11ZM5.003 11H5.503V11.5H5.003V11ZM9.003 11H9.503V11.5H9.003V11ZM11.003 11H11.503V11.5H11.003V11ZM13.003 11H13.503V11.5H13.003V11ZM2.753 12.5C2.6867 12.5 2.62311 12.5264 2.57622 12.5733C2.52934 12.6201 2.503 12.6837 2.503 12.75V13.75C2.503 13.8163 2.52934 13.8799 2.57622 13.9268C2.62311 13.9737 2.6867 14 2.753 14H3.753C3.8193 14 3.88289 13.9737 3.92978 13.9268C3.97666 13.8799 4.003 13.8163 4.003 13.75V12.75C4.003 12.6837 3.97666 12.6201 3.92978 12.5733C3.88289 12.5264 3.8193 12.5 3.753 12.5H2.753ZM4.753 12.5C4.6867 12.5 4.62311 12.5264 4.57622 12.5733C4.52934 12.6201 4.503 12.6837 4.503 12.75V13.75C4.503 13.8163 4.52934 13.8799 4.57622 13.9268C4.62311 13.9737 4.6867 14 4.753 14H5.753C5.8193 14 5.88289 13.9737 5.92978 13.9268C5.97666 13.8799 6.003 13.8163 6.003 13.75V12.75C6.003 12.6837 5.97666 12.6201 5.92978 12.5733C5.88289 12.5264 5.8193 12.5 5.753 12.5H4.753ZM3.003 13H3.503V13.5H3.003V13ZM5.003 13H5.503V13.5H5.003V13ZM7.003 13V13.5H7.503V13H7.003ZM9.003 13V13.5H9.503V13H9.003ZM11.003 13V13.5H11.503V13H11.003ZM13.003 13V13.5H13.503V13H13.003Z" fill="#FF7312"/>
</svg>
