<svg width="24" height="24" viewBox="0 0 24 24" fill="none" xmlns="http://www.w3.org/2000/svg">
<path d="M17.9647 5.23236C17.8334 5.08358 17.6554 5 17.4698 5C17.2842 5 17.1062 5.08358 16.9749 5.23236L6.036 17.6356C5.96914 17.7088 5.91582 17.7963 5.87913 17.8932C5.84244 17.99 5.82313 18.0941 5.82232 18.1995C5.82152 18.3049 5.83923 18.4094 5.87442 18.5069C5.90962 18.6044 5.9616 18.693 6.02732 18.7676C6.09305 18.8421 6.1712 18.901 6.25723 18.9409C6.34326 18.9808 6.43544 19.0009 6.52838 19C6.62133 18.9991 6.71318 18.9772 6.79858 18.9356C6.88399 18.894 6.96123 18.8335 7.0258 18.7577L17.964 6.35451C18.0952 6.20569 18.169 6.00387 18.169 5.79343C18.169 5.583 18.0959 5.38118 17.9647 5.23236ZM7.1756 14.7715L8.9676 12.7398C8.9165 12.4959 8.88997 12.2462 8.8885 11.9954C8.8885 10.1075 10.2815 8.5758 12 8.5758C12.2002 8.5758 12.3948 8.6012 12.5845 8.64088L13.4266 7.68697C12.9551 7.5984 12.478 7.55329 12 7.55206C7.408 7.55126 5 11.3852 5 11.9954C5 12.3311 5.7399 13.6549 7.1756 14.7715ZM16.8265 9.2218L15.0331 11.2534C15.0814 11.4931 15.1108 11.7399 15.1108 11.9954C15.1108 13.8834 13.7185 15.4135 12 15.4135C11.8012 15.4135 11.608 15.3881 11.4197 15.3492L10.5769 16.3039C11.0263 16.3864 11.4981 16.4388 12 16.4388C16.592 16.4388 19 12.6033 19 11.9954C19 11.6589 18.2608 10.3368 16.8265 9.2218Z" fill="#868686"/>
</svg>
