<svg width="24" height="24" viewBox="0 0 24 24" fill="none" xmlns="http://www.w3.org/2000/svg">
<path d="M5.25 21.375C5.19973 21.3749 5.15 21.3647 5.10375 21.345C5.03597 21.3163 4.97814 21.2683 4.93746 21.2069C4.89678 21.1456 4.87506 21.0736 4.875 21V17.625H3.375C2.87772 17.625 2.40081 17.4275 2.04917 17.0758C1.69754 16.7242 1.5 16.2473 1.5 15.75V6.75C1.5 6.25272 1.69754 5.77581 2.04917 5.42417C2.40081 5.07254 2.87772 4.875 3.375 4.875H18.375C18.8723 4.875 19.3492 5.07254 19.7008 5.42417C20.0525 5.77581 20.25 6.25272 20.25 6.75V15.75C20.25 16.2473 20.0525 16.7242 19.7008 17.0758C19.3492 17.4275 18.8723 17.625 18.375 17.625H9.315L5.50875 21.27C5.43923 21.337 5.34655 21.3746 5.25 21.375ZM3.375 5.625C3.07663 5.625 2.79048 5.74353 2.5795 5.9545C2.36853 6.16548 2.25 6.45163 2.25 6.75V15.75C2.25 16.0484 2.36853 16.3345 2.5795 16.5455C2.79048 16.7565 3.07663 16.875 3.375 16.875H5.25C5.34946 16.875 5.44484 16.9145 5.51516 16.9848C5.58549 17.0552 5.625 17.1505 5.625 17.25V20.1225L8.90625 16.98C8.97577 16.913 9.06845 16.8754 9.165 16.875H18.375C18.6734 16.875 18.9595 16.7565 19.1705 16.5455C19.3815 16.3345 19.5 16.0484 19.5 15.75V6.75C19.5 6.45163 19.3815 6.16548 19.1705 5.9545C18.9595 5.74353 18.6734 5.625 18.375 5.625H3.375ZM22.5 13.5V4.5C22.5 4.00272 22.3025 3.52581 21.9508 3.17417C21.5992 2.82254 21.1223 2.625 20.625 2.625H5.625C5.12772 2.625 4.65081 2.82254 4.29917 3.17417C3.94754 3.52581 3.75 4.00272 3.75 4.5H4.5C4.5 4.20163 4.61853 3.91548 4.8295 3.7045C5.04048 3.49353 5.32663 3.375 5.625 3.375H20.625C20.9234 3.375 21.2095 3.49353 21.4205 3.7045C21.6315 3.91548 21.75 4.20163 21.75 4.5V13.5C21.75 13.7984 21.6315 14.0845 21.4205 14.2955C21.2095 14.5065 20.9234 14.625 20.625 14.625V15.375C20.8712 15.375 21.115 15.3265 21.3425 15.2323C21.57 15.138 21.7767 14.9999 21.9508 14.8258C22.1249 14.6517 22.263 14.445 22.3573 14.2175C22.4515 13.99 22.5 13.7462 22.5 13.5ZM11.25 11.97C11.6729 11.8985 12.0666 11.7076 12.3846 11.4199C12.7027 11.1321 12.9318 10.7594 13.0451 10.3457C13.1584 9.93202 13.1511 9.49458 13.024 9.08492C12.8969 8.67526 12.6554 8.31045 12.3279 8.03348C12.0004 7.75651 11.6006 7.57892 11.1755 7.52163C10.7504 7.46434 10.3179 7.52975 9.92872 7.71013C9.53959 7.89052 9.21011 8.17838 8.97913 8.53978C8.74815 8.90119 8.62528 9.32109 8.625 9.75H9.375C9.375 9.45333 9.46297 9.16332 9.6278 8.91665C9.79262 8.66997 10.0269 8.47771 10.301 8.36418C10.5751 8.25065 10.8767 8.22094 11.1676 8.27882C11.4586 8.3367 11.7259 8.47956 11.9357 8.68934C12.1454 8.89912 12.2883 9.16639 12.3462 9.45736C12.4041 9.74834 12.3744 10.0499 12.2608 10.324C12.1473 10.5981 11.955 10.8324 11.7084 10.9972C11.4617 11.162 11.1717 11.25 10.875 11.25C10.7755 11.25 10.6802 11.2895 10.6098 11.3598C10.5395 11.4302 10.5 11.5255 10.5 11.625V13.5H11.25V11.97ZM11.25 14.25H10.5V15H11.25V14.25Z" fill="#FF7312"/>
</svg>
