<svg width="24" height="24" viewBox="0 0 24 24" fill="none" xmlns="http://www.w3.org/2000/svg">
<path d="M13.6667 8.23538H2.83333C2.61232 8.23538 2.40036 8.13622 2.24408 7.95972C2.0878 7.78321 2 7.54382 2 7.2942C2 7.04459 2.0878 6.8052 2.24408 6.62869C2.40036 6.45219 2.61232 6.35303 2.83333 6.35303H13.6667C13.8877 6.35303 14.0996 6.45219 14.2559 6.62869C14.4122 6.8052 14.5 7.04459 14.5 7.2942C14.5 7.54382 14.4122 7.78321 14.2559 7.95972C14.0996 8.13622 13.8877 8.23538 13.6667 8.23538ZM21.1667 8.23538H17.8333C17.6123 8.23538 17.4004 8.13622 17.2441 7.95972C17.0878 7.78321 17 7.54382 17 7.2942C17 7.04459 17.0878 6.8052 17.2441 6.62869C17.4004 6.45219 17.6123 6.35303 17.8333 6.35303H21.1667C21.3877 6.35303 21.5996 6.45219 21.7559 6.62869C21.9122 6.8052 22 7.04459 22 7.2942C22 7.54382 21.9122 7.78321 21.7559 7.95972C21.5996 8.13622 21.3877 8.23538 21.1667 8.23538Z" fill="#121212"/>
<path d="M15.75 10.5882C15.1731 10.5882 14.6092 10.395 14.1296 10.0331C13.6499 9.67112 13.2761 9.15664 13.0554 8.55472C12.8346 7.9528 12.7768 7.29046 12.8894 6.65147C13.0019 6.01247 13.2797 5.42552 13.6876 4.96483C14.0955 4.50414 14.6152 4.1904 15.181 4.0633C15.7468 3.93619 16.3332 4.00143 16.8662 4.25075C17.3991 4.50008 17.8546 4.92229 18.1751 5.464C18.4956 6.00572 18.6667 6.6426 18.6667 7.29412C18.6667 8.16777 18.3594 9.00564 17.8124 9.62341C17.2654 10.2412 16.5235 10.5882 15.75 10.5882ZM15.75 5.88235C15.5028 5.88235 15.2611 5.96515 15.0555 6.12028C14.85 6.27541 14.6898 6.49589 14.5952 6.75386C14.5005 7.01183 14.4758 7.29569 14.524 7.56954C14.5722 7.8434 14.6913 8.09495 14.8661 8.29239C15.0409 8.48983 15.2637 8.62428 15.5061 8.67876C15.7486 8.73323 15.9999 8.70527 16.2284 8.59842C16.4568 8.49157 16.652 8.31062 16.7893 8.07845C16.9267 7.84629 17 7.57334 17 7.29412C17 6.9197 16.8683 6.56061 16.6339 6.29585C16.3995 6.03109 16.0815 5.88235 15.75 5.88235ZM21.1667 17.6471H10.3333C10.1123 17.6471 9.90036 17.5479 9.74408 17.3714C9.5878 17.1949 9.5 16.9555 9.5 16.7059C9.5 16.4563 9.5878 16.2169 9.74408 16.0404C9.90036 15.8639 10.1123 15.7647 10.3333 15.7647H21.1667C21.3877 15.7647 21.5996 15.8639 21.7559 16.0404C21.9122 16.2169 22 16.4563 22 16.7059C22 16.9555 21.9122 17.1949 21.7559 17.3714C21.5996 17.5479 21.3877 17.6471 21.1667 17.6471ZM6.16667 17.6471H2.83333C2.61232 17.6471 2.40036 17.5479 2.24408 17.3714C2.0878 17.1949 2 16.9555 2 16.7059C2 16.4563 2.0878 16.2169 2.24408 16.0404C2.40036 15.8639 2.61232 15.7647 2.83333 15.7647H6.16667C6.38768 15.7647 6.59964 15.8639 6.75592 16.0404C6.9122 16.2169 7 16.4563 7 16.7059C7 16.9555 6.9122 17.1949 6.75592 17.3714C6.59964 17.5479 6.38768 17.6471 6.16667 17.6471Z" fill="#121212"/>
<path d="M8.25016 20.0001C7.6733 20.0001 7.10939 19.8069 6.62975 19.4449C6.15011 19.083 5.77627 18.5685 5.55552 17.9666C5.33476 17.3647 5.277 16.7023 5.38954 16.0633C5.50208 15.4243 5.77987 14.8374 6.18777 14.3767C6.59567 13.916 7.11537 13.6023 7.68115 13.4752C8.24693 13.3481 8.83337 13.4133 9.36632 13.6626C9.89927 13.9119 10.3548 14.3342 10.6753 14.8759C10.9958 15.4176 11.1668 16.0545 11.1668 16.706C11.1668 17.5796 10.8595 18.4175 10.3126 19.0353C9.76558 19.653 9.02371 20.0001 8.25016 20.0001ZM8.25016 15.2942C8.00294 15.2942 7.76126 15.377 7.5557 15.5321C7.35014 15.6873 7.18992 15.9078 7.09531 16.1657C7.0007 16.4237 6.97595 16.7075 7.02418 16.9814C7.07241 17.2553 7.19146 17.5068 7.36628 17.7043C7.5411 17.9017 7.76382 18.0361 8.0063 18.0906C8.24878 18.1451 8.50011 18.1171 8.72852 18.0103C8.95693 17.9034 9.15215 17.7225 9.2895 17.4903C9.42685 17.2582 9.50016 16.9852 9.50016 16.706C9.50016 16.3316 9.36847 15.9725 9.13405 15.7077C8.89963 15.443 8.58168 15.2942 8.25016 15.2942Z" fill="#121212"/>
</svg>
