<svg width="24" height="24" viewBox="0 0 24 24" fill="none" xmlns="http://www.w3.org/2000/svg">
<path d="M2.6429 6.2139H2.73419C2.87452 6.76524 3.19455 7.25411 3.64371 7.60328C4.09288 7.95244 4.64558 8.142 5.2145 8.142C5.78342 8.142 6.33612 7.95244 6.78529 7.60328C7.23446 7.25411 7.55448 6.76524 7.69481 6.2139H20.6441C20.8146 6.2139 20.9781 6.14616 21.0987 6.0256C21.2193 5.90503 21.287 5.74151 21.287 5.571C21.287 5.40049 21.2193 5.23697 21.0987 5.1164C20.9781 4.99583 20.8146 4.9281 20.6441 4.9281H7.69481C7.55448 4.37676 7.23446 3.88789 6.78529 3.53872C6.33612 3.18956 5.78342 3 5.2145 3C4.64558 3 4.09288 3.18956 3.64371 3.53872C3.19455 3.88789 2.87452 4.37676 2.73419 4.9281H2.6429C2.47239 4.9281 2.30887 4.99583 2.1883 5.1164C2.06773 5.23697 2 5.40049 2 5.571C2 5.74151 2.06773 5.90503 2.1883 6.0256C2.30887 6.14616 2.47239 6.2139 2.6429 6.2139ZM5.2145 4.2852C5.46881 4.2852 5.7174 4.36061 5.92885 4.5019C6.1403 4.64318 6.30511 4.844 6.40243 5.07894C6.49974 5.31389 6.52521 5.57243 6.47559 5.82185C6.42598 6.07127 6.30352 6.30037 6.1237 6.4802C5.94388 6.66002 5.71477 6.78248 5.46535 6.83209C5.21593 6.88171 4.9574 6.85624 4.72245 6.75892C4.4875 6.6616 4.28668 6.4968 4.1454 6.28535C4.00411 6.0739 3.9287 5.82531 3.9287 5.571C3.9287 5.22998 4.06417 4.90294 4.3053 4.6618C4.54644 4.42067 4.87349 4.2852 5.2145 4.2852ZM20.6441 11.3571H20.5528C20.4125 10.8058 20.0925 10.3169 19.6433 9.96772C19.1941 9.61856 18.6414 9.429 18.0725 9.429C17.5036 9.429 16.9509 9.61856 16.5017 9.96772C16.0525 10.3169 15.7325 10.8058 15.5922 11.3571H2.6429C2.47239 11.3571 2.30887 11.4248 2.1883 11.5454C2.06773 11.666 2 11.8295 2 12C2 12.1705 2.06773 12.334 2.1883 12.4546C2.30887 12.5752 2.47239 12.6429 2.6429 12.6429H15.5922C15.7325 13.1942 16.0525 13.6831 16.5017 14.0323C16.9509 14.3814 17.5036 14.571 18.0725 14.571C18.6414 14.571 19.1941 14.3814 19.6433 14.0323C20.0925 13.6831 20.4125 13.1942 20.5528 12.6429H20.6441C20.8146 12.6429 20.9781 12.5752 21.0987 12.4546C21.2193 12.334 21.287 12.1705 21.287 12C21.287 11.8295 21.2193 11.666 21.0987 11.5454C20.9781 11.4248 20.8146 11.3571 20.6441 11.3571ZM18.0725 13.2858C17.8182 13.2858 17.5696 13.2104 17.3581 13.0691C17.1467 12.9278 16.9819 12.727 16.8846 12.4921C16.7873 12.2571 16.7618 11.9986 16.8114 11.7492C16.861 11.4997 16.9835 11.2706 17.1633 11.0908C17.3431 10.911 17.5722 10.7885 17.8217 10.7389C18.0711 10.6893 18.3296 10.7148 18.5646 10.8121C18.7995 10.9094 19.0003 11.0742 19.1416 11.2856C19.2829 11.4971 19.3583 11.7457 19.3583 12C19.3583 12.341 19.2228 12.6681 18.9817 12.9092C18.7406 13.1503 18.4135 13.2858 18.0725 13.2858ZM20.6441 17.7861H14.1238C13.9835 17.2348 13.6635 16.7459 13.2143 16.3967C12.7651 16.0476 12.2124 15.858 11.6435 15.858C11.0746 15.858 10.5219 16.0476 10.0727 16.3967C9.62355 16.7459 9.30352 17.2348 9.16319 17.7861H2.6429C2.47239 17.7861 2.30887 17.8538 2.1883 17.9744C2.06773 18.095 2 18.2585 2 18.429C2 18.5995 2.06773 18.763 2.1883 18.8836C2.30887 19.0042 2.47239 19.0719 2.6429 19.0719H9.16319C9.30352 19.6232 9.62355 20.1121 10.0727 20.4613C10.5219 20.8104 11.0746 21 11.6435 21C12.2124 21 12.7651 20.8104 13.2143 20.4613C13.6635 20.1121 13.9835 19.6232 14.1238 19.0719H20.6441C20.8146 19.0719 20.9781 19.0042 21.0987 18.8836C21.2193 18.763 21.287 18.5995 21.287 18.429C21.287 18.2585 21.2193 18.095 21.0987 17.9744C20.9781 17.8538 20.8146 17.7861 20.6441 17.7861ZM11.6435 19.7148C11.3892 19.7148 11.1406 19.6394 10.9291 19.4981C10.7177 19.3568 10.5529 19.156 10.4556 18.9211C10.3583 18.6861 10.3328 18.4276 10.3824 18.1782C10.432 17.9287 10.5545 17.6996 10.7343 17.5198C10.9141 17.34 11.1432 17.2175 11.3927 17.1679C11.6421 17.1183 11.9006 17.1438 12.1356 17.2411C12.3705 17.3384 12.5713 17.5032 12.7126 17.7146C12.8539 17.9261 12.9293 18.1747 12.9293 18.429C12.9293 18.77 12.7938 19.0971 12.5527 19.3382C12.3116 19.5793 11.9845 19.7148 11.6435 19.7148Z" fill="url(#paint0_linear_5252_2005)"/>
<defs>
<linearGradient id="paint0_linear_5252_2005" x1="11.6435" y1="3.23077" x2="11.6435" y2="20.3077" gradientUnits="userSpaceOnUse">
<stop stop-color="#FF7312"/>
<stop offset="1" stop-color="#182452"/>
</linearGradient>
</defs>
</svg>
