<svg width="24" height="24" viewBox="0 0 24 24" fill="none" xmlns="http://www.w3.org/2000/svg">
<g clip-path="url(#clip0_2356_939)">
<path d="M22.41 19.41L17 14L14.5 16.5" stroke="url(#paint0_linear_2356_939)" stroke-width="2" stroke-linecap="round" stroke-linejoin="round"/>
<path d="M18 20L9.49997 11.5L1.58997 19.41" stroke="url(#paint1_linear_2356_939)" stroke-width="2" stroke-linecap="round" stroke-linejoin="round"/>
<path d="M21 4H3C1.89543 4 1 4.89543 1 6V18C1 19.1046 1.89543 20 3 20H21C22.1046 20 23 19.1046 23 18V6C23 4.89543 22.1046 4 21 4Z" stroke="url(#paint2_linear_2356_939)" stroke-width="2" stroke-linecap="round" stroke-linejoin="round"/>
<path d="M17 10C17.5523 10 18 9.55228 18 9C18 8.44772 17.5523 8 17 8C16.4477 8 16 8.44772 16 9C16 9.55228 16.4477 10 17 10Z" stroke="url(#paint3_linear_2356_939)" stroke-width="2" stroke-linecap="round" stroke-linejoin="round"/>
</g>
<defs>
<linearGradient id="paint0_linear_2356_939" x1="18.455" y1="14.0694" x2="18.455" y2="19.2019" gradientUnits="userSpaceOnUse">
<stop stop-color="#FF7312"/>
<stop offset="1" stop-color="#182452"/>
</linearGradient>
<linearGradient id="paint1_linear_2356_939" x1="9.79497" y1="11.609" x2="9.79497" y2="19.6731" gradientUnits="userSpaceOnUse">
<stop stop-color="#FF7312"/>
<stop offset="1" stop-color="#182452"/>
</linearGradient>
<linearGradient id="paint2_linear_2356_939" x1="12" y1="4.20513" x2="12" y2="19.3846" gradientUnits="userSpaceOnUse">
<stop stop-color="#FF7312"/>
<stop offset="1" stop-color="#182452"/>
</linearGradient>
<linearGradient id="paint3_linear_2356_939" x1="17" y1="8.02564" x2="17" y2="9.92307" gradientUnits="userSpaceOnUse">
<stop stop-color="#FF7312"/>
<stop offset="1" stop-color="#182452"/>
</linearGradient>
<clipPath id="clip0_2356_939">
<rect width="24" height="24" fill="white"/>
</clipPath>
</defs>
</svg>
