<svg width="24" height="24" viewBox="0 0 24 24" fill="none" xmlns="http://www.w3.org/2000/svg">
<g clip-path="url(#clip0_2356_939)">
<path d="M22.41 19.41L17 14L14.5 16.5" stroke="#FF7312" stroke-width="2" stroke-linecap="round" stroke-linejoin="round"/>
<path d="M18 20L9.49997 11.5L1.58997 19.41" stroke="#FF7312" stroke-width="2" stroke-linecap="round" stroke-linejoin="round"/>
<path d="M21 4H3C1.89543 4 1 4.89543 1 6V18C1 19.1046 1.89543 20 3 20H21C22.1046 20 23 19.1046 23 18V6C23 4.89543 22.1046 4 21 4Z" stroke="#FF7312" stroke-width="2" stroke-linecap="round" stroke-linejoin="round"/>
<path d="M17 10C17.5523 10 18 9.55228 18 9C18 8.44772 17.5523 8 17 8C16.4477 8 16 8.44772 16 9C16 9.55228 16.4477 10 17 10Z" stroke="#FF7312" stroke-width="2" stroke-linecap="round" stroke-linejoin="round"/>
</g>
<defs>
<clipPath id="clip0_2356_939">
<rect width="24" height="24" fill="white"/>
</clipPath>
</defs>
</svg>
