<svg width="80" height="80" viewBox="0 0 80 80" fill="none" xmlns="http://www.w3.org/2000/svg">
<g filter="url(#filter0_d_7103_3519)">
<circle cx="40" cy="40" r="20" fill="#FF7312"/>
</g>
<circle cx="40" cy="40" r="14" fill="#FFDEC8"/>
<path d="M40 30C34.4737 30 30 34.4737 30 40C30 45.5263 34.4737 50 40 50C45.5263 50 50 45.5263 50 40C50 34.4737 45.5263 30 40 30Z" fill="white"/>
<path d="M45.7511 35.7155C45.5378 35.5022 45.2178 35.5022 45.0045 35.7155L38.2045 42.5422L35.3511 39.6889C35.1378 39.4755 34.7911 39.4755 34.6045 39.6889C34.3911 39.9022 34.3911 40.2489 34.6045 40.4355L37.8311 43.6622C37.9378 43.7689 38.0711 43.8222 38.2045 43.8222C38.3378 43.8222 38.4711 43.7689 38.5778 43.6622L45.7511 36.4622C45.9645 36.2489 45.9645 35.9289 45.7511 35.7155Z" fill="#121212"/>
<defs>
<filter id="filter0_d_7103_3519" x="0" y="0" width="80" height="80" filterUnits="userSpaceOnUse" color-interpolation-filters="sRGB">
<feFlood flood-opacity="0" result="BackgroundImageFix"/>
<feColorMatrix in="SourceAlpha" type="matrix" values="0 0 0 0 0 0 0 0 0 0 0 0 0 0 0 0 0 0 127 0" result="hardAlpha"/>
<feOffset/>
<feGaussianBlur stdDeviation="10"/>
<feComposite in2="hardAlpha" operator="out"/>
<feColorMatrix type="matrix" values="0 0 0 0 0.0941176 0 0 0 0 0.141176 0 0 0 0 0.321569 0 0 0 0.24 0"/>
<feBlend mode="normal" in2="BackgroundImageFix" result="effect1_dropShadow_7103_3519"/>
<feBlend mode="normal" in="SourceGraphic" in2="effect1_dropShadow_7103_3519" result="shape"/>
</filter>
</defs>
</svg>
