<svg width="20" height="20" viewBox="0 0 20 20" fill="none" xmlns="http://www.w3.org/2000/svg">
<path d="M9.99854 0C4.47222 0 -0.00146484 4.47368 -0.00146484 10C-0.00146484 15.5263 4.47222 20 9.99854 20C15.5249 20 19.9985 15.5263 19.9985 10C19.9985 4.47368 15.5249 0 9.99854 0Z" fill="#469C73"/>
<path d="M15.7495 5.71554C15.5362 5.50221 15.2162 5.50221 15.0029 5.71554L8.20287 12.5422L5.34954 9.68887C5.1362 9.47554 4.78954 9.47554 4.60287 9.68887C4.38954 9.90221 4.38954 10.2489 4.60287 10.4355L7.82954 13.6622C7.9362 13.7689 8.06954 13.8222 8.20287 13.8222C8.3362 13.8222 8.46954 13.7689 8.5762 13.6622L15.7495 6.46221C15.9629 6.24888 15.9629 5.92888 15.7495 5.71554Z" fill="white"/>
</svg>
