<svg width="160" height="160" viewBox="0 0 160 160" fill="none" xmlns="http://www.w3.org/2000/svg">
<path d="M111.969 49.4595L110.927 48.8792L110.4 49.8862C110.127 49.7993 109.839 49.7595 109.546 49.7677L109.237 48.6997L108.103 49.0491L108.399 50.0713C108.075 50.2437 107.796 50.4782 107.571 50.7577L106.596 50.2136L106.033 51.2883L107.039 51.8491C106.981 52.0881 106.953 52.3357 106.96 52.5876L105.925 52.9061L106.264 54.0766L107.254 53.7715C107.421 54.1053 107.649 54.394 107.919 54.6257L107.459 55.5057L108.5 56.0863L108.977 55.1751C109.272 55.2513 109.581 55.2772 109.894 55.2435L110.19 56.2661L111.324 55.9168L111.015 54.8484C111.305 54.6636 111.554 54.4256 111.752 54.15L112.733 54.6973L113.296 53.6226L112.232 53.0292C112.281 52.7688 112.293 52.4996 112.266 52.2275L113.257 51.9225L112.918 50.752L111.883 51.0709C111.755 50.8566 111.601 50.6647 111.426 50.4973L111.969 49.4595ZM110.659 52.191C110.83 52.7826 110.503 53.4073 109.93 53.5839C109.356 53.7606 108.751 53.4229 108.58 52.8312C108.409 52.2396 108.736 51.615 109.309 51.4383C109.882 51.2621 110.488 51.5994 110.659 52.191Z" fill="#E3E5E8"/>
<path d="M15.2453 62.6634C15.4401 62.5208 15.6171 62.3512 15.7707 62.1554L16.7569 62.6091L17.2383 61.4932L16.294 61.0591C16.3552 60.793 16.3765 60.5242 16.3603 60.2596L17.4895 59.8123L17.0658 58.6719L16.0243 59.0845C15.8621 58.7847 15.6456 58.5159 15.3807 58.2942L15.8198 57.2758L14.7388 56.7789L14.3182 57.7536C14.012 57.6788 13.7021 57.6632 13.3997 57.6997L13.0402 56.7328L11.9355 57.1705L12.2829 58.1044C11.9857 58.2981 11.7242 58.5542 11.517 58.8631L10.5727 58.429L10.0913 59.5449L11.0778 59.9982C11.0397 60.2472 11.0359 60.4962 11.0637 60.7409L9.99677 61.1633L10.4205 62.3037L11.4558 61.8937C11.6434 62.2005 11.8915 62.4704 12.1908 62.6843L11.7702 63.659L12.8512 64.1559L13.2904 63.1376C13.5797 63.1844 13.8704 63.1834 14.1522 63.1333L14.5494 64.2017L15.6542 63.7643L15.2453 62.6634ZM13.2639 61.4485C12.7176 61.1974 12.4712 60.5345 12.7145 59.9705C12.9578 59.4065 13.6 59.1522 14.1464 59.4033C14.6927 59.6545 14.9391 60.3174 14.6958 60.8814C14.4529 61.4453 13.8103 61.6996 13.2639 61.4485Z" fill="#E3E5E8"/>
<path d="M105.141 77.3907V83.8072C105.141 84.6553 104.475 85.3434 103.653 85.3434H92.366L88.9587 86.6054C88.6088 86.7352 88.2738 86.3802 88.4078 86.023L89.6968 82.587V77.3907C89.6968 76.5423 90.3634 75.8545 91.1857 75.8545H103.653C104.475 75.8545 105.141 76.5426 105.141 77.3907Z" fill="#FFAC72"/>
<path d="M95.3357 80.7817C95.3357 81.3953 94.8536 81.893 94.2592 81.893C93.6647 81.893 93.1826 81.3953 93.1826 80.7817C93.1826 80.1681 93.6647 79.6704 94.2592 79.6704C94.8536 79.6704 95.3357 80.1677 95.3357 80.7817Z" fill="white"/>
<path d="M98.7442 80.7817C98.7442 81.3953 98.2621 81.893 97.6677 81.893C97.0732 81.893 96.5911 81.3953 96.5911 80.7817C96.5911 80.1681 97.0732 79.6704 97.6677 79.6704C98.2621 79.6701 98.7442 80.1677 98.7442 80.7817Z" fill="white"/>
<path d="M102.152 80.7817C102.152 81.3953 101.67 81.893 101.076 81.893C100.481 81.893 99.9991 81.3953 99.9991 80.7817C99.9991 80.1681 100.481 79.6704 101.076 79.6704C101.67 79.6704 102.152 80.1677 102.152 80.7817Z" fill="white"/>
<path d="M121.561 34.2028C121.561 34.2028 123.016 31.0651 126.407 30.8899C129.798 30.7147 131.115 33.8396 131.115 33.8396C131.115 33.8396 132.969 33.32 134.552 34.7349C135.869 35.9125 135.884 37.4838 135.884 37.4838C135.884 37.4838 139.986 37.3923 141.768 38.2226C143.543 39.0501 144.689 40.9421 144.689 40.9421H108.692C108.692 40.9421 110.441 38.7476 114.565 39.0171C114.565 39.0171 116.416 33.4342 121.561 34.2028Z" fill="#E3E5E8"/>
<path d="M30.573 24.1437C30.573 24.1437 32.0283 21.0061 35.4192 20.8308C38.8104 20.6556 40.1275 23.7805 40.1275 23.7805C40.1275 23.7805 41.9813 23.2609 43.5637 24.6758C44.8808 25.8534 44.8956 27.4247 44.8956 27.4247C44.8956 27.4247 48.9981 27.3332 50.7798 28.1635C52.5553 28.991 53.7006 30.883 53.7006 30.883H17.7043C17.7043 30.883 19.453 28.6885 23.5765 28.958C23.5765 28.958 25.4283 23.3754 30.573 24.1437Z" fill="#E3E5E8"/>
<path d="M78.945 160C121.721 160 156.397 157.735 156.397 154.942C156.397 152.148 121.721 149.883 78.945 149.883C36.1693 149.883 1.49268 152.148 1.49268 154.942C1.49268 157.735 36.1693 160 78.945 160Z" fill="#F5F5F5"/>
<path d="M109.508 153.088C114.193 146.852 125.748 129.85 119.333 121.501C116.887 118.317 111.432 119.579 110.45 131.958C109.762 140.636 106.628 149.353 105.141 153.088H109.508Z" fill="#95C6AF"/>
<path d="M107.301 153.088C110.338 147.764 112.447 142.129 113.761 137.987C115.532 132.409 116.286 128.26 116.293 128.219C116.32 128.07 116.226 127.928 116.082 127.901C115.938 127.873 115.8 127.971 115.774 128.119C115.766 128.161 115.018 132.28 113.256 137.826C111.927 142.009 109.783 147.727 106.686 153.087H107.301V153.088Z" fill="#95C6AF"/>
<path d="M140.494 117.312C138.65 111.747 130.615 110.741 123.47 127.141C118.547 138.439 110.383 148.609 106.514 153.088H115.796C126.448 145.552 144.802 130.311 140.494 117.312Z" fill="#E8F3EE"/>
<path d="M133.056 124.421C132.874 124.311 132.639 124.375 132.534 124.564C132.504 124.617 129.55 129.864 124.545 136.55C120.987 141.305 115.801 147.557 109.573 153.088H110.739C116.722 147.663 121.704 141.641 125.159 137.023C130.192 130.296 133.167 125.012 133.195 124.959C133.302 124.771 133.24 124.529 133.056 124.421Z" fill="#95C6AF"/>
<path d="M16.4406 150.116C16.4104 151.264 16.6447 152.378 17.0619 153.364H27.3582C29.9852 150.898 30.7529 146.849 29.0131 143.559C28.2393 142.096 27.0644 140.947 25.282 140.729C19.7016 140.044 23.6213 135.687 21.5706 132.206C19.2095 128.195 15.1149 129.746 13.6703 126.579C11.6601 122.176 5.75668 119.873 5.16015 125.195C4.56362 130.517 9.19222 132.387 7.50641 136.177C5.82059 139.966 6.94767 143.907 10.4451 144.621C13.9442 145.334 16.5578 145.658 16.4406 150.116Z" fill="#95C6AF"/>
<path d="M25.8816 153.363L10.9058 129.396C10.7852 129.203 10.5358 129.147 10.3485 129.272C10.1615 129.396 10.1073 129.654 10.2279 129.847L24.9222 153.363H25.8816Z" fill="#95C6AF"/>
<path d="M18.8613 136.111C22.4006 138.834 25.1524 140.634 22.7181 145.55C21.4385 148.133 21.4612 151.171 22.4367 153.364H36.573C38.9014 151.419 40.3209 148.417 40.1491 145.148C40.0405 143.087 39.322 141.157 37.4441 139.932C31.5651 136.096 38.1939 133.386 37.7022 128.369C37.1369 122.59 31.7626 122.067 31.785 117.735C31.8149 111.71 26.4111 105.888 22.9947 111.504C19.5788 117.12 23.7823 121.757 19.9413 125.062C16.1006 128.366 15.3237 133.387 18.8613 136.111Z" fill="#E8F3EE"/>
<path d="M30.454 153.363H31.4601L27.2407 119.36C27.2057 119.078 26.9559 118.878 26.6827 118.914C26.4095 118.95 26.2157 119.208 26.2508 119.49L30.454 153.363Z" fill="#95C6AF"/>
<path d="M53.9842 151.497C46.1867 131.806 43.7769 117.874 47.0207 111.073C47.1499 110.801 47.042 110.473 46.7791 110.34C46.5163 110.207 46.1988 110.318 46.0692 110.589C44.1181 114.68 44.0566 121.072 45.8857 129.588C47.2207 135.804 49.5567 143.159 52.84 151.497L53.9842 151.497Z" fill="#95C6AF"/>
<path d="M44.8679 121.856C44.8679 121.856 40.6653 123.309 38.4796 115.583C38.4796 115.583 45.5231 115.242 44.8679 121.856Z" fill="#E8F3EE"/>
<path d="M45.7952 125.9C45.7952 125.9 44.1558 121.65 51.508 118.967C51.508 118.967 52.2299 126.207 45.7952 125.9Z" fill="#E8F3EE"/>
<path d="M45.5193 114.092C45.5193 114.092 42.6009 110.649 48.6658 105.589C48.6658 105.589 51.6849 112.167 45.5193 114.092Z" fill="#E8F3EE"/>
<path d="M47.4181 134.094C47.4181 134.094 43.9396 136.928 39.3505 130.42C39.3505 130.42 45.867 127.641 47.4181 134.094Z" fill="#E8F3EE"/>
<path d="M48.9669 138.066C48.9669 138.066 46.6402 134.172 53.4319 130.217C53.4319 130.217 55.3559 137.219 48.9669 138.066Z" fill="#E8F3EE"/>
<path d="M50.5647 143.721C50.5647 143.721 47.1388 146.623 42.4312 140.207C42.4312 140.207 48.8954 137.299 50.5647 143.721Z" fill="#E8F3EE"/>
<path d="M144.729 63.3966C145.596 63.3966 146.302 64.1248 146.302 65.0197C146.302 65.9146 145.596 66.6428 144.729 66.6428C143.862 66.6428 143.157 65.9146 143.157 65.0197C143.157 64.1248 143.862 63.3966 144.729 63.3966ZM144.729 66.1338C145.324 66.1338 145.808 65.6341 145.808 65.0201C145.808 64.4061 145.324 63.9063 144.729 63.9063C144.134 63.9063 143.65 64.4061 143.65 65.0201C143.65 65.6341 144.134 66.1338 144.729 66.1338Z" fill="#FF9D59"/>
<path d="M138.311 61.2072C139.178 61.2072 139.883 61.9353 139.883 62.8303C139.883 63.7252 139.178 64.4534 138.311 64.4534C137.444 64.4534 136.738 63.7252 136.738 62.8303C136.738 61.9353 137.444 61.2072 138.311 61.2072ZM138.311 63.944C138.906 63.944 139.39 63.4442 139.39 62.8303C139.39 62.2159 138.906 61.7165 138.311 61.7165C137.716 61.7165 137.232 62.2163 137.232 62.8303C137.232 63.4442 137.716 63.944 138.311 63.944Z" fill="#FF9D59"/>
<path d="M136.537 55.8624C136.673 55.8624 136.784 55.9763 136.784 56.1171V57.2397C136.784 57.3802 136.673 57.4944 136.537 57.4944C136.401 57.4944 136.291 57.3805 136.291 57.2397V56.1171C136.291 55.9763 136.401 55.8624 136.537 55.8624Z" fill="#FF9D59"/>
<path d="M136.537 53.8976C136.673 53.8976 136.784 54.0114 136.784 54.1523V55.2749C136.784 55.4153 136.673 55.5296 136.537 55.5296C136.401 55.5296 136.29 55.4157 136.29 55.2749V54.1523C136.29 54.0114 136.401 53.8976 136.537 53.8976Z" fill="#FF9D59"/>
<path d="M135.011 55.4414H135.988C136.124 55.4414 136.235 55.5552 136.235 55.6961C136.235 55.8365 136.124 55.9507 135.988 55.9507H135.011C134.875 55.9507 134.764 55.8369 134.764 55.6961C134.764 55.5552 134.875 55.4414 135.011 55.4414Z" fill="#FF9D59"/>
<path d="M137.087 55.4414H138.064C138.2 55.4414 138.311 55.5552 138.311 55.6961C138.311 55.8365 138.201 55.9507 138.064 55.9507H137.087C136.951 55.9507 136.84 55.8369 136.84 55.6961C136.84 55.5552 136.951 55.4414 137.087 55.4414Z" fill="#FF9D59"/>
<path d="M143.202 57.6607C143.339 57.6607 143.449 57.7745 143.449 57.9153V59.038C143.449 59.1784 143.339 59.2926 143.202 59.2926C143.066 59.2926 142.956 59.1788 142.956 59.038V57.9153C142.956 57.7745 143.066 57.6607 143.202 57.6607Z" fill="#FF9D59"/>
<path d="M143.202 55.6959C143.338 55.6959 143.449 55.8098 143.449 55.9506V57.0732C143.449 57.214 143.339 57.3279 143.202 57.3279C143.066 57.3279 142.956 57.214 142.956 57.0732V55.9506C142.956 55.8098 143.066 55.6959 143.202 55.6959Z" fill="#FF9D59"/>
<path d="M141.676 57.2396H142.653C142.789 57.2396 142.9 57.3535 142.9 57.4943C142.9 57.6348 142.789 57.749 142.653 57.749H141.676C141.54 57.749 141.429 57.6351 141.429 57.4943C141.429 57.3538 141.539 57.2396 141.676 57.2396Z" fill="#FF9D59"/>
<path d="M143.752 57.2396H144.729C144.865 57.2396 144.976 57.3535 144.976 57.4943C144.976 57.6348 144.866 57.749 144.729 57.749H143.752C143.616 57.749 143.505 57.6351 143.505 57.4943C143.505 57.3538 143.616 57.2396 143.752 57.2396Z" fill="#FF9D59"/>
<path d="M3.14484 115.004C3.14484 115.899 2.43938 116.628 1.57242 116.628C0.705459 116.628 0 115.899 0 115.004C0 114.11 0.705459 113.381 1.57242 113.381C2.43938 113.381 3.14484 114.11 3.14484 115.004ZM2.6514 115.004C2.6514 114.39 2.16723 113.891 1.57242 113.891C0.977265 113.891 0.493443 114.39 0.493443 115.004C0.493443 115.618 0.977609 116.118 1.57242 116.118C2.16758 116.118 2.6514 115.618 2.6514 115.004Z" fill="#FF9D59"/>
<path d="M9.56345 112.815C9.56345 113.709 8.85799 114.438 7.99103 114.438C7.12407 114.438 6.41861 113.709 6.41861 112.815C6.41861 111.92 7.12407 111.191 7.99103 111.191C8.85799 111.192 9.56345 111.92 9.56345 112.815ZM9.07035 112.815C9.07035 112.2 8.58619 111.701 7.99137 111.701C7.39622 111.701 6.9124 112.201 6.9124 112.815C6.9124 113.429 7.39656 113.928 7.99137 113.928C8.58619 113.929 9.07035 113.429 9.07035 112.815Z" fill="#FF9D59"/>
<path d="M9.76439 105.847C9.62832 105.847 9.51767 105.961 9.51767 106.101V107.224C9.51767 107.365 9.62797 107.479 9.76439 107.479C9.90047 107.479 10.0111 107.365 10.0111 107.224V106.101C10.0111 105.961 9.90081 105.847 9.76439 105.847Z" fill="#FF9D59"/>
<path d="M9.76442 103.882C9.62835 103.882 9.5177 103.996 9.5177 104.137V105.259C9.5177 105.4 9.628 105.514 9.76442 105.514C9.9005 105.514 10.0111 105.4 10.0111 105.259V104.137C10.0111 103.996 9.90084 103.882 9.76442 103.882Z" fill="#FF9D59"/>
<path d="M11.2911 105.425H10.3142C10.1781 105.425 10.0675 105.54 10.0675 105.68C10.0675 105.821 10.1778 105.935 10.3142 105.935H11.2911C11.4272 105.935 11.5378 105.821 11.5378 105.68C11.5378 105.54 11.4275 105.425 11.2911 105.425Z" fill="#FF9D59"/>
<path d="M9.21498 105.425H8.23805C8.10198 105.425 7.99133 105.54 7.99133 105.68C7.99133 105.821 8.10164 105.935 8.23805 105.935H9.21498C9.35105 105.935 9.4617 105.821 9.4617 105.68C9.46135 105.54 9.35105 105.425 9.21498 105.425Z" fill="#FF9D59"/>
<path d="M3.09914 107.645C2.96306 107.645 2.85242 107.759 2.85242 107.9V109.022C2.85242 109.163 2.96272 109.277 3.09914 109.277C3.23521 109.277 3.34586 109.163 3.34586 109.022V107.9C3.34586 107.759 3.23556 107.645 3.09914 107.645Z" fill="#FF9D59"/>
<path d="M3.09911 105.68C2.96303 105.68 2.85239 105.794 2.85239 105.935V107.057C2.85239 107.198 2.96269 107.312 3.09911 107.312C3.23518 107.312 3.34583 107.198 3.34583 107.057V105.935C3.34583 105.794 3.23553 105.68 3.09911 105.68Z" fill="#FF9D59"/>
<path d="M4.62581 107.224H3.64855C3.51247 107.224 3.40182 107.338 3.40182 107.479C3.40182 107.619 3.51213 107.733 3.64855 107.733H4.62581C4.76189 107.733 4.87253 107.619 4.87253 107.479C4.87253 107.338 4.76223 107.224 4.62581 107.224Z" fill="#FF9D59"/>
<path d="M2.54967 107.224H1.57241C1.43633 107.224 1.32568 107.338 1.32568 107.479C1.32568 107.619 1.43633 107.733 1.57241 107.733H2.54967C2.68575 107.733 2.79639 107.619 2.79639 107.479C2.79605 107.338 2.68575 107.224 2.54967 107.224Z" fill="#FF9D59"/>
<path d="M67.7632 14.8079C67.7632 14.9141 67.9137 15 68.0989 15C68.2845 15 68.4347 14.9139 68.4347 14.8079V0H67.7632V14.8079Z" fill="#3C3C48"/>
<path d="M92.2 14.8079C92.2 14.9141 92.3506 15 92.5358 15C92.7213 15 92.8715 14.9139 92.8715 14.8079V0H92.2V14.8079Z" fill="#3C3C48"/>
<path d="M99.0756 25.5065C99.269 25.5058 99.4632 25.514 99.6556 25.5267L99.6752 14.2945L90.5887 14.2792L72.0162 14.2473L61.0873 14.2246L61.0203 54.1921L61.033 54.1935L61.0344 54.158L71.9626 54.0761C71.9297 49.3774 75.181 45.4452 79.498 44.5914C80.0433 44.4833 80.6044 44.423 81.1814 44.4194C85.3499 44.3889 88.894 47.1974 90.0946 51.092C90.3719 51.9905 90.5265 52.9425 90.5324 53.9338L99.6102 53.864L99.625 44.6574C99.4315 44.667 99.235 44.6755 99.0415 44.6762C93.9102 44.6666 89.763 40.367 89.7706 35.0745C89.7795 29.7774 93.9439 25.4966 99.0756 25.5065ZM68.0993 17.4648C67.6673 17.4648 67.3182 17.1044 67.3182 16.6586C67.3182 16.2134 67.6673 15.853 68.0993 15.853C68.5305 15.853 68.8797 16.2134 68.8797 16.6586C68.8797 17.1044 68.5305 17.4648 68.0993 17.4648ZM91.8155 16.6586C91.8155 16.2134 92.1646 15.853 92.5958 15.853C93.0271 15.853 93.3769 16.2134 93.3769 16.6586C93.3769 17.1044 93.0271 17.4648 92.5958 17.4648C92.1646 17.4648 91.8155 17.1044 91.8155 16.6586Z" fill="#182452"/>
<path d="M7.93403 145.32L7.13373 148.954L9.82842 149.432L10.8751 145.799L7.93403 145.32Z" fill="#FDE2D0"/>
<path d="M8.42345 148.548C8.42345 148.548 9.82406 148.507 10.1866 148.604C10.5491 148.7 12.3421 152.114 13.1252 152.48C14.5461 153.146 13.9963 155.548 13.0624 155.445C10.3608 155.148 6.13766 152.907 6.13766 152.907C6.13766 152.907 6.43215 149.724 6.83385 148.802C7.23554 147.879 7.62555 148.653 8.42345 148.548Z" fill="#37474F"/>
<path d="M9.99092 151.709C9.94179 151.708 9.89299 151.687 9.85691 151.647C9.78681 151.569 9.79162 151.447 9.86722 151.375C9.8923 151.35 10.4936 150.782 11.0995 150.68C11.9052 150.545 12.3228 151.127 12.3403 151.153C12.4008 151.239 12.3819 151.359 12.298 151.421C12.2145 151.484 12.0977 151.464 12.0375 151.378C12.0262 151.363 11.7327 150.966 11.1589 151.061C10.6655 151.143 10.126 151.653 10.1208 151.658C10.0837 151.693 10.037 151.709 9.99092 151.709Z" fill="white"/>
<path d="M9.61855 151.018C9.56941 151.018 9.52062 150.997 9.48453 150.957C9.41444 150.879 9.41925 150.756 9.49484 150.684C9.52027 150.66 10.1213 150.091 10.7271 149.99C11.5336 149.854 11.9504 150.437 11.9679 150.462C12.0284 150.548 12.0095 150.669 11.926 150.731C11.8425 150.793 11.7256 150.774 11.6655 150.687C11.6538 150.672 11.3604 150.275 10.7869 150.37C10.2914 150.453 9.75428 150.962 9.74878 150.967C9.71167 151.002 9.66494 151.019 9.61855 151.018Z" fill="white"/>
<path d="M10.5813 152.363C10.5321 152.363 10.4834 152.342 10.4473 152.302C10.3772 152.224 10.382 152.102 10.4576 152.029C10.4827 152.005 11.084 151.436 11.6898 151.335C12.4963 151.2 12.9131 151.782 12.9306 151.807C12.9911 151.893 12.9722 152.014 12.8884 152.076C12.8049 152.139 12.688 152.119 12.6279 152.033C12.6166 152.017 12.3228 151.62 11.7493 151.715C11.2538 151.798 10.7163 152.307 10.7112 152.312C10.6741 152.347 10.6273 152.364 10.5813 152.363Z" fill="white"/>
<path d="M26.3305 104.455C26.3305 104.455 26.1147 105.271 25.7474 106.622C25.6508 106.979 25.5436 107.375 25.4264 107.804C24.187 112.337 21.9009 120.524 20.0133 126.278C17.3671 134.345 11.4183 147.275 11.4183 147.275L7.98756 146.449L7.64874 146.365L6.83539 146.171C6.83539 146.171 9.05726 137.677 11.2211 130.35C12.6478 125.518 15.1662 113.909 16.7142 106.57C17.5118 102.785 18.0537 100.134 18.0537 100.134L26.3305 104.455Z" fill="#4E587C"/>
<path d="M26.3307 104.455C26.3307 104.455 26.1149 105.271 25.7475 106.622C25.651 106.979 25.5438 107.375 25.4266 107.804C23.7745 107.787 19.3527 107.107 16.714 106.57C17.5116 102.785 18.0535 100.134 18.0535 100.134L26.3307 104.455Z" fill="#4E587C"/>
<path d="M19.0205 105.189C18.9632 105.471 13.5119 132.249 7.98817 146.449L7.64902 146.365C13.1673 132.211 18.6261 105.395 18.6828 105.116L19.0205 105.189Z" fill="#4E587C"/>
<path d="M35.0634 148.42L34.9507 151.66L32.0808 151.506L32.0131 148.065L35.0634 148.42Z" fill="#FDE2D0"/>
<path d="M34.2187 151.512C34.2187 151.512 34.8434 150.671 35.3296 150.714C35.8158 150.757 39.5307 153.894 40.8142 154.167C42.0976 154.44 41.8347 155.415 41.5921 155.911C41.3495 156.408 31.3288 155.575 31.3288 155.575C31.3288 155.575 31.0951 152.489 31.4353 151.552C31.7755 150.614 33.2091 151.721 34.2187 151.512Z" fill="#37474F"/>
<path d="M36.2658 153.694C36.2201 153.707 36.1693 153.702 36.1253 153.675C36.0394 153.623 36.0109 153.509 36.0614 153.42C36.0782 153.391 36.4809 152.692 37.0136 152.424C37.7221 152.068 38.2654 152.486 38.2884 152.504C38.3674 152.567 38.3826 152.683 38.3221 152.765C38.2616 152.847 38.1485 152.862 38.0692 152.8C38.0544 152.788 37.6761 152.506 37.1713 152.759C36.7373 152.977 36.3758 153.603 36.3724 153.609C36.3473 153.652 36.3088 153.681 36.2658 153.694Z" fill="white"/>
<path d="M35.7358 153.162C35.6901 153.175 35.6392 153.17 35.5952 153.143C35.5093 153.091 35.4808 152.977 35.531 152.889C35.5478 152.859 35.9505 152.16 36.4832 151.892C37.1924 151.535 37.7353 151.954 37.758 151.972C37.837 152.035 37.8522 152.151 37.7917 152.233C37.7312 152.314 37.6182 152.33 37.5391 152.268C37.5243 152.256 37.1457 151.974 36.6412 152.227C36.2055 152.446 35.8457 153.071 35.8423 153.077C35.8172 153.12 35.7787 153.149 35.7358 153.162Z" fill="white"/>
<path d="M36.9885 154.129C36.9428 154.143 36.8919 154.137 36.848 154.111C36.7621 154.059 36.7335 153.944 36.7837 153.856C36.8005 153.827 37.2033 153.127 37.7359 152.86C38.4451 152.502 38.9877 152.921 39.0107 152.939C39.0898 153.002 39.1049 153.119 39.0444 153.2C38.9839 153.282 38.8709 153.297 38.7915 153.235C38.7767 153.224 38.398 152.941 37.8936 153.194C37.4575 153.414 37.0981 154.038 37.0947 154.045C37.0703 154.088 37.0315 154.117 36.9885 154.129Z" fill="white"/>
<path d="M35.3544 149.852L32.4549 149.452L32.1092 149.406L31.4051 149.309C31.4051 149.309 30.612 131.628 30.3213 126.913C30.0681 122.817 28.3276 113.543 27.1834 107.77C26.8593 106.131 26.5827 104.774 26.3999 103.897C26.2614 103.207 26.1786 102.815 26.1786 102.815L35.9685 102.43C35.9685 102.43 35.9832 102.653 36.0056 103.053C36.0544 103.872 36.1482 105.44 36.2568 107.412C36.5626 112.777 37.0172 121.127 37.1364 125.37C37.4392 136.296 35.3544 149.852 35.3544 149.852Z" fill="#4E587C"/>
<path d="M36.2566 107.412L27.1832 107.77C26.8592 106.131 26.5826 104.774 26.3997 103.897L36.0054 103.053C36.0538 103.872 36.148 105.441 36.2566 107.412Z" fill="#4E587C"/>
<path d="M32.455 149.452L32.1093 149.407C32.2484 143.962 32.5003 130.359 31.7718 124.542C30.8571 117.209 28.4071 106.464 28.382 106.355L28.7191 106.274C28.7442 106.382 31.1983 117.146 32.1137 124.497C32.8477 130.351 32.5958 144.019 32.455 149.452Z" fill="#4E587C"/>
<path d="M36.6062 80.8144C37.5941 85.3439 40.7548 88.7674 40.7548 88.7674C42.6048 89.834 47.5812 92.1186 49.3749 91.8824C49.3519 90.6257 49.5206 89.7606 49.8237 88.2382C47.4101 87.975 43.244 84.904 43.244 84.904C39.8871 77.3365 39.8225 69.0923 39.8225 69.0923C37.1271 71.6426 36.6062 80.8144 36.6062 80.8144Z" fill="#121212"/>
<path d="M16.9132 96.1244C16.8946 96.267 16.8781 96.4075 16.8613 96.5458C16.5527 99.0762 16.3235 101.039 16.217 102.003C18.5028 102.976 20.8178 103.714 23.1616 104.223C23.2685 104.245 23.3733 104.268 23.4801 104.29C23.5372 104.302 23.5942 104.313 23.6513 104.324C23.777 104.35 23.9042 104.375 24.0293 104.398C24.1691 104.426 24.3086 104.451 24.4499 104.477C26.0515 104.766 27.6665 104.947 29.2956 105.022C29.6248 105.037 29.9523 105.047 30.2825 105.053C30.3038 105.054 30.3244 105.055 30.3457 105.055C30.4296 105.056 30.5134 105.057 30.5986 105.057C30.6498 105.058 30.701 105.058 30.7512 105.059C32.6542 105.073 34.5751 104.942 36.5145 104.666C36.5732 104.23 36.6554 103.582 36.7557 102.765C36.7743 102.613 36.7935 102.456 36.8127 102.293V102.292C36.9557 101.123 37.1278 99.6671 37.3182 98.021C37.3347 97.8802 37.3509 97.7386 37.3677 97.595C37.4935 96.499 37.6268 95.3246 37.7632 94.0998C37.7787 93.9579 37.7952 93.8164 37.8106 93.6734C37.9498 92.4174 38.0924 91.1118 38.234 89.7863C38.3202 88.9769 38.4065 88.16 38.491 87.3421C38.5766 86.5135 38.6614 85.6838 38.7436 84.8592C38.7614 84.6797 38.7796 84.5002 38.7965 84.3204C39.5707 76.5206 40.1332 69.3319 39.7057 68.4657C39.4098 67.8663 38.6556 67.1086 37.7539 66.3262C37.6436 66.2315 37.5316 66.135 37.4175 66.0389C37.0323 65.7143 33.7665 64.0696 33.3655 63.7496L29.7898 63.0161C29.7661 63.0268 26.1687 63.7752 26.1449 63.7847C25.9858 63.8529 25.8247 63.9213 25.6656 63.9905C24.2945 64.5839 22.9355 65.2199 22.1246 65.8147C22.0063 65.9005 21.8995 65.986 21.807 66.0711C21.7332 66.1385 21.6665 66.2049 21.6112 66.2719C21.5596 66.3318 21.504 66.4365 21.4449 66.5823C20.8068 68.1621 19.7855 74.5662 18.8093 81.5516C18.7395 82.0521 18.6705 82.5561 18.601 83.0609C18.5708 83.2822 18.5402 83.5046 18.51 83.727C18.488 83.8795 18.467 84.0334 18.4471 84.1863C18.4364 84.2633 18.4261 84.3392 18.4158 84.4158C18.3639 84.796 18.3131 85.1756 18.2636 85.553C18.2261 85.8325 18.1887 86.1113 18.1516 86.3897C17.6853 89.9108 17.2537 93.3336 16.9132 96.1244Z" fill="#F5F5F5"/>
<path d="M31.5113 69.3555C29.5908 69.1037 28.0785 66.7641 28.0132 66.6613C27.9716 66.5963 27.9891 66.5087 28.052 66.4662C28.1149 66.4233 28.1998 66.4413 28.2413 66.5063C28.2571 66.5311 29.8409 68.981 31.7119 69.0917C31.7868 69.0959 31.8449 69.1626 31.8405 69.2406C31.8363 69.3183 31.7717 69.3775 31.6965 69.3733C31.6343 69.3697 31.5724 69.3637 31.5113 69.3555Z" fill="#D3D3D3"/>
<path d="M26.928 92.8339C26.8603 92.825 26.808 92.7647 26.8087 92.6923C26.8098 92.6147 26.8716 92.5522 26.9469 92.5529C31.9803 92.6143 35.1268 84.0203 35.1581 83.9338C35.1842 83.8607 35.2629 83.8234 35.3337 83.8508C35.4045 83.8781 35.4405 83.9589 35.4144 84.032C35.2842 84.3942 32.1679 92.8991 26.9438 92.8353C26.9383 92.8349 26.9331 92.8346 26.928 92.8339Z" fill="#D3D3D3"/>
<path d="M29.2338 90.4112C29.1884 90.4051 29.1468 90.3757 29.1266 90.3296C29.0953 90.2586 29.1259 90.1749 29.1946 90.143C32.0398 88.81 32.737 86.3864 32.7439 86.3619C32.7645 86.2871 32.8394 86.2427 32.9126 86.2651C32.9851 86.2864 33.0274 86.364 33.0068 86.4389C32.9782 86.5432 32.2738 89.0104 29.3076 90.3998C29.2833 90.4108 29.2582 90.4143 29.2338 90.4112Z" fill="#D3D3D3"/>
<path d="M27.8718 53.862C27.8718 53.862 27.0097 52.7518 27.0488 51.2688C27.0884 49.7858 27.7952 50.3692 28.0914 48.6777C28.3876 46.9861 29.2669 46.6467 30.9174 47.1149C32.5678 47.5834 32.986 46.1902 35.0766 46.5999C37.1675 47.0095 36.9156 48.0431 38.3864 49.0405C39.8571 50.0376 39.2732 51.8178 38.5015 52.4102C37.7297 53.0025 37.1235 52.6241 37.1235 52.6241L27.8718 53.862Z" fill="#3C3C48"/>
<path d="M36.861 56.0963C36.861 56.0963 37.851 55.0422 38.362 56.0885C38.8729 57.1345 37.6325 59.8632 36.1769 58.9665L36.861 56.0963Z" fill="#FDE2D0"/>
<path d="M36.6216 58.1312C36.6787 58.1387 36.7357 58.1068 36.7591 58.0497C37.1061 57.2023 38.0319 56.9618 38.0411 56.9597C38.1116 56.9419 38.1549 56.8689 38.1377 56.7962C38.1209 56.7234 38.0501 56.6788 37.9796 56.6961C37.9363 56.7068 36.9168 56.9685 36.5172 57.9443C36.489 58.0131 36.5203 58.0929 36.5869 58.122C36.5983 58.1266 36.6099 58.1298 36.6216 58.1312Z" fill="#121212"/>
<path d="M37.5658 57.8056C37.5898 57.8088 37.6153 57.8052 37.639 57.7935C37.7043 57.7612 37.7321 57.6804 37.7008 57.6126C37.6957 57.6013 37.5699 57.3352 37.262 57.1419C37.2005 57.1029 37.1194 57.1231 37.0816 57.1873C37.0438 57.2512 37.0634 57.3345 37.1256 57.3735C37.3634 57.5232 37.463 57.7279 37.4641 57.73C37.484 57.7726 37.5232 57.7999 37.5658 57.8056Z" fill="#121212"/>
<path d="M28.1365 54.9517C28.1365 54.9517 27.4335 53.6755 26.6854 54.5565C25.9373 55.4372 26.4768 58.3997 28.1035 57.9074L28.1365 54.9517Z" fill="#FDE2D0"/>
<path d="M27.8753 56.9837C27.8182 56.9763 27.7708 56.9305 27.7622 56.8691C27.6316 55.9593 26.7935 55.4872 26.7853 55.4826C26.7214 55.4475 26.6973 55.3652 26.7314 55.2992C26.7654 55.2333 26.8447 55.2081 26.9087 55.2432C26.9478 55.2648 27.8718 55.7816 28.0223 56.8294C28.033 56.9035 27.9835 56.9724 27.9117 56.9834C27.899 56.9851 27.887 56.9851 27.8753 56.9837Z" fill="#121212"/>
<path d="M27.0396 56.4242C27.0156 56.421 26.9919 56.4111 26.972 56.3937C26.9166 56.3455 26.9094 56.26 26.9558 56.2029C26.9637 56.1933 27.1499 55.9681 27.4949 55.8603C27.564 55.8383 27.6375 55.8791 27.6585 55.9507C27.6795 56.0224 27.6403 56.0979 27.5709 56.1195C27.3042 56.2029 27.1582 56.3753 27.1568 56.3771C27.1273 56.4136 27.0826 56.4296 27.0396 56.4242Z" fill="#121212"/>
<path d="M29.759 60.5771L29.4106 63.4073C29.4106 63.4073 30.0508 64.9559 31.1442 65.1989C32.2365 65.4433 33.3832 64.2316 33.3832 64.2316L33.744 61.3022L29.759 60.5771Z" fill="#FDE2D0"/>
<path d="M29.7592 60.5771L29.6045 61.8328C30.2416 62.7798 31.5333 63.165 33.5198 63.1239L33.7442 61.3022L29.7592 60.5771Z" fill="#FDE2D0"/>
<path d="M27.764 52.9308C27.6788 54.0371 27.6107 55.4261 27.6791 56.5515L27.6788 56.5547C27.6784 56.5579 27.6791 56.5611 27.6795 56.5657C27.6795 56.5668 27.6805 56.5668 27.6801 56.5678C27.6973 56.8427 27.7224 57.1027 27.7557 57.3379C27.776 57.4759 27.799 57.6206 27.8265 57.7692C28.2172 59.9588 29.3477 63.2021 33.3032 62.3051C34.9691 61.9277 36.0082 60.3379 36.6576 58.551C36.6958 58.4442 36.7326 58.3385 36.7659 58.2367C36.7889 58.169 36.8106 58.103 36.8308 58.0381L36.8614 57.9423C36.8666 57.926 36.87 57.9143 36.8721 57.9072C36.8734 57.9029 36.8738 57.9008 36.8738 57.9008C37.2978 56.5168 37.5122 55.0895 37.6198 54.0633C37.7291 53.017 37.2937 51.9894 36.4769 51.3595C34.265 49.6512 31.6844 49.8417 29.9463 50.2815C28.7402 50.5855 27.8609 51.6542 27.764 52.9308Z" fill="#FDE2D0"/>
<path d="M30.3194 55.3453C30.2822 55.6475 30.4029 55.9121 30.5888 55.9366C30.7747 55.9611 30.9558 55.7358 30.9929 55.434C31.03 55.1318 30.9094 54.8672 30.7235 54.8427C30.5376 54.8179 30.3565 55.0431 30.3194 55.3453Z" fill="#3C3C48"/>
<path d="M34.4113 55.8824C34.3742 56.1846 34.4948 56.4492 34.6807 56.4736C34.8666 56.4981 35.0477 56.2729 35.0848 55.971C35.122 55.6688 35.0013 55.4042 34.8154 55.3797C34.6295 55.3553 34.4485 55.5805 34.4113 55.8824Z" fill="#3C3C48"/>
<path d="M29.447 53.4965C29.447 53.4965 30.8579 52.9442 31.9317 53.4415L31.8153 54.0601C31.8153 54.0601 30.2315 53.8991 29.4281 54.2218C29.3601 53.9817 29.3525 53.7405 29.447 53.4965Z" fill="#3C3C48"/>
<path d="M36.111 54.3093C36.111 54.3093 34.8259 53.4715 33.6689 53.7393L33.6634 54.3742C33.6634 54.3742 35.2581 54.5438 35.9883 55.029C36.1024 54.8066 36.1567 54.5697 36.111 54.3093Z" fill="#3C3C48"/>
<path d="M32.1634 58.0713C31.9438 58.0425 31.7366 57.9255 31.7046 57.907C31.6417 57.8702 31.6194 57.7875 31.6551 57.7226C31.6905 57.6573 31.7709 57.6343 31.8338 57.6712C31.9455 57.7357 32.2183 57.8503 32.3499 57.7907C32.3754 57.779 32.4111 57.7545 32.4293 57.674C32.5341 57.2108 32.6035 55.6207 32.6042 55.6047C32.6073 55.5298 32.6688 55.472 32.7413 55.4752C32.8142 55.4784 32.8698 55.5419 32.8668 55.6167C32.864 55.6831 32.7956 57.248 32.6853 57.7357C32.6437 57.9195 32.5376 58.0021 32.4554 58.039C32.3654 58.0794 32.263 58.0844 32.1634 58.0713Z" fill="#FDE2D0"/>
<path d="M33.6736 59.3102C33.5114 59.8107 33.0664 60.7123 31.9593 60.5673C30.8497 60.4215 30.6446 59.5174 30.6109 58.9087L33.6736 59.3102Z" fill="white"/>
<path d="M28.2719 54.4185C28.3131 53.8531 28.4324 53.2448 28.8045 53.1905C29.3206 53.1164 29.1866 51.7877 29.9498 51.3195C30.713 50.8499 32.2847 50.8999 33.2283 51.6848C34.1719 52.4684 35.4117 51.9214 35.8694 52.0963C36.3285 52.2701 36.8865 53.0263 36.636 53.6311C36.3842 54.2348 36.8584 54.6849 36.9048 55.3506C36.9175 55.5315 36.8807 55.7891 36.8206 56.0675C36.9773 56.125 37.1336 56.1838 37.2893 56.2434C37.4525 55.4365 37.5556 54.6774 37.6202 54.0634C37.7295 53.0164 37.2948 51.9892 36.4776 51.3589C34.2647 49.6506 31.6844 49.8404 29.9467 50.2806C28.7406 50.5853 27.8613 51.6547 27.7637 52.9298C27.7286 53.3902 27.6963 53.8999 27.6757 54.4188C27.8743 54.4188 28.0729 54.4181 28.2719 54.4185Z" fill="#3C3C48"/>
<path d="M52.5455 105.343L52.5393 105.359L22.9644 93.0661L34.9183 62.4343L43.2931 65.9182C44.8762 61.8604 49.3464 59.8975 53.2743 61.5298C57.2054 63.1636 59.107 67.7782 57.5257 71.8324L64.4923 74.7303L61.1323 83.3367C60.9907 83.2661 60.844 83.2002 60.6925 83.1367C56.7614 81.5029 52.2912 83.4658 50.7082 87.5236C49.1254 91.5813 51.0284 96.1924 54.9595 97.8265C55.1107 97.8904 55.2615 97.9464 55.4137 97.9993L52.5455 105.343Z" fill="#DEE5FF"/>
<path d="M30.4049 95.2582L30.9681 95.5502C31.4715 95.8112 32.0031 95.7037 32.455 95.3565C32.6546 95.2029 32.9732 94.8979 33.1299 94.8173C33.5697 94.5914 34.5841 94.3555 34.8624 94.4768C35.1408 94.5978 34.8394 95.089 34.5391 95.2171C34.2387 95.3451 33.7982 95.4778 33.4814 95.7147C33.1646 95.9517 34.3264 97.3673 34.8528 97.8294C35.3792 98.2916 36.5943 98.5055 36.4469 99.0719C36.2995 99.6384 35.4724 99.3043 35.4724 99.3043C35.4724 99.3043 35.4789 99.887 34.6367 99.93C34.6367 99.93 34.5332 100.444 33.9913 100.466C33.9913 100.466 33.7604 101.065 33.1945 100.96C32.6285 100.856 30.8685 100.519 28.7731 97.069L30.4049 95.2582Z" fill="#FDE2D0"/>
<path d="M30.5989 94.9436C30.5989 94.9436 22.6938 87.752 20.2166 84.0249C20.2166 84.0249 20.8345 79.7209 21.4664 76.2829C21.8757 74.0553 22.0667 71.7899 22.0079 69.5234C21.975 68.2518 21.8674 67.0181 21.6114 66.2715C21.6114 66.2715 19.2239 66.8997 17.3986 74.9641C16.4048 79.3538 15.9457 82.8497 15.7513 84.674C15.6533 85.5937 15.8925 86.5166 16.4217 87.2633C18.0686 89.5872 22.2237 94.6917 28.4811 97.2622C28.4811 97.2622 30.2137 95.9754 30.5989 94.9436Z" fill="#D3D3D3"/>
<path d="M51.159 87.2173C51.159 87.2173 49.5708 87.473 49.0952 88.0774C48.6196 88.6822 50.8147 88.6864 50.8147 88.6864C50.8147 88.6864 48.164 88.7013 48.0464 89.3551C47.9289 90.0091 50.5044 90.0708 50.5044 90.0708C50.5044 90.0708 48.71 90.3631 48.5715 90.8551C48.433 91.347 50.3133 91.4719 50.3133 91.4719C50.3133 91.4719 48.9141 91.8525 48.7691 92.2132C48.6241 92.5743 50.1972 92.8733 51.0195 92.7268C51.8421 92.58 51.4256 91.5049 51.4256 91.5049C51.4256 91.5049 51.7696 90.5447 51.4669 90.1797C51.4669 90.1797 51.8995 89.3281 51.6947 88.8177C51.6947 88.8177 52.1984 87.4117 51.159 87.2173Z" fill="#FDE2D0"/>
<path d="M131.775 67.4307L137.447 76.1343L134.987 77.9517L131.592 72.6068L131.775 67.4307Z" fill="#121212"/>
<path d="M108.366 147.62L107.71 150.717C107.71 150.717 109.508 152.093 110.778 151.348L111.439 148.325L108.366 147.62Z" fill="#FDE2D0"/>
<path d="M108.323 150.531C108.323 150.531 107.82 149.477 107.282 149.416C106.744 149.354 102.048 151.936 100.595 151.946C99.1422 151.957 98.9147 153.78 99.4346 154.083C100.027 154.428 110.49 156.052 110.49 156.052C110.49 156.052 111.515 152.291 111.342 151.195C111.168 150.1 109.377 150.983 108.323 150.531Z" fill="#37474F"/>
<path d="M105.641 152.446C105.687 152.471 105.744 152.477 105.798 152.457C105.902 152.42 105.957 152.302 105.921 152.195C105.909 152.159 105.617 151.309 105.094 150.899C104.398 150.353 103.719 150.686 103.691 150.701C103.592 150.751 103.551 150.875 103.6 150.977C103.648 151.079 103.768 151.122 103.867 151.071C103.886 151.062 104.356 150.84 104.852 151.227C105.279 151.561 105.54 152.323 105.543 152.33C105.561 152.383 105.597 152.423 105.641 152.446Z" fill="white"/>
<path d="M106.329 151.986C106.375 152.011 106.432 152.017 106.485 151.998C106.589 151.96 106.645 151.842 106.608 151.735C106.596 151.699 106.305 150.849 105.782 150.439C105.085 149.893 104.407 150.227 104.379 150.241C104.28 150.291 104.239 150.415 104.287 150.517C104.336 150.619 104.456 150.662 104.555 150.612C104.573 150.603 105.044 150.38 105.54 150.768C105.968 151.103 106.228 151.863 106.231 151.87C106.249 151.923 106.284 151.963 106.329 151.986Z" fill="white"/>
<path d="M104.764 152.759C104.81 152.784 104.867 152.789 104.92 152.77C105.024 152.733 105.08 152.615 105.043 152.507C105.031 152.471 104.74 151.621 104.217 151.212C103.52 150.665 102.842 150.999 102.814 151.014C102.715 151.064 102.674 151.188 102.722 151.29C102.771 151.392 102.891 151.434 102.99 151.384C103.008 151.375 103.479 151.152 103.975 151.54C104.403 151.875 104.663 152.635 104.665 152.643C104.684 152.695 104.719 152.735 104.764 152.759Z" fill="white"/>
<path d="M123.206 100.307C122.938 101.5 122.669 102.728 122.396 103.987C120.789 111.426 119.049 119.979 116.49 128.54C115.556 136.217 113.927 141.094 111.735 148.824C111.518 148.868 111.202 148.877 110.836 148.855C110.699 148.846 110.554 148.833 110.405 148.811C109.492 148.696 108.401 148.388 107.71 147.851C107.71 147.851 109.041 138.493 110.883 127.959C111.863 122.338 113.603 108.574 114.431 101.91C114.712 99.6206 114.887 98.1724 114.887 98.1724L121.864 99.964L121.979 99.9902L122.277 100.069L123.206 100.307Z" fill="#4E587C"/>
<path d="M123.206 100.307C122.938 101.5 122.669 102.728 122.396 103.987L114.43 101.91C114.712 99.6206 114.887 98.1724 114.887 98.1724L121.863 99.964L121.978 99.9902L122.277 100.069L123.206 100.307Z" fill="#4E587C"/>
<path d="M122.276 100.065V100.069L115.666 128.408C115.658 128.483 114.379 137.762 110.835 148.854C110.698 148.845 110.553 148.832 110.404 148.81C113.952 137.718 115.236 128.421 115.248 128.324L121.862 99.9634L121.977 99.9897L122.276 100.065Z" fill="#4E587C"/>
<path d="M128.072 147.358L128.339 151.426L131.217 150.714V147.358H128.072Z" fill="#FDE2D0"/>
<path d="M129.349 150.585C129.349 150.585 130.877 150.166 131.3 150.175C131.722 150.184 134.548 153.454 135.501 153.648C137.229 153.999 137.228 156.783 136.176 156.921C133.134 157.317 127.933 155.985 127.933 155.985C127.933 155.985 127.457 152.411 127.667 151.29C127.876 150.168 128.499 150.914 129.349 150.585Z" fill="#37474F"/>
<path d="M131.864 153.639C131.81 153.651 131.751 153.641 131.701 153.607C131.604 153.54 131.579 153.405 131.644 153.305C131.666 153.272 132.183 152.486 132.823 152.213C133.674 151.849 134.279 152.377 134.305 152.4C134.393 152.478 134.402 152.616 134.326 152.707C134.25 152.798 134.117 152.807 134.029 152.729C134.012 152.715 133.59 152.357 132.984 152.616C132.463 152.838 131.998 153.542 131.993 153.549C131.962 153.597 131.915 153.628 131.864 153.639Z" fill="white"/>
<path d="M131.282 152.98C131.228 152.992 131.169 152.983 131.119 152.948C131.023 152.881 130.997 152.746 131.062 152.646C131.084 152.613 131.602 151.827 132.241 151.554C133.093 151.19 133.697 151.718 133.722 151.741C133.81 151.819 133.82 151.956 133.744 152.048C133.668 152.138 133.534 152.148 133.447 152.07C133.43 152.055 133.008 151.698 132.402 151.956C131.879 152.18 131.416 152.882 131.411 152.89C131.38 152.937 131.333 152.969 131.282 152.98Z" fill="white"/>
<path d="M132.676 154.2C132.622 154.213 132.563 154.203 132.513 154.168C132.417 154.101 132.391 153.966 132.456 153.867C132.478 153.833 132.996 153.048 133.636 152.775C134.488 152.41 135.092 152.938 135.117 152.961C135.205 153.04 135.215 153.177 135.138 153.268C135.062 153.359 134.929 153.369 134.841 153.29C134.825 153.276 134.402 152.919 133.797 153.177C133.273 153.4 132.811 154.103 132.806 154.11C132.775 154.158 132.728 154.189 132.676 154.2Z" fill="white"/>
<path d="M131.61 147.798C130.936 148.097 129.964 148.185 129.026 148.168C128.881 148.168 128.736 148.163 128.595 148.15C128.25 148.137 127.917 148.106 127.615 148.071L123.491 103.934L123.154 100.307L123.947 100.245L124.374 100.214L131.448 99.6813C131.448 99.6813 131.444 100.57 131.444 102.019C131.44 106.993 131.465 118.578 131.738 123.583C132.088 130.05 131.61 147.798 131.61 147.798Z" fill="#4E587C"/>
<path d="M131.448 99.682C131.448 99.682 131.444 100.571 131.444 102.019L123.49 103.934L123.154 100.307L123.947 100.245L124.373 100.214L131.448 99.682Z" fill="#4E587C"/>
<path d="M129.024 148.168C128.879 148.168 128.734 148.164 128.594 148.15L123.946 100.245L124.372 100.214L129.024 148.168Z" fill="#4E587C"/>
<path d="M132.163 99.8167C128.794 100.622 126.07 101.033 123.381 101.058C123.365 101.058 123.348 101.06 123.332 101.058C123.316 101.06 123.3 101.058 123.283 101.058C120.592 101.033 117.871 100.622 114.501 99.8167C114.029 93.5807 116.093 89.6329 115.864 82.6425C115.862 82.5822 115.859 82.5209 115.857 82.4606C115.847 82.1587 115.834 81.8594 115.82 81.5611C115.793 80.9943 115.761 80.4335 115.723 79.8819C115.703 79.579 115.681 79.2789 115.659 78.9824C115.194 72.9429 114.267 68.1577 114.77 67.5036C115.315 66.7925 116.703 65.9536 118.115 65.1747C119.453 64.4376 120.811 63.7541 121.491 63.2866C122.166 63.5902 122.704 63.7562 123.283 63.7534C123.299 63.7534 123.316 63.7534 123.333 63.7516C123.348 63.7534 123.366 63.7534 123.381 63.7534C123.96 63.7562 124.498 63.5902 125.174 63.2866C125.805 63.7201 126.995 64.3248 128.207 64.9846C129.682 65.7869 131.192 66.6701 131.775 67.4306C132.299 68.1137 131.359 73.3455 130.943 79.7673C130.924 80.0557 130.907 80.3459 130.89 80.6388C130.855 81.2716 130.825 81.914 130.803 82.5638C130.802 82.59 130.801 82.6159 130.8 82.6422C130.792 82.899 130.786 83.1515 130.784 83.4002C130.718 89.9259 132.617 93.8095 132.163 99.8167Z" fill="#F5F5F5"/>
<path d="M128.785 91.9335H128.785C125.388 91.9183 122.489 90.3228 120.656 88.987C118.672 87.5427 117.47 86.0792 117.458 86.0643C117.4 85.993 117.409 85.8866 117.478 85.8267C117.547 85.7667 117.651 85.776 117.709 85.8472C117.72 85.8618 118.9 87.2973 120.851 88.7168C122.645 90.022 125.478 91.5809 128.786 91.5958C128.876 91.5962 128.949 91.6721 128.949 91.7654C128.948 91.8583 128.875 91.9335 128.785 91.9335Z" fill="#D3D3D3"/>
<path d="M125.246 93.1246C122.298 93.1246 119.36 91.3912 119.226 91.3114C119.148 91.2646 119.121 91.1614 119.167 91.0808C119.212 91.0003 119.312 90.9727 119.39 91.0191C119.425 91.0397 122.883 93.0782 125.949 92.7508C126.04 92.7401 126.119 92.8086 126.128 92.9012C126.137 92.9937 126.072 93.0767 125.982 93.0863C125.738 93.1126 125.492 93.1246 125.246 93.1246Z" fill="#D3D3D3"/>
<path d="M122.636 71.8122C122.559 71.8122 122.491 71.7558 122.476 71.675C122.459 71.5834 122.518 71.4951 122.606 71.4777C126.747 70.6669 127.995 67.9173 128.007 67.8893C128.044 67.8045 128.141 67.7665 128.223 67.8052C128.305 67.8435 128.342 67.9432 128.304 68.0283C128.252 68.1478 126.973 70.9656 122.667 71.809C122.657 71.8115 122.646 71.8122 122.636 71.8122Z" fill="#D3D3D3"/>
<path d="M123.675 66.5441C121.296 66.797 120.425 63.8257 120.417 63.7948C120.399 63.7303 120.434 63.6629 120.497 63.6441C120.559 63.6253 120.625 63.6622 120.643 63.7267C120.677 63.8463 121.502 66.6498 123.788 66.2841C125.79 65.9652 125.678 63.648 125.673 63.5494C125.669 63.4823 125.717 63.4242 125.783 63.4206C125.848 63.4167 125.904 63.4674 125.908 63.5345C125.909 63.5607 126.04 66.1717 123.825 66.5246C123.774 66.5324 123.724 66.5391 123.675 66.5441Z" fill="white"/>
<path d="M118.828 56.632C118.828 56.632 116.871 53.1786 118.522 50.5124C120.172 47.8458 123.678 48.0972 124.586 48.3072C125.494 48.5168 130.722 51.0473 127.56 57.1832L118.828 56.632Z" fill="#3C3C48"/>
<path d="M119.156 55.6546C119.156 55.6546 118.364 54.5643 117.775 55.4659C117.186 56.3676 118.018 59.0303 119.46 58.3801L119.156 55.6546Z" fill="#FDE2D0"/>
<path d="M119.145 57.5575C119.092 57.5575 119.043 57.5209 119.028 57.4656C118.804 56.6434 117.979 56.3103 117.971 56.3068C117.908 56.282 117.877 56.2096 117.9 56.1447C117.924 56.0798 117.994 56.0471 118.057 56.0716C118.096 56.0865 119.005 56.4508 119.262 57.3975C119.281 57.4642 119.243 57.5337 119.178 57.5525C119.167 57.5557 119.156 57.5575 119.145 57.5575Z" fill="#121212"/>
<path d="M118.312 57.1434C118.29 57.1434 118.267 57.137 118.246 57.1232C118.19 57.0856 118.173 57.0079 118.21 56.9494C118.216 56.9398 118.362 56.71 118.667 56.5688C118.728 56.5401 118.801 56.5688 118.828 56.6319C118.856 56.6954 118.828 56.7699 118.767 56.7983C118.531 56.9075 118.416 57.0838 118.415 57.0856C118.392 57.1232 118.353 57.1434 118.312 57.1434Z" fill="#121212"/>
<path d="M127.319 55.6546C127.319 55.6546 128.111 54.5643 128.7 55.4659C129.289 56.3676 128.457 59.0303 127.015 58.3801L127.319 55.6546Z" fill="#FDE2D0"/>
<path d="M127.329 57.5574C127.383 57.5574 127.432 57.5209 127.447 57.4656C127.67 56.6434 128.495 56.3103 128.504 56.3068C128.566 56.2819 128.598 56.2096 128.574 56.1447C128.55 56.0798 128.48 56.0471 128.417 56.0716C128.379 56.0865 127.47 56.4508 127.212 57.3975C127.194 57.4642 127.231 57.5337 127.296 57.5525C127.307 57.5557 127.318 57.5574 127.329 57.5574Z" fill="#121212"/>
<path d="M128.162 57.1434C128.185 57.1434 128.208 57.137 128.228 57.1232C128.285 57.0856 128.301 57.0079 128.265 56.9494C128.258 56.9398 128.112 56.71 127.807 56.5688C127.746 56.5401 127.674 56.5688 127.646 56.6319C127.619 56.6954 127.646 56.7699 127.708 56.7983C127.944 56.9075 128.059 57.0838 128.06 57.0856C128.083 57.1232 128.122 57.1434 128.162 57.1434Z" fill="#121212"/>
<path d="M125.187 60.6392V63.287C125.187 63.287 124.422 64.6356 123.387 64.7274C122.354 64.8203 121.435 63.5661 121.435 63.5661V60.825L125.187 60.6392Z" fill="#FDE2D0"/>
<path d="M125.187 60.6392V61.8143C124.493 62.6095 123.26 62.8081 121.435 62.5301V60.8254L125.187 60.6392Z" fill="#FDE2D0"/>
<path d="M127.892 53.8383C127.844 54.8673 127.749 56.1541 127.559 57.1831C127.511 57.4399 127.458 57.6815 127.398 57.8978C126.859 59.849 125.508 63.1953 121.728 61.8013C120.058 61.1863 119.284 59.2666 118.939 57.314C118.705 55.9881 118.67 54.6484 118.687 53.6911C118.705 52.7136 119.222 51.8204 120.046 51.3388C122.278 50.0331 124.632 50.5198 126.182 51.1348C127.258 51.5615 127.947 52.6522 127.892 53.8383Z" fill="#FDE2D0"/>
<path d="M122.218 50.0687C122.218 50.0687 127.207 58.3279 127.895 55.2984C128.87 51.0055 125.89 48.3495 122.218 50.0687Z" fill="#3C3C48"/>
<path d="M122.011 50.0679C118.691 50.0931 117.04 53.9866 118.58 54.4477C120.722 55.0893 122.58 51.9591 123.152 50.873C122.767 50.6113 122.382 50.3499 122.011 50.0679Z" fill="#3C3C48"/>
<path d="M128.059 48.2159C128.059 50.0873 126.589 51.6047 124.776 51.6047C122.963 51.6047 121.493 50.0873 121.493 48.2159C121.493 46.3442 122.963 44.8271 124.776 44.8271C126.589 44.8271 128.059 46.3442 128.059 48.2159Z" fill="#3C3C48"/>
<path d="M119.267 54.0781C119.267 54.0781 119.526 55.1138 119.173 55.8104C118.82 56.507 119.014 57.7006 119.173 59.0424C119.173 59.0424 118.612 58.2248 118.58 56.9146C118.547 55.6043 118.755 54.514 118.58 53.9897L119.267 54.0781Z" fill="#3C3C48"/>
<path d="M127.106 54.0781C127.106 54.0781 126.847 55.1138 127.2 55.8104C127.553 56.507 127.359 57.7006 127.2 59.0424C127.2 59.0424 127.76 58.2248 127.793 56.9146C127.826 55.6043 127.618 54.514 127.793 53.9897L127.106 54.0781Z" fill="#3C3C48"/>
<path d="M121.573 55.8102C121.573 56.0929 121.431 56.322 121.257 56.322C121.083 56.322 120.942 56.0929 120.942 55.8102C120.942 55.5275 121.083 55.2983 121.257 55.2983C121.431 55.2983 121.573 55.5275 121.573 55.8102Z" fill="#3C3C48"/>
<path d="M125.465 55.8102C125.465 56.0929 125.324 56.322 125.15 56.322C124.975 56.322 124.835 56.0929 124.835 55.8102C124.835 55.5275 124.976 55.2983 125.15 55.2983C125.324 55.2983 125.465 55.5275 125.465 55.8102Z" fill="#3C3C48"/>
<path d="M120.633 54.2862C120.895 54.2099 121.423 54.0794 121.981 54.0776C122.128 54.0773 122.24 54.2121 122.214 54.361L122.214 54.3646C122.193 54.4838 122.09 54.5678 121.973 54.5625C121.593 54.5444 120.597 54.5994 120.127 54.7963C120.117 54.7118 120.165 54.6193 120.234 54.5373C120.338 54.4132 120.48 54.3309 120.633 54.2862Z" fill="#3C3C48"/>
<path d="M125.726 54.2969C125.465 54.2207 124.936 54.0902 124.378 54.0884C124.231 54.088 124.119 54.2228 124.145 54.3718L124.145 54.3757C124.166 54.4945 124.269 54.5789 124.386 54.5733C124.766 54.5548 125.762 54.6101 126.233 54.807C126.242 54.7226 126.194 54.63 126.126 54.5481C126.022 54.4236 125.879 54.3416 125.726 54.2969Z" fill="#3C3C48"/>
<path d="M123.28 58.1456C123.186 58.1456 123.093 58.1286 123.015 58.0803C122.944 58.0363 122.855 57.9473 122.837 57.7732C122.791 57.311 122.906 55.8617 122.911 55.8C122.916 55.7308 122.975 55.679 123.042 55.685C123.109 55.6907 123.159 55.7514 123.153 55.8209C123.152 55.8358 123.036 57.3082 123.08 57.7476C123.088 57.8239 123.118 57.8512 123.14 57.8647C123.254 57.9356 123.518 57.8629 123.629 57.8171C123.691 57.7909 123.762 57.8218 123.787 57.8863C123.813 57.9505 123.783 58.0239 123.721 58.0502C123.689 58.0629 123.485 58.1456 123.28 58.1456Z" fill="#FDE2D0"/>
<path d="M121.732 58.9399C121.824 59.4184 122.13 60.2988 123.162 60.2988C124.196 60.2988 124.486 59.4943 124.585 58.9399H121.732Z" fill="white"/>
<path d="M123.147 61.0327C122.849 61.0327 122.587 60.867 122.575 60.8603C122.518 60.8237 122.5 60.7461 122.536 60.6872C122.571 60.628 122.646 60.6099 122.703 60.646C122.705 60.6475 122.92 60.7812 123.147 60.7812C123.393 60.7812 123.613 60.6468 123.615 60.6457C123.673 60.6099 123.748 60.629 123.782 60.6886C123.817 60.7482 123.799 60.8252 123.741 60.861C123.73 60.8677 123.462 61.0327 123.147 61.0327Z" fill="#FDE2D0"/>
<path d="M160 80.6701L156.795 88.505C155.739 87.9048 154.539 87.5356 153.253 87.4632C150.751 87.3224 148.447 88.3411 146.834 90.065C145.486 91.4944 144.618 93.4144 144.505 95.5607C144.332 98.837 145.966 101.788 148.513 103.378C149.086 103.734 149.706 104.023 150.365 104.229L147.455 111.345L139.07 107.69C140.729 103.625 138.886 98.9434 134.948 97.2281C131.014 95.5128 126.475 97.4179 124.813 101.479L117.739 98.3951L120.755 91.0244C120.601 90.968 120.451 90.9081 120.301 90.8442C116.363 89.1289 114.521 84.4437 116.179 80.382C117.841 76.3207 122.38 74.4192 126.315 76.131C126.464 76.1984 126.614 76.2693 126.756 76.3434L130.284 67.7246L130.295 67.7289L160 80.6701Z" fill="#DEE5FF"/>
<path d="M119.545 97.2998L119.962 97.7109C120.335 98.0784 120.827 98.1309 121.312 97.9521C121.527 97.873 121.885 97.6942 122.042 97.6669C122.485 97.591 123.433 97.6648 123.645 97.8475C123.857 98.0301 123.467 98.3763 123.17 98.4054C122.875 98.4341 122.455 98.4288 122.117 98.5484C121.778 98.6679 122.427 100.227 122.768 100.776C123.109 101.326 124.116 101.848 123.84 102.303C123.564 102.758 122.927 102.237 122.927 102.237C122.927 102.237 122.782 102.748 122.034 102.554C122.034 102.554 121.811 102.974 121.331 102.844C121.331 102.844 120.974 103.304 120.506 103.056C120.039 102.809 118.587 102.028 117.649 98.4324L119.545 97.2998Z" fill="#FDE2D0"/>
<path d="M114.769 67.5039C114.769 67.5039 110.9 80.244 110.404 84.7355C109.908 89.2267 117.42 98.8227 117.42 98.8227L119.745 97.4962C119.745 97.4962 115.245 88.5798 114.43 85.0455L116.353 76.6814C116.353 76.6814 116.34 71.0779 114.769 67.5039Z" fill="#D3D3D3"/>
<path d="M147.753 74.6419C147.753 74.6419 147.368 75.9812 147.642 76.5725C147.915 77.1641 148.711 75.4424 148.711 75.4424C148.711 75.4424 147.765 77.5287 148.204 77.8568C148.644 78.1853 149.619 76.1855 149.619 76.1855C149.619 76.1855 149.186 77.6997 149.499 77.986C149.812 78.2722 150.582 76.841 150.582 76.841C150.582 76.841 150.357 78.0768 150.571 78.3211C150.784 78.5652 151.573 77.4383 151.761 76.7399C151.95 76.0411 151.008 75.9801 151.008 75.9801C151.008 75.9801 150.424 75.3633 150.046 75.4697C150.046 75.4697 149.575 74.8227 149.125 74.799C149.125 74.799 148.271 73.8959 147.753 74.6419Z" fill="#FDE2D0"/>
<path d="M90.4885 118.122C90.4885 119.347 90.5091 120.351 90.4885 121.872C89.5793 120.952 87.912 119.553 87.912 119.553L89.1453 118.307C89.1453 118.307 89.8988 117.876 90.4885 118.122Z" fill="#FDE2D0"/>
<path d="M79.7094 92.2404C79.2056 95.5845 80.0406 105.169 81.0918 106.987C82.4604 109.353 87.5375 114.945 90.1902 117.827C90.6689 118.347 87.7426 119.997 87.7426 119.997C87.7426 119.997 79.8946 113.93 77.4418 110.101C76.748 109.017 75.5828 105.885 74.798 100.318C74.5599 98.6303 73.8228 95.1549 74.4217 93.1892C75.1107 90.9266 77.8576 90.5272 79.7094 92.2404Z" fill="#D3D3D3"/>
<path d="M77.1352 147.096L77.0679 150.652C77.0679 150.652 77.9283 151.29 79.6835 150.94L80.3474 147.106L77.1352 147.096Z" fill="#FDE2D0"/>
<path d="M79.3032 150.482C79.3032 150.482 79.8905 149.616 80.377 149.637C80.8636 149.659 84.696 152.62 85.986 152.834C87.2763 153.05 87.2365 154.703 86.7337 154.898C86.1609 155.122 76.6432 155.083 76.6432 155.083C76.6432 155.083 76.2312 151.594 76.5316 150.645C76.8312 149.695 78.306 150.735 79.3032 150.482Z" fill="#37474F"/>
<path d="M81.4339 152.564C81.3889 152.58 81.338 152.577 81.293 152.552C81.2054 152.504 81.1721 152.392 81.2188 152.301C81.2343 152.271 81.6064 151.557 82.126 151.267C82.8174 150.88 83.3761 151.273 83.3994 151.29C83.4809 151.348 83.5008 151.464 83.4438 151.548C83.3871 151.632 83.2747 151.653 83.1933 151.594C83.1782 151.583 82.7892 151.318 82.2968 151.593C81.8734 151.83 81.5394 152.469 81.536 152.476C81.5133 152.519 81.4762 152.55 81.4339 152.564Z" fill="white"/>
<path d="M80.8835 152.058C80.8385 152.073 80.7877 152.07 80.7427 152.046C80.655 151.997 80.6217 151.885 80.6684 151.795C80.6839 151.764 81.056 151.05 81.5756 150.76C82.2677 150.372 82.8257 150.765 82.8491 150.782C82.9305 150.841 82.9504 150.957 82.8934 151.04C82.8367 151.125 82.7243 151.145 82.6429 151.086C82.6278 151.076 82.2384 150.811 81.7464 151.085C81.3213 151.323 80.989 151.962 80.9856 151.968C80.9633 152.013 80.9258 152.044 80.8835 152.058Z" fill="white"/>
<path d="M82.1721 152.966C82.1271 152.981 82.0762 152.979 82.0312 152.954C81.9436 152.906 81.9103 152.793 81.957 152.703C81.9725 152.673 82.3446 151.958 82.8642 151.668C83.5559 151.28 84.1143 151.674 84.1376 151.69C84.2191 151.749 84.239 151.865 84.182 151.949C84.1253 152.033 84.0129 152.053 83.9315 151.994C83.9163 151.984 83.527 151.719 83.0349 151.994C82.6095 152.231 82.2776 152.87 82.2742 152.876C82.2518 152.921 82.2144 152.952 82.1721 152.966Z" fill="white"/>
<path d="M80.692 147.998C79.8477 148.285 78.7949 148.175 77.9289 147.871C77.7829 147.821 77.6434 147.765 77.5101 147.704C77.1359 147.532 76.817 147.326 76.5967 147.105C76.5967 147.105 76.463 144.637 77.0675 134.396C77.1455 133.075 77.0036 129.257 78.2832 123.926C72.1193 125.465 66.1774 125.013 61.5663 123.046L67.6982 116.943C67.6982 116.943 83.1977 115.14 85.6185 120.026C87.249 123.316 80.692 147.998 80.692 147.998Z" fill="#4E587C"/>
<path d="M46.6493 143.569L43.5591 145.142C43.5591 145.142 43.4059 146.224 44.5144 147.672L48.1176 146.518L46.6493 143.569Z" fill="#FDE2D0"/>
<path d="M44.7336 147.113C44.7336 147.113 45.7487 147.253 45.9538 147.709C46.1589 148.165 45.3738 153.039 45.782 154.321C46.1902 155.602 44.7497 156.326 44.3501 155.955C43.8948 155.532 39.5521 146.79 39.5521 146.79C39.5521 146.79 42.3643 144.808 43.3192 144.647C44.2738 144.485 44.0577 146.315 44.7336 147.113Z" fill="#37474F"/>
<path d="M43.9216 150.024C43.8876 149.99 43.8666 149.942 43.8673 149.889C43.8684 149.787 43.9498 149.705 44.0491 149.706C44.0821 149.706 44.868 149.718 45.3566 150.061C46.0074 150.517 45.9263 151.21 45.9225 151.239C45.9095 151.341 45.8191 151.413 45.7205 151.399C45.6222 151.386 45.5528 151.292 45.5659 151.19C45.5679 151.172 45.6171 150.694 45.1542 150.368C44.7559 150.089 44.0522 150.077 44.045 150.077C43.9969 150.076 43.9536 150.056 43.9216 150.024Z" fill="white"/>
<path d="M44.104 149.286C44.07 149.252 44.0493 149.204 44.0497 149.152C44.0507 149.049 44.1322 148.967 44.2315 148.968C44.2648 148.968 45.0503 148.981 45.539 149.324C46.1901 149.78 46.1087 150.472 46.1049 150.502C46.0918 150.603 46.0015 150.675 45.9028 150.661C45.8046 150.648 45.7352 150.554 45.7482 150.453C45.7503 150.434 45.7991 149.955 45.3366 149.63C44.9366 149.35 44.2346 149.339 44.2273 149.339C44.1796 149.339 44.1359 149.319 44.104 149.286Z" fill="white"/>
<path d="M43.9152 150.885C43.8812 150.851 43.8602 150.803 43.8609 150.75C43.8619 150.648 43.9434 150.566 44.0427 150.567C44.076 150.567 44.8615 150.579 45.3502 150.922C46.0013 151.379 45.9199 152.071 45.9161 152.1C45.9031 152.202 45.8127 152.273 45.7144 152.26C45.6161 152.246 45.5467 152.153 45.5598 152.052C45.5619 152.033 45.6106 151.554 45.1481 151.23C44.7482 150.949 44.0458 150.938 44.0389 150.938C43.9908 150.937 43.9472 150.917 43.9152 150.885Z" fill="white"/>
<path d="M72.0645 138.093C69.9829 141.1 47.5099 147.244 47.5099 147.244C46.8962 146.622 46.512 145.653 46.3636 144.746C46.3378 144.598 46.3199 144.452 46.3086 144.31C46.2701 143.841 46.2983 143.41 46.3959 143.078C46.3959 143.078 47.5793 141.592 56.5575 137.942C57.7502 137.457 60.2429 135.342 64.133 133.89C60.7755 127.778 58.0382 121.838 57.8719 116.618L59.6202 117.111L60.0199 117.224L67.6236 119.368C70.8 125.567 73.7504 135.658 72.0645 138.093Z" fill="#4E587C"/>
<path d="M65.6738 134.135C65.5982 134.389 65.4305 134.594 65.2023 134.713C63.6522 135.523 59.8583 137.549 58.1072 138.833C57.144 139.54 55.0098 140.507 52.7515 141.53C50.3073 142.639 47.7865 143.78 46.3635 144.746C46.3377 144.598 46.3199 144.452 46.3085 144.31C47.7854 143.347 50.2269 142.242 52.5979 141.167C54.8369 140.153 56.953 139.194 57.8845 138.511C59.6562 137.211 63.4708 135.175 65.0295 134.359C65.1628 134.289 65.2614 134.168 65.3061 134.019C65.3508 133.87 65.3343 133.711 65.2611 133.574C61.185 125.981 59.9772 120.007 59.6198 117.112L60.0195 117.224C60.3961 120.132 61.6194 125.973 65.5968 133.382C65.7212 133.614 65.7494 133.881 65.6738 134.135Z" fill="#4E587C"/>
<path d="M71.1929 84.0512C71.1929 84.0512 67.3086 83.9842 64.8771 85.0106C62.4453 86.0371 62.2027 89.9122 61.199 92.7619C60.1953 95.6115 55.2052 114.143 58.4837 117.65C60.9598 120.3 74.2536 120.774 74.7512 116.19C75.0821 113.141 75.8078 109.16 77.35 101.836C78.3675 97.0055 79.7389 93.6578 79.8825 91.5531C80.0258 89.4483 74.9202 85.1575 74.9202 85.1575L71.1929 84.0512Z" fill="#F5F5F5"/>
<path d="M72.6519 88.4078C70.8313 87.7594 69.8197 85.1637 69.7764 85.0498C69.7489 84.9778 69.7833 84.8963 69.8527 84.8679C69.9225 84.8392 70.0011 84.8746 70.029 84.9466C70.0396 84.9739 71.099 87.6924 72.8993 88.1928C72.9714 88.2127 73.0144 88.29 72.9951 88.3649C72.9756 88.4397 72.9013 88.484 72.8288 88.4638C72.769 88.4472 72.7099 88.4284 72.6519 88.4078Z" fill="#D3D3D3"/>
<path d="M63.563 110.308C63.4987 110.285 63.4599 110.215 63.4747 110.145C63.4908 110.07 63.5633 110.022 63.6365 110.038C68.526 111.155 73.2831 103.447 73.3305 103.369C73.3704 103.303 73.4542 103.284 73.5178 103.325C73.5813 103.366 73.6006 103.452 73.5604 103.518C73.3625 103.843 68.6517 111.471 63.5774 110.312C63.573 110.311 63.5678 110.31 63.563 110.308Z" fill="#D3D3D3"/>
<path d="M66.2855 108.432C66.2426 108.417 66.2079 108.38 66.1972 108.33C66.1807 108.255 66.2271 108.179 66.3003 108.163C69.3335 107.462 70.4901 105.249 70.5014 105.226C70.5361 105.157 70.6179 105.13 70.6846 105.167C70.7509 105.202 70.777 105.287 70.742 105.356C70.6935 105.451 69.5218 107.706 66.3594 108.436C66.334 108.443 66.3085 108.441 66.2855 108.432Z" fill="#D3D3D3"/>
<path d="M79.8157 77.0107C79.1453 80.0395 76.2232 81.9336 73.289 81.2415C70.3548 80.5495 68.5198 77.5332 69.1902 74.5044C69.8606 71.4756 72.7828 69.5812 75.717 70.2735C78.6509 70.9656 80.4861 73.9819 79.8157 77.0107Z" fill="#3C3C48"/>
<path d="M69.7774 72.9532C69.7774 72.9532 69.5228 70.9846 71.0313 70.1876C72.5394 69.391 73.4504 69.9485 74.751 69.2714C76.0516 68.5943 81.3389 68.7316 81.4547 71.3099C81.5705 73.8882 79.2913 73.9737 79.2913 73.9737L69.7774 72.9532Z" fill="#3C3C48"/>
<path d="M78.5833 78.3347C78.5833 78.3347 79.6812 77.3749 80.0949 78.4805C80.5086 79.5857 78.9977 82.2059 77.6187 81.1542L78.5833 78.3347Z" fill="#FDE2D0"/>
<path d="M78.1465 80.3587C78.2029 80.3722 78.2637 80.3456 78.2926 80.2906C78.7235 79.4734 79.6784 79.3258 79.6877 79.3247C79.7602 79.3141 79.811 79.2449 79.8007 79.1701C79.7908 79.0953 79.7238 79.0428 79.6513 79.053C79.6066 79.0594 78.5551 79.2187 78.0589 80.1597C78.0239 80.2264 78.0479 80.3094 78.1122 80.3456C78.1235 80.3516 78.1348 80.3559 78.1465 80.3587Z" fill="#121212"/>
<path d="M79.1286 80.1275C79.1527 80.1332 79.1785 80.1321 79.2032 80.1225C79.2723 80.0967 79.308 80.0183 79.2829 79.947C79.2788 79.9353 79.1778 79.6543 78.8864 79.428C78.828 79.3823 78.7445 79.3947 78.7005 79.455C78.6565 79.5157 78.6682 79.6015 78.7266 79.6469C78.9517 79.8221 79.0324 80.0381 79.0331 80.0403C79.0492 80.086 79.0864 80.1176 79.1286 80.1275Z" fill="#121212"/>
<path d="M71.3074 82.1899L70.6848 85.0031C70.6848 85.0031 71.5308 86.507 72.6084 86.8638C73.6846 87.2217 74.6505 86.0327 74.6505 86.0327L75.2495 83.3278L71.3074 82.1899Z" fill="#FDE2D0"/>
<path d="M71.3075 82.1899L71.0312 83.4381C71.5817 84.4568 72.8449 84.9768 74.8486 85.1386L75.2492 83.3278L71.3075 82.1899Z" fill="#FDE2D0"/>
<path d="M79.8471 76.4377C79.6818 77.2468 79.4268 78.3059 79.0464 79.3824C78.9492 79.6626 78.8413 79.9443 78.7262 80.2234C77.9011 82.2108 76.628 84.0567 74.7092 84.2918C70.7726 84.7746 69.871 81.6224 69.6521 79.3839C69.6291 79.1526 69.6136 78.9302 69.6033 78.7241C69.5906 78.4794 69.5906 78.2098 69.5995 77.9243C69.6404 76.7846 69.8414 75.3935 70.0339 74.2882C70.2541 73.0135 71.2417 72.0274 72.4856 71.8447C74.2762 71.5791 76.8933 71.6518 78.9557 73.598C79.7179 74.3156 80.0574 75.3946 79.8471 76.4377Z" fill="#FDE2D0"/>
<path d="M76.4832 78.2258C76.4169 78.5262 76.5127 78.805 76.6976 78.8487C76.8825 78.8923 77.0866 78.6841 77.1529 78.384C77.2196 78.0836 77.1234 77.8048 76.9385 77.7612C76.7536 77.7175 76.5495 77.9254 76.4832 78.2258Z" fill="#3C3C48"/>
<path d="M72.5617 77.301C72.4954 77.6014 72.5913 77.8802 72.7761 77.9239C72.961 77.9675 73.1648 77.7593 73.2314 77.4592C73.2978 77.1588 73.2019 76.88 73.017 76.8363C72.8318 76.7927 72.628 77.0009 72.5617 77.301Z" fill="#3C3C48"/>
<path d="M78.2768 76.892C78.2768 76.892 77.0085 75.9946 75.8295 76.2199L75.8051 76.7555C75.8051 76.7555 77.0271 76.7618 78.0682 77.4684C78.1916 77.2481 78.3136 77.1573 78.2768 76.892Z" fill="#3C3C48"/>
<path d="M71.8977 75.3877C71.8977 75.3877 73.4176 75.1479 74.3849 75.8796L74.1815 76.373C74.1815 76.373 73.0784 75.8311 71.8431 76.0006C71.8249 75.7463 71.7531 75.6101 71.8977 75.3877Z" fill="#3C3C48"/>
<path d="M74.2814 79.7283C74.0629 79.6768 73.8656 79.5378 73.8354 79.5158C73.7756 79.4722 73.7612 79.3871 73.8031 79.325C73.845 79.2629 73.9282 79.248 73.988 79.2917C74.0942 79.3683 74.3577 79.5112 74.4962 79.4647C74.523 79.4559 74.5611 79.4346 74.5876 79.3551C74.7378 78.8994 74.9601 77.306 74.9625 77.2901C74.9728 77.2152 75.0401 77.1631 75.113 77.1737C75.1858 77.1844 75.236 77.2539 75.2257 77.3287C75.2164 77.3954 74.9975 78.9636 74.8395 79.4431C74.78 79.6236 74.6649 79.696 74.579 79.7251C74.4838 79.757 74.3804 79.7517 74.2814 79.7283Z" fill="#FDE2D0"/>
<path d="M75.2942 81.2391C75.0967 81.6779 74.6012 82.4515 73.6071 82.2011C72.6109 81.9503 72.515 81.1047 72.5449 80.5464L75.2942 81.2391Z" fill="white"/>
<path d="M78.5191 79.2576C78.739 78.7295 78.9929 78.041 79.0036 77.6597C79.0204 76.9847 78.5868 76.4832 78.8971 75.9018C79.208 75.318 78.7187 74.499 78.2734 74.2773C77.8298 74.0545 76.68 74.0372 75.7182 73.2536C74.8004 72.5052 72.9297 72.4446 72.4868 73.0582C71.9507 73.8009 72.4139 73.9925 71.2528 74.6586C70.7903 74.9243 71.0408 75.9564 70.9728 76.5733C70.9408 76.857 70.915 76.9929 70.8388 77.2876L70.8013 77.4377L69.6481 77.1656C69.7275 76.203 69.8825 75.1573 70.0333 74.2872C70.2539 73.0132 71.2429 72.0282 72.4857 71.8444C74.2774 71.5795 76.8927 71.6515 78.9572 73.5984C79.7183 74.317 80.0582 75.3946 79.8468 76.4374C79.6829 77.2472 79.4269 78.3053 79.0479 79.3825L78.5191 79.2576Z" fill="#3C3C48"/>
<path d="M70.0449 77.8004C70.1175 77.49 70.1652 77.1733 70.1803 76.8544C70.2013 76.4181 70.1676 76.0099 69.7903 75.7371C69.4869 75.5176 69.1306 75.4307 68.7904 75.7598C67.9526 76.57 67.9897 79.7147 69.6749 79.3855L70.0449 77.8004Z" fill="#FDE2D0"/>
<path d="M69.571 78.448C69.518 78.4235 69.4851 78.365 69.494 78.3026C69.627 77.3821 68.9507 76.6709 68.9438 76.6642C68.8923 76.6106 68.892 76.5237 68.9438 76.4705C68.9954 76.417 69.0796 76.4166 69.1315 76.4702C69.1634 76.5028 69.9101 77.2835 69.7569 78.3433C69.7459 78.4182 69.6785 78.47 69.606 78.4586C69.5936 78.4565 69.582 78.4529 69.571 78.448Z" fill="#FDE2D0"/>
<path d="M68.9219 77.653C68.8992 77.6424 68.8793 77.6257 68.8652 77.6027C68.825 77.5392 68.8425 77.4544 68.904 77.4129C68.9143 77.4062 69.1586 77.2448 69.5232 77.2451C69.5961 77.2448 69.6559 77.3065 69.6559 77.3824C69.6559 77.4583 69.5964 77.5193 69.5229 77.5193C69.2408 77.519 69.0504 77.6417 69.0487 77.6427C69.0095 77.669 68.9617 77.6711 68.9219 77.653Z" fill="#FDE2D0"/>
<path d="M75.3876 78.1867C75.5797 77.3035 76.4322 76.7466 77.2875 76.9449C78.1431 77.1431 78.683 78.0231 78.4905 78.906C78.2984 79.7892 77.4459 80.3461 76.5906 80.1478C75.735 79.9499 75.1955 79.0699 75.3876 78.1867ZM75.6295 78.2427C75.4673 78.9883 75.923 79.731 76.6449 79.8984C77.3672 80.0659 78.0864 79.5955 78.2486 78.8499C78.4108 78.1044 77.9552 77.362 77.2332 77.1946C76.5109 77.0272 75.7917 77.4975 75.6295 78.2427Z" fill="white"/>
<path d="M71.1466 77.2038C71.3387 76.3206 72.1912 75.7637 73.0465 75.9619C73.9021 76.1602 74.4416 77.0402 74.2495 77.9231C74.0575 78.8063 73.2049 79.3632 72.3496 79.1649C71.4944 78.9666 70.9545 78.0866 71.1466 77.2038ZM71.3885 77.2598C71.2263 78.0054 71.682 78.7478 72.4039 78.9152C73.1259 79.0826 73.8454 78.6123 74.0076 77.8667C74.1698 77.1215 73.7142 76.3787 72.9922 76.2113C72.2703 76.0439 71.5507 76.5142 71.3885 77.2598Z" fill="white"/>
<path d="M78.3407 78.3296C78.3713 78.3367 78.4049 78.3317 78.4338 78.3129C78.4424 78.3073 79.3008 77.7649 80.177 78.2019C80.2385 78.2328 80.3127 78.2062 80.3426 78.1423C80.3725 78.0788 80.3468 78.0022 80.2849 77.9714C79.2829 77.4716 78.3417 78.0703 78.3019 78.0962C78.2441 78.1338 78.2266 78.2129 78.263 78.2725C78.2812 78.303 78.3098 78.3225 78.3407 78.3296Z" fill="white"/>
<path d="M71.4927 76.7419C71.5323 76.7511 71.5752 76.7401 71.6065 76.7089C71.6556 76.6596 71.6566 76.5787 71.6089 76.528C71.5694 76.4861 70.6306 75.5004 69.6619 75.4426C69.5935 75.4384 69.5348 75.4926 69.531 75.5629C69.5272 75.6334 69.5788 75.6937 69.6475 75.698C70.5196 75.7498 71.4219 76.6965 71.4309 76.7061C71.4484 76.7249 71.4701 76.7366 71.4927 76.7419Z" fill="white"/>
<path d="M74.2427 77.5436C74.2461 77.5404 74.6207 77.2059 74.9987 77.2935C75.3725 77.38 75.5454 77.8408 75.5471 77.8454L75.7794 77.7557C75.7705 77.7316 75.5595 77.1612 75.0533 77.0434C74.5506 76.9267 74.0977 77.3343 74.0785 77.3517L74.2427 77.5436Z" fill="white"/>
<path d="M109.862 109.748C111.751 105.833 110.205 101.079 106.415 99.1302C102.622 97.1804 98.016 98.7755 96.1285 102.688L91.1391 100.127L87.2104 108.461C87.074 108.38 86.9318 108.304 86.7854 108.23C82.9743 106.317 78.3824 107.953 76.5293 111.887C74.6761 115.821 76.2633 120.558 80.0741 122.471C80.2208 122.545 80.3675 122.612 80.5156 122.676L77.2883 129.524C77.2876 129.524 77.2873 129.523 77.2866 129.523L77.1443 129.822L103.688 143.464L117.945 113.901L109.862 109.748Z" fill="#182452"/>
<path d="M96.2016 108.289C96.1508 108.034 95.3127 107.706 94.5031 107.446C94.5107 107.417 94.5182 107.386 94.5251 107.356C95.6549 107.585 97.6053 107.909 97.4369 107.362C97.3266 107.004 95.6669 106.674 94.6618 106.505C94.668 106.449 94.6735 106.394 94.6787 106.338C95.879 106.521 98.2197 106.805 97.9971 106.196C97.8486 105.79 95.7951 105.522 94.7371 105.41C94.7392 105.36 94.7405 105.312 94.7419 105.264C95.7662 105.377 97.7345 105.519 97.5129 104.913C97.3122 104.365 94.267 104.315 94.267 104.315L93.1324 104.152C93.1324 104.152 93.1331 103.743 93.9485 103.468C94.7639 103.195 95.1381 102.598 94.0976 102.663C92.9217 102.736 91.9166 103.173 91.0964 103.197C90.2762 103.221 89.4298 104.067 89.4298 104.067L89.0955 106.351C89.0955 106.351 92.0723 108.203 94.02 108.154C95.0405 108.453 96.2899 108.734 96.2016 108.289Z" fill="#FDE2D0"/>
<path d="M64.1004 85.4893C66.382 88.2619 74.6901 97.9502 76.4966 98.9522C78.848 100.256 86.2094 102.238 89.9195 103.304C90.5889 103.496 89.5079 106.989 89.5079 106.989C89.5079 106.989 78.9249 105.545 74.9145 103.559C73.7802 102.998 69.3272 99.9674 66.0628 96.3022C64.9443 95.0466 63.3519 92.8886 62.6406 90.9633C61.785 88.6475 62.5633 86.5399 64.1004 85.4893Z" fill="#D3D3D3"/>
<path d="M143.651 156.124H139.946C139.442 156.124 138.996 155.534 138.84 154.664L137.269 145.88C137.205 145.521 137.342 145.147 137.55 145.118C140.411 144.715 143.243 144.715 146.048 145.117C146.255 145.147 146.393 145.52 146.329 145.879L144.757 154.664C144.601 155.535 144.155 156.124 143.651 156.124Z" fill="#3C3C48"/>
<path d="M145.999 145.756C145.999 145.99 144.13 146.179 141.824 146.179C139.518 146.179 137.648 145.99 137.648 145.756C137.648 145.522 139.518 145.333 141.824 145.333C144.13 145.333 145.999 145.523 145.999 145.756Z" fill="#121212"/>
<path d="M148.84 133.885C146.614 133.28 143.214 138.048 142.181 142.696V135.923C142.701 134.973 143.69 133.543 145.487 132.033C148.281 129.684 150.854 126.669 148.624 126.062C146.535 125.494 143.41 129.662 142.181 134.021V125.323C142.541 124.746 143.131 123.989 144.074 123.196C145.835 121.716 147.456 119.816 146.051 119.434C144.832 119.102 143.052 121.33 142.181 123.843V121.024C142.325 120.152 142.529 118.906 143.088 117.633C144.383 114.683 145.083 111.643 143.375 111.869C141.666 112.095 140.557 117.35 141.492 121.384V122.835C140.861 119.883 138.694 116.825 137.28 117.21C135.875 117.592 137.496 119.492 139.258 120.972C140.598 122.099 141.225 123.154 141.492 123.721V130.574C140.479 125.901 137.055 121.079 134.818 121.687C132.588 122.293 135.16 125.308 137.955 127.658C140.066 129.433 141.064 131.096 141.492 132.001V140.218C140.409 135.631 137.072 131.002 134.878 131.599C132.648 132.205 134.56 134.409 137.701 137.073C139.835 138.884 140.978 140.796 141.491 141.835V145.705C141.741 145.777 141.974 145.777 142.18 145.705V144.165C142.617 143.253 143.616 141.609 145.701 139.855C148.497 137.506 151.069 134.491 148.84 133.885Z" fill="#95C6AF"/>
</svg>
