<svg width="160" height="160" viewBox="0 0 160 160" fill="none" xmlns="http://www.w3.org/2000/svg">
<path d="M111.969 49.4595L110.927 48.8792L110.4 49.8862C110.127 49.7993 109.839 49.7595 109.546 49.7677L109.237 48.6997L108.103 49.0491L108.399 50.0713C108.075 50.2437 107.796 50.4782 107.571 50.7577L106.596 50.2136L106.033 51.2883L107.039 51.8491C106.981 52.0881 106.953 52.3357 106.96 52.5876L105.925 52.9061L106.264 54.0766L107.254 53.7715C107.421 54.1053 107.649 54.394 107.919 54.6257L107.459 55.5057L108.5 56.0863L108.977 55.1751C109.272 55.2513 109.581 55.2772 109.894 55.2435L110.19 56.2661L111.324 55.9168L111.015 54.8484C111.305 54.6636 111.553 54.4256 111.752 54.15L112.733 54.6973L113.296 53.6226L112.232 53.0292C112.281 52.7688 112.293 52.4996 112.266 52.2275L113.256 51.9225L112.918 50.752L111.883 51.0709C111.755 50.8566 111.601 50.6647 111.426 50.4973L111.969 49.4595ZM110.659 52.191C110.83 52.7826 110.503 53.4073 109.93 53.5839C109.356 53.7606 108.751 53.4229 108.58 52.8312C108.409 52.2396 108.736 51.615 109.309 51.4383C109.882 51.2621 110.488 51.5994 110.659 52.191Z" fill="#E3E5E8"/>
<path d="M15.2451 62.6634C15.4399 62.5208 15.6169 62.3512 15.7705 62.1554L16.7567 62.6091L17.2381 61.4932L16.2938 61.059C16.355 60.793 16.3763 60.5242 16.3601 60.2596L17.4893 59.8123L17.0656 58.6719L16.0241 59.0844C15.8619 58.7847 15.6454 58.5159 15.3805 58.2942L15.8196 57.2758L14.7386 56.7789L14.318 57.7536C14.0118 57.6788 13.7019 57.6632 13.3995 57.6997L13.0401 56.7328L11.9353 57.1705L12.2827 58.1044C11.9855 58.2981 11.724 58.5542 11.5168 58.8631L10.5725 58.429L10.0911 59.5448L11.0776 59.9981C11.0395 60.2471 11.0357 60.4961 11.0635 60.7409L9.99658 61.1633L10.4203 62.3037L11.4556 61.8937C11.6432 62.2005 11.8913 62.4704 12.1906 62.6843L11.77 63.659L12.8511 64.1559L13.2902 63.1376C13.5795 63.1844 13.8702 63.1833 14.152 63.1333L14.5492 64.2017L15.654 63.7643L15.2451 62.6634ZM13.2638 61.4485C12.7174 61.1974 12.471 60.5344 12.7143 59.9705C12.9576 59.4065 13.5998 59.1522 14.1462 59.4033C14.6925 59.6544 14.9389 60.3174 14.6956 60.8813C14.4527 61.4453 13.8101 61.6996 13.2638 61.4485Z" fill="#E3E5E8"/>
<path d="M105.141 77.3907V83.8072C105.141 84.6553 104.474 85.3434 103.652 85.3434H92.3658L88.9585 86.6054C88.6087 86.7352 88.2736 86.3802 88.4076 86.023L89.6966 82.587V77.3907C89.6966 76.5423 90.3632 75.8545 91.1855 75.8545H103.652C104.474 75.8545 105.141 76.5426 105.141 77.3907Z" fill="#FFAC72"/>
<path d="M95.3358 80.7817C95.3358 81.3953 94.8537 81.893 94.2592 81.893C93.6647 81.893 93.1826 81.3953 93.1826 80.7817C93.1826 80.1681 93.6647 79.6704 94.2592 79.6704C94.8537 79.6704 95.3358 80.1677 95.3358 80.7817Z" fill="white"/>
<path d="M98.7444 80.7817C98.7444 81.3953 98.2623 81.893 97.6679 81.893C97.0734 81.893 96.5913 81.3953 96.5913 80.7817C96.5913 80.1681 97.0734 79.6704 97.6679 79.6704C98.2623 79.6701 98.7444 80.1677 98.7444 80.7817Z" fill="white"/>
<path d="M102.152 80.7817C102.152 81.3953 101.67 81.893 101.076 81.893C100.481 81.893 99.999 81.3953 99.999 80.7817C99.999 80.1681 100.481 79.6704 101.076 79.6704C101.67 79.6704 102.152 80.1677 102.152 80.7817Z" fill="white"/>
<path d="M121.561 34.2028C121.561 34.2028 123.016 31.0651 126.407 30.8899C129.798 30.7147 131.116 33.8396 131.116 33.8396C131.116 33.8396 132.969 33.32 134.552 34.7349C135.869 35.9125 135.884 37.4838 135.884 37.4838C135.884 37.4838 139.986 37.3923 141.768 38.2226C143.543 39.0501 144.689 40.9421 144.689 40.9421H108.692C108.692 40.9421 110.441 38.7476 114.565 39.0171C114.565 39.0171 116.416 33.4342 121.561 34.2028Z" fill="#E3E5E8"/>
<path d="M30.5728 24.1437C30.5728 24.1437 32.028 21.0061 35.4189 20.8308C38.8101 20.6556 40.1272 23.7805 40.1272 23.7805C40.1272 23.7805 41.9811 23.2609 43.5635 24.6758C44.8806 25.8534 44.8954 27.4247 44.8954 27.4247C44.8954 27.4247 48.9979 27.3332 50.7796 28.1635C52.5551 28.991 53.7004 30.883 53.7004 30.883H17.7041C17.7041 30.883 19.4528 28.6885 23.5763 28.958C23.5763 28.958 25.4281 23.3754 30.5728 24.1437Z" fill="#E3E5E8"/>
<path d="M78.945 160C121.721 160 156.397 157.735 156.397 154.942C156.397 152.148 121.721 149.883 78.945 149.883C36.1693 149.883 1.49268 152.148 1.49268 154.942C1.49268 157.735 36.1693 160 78.945 160Z" fill="#F5F5F5"/>
<path d="M109.508 153.088C114.194 146.852 125.749 129.85 119.333 121.501C116.888 118.317 111.432 119.579 110.451 131.958C109.763 140.636 106.628 149.353 105.141 153.088H109.508Z" fill="#95C6AF"/>
<path d="M107.301 153.088C110.338 147.764 112.447 142.129 113.761 137.987C115.532 132.409 116.287 128.26 116.294 128.219C116.321 128.07 116.226 127.928 116.082 127.901C115.939 127.873 115.801 127.971 115.774 128.119C115.767 128.161 115.018 132.28 113.256 137.826C111.928 142.009 109.784 147.727 106.687 153.087H107.301V153.088Z" fill="#95C6AF"/>
<path d="M140.494 117.312C138.65 111.747 130.615 110.741 123.47 127.141C118.548 138.439 110.383 148.609 106.514 153.088H115.796C126.448 145.552 144.802 130.311 140.494 117.312Z" fill="#E8F3EE"/>
<path d="M133.056 124.421C132.874 124.311 132.639 124.375 132.534 124.564C132.504 124.617 129.55 129.864 124.545 136.55C120.987 141.305 115.801 147.557 109.573 153.088H110.739C116.722 147.663 121.704 141.641 125.158 137.023C130.192 130.296 133.167 125.012 133.195 124.959C133.302 124.771 133.239 124.529 133.056 124.421Z" fill="#95C6AF"/>
<path d="M16.4409 150.116C16.4106 151.264 16.645 152.378 17.0621 153.363H27.3585C29.9855 150.898 30.7531 146.849 29.0134 143.559C28.2395 142.096 27.0647 140.947 25.2823 140.729C19.7018 140.044 23.6216 135.687 21.5708 132.206C19.2098 128.195 15.1152 129.745 13.6706 126.579C11.6604 122.176 5.75692 119.873 5.16039 125.195C4.56386 130.517 9.19247 132.387 7.50665 136.177C5.82083 139.966 6.94792 143.906 10.4453 144.62C13.9444 145.334 16.558 145.658 16.4409 150.116Z" fill="#95C6AF"/>
<path d="M25.8821 153.363L10.9063 129.396C10.7856 129.203 10.5362 129.147 10.3489 129.272C10.162 129.396 10.1077 129.654 10.2283 129.847L24.9227 153.363H25.8821Z" fill="#95C6AF"/>
<path d="M18.8617 136.111C22.401 138.834 25.1527 140.634 22.7185 145.55C21.4388 148.133 21.4615 151.171 22.4371 153.364H36.5734C38.9018 151.419 40.3213 148.417 40.1495 145.148C40.0409 143.087 39.3224 141.157 37.4445 139.932C31.5654 136.096 38.1943 133.386 37.7025 128.369C37.1373 122.59 31.763 122.067 31.7853 117.735C31.8152 111.71 26.4114 105.888 22.9951 111.504C19.5792 117.12 23.7827 121.757 19.9417 125.062C16.101 128.366 15.3241 133.387 18.8617 136.111Z" fill="#E8F3EE"/>
<path d="M30.4544 153.363H31.4605L27.2411 119.36C27.2061 119.078 26.9563 118.878 26.6831 118.914C26.4099 118.95 26.2161 119.208 26.2512 119.49L30.4544 153.363Z" fill="#95C6AF"/>
<path d="M53.9844 151.497C46.1869 131.806 43.7771 117.874 47.0209 111.073C47.1501 110.801 47.0422 110.473 46.7793 110.34C46.5165 110.207 46.199 110.318 46.0694 110.589C44.1183 114.68 44.0568 121.072 45.8859 129.588C47.2209 135.804 49.5568 143.159 52.8402 151.497L53.9844 151.497Z" fill="#95C6AF"/>
<path d="M44.8683 121.856C44.8683 121.856 40.6658 123.309 38.48 115.583C38.48 115.583 45.5236 115.242 44.8683 121.856Z" fill="#E8F3EE"/>
<path d="M45.7956 125.9C45.7956 125.9 44.1562 121.65 51.5083 118.967C51.5083 118.967 52.2303 126.207 45.7956 125.9Z" fill="#E8F3EE"/>
<path d="M45.5198 114.092C45.5198 114.092 42.6014 110.649 48.6663 105.589C48.6663 105.589 51.6854 112.167 45.5198 114.092Z" fill="#E8F3EE"/>
<path d="M47.4182 134.094C47.4182 134.094 43.9397 136.928 39.3506 130.42C39.3506 130.42 45.8671 127.641 47.4182 134.094Z" fill="#E8F3EE"/>
<path d="M48.9671 138.066C48.9671 138.066 46.6405 134.172 53.4322 130.217C53.4322 130.217 55.3561 137.219 48.9671 138.066Z" fill="#E8F3EE"/>
<path d="M50.5652 143.721C50.5652 143.721 47.1393 146.623 42.4316 140.207C42.4316 140.207 48.8959 137.299 50.5652 143.721Z" fill="#E8F3EE"/>
<path d="M144.729 63.3966C145.596 63.3966 146.302 64.1248 146.302 65.0197C146.302 65.9146 145.596 66.6428 144.729 66.6428C143.862 66.6428 143.157 65.9146 143.157 65.0197C143.157 64.1248 143.862 63.3966 144.729 63.3966ZM144.729 66.1338C145.324 66.1338 145.808 65.6341 145.808 65.0201C145.808 64.4061 145.324 63.9063 144.729 63.9063C144.134 63.9063 143.65 64.4061 143.65 65.0201C143.65 65.6341 144.134 66.1338 144.729 66.1338Z" fill="#FF9D59"/>
<path d="M138.311 61.2072C139.178 61.2072 139.883 61.9353 139.883 62.8303C139.883 63.7252 139.178 64.4534 138.311 64.4534C137.444 64.4534 136.738 63.7252 136.738 62.8303C136.738 61.9353 137.444 61.2072 138.311 61.2072ZM138.311 63.944C138.906 63.944 139.39 63.4442 139.39 62.8303C139.39 62.2159 138.906 61.7165 138.311 61.7165C137.716 61.7165 137.232 62.2163 137.232 62.8303C137.231 63.4442 137.716 63.944 138.311 63.944Z" fill="#FF9D59"/>
<path d="M136.537 55.8624C136.673 55.8624 136.784 55.9763 136.784 56.1171V57.2397C136.784 57.3802 136.673 57.4944 136.537 57.4944C136.401 57.4944 136.291 57.3805 136.291 57.2397V56.1171C136.291 55.9763 136.401 55.8624 136.537 55.8624Z" fill="#FF9D59"/>
<path d="M136.537 53.8976C136.673 53.8976 136.784 54.0114 136.784 54.1523V55.2749C136.784 55.4153 136.673 55.5296 136.537 55.5296C136.401 55.5296 136.291 55.4157 136.291 55.2749V54.1523C136.291 54.0114 136.401 53.8976 136.537 53.8976Z" fill="#FF9D59"/>
<path d="M135.011 55.4414H135.988C136.124 55.4414 136.235 55.5553 136.235 55.6961C136.235 55.8365 136.125 55.9508 135.988 55.9508H135.011C134.875 55.9508 134.764 55.8369 134.764 55.6961C134.764 55.5553 134.875 55.4414 135.011 55.4414Z" fill="#FF9D59"/>
<path d="M137.087 55.4414H138.064C138.2 55.4414 138.311 55.5553 138.311 55.6961C138.311 55.8365 138.201 55.9508 138.064 55.9508H137.087C136.951 55.9508 136.84 55.8369 136.84 55.6961C136.84 55.5553 136.951 55.4414 137.087 55.4414Z" fill="#FF9D59"/>
<path d="M143.203 57.6606C143.339 57.6606 143.449 57.7745 143.449 57.9153V59.0379C143.449 59.1784 143.339 59.2926 143.203 59.2926C143.066 59.2926 142.956 59.1788 142.956 59.0379V57.9153C142.956 57.7745 143.066 57.6606 143.203 57.6606Z" fill="#FF9D59"/>
<path d="M143.203 55.6959C143.339 55.6959 143.449 55.8098 143.449 55.9506V57.0732C143.449 57.214 143.339 57.3279 143.203 57.3279C143.066 57.3279 142.956 57.214 142.956 57.0732V55.9506C142.956 55.8098 143.066 55.6959 143.203 55.6959Z" fill="#FF9D59"/>
<path d="M141.676 57.2396H142.653C142.789 57.2396 142.9 57.3535 142.9 57.4943C142.9 57.6348 142.789 57.749 142.653 57.749H141.676C141.54 57.749 141.429 57.6351 141.429 57.4943C141.429 57.3538 141.539 57.2396 141.676 57.2396Z" fill="#FF9D59"/>
<path d="M143.752 57.2396H144.729C144.865 57.2396 144.976 57.3535 144.976 57.4943C144.976 57.6348 144.866 57.749 144.729 57.749H143.752C143.616 57.749 143.505 57.6351 143.505 57.4943C143.506 57.3538 143.616 57.2396 143.752 57.2396Z" fill="#FF9D59"/>
<path d="M3.14484 115.004C3.14484 115.899 2.43938 116.628 1.57242 116.628C0.705459 116.628 0 115.899 0 115.004C0 114.11 0.705459 113.381 1.57242 113.381C2.43938 113.381 3.14484 114.11 3.14484 115.004ZM2.6514 115.004C2.6514 114.39 2.16723 113.891 1.57242 113.891C0.977265 113.891 0.493443 114.39 0.493443 115.004C0.493443 115.618 0.977609 116.118 1.57242 116.118C2.16758 116.118 2.6514 115.618 2.6514 115.004Z" fill="#FF9D59"/>
<path d="M9.5633 112.815C9.5633 113.709 8.85784 114.438 7.99088 114.438C7.12392 114.438 6.41846 113.709 6.41846 112.815C6.41846 111.92 7.12392 111.191 7.99088 111.191C8.85784 111.192 9.5633 111.92 9.5633 112.815ZM9.0702 112.815C9.0702 112.2 8.58603 111.701 7.99122 111.701C7.39607 111.701 6.91224 112.201 6.91224 112.815C6.91224 113.429 7.39641 113.928 7.99122 113.928C8.58603 113.929 9.0702 113.429 9.0702 112.815Z" fill="#FF9D59"/>
<path d="M9.7643 105.847C9.62822 105.847 9.51758 105.961 9.51758 106.101V107.224C9.51758 107.365 9.62788 107.479 9.7643 107.479C9.90037 107.479 10.011 107.365 10.011 107.224V106.101C10.011 105.961 9.90072 105.847 9.7643 105.847Z" fill="#FF9D59"/>
<path d="M9.7643 103.882C9.62822 103.882 9.51758 103.996 9.51758 104.137V105.259C9.51758 105.4 9.62788 105.514 9.7643 105.514C9.90037 105.514 10.011 105.4 10.011 105.259V104.137C10.011 103.996 9.90072 103.882 9.7643 103.882Z" fill="#FF9D59"/>
<path d="M11.291 105.425H10.3141C10.178 105.425 10.0674 105.54 10.0674 105.68C10.0674 105.821 10.1777 105.935 10.3141 105.935H11.291C11.4271 105.935 11.5377 105.821 11.5377 105.68C11.5377 105.54 11.4274 105.425 11.291 105.425Z" fill="#FF9D59"/>
<path d="M9.21485 105.425H8.23793C8.10186 105.425 7.99121 105.54 7.99121 105.68C7.99121 105.821 8.10151 105.935 8.23793 105.935H9.21485C9.35093 105.935 9.46158 105.821 9.46158 105.68C9.46123 105.54 9.35093 105.425 9.21485 105.425Z" fill="#FF9D59"/>
<path d="M3.09926 107.645C2.96319 107.645 2.85254 107.759 2.85254 107.9V109.022C2.85254 109.163 2.96284 109.277 3.09926 109.277C3.23534 109.277 3.34598 109.163 3.34598 109.022V107.9C3.34598 107.759 3.23568 107.645 3.09926 107.645Z" fill="#FF9D59"/>
<path d="M3.09926 105.68C2.96319 105.68 2.85254 105.794 2.85254 105.935V107.057C2.85254 107.198 2.96284 107.312 3.09926 107.312C3.23534 107.312 3.34598 107.198 3.34598 107.057V105.935C3.34598 105.794 3.23568 105.68 3.09926 105.68Z" fill="#FF9D59"/>
<path d="M4.62584 107.224H3.64858C3.5125 107.224 3.40186 107.338 3.40186 107.479C3.40186 107.619 3.51216 107.733 3.64858 107.733H4.62584C4.76192 107.733 4.87256 107.619 4.87256 107.479C4.87256 107.338 4.76226 107.224 4.62584 107.224Z" fill="#FF9D59"/>
<path d="M2.54967 107.224H1.57241C1.43633 107.224 1.32568 107.338 1.32568 107.479C1.32568 107.619 1.43633 107.733 1.57241 107.733H2.54967C2.68575 107.733 2.79639 107.619 2.79639 107.479C2.79605 107.338 2.68575 107.224 2.54967 107.224Z" fill="#FF9D59"/>
<path d="M67.7632 14.8079C67.7632 14.9141 67.9137 15 68.0989 15C68.2845 15 68.4346 14.9139 68.4346 14.8079V0H67.7632V14.8079Z" fill="#3C3C48"/>
<path d="M92.2002 14.8079C92.2002 14.9141 92.3507 15 92.5359 15C92.7215 15 92.8716 14.9139 92.8716 14.8079V0H92.2002V14.8079Z" fill="#3C3C48"/>
<path d="M99.0758 25.5065C99.2692 25.5058 99.4634 25.514 99.6558 25.5267L99.6754 14.2945L90.589 14.2792L72.0165 14.2473L61.0875 14.2246L61.0205 54.1921L61.0332 54.1935L61.0346 54.158L71.9629 54.0761C71.9299 49.3774 75.1812 45.4452 79.4982 44.5914C80.0435 44.4833 80.6046 44.423 81.1816 44.4194C85.3501 44.3889 88.8942 47.1974 90.0948 51.092C90.3721 51.9905 90.5268 52.9425 90.5326 53.9338L99.6104 53.864L99.6252 44.6574C99.4318 44.667 99.2352 44.6755 99.0417 44.6762C93.9104 44.6666 89.7632 40.367 89.7708 35.0745C89.7797 29.7774 93.9441 25.4966 99.0758 25.5065ZM68.0995 17.4648C67.6676 17.4648 67.3184 17.1044 67.3184 16.6586C67.3184 16.2134 67.6676 15.853 68.0995 15.853C68.5307 15.853 68.8799 16.2134 68.8799 16.6586C68.8799 17.1044 68.5307 17.4648 68.0995 17.4648ZM91.8157 16.6586C91.8157 16.2134 92.1648 15.853 92.5961 15.853C93.0273 15.853 93.3771 16.2134 93.3771 16.6586C93.3771 17.1044 93.0273 17.4648 92.5961 17.4648C92.1648 17.4648 91.8157 17.1044 91.8157 16.6586Z" fill="#FF7312"/>
<path d="M7.9336 145.32L7.1333 148.954L9.828 149.432L10.8747 145.799L7.9336 145.32Z" fill="#FDE2D0"/>
<path d="M8.42299 148.547C8.42299 148.547 9.8236 148.507 10.1861 148.604C10.5486 148.7 12.3417 152.114 13.1248 152.48C14.5457 153.146 13.9959 155.547 13.0619 155.445C10.3603 155.148 6.13721 152.907 6.13721 152.907C6.13721 152.907 6.43169 149.724 6.83339 148.801C7.23508 147.879 7.6251 148.652 8.42299 148.547Z" fill="#37474F"/>
<path d="M9.99077 151.709C9.94163 151.708 9.89284 151.687 9.85676 151.647C9.78666 151.569 9.79147 151.447 9.86707 151.374C9.89215 151.35 10.4935 150.781 11.0993 150.68C11.9051 150.545 12.3226 151.127 12.3401 151.152C12.4006 151.239 12.3817 151.359 12.2979 151.421C12.2144 151.484 12.0975 151.464 12.0374 151.378C12.0261 151.362 11.7326 150.966 11.1587 151.061C10.6653 151.143 10.1258 151.653 10.1207 151.658C10.0835 151.693 10.0368 151.709 9.99077 151.709Z" fill="white"/>
<path d="M9.61821 151.018C9.56907 151.017 9.52028 150.997 9.4842 150.956C9.4141 150.878 9.41891 150.756 9.49451 150.684C9.51994 150.66 10.1209 150.091 10.7267 149.99C11.5332 149.854 11.95 150.437 11.9676 150.462C12.028 150.548 12.0091 150.668 11.9256 150.731C11.8421 150.793 11.7253 150.774 11.6652 150.687C11.6535 150.672 11.36 150.275 10.7865 150.37C10.291 150.453 9.75394 150.962 9.74844 150.967C9.71133 151.002 9.6646 151.019 9.61821 151.018Z" fill="white"/>
<path d="M10.5811 152.363C10.532 152.363 10.4832 152.342 10.4471 152.302C10.377 152.224 10.3818 152.102 10.4574 152.029C10.4825 152.005 11.0838 151.436 11.6896 151.335C12.4961 151.2 12.9129 151.782 12.9305 151.807C12.9909 151.893 12.972 152.014 12.8882 152.076C12.8047 152.139 12.6879 152.119 12.6277 152.032C12.6164 152.017 12.3226 151.62 11.7491 151.715C11.2536 151.798 10.7161 152.307 10.711 152.312C10.6739 152.347 10.6271 152.364 10.5811 152.363Z" fill="white"/>
<path d="M26.3301 104.455C26.3301 104.455 26.1143 105.271 25.747 106.622C25.6504 106.979 25.5432 107.375 25.426 107.804C24.1866 112.337 21.9004 120.524 20.0129 126.278C17.3667 134.345 11.4179 147.275 11.4179 147.275L7.98713 146.449L7.64832 146.365L6.83496 146.171C6.83496 146.171 9.05683 137.677 11.2206 130.35C12.6474 125.518 15.1658 113.909 16.7138 106.57C17.5113 102.785 18.0532 100.134 18.0532 100.134L26.3301 104.455Z" fill="#4E587C"/>
<path d="M26.3305 104.455C26.3305 104.455 26.1147 105.271 25.7474 106.622C25.6508 106.979 25.5436 107.375 25.4264 107.804C23.7743 107.787 19.3526 107.107 16.7139 106.57C17.5114 102.785 18.0533 100.134 18.0533 100.134L26.3305 104.455Z" fill="#4E587C"/>
<path d="M19.0205 105.189C18.9631 105.471 13.5118 132.249 7.98808 146.449L7.64893 146.365C13.1672 132.211 18.626 105.395 18.6827 105.116L19.0205 105.189Z" fill="#4E587C"/>
<path d="M35.063 148.42L34.9503 151.66L32.0804 151.506L32.0127 148.065L35.063 148.42Z" fill="#FDE2D0"/>
<path d="M34.2181 151.512C34.2181 151.512 34.8428 150.671 35.3291 150.714C35.8153 150.757 39.5302 153.894 40.8136 154.167C42.0971 154.44 41.8342 155.415 41.5916 155.911C41.349 156.408 31.3283 155.575 31.3283 155.575C31.3283 155.575 31.0946 152.489 31.4348 151.552C31.775 150.614 33.2086 151.721 34.2181 151.512Z" fill="#37474F"/>
<path d="M36.2656 153.694C36.2199 153.707 36.169 153.702 36.125 153.675C36.0391 153.623 36.0106 153.509 36.0611 153.42C36.0779 153.391 36.4807 152.692 37.0133 152.424C37.7218 152.068 38.2651 152.486 38.2881 152.504C38.3672 152.567 38.3823 152.683 38.3218 152.765C38.2613 152.847 38.1483 152.862 38.0689 152.8C38.0541 152.788 37.6758 152.506 37.171 152.759C36.737 152.977 36.3755 153.603 36.3721 153.609C36.347 153.652 36.3085 153.681 36.2656 153.694Z" fill="white"/>
<path d="M35.7354 153.162C35.6897 153.175 35.6388 153.17 35.5948 153.143C35.5089 153.091 35.4804 152.977 35.5306 152.889C35.5474 152.859 35.9502 152.16 36.4828 151.892C37.192 151.535 37.7349 151.954 37.7576 151.972C37.8366 152.035 37.8518 152.151 37.7913 152.233C37.7308 152.314 37.6178 152.33 37.5387 152.268C37.5239 152.256 37.1453 151.974 36.6408 152.227C36.2051 152.446 35.8453 153.071 35.8419 153.077C35.8168 153.12 35.7783 153.149 35.7354 153.162Z" fill="white"/>
<path d="M36.9883 154.129C36.9426 154.143 36.8918 154.137 36.8478 154.111C36.7619 154.059 36.7333 153.944 36.7835 153.856C36.8004 153.827 37.2031 153.127 37.7357 152.86C38.4449 152.502 38.9875 152.921 39.0105 152.939C39.0896 153.002 39.1047 153.119 39.0442 153.2C38.9837 153.282 38.8707 153.297 38.7913 153.235C38.7765 153.224 38.3979 152.941 37.8934 153.194C37.4574 153.414 37.0979 154.038 37.0945 154.045C37.0701 154.088 37.0313 154.117 36.9883 154.129Z" fill="white"/>
<path d="M35.354 149.852L32.4545 149.452L32.1088 149.406L31.4047 149.309C31.4047 149.309 30.6117 131.628 30.3209 126.913C30.0677 122.817 28.3272 113.543 27.183 107.77C26.8589 106.131 26.5823 104.774 26.3995 103.897C26.261 103.207 26.1782 102.815 26.1782 102.815L35.9681 102.43C35.9681 102.43 35.9828 102.653 36.0052 103.053C36.054 103.872 36.1478 105.44 36.2564 107.412C36.5622 112.777 37.0168 121.127 37.136 125.37C37.4388 136.296 35.354 149.852 35.354 149.852Z" fill="#4E587C"/>
<path d="M36.2562 107.412L27.1829 107.77C26.8588 106.131 26.5822 104.774 26.3994 103.897L36.0051 103.053C36.0535 103.872 36.1477 105.441 36.2562 107.412Z" fill="#4E587C"/>
<path d="M32.4548 149.452L32.1091 149.407C32.2483 143.962 32.5002 130.359 31.7717 124.542C30.857 117.209 28.4069 106.464 28.3818 106.355L28.7189 106.274C28.744 106.382 31.1982 117.146 32.1136 124.497C32.8476 130.351 32.5957 144.019 32.4548 149.452Z" fill="#4E587C"/>
<path d="M36.606 80.8144C37.5939 85.3439 40.7545 88.7674 40.7545 88.7674C42.6046 89.834 47.5809 92.1186 49.3747 91.8824C49.3516 90.6257 49.5204 89.7606 49.8234 88.2382C47.4098 87.975 43.2437 84.904 43.2437 84.904C39.8869 77.3365 39.8223 69.0923 39.8223 69.0923C37.1269 71.6426 36.606 80.8144 36.606 80.8144Z" fill="#121212"/>
<path d="M16.913 96.1244C16.8944 96.267 16.8779 96.4075 16.8611 96.5458C16.5525 99.0762 16.3233 101.039 16.2168 102.003C18.5026 102.976 20.8176 103.714 23.1614 104.223C23.2683 104.245 23.3731 104.268 23.48 104.29C23.537 104.302 23.594 104.313 23.6511 104.324C23.7769 104.35 23.904 104.375 24.0291 104.398C24.1689 104.426 24.3084 104.451 24.4497 104.477C26.0513 104.766 27.6663 104.947 29.2954 105.022C29.6246 105.037 29.9521 105.047 30.2823 105.053C30.3036 105.054 30.3243 105.055 30.3456 105.055C30.4294 105.056 30.5132 105.057 30.5985 105.057C30.6497 105.058 30.7009 105.058 30.751 105.059C32.654 105.073 34.5749 104.942 36.5143 104.666C36.573 104.23 36.6552 103.582 36.7555 102.765C36.7741 102.613 36.7933 102.456 36.8126 102.293V102.292C36.9555 101.123 37.1277 99.6671 37.318 98.021C37.3345 97.8802 37.3507 97.7386 37.3675 97.595C37.4933 96.499 37.6266 95.3246 37.763 94.0998C37.7785 93.9579 37.795 93.8164 37.8104 93.6734C37.9496 92.4174 38.0922 91.1118 38.2338 89.7863C38.32 88.9769 38.4063 88.16 38.4908 87.3421C38.5764 86.5135 38.6612 85.6838 38.7434 84.8592C38.7612 84.6797 38.7795 84.5002 38.7963 84.3204C39.5705 76.5206 40.133 69.3319 39.7055 68.4657C39.4097 67.8663 38.6554 67.1086 37.7537 66.3262C37.6434 66.2315 37.5314 66.135 37.4173 66.0389C37.0321 65.7143 33.7663 64.0696 33.3653 63.7496L29.7896 63.0161C29.7659 63.0268 26.1685 63.7752 26.1448 63.7847C25.9857 63.8529 25.8245 63.9213 25.6654 63.9905C24.2944 64.5839 22.9353 65.2199 22.1244 65.8147C22.0062 65.9005 21.8993 65.986 21.8069 66.0711C21.733 66.1385 21.6663 66.2049 21.611 66.2719C21.5595 66.3318 21.5038 66.4365 21.4447 66.5823C20.8066 68.1621 19.7853 74.5662 18.8091 81.5516C18.7393 82.0521 18.6703 82.5561 18.6009 83.0609C18.5706 83.2822 18.54 83.5046 18.5098 83.727C18.4878 83.8795 18.4668 84.0334 18.4469 84.1863C18.4363 84.2633 18.426 84.3392 18.4156 84.4158C18.3638 84.796 18.3129 85.1756 18.2634 85.553C18.226 85.8325 18.1885 86.1113 18.1514 86.3897C17.6851 89.9108 17.2535 93.3336 16.913 96.1244Z" fill="#F5F5F5"/>
<path d="M31.5109 69.3555C29.5904 69.1037 28.0781 66.7641 28.0128 66.6613C27.9712 66.5963 27.9888 66.5087 28.0516 66.4662C28.1145 66.4233 28.1994 66.4413 28.241 66.5063C28.2568 66.5311 29.8405 68.981 31.7116 69.0917C31.7865 69.0959 31.8446 69.1626 31.8401 69.2406C31.836 69.3183 31.7714 69.3775 31.6961 69.3733C31.6339 69.3697 31.5721 69.3637 31.5109 69.3555Z" fill="#D3D3D3"/>
<path d="M26.9278 92.8339C26.8601 92.825 26.8079 92.7647 26.8086 92.6923C26.8096 92.6147 26.8715 92.5522 26.9467 92.5529C31.9801 92.6143 35.1267 84.0203 35.158 83.9338C35.1841 83.8607 35.2628 83.8234 35.3336 83.8508C35.4043 83.8781 35.4404 83.9589 35.4143 84.032C35.2841 84.3942 32.1678 92.8991 26.9436 92.8353C26.9381 92.8349 26.933 92.8346 26.9278 92.8339Z" fill="#D3D3D3"/>
<path d="M29.2337 90.4112C29.1884 90.4051 29.1468 90.3757 29.1265 90.3296C29.0953 90.2586 29.1258 90.1749 29.1946 90.143C32.0398 88.81 32.737 86.3864 32.7439 86.3619C32.7645 86.2871 32.8394 86.2427 32.9126 86.2651C32.9851 86.2864 33.0273 86.364 33.0067 86.4389C32.9782 86.5432 32.2738 89.0104 29.3076 90.3998C29.2832 90.4108 29.2581 90.4143 29.2337 90.4112Z" fill="#D3D3D3"/>
<path d="M27.8716 53.862C27.8716 53.862 27.0095 52.7518 27.0487 51.2688C27.0882 49.7858 27.795 50.3692 28.0912 48.6777C28.3874 46.9861 29.2667 46.6467 30.9172 47.1149C32.5676 47.5834 32.9858 46.1902 35.0764 46.5999C37.1673 47.0095 36.9155 48.0431 38.3862 49.0405C39.8569 50.0376 39.2731 51.8178 38.5013 52.4102C37.7295 53.0025 37.1234 52.6241 37.1234 52.6241L27.8716 53.862Z" fill="#3C3C48"/>
<path d="M36.8604 56.0963C36.8604 56.0963 37.8504 55.0422 38.3614 56.0885C38.8723 57.1345 37.6319 59.8632 36.1763 58.9665L36.8604 56.0963Z" fill="#FDE2D0"/>
<path d="M36.6212 58.1312C36.6782 58.1387 36.7353 58.1068 36.7586 58.0497C37.1057 57.2023 38.0314 56.9618 38.0407 56.9597C38.1111 56.9419 38.1544 56.8689 38.1372 56.7962C38.1204 56.7234 38.0496 56.6788 37.9792 56.6961C37.9359 56.7068 36.9163 56.9685 36.5167 57.9443C36.4885 58.0131 36.5198 58.0929 36.5865 58.122C36.5978 58.1266 36.6095 58.1298 36.6212 58.1312Z" fill="#121212"/>
<path d="M37.5654 57.8056C37.5895 57.8088 37.6149 57.8052 37.6386 57.7935C37.7039 57.7612 37.7317 57.6804 37.7005 57.6126C37.6953 57.6013 37.5695 57.3352 37.2616 57.1419C37.2001 57.1029 37.119 57.1231 37.0812 57.1873C37.0435 57.2512 37.063 57.3345 37.1252 57.3735C37.363 57.5232 37.4627 57.7279 37.4637 57.73C37.4836 57.7726 37.5228 57.7999 37.5654 57.8056Z" fill="#121212"/>
<path d="M28.1362 54.9516C28.1362 54.9516 27.4331 53.6754 26.6851 54.5565C25.937 55.4372 26.4765 58.3996 28.1032 57.9073L28.1362 54.9516Z" fill="#FDE2D0"/>
<path d="M27.8747 56.9837C27.8177 56.9762 27.7702 56.9305 27.7616 56.8691C27.6311 55.9593 26.793 55.4872 26.7847 55.4826C26.7208 55.4475 26.6968 55.3652 26.7308 55.2992C26.7648 55.2332 26.8442 55.208 26.9081 55.2432C26.9473 55.2648 27.8713 55.7816 28.0218 56.8294C28.0324 56.9035 27.9829 56.9723 27.9111 56.9833C27.8984 56.9851 27.8864 56.9851 27.8747 56.9837Z" fill="#121212"/>
<path d="M27.0392 56.4242C27.0152 56.421 26.9915 56.4111 26.9715 56.3937C26.9162 56.3454 26.909 56.26 26.9554 56.2028C26.9633 56.1933 27.1495 55.968 27.4945 55.8602C27.5636 55.8382 27.6371 55.879 27.6581 55.9507C27.679 56.0223 27.6399 56.0979 27.5705 56.1195C27.3038 56.2028 27.1578 56.3752 27.1564 56.377C27.1268 56.4135 27.0822 56.4295 27.0392 56.4242Z" fill="#121212"/>
<path d="M29.7586 60.5771L29.4102 63.4073C29.4102 63.4073 30.0503 64.9559 31.1437 65.1989C32.2361 65.4433 33.3828 64.2316 33.3828 64.2316L33.7436 61.3022L29.7586 60.5771Z" fill="#FDE2D0"/>
<path d="M29.7586 60.5771L29.604 61.8328C30.2411 62.7798 31.5328 63.165 33.5193 63.1239L33.7436 61.3022L29.7586 60.5771Z" fill="#FDE2D0"/>
<path d="M27.7637 52.9308C27.6785 54.0371 27.6105 55.4261 27.6789 56.5515L27.6785 56.5547C27.6782 56.5579 27.6789 56.5611 27.6792 56.5657C27.6792 56.5668 27.6802 56.5668 27.6799 56.5678C27.6971 56.8427 27.7222 57.1027 27.7555 57.3379C27.7758 57.4759 27.7988 57.6206 27.8263 57.7692C28.217 59.9588 29.3475 63.2021 33.3029 62.3051C34.9688 61.9277 36.008 60.3379 36.6574 58.551C36.6955 58.4442 36.7323 58.3385 36.7656 58.2367C36.7887 58.169 36.8103 58.103 36.8306 58.0381L36.8612 57.9423C36.8663 57.926 36.8698 57.9143 36.8718 57.9072C36.8732 57.9029 36.8735 57.9008 36.8735 57.9008C37.2976 56.5168 37.512 55.0895 37.6195 54.0633C37.7288 53.017 37.2934 51.9894 36.4767 51.3595C34.2647 49.6512 31.6841 49.8417 29.9461 50.2815C28.74 50.5855 27.8606 51.6542 27.7637 52.9308Z" fill="#FDE2D0"/>
<path d="M30.3192 55.3453C30.2821 55.6475 30.4027 55.9121 30.5886 55.9366C30.7745 55.9611 30.9556 55.7358 30.9927 55.434C31.0298 55.1318 30.9092 54.8672 30.7233 54.8427C30.5374 54.8179 30.3563 55.0431 30.3192 55.3453Z" fill="#3C3C48"/>
<path d="M34.411 55.8824C34.3739 56.1846 34.4945 56.4492 34.6804 56.4736C34.8663 56.4981 35.0474 56.2729 35.0845 55.971C35.1216 55.6688 35.001 55.4042 34.8151 55.3797C34.6292 55.3553 34.4481 55.5805 34.411 55.8824Z" fill="#3C3C48"/>
<path d="M29.4465 53.4965C29.4465 53.4965 30.8574 52.9442 31.9312 53.4415L31.8147 54.0601C31.8147 54.0601 30.2309 53.8991 29.4276 54.2218C29.3595 53.9817 29.352 53.7405 29.4465 53.4965Z" fill="#3C3C48"/>
<path d="M36.1107 54.3093C36.1107 54.3093 34.8256 53.4715 33.6686 53.7393L33.6631 54.3742C33.6631 54.3742 35.2578 54.5438 35.988 55.029C36.1021 54.8066 36.1564 54.5697 36.1107 54.3093Z" fill="#3C3C48"/>
<path d="M32.163 58.0713C31.9434 58.0425 31.7362 57.9255 31.7042 57.907C31.6413 57.8702 31.619 57.7875 31.6547 57.7226C31.6901 57.6573 31.7705 57.6343 31.8334 57.6712C31.9451 57.7357 32.2179 57.8503 32.3495 57.7907C32.375 57.779 32.4107 57.7545 32.4289 57.674C32.5337 57.2108 32.6031 55.6207 32.6038 55.6047C32.6069 55.5298 32.6684 55.472 32.7409 55.4752C32.8138 55.4784 32.8694 55.5419 32.8664 55.6167C32.8636 55.6831 32.7952 57.248 32.6849 57.7357C32.6433 57.9195 32.5372 58.0021 32.455 58.039C32.365 58.0794 32.2626 58.0844 32.163 58.0713Z" fill="#FDE2D0"/>
<path d="M33.6731 59.3102C33.5109 59.8107 33.0659 60.7123 31.9587 60.5673C30.8492 60.4215 30.644 59.5174 30.6104 58.9087L33.6731 59.3102Z" fill="white"/>
<path d="M28.2715 54.4185C28.3127 53.8531 28.432 53.2448 28.8041 53.1905C29.3202 53.1164 29.1862 51.7877 29.9494 51.3195C30.7126 50.8499 32.2843 50.8999 33.2279 51.6848C34.1715 52.4684 35.4113 51.9214 35.869 52.0963C36.3281 52.2701 36.8861 53.0263 36.6356 53.6311C36.3837 54.2348 36.8579 54.6849 36.9043 55.3506C36.917 55.5315 36.8803 55.7891 36.8201 56.0675C36.9768 56.125 37.1332 56.1838 37.2888 56.2434C37.4521 55.4365 37.5552 54.6774 37.6198 54.0634C37.729 53.0164 37.2943 51.9892 36.4772 51.3589C34.2643 49.6506 31.684 49.8404 29.9463 50.2806C28.7402 50.5853 27.8608 51.6547 27.7633 52.9298C27.7282 53.3902 27.6959 53.8999 27.6753 54.4188C27.8739 54.4188 28.0725 54.4181 28.2715 54.4185Z" fill="#3C3C48"/>
<path d="M52.5455 105.343L52.5393 105.359L22.9644 93.0661L34.9183 62.4343L43.2931 65.9182C44.8762 61.8604 49.3464 59.8975 53.2743 61.5298C57.2054 63.1636 59.107 67.7782 57.5257 71.8324L64.4923 74.7303L61.1323 83.3367C60.9907 83.2661 60.844 83.2002 60.6925 83.1367C56.7614 81.5029 52.2912 83.4658 50.7082 87.5236C49.1254 91.5813 51.0284 96.1924 54.9595 97.8265C55.1107 97.8904 55.2615 97.9464 55.4137 97.9993L52.5455 105.343Z" fill="#FFDEC8"/>
<path d="M30.4048 95.2582L30.968 95.5502C31.4714 95.8112 32.003 95.7037 32.4549 95.3565C32.6545 95.2029 32.9731 94.8979 33.1298 94.8173C33.5696 94.5914 34.584 94.3555 34.8623 94.4768C35.1406 94.5978 34.8393 95.089 34.5389 95.2171C34.2386 95.3451 33.7981 95.4778 33.4813 95.7147C33.1645 95.9517 34.3262 97.3673 34.8527 97.8294C35.3791 98.2916 36.5942 98.5055 36.4467 99.0719C36.2993 99.6384 35.4722 99.3043 35.4722 99.3043C35.4722 99.3043 35.4788 99.887 34.6365 99.93C34.6365 99.93 34.5331 100.444 33.9912 100.466C33.9912 100.466 33.7603 101.065 33.1944 100.96C32.6284 100.856 30.8684 100.519 28.7729 97.069L30.4048 95.2582Z" fill="#FDE2D0"/>
<path d="M30.5986 94.9436C30.5986 94.9436 22.6935 87.752 20.2164 84.0249C20.2164 84.0249 20.8342 79.7209 21.4661 76.2829C21.8754 74.0553 22.0664 71.7899 22.0077 69.5234C21.9747 68.2518 21.8671 67.0181 21.6111 66.2715C21.6111 66.2715 19.2236 66.8997 17.3983 74.9641C16.4046 79.3538 15.9455 82.8497 15.751 84.674C15.653 85.5937 15.8922 86.5166 16.4214 87.2633C18.0684 89.5872 22.2235 94.6917 28.4809 97.2622C28.4809 97.2622 30.2134 95.9754 30.5986 94.9436Z" fill="#D3D3D3"/>
<path d="M51.1589 87.2173C51.1589 87.2173 49.5707 87.473 49.0951 88.0774C48.6195 88.6822 50.8146 88.6864 50.8146 88.6864C50.8146 88.6864 48.1639 88.7013 48.0464 89.3551C47.9289 90.0091 50.5043 90.0708 50.5043 90.0708C50.5043 90.0708 48.7099 90.3631 48.5714 90.8551C48.433 91.347 50.3133 91.4719 50.3133 91.4719C50.3133 91.4719 48.914 91.8525 48.769 92.2132C48.624 92.5743 50.1971 92.8733 51.0194 92.7268C51.8421 92.58 51.4256 91.5049 51.4256 91.5049C51.4256 91.5049 51.7695 90.5447 51.4668 90.1797C51.4668 90.1797 51.8994 89.3281 51.6946 88.8177C51.6946 88.8177 52.1984 87.4117 51.1589 87.2173Z" fill="#FDE2D0"/>
<path d="M131.775 67.4307L137.447 76.1343L134.987 77.9517L131.592 72.6068L131.775 67.4307Z" fill="#121212"/>
<path d="M108.366 147.62L107.71 150.717C107.71 150.717 109.508 152.093 110.778 151.348L111.439 148.325L108.366 147.62Z" fill="#FDE2D0"/>
<path d="M108.323 150.531C108.323 150.531 107.82 149.477 107.282 149.416C106.744 149.354 102.048 151.936 100.595 151.946C99.1421 151.957 98.9147 153.78 99.4346 154.083C100.027 154.428 110.49 156.052 110.49 156.052C110.49 156.052 111.515 152.291 111.341 151.195C111.168 150.1 109.377 150.983 108.323 150.531Z" fill="#37474F"/>
<path d="M105.641 152.446C105.687 152.471 105.744 152.477 105.798 152.457C105.902 152.42 105.957 152.302 105.921 152.195C105.909 152.159 105.617 151.309 105.094 150.899C104.398 150.353 103.719 150.686 103.691 150.701C103.592 150.751 103.551 150.875 103.599 150.977C103.648 151.079 103.768 151.122 103.867 151.071C103.886 151.062 104.356 150.84 104.852 151.227C105.278 151.561 105.54 152.323 105.543 152.33C105.561 152.383 105.597 152.423 105.641 152.446Z" fill="white"/>
<path d="M106.328 151.986C106.375 152.011 106.432 152.017 106.485 151.998C106.589 151.96 106.645 151.842 106.608 151.735C106.596 151.699 106.305 150.849 105.781 150.439C105.085 149.893 104.407 150.227 104.378 150.241C104.279 150.291 104.239 150.415 104.287 150.517C104.335 150.619 104.455 150.662 104.555 150.611C104.573 150.603 105.044 150.38 105.54 150.768C105.968 151.103 106.228 151.862 106.231 151.87C106.248 151.923 106.284 151.963 106.328 151.986Z" fill="white"/>
<path d="M104.764 152.759C104.81 152.784 104.867 152.789 104.92 152.77C105.024 152.733 105.08 152.615 105.043 152.507C105.031 152.471 104.74 151.621 104.216 151.212C103.52 150.665 102.842 150.999 102.813 151.014C102.714 151.064 102.674 151.188 102.722 151.29C102.77 151.392 102.89 151.434 102.989 151.384C103.008 151.375 103.479 151.152 103.975 151.54C104.403 151.875 104.663 152.635 104.665 152.643C104.683 152.695 104.719 152.735 104.764 152.759Z" fill="white"/>
<path d="M123.206 100.307C122.938 101.5 122.669 102.728 122.396 103.987C120.789 111.426 119.049 119.979 116.49 128.54C115.556 136.217 113.927 141.094 111.735 148.824C111.518 148.868 111.202 148.877 110.836 148.855C110.699 148.846 110.554 148.833 110.405 148.811C109.492 148.696 108.401 148.388 107.71 147.851C107.71 147.851 109.04 138.493 110.883 127.959C111.863 122.338 113.603 108.574 114.431 101.909C114.712 99.6206 114.887 98.1724 114.887 98.1724L121.863 99.9639L121.979 99.9902L122.277 100.069L123.206 100.307Z" fill="#4E587C"/>
<path d="M123.206 100.307C122.938 101.5 122.669 102.728 122.396 103.987L114.43 101.909C114.712 99.6206 114.887 98.1724 114.887 98.1724L121.863 99.9639L121.978 99.9902L122.277 100.069L123.206 100.307Z" fill="#4E587C"/>
<path d="M122.276 100.065V100.069L115.666 128.408C115.658 128.483 114.378 137.761 110.835 148.854C110.698 148.845 110.553 148.832 110.404 148.81C113.952 137.718 115.235 128.421 115.248 128.324L121.862 99.9634L121.977 99.9896L122.276 100.065Z" fill="#4E587C"/>
<path d="M128.073 147.358L128.339 151.426L131.218 150.714V147.358H128.073Z" fill="#FDE2D0"/>
<path d="M129.349 150.585C129.349 150.585 130.877 150.166 131.3 150.175C131.722 150.184 134.549 153.454 135.501 153.648C137.229 153.999 137.228 156.783 136.177 156.921C133.135 157.317 127.933 155.985 127.933 155.985C127.933 155.985 127.458 152.411 127.667 151.29C127.876 150.168 128.499 150.914 129.349 150.585Z" fill="#37474F"/>
<path d="M131.864 153.639C131.81 153.651 131.751 153.641 131.701 153.607C131.605 153.54 131.579 153.405 131.644 153.305C131.666 153.272 132.183 152.486 132.824 152.213C133.675 151.849 134.28 152.377 134.305 152.4C134.393 152.478 134.403 152.616 134.326 152.707C134.25 152.798 134.117 152.807 134.029 152.729C134.013 152.715 133.591 152.357 132.984 152.616C132.463 152.838 131.999 153.542 131.994 153.549C131.962 153.597 131.915 153.628 131.864 153.639Z" fill="white"/>
<path d="M131.282 152.98C131.228 152.992 131.169 152.983 131.119 152.948C131.023 152.881 130.997 152.746 131.062 152.646C131.084 152.613 131.602 151.827 132.241 151.554C133.093 151.19 133.697 151.718 133.723 151.741C133.811 151.819 133.82 151.956 133.744 152.048C133.668 152.138 133.535 152.148 133.447 152.07C133.43 152.055 133.008 151.698 132.402 151.956C131.879 152.18 131.416 152.882 131.411 152.89C131.38 152.937 131.333 152.969 131.282 152.98Z" fill="white"/>
<path d="M132.677 154.2C132.622 154.213 132.564 154.203 132.514 154.168C132.417 154.101 132.392 153.966 132.457 153.867C132.479 153.833 132.996 153.048 133.636 152.775C134.488 152.41 135.092 152.938 135.118 152.961C135.205 153.04 135.215 153.177 135.139 153.268C135.063 153.359 134.93 153.369 134.842 153.29C134.825 153.276 134.403 152.919 133.797 153.177C133.273 153.4 132.811 154.103 132.807 154.11C132.775 154.158 132.728 154.189 132.677 154.2Z" fill="white"/>
<path d="M131.61 147.798C130.936 148.097 129.964 148.185 129.026 148.168C128.881 148.168 128.736 148.163 128.596 148.15C128.25 148.137 127.918 148.106 127.615 148.071L123.491 103.934L123.154 100.307L123.947 100.245L124.374 100.214L131.448 99.6813C131.448 99.6813 131.444 100.571 131.444 102.019C131.44 106.993 131.466 118.578 131.738 123.583C132.088 130.05 131.61 147.798 131.61 147.798Z" fill="#4E587C"/>
<path d="M131.448 99.682C131.448 99.682 131.444 100.571 131.444 102.019L123.491 103.934L123.154 100.307L123.947 100.245L124.373 100.214L131.448 99.682Z" fill="#4E587C"/>
<path d="M129.025 148.168C128.88 148.168 128.735 148.164 128.594 148.15L123.946 100.245L124.372 100.214L129.025 148.168Z" fill="#4E587C"/>
<path d="M132.163 99.8167C128.793 100.622 126.07 101.033 123.381 101.058C123.365 101.058 123.348 101.06 123.332 101.058C123.316 101.06 123.3 101.058 123.282 101.058C120.592 101.033 117.871 100.622 114.5 99.8167C114.029 93.5807 116.093 89.6329 115.864 82.6425C115.862 82.5822 115.859 82.5209 115.857 82.4606C115.847 82.1587 115.834 81.8594 115.82 81.5611C115.793 80.9943 115.761 80.4335 115.723 79.8819C115.703 79.579 115.681 79.2789 115.658 78.9824C115.194 72.9429 114.267 68.1577 114.769 67.5036C115.315 66.7925 116.703 65.9536 118.115 65.1747C119.453 64.4376 120.811 63.7541 121.491 63.2866C122.166 63.5902 122.704 63.7562 123.283 63.7534C123.299 63.7534 123.316 63.7534 123.333 63.7516C123.348 63.7534 123.366 63.7534 123.381 63.7534C123.96 63.7562 124.498 63.5902 125.174 63.2866C125.805 63.7201 126.995 64.3248 128.207 64.9846C129.682 65.7869 131.192 66.6701 131.775 67.4306C132.299 68.1137 131.359 73.3455 130.942 79.7673C130.924 80.0557 130.907 80.3459 130.89 80.6388C130.854 81.2716 130.825 81.914 130.803 82.5638C130.802 82.59 130.801 82.6159 130.8 82.6422C130.792 82.899 130.786 83.1515 130.784 83.4002C130.718 89.9259 132.617 93.8095 132.163 99.8167Z" fill="#F5F5F5"/>
<path d="M128.785 91.9335H128.784C125.388 91.9183 122.489 90.3228 120.655 88.987C118.672 87.5427 117.47 86.0792 117.458 86.0643C117.4 85.993 117.409 85.8866 117.478 85.8267C117.547 85.7667 117.65 85.776 117.708 85.8472C117.72 85.8618 118.9 87.2973 120.851 88.7168C122.645 90.022 125.478 91.5809 128.786 91.5958C128.876 91.5962 128.949 91.6721 128.949 91.7654C128.948 91.8583 128.875 91.9335 128.785 91.9335Z" fill="#D3D3D3"/>
<path d="M125.246 93.1246C122.298 93.1246 119.36 91.3912 119.226 91.3114C119.148 91.2646 119.121 91.1614 119.167 91.0808C119.212 91.0003 119.312 90.9727 119.39 91.0191C119.425 91.0397 122.883 93.0782 125.949 92.7508C126.04 92.7401 126.119 92.8086 126.128 92.9012C126.137 92.9937 126.072 93.0767 125.982 93.0863C125.738 93.1126 125.492 93.1246 125.246 93.1246Z" fill="#D3D3D3"/>
<path d="M122.637 71.8122C122.56 71.8122 122.491 71.7558 122.476 71.675C122.459 71.5834 122.518 71.4951 122.606 71.4777C126.747 70.6669 127.995 67.9173 128.007 67.8893C128.044 67.8045 128.141 67.7665 128.223 67.8052C128.305 67.8435 128.342 67.9432 128.305 68.0283C128.252 68.1478 126.973 70.9656 122.667 71.809C122.657 71.8115 122.646 71.8122 122.637 71.8122Z" fill="#D3D3D3"/>
<path d="M123.675 66.5441C121.297 66.797 120.425 63.8257 120.417 63.7948C120.399 63.7303 120.434 63.6629 120.497 63.6441C120.559 63.6253 120.625 63.6622 120.643 63.7267C120.677 63.8463 121.502 66.6498 123.788 66.2841C125.79 65.9652 125.678 63.648 125.673 63.5494C125.669 63.4823 125.717 63.4242 125.783 63.4206C125.848 63.4167 125.904 63.4674 125.908 63.5345C125.909 63.5607 126.04 66.1717 123.825 66.5246C123.774 66.5324 123.724 66.5391 123.675 66.5441Z" fill="white"/>
<path d="M118.829 56.632C118.829 56.632 116.872 53.1786 118.522 50.5124C120.172 47.8458 123.678 48.0972 124.586 48.3072C125.494 48.5168 130.722 51.0473 127.56 57.1832L118.829 56.632Z" fill="#3C3C48"/>
<path d="M119.155 55.6546C119.155 55.6546 118.363 54.5643 117.774 55.4659C117.185 56.3676 118.018 59.0303 119.46 58.3801L119.155 55.6546Z" fill="#FDE2D0"/>
<path d="M119.145 57.5574C119.092 57.5574 119.043 57.5209 119.028 57.4656C118.805 56.6434 117.979 56.3103 117.971 56.3068C117.908 56.2819 117.877 56.2096 117.9 56.1447C117.924 56.0798 117.995 56.0471 118.057 56.0716C118.096 56.0865 119.005 56.4508 119.263 57.3975C119.281 57.4642 119.243 57.5337 119.178 57.5525C119.167 57.5557 119.156 57.5574 119.145 57.5574Z" fill="#121212"/>
<path d="M118.312 57.1434C118.29 57.1434 118.267 57.137 118.246 57.1232C118.19 57.0856 118.173 57.0079 118.21 56.9494C118.216 56.9398 118.362 56.71 118.667 56.5688C118.728 56.5401 118.801 56.5688 118.828 56.6319C118.856 56.6954 118.828 56.7699 118.767 56.7983C118.53 56.9075 118.416 57.0838 118.415 57.0856C118.392 57.1232 118.352 57.1434 118.312 57.1434Z" fill="#121212"/>
<path d="M127.319 55.6546C127.319 55.6546 128.111 54.5643 128.7 55.4659C129.289 56.3676 128.457 59.0303 127.015 58.3801L127.319 55.6546Z" fill="#FDE2D0"/>
<path d="M127.33 57.5574C127.383 57.5574 127.432 57.5209 127.447 57.4656C127.67 56.6434 128.496 56.3103 128.504 56.3068C128.567 56.2819 128.598 56.2096 128.575 56.1447C128.551 56.0798 128.48 56.0471 128.418 56.0716C128.379 56.0865 127.47 56.4508 127.212 57.3975C127.194 57.4642 127.232 57.5337 127.297 57.5525C127.308 57.5557 127.319 57.5574 127.33 57.5574Z" fill="#121212"/>
<path d="M128.162 57.1434C128.185 57.1434 128.208 57.137 128.228 57.1232C128.285 57.0856 128.301 57.0079 128.265 56.9494C128.258 56.9398 128.112 56.71 127.807 56.5688C127.746 56.5401 127.674 56.5688 127.646 56.6319C127.619 56.6954 127.646 56.7699 127.708 56.7983C127.944 56.9075 128.059 57.0838 128.06 57.0856C128.083 57.1232 128.122 57.1434 128.162 57.1434Z" fill="#121212"/>
<path d="M125.187 60.6392V63.287C125.187 63.287 124.422 64.6356 123.388 64.7274C122.354 64.8203 121.436 63.5661 121.436 63.5661V60.825L125.187 60.6392Z" fill="#FDE2D0"/>
<path d="M125.187 60.6392V61.8143C124.493 62.6095 123.26 62.8081 121.436 62.5301V60.8254L125.187 60.6392Z" fill="#FDE2D0"/>
<path d="M127.892 53.8383C127.845 54.8673 127.749 56.1541 127.559 57.1831C127.512 57.4399 127.458 57.6815 127.399 57.8978C126.859 59.849 125.508 63.1953 121.728 61.8013C120.058 61.1863 119.285 59.2666 118.94 57.314C118.706 55.9881 118.67 54.6484 118.687 53.6911C118.706 52.7136 119.222 51.8204 120.046 51.3388C122.278 50.0331 124.632 50.5198 126.182 51.1348C127.258 51.5615 127.947 52.6522 127.892 53.8383Z" fill="#FDE2D0"/>
<path d="M122.218 50.0687C122.218 50.0687 127.207 58.3279 127.895 55.2984C128.87 51.0055 125.89 48.3495 122.218 50.0687Z" fill="#3C3C48"/>
<path d="M122.011 50.0679C118.691 50.0931 117.04 53.9866 118.58 54.4477C120.722 55.0893 122.58 51.9591 123.152 50.873C122.767 50.6113 122.382 50.3499 122.011 50.0679Z" fill="#3C3C48"/>
<path d="M128.059 48.2159C128.059 50.0873 126.589 51.6047 124.776 51.6047C122.963 51.6047 121.493 50.0873 121.493 48.2159C121.493 46.3442 122.963 44.8271 124.776 44.8271C126.589 44.8271 128.059 46.3442 128.059 48.2159Z" fill="#3C3C48"/>
<path d="M119.267 54.0781C119.267 54.0781 119.526 55.1138 119.173 55.8104C118.82 56.507 119.014 57.7006 119.173 59.0424C119.173 59.0424 118.612 58.2248 118.58 56.9146C118.547 55.6043 118.755 54.514 118.58 53.9897L119.267 54.0781Z" fill="#3C3C48"/>
<path d="M127.105 54.0781C127.105 54.0781 126.847 55.1138 127.2 55.8104C127.552 56.507 127.359 57.7006 127.2 59.0424C127.2 59.0424 127.76 58.2248 127.793 56.9146C127.826 55.6043 127.618 54.514 127.793 53.9897L127.105 54.0781Z" fill="#3C3C48"/>
<path d="M121.572 55.8102C121.572 56.0929 121.431 56.322 121.257 56.322C121.083 56.322 120.942 56.0929 120.942 55.8102C120.942 55.5275 121.083 55.2983 121.257 55.2983C121.431 55.2983 121.572 55.5275 121.572 55.8102Z" fill="#3C3C48"/>
<path d="M125.465 55.8102C125.465 56.0929 125.324 56.322 125.15 56.322C124.975 56.322 124.834 56.0929 124.834 55.8102C124.834 55.5275 124.976 55.2983 125.15 55.2983C125.324 55.2983 125.465 55.5275 125.465 55.8102Z" fill="#3C3C48"/>
<path d="M120.633 54.2862C120.895 54.2099 121.424 54.0794 121.981 54.0776C122.128 54.0773 122.241 54.2121 122.215 54.361L122.214 54.3646C122.193 54.4838 122.09 54.5678 121.973 54.5625C121.593 54.5444 120.597 54.5994 120.127 54.7963C120.117 54.7118 120.166 54.6193 120.234 54.5373C120.338 54.4132 120.48 54.3309 120.633 54.2862Z" fill="#3C3C48"/>
<path d="M125.727 54.2969C125.465 54.2207 124.936 54.0902 124.378 54.0884C124.231 54.088 124.119 54.2228 124.145 54.3718L124.146 54.3757C124.166 54.4945 124.27 54.5789 124.386 54.5733C124.766 54.5548 125.762 54.6101 126.233 54.807C126.243 54.7226 126.194 54.63 126.126 54.5481C126.022 54.4236 125.88 54.3416 125.727 54.2969Z" fill="#3C3C48"/>
<path d="M123.279 58.1456C123.186 58.1456 123.093 58.1286 123.015 58.0803C122.943 58.0363 122.855 57.9473 122.837 57.7732C122.791 57.311 122.906 55.8617 122.91 55.8C122.916 55.7308 122.975 55.679 123.042 55.685C123.109 55.6907 123.159 55.7514 123.153 55.8209C123.152 55.8358 123.036 57.3082 123.08 57.7476C123.087 57.8239 123.118 57.8512 123.14 57.8647C123.254 57.9356 123.518 57.8629 123.629 57.8171C123.691 57.7909 123.762 57.8218 123.787 57.8863C123.813 57.9505 123.783 58.0239 123.721 58.0502C123.689 58.0629 123.485 58.1456 123.279 58.1456Z" fill="#FDE2D0"/>
<path d="M121.732 58.9399C121.824 59.4184 122.13 60.2988 123.162 60.2988C124.196 60.2988 124.486 59.4943 124.585 58.9399H121.732Z" fill="white"/>
<path d="M123.147 61.0327C122.849 61.0327 122.587 60.867 122.575 60.8603C122.518 60.8237 122.5 60.7461 122.536 60.6872C122.571 60.628 122.646 60.6099 122.704 60.646C122.706 60.6475 122.92 60.7812 123.147 60.7812C123.393 60.7812 123.613 60.6468 123.615 60.6457C123.673 60.6099 123.748 60.629 123.782 60.6886C123.817 60.7482 123.799 60.8252 123.741 60.861C123.73 60.8677 123.463 61.0327 123.147 61.0327Z" fill="#FDE2D0"/>
<path d="M160 80.6701L156.795 88.505C155.739 87.9048 154.539 87.5356 153.253 87.4632C150.75 87.3224 148.447 88.3411 146.834 90.065C145.486 91.4944 144.618 93.4144 144.505 95.5607C144.332 98.837 145.966 101.788 148.513 103.378C149.086 103.734 149.705 104.023 150.365 104.229L147.455 111.345L139.07 107.69C140.728 103.625 138.886 98.9434 134.948 97.2281C131.014 95.5128 126.475 97.4179 124.813 101.479L117.739 98.3951L120.755 91.0244C120.601 90.968 120.451 90.9081 120.301 90.8442C116.363 89.1289 114.521 84.4437 116.179 80.382C117.841 76.3207 122.38 74.4192 126.314 76.131C126.464 76.1984 126.614 76.2693 126.756 76.3434L130.284 67.7246L130.295 67.7289L160 80.6701Z" fill="#FFDEC8"/>
<path d="M119.545 97.2998L119.962 97.7109C120.335 98.0784 120.827 98.1309 121.312 97.9521C121.527 97.873 121.884 97.6942 122.042 97.6669C122.485 97.591 123.433 97.6648 123.645 97.8475C123.857 98.0301 123.466 98.3763 123.17 98.4054C122.874 98.4341 122.455 98.4288 122.117 98.5484C121.778 98.6679 122.427 100.227 122.768 100.776C123.108 101.326 124.116 101.848 123.84 102.303C123.564 102.758 122.927 102.237 122.927 102.237C122.927 102.237 122.782 102.748 122.034 102.554C122.034 102.554 121.811 102.974 121.331 102.844C121.331 102.844 120.974 103.304 120.506 103.056C120.038 102.809 118.587 102.028 117.649 98.4324L119.545 97.2998Z" fill="#FDE2D0"/>
<path d="M114.769 67.5039C114.769 67.5039 110.9 80.244 110.404 84.7355C109.908 89.2267 117.42 98.8227 117.42 98.8227L119.745 97.4962C119.745 97.4962 115.245 88.5798 114.43 85.0455L116.353 76.6814C116.353 76.6814 116.34 71.0779 114.769 67.5039Z" fill="#D3D3D3"/>
<path d="M147.752 74.6419C147.752 74.6419 147.367 75.9812 147.641 76.5725C147.915 77.1641 148.711 75.4424 148.711 75.4424C148.711 75.4424 147.765 77.5287 148.204 77.8568C148.644 78.1853 149.619 76.1855 149.619 76.1855C149.619 76.1855 149.186 77.6997 149.499 77.986C149.811 78.2722 150.582 76.841 150.582 76.841C150.582 76.841 150.357 78.0768 150.57 78.3211C150.784 78.5652 151.572 77.4383 151.761 76.7399C151.95 76.0411 151.007 75.9801 151.007 75.9801C151.007 75.9801 150.424 75.3633 150.046 75.4697C150.046 75.4697 149.575 74.8227 149.125 74.799C149.125 74.799 148.271 73.8959 147.752 74.6419Z" fill="#FDE2D0"/>
<path d="M90.4886 118.122C90.4886 119.347 90.5092 120.351 90.4886 121.872C89.5794 120.952 87.9121 119.553 87.9121 119.553L89.1454 118.307C89.1454 118.307 89.8989 117.876 90.4886 118.122Z" fill="#FDE2D0"/>
<path d="M79.7097 92.2404C79.206 95.5845 80.041 105.169 81.0921 106.987C82.4608 109.353 87.5378 114.945 90.1906 117.827C90.6693 118.347 87.743 119.997 87.743 119.997C87.743 119.997 79.8949 113.93 77.4422 110.101C76.7484 109.017 75.5832 105.885 74.7983 100.318C74.5602 98.6303 73.8231 95.1549 74.4221 93.1892C75.111 90.9266 77.8579 90.5272 79.7097 92.2404Z" fill="#D3D3D3"/>
<path d="M77.1352 147.096L77.0679 150.652C77.0679 150.652 77.9283 151.29 79.6835 150.94L80.3474 147.106L77.1352 147.096Z" fill="#FDE2D0"/>
<path d="M79.3032 150.482C79.3032 150.482 79.8904 149.616 80.377 149.637C80.8636 149.659 84.696 152.62 85.9859 152.834C87.2763 153.05 87.2364 154.703 86.7337 154.898C86.1609 155.122 76.6432 155.083 76.6432 155.083C76.6432 155.083 76.2312 151.594 76.5315 150.645C76.8311 149.695 78.306 150.735 79.3032 150.482Z" fill="#37474F"/>
<path d="M81.434 152.564C81.389 152.58 81.3381 152.577 81.2931 152.552C81.2055 152.504 81.1722 152.392 81.2189 152.301C81.2344 152.271 81.6065 151.557 82.1261 151.267C82.8174 150.88 83.3762 151.273 83.3995 151.29C83.481 151.348 83.5009 151.464 83.4439 151.548C83.3872 151.632 83.2748 151.653 83.1934 151.594C83.1782 151.583 82.7893 151.318 82.2969 151.593C81.8735 151.83 81.5395 152.469 81.5361 152.476C81.5134 152.519 81.4763 152.55 81.434 152.564Z" fill="white"/>
<path d="M80.8837 152.058C80.8387 152.073 80.7878 152.071 80.7428 152.046C80.6552 151.997 80.6219 151.885 80.6686 151.795C80.6841 151.764 81.0562 151.05 81.5758 150.76C82.2678 150.372 82.8259 150.765 82.8492 150.782C82.9307 150.841 82.9506 150.957 82.8936 151.04C82.8369 151.125 82.7245 151.145 82.6431 151.086C82.628 151.076 82.2386 150.811 81.7466 151.086C81.3215 151.323 80.9892 151.962 80.9858 151.968C80.9634 152.013 80.926 152.044 80.8837 152.058Z" fill="white"/>
<path d="M82.1723 152.966C82.1273 152.981 82.0764 152.979 82.0314 152.954C81.9438 152.906 81.9105 152.793 81.9572 152.703C81.9726 152.673 82.3448 151.958 82.8644 151.668C83.5561 151.28 84.1145 151.674 84.1378 151.69C84.2193 151.749 84.2392 151.865 84.1821 151.949C84.1254 152.033 84.0131 152.053 83.9316 151.994C83.9165 151.984 83.5272 151.719 83.0351 151.994C82.6097 152.231 82.2778 152.87 82.2743 152.876C82.252 152.921 82.2146 152.952 82.1723 152.966Z" fill="white"/>
<path d="M80.6921 147.998C79.8479 148.285 78.795 148.175 77.9291 147.871C77.783 147.821 77.6435 147.765 77.5102 147.704C77.136 147.532 76.8171 147.326 76.5968 147.105C76.5968 147.105 76.4632 144.637 77.0676 134.396C77.1456 133.075 77.0037 129.257 78.2833 123.926C72.1194 125.465 66.1775 125.013 61.5664 123.046L67.6984 116.943C67.6984 116.943 83.1978 115.14 85.6187 120.026C87.2492 123.316 80.6921 147.998 80.6921 147.998Z" fill="#4E587C"/>
<path d="M46.6496 143.569L43.5594 145.142C43.5594 145.142 43.4062 146.224 44.5147 147.672L48.1179 146.518L46.6496 143.569Z" fill="#FDE2D0"/>
<path d="M44.7337 147.113C44.7337 147.113 45.7488 147.253 45.954 147.709C46.1591 148.165 45.3739 153.039 45.7821 154.321C46.1904 155.602 44.7499 156.326 44.3503 155.955C43.895 155.532 39.5522 146.79 39.5522 146.79C39.5522 146.79 42.3645 144.808 43.3194 144.647C44.274 144.485 44.0578 146.315 44.7337 147.113Z" fill="#37474F"/>
<path d="M43.9215 150.024C43.8875 149.99 43.8665 149.942 43.8672 149.889C43.8682 149.787 43.9497 149.705 44.049 149.706C44.082 149.706 44.8678 149.718 45.3565 150.061C46.0073 150.517 45.9262 151.21 45.9224 151.239C45.9094 151.341 45.819 151.413 45.7204 151.399C45.6221 151.386 45.5527 151.292 45.5657 151.19C45.5678 151.172 45.6169 150.694 45.1541 150.368C44.7558 150.089 44.0521 150.077 44.0449 150.077C43.9967 150.076 43.9535 150.056 43.9215 150.024Z" fill="white"/>
<path d="M44.1041 149.286C44.0701 149.252 44.0495 149.204 44.0498 149.152C44.0508 149.049 44.1323 148.967 44.2316 148.968C44.2649 148.968 45.0504 148.981 45.5391 149.324C46.1902 149.78 46.1088 150.472 46.105 150.502C46.092 150.603 46.0016 150.675 45.903 150.661C45.8047 150.648 45.7353 150.554 45.7483 150.453C45.7504 150.434 45.7992 149.955 45.3367 149.63C44.9367 149.35 44.2347 149.339 44.2275 149.339C44.1797 149.339 44.1361 149.319 44.1041 149.286Z" fill="white"/>
<path d="M43.9152 150.885C43.8811 150.851 43.8602 150.803 43.8609 150.75C43.8619 150.648 43.9433 150.566 44.0426 150.567C44.076 150.567 44.8615 150.579 45.3501 150.922C46.0013 151.379 45.9198 152.071 45.9161 152.1C45.903 152.202 45.8126 152.273 45.7144 152.26C45.6161 152.247 45.5467 152.153 45.5597 152.052C45.5618 152.033 45.6106 151.554 45.1481 151.23C44.7481 150.949 44.0457 150.938 44.0389 150.938C43.9907 150.937 43.9471 150.917 43.9152 150.885Z" fill="white"/>
<path d="M72.0645 138.093C69.9829 141.1 47.5099 147.244 47.5099 147.244C46.8962 146.622 46.512 145.653 46.3636 144.746C46.3378 144.598 46.3199 144.452 46.3086 144.31C46.2701 143.841 46.2983 143.41 46.3959 143.078C46.3959 143.078 47.5793 141.592 56.5575 137.942C57.7502 137.456 60.2429 135.342 64.133 133.89C60.7755 127.778 58.0382 121.838 57.8719 116.618L59.6202 117.111L60.0199 117.224L67.6236 119.368C70.8 125.567 73.7504 135.658 72.0645 138.093Z" fill="#4E587C"/>
<path d="M65.6738 134.135C65.5982 134.389 65.4305 134.594 65.2024 134.713C63.6523 135.523 59.8584 137.549 58.1072 138.833C57.1441 139.54 55.0098 140.507 52.7515 141.53C50.3073 142.639 47.7865 143.78 46.3636 144.746C46.3378 144.598 46.3199 144.452 46.3086 144.31C47.7855 143.347 50.2269 142.242 52.5979 141.167C54.837 140.153 56.953 139.194 57.8846 138.511C59.6563 137.211 63.4709 135.175 65.0295 134.359C65.1629 134.289 65.2615 134.168 65.3062 134.019C65.3508 133.87 65.3343 133.711 65.2611 133.573C61.1851 125.981 59.9772 120.007 59.6199 117.112L60.0195 117.224C60.3961 120.131 61.6194 125.973 65.5969 133.382C65.7213 133.614 65.7494 133.881 65.6738 134.135Z" fill="#4E587C"/>
<path d="M71.1932 84.0512C71.1932 84.0512 67.3089 83.9842 64.8774 85.0106C62.4456 86.0371 62.203 89.9122 61.1993 92.7619C60.1956 95.6115 55.2055 114.143 58.484 117.65C60.9601 120.3 74.2539 120.774 74.7514 116.19C75.0824 113.141 75.8081 109.16 77.3503 101.836C78.3677 97.0055 79.7391 93.6578 79.8828 91.5531C80.0261 89.4483 74.9205 85.1575 74.9205 85.1575L71.1932 84.0512Z" fill="#F5F5F5"/>
<path d="M72.652 88.4078C70.8315 87.7594 69.8199 85.1637 69.7766 85.0498C69.7491 84.9778 69.7834 84.8963 69.8529 84.8679C69.9226 84.8392 70.0013 84.8746 70.0291 84.9466C70.0398 84.9739 71.0992 87.6924 72.8994 88.1928C72.9716 88.2127 73.0145 88.29 72.9953 88.3649C72.9757 88.4397 72.9015 88.484 72.829 88.4638C72.7692 88.4472 72.7101 88.4284 72.652 88.4078Z" fill="#D3D3D3"/>
<path d="M63.5631 110.308C63.4989 110.285 63.46 110.215 63.4748 110.145C63.491 110.07 63.5635 110.022 63.6367 110.038C68.5261 111.155 73.2832 103.447 73.3306 103.369C73.3705 103.303 73.4543 103.284 73.5179 103.325C73.5815 103.366 73.6007 103.452 73.5605 103.518C73.3626 103.843 68.6518 111.471 63.5776 110.312C63.5731 110.311 63.5679 110.31 63.5631 110.308Z" fill="#D3D3D3"/>
<path d="M66.286 108.432C66.243 108.417 66.2083 108.38 66.1977 108.33C66.1812 108.255 66.2276 108.179 66.3008 108.163C69.3339 107.462 70.4906 105.249 70.5019 105.226C70.5366 105.157 70.6184 105.13 70.685 105.167C70.7514 105.202 70.7775 105.287 70.7424 105.356C70.694 105.451 69.5222 107.706 66.3599 108.436C66.3344 108.443 66.309 108.441 66.286 108.432Z" fill="#D3D3D3"/>
<path d="M79.8159 77.0107C79.1455 80.0395 76.2233 81.9336 73.2891 81.2415C70.3549 80.5495 68.52 77.5332 69.1904 74.5044C69.8608 71.4756 72.7829 69.5812 75.7171 70.2735C78.651 70.9656 80.4863 73.9819 79.8159 77.0107Z" fill="#3C3C48"/>
<path d="M69.7774 72.9532C69.7774 72.9532 69.5228 70.9846 71.0313 70.1876C72.5395 69.391 73.4504 69.9485 74.7511 69.2714C76.0517 68.5943 81.339 68.7316 81.4548 71.3099C81.5706 73.8882 79.2913 73.9737 79.2913 73.9737L69.7774 72.9532Z" fill="#3C3C48"/>
<path d="M78.5832 78.3347C78.5832 78.3347 79.6811 77.3749 80.0948 78.4805C80.5085 79.5857 78.9976 82.2059 77.6187 81.1542L78.5832 78.3347Z" fill="#FDE2D0"/>
<path d="M78.1462 80.3587C78.2026 80.3722 78.2634 80.3456 78.2923 80.2906C78.7232 79.4734 79.6781 79.3258 79.6874 79.3247C79.7599 79.3141 79.8107 79.2449 79.8004 79.1701C79.7905 79.0953 79.7235 79.0428 79.651 79.053C79.6063 79.0594 78.5548 79.2187 78.0586 80.1597C78.0236 80.2264 78.0476 80.3094 78.1119 80.3456C78.1232 80.3516 78.1345 80.3559 78.1462 80.3587Z" fill="#121212"/>
<path d="M79.1286 80.1275C79.1527 80.1332 79.1785 80.1321 79.2032 80.1225C79.2723 80.0967 79.308 80.0183 79.2829 79.947C79.2788 79.9353 79.1778 79.6543 78.8864 79.428C78.828 79.3823 78.7445 79.3947 78.7005 79.455C78.6565 79.5157 78.6682 79.6015 78.7266 79.6469C78.9517 79.8221 79.0324 80.0381 79.0331 80.0403C79.0492 80.086 79.0864 80.1176 79.1286 80.1275Z" fill="#121212"/>
<path d="M71.3077 82.1899L70.6851 85.0031C70.6851 85.0031 71.5311 86.507 72.6087 86.8638C73.6849 87.2217 74.6508 86.0327 74.6508 86.0327L75.2498 83.3278L71.3077 82.1899Z" fill="#FDE2D0"/>
<path d="M71.3075 82.1899L71.0312 83.4381C71.5817 84.4568 72.8449 84.9768 74.8486 85.1386L75.2492 83.3278L71.3075 82.1899Z" fill="#FDE2D0"/>
<path d="M79.8471 76.4377C79.6818 77.2468 79.4268 78.3059 79.0464 79.3824C78.9492 79.6626 78.8413 79.9443 78.7262 80.2234C77.9011 82.2108 76.628 84.0567 74.7092 84.2918C70.7727 84.7746 69.871 81.6224 69.6521 79.3839C69.6291 79.1526 69.6136 78.9302 69.6033 78.7241C69.5906 78.4794 69.5906 78.2098 69.5996 77.9243C69.6404 76.7846 69.8415 75.3935 70.0339 74.2882C70.2542 73.0135 71.2417 72.0274 72.4856 71.8447C74.2763 71.5791 76.8933 71.6518 78.9557 73.598C79.7179 74.3156 80.0574 75.3946 79.8471 76.4377Z" fill="#FDE2D0"/>
<path d="M76.4834 78.2258C76.4171 78.5262 76.513 78.805 76.6978 78.8487C76.8827 78.8923 77.0868 78.6841 77.1531 78.384C77.2198 78.0836 77.1236 77.8048 76.9387 77.7612C76.7538 77.7175 76.5497 77.9254 76.4834 78.2258Z" fill="#3C3C48"/>
<path d="M72.562 77.301C72.4957 77.6014 72.5916 77.8802 72.7764 77.9239C72.9613 77.9675 73.1651 77.7593 73.2318 77.4592C73.2981 77.1588 73.2022 76.88 73.0173 76.8363C72.8321 76.7927 72.6283 77.0009 72.562 77.301Z" fill="#3C3C48"/>
<path d="M78.2769 76.892C78.2769 76.892 77.0085 75.9946 75.8296 76.2199L75.8052 76.7555C75.8052 76.7555 77.0271 76.7618 78.0683 77.4684C78.1916 77.2481 78.3136 77.1573 78.2769 76.892Z" fill="#3C3C48"/>
<path d="M71.8976 75.3877C71.8976 75.3877 73.4175 75.1479 74.3848 75.8796L74.1814 76.373C74.1814 76.373 73.0783 75.8311 71.843 76.0006C71.8248 75.7463 71.753 75.6101 71.8976 75.3877Z" fill="#3C3C48"/>
<path d="M74.2816 79.7283C74.0631 79.6768 73.8658 79.5378 73.8356 79.5158C73.7758 79.4722 73.7614 79.3871 73.8033 79.325C73.8452 79.2629 73.9284 79.248 73.9882 79.2917C74.0943 79.3683 74.3579 79.5112 74.4964 79.4647C74.5232 79.4559 74.5613 79.4346 74.5878 79.3551C74.7379 78.8994 74.9603 77.306 74.9627 77.2901C74.973 77.2152 75.0403 77.1631 75.1132 77.1737C75.186 77.1844 75.2362 77.2539 75.2259 77.3287C75.2166 77.3954 74.9977 78.9636 74.8397 79.4431C74.7802 79.6236 74.6651 79.696 74.5792 79.7251C74.484 79.757 74.3806 79.7517 74.2816 79.7283Z" fill="#FDE2D0"/>
<path d="M75.2943 81.2391C75.0967 81.6779 74.6012 82.4515 73.6071 82.2011C72.611 81.9503 72.5151 81.1047 72.545 80.5464L75.2943 81.2391Z" fill="white"/>
<path d="M78.5194 79.2576C78.7393 78.7295 78.9933 78.041 79.0039 77.6597C79.0208 76.9847 78.5871 76.4832 78.8974 75.9018C79.2084 75.318 78.7191 74.499 78.2737 74.2773C77.8301 74.0545 76.6803 74.0372 75.7185 73.2536C74.8007 72.5052 72.93 72.4446 72.4871 73.0582C71.9511 73.8009 72.4143 73.9925 71.2532 74.6586C70.7906 74.9243 71.0411 75.9564 70.9731 76.5733C70.9412 76.857 70.9154 76.9929 70.8391 77.2876L70.8016 77.4377L69.6484 77.1656C69.7278 76.203 69.8828 75.1573 70.0336 74.2872C70.2542 73.0132 71.2432 72.0282 72.4861 71.8444C74.2777 71.5795 76.8931 71.6515 78.9575 73.5984C79.7187 74.317 80.0585 75.3946 79.8472 76.4374C79.6833 77.2472 79.4273 78.3053 79.0483 79.3825L78.5194 79.2576Z" fill="#3C3C48"/>
<path d="M70.045 77.8004C70.1175 77.49 70.1653 77.1733 70.1804 76.8544C70.2013 76.4181 70.1677 76.0099 69.7904 75.7371C69.4869 75.5175 69.1306 75.4307 68.7904 75.7598C67.9527 76.5699 67.9898 79.7147 69.6749 79.3855L70.045 77.8004Z" fill="#FDE2D0"/>
<path d="M69.5712 78.448C69.5183 78.4235 69.4853 78.365 69.4942 78.3025C69.6272 77.3821 68.9509 76.6709 68.9441 76.6642C68.8925 76.6106 68.8922 76.5237 68.9441 76.4705C68.9956 76.417 69.0798 76.4166 69.1317 76.4702C69.1636 76.5028 69.9103 77.2835 69.7571 78.3433C69.7461 78.4182 69.6787 78.47 69.6062 78.4586C69.5939 78.4565 69.5822 78.4529 69.5712 78.448Z" fill="#FDE2D0"/>
<path d="M68.9221 77.653C68.8994 77.6424 68.8795 77.6257 68.8654 77.6027C68.8252 77.5392 68.8427 77.4544 68.9042 77.4129C68.9145 77.4061 69.1588 77.2448 69.5234 77.2451C69.5963 77.2448 69.656 77.3065 69.656 77.3824C69.656 77.4583 69.5966 77.5193 69.5231 77.5193C69.241 77.5189 69.0506 77.6417 69.0489 77.6427C69.0097 77.669 68.9619 77.6711 68.9221 77.653Z" fill="#FDE2D0"/>
<path d="M75.3875 78.1867C75.5795 77.3035 76.4321 76.7466 77.2874 76.9449C78.143 77.1431 78.6828 78.0231 78.4904 78.906C78.2983 79.7892 77.4458 80.3461 76.5905 80.1478C75.7349 79.9499 75.1954 79.0699 75.3875 78.1867ZM75.6294 78.2427C75.4672 78.9883 75.9228 79.731 76.6448 79.8984C77.3671 80.0659 78.0863 79.5955 78.2485 78.8499C78.4107 78.1044 77.955 77.362 77.2331 77.1946C76.5108 77.0272 75.7916 77.4975 75.6294 78.2427Z" fill="white"/>
<path d="M71.1467 77.2038C71.3388 76.3206 72.1913 75.7637 73.0466 75.9619C73.9022 76.1602 74.4417 77.0402 74.2496 77.9231C74.0575 78.8063 73.205 79.3632 72.3497 79.1649C71.4945 78.9666 70.9546 78.0866 71.1467 77.2038ZM71.3886 77.2598C71.2264 78.0054 71.6821 78.7478 72.404 78.9152C73.126 79.0826 73.8455 78.6123 74.0077 77.8667C74.1699 77.1215 73.7143 76.3787 72.9923 76.2113C72.2704 76.0439 71.5508 76.5142 71.3886 77.2598Z" fill="white"/>
<path d="M78.3408 78.3296C78.3714 78.3367 78.4051 78.3317 78.4339 78.3129C78.4425 78.3073 79.3009 77.7649 80.1771 78.2019C80.2386 78.2328 80.3129 78.2062 80.3428 78.1423C80.3727 78.0788 80.3469 78.0022 80.285 77.9714C79.283 77.4716 78.3418 78.0703 78.302 78.0962C78.2443 78.1338 78.2267 78.2129 78.2632 78.2725C78.2814 78.303 78.3099 78.3225 78.3408 78.3296Z" fill="white"/>
<path d="M71.4927 76.7419C71.5322 76.7511 71.5752 76.7401 71.6064 76.7089C71.6556 76.6596 71.6566 76.5787 71.6089 76.528C71.5693 76.4861 70.6306 75.5004 69.6619 75.4426C69.5935 75.4384 69.5347 75.4926 69.531 75.5629C69.5272 75.6334 69.5787 75.6937 69.6474 75.698C70.5196 75.7498 71.4219 76.6965 71.4309 76.7061C71.4484 76.7249 71.47 76.7366 71.4927 76.7419Z" fill="white"/>
<path d="M74.2429 77.5436C74.2463 77.5404 74.6208 77.2059 74.9988 77.2935C75.3727 77.38 75.5455 77.8408 75.5473 77.8454L75.7795 77.7557C75.7706 77.7316 75.5596 77.1612 75.0535 77.0434C74.5508 76.9267 74.0979 77.3343 74.0786 77.3517L74.2429 77.5436Z" fill="white"/>
<path d="M109.862 109.748C111.751 105.833 110.205 101.079 106.415 99.1302C102.622 97.1804 98.016 98.7755 96.1284 102.688L91.139 100.127L87.2104 108.461C87.074 108.38 86.9317 108.304 86.7853 108.23C82.9742 106.317 78.3824 107.953 76.5292 111.887C74.676 115.821 76.2632 120.558 80.074 122.471C80.2207 122.545 80.3675 122.612 80.5156 122.676L77.2883 129.524C77.2876 129.524 77.2872 129.523 77.2865 129.523L77.1443 129.822L103.688 143.464L117.945 113.901L109.862 109.748Z" fill="#FF7312"/>
<path d="M96.2018 108.289C96.151 108.034 95.3129 107.706 94.5033 107.446C94.5109 107.417 94.5184 107.386 94.5253 107.356C95.6551 107.585 97.6055 107.909 97.4372 107.362C97.3269 107.004 95.6671 106.674 94.662 106.505C94.6682 106.449 94.6737 106.394 94.6789 106.338C95.8792 106.521 98.2199 106.805 97.9973 106.196C97.8488 105.79 95.7953 105.522 94.7373 105.41C94.7394 105.36 94.7407 105.312 94.7421 105.264C95.7665 105.377 97.7347 105.519 97.5131 104.913C97.3124 104.365 94.2672 104.315 94.2672 104.315L93.1326 104.152C93.1326 104.152 93.1333 103.743 93.9487 103.468C94.7641 103.195 95.1383 102.598 94.0978 102.663C92.9219 102.736 91.9169 103.173 91.0966 103.197C90.2764 103.221 89.43 104.067 89.43 104.067L89.0957 106.351C89.0957 106.351 92.0725 108.203 94.0202 108.154C95.0407 108.453 96.2901 108.734 96.2018 108.289Z" fill="#FDE2D0"/>
<path d="M64.1005 85.4893C66.3822 88.2619 74.6903 97.9502 76.4967 98.9522C78.8481 100.256 86.2096 102.238 89.9197 103.304C90.5891 103.496 89.508 106.989 89.508 106.989C89.508 106.989 78.9251 105.545 74.9147 103.559C73.7804 102.998 69.3274 99.9674 66.0629 96.3022C64.9444 95.0466 63.3521 92.8886 62.6408 90.9633C61.7852 88.6475 62.5635 86.5399 64.1005 85.4893Z" fill="#D3D3D3"/>
<path d="M143.651 156.124H139.946C139.442 156.124 138.996 155.534 138.84 154.664L137.269 145.88C137.205 145.521 137.342 145.147 137.55 145.118C140.411 144.715 143.243 144.715 146.048 145.117C146.255 145.147 146.393 145.52 146.328 145.879L144.757 154.664C144.601 155.535 144.155 156.124 143.651 156.124Z" fill="#3C3C48"/>
<path d="M145.999 145.756C145.999 145.99 144.13 146.179 141.824 146.179C139.518 146.179 137.648 145.99 137.648 145.756C137.648 145.522 139.518 145.333 141.824 145.333C144.13 145.333 145.999 145.523 145.999 145.756Z" fill="#121212"/>
<path d="M148.84 133.885C146.614 133.28 143.214 138.048 142.181 142.696V135.923C142.701 134.973 143.69 133.543 145.487 132.033C148.281 129.684 150.854 126.669 148.624 126.062C146.535 125.494 143.41 129.662 142.181 134.021V125.323C142.541 124.746 143.131 123.989 144.074 123.196C145.835 121.716 147.456 119.816 146.051 119.434C144.832 119.102 143.052 121.33 142.181 123.843V121.024C142.325 120.152 142.529 118.906 143.088 117.633C144.383 114.683 145.083 111.643 143.375 111.869C141.666 112.095 140.557 117.35 141.492 121.384V122.835C140.861 119.883 138.694 116.825 137.28 117.21C135.875 117.592 137.496 119.492 139.257 120.972C140.598 122.099 141.225 123.154 141.492 123.721V130.574C140.479 125.901 137.055 121.079 134.817 121.687C132.588 122.293 135.16 125.308 137.955 127.658C140.066 129.433 141.064 131.096 141.492 132.001V140.218C140.409 135.631 137.072 131.002 134.878 131.599C132.648 132.205 134.56 134.409 137.7 137.073C139.835 138.884 140.978 140.796 141.491 141.835V145.705C141.74 145.777 141.974 145.777 142.18 145.705V144.165C142.617 143.253 143.616 141.609 145.701 139.855C148.497 137.506 151.069 134.491 148.84 133.885Z" fill="#95C6AF"/>
</svg>
