<svg width="19" height="18" viewBox="0 0 19 18" fill="none" xmlns="http://www.w3.org/2000/svg">
<path d="M9.66361 0C5.90225 0 2.58639 2.30914 1.26018 5.78893L1.21454 5.70021C1.05189 5.38457 0.664894 5.25793 0.348608 5.42314C0.0329651 5.58579 -0.0911063 5.97279 0.0715365 6.28907L1.00239 8.09679C1.09432 8.27486 1.26404 8.40021 1.46075 8.43493C1.49868 8.442 1.53597 8.44521 1.57389 8.44521C1.73332 8.44521 1.88889 8.38543 2.00847 8.27614L3.71718 6.7095C3.97882 6.46971 3.99682 6.06279 3.75704 5.80114C3.51725 5.54014 3.11032 5.5215 2.84868 5.76129L2.53368 6.04993C3.71782 3.177 6.51039 1.28571 9.66425 1.28571C13.918 1.28571 17.3785 4.74621 17.3785 9C17.3785 13.2538 13.918 16.7143 9.66425 16.7143C6.51682 16.7143 3.71268 14.832 2.52147 11.9186C2.38711 11.5907 2.01104 11.4332 1.68318 11.5669C1.35468 11.7013 1.19718 12.0767 1.33154 12.4059C2.72204 15.804 5.99289 18 9.66489 18C14.6278 18 18.6649 13.9629 18.6649 9C18.6649 4.03714 14.6265 0 9.66361 0Z" fill="url(#paint0_linear_2187_655)"/>
<path d="M12.221 11.5194C12.0873 11.5194 11.9516 11.4776 11.8359 11.3908L9.26447 9.46225C9.10247 9.34139 9.00732 9.15046 9.00732 8.94796V5.73368C9.00732 5.37818 9.29532 5.09082 9.65018 5.09082C10.005 5.09082 10.293 5.37818 10.293 5.73368V8.62653L12.6073 10.3622C12.8915 10.575 12.9487 10.9781 12.7359 11.2616C12.6099 11.4307 12.4164 11.5194 12.221 11.5194Z" fill="url(#paint1_linear_2187_655)"/>
<defs>
<linearGradient id="paint0_linear_2187_655" x1="9.33245" y1="0.230769" x2="9.33245" y2="17.3077" gradientUnits="userSpaceOnUse">
<stop stop-color="#FF7312"/>
<stop offset="1" stop-color="#182452"/>
</linearGradient>
<linearGradient id="paint1_linear_2187_655" x1="10.9359" y1="5.17324" x2="10.9359" y2="11.2721" gradientUnits="userSpaceOnUse">
<stop stop-color="#FF7312"/>
<stop offset="1" stop-color="#182452"/>
</linearGradient>
</defs>
</svg>
