<svg width="24" height="24" viewBox="0 0 24 24" fill="none" xmlns="http://www.w3.org/2000/svg">
<path d="M12.6636 3C8.90225 3 5.58639 5.30914 4.26018 8.78893L4.21454 8.70021C4.05189 8.38457 3.66489 8.25793 3.34861 8.42314C3.03297 8.58579 2.90889 8.97279 3.07154 9.28907L4.00239 11.0968C4.09432 11.2749 4.26404 11.4002 4.46075 11.4349C4.49868 11.442 4.53597 11.4452 4.57389 11.4452C4.73332 11.4452 4.88889 11.3854 5.00847 11.2761L6.71718 9.7095C6.97882 9.46971 6.99682 9.06279 6.75704 8.80114C6.51725 8.54014 6.11032 8.5215 5.84868 8.76129L5.53368 9.04993C6.71782 6.177 9.51039 4.28571 12.6643 4.28571C16.918 4.28571 20.3785 7.74621 20.3785 12C20.3785 16.2538 16.918 19.7143 12.6643 19.7143C9.51682 19.7143 6.71268 17.832 5.52147 14.9186C5.38711 14.5907 5.01104 14.4332 4.68318 14.5669C4.35468 14.7013 4.19718 15.0767 4.33154 15.4059C5.72204 18.804 8.99289 21 12.6649 21C17.6278 21 21.6649 16.9629 21.6649 12C21.6649 7.03714 17.6265 3 12.6636 3Z" fill="#121212"/>
<path d="M15.221 14.5194C15.0873 14.5194 14.9516 14.4776 14.8359 14.3908L12.2645 12.4622C12.1025 12.3414 12.0073 12.1505 12.0073 11.948V8.73368C12.0073 8.37818 12.2953 8.09082 12.6502 8.09082C13.005 8.09082 13.293 8.37818 13.293 8.73368V11.6265L15.6073 13.3622C15.8915 13.575 15.9487 13.9781 15.7359 14.2616C15.6099 14.4307 15.4164 14.5194 15.221 14.5194Z" fill="#121212"/>
</svg>
