<svg width="24" height="24" viewBox="0 0 24 24" fill="none" xmlns="http://www.w3.org/2000/svg">
<path d="M13.0576 12.0016L17.7712 7.28784C17.8428 7.21874 17.8998 7.13609 17.9391 7.0447C17.9783 6.95331 17.999 6.85502 17.9999 6.75556C18.0007 6.6561 17.9818 6.55747 17.9441 6.46541C17.9065 6.37336 17.8508 6.28972 17.7805 6.21939C17.7102 6.14906 17.6265 6.09344 17.5345 6.05578C17.4424 6.01812 17.3438 5.99916 17.2443 6.00003C17.1449 6.00089 17.0466 6.02156 16.9552 6.06081C16.8638 6.10007 16.7812 6.15714 16.7121 6.22868L11.9983 10.9423L7.28466 6.22868C7.14367 6.09079 6.95399 6.01406 6.75678 6.01514C6.55958 6.01623 6.37075 6.09504 6.23129 6.23448C6.09183 6.37391 6.01299 6.56272 6.01187 6.75993C6.01074 6.95714 6.08744 7.14683 6.22531 7.28784L10.9391 12.0016L6.22531 16.7154C6.15448 16.7847 6.0981 16.8673 6.05942 16.9586C6.02075 17.0498 6.00056 17.1477 6.00001 17.2468C5.99947 17.3459 6.01858 17.4441 6.05624 17.5357C6.09391 17.6274 6.14938 17.7106 6.21944 17.7807C6.2895 17.8507 6.37276 17.9062 6.4644 17.9438C6.55604 17.9815 6.65424 18.0006 6.75331 18C6.85238 17.9994 6.95036 17.9792 7.04156 17.9405C7.13277 17.9018 7.2154 17.8454 7.28466 17.7746L11.9983 13.061L16.7121 17.7746C16.8583 17.9209 17.0501 17.9941 17.2416 17.9941C17.4332 17.9941 17.6252 17.9209 17.7712 17.7746C17.9117 17.6341 17.9905 17.4436 17.9905 17.245C17.9905 17.0464 17.9117 16.8559 17.7712 16.7154L13.0576 12.0016Z" fill="#868686"/>
</svg>
