<svg width="24" height="24" viewBox="0 0 24 24" fill="none" xmlns="http://www.w3.org/2000/svg">
<path fill-rule="evenodd" clip-rule="evenodd" d="M4 10.6523C4.01441 6.41168 7.46376 2.98568 11.7043 3.00004C15.9449 3.0145 19.3709 6.46385 19.3566 10.7044V10.7914C19.3044 13.5479 17.7652 16.0957 15.8783 18.087C14.7991 19.2077 13.594 20.1998 12.287 21.0436C11.9375 21.3459 11.4191 21.3459 11.0696 21.0436C9.12107 19.7753 7.41094 18.1741 6.01739 16.3131C4.77535 14.6903 4.07017 12.7207 4 10.6784V10.6523Z" stroke="#868686" stroke-width="1.5" stroke-linecap="round" stroke-linejoin="round"/>
<path d="M11.6778 13.261C13.037 13.261 14.1388 12.1592 14.1388 10.8C14.1388 9.44082 13.037 8.33899 11.6778 8.33899C10.3186 8.33899 9.2168 9.44082 9.2168 10.8C9.2168 12.1592 10.3186 13.261 11.6778 13.261Z" stroke="#868686" stroke-width="1.5" stroke-linecap="round" stroke-linejoin="round"/>
</svg>
