<svg width="264" height="164" viewBox="0 0 264 164" fill="none" xmlns="http://www.w3.org/2000/svg">
<path d="M158.603 26.4325C158.436 27.8132 158.369 29.1883 158.413 30.5352C158.582 35.6459 160.946 41.745 165.743 44.2258C171.722 47.3171 179.234 44.1074 185.511 46.1525C195.235 49.3204 203.319 62.1833 214.366 55.1106C222.511 49.8955 225.465 37.4018 223.739 28.4112C220.707 12.6174 206.397 0.61973 190.389 0.0262037C180.121 -0.354479 169.999 3.40269 164.087 11.9533C161.239 16.071 159.225 21.2896 158.603 26.4325Z" fill="#F2F2F2"/>
<path d="M5.43412 158.397H250.595H250.991C258.485 141.316 261.463 122.278 259.02 103.786C257.761 94.2538 254.936 84.499 248.339 77.5042C244.156 73.0705 238.695 70.015 233.008 67.8237C219.056 62.4479 203.243 62.0523 189.041 66.7239C179.704 69.7949 170.304 75.053 160.668 73.1152C156.47 72.271 152.66 70.0977 149.124 67.6836C130.219 54.7796 115.747 33.6589 93.3804 28.7976C78.9154 25.6538 63.4995 30.3042 51.4589 38.9148C39.4183 47.5254 30.4086 59.7647 23.164 72.6734C8.53342 98.743 1.09569 128.82 5.43412 158.397Z" fill="#F2F2F2"/>
<path opacity="0.1" d="M211.862 89.815C199.469 97.4821 189.253 108.124 178.967 118.448C172.617 124.82 165.902 131.298 157.426 134.31C151.137 136.546 144.305 136.704 137.639 136.35C126.093 135.737 114.625 133.656 103.6 130.173C90.146 125.924 77.3861 119.611 63.7885 115.847C43.7397 110.298 22.1271 110.526 2.19986 116.497C1.58132 132.162 0.87147 147.863 0.25293 163.528C17.6922 164.87 35.1949 163.033 52.6543 161.984C114.742 158.25 176.882 164.458 238.995 162.302C247.093 162.021 255.392 161.97 263.44 160.969C263.726 159.628 263.589 158.065 263.627 156.689C263.669 155.136 263.7 153.584 263.72 152.031C263.76 148.925 263.755 145.818 263.706 142.712C263.608 136.501 263.332 130.292 262.878 124.096C262.126 113.811 260.884 103.561 259.157 93.394C258.685 90.6101 258.152 87.8091 257.151 85.1593C256.511 83.4678 255.694 81.2242 253.796 80.612C252.108 80.0673 249.961 80.2358 248.205 80.0635C245.484 79.7963 242.739 79.7875 240.014 80.0048C230.005 80.8025 220.353 84.5622 211.862 89.815Z" fill="#F2F2F2"/>
<path d="M167.132 92.8977H53.7851C52.5567 92.8977 51.561 91.902 51.561 90.6737V15.6176C51.561 14.3892 52.5567 13.3936 53.7851 13.3936H167.132C168.36 13.3936 169.356 14.3892 169.356 15.6176V90.6737C169.356 91.902 168.36 92.8977 167.132 92.8977Z" fill="#FFF8F4"/>
<mask id="mask0_7343_942" style="mask-type:luminance" maskUnits="userSpaceOnUse" x="51" y="13" width="119" height="80">
<path d="M167.132 92.9006H53.7851C52.5567 92.9006 51.561 91.9049 51.561 90.6766V15.6205C51.561 14.3922 52.5567 13.3965 53.7851 13.3965H167.132C168.36 13.3965 169.356 14.3922 169.356 15.6205V90.6766C169.356 91.9049 168.36 92.9006 167.132 92.9006Z" fill="white"/>
</mask>
<g mask="url(#mask0_7343_942)">
<path d="M174.694 8.87598H45.7642V22.0741H174.694V8.87598Z" fill="#FF7312"/>
</g>
<path d="M57.7958 19.7118C58.6857 19.7118 59.4071 18.9904 59.4071 18.1005C59.4071 17.2106 58.6857 16.4893 57.7958 16.4893C56.906 16.4893 56.1846 17.2106 56.1846 18.1005C56.1846 18.9904 56.906 19.7118 57.7958 19.7118Z" fill="#FFF8F4"/>
<path d="M63.6489 19.7118C64.5387 19.7118 65.2601 18.9904 65.2601 18.1005C65.2601 17.2106 64.5387 16.4893 63.6489 16.4893C62.759 16.4893 62.0376 17.2106 62.0376 18.1005C62.0376 18.9904 62.759 19.7118 63.6489 19.7118Z" fill="#FFF8F4"/>
<path d="M69.5004 19.7118C70.3903 19.7118 71.1117 18.9904 71.1117 18.1005C71.1117 17.2106 70.3903 16.4893 69.5004 16.4893C68.6105 16.4893 67.8892 17.2106 67.8892 18.1005C67.8892 18.9904 68.6105 19.7118 69.5004 19.7118Z" fill="#FFF8F4"/>
<path d="M165.607 92.1376H53.4275C51.8025 92.1376 50.4805 90.8155 50.4805 89.1906V15.3015C50.4805 13.6765 51.8024 12.3545 53.4275 12.3545H165.607C167.232 12.3545 168.554 13.6765 168.554 15.3015V89.1905C168.554 90.8155 167.232 92.1376 165.607 92.1376ZM53.4275 12.6334C51.9563 12.6334 50.7594 13.8304 50.7594 15.3015V89.1905C50.7594 90.6616 51.9563 91.8586 53.4275 91.8586H165.607C167.079 91.8586 168.276 90.6616 168.276 89.1905V15.3015C168.276 13.8304 167.079 12.6334 165.607 12.6334H53.4275Z" fill="#102A54"/>
<path d="M87.3635 85.203H57.9418C57.3089 85.203 56.7959 84.69 56.7959 84.0572V30.3334C56.7959 29.7005 57.3089 29.1875 57.9418 29.1875H87.3635C87.9964 29.1875 88.5094 29.7005 88.5094 30.3334V84.0571C88.5095 84.6899 87.9964 85.203 87.3635 85.203Z" fill="#E0E0E0"/>
<path d="M70.5155 47.492H59.2378C58.9473 47.492 58.7119 47.2566 58.7119 46.9661V32.2925C58.7119 32.002 58.9473 31.7666 59.2378 31.7666H70.5155C70.806 31.7666 71.0414 32.002 71.0414 32.2925V46.9662C71.0414 47.2566 70.8059 47.492 70.5155 47.492Z" fill="#F2F2F2"/>
<path d="M74.1918 33.7362C74.7357 33.7362 75.1767 33.2953 75.1767 32.7514C75.1767 32.2075 74.7357 31.7666 74.1918 31.7666C73.6479 31.7666 73.207 32.2075 73.207 32.7514C73.207 33.2953 73.6479 33.7362 74.1918 33.7362Z" fill="#F2F2F2"/>
<path d="M86.6176 32.3984H77.165C77.0488 32.3984 76.9546 32.3042 76.9546 32.188C76.9546 32.0717 77.0488 31.9775 77.165 31.9775H86.6176C86.7338 31.9775 86.828 32.0717 86.828 32.188C86.8279 32.3042 86.7337 32.3984 86.6176 32.3984Z" fill="#F2F2F2"/>
<path d="M86.6176 33.5253H77.165C77.0488 33.5253 76.9546 33.4312 76.9546 33.3149C76.9546 33.1987 77.0488 33.1045 77.165 33.1045H86.6176C86.7338 33.1045 86.828 33.1987 86.828 33.3149C86.8279 33.4312 86.7337 33.5253 86.6176 33.5253Z" fill="#F2F2F2"/>
<path d="M86.6176 34.6543H77.165C77.0488 34.6543 76.9546 34.5601 76.9546 34.4438C76.9546 34.3276 77.0488 34.2334 77.165 34.2334H86.6176C86.7338 34.2334 86.828 34.3276 86.828 34.4438C86.8279 34.5601 86.7337 34.6543 86.6176 34.6543Z" fill="#F2F2F2"/>
<path d="M75.1591 37.0375C75.2601 36.5031 74.9087 35.988 74.3743 35.8871C73.8398 35.7861 73.3247 36.1375 73.2238 36.672C73.1228 37.2064 73.4743 37.7215 74.0087 37.8224C74.5431 37.9234 75.0582 37.572 75.1591 37.0375Z" fill="#F2F2F2"/>
<path d="M86.6176 36.496H77.165C77.0488 36.496 76.9546 36.4019 76.9546 36.2856C76.9546 36.1694 77.0488 36.0752 77.165 36.0752H86.6176C86.7338 36.0752 86.828 36.1694 86.828 36.2856C86.8279 36.4018 86.7337 36.496 86.6176 36.496Z" fill="#F2F2F2"/>
<path d="M86.6176 37.623H77.165C77.0488 37.623 76.9546 37.5288 76.9546 37.4126C76.9546 37.2963 77.0488 37.2021 77.165 37.2021H86.6176C86.7338 37.2021 86.828 37.2963 86.828 37.4126C86.8279 37.5288 86.7337 37.623 86.6176 37.623Z" fill="#F2F2F2"/>
<path d="M86.6176 38.7529H77.165C77.0488 38.7529 76.9546 38.6587 76.9546 38.5425C76.9546 38.4262 77.0488 38.332 77.165 38.332H86.6176C86.7338 38.332 86.828 38.4262 86.828 38.5425C86.8279 38.6586 86.7337 38.7529 86.6176 38.7529Z" fill="#F2F2F2"/>
<path d="M75.1601 41.1303C75.2611 40.5959 74.9097 40.0808 74.3752 39.9799C73.8408 39.8789 73.3257 40.2303 73.2248 40.7648C73.1238 41.2992 73.4752 41.8143 74.0097 41.9152C74.5441 42.0161 75.0592 41.6647 75.1601 41.1303Z" fill="#F2F2F2"/>
<path d="M86.6176 40.5898H77.165C77.0488 40.5898 76.9546 40.4956 76.9546 40.3794C76.9546 40.2631 77.0488 40.1689 77.165 40.1689H86.6176C86.7338 40.1689 86.828 40.2631 86.828 40.3794C86.8279 40.4956 86.7337 40.5898 86.6176 40.5898Z" fill="#F2F2F2"/>
<path d="M86.6176 41.7177H77.165C77.0488 41.7177 76.9546 41.6235 76.9546 41.5073C76.9546 41.3911 77.0488 41.2969 77.165 41.2969H86.6176C86.7338 41.2969 86.828 41.3911 86.828 41.5073C86.8279 41.6235 86.7337 41.7177 86.6176 41.7177Z" fill="#F2F2F2"/>
<path d="M86.6176 42.8476H77.165C77.0488 42.8476 76.9546 42.7534 76.9546 42.6372C76.9546 42.521 77.0488 42.4268 77.165 42.4268H86.6176C86.7338 42.4268 86.828 42.521 86.828 42.6372C86.8279 42.7534 86.7337 42.8476 86.6176 42.8476Z" fill="#F2F2F2"/>
<path d="M74.6965 45.8907C75.165 45.6144 75.3209 45.0106 75.0446 44.5421C74.7683 44.0736 74.1645 43.9178 73.696 44.1941C73.2275 44.4704 73.0716 45.0741 73.3479 45.5427C73.6242 46.0112 74.228 46.167 74.6965 45.8907Z" fill="#F2F2F2"/>
<path d="M86.6176 44.6884H77.165C77.0488 44.6884 76.9546 44.5942 76.9546 44.478C76.9546 44.3618 77.0488 44.2676 77.165 44.2676H86.6176C86.7338 44.2676 86.828 44.3618 86.828 44.478C86.8279 44.5942 86.7337 44.6884 86.6176 44.6884Z" fill="#F2F2F2"/>
<path d="M86.6171 45.8164H77.1645C77.0483 45.8164 76.9541 45.7222 76.9541 45.6059C76.9541 45.4897 77.0483 45.3955 77.1645 45.3955H86.6171C86.7333 45.3955 86.8275 45.4897 86.8275 45.6059C86.8274 45.7222 86.7332 45.8164 86.6171 45.8164Z" fill="#F2F2F2"/>
<path d="M86.6171 46.9453H77.1645C77.0483 46.9453 76.9541 46.8511 76.9541 46.7348C76.9541 46.6186 77.0483 46.5244 77.1645 46.5244H86.6171C86.7333 46.5244 86.8275 46.6186 86.8275 46.7348C86.8274 46.8511 86.7332 46.9453 86.6171 46.9453Z" fill="#F2F2F2"/>
<path d="M70.3988 64.868H59.1211C58.8307 64.868 58.5952 64.6326 58.5952 64.3421V49.6685C58.5952 49.378 58.8307 49.1426 59.1211 49.1426H70.3988C70.6893 49.1426 70.9247 49.378 70.9247 49.6685V64.3422C70.9247 64.6326 70.6893 64.868 70.3988 64.868Z" fill="#F2F2F2"/>
<path d="M74.0746 51.1122C74.6185 51.1122 75.0595 50.6713 75.0595 50.1274C75.0595 49.5835 74.6185 49.1426 74.0746 49.1426C73.5308 49.1426 73.0898 49.5835 73.0898 50.1274C73.0898 50.6713 73.5308 51.1122 74.0746 51.1122Z" fill="#F2F2F2"/>
<path d="M86.5004 49.7744H77.0478C76.9316 49.7744 76.8374 49.6802 76.8374 49.5639C76.8374 49.4477 76.9316 49.3535 77.0478 49.3535H86.5004C86.6166 49.3535 86.7108 49.4477 86.7108 49.5639C86.7108 49.6802 86.6166 49.7744 86.5004 49.7744Z" fill="#F2F2F2"/>
<path d="M86.5004 50.9013H77.0478C76.9316 50.9013 76.8374 50.8071 76.8374 50.6909C76.8374 50.5747 76.9316 50.4805 77.0478 50.4805H86.5004C86.6166 50.4805 86.7108 50.5747 86.7108 50.6909C86.7108 50.8071 86.6166 50.9013 86.5004 50.9013Z" fill="#F2F2F2"/>
<path d="M86.5004 52.0302H77.0478C76.9316 52.0302 76.8374 51.936 76.8374 51.8198C76.8374 51.7036 76.9316 51.6094 77.0478 51.6094H86.5004C86.6166 51.6094 86.7108 51.7036 86.7108 51.8198C86.7108 51.936 86.6166 52.0302 86.5004 52.0302Z" fill="#F2F2F2"/>
<path d="M75.0323 54.4478C75.1567 53.9183 74.8283 53.3882 74.2988 53.2639C73.7693 53.1395 73.2393 53.4679 73.1149 53.9973C72.9905 54.5268 73.3189 55.0569 73.8484 55.1813C74.3778 55.3057 74.9079 54.9773 75.0323 54.4478Z" fill="#F2F2F2"/>
<path d="M86.5009 53.872H77.0483C76.9321 53.872 76.8379 53.7778 76.8379 53.6616C76.8379 53.5454 76.9321 53.4512 77.0483 53.4512H86.5009C86.6171 53.4512 86.7113 53.5454 86.7113 53.6616C86.7113 53.7778 86.6171 53.872 86.5009 53.872Z" fill="#F2F2F2"/>
<path d="M86.5009 55H77.0483C76.9321 55 76.8379 54.9058 76.8379 54.7895C76.8379 54.6733 76.9321 54.5791 77.0483 54.5791H86.5009C86.6171 54.5791 86.7113 54.6733 86.7113 54.7895C86.7113 54.9058 86.6171 55 86.5009 55Z" fill="#F2F2F2"/>
<path d="M86.5009 56.1269H77.0483C76.9321 56.1269 76.8379 56.0327 76.8379 55.9165C76.8379 55.8002 76.9321 55.7061 77.0483 55.7061H86.5009C86.6171 55.7061 86.7113 55.8002 86.7113 55.9165C86.7113 56.0327 86.6171 56.1269 86.5009 56.1269Z" fill="#F2F2F2"/>
<path d="M75.0323 58.5455C75.1567 58.016 74.8283 57.4859 74.2988 57.3615C73.7693 57.2371 73.2393 57.5655 73.1149 58.095C72.9905 58.6245 73.3189 59.1545 73.8484 59.2789C74.3778 59.4033 74.9079 59.0749 75.0323 58.5455Z" fill="#F2F2F2"/>
<path d="M86.5004 57.9697H77.0478C76.9316 57.9697 76.8374 57.8755 76.8374 57.7593C76.8374 57.643 76.9316 57.5488 77.0478 57.5488H86.5004C86.6166 57.5488 86.7108 57.643 86.7108 57.7593C86.7108 57.8755 86.6166 57.9697 86.5004 57.9697Z" fill="#F2F2F2"/>
<path d="M86.5004 59.0976H77.0478C76.9316 59.0976 76.8374 59.0034 76.8374 58.8872C76.8374 58.771 76.9316 58.6768 77.0478 58.6768H86.5004C86.6166 58.6768 86.7108 58.771 86.7108 58.8872C86.7108 59.0034 86.6166 59.0976 86.5004 59.0976Z" fill="#F2F2F2"/>
<path d="M86.5004 60.2246H77.0478C76.9316 60.2246 76.8374 60.1304 76.8374 60.0141C76.8374 59.8979 76.9316 59.8037 77.0478 59.8037H86.5004C86.6166 59.8037 86.7108 59.8979 86.7108 60.0141C86.7108 60.1303 86.6166 60.2246 86.5004 60.2246Z" fill="#F2F2F2"/>
<path d="M74.7702 63.1153C75.1548 62.7307 75.1548 62.1072 74.7702 61.7226C74.3856 61.338 73.7621 61.338 73.3775 61.7226C72.9929 62.1072 72.9929 62.7307 73.3775 63.1153C73.7621 63.4999 74.3856 63.4999 74.7702 63.1153Z" fill="#F2F2F2"/>
<path d="M86.5009 62.0644H77.0483C76.9321 62.0644 76.8379 61.9702 76.8379 61.854C76.8379 61.7377 76.9321 61.6436 77.0483 61.6436H86.5009C86.6171 61.6436 86.7113 61.7377 86.7113 61.854C86.7113 61.9702 86.6171 62.0644 86.5009 62.0644Z" fill="#F2F2F2"/>
<path d="M86.5009 63.1914H77.0483C76.9321 63.1914 76.8379 63.0972 76.8379 62.9809C76.8379 62.8647 76.9321 62.7705 77.0483 62.7705H86.5009C86.6171 62.7705 86.7113 62.8647 86.7113 62.9809C86.7113 63.0972 86.6171 63.1914 86.5009 63.1914Z" fill="#F2F2F2"/>
<path d="M86.5009 64.3203H77.0483C76.9321 64.3203 76.8379 64.2261 76.8379 64.1098C76.8379 63.9936 76.9321 63.8994 77.0483 63.8994H86.5009C86.6171 63.8994 86.7113 63.9936 86.7113 64.1098C86.7113 64.2261 86.6171 64.3203 86.5009 64.3203Z" fill="#F2F2F2"/>
<path d="M70.2811 82.244H59.0035C58.713 82.244 58.4775 82.0086 58.4775 81.7181V67.0445C58.4775 66.754 58.713 66.5186 59.0035 66.5186H70.2811C70.5716 66.5186 70.8071 66.754 70.8071 67.0445V81.7181C70.8071 82.0086 70.5715 82.244 70.2811 82.244Z" fill="#F2F2F2"/>
<path d="M73.9575 68.4882C74.5014 68.4882 74.9423 68.0473 74.9423 67.5034C74.9423 66.9595 74.5014 66.5186 73.9575 66.5186C73.4136 66.5186 72.9727 66.9595 72.9727 67.5034C72.9727 68.0473 73.4136 68.4882 73.9575 68.4882Z" fill="#F2F2F2"/>
<path d="M86.3827 67.1503H76.9302C76.8139 67.1503 76.7197 67.0562 76.7197 66.9399C76.7197 66.8237 76.8139 66.7295 76.9302 66.7295H86.3827C86.4989 66.7295 86.5931 66.8237 86.5931 66.9399C86.5931 67.0562 86.4989 67.1503 86.3827 67.1503Z" fill="#F2F2F2"/>
<path d="M86.3827 68.2773H76.9302C76.8139 68.2773 76.7197 68.1831 76.7197 68.0669C76.7197 67.9506 76.8139 67.8564 76.9302 67.8564H86.3827C86.4989 67.8564 86.5931 67.9506 86.5931 68.0669C86.5931 68.1831 86.4989 68.2773 86.3827 68.2773Z" fill="#F2F2F2"/>
<path d="M86.3827 69.4062H76.9302C76.8139 69.4062 76.7197 69.312 76.7197 69.1958C76.7197 69.0795 76.8139 68.9854 76.9302 68.9854H86.3827C86.4989 68.9854 86.5931 69.0795 86.5931 69.1958C86.5931 69.312 86.4989 69.4062 86.3827 69.4062Z" fill="#F2F2F2"/>
<path d="M74.9156 71.8238C75.04 71.2943 74.7116 70.7642 74.1821 70.6398C73.6526 70.5154 73.1226 70.8438 72.9982 71.3733C72.8738 71.9028 73.2022 72.4329 73.7317 72.5573C74.2611 72.6816 74.7912 72.3533 74.9156 71.8238Z" fill="#F2F2F2"/>
<path d="M86.3837 71.247H76.9311C76.8149 71.247 76.7207 71.1528 76.7207 71.0366C76.7207 70.9204 76.8149 70.8262 76.9311 70.8262H86.3837C86.4999 70.8262 86.5941 70.9204 86.5941 71.0366C86.5941 71.1528 86.4999 71.247 86.3837 71.247Z" fill="#F2F2F2"/>
<path d="M86.3832 72.3759H76.9306C76.8144 72.3759 76.7202 72.2817 76.7202 72.1655C76.7202 72.0493 76.8144 71.9551 76.9306 71.9551H86.3832C86.4994 71.9551 86.5936 72.0493 86.5936 72.1655C86.5936 72.2817 86.4994 72.3759 86.3832 72.3759Z" fill="#F2F2F2"/>
<path d="M86.3832 73.5019H76.9306C76.8144 73.5019 76.7202 73.4077 76.7202 73.2915C76.7202 73.1752 76.8144 73.0811 76.9306 73.0811H86.3832C86.4994 73.0811 86.5936 73.1752 86.5936 73.2915C86.5936 73.4077 86.4994 73.5019 86.3832 73.5019Z" fill="#F2F2F2"/>
<path d="M74.9146 75.9214C75.039 75.392 74.7106 74.8619 74.1811 74.7375C73.6517 74.6131 73.1216 74.9415 72.9972 75.471C72.8728 76.0005 73.2012 76.5305 73.7307 76.6549C74.2602 76.7793 74.7902 76.4509 74.9146 75.9214Z" fill="#F2F2F2"/>
<path d="M86.3832 75.3457H76.9306C76.8144 75.3457 76.7202 75.2515 76.7202 75.1352C76.7202 75.019 76.8144 74.9248 76.9306 74.9248H86.3832C86.4994 74.9248 86.5936 75.019 86.5936 75.1352C86.5936 75.2515 86.4994 75.3457 86.3832 75.3457Z" fill="#F2F2F2"/>
<path d="M86.3832 76.4726H76.9306C76.8144 76.4726 76.7202 76.3784 76.7202 76.2622C76.7202 76.146 76.8144 76.0518 76.9306 76.0518H86.3832C86.4994 76.0518 86.5936 76.146 86.5936 76.2622C86.5936 76.3783 86.4994 76.4726 86.3832 76.4726Z" fill="#F2F2F2"/>
<path d="M86.3832 77.6015H76.9306C76.8144 77.6015 76.7202 77.5073 76.7202 77.3911C76.7202 77.2749 76.8144 77.1807 76.9306 77.1807H86.3832C86.4994 77.1807 86.5936 77.2749 86.5936 77.3911C86.5936 77.5073 86.4994 77.6015 86.3832 77.6015Z" fill="#F2F2F2"/>
<path d="M74.6525 80.4932C75.0371 80.1086 75.0371 79.4851 74.6526 79.1005C74.268 78.7159 73.6444 78.7159 73.2598 79.1005C72.8752 79.4851 72.8752 80.1086 73.2598 80.4932C73.6444 80.8778 74.268 80.8778 74.6525 80.4932Z" fill="#F2F2F2"/>
<path d="M86.3837 79.4423H76.9311C76.8149 79.4423 76.7207 79.3481 76.7207 79.2319C76.7207 79.1157 76.8149 79.0215 76.9311 79.0215H86.3837C86.4999 79.0215 86.5941 79.1157 86.5941 79.2319C86.5941 79.3481 86.4999 79.4423 86.3837 79.4423Z" fill="#F2F2F2"/>
<path d="M86.3837 80.5693H76.9311C76.8149 80.5693 76.7207 80.4751 76.7207 80.3589C76.7207 80.2426 76.8149 80.1484 76.9311 80.1484H86.3837C86.4999 80.1484 86.5941 80.2426 86.5941 80.3589C86.5941 80.4751 86.4999 80.5693 86.3837 80.5693Z" fill="#F2F2F2"/>
<path d="M86.3832 81.6992H76.9306C76.8144 81.6992 76.7202 81.605 76.7202 81.4887C76.7202 81.3725 76.8144 81.2783 76.9306 81.2783H86.3832C86.4994 81.2783 86.5936 81.3725 86.5936 81.4887C86.5936 81.605 86.4994 81.6992 86.3832 81.6992Z" fill="#F2F2F2"/>
<path d="M68.5953 39.9214H60.9711C60.7287 39.9214 60.5322 39.7249 60.5322 39.4825V33.5053C60.5322 33.2629 60.7287 33.0664 60.9711 33.0664H68.5953C68.8377 33.0664 69.0342 33.2629 69.0342 33.5053V39.4826C69.0341 39.7249 68.8376 39.9214 68.5953 39.9214Z" fill="#E0E0E0"/>
<path d="M68.7728 41.5094H60.7937C60.6493 41.5094 60.5322 41.3923 60.5322 41.2479V41.2068C60.5322 41.0624 60.6493 40.9453 60.7937 40.9453H68.7728C68.9172 40.9453 69.0343 41.0624 69.0343 41.2068V41.2479C69.0342 41.3923 68.9171 41.5094 68.7728 41.5094Z" fill="#E0E0E0"/>
<path d="M68.7728 42.7076H60.7937C60.6493 42.7076 60.5322 42.5905 60.5322 42.4461V42.405C60.5322 42.2606 60.6493 42.1436 60.7937 42.1436H68.7728C68.9172 42.1436 69.0343 42.2606 69.0343 42.405V42.4461C69.0342 42.5905 68.9171 42.7076 68.7728 42.7076Z" fill="#E0E0E0"/>
<path d="M68.7728 43.9078H60.7937C60.6493 43.9078 60.5322 43.7907 60.5322 43.6463V43.6052C60.5322 43.4608 60.6493 43.3438 60.7937 43.3438H68.7728C68.9172 43.3438 69.0343 43.4608 69.0343 43.6052V43.6463C69.0342 43.7908 68.9171 43.9078 68.7728 43.9078Z" fill="#E0E0E0"/>
<path d="M68.7728 45.107H60.7937C60.6493 45.107 60.5322 44.9899 60.5322 44.8455V44.8044C60.5322 44.66 60.6493 44.543 60.7937 44.543H68.7728C68.9172 44.543 69.0343 44.66 69.0343 44.8044V44.8455C69.0342 44.9899 68.9171 45.107 68.7728 45.107Z" fill="#E0E0E0"/>
<path d="M68.7728 46.3062H60.7937C60.6493 46.3062 60.5322 46.1892 60.5322 46.0448V46.0037C60.5322 45.8593 60.6493 45.7422 60.7937 45.7422H68.7728C68.9172 45.7422 69.0343 45.8593 69.0343 46.0037V46.0448C69.0342 46.1892 68.9171 46.3062 68.7728 46.3062Z" fill="#E0E0E0"/>
<path d="M68.5967 57.2407H60.9726C60.7302 57.2407 60.5337 57.0443 60.5337 56.8018V50.8246C60.5337 50.5822 60.7302 50.3857 60.9726 50.3857H68.5967C68.8392 50.3857 69.0356 50.5822 69.0356 50.8246V56.8018C69.0355 57.0443 68.8391 57.2407 68.5967 57.2407Z" fill="#E0E0E0"/>
<path d="M68.7743 58.8287H60.7952C60.6508 58.8287 60.5337 58.7116 60.5337 58.5672V58.5261C60.5337 58.3817 60.6508 58.2646 60.7952 58.2646H68.7743C68.9187 58.2646 69.0357 58.3817 69.0357 58.5261V58.5672C69.0356 58.7116 68.9186 58.8287 68.7743 58.8287Z" fill="#E0E0E0"/>
<path d="M68.7743 60.0279H60.7952C60.6508 60.0279 60.5337 59.9108 60.5337 59.7664V59.7253C60.5337 59.5809 60.6508 59.4639 60.7952 59.4639H68.7743C68.9187 59.4639 69.0357 59.5809 69.0357 59.7253V59.7664C69.0356 59.9108 68.9186 60.0279 68.7743 60.0279Z" fill="#E0E0E0"/>
<path d="M68.7743 61.2281H60.7952C60.6508 61.2281 60.5337 61.111 60.5337 60.9666V60.9255C60.5337 60.7811 60.6508 60.6641 60.7952 60.6641H68.7743C68.9187 60.6641 69.0357 60.7811 69.0357 60.9255V60.9666C69.0356 61.111 68.9186 61.2281 68.7743 61.2281Z" fill="#E0E0E0"/>
<path d="M68.7743 62.4264H60.7952C60.6508 62.4264 60.5337 62.3093 60.5337 62.1649V62.1238C60.5337 61.9794 60.6508 61.8623 60.7952 61.8623H68.7743C68.9187 61.8623 69.0357 61.9794 69.0357 62.1238V62.1649C69.0356 62.3093 68.9186 62.4264 68.7743 62.4264Z" fill="#E0E0E0"/>
<path d="M68.7743 63.6265H60.7952C60.6508 63.6265 60.5337 63.5095 60.5337 63.3651V63.324C60.5337 63.1796 60.6508 63.0625 60.7952 63.0625H68.7743C68.9187 63.0625 69.0357 63.1796 69.0357 63.324V63.3651C69.0356 63.5095 68.9186 63.6265 68.7743 63.6265Z" fill="#E0E0E0"/>
<path d="M68.5963 74.561H60.9721C60.7297 74.561 60.5332 74.3646 60.5332 74.1222V68.1449C60.5332 67.9025 60.7297 67.7061 60.9721 67.7061H68.5963C68.8387 67.7061 69.0351 67.9025 69.0351 68.1449V74.1222C69.0351 74.3646 68.8386 74.561 68.5963 74.561Z" fill="#E0E0E0"/>
<path d="M68.7738 76.149H60.7947C60.6503 76.149 60.5332 76.0319 60.5332 75.8875V75.8464C60.5332 75.702 60.6503 75.585 60.7947 75.585H68.7738C68.9182 75.585 69.0352 75.702 69.0352 75.8464V75.8875C69.0351 76.0319 68.9181 76.149 68.7738 76.149Z" fill="#E0E0E0"/>
<path d="M68.7738 77.3473H60.7947C60.6503 77.3473 60.5332 77.2302 60.5332 77.0858V77.0447C60.5332 76.9003 60.6503 76.7832 60.7947 76.7832H68.7738C68.9182 76.7832 69.0352 76.9003 69.0352 77.0447V77.0858C69.0351 77.2302 68.9181 77.3473 68.7738 77.3473Z" fill="#E0E0E0"/>
<path d="M68.7738 78.5474H60.7947C60.6503 78.5474 60.5332 78.4304 60.5332 78.286V78.2449C60.5332 78.1005 60.6503 77.9834 60.7947 77.9834H68.7738C68.9182 77.9834 69.0352 78.1005 69.0352 78.2449V78.286C69.0351 78.4305 68.9181 78.5474 68.7738 78.5474Z" fill="#E0E0E0"/>
<path d="M68.7738 79.7467H60.7947C60.6503 79.7467 60.5332 79.6296 60.5332 79.4852V79.4441C60.5332 79.2997 60.6503 79.1826 60.7947 79.1826H68.7738C68.9182 79.1826 69.0352 79.2997 69.0352 79.4441V79.4852C69.0351 79.6296 68.9181 79.7467 68.7738 79.7467Z" fill="#E0E0E0"/>
<path d="M68.7738 80.9459H60.7947C60.6503 80.9459 60.5332 80.8288 60.5332 80.6844V80.6433C60.5332 80.4989 60.6503 80.3818 60.7947 80.3818H68.7738C68.9182 80.3818 69.0352 80.4989 69.0352 80.6433V80.6844C69.0351 80.8288 68.9181 80.9459 68.7738 80.9459Z" fill="#E0E0E0"/>
<path d="M161.093 85.202H131.672C131.039 85.202 130.526 84.689 130.526 84.0562V30.3324C130.526 29.6995 131.039 29.1865 131.672 29.1865H161.093C161.726 29.1865 162.239 29.6995 162.239 30.3324V84.0561C162.239 84.689 161.726 85.202 161.093 85.202Z" fill="#E0E0E0"/>
<path d="M159.438 31.7685H150.233C150.065 31.7685 149.929 31.6323 149.929 31.4643C149.929 31.2964 150.065 31.1602 150.233 31.1602H159.438C159.606 31.1602 159.742 31.2963 159.742 31.4643C159.742 31.6322 159.606 31.7685 159.438 31.7685Z" fill="#F2F2F2"/>
<path d="M159.438 33.1601H150.233C150.065 33.1601 149.929 33.0239 149.929 32.8559C149.929 32.688 150.065 32.5518 150.233 32.5518H159.438C159.606 32.5518 159.742 32.6879 159.742 32.8559C159.742 33.0239 159.606 33.1601 159.438 33.1601Z" fill="#F2F2F2"/>
<path d="M159.438 34.5497H150.233C150.065 34.5497 149.929 34.4136 149.929 34.2456C149.929 34.0776 150.065 33.9414 150.233 33.9414H159.438C159.606 33.9414 159.742 34.0775 159.742 34.2456C159.742 34.4136 159.606 34.5497 159.438 34.5497Z" fill="#F2F2F2"/>
<path d="M159.438 35.9423H150.233C150.065 35.9423 149.929 35.8062 149.929 35.6381C149.929 35.4702 150.065 35.334 150.233 35.334H159.438C159.606 35.334 159.742 35.4701 159.742 35.6381C159.742 35.8062 159.606 35.9423 159.438 35.9423Z" fill="#F2F2F2"/>
<path d="M159.438 37.3329H150.233C150.065 37.3329 149.929 37.1968 149.929 37.0288C149.929 36.8608 150.065 36.7246 150.233 36.7246H159.438C159.606 36.7246 159.742 36.8607 159.742 37.0288C159.742 37.1968 159.606 37.3329 159.438 37.3329Z" fill="#F2F2F2"/>
<path d="M159.438 38.7235H150.233C150.065 38.7235 149.929 38.5874 149.929 38.4194C149.929 38.2515 150.065 38.1152 150.233 38.1152H159.438C159.606 38.1152 159.742 38.2514 159.742 38.4194C159.742 38.5873 159.606 38.7235 159.438 38.7235Z" fill="#F2F2F2"/>
<path d="M159.438 40.1151H150.233C150.065 40.1151 149.929 39.979 149.929 39.811C149.929 39.6431 150.065 39.5068 150.233 39.5068H159.438C159.606 39.5068 159.742 39.643 159.742 39.811C159.742 39.979 159.606 40.1151 159.438 40.1151Z" fill="#F2F2F2"/>
<path d="M159.438 66.5624H150.233C150.065 66.5624 149.929 66.4263 149.929 66.2583C149.929 66.0903 150.065 65.9541 150.233 65.9541H159.438C159.606 65.9541 159.742 66.0902 159.742 66.2583C159.742 66.4262 159.606 66.5624 159.438 66.5624Z" fill="#F2F2F2"/>
<path d="M159.438 67.953H150.233C150.065 67.953 149.929 67.8169 149.929 67.6489C149.929 67.481 150.065 67.3447 150.233 67.3447H159.438C159.606 67.3447 159.742 67.4809 159.742 67.6489C159.742 67.8169 159.606 67.953 159.438 67.953Z" fill="#F2F2F2"/>
<path d="M159.438 69.3456H150.233C150.065 69.3456 149.929 69.2095 149.929 69.0415C149.929 68.8735 150.065 68.7373 150.233 68.7373H159.438C159.606 68.7373 159.742 68.8734 159.742 69.0415C159.742 69.2095 159.606 69.3456 159.438 69.3456Z" fill="#F2F2F2"/>
<path d="M159.438 70.7362H150.233C150.065 70.7362 149.929 70.6001 149.929 70.4321C149.929 70.2642 150.065 70.1279 150.233 70.1279H159.438C159.606 70.1279 159.742 70.2641 159.742 70.4321C159.742 70.6001 159.606 70.7362 159.438 70.7362Z" fill="#F2F2F2"/>
<path d="M159.438 72.1269H150.233C150.065 72.1269 149.929 71.9907 149.929 71.8227C149.929 71.6548 150.065 71.5186 150.233 71.5186H159.438C159.606 71.5186 159.742 71.6547 159.742 71.8227C159.742 71.9907 159.606 72.1269 159.438 72.1269Z" fill="#F2F2F2"/>
<path d="M159.438 73.5185H150.233C150.065 73.5185 149.929 73.3823 149.929 73.2143C149.929 73.0464 150.065 72.9102 150.233 72.9102H159.438C159.606 72.9102 159.742 73.0463 159.742 73.2143C159.742 73.3822 159.606 73.5185 159.438 73.5185Z" fill="#F2F2F2"/>
<path d="M159.438 74.9091H150.233C150.065 74.9091 149.929 74.773 149.929 74.6049C149.929 74.437 150.065 74.3008 150.233 74.3008H159.438C159.606 74.3008 159.742 74.4369 159.742 74.6049C159.742 74.773 159.606 74.9091 159.438 74.9091Z" fill="#F2F2F2"/>
<path d="M159.438 76.4696H150.233C150.065 76.4696 149.929 76.3335 149.929 76.1655C149.929 75.9976 150.065 75.8613 150.233 75.8613H159.438C159.606 75.8613 159.742 75.9975 159.742 76.1655C159.742 76.3335 159.606 76.4696 159.438 76.4696Z" fill="#F2F2F2"/>
<path d="M159.438 77.8612H150.233C150.065 77.8612 149.929 77.7251 149.929 77.5571C149.929 77.3892 150.065 77.2529 150.233 77.2529H159.438C159.606 77.2529 159.742 77.3891 159.742 77.5571C159.742 77.725 159.606 77.8612 159.438 77.8612Z" fill="#F2F2F2"/>
<path d="M159.438 79.2519H150.233C150.065 79.2519 149.929 79.1157 149.929 78.9477C149.929 78.7798 150.065 78.6436 150.233 78.6436H159.438C159.606 78.6436 159.742 78.7797 159.742 78.9477C159.742 79.1157 159.606 79.2519 159.438 79.2519Z" fill="#F2F2F2"/>
<path d="M159.438 80.6435H150.233C150.065 80.6435 149.929 80.5073 149.929 80.3393C149.929 80.1714 150.065 80.0352 150.233 80.0352H159.438C159.606 80.0352 159.742 80.1713 159.742 80.3393C159.742 80.5072 159.606 80.6435 159.438 80.6435Z" fill="#F2F2F2"/>
<path d="M159.438 82.0331H150.233C150.065 82.0331 149.929 81.897 149.929 81.729C149.929 81.561 150.065 81.4248 150.233 81.4248H159.438C159.606 81.4248 159.742 81.5609 159.742 81.729C159.742 81.897 159.606 82.0331 159.438 82.0331Z" fill="#F2F2F2"/>
<path d="M159.438 83.4257H150.233C150.065 83.4257 149.929 83.2896 149.929 83.1215C149.929 82.9536 150.065 82.8174 150.233 82.8174H159.438C159.606 82.8174 159.742 82.9535 159.742 83.1215C159.742 83.2895 159.606 83.4257 159.438 83.4257Z" fill="#F2F2F2"/>
<path d="M159.438 41.5058H150.233C150.065 41.5058 149.929 41.3696 149.929 41.2016C149.929 41.0337 150.065 40.8975 150.233 40.8975H159.438C159.606 40.8975 159.742 41.0336 159.742 41.2016C159.742 41.3695 159.606 41.5058 159.438 41.5058Z" fill="#F2F2F2"/>
<path d="M159.438 42.8964H150.233C150.065 42.8964 149.929 42.7603 149.929 42.5922C149.929 42.4243 150.065 42.2881 150.233 42.2881H159.438C159.606 42.2881 159.742 42.4242 159.742 42.5922C159.742 42.7603 159.606 42.8964 159.438 42.8964Z" fill="#F2F2F2"/>
<path d="M159.438 44.287H150.233C150.065 44.287 149.929 44.1509 149.929 43.9829C149.929 43.8149 150.065 43.6787 150.233 43.6787H159.438C159.606 43.6787 159.742 43.8148 159.742 43.9829C159.742 44.1508 159.606 44.287 159.438 44.287Z" fill="#F2F2F2"/>
<path d="M159.438 45.6796H150.233C150.065 45.6796 149.929 45.5435 149.929 45.3754C149.929 45.2075 150.065 45.0713 150.233 45.0713H159.438C159.606 45.0713 159.742 45.2074 159.742 45.3754C159.742 45.5435 159.606 45.6796 159.438 45.6796Z" fill="#F2F2F2"/>
<path d="M159.438 47.0692H150.233C150.065 47.0692 149.929 46.9331 149.929 46.7651C149.929 46.5972 150.065 46.4609 150.233 46.4609H159.438C159.606 46.4609 159.742 46.5971 159.742 46.7651C159.742 46.9331 159.606 47.0692 159.438 47.0692Z" fill="#F2F2F2"/>
<path d="M159.438 48.4608H150.233C150.065 48.4608 149.929 48.3247 149.929 48.1567C149.929 47.9888 150.065 47.8525 150.233 47.8525H159.438C159.606 47.8525 159.742 47.9887 159.742 48.1567C159.742 48.3247 159.606 48.4608 159.438 48.4608Z" fill="#F2F2F2"/>
<path d="M159.438 49.8525H150.233C150.065 49.8525 149.929 49.7163 149.929 49.5483C149.929 49.3804 150.065 49.2441 150.233 49.2441H159.438C159.606 49.2441 159.742 49.3803 159.742 49.5483C159.742 49.7163 159.606 49.8525 159.438 49.8525Z" fill="#F2F2F2"/>
<path d="M159.438 51.2431H150.233C150.065 51.2431 149.929 51.1069 149.929 50.9389C149.929 50.771 150.065 50.6348 150.233 50.6348H159.438C159.606 50.6348 159.742 50.7709 159.742 50.9389C159.742 51.1069 159.606 51.2431 159.438 51.2431Z" fill="#F2F2F2"/>
<path d="M159.438 52.6337H150.233C150.065 52.6337 149.929 52.4976 149.929 52.3295C149.929 52.1616 150.065 52.0254 150.233 52.0254H159.438C159.606 52.0254 159.742 52.1615 159.742 52.3295C159.742 52.4976 159.606 52.6337 159.438 52.6337Z" fill="#F2F2F2"/>
<path d="M146.996 55.7841H133.328C133.16 55.7841 133.024 55.648 133.024 55.4799C133.024 55.312 133.16 55.1758 133.328 55.1758H146.996C147.164 55.1758 147.301 55.3119 147.301 55.4799C147.301 55.648 147.164 55.7841 146.996 55.7841Z" fill="#F2F2F2"/>
<path d="M146.996 57.1747H133.328C133.16 57.1747 133.024 57.0386 133.024 56.8706C133.024 56.7026 133.16 56.5664 133.328 56.5664H146.996C147.164 56.5664 147.301 56.7025 147.301 56.8706C147.301 57.0386 147.164 57.1747 146.996 57.1747Z" fill="#F2F2F2"/>
<path d="M146.996 58.5663H133.328C133.16 58.5663 133.024 58.4302 133.024 58.2622C133.024 58.0942 133.16 57.958 133.328 57.958H146.996C147.164 57.958 147.301 58.0941 147.301 58.2622C147.301 58.4302 147.164 58.5663 146.996 58.5663Z" fill="#F2F2F2"/>
<path d="M146.996 59.9569H133.328C133.16 59.9569 133.024 59.8208 133.024 59.6528C133.024 59.4849 133.16 59.3486 133.328 59.3486H146.996C147.164 59.3486 147.301 59.4848 147.301 59.6528C147.301 59.8208 147.164 59.9569 146.996 59.9569Z" fill="#F2F2F2"/>
<path d="M146.996 61.3505H133.328C133.16 61.3505 133.024 61.2144 133.024 61.0463C133.024 60.8784 133.16 60.7422 133.328 60.7422H146.996C147.164 60.7422 147.301 60.8783 147.301 61.0463C147.301 61.2144 147.164 61.3505 146.996 61.3505Z" fill="#F2F2F2"/>
<path d="M146.996 62.7392H133.328C133.16 62.7392 133.024 62.603 133.024 62.435C133.024 62.2671 133.16 62.1309 133.328 62.1309H146.996C147.164 62.1309 147.301 62.267 147.301 62.435C147.301 62.6029 147.164 62.7392 146.996 62.7392Z" fill="#F2F2F2"/>
<path d="M146.996 64.1308H133.328C133.16 64.1308 133.024 63.9946 133.024 63.8266C133.024 63.6587 133.16 63.5225 133.328 63.5225H146.996C147.164 63.5225 147.301 63.6586 147.301 63.8266C147.301 63.9946 147.164 64.1308 146.996 64.1308Z" fill="#F2F2F2"/>
<path d="M146.996 65.5214H133.328C133.16 65.5214 133.024 65.3853 133.024 65.2172C133.024 65.0493 133.16 64.9131 133.328 64.9131H146.996C147.164 64.9131 147.301 65.0492 147.301 65.2172C147.301 65.3852 147.164 65.5214 146.996 65.5214Z" fill="#F2F2F2"/>
<path d="M146.996 66.912H133.328C133.16 66.912 133.024 66.7759 133.024 66.6079C133.024 66.4399 133.16 66.3037 133.328 66.3037H146.996C147.164 66.3037 147.301 66.4398 147.301 66.6079C147.301 66.7759 147.164 66.912 146.996 66.912Z" fill="#F2F2F2"/>
<path d="M146.996 68.3036H133.328C133.16 68.3036 133.024 68.1675 133.024 67.9995C133.024 67.8315 133.16 67.6953 133.328 67.6953H146.996C147.164 67.6953 147.301 67.8314 147.301 67.9995C147.301 68.1674 147.164 68.3036 146.996 68.3036Z" fill="#F2F2F2"/>
<path d="M146.996 69.6952H133.328C133.16 69.6952 133.024 69.5591 133.024 69.3911C133.024 69.2231 133.16 69.0869 133.328 69.0869H146.996C147.164 69.0869 147.301 69.223 147.301 69.3911C147.301 69.5591 147.164 69.6952 146.996 69.6952Z" fill="#F2F2F2"/>
<path d="M146.996 71.0849H133.328C133.16 71.0849 133.024 70.9487 133.024 70.7807C133.024 70.6128 133.16 70.4766 133.328 70.4766H146.996C147.164 70.4766 147.301 70.6127 147.301 70.7807C147.301 70.9487 147.164 71.0849 146.996 71.0849Z" fill="#F2F2F2"/>
<path d="M146.996 72.4775H133.328C133.16 72.4775 133.024 72.3413 133.024 72.1733C133.024 72.0054 133.16 71.8691 133.328 71.8691H146.996C147.164 71.8691 147.301 72.0053 147.301 72.1733C147.301 72.3413 147.164 72.4775 146.996 72.4775Z" fill="#F2F2F2"/>
<path d="M146.996 73.8671H133.328C133.16 73.8671 133.024 73.731 133.024 73.5629C133.024 73.395 133.16 73.2588 133.328 73.2588H146.996C147.164 73.2588 147.301 73.3949 147.301 73.5629C147.301 73.731 147.164 73.8671 146.996 73.8671Z" fill="#F2F2F2"/>
<path d="M146.996 75.2587H133.328C133.16 75.2587 133.024 75.1226 133.024 74.9545C133.024 74.7866 133.16 74.6504 133.328 74.6504H146.996C147.164 74.6504 147.301 74.7865 147.301 74.9545C147.301 75.1225 147.164 75.2587 146.996 75.2587Z" fill="#F2F2F2"/>
<path d="M146.996 76.6493H133.328C133.16 76.6493 133.024 76.5132 133.024 76.3452C133.024 76.1772 133.16 76.041 133.328 76.041H146.996C147.164 76.041 147.301 76.1771 147.301 76.3452C147.301 76.5132 147.164 76.6493 146.996 76.6493Z" fill="#F2F2F2"/>
<path d="M146.996 77.9491H133.328C133.16 77.9491 133.024 77.813 133.024 77.645C133.024 77.477 133.16 77.3408 133.328 77.3408H146.996C147.164 77.3408 147.301 77.477 147.301 77.645C147.301 77.813 147.164 77.9491 146.996 77.9491Z" fill="#F2F2F2"/>
<path d="M146.996 79.3398H133.328C133.16 79.3398 133.024 79.2036 133.024 79.0356C133.024 78.8677 133.16 78.7314 133.328 78.7314H146.996C147.164 78.7314 147.301 78.8676 147.301 79.0356C147.301 79.2036 147.164 79.3398 146.996 79.3398Z" fill="#F2F2F2"/>
<path d="M146.996 80.7304H133.328C133.16 80.7304 133.024 80.5943 133.024 80.4262C133.024 80.2583 133.16 80.1221 133.328 80.1221H146.996C147.164 80.1221 147.301 80.2582 147.301 80.4262C147.301 80.5943 147.164 80.7304 146.996 80.7304Z" fill="#F2F2F2"/>
<path d="M146.996 82.121H133.328C133.16 82.121 133.024 81.9849 133.024 81.8169C133.024 81.6489 133.16 81.5127 133.328 81.5127H146.996C147.164 81.5127 147.301 81.6488 147.301 81.8169C147.301 81.9849 147.164 82.121 146.996 82.121Z" fill="#F2F2F2"/>
<path d="M146.996 83.5136H133.328C133.16 83.5136 133.024 83.3775 133.024 83.2094C133.024 83.0415 133.16 82.9053 133.328 82.9053H146.996C147.164 82.9053 147.301 83.0414 147.301 83.2094C147.301 83.3775 147.164 83.5136 146.996 83.5136Z" fill="#F2F2F2"/>
<path d="M159.481 64.2072H150.19C150.046 64.2072 149.929 64.0904 149.929 63.9464V55.3623C149.929 55.2183 150.046 55.1016 150.19 55.1016H159.481C159.625 55.1016 159.742 55.2183 159.742 55.3623V63.9464C159.742 64.0904 159.625 64.2072 159.481 64.2072Z" fill="#F2F2F2"/>
<path d="M146.949 52.6336H133.376C133.181 52.6336 133.024 52.4761 133.024 52.2817V31.512C133.024 31.3177 133.181 31.1602 133.376 31.1602H146.949C147.143 31.1602 147.3 31.3177 147.3 31.512V52.2817C147.3 52.4761 147.143 52.6336 146.949 52.6336Z" fill="#F2F2F2"/>
<path d="M145.746 38.7249H134.579C134.461 38.7249 134.366 38.6298 134.366 38.5125V32.7124C134.366 32.5951 134.461 32.5 134.579 32.5H145.746C145.863 32.5 145.958 32.5951 145.958 32.7124V38.5125C145.958 38.6298 145.863 38.7249 145.746 38.7249Z" fill="#E0E0E0"/>
<path d="M145.746 45.7064H134.579C134.461 45.7064 134.366 45.6112 134.366 45.494V39.6938C134.366 39.5766 134.461 39.4814 134.579 39.4814H145.746C145.863 39.4814 145.958 39.5766 145.958 39.6938V45.494C145.958 45.6112 145.863 45.7064 145.746 45.7064Z" fill="#E0E0E0"/>
<path d="M139.638 51.6296H134.55C134.449 51.6296 134.366 51.5471 134.366 51.4454V46.6461C134.366 46.5444 134.449 46.4619 134.55 46.4619H139.638C139.74 46.4619 139.822 46.5444 139.822 46.6461V51.4454C139.822 51.5471 139.74 51.6296 139.638 51.6296Z" fill="#E0E0E0"/>
<path d="M145.772 51.6296H140.556C140.453 51.6296 140.369 51.5461 140.369 51.4432V46.6484C140.369 46.5453 140.453 46.4619 140.556 46.4619H145.772C145.875 46.4619 145.958 46.5454 145.958 46.6484V51.4432C145.958 51.5461 145.875 51.6296 145.772 51.6296Z" fill="#E0E0E0"/>
<path d="M124.228 85.202H94.8065C94.1736 85.202 93.6606 84.689 93.6606 84.0562V30.3324C93.6606 29.6995 94.1736 29.1865 94.8065 29.1865H124.228C124.861 29.1865 125.374 29.6995 125.374 30.3324V84.0561C125.374 84.689 124.861 85.202 124.228 85.202Z" fill="#E0E0E0"/>
<path d="M108.145 44.2649H96.7028C96.4112 44.2649 96.1748 44.0285 96.1748 43.7369V32.2946C96.1748 32.003 96.4112 31.7666 96.7028 31.7666H108.145C108.437 31.7666 108.673 32.003 108.673 32.2946V43.7369C108.673 44.0285 108.437 44.2649 108.145 44.2649Z" fill="#F2F2F2"/>
<path d="M122.921 32.5259H114.052C113.9 32.5259 113.776 32.4024 113.776 32.2501V32.0424C113.776 31.8901 113.9 31.7666 114.052 31.7666H122.921C123.074 31.7666 123.197 31.8901 123.197 32.0424V32.2501C123.197 32.4024 123.074 32.5259 122.921 32.5259Z" fill="#F2F2F2"/>
<path d="M122.921 33.8511H114.052C113.9 33.8511 113.776 33.7276 113.776 33.5753V33.3676C113.776 33.2153 113.9 33.0918 114.052 33.0918H122.921C123.074 33.0918 123.197 33.2153 123.197 33.3676V33.5753C123.197 33.7276 123.074 33.8511 122.921 33.8511Z" fill="#F2F2F2"/>
<path d="M122.921 35.1763H114.052C113.9 35.1763 113.776 35.0528 113.776 34.9005V34.6928C113.776 34.5405 113.9 34.417 114.052 34.417H122.921C123.074 34.417 123.197 34.5405 123.197 34.6928V34.9005C123.197 35.0528 123.074 35.1763 122.921 35.1763Z" fill="#F2F2F2"/>
<path d="M122.921 36.5005H114.052C113.9 36.5005 113.776 36.377 113.776 36.2247V36.017C113.776 35.8647 113.9 35.7412 114.052 35.7412H122.921C123.074 35.7412 123.197 35.8647 123.197 36.017V36.2247C123.197 36.377 123.074 36.5005 122.921 36.5005Z" fill="#F2F2F2"/>
<path d="M122.921 37.8257H114.052C113.9 37.8257 113.776 37.7022 113.776 37.5499V37.3422C113.776 37.1899 113.9 37.0664 114.052 37.0664H122.921C123.074 37.0664 123.197 37.1899 123.197 37.3422V37.5499C123.197 37.7023 123.074 37.8257 122.921 37.8257Z" fill="#F2F2F2"/>
<path d="M122.921 39.149H114.052C113.9 39.149 113.776 39.0255 113.776 38.8732V38.6654C113.776 38.5131 113.9 38.3896 114.052 38.3896H122.921C123.074 38.3896 123.197 38.5131 123.197 38.6654V38.8732C123.197 39.0256 123.074 39.149 122.921 39.149Z" fill="#F2F2F2"/>
<path d="M122.921 40.4742H114.052C113.9 40.4742 113.776 40.3507 113.776 40.1984V39.9906C113.776 39.8383 113.9 39.7148 114.052 39.7148H122.921C123.074 39.7148 123.197 39.8383 123.197 39.9906V40.1984C123.197 40.3507 123.074 40.4742 122.921 40.4742Z" fill="#F2F2F2"/>
<path d="M122.921 41.7974H114.052C113.9 41.7974 113.776 41.6739 113.776 41.5216V41.3139C113.776 41.1616 113.9 41.0381 114.052 41.0381H122.921C123.074 41.0381 123.197 41.1616 123.197 41.3139V41.5216C123.197 41.6739 123.074 41.7974 122.921 41.7974Z" fill="#F2F2F2"/>
<path d="M122.921 43.1226H114.052C113.9 43.1226 113.776 42.9991 113.776 42.8468V42.6391C113.776 42.4868 113.9 42.3633 114.052 42.3633H122.921C123.074 42.3633 123.197 42.4868 123.197 42.6391V42.8468C123.197 42.9991 123.074 43.1226 122.921 43.1226Z" fill="#F2F2F2"/>
<path d="M122.921 44.4478H114.052C113.9 44.4478 113.776 44.3243 113.776 44.172V43.9643C113.776 43.812 113.9 43.6885 114.052 43.6885H122.921C123.074 43.6885 123.197 43.812 123.197 43.9643V44.172C123.197 44.3243 123.074 44.4478 122.921 44.4478Z" fill="#F2F2F2"/>
<path d="M111.059 33.6526C111.425 33.6526 111.721 33.3561 111.721 32.9904C111.721 32.6246 111.425 32.3281 111.059 32.3281C110.693 32.3281 110.397 32.6246 110.397 32.9904C110.397 33.3561 110.693 33.6526 111.059 33.6526Z" fill="#F2F2F2"/>
<path d="M111.059 38.8596C111.424 38.8596 111.721 38.5631 111.721 38.1974C111.721 37.8317 111.424 37.5352 111.059 37.5352C110.693 37.5352 110.396 37.8317 110.396 38.1974C110.396 38.5631 110.693 38.8596 111.059 38.8596Z" fill="#F2F2F2"/>
<path d="M111.721 43.4054C111.721 43.7711 111.425 44.0677 111.059 44.0677C110.694 44.0677 110.397 43.7711 110.397 43.4054C110.397 43.0396 110.694 42.7432 111.059 42.7432C111.425 42.7432 111.721 43.0397 111.721 43.4054Z" fill="#F2F2F2"/>
<path d="M123.198 46.3057H96.1748V47.8514H123.198V46.3057Z" fill="#F2F2F2"/>
<path d="M123.198 48.9854H96.1748V50.531H123.198V48.9854Z" fill="#F2F2F2"/>
<path d="M110.397 51.665H96.1743V53.2107H110.397V51.665Z" fill="#F2F2F2"/>
<path d="M122.992 56.1265H96.3804C96.2669 56.1265 96.1748 56.0344 96.1748 55.9209V55.4146C96.1748 55.301 96.2669 55.209 96.3804 55.209H122.992C123.105 55.209 123.198 55.301 123.198 55.4146V55.9209C123.198 56.0344 123.106 56.1265 122.992 56.1265Z" fill="#F2F2F2"/>
<path d="M122.992 58.0054H96.3804C96.2669 58.0054 96.1748 57.9133 96.1748 57.7998V57.2935C96.1748 57.1799 96.2669 57.0879 96.3804 57.0879H122.992C123.105 57.0879 123.198 57.1799 123.198 57.2935V57.7998C123.198 57.9133 123.106 58.0054 122.992 58.0054Z" fill="#F2F2F2"/>
<path d="M122.991 59.8833H96.3799C96.2664 59.8833 96.1743 59.7913 96.1743 59.6777V59.1714C96.1743 59.0579 96.2664 58.9658 96.3799 58.9658H122.991C123.105 58.9658 123.197 59.0579 123.197 59.1714V59.6777C123.197 59.7913 123.105 59.8833 122.991 59.8833Z" fill="#F2F2F2"/>
<path d="M122.992 61.7612H96.3804C96.2669 61.7612 96.1748 61.6692 96.1748 61.5556V61.0493C96.1748 60.9358 96.2669 60.8438 96.3804 60.8438H122.992C123.105 60.8438 123.198 60.9358 123.198 61.0493V61.5556C123.198 61.6692 123.106 61.7612 122.992 61.7612Z" fill="#F2F2F2"/>
<path d="M122.992 63.6421H96.3804C96.2669 63.6421 96.1748 63.55 96.1748 63.4365V62.9302C96.1748 62.8167 96.2669 62.7246 96.3804 62.7246H122.992C123.105 62.7246 123.198 62.8167 123.198 62.9302V63.4365C123.198 63.55 123.106 63.6421 122.992 63.6421Z" fill="#F2F2F2"/>
<path d="M122.991 65.5191H96.3799C96.2664 65.5191 96.1743 65.427 96.1743 65.3135V64.8072C96.1743 64.6936 96.2664 64.6016 96.3799 64.6016H122.991C123.105 64.6016 123.197 64.6936 123.197 64.8072V65.3135C123.197 65.427 123.105 65.5191 122.991 65.5191Z" fill="#F2F2F2"/>
<path d="M109.701 67.398H96.3211C96.2403 67.398 96.1748 67.3326 96.1748 67.2518V66.6267C96.1748 66.5459 96.2403 66.4805 96.3211 66.4805H109.701C109.782 66.4805 109.847 66.5459 109.847 66.6267V67.2518C109.847 67.3326 109.782 67.398 109.701 67.398Z" fill="#F2F2F2"/>
<path d="M103.436 78.5467H96.9117C96.5047 78.5467 96.1748 78.2167 96.1748 77.8097V70.8648C96.1748 70.4578 96.5047 70.1279 96.9117 70.1279H103.436C103.843 70.1279 104.173 70.4578 104.173 70.8648V77.8097C104.173 78.2167 103.843 78.5467 103.436 78.5467Z" fill="#F2F2F2"/>
<path d="M112.948 78.5107H106.424C106.017 78.5107 105.688 78.1808 105.688 77.7737V70.8288C105.688 70.4218 106.017 70.0918 106.424 70.0918H112.948C113.355 70.0918 113.685 70.4217 113.685 70.8288V77.7737C113.685 78.1808 113.356 78.5107 112.948 78.5107Z" fill="#F2F2F2"/>
<path d="M122.461 78.4735H115.937C115.53 78.4735 115.2 78.1436 115.2 77.7365V70.7916C115.2 70.3846 115.53 70.0547 115.937 70.0547H122.461C122.868 70.0547 123.198 70.3846 123.198 70.7916V77.7365C123.198 78.1436 122.868 78.4735 122.461 78.4735Z" fill="#F2F2F2"/>
<path d="M123.076 80.9433H96.296C96.229 80.9433 96.1748 80.8891 96.1748 80.8221V80.2676C96.1748 80.2007 96.229 80.1465 96.296 80.1465H123.076C123.143 80.1465 123.198 80.2007 123.198 80.2676V80.8221C123.198 80.8891 123.143 80.9433 123.076 80.9433Z" fill="#F2F2F2"/>
<path d="M123.076 82.4306H96.296C96.229 82.4306 96.1748 82.3764 96.1748 82.3094V81.7549C96.1748 81.688 96.229 81.6338 96.296 81.6338H123.076C123.143 81.6338 123.198 81.688 123.198 81.7549V82.3094C123.198 82.3764 123.143 82.4306 123.076 82.4306Z" fill="#F2F2F2"/>
<path d="M112.244 83.9179H96.2685C96.2167 83.9179 96.1748 83.876 96.1748 83.8242V83.2148C96.1748 83.163 96.2167 83.1211 96.2685 83.1211H112.244C112.296 83.1211 112.338 83.163 112.338 83.2148V83.8242C112.338 83.876 112.296 83.9179 112.244 83.9179Z" fill="#F2F2F2"/>
<path d="M62.085 52.4294H41.0365C40.4517 52.4294 39.9775 51.9552 39.9775 51.3703V37.5785C39.9775 36.9937 40.4517 36.5195 41.0365 36.5195H62.0849C62.6698 36.5195 63.144 36.9937 63.144 37.5785V51.3703C63.144 51.9552 62.6698 52.4294 62.085 52.4294Z" fill="#E0E0E0"/>
<path d="M45.9437 45.8677C45.9437 46.4249 45.8612 46.8579 45.6963 47.1664C45.3902 47.7297 44.8083 48.0113 43.9505 48.0113C43.4556 48.0113 43.0327 47.8772 42.6818 47.609C42.3308 47.3409 42.1553 46.8638 42.1553 46.1777V45.7058H42.9957V46.1777C42.9957 46.5372 43.0759 46.8076 43.2366 46.9889C43.3973 47.1702 43.6473 47.2608 43.9865 47.2608C44.4638 47.2608 44.7761 47.0975 44.9234 46.7709C45.0134 46.5703 45.0585 46.1912 45.0585 45.634V41.2344H45.9438L45.9437 45.8677Z" fill="#F2F2F2"/>
<path d="M52.7382 42.1782C53.1756 42.7625 53.3943 43.51 53.3943 44.4208C53.3943 45.4065 53.1442 46.2259 52.6438 46.8789C52.0566 47.646 51.2192 48.0293 50.1317 48.0293C49.1161 48.0293 48.3177 47.6939 47.7364 47.0227C47.218 46.3755 46.959 45.5576 46.959 44.569C46.959 43.6762 47.1807 42.9123 47.6241 42.2771C48.1933 41.4621 49.0352 41.0547 50.1497 41.0547C51.3151 41.0548 52.178 41.4293 52.7382 42.1782ZM51.9495 46.3861C52.3016 45.8209 52.4776 45.171 52.4776 44.4364C52.4776 43.6598 52.2746 43.0346 51.8686 42.5609C51.4626 42.0871 50.9076 41.8502 50.2036 41.8502C49.5206 41.8502 48.9633 42.0849 48.5318 42.5541C48.1005 43.0234 47.8847 43.7152 47.8847 44.6297C47.8847 45.3614 48.0697 45.9783 48.4398 46.4805C48.8098 46.9828 49.4097 47.2339 50.2396 47.2339C51.0276 47.2339 51.5975 46.9515 51.9495 46.3861Z" fill="#F2F2F2"/>
<path d="M54.4367 41.2344H57.2911C58.0691 41.2344 58.6226 41.4651 58.9513 41.9265C59.1442 42.1991 59.2407 42.5137 59.2407 42.8702C59.2407 43.2867 59.1223 43.6282 58.8857 43.8948C58.7628 44.0357 58.5861 44.1644 58.3554 44.2812C58.694 44.4101 58.9471 44.5554 59.1149 44.7172C59.4115 45.0048 59.5597 45.4018 59.5597 45.908C59.5597 46.3335 59.4256 46.7185 59.1573 47.063C58.7564 47.5783 58.1188 47.836 57.2446 47.836H54.4365V41.2344H54.4367ZM56.9569 44.0252C57.3383 44.0252 57.635 43.9728 57.847 43.8678C58.1799 43.703 58.3465 43.4065 58.3465 42.978C58.3465 42.5466 58.1693 42.2561 57.8152 42.1062C57.6154 42.0223 57.3186 41.9804 56.9251 41.9804H55.3131V44.0252H56.9569ZM57.2592 47.072C57.8126 47.072 58.2073 46.9133 58.4432 46.5956C58.5914 46.395 58.6655 46.1523 58.6655 45.8676C58.6655 45.3882 58.4492 45.0617 58.0167 44.8879C57.7869 44.7951 57.4829 44.7486 57.1049 44.7486H55.3131V47.072H57.2592Z" fill="#F2F2F2"/>
<path d="M60.2332 56.362C60.1011 56.362 59.9753 56.3014 59.8903 56.1905L56.6801 51.9994H40.4231C39.7622 51.9994 39.2246 51.4618 39.2246 50.8009V37.009C39.2246 36.3482 39.7622 35.8105 40.4231 35.8105H61.4715C62.1323 35.8105 62.67 36.3482 62.67 37.009V50.8008C62.67 51.4617 62.1323 51.9993 61.4715 51.9993H60.672V55.9255C60.672 56.1152 60.5559 56.2772 60.3761 56.3382C60.3288 56.3542 60.2806 56.362 60.2332 56.362ZM40.4231 36.0896C39.916 36.0896 39.5036 36.5021 39.5036 37.0091V50.8009C39.5036 51.308 39.916 51.7205 40.4231 51.7205H56.8178L60.1118 56.0209C60.1752 56.1036 60.2616 56.0824 60.2866 56.0741C60.3116 56.0656 60.393 56.0298 60.393 55.9256V51.7205H61.4715C61.9785 51.7205 62.391 51.308 62.391 50.8009V37.009C62.391 36.502 61.9785 36.0895 61.4715 36.0895L40.4231 36.0896Z" fill="#F2F2F2"/>
<path d="M111.004 24.443H89.9555C89.3706 24.443 88.8965 23.9689 88.8965 23.384V9.59221C88.8965 9.00734 89.3706 8.5332 89.9555 8.5332H111.004C111.589 8.5332 112.063 9.00734 112.063 9.59221V23.384C112.063 23.9689 111.589 24.443 111.004 24.443Z" fill="#E0E0E0"/>
<path d="M94.8626 17.8824C94.8626 18.4397 94.7802 18.8726 94.6152 19.1811C94.3092 19.7444 93.7273 20.026 92.8695 20.026C92.3745 20.026 91.9516 19.8919 91.6007 19.6237C91.2498 19.3557 91.0742 18.8786 91.0742 18.1924V17.7205H91.9146V18.1924C91.9146 18.5519 91.9949 18.8224 92.1556 19.0036C92.3162 19.1849 92.5663 19.2755 92.9055 19.2755C93.3828 19.2755 93.6951 19.1122 93.8423 18.7857C93.9323 18.585 93.9774 18.2059 93.9774 17.6486V13.249H94.8627V17.8824H94.8626Z" fill="#F2F2F2"/>
<path d="M101.658 14.1929C102.095 14.7771 102.314 15.5246 102.314 16.4354C102.314 17.4212 102.064 18.2405 101.563 18.8936C100.976 19.6606 100.139 20.044 99.0512 20.044C98.0355 20.044 97.2371 19.7085 96.6559 19.0373C96.1375 18.3902 95.8784 17.5723 95.8784 16.5836C95.8784 15.6909 96.1001 14.9269 96.5435 14.2917C97.1127 13.4768 97.9546 13.0693 99.0691 13.0693C100.235 13.0693 101.097 13.4439 101.658 14.1929ZM100.869 18.4008C101.221 17.8356 101.397 17.1856 101.397 16.451C101.397 15.6744 101.194 15.0493 100.788 14.5755C100.382 14.1018 99.827 13.8648 99.123 13.8648C98.4399 13.8648 97.8827 14.0995 97.4513 14.5687C97.0199 15.038 96.8042 15.7298 96.8042 16.6444C96.8042 17.3761 96.9891 17.9929 97.3592 18.4951C97.7292 18.9974 98.3291 19.2485 99.159 19.2485C99.9469 19.2486 100.517 18.966 100.869 18.4008Z" fill="#F2F2F2"/>
<path d="M103.356 13.249H106.211C106.989 13.249 107.542 13.4798 107.871 13.9411C108.064 14.2137 108.16 14.5283 108.16 14.8848C108.16 15.3013 108.042 15.6428 107.805 15.9094C107.682 16.0503 107.506 16.1791 107.275 16.2959C107.613 16.4248 107.866 16.57 108.034 16.7318C108.331 17.0194 108.479 17.4165 108.479 17.9227C108.479 18.3482 108.345 18.7331 108.077 19.0776C107.676 19.593 107.038 19.8506 106.164 19.8506H103.356V13.249H103.356ZM105.876 16.0398C106.258 16.0398 106.555 15.9874 106.766 15.8826C107.099 15.7178 107.266 15.4213 107.266 14.9928C107.266 14.5613 107.089 14.2708 106.735 14.121C106.535 14.0371 106.238 13.9951 105.845 13.9951H104.233V16.0399H105.876V16.0398ZM106.179 19.0868C106.732 19.0868 107.127 18.928 107.363 18.6104C107.511 18.4097 107.585 18.167 107.585 17.8824C107.585 17.4031 107.369 17.0765 106.936 16.9027C106.706 16.8099 106.402 16.7634 106.024 16.7634H104.232V19.0868H106.179V19.0868Z" fill="#F2F2F2"/>
<path d="M109.152 28.3766C109.02 28.3766 108.894 28.316 108.809 28.205L105.599 24.014H89.342C88.6812 24.014 88.1436 23.4763 88.1436 22.8155V9.02369C88.1436 8.36284 88.6812 7.8252 89.342 7.8252H110.39C111.051 7.8252 111.589 8.36284 111.589 9.02369V22.8155C111.589 23.4763 111.051 24.014 110.39 24.014H109.591V27.9401C109.591 28.1299 109.475 28.2919 109.295 28.3528C109.248 28.3688 109.199 28.3766 109.152 28.3766ZM89.342 8.10424C88.835 8.10424 88.4225 8.51673 88.4225 9.02378V22.8155C88.4225 23.3225 88.835 23.735 89.342 23.735H105.737L109.031 28.0354C109.094 28.1183 109.181 28.097 109.206 28.0886C109.231 28.0801 109.312 28.0443 109.312 27.9401V23.735H110.39C110.897 23.735 111.31 23.3225 111.31 22.8155V9.02369C111.31 8.51664 110.897 8.10415 110.39 8.10415L89.342 8.10424Z" fill="#F2F2F2"/>
<path d="M156.591 33.2409H177.639C178.224 33.2409 178.698 32.7668 178.698 32.1819V18.3901C178.698 17.8052 178.224 17.3311 177.639 17.3311H156.591C156.006 17.3311 155.532 17.8052 155.532 18.3901V32.1819C155.532 32.7668 156.006 33.2409 156.591 33.2409Z" fill="#E0E0E0"/>
<path d="M162.904 26.6792C162.904 27.2364 162.822 27.6694 162.657 27.9779C162.351 28.5412 161.769 28.8228 160.911 28.8228C160.416 28.8228 159.993 28.6887 159.642 28.4205C159.291 28.1524 159.116 27.6753 159.116 26.9892V26.5173H159.956V26.9892C159.956 27.3487 160.036 27.6192 160.197 27.8004C160.358 27.9817 160.608 28.0723 160.947 28.0723C161.424 28.0723 161.737 27.909 161.884 27.5824C161.974 27.3818 162.019 27.0028 162.019 26.4455V22.0459H162.904L162.904 26.6792Z" fill="#F2F2F2"/>
<path d="M169.699 22.9898C170.136 23.574 170.355 24.3215 170.355 25.2323C170.355 26.218 170.105 27.0374 169.604 27.6905C169.017 28.4575 168.18 28.8409 167.092 28.8409C166.077 28.8409 165.278 28.5054 164.697 27.8342C164.178 27.187 163.919 26.3691 163.919 25.3805C163.919 24.4878 164.141 23.7238 164.585 23.0886C165.154 22.2737 165.996 21.8662 167.11 21.8662C168.276 21.8662 169.138 22.2408 169.699 22.9898ZM168.91 27.1976C169.262 26.6325 169.438 25.9825 169.438 25.2479C169.438 24.4713 169.235 23.8462 168.829 23.3724C168.423 22.8986 167.868 22.6617 167.164 22.6617C166.481 22.6617 165.924 22.8964 165.492 23.3656C165.061 23.8349 164.845 24.5267 164.845 25.4412C164.845 26.1729 165.03 26.7899 165.4 27.292C165.77 27.7943 166.37 28.0454 167.2 28.0454C167.988 28.0455 168.558 27.7629 168.91 27.1976Z" fill="#F2F2F2"/>
<path d="M171.398 22.0459H174.252C175.03 22.0459 175.584 22.2766 175.913 22.738C176.106 23.0106 176.202 23.3252 176.202 23.6817C176.202 24.0982 176.084 24.4397 175.847 24.7063C175.724 24.8472 175.547 24.976 175.317 25.0928C175.655 25.2216 175.908 25.3669 176.076 25.5287C176.373 25.8163 176.521 26.2133 176.521 26.7195C176.521 27.145 176.387 27.53 176.119 27.8745C175.718 28.3898 175.08 28.6475 174.206 28.6475H171.398L171.398 22.0459ZM173.918 24.8367C174.3 24.8367 174.596 24.7843 174.808 24.6793C175.141 24.5146 175.308 24.218 175.308 23.7896C175.308 23.3581 175.131 23.0676 174.777 22.9177C174.577 22.8339 174.28 22.7919 173.887 22.7919H172.275V24.8367H173.918ZM174.221 27.8836C174.774 27.8836 175.169 27.7249 175.405 27.4073C175.553 27.2066 175.627 26.9639 175.627 26.6793C175.627 26.1999 175.411 25.8734 174.978 25.6996C174.748 25.6068 174.444 25.5603 174.066 25.5603H172.275V27.8837H174.221V27.8836Z" fill="#F2F2F2"/>
<path d="M158.443 37.1744C158.395 37.1744 158.347 37.1666 158.3 37.1505C158.12 37.0896 158.004 36.9277 158.004 36.7379V32.8117H157.204C156.544 32.8117 156.006 32.2741 156.006 31.6132V17.8215C156.006 17.1607 156.544 16.623 157.204 16.623H178.253C178.913 16.623 179.451 17.1607 179.451 17.8215V31.6133C179.451 32.2742 178.914 32.8118 178.253 32.8118H161.996L158.786 37.003C158.701 37.1138 158.575 37.1744 158.443 37.1744ZM157.204 16.902C156.697 16.902 156.285 17.3145 156.285 17.8215V31.6133C156.285 32.1204 156.697 32.5329 157.204 32.5329H158.283V36.738C158.283 36.8422 158.364 36.878 158.389 36.8865C158.414 36.895 158.501 36.9162 158.564 36.8334L161.858 32.533H178.253C178.76 32.533 179.172 32.1205 179.172 31.6134V17.8215C179.172 17.3145 178.76 16.902 178.253 16.902H157.204Z" fill="#F2F2F2"/>
<path d="M119.579 99.3786C122.98 93.5009 123.888 86.6507 122.137 80.0898C120.385 73.5288 116.184 68.0427 110.306 64.6418C104.428 61.2409 97.5781 60.3325 91.0172 62.0839C84.4563 63.8352 78.97 68.0368 75.5692 73.9145C72.1683 79.7922 71.26 86.6425 73.0113 93.2034C74.4478 98.5848 77.5336 103.242 81.8396 106.62C81.4096 106.644 80.9998 106.877 80.768 107.277L62.4325 138.967C62.0666 139.599 62.2826 140.408 62.9149 140.774L67.9203 143.67C68.5526 144.036 69.3619 143.82 69.7277 143.188L88.0632 111.499C88.295 111.098 88.2926 110.627 88.0994 110.242C93.1737 112.292 98.7493 112.646 104.131 111.209C110.692 109.458 116.178 105.256 119.579 99.3786ZM86.5649 105.673C81.4826 102.733 77.8498 97.9891 76.3354 92.316C74.821 86.643 75.6065 80.7197 78.5471 75.6374C81.4877 70.5552 86.2316 66.9223 91.9045 65.4079C97.5776 63.8936 103.501 64.679 108.583 67.6197C113.665 70.5603 117.298 75.304 118.813 80.9771C120.327 86.6501 119.542 92.5734 116.601 97.6556C113.66 102.738 108.917 106.371 103.244 107.885C97.5704 109.4 91.6472 108.614 86.5649 105.673Z" fill="#182452"/>
<path d="M112.43 102.587C120.854 94.1631 120.854 80.5049 112.43 72.0808C104.005 63.6566 90.3473 63.6566 81.9232 72.0808C73.499 80.5049 73.499 94.1631 81.9232 102.587C90.3473 111.011 104.005 111.011 112.43 102.587Z" fill="white"/>
<path d="M206.996 67.8623H134.986C129.955 67.8623 125.876 63.7834 125.876 58.752C125.876 53.7204 129.955 49.6416 134.986 49.6416H206.996C212.028 49.6416 216.107 53.7204 216.107 58.752C216.107 63.7834 212.028 67.8623 206.996 67.8623Z" fill="#F4F7FD"/>
<path d="M205.725 67.7241H133.715C128.537 67.7241 124.325 63.5121 124.325 58.3347C124.325 53.1574 128.537 48.9453 133.715 48.9453H205.725C210.902 48.9453 215.114 53.1574 215.114 58.3347C215.114 63.5121 210.902 67.7241 205.725 67.7241ZM133.715 49.5033C128.845 49.5033 124.883 53.4651 124.883 58.3348C124.883 63.2045 128.845 67.1663 133.715 67.1663H205.725C210.594 67.1663 214.556 63.2045 214.556 58.3348C214.556 53.4652 210.594 49.5033 205.725 49.5033H133.715Z" fill="#FF7312"/>
<path d="M135.231 58.8878H134.36C134.086 58.8878 133.864 58.6656 133.864 58.3916V57.5206C133.864 57.2466 134.086 57.0244 134.36 57.0244H135.231C135.505 57.0244 135.728 57.2466 135.728 57.5206V58.3916C135.728 58.6656 135.505 58.8878 135.231 58.8878Z" fill="#FF7312"/>
<path d="M138.499 58.8878H137.628C137.353 58.8878 137.131 58.6656 137.131 58.3916V57.5206C137.131 57.2466 137.353 57.0244 137.628 57.0244H138.499C138.773 57.0244 138.995 57.2466 138.995 57.5206V58.3916C138.995 58.6656 138.773 58.8878 138.499 58.8878Z" fill="#FF7312"/>
<path d="M141.766 58.8878H140.895C140.621 58.8878 140.399 58.6656 140.399 58.3916V57.5206C140.399 57.2466 140.621 57.0244 140.895 57.0244H141.766C142.04 57.0244 142.262 57.2466 142.262 57.5206V58.3916C142.262 58.6656 142.04 58.8878 141.766 58.8878Z" fill="#FF7312"/>
<path d="M145.032 58.8878H144.161C143.887 58.8878 143.665 58.6656 143.665 58.3916V57.5206C143.665 57.2466 143.887 57.0244 144.161 57.0244H145.032C145.306 57.0244 145.528 57.2466 145.528 57.5206V58.3916C145.528 58.6656 145.306 58.8878 145.032 58.8878Z" fill="#FF7312"/>
<path d="M148.3 58.8878H147.429C147.155 58.8878 146.933 58.6656 146.933 58.3916V57.5206C146.933 57.2466 147.155 57.0244 147.429 57.0244H148.3C148.574 57.0244 148.796 57.2466 148.796 57.5206V58.3916C148.796 58.6656 148.574 58.8878 148.3 58.8878Z" fill="#FF7312"/>
<path d="M151.567 58.8878H150.696C150.422 58.8878 150.2 58.6656 150.2 58.3916V57.5206C150.2 57.2466 150.422 57.0244 150.696 57.0244H151.567C151.841 57.0244 152.063 57.2466 152.063 57.5206V58.3916C152.063 58.6656 151.841 58.8878 151.567 58.8878Z" fill="#FF7312"/>
<path d="M154.834 58.8878H153.963C153.689 58.8878 153.467 58.6656 153.467 58.3916V57.5206C153.467 57.2466 153.689 57.0244 153.963 57.0244H154.834C155.108 57.0244 155.331 57.2466 155.331 57.5206V58.3916C155.331 58.6656 155.108 58.8878 154.834 58.8878Z" fill="#FF7312"/>
<path d="M158.101 58.8878H157.23C156.956 58.8878 156.734 58.6656 156.734 58.3916V57.5206C156.734 57.2466 156.956 57.0244 157.23 57.0244H158.101C158.375 57.0244 158.597 57.2466 158.597 57.5206V58.3916C158.597 58.6656 158.375 58.8878 158.101 58.8878Z" fill="#FF7312"/>
<path d="M161.369 58.8878H160.498C160.224 58.8878 160.001 58.6656 160.001 58.3916V57.5206C160.001 57.2466 160.224 57.0244 160.498 57.0244H161.369C161.643 57.0244 161.865 57.2466 161.865 57.5206V58.3916C161.865 58.6656 161.643 58.8878 161.369 58.8878Z" fill="#FF7312"/>
<path d="M164.635 58.8878H163.764C163.49 58.8878 163.268 58.6656 163.268 58.3916V57.5206C163.268 57.2466 163.49 57.0244 163.764 57.0244H164.635C164.909 57.0244 165.131 57.2466 165.131 57.5206V58.3916C165.131 58.6656 164.909 58.8878 164.635 58.8878Z" fill="#FF7312"/>
<path d="M167.902 58.8878H167.031C166.757 58.8878 166.535 58.6656 166.535 58.3916V57.5206C166.535 57.2466 166.757 57.0244 167.031 57.0244H167.902C168.176 57.0244 168.398 57.2466 168.398 57.5206V58.3916C168.398 58.6656 168.176 58.8878 167.902 58.8878Z" fill="#FF7312"/>
<path d="M171.169 58.8878H170.298C170.024 58.8878 169.802 58.6656 169.802 58.3916V57.5206C169.802 57.2466 170.024 57.0244 170.298 57.0244H171.169C171.443 57.0244 171.665 57.2466 171.665 57.5206V58.3916C171.665 58.6656 171.443 58.8878 171.169 58.8878Z" fill="#FF7312"/>
<path d="M174.436 58.8878H173.565C173.291 58.8878 173.068 58.6656 173.068 58.3916V57.5206C173.068 57.2466 173.291 57.0244 173.565 57.0244H174.436C174.71 57.0244 174.932 57.2466 174.932 57.5206V58.3916C174.932 58.6656 174.71 58.8878 174.436 58.8878Z" fill="#FF7312"/>
<path d="M177.703 58.8878H176.832C176.558 58.8878 176.336 58.6656 176.336 58.3916V57.5206C176.336 57.2466 176.558 57.0244 176.832 57.0244H177.703C177.977 57.0244 178.199 57.2466 178.199 57.5206V58.3916C178.199 58.6656 177.977 58.8878 177.703 58.8878Z" fill="#FF7312"/>
<path d="M180.97 58.8878H180.099C179.825 58.8878 179.603 58.6656 179.603 58.3916V57.5206C179.603 57.2466 179.825 57.0244 180.099 57.0244H180.97C181.244 57.0244 181.466 57.2466 181.466 57.5206V58.3916C181.466 58.6656 181.244 58.8878 180.97 58.8878Z" fill="#FF7312"/>
<path d="M184.237 58.8878H183.366C183.092 58.8878 182.87 58.6656 182.87 58.3916V57.5206C182.87 57.2466 183.092 57.0244 183.366 57.0244H184.237C184.511 57.0244 184.733 57.2466 184.733 57.5206V58.3916C184.733 58.6656 184.511 58.8878 184.237 58.8878Z" fill="#FF7312"/>
<path d="M187.504 58.8878H186.633C186.359 58.8878 186.137 58.6656 186.137 58.3916V57.5206C186.137 57.2466 186.359 57.0244 186.633 57.0244H187.504C187.778 57.0244 188.001 57.2466 188.001 57.5206V58.3916C188.001 58.6656 187.778 58.8878 187.504 58.8878Z" fill="#FF7312"/>
<path d="M190.771 58.8878H189.9C189.626 58.8878 189.404 58.6656 189.404 58.3916V57.5206C189.404 57.2466 189.626 57.0244 189.9 57.0244H190.771C191.046 57.0244 191.268 57.2466 191.268 57.5206V58.3916C191.268 58.6656 191.045 58.8878 190.771 58.8878Z" fill="#FF7312"/>
<path d="M194.038 58.8878H193.167C192.893 58.8878 192.671 58.6656 192.671 58.3916V57.5206C192.671 57.2466 192.893 57.0244 193.167 57.0244H194.038C194.312 57.0244 194.534 57.2466 194.534 57.5206V58.3916C194.534 58.6656 194.312 58.8878 194.038 58.8878Z" fill="#FF7312"/>
<path d="M197.305 58.8878H196.434C196.16 58.8878 195.938 58.6656 195.938 58.3916V57.5206C195.938 57.2466 196.16 57.0244 196.434 57.0244H197.305C197.579 57.0244 197.801 57.2466 197.801 57.5206V58.3916C197.801 58.6656 197.579 58.8878 197.305 58.8878Z" fill="#FF7312"/>
<path d="M200.573 58.8878H199.702C199.428 58.8878 199.206 58.6656 199.206 58.3916V57.5206C199.206 57.2466 199.428 57.0244 199.702 57.0244H200.573C200.847 57.0244 201.069 57.2466 201.069 57.5206V58.3916C201.069 58.6656 200.847 58.8878 200.573 58.8878Z" fill="#FF7312"/>
<path d="M203.839 58.8878H202.968C202.694 58.8878 202.472 58.6656 202.472 58.3916V57.5206C202.472 57.2466 202.694 57.0244 202.968 57.0244H203.839C204.113 57.0244 204.336 57.2466 204.336 57.5206V58.3916C204.336 58.6656 204.113 58.8878 203.839 58.8878Z" fill="#FF7312"/>
<path d="M207.106 58.8878H206.235C205.961 58.8878 205.739 58.6656 205.739 58.3916V57.5206C205.739 57.2466 205.961 57.0244 206.235 57.0244H207.106C207.38 57.0244 207.603 57.2466 207.603 57.5206V58.3916C207.603 58.6656 207.38 58.8878 207.106 58.8878Z" fill="#FF7312"/>
<path d="M37.6293 146.534H35.6181H30.4207C30.0986 146.534 29.8676 146.845 29.96 147.153L33.1135 157.685C33.1745 157.889 33.3618 158.028 33.5742 158.028H35.6181H37.6293H39.6731C39.8856 158.028 40.0729 157.889 40.1338 157.685L43.2873 147.153C43.3798 146.845 43.1486 146.534 42.8266 146.534H37.6293Z" fill="#ADADAD"/>
<path d="M41.7039 141.4C41.9025 140.877 42.159 140.354 42.5879 139.993C43.0169 139.633 43.6547 139.473 44.1503 139.734C44.5145 139.926 44.8919 140.332 45.2515 140.132C45.4752 140.007 45.5248 139.711 45.54 139.456C45.5899 138.622 45.5794 137.682 46.1737 137.095C46.7592 136.517 47.7067 136.529 48.5041 136.732C48.8802 136.828 49.2964 136.954 49.639 136.771C49.8223 136.674 49.9528 136.501 50.0611 136.324C50.4431 135.699 50.6858 134.9 51.3542 134.601C52.4296 134.122 53.6839 135.335 54.79 134.931C55.2228 134.773 55.593 134.375 56.0517 134.418C56.2784 134.44 56.4822 134.572 56.6394 134.737C57.173 135.296 57.1784 136.277 56.6473 136.838C55.9413 137.584 54.6458 137.48 53.9319 138.218C53.246 138.927 53.3026 140.214 52.4657 140.736C51.7606 141.176 50.8094 140.815 50.0259 141.093C49.3975 141.315 48.9871 141.903 48.5801 142.431C48.1731 142.959 47.6557 143.497 46.9902 143.538C46.6407 143.56 46.2929 143.438 45.9443 143.47C44.9413 143.562 44.3824 144.829 43.3865 144.98C42.7181 145.08 42.1458 144.635 41.6831 144.211C41.4995 144.042 41.3278 143.852 41.2615 143.606C41.1819 143.31 41.2482 142.989 41.3139 142.697C41.413 142.257 41.5439 141.823 41.7039 141.4Z" fill="#95C6AF"/>
<path d="M34.5104 139.323C33.9641 138.917 33.6329 138.134 33.9559 137.534C34.1133 137.243 34.3939 137.041 34.6155 136.794C34.8371 136.548 35.0066 136.195 34.8754 135.89C34.8104 135.74 34.682 135.627 34.5578 135.519C34.1101 135.132 33.6563 134.729 33.3745 134.208C33.0927 133.687 33.0131 133.016 33.3248 132.513C33.5601 132.132 33.9715 131.906 34.3285 131.637C34.6856 131.369 35.0244 130.984 34.9947 130.538C34.9577 129.982 34.358 129.477 34.5808 128.966C34.8117 128.437 35.7337 128.466 35.8845 127.909C35.9595 127.632 35.7925 127.354 35.7237 127.076C35.5705 126.455 35.9906 125.751 36.6095 125.59C37.2285 125.43 37.9376 125.842 38.1048 126.459C38.2205 126.887 38.1031 127.361 38.2722 127.77C38.4917 128.301 39.1202 128.555 39.3956 129.059C39.9022 129.986 38.9818 131.084 39.0591 132.137C39.1407 133.252 40.331 134.2 40.0243 135.274C39.9041 135.695 39.5661 136.027 39.449 136.449C39.3095 136.952 39.5055 137.478 39.6458 137.98C39.7861 138.483 39.8531 139.078 39.516 139.477C39.2665 139.771 38.8609 139.875 38.4792 139.934C37.4212 140.099 36.3698 140.051 35.3462 139.731C35.0491 139.638 34.7612 139.509 34.5104 139.323Z" fill="#95C6AF"/>
<path d="M36.6001 149.183C36.5757 149.183 36.5512 149.176 36.5289 149.162C36.4657 149.123 36.4464 149.04 36.4857 148.977C37.4573 147.416 38.663 146.024 40.0692 144.84C41.6185 143.535 43.3906 142.504 45.1044 141.508L56.7436 134.74C56.808 134.702 56.8905 134.724 56.928 134.789C56.9655 134.853 56.9435 134.936 56.8792 134.973L45.24 141.741C43.5361 142.732 41.7743 143.756 40.243 145.046C38.8584 146.212 37.6713 147.583 36.7147 149.119C36.6892 149.16 36.6452 149.183 36.6001 149.183Z" fill="#ADADAD"/>
<path d="M36.9732 148.608C36.9006 148.608 36.8406 148.551 36.8385 148.478C36.6392 141.709 36.788 132.417 36.9478 125.814C36.9497 125.74 37.0101 125.681 37.0859 125.683C37.1604 125.684 37.2193 125.746 37.2175 125.821C37.0576 132.42 36.909 141.707 37.108 148.47C37.1103 148.544 37.0517 148.606 36.9772 148.608C36.976 148.608 36.9746 148.608 36.9732 148.608Z" fill="#ADADAD"/>
<path d="M30.2621 144.958C29.4762 144.873 28.6787 144.352 28.5375 143.574C28.4248 142.953 28.6788 142.155 28.1638 141.791C27.983 141.663 27.7513 141.636 27.5302 141.625C26.7308 141.588 25.8543 141.692 25.2012 141.23C24.2509 140.557 24.346 139.161 24.2686 137.999C24.2488 137.701 24.1989 137.378 23.9831 137.172C23.7528 136.951 23.4051 136.926 23.0938 136.856C21.9593 136.599 21.0732 135.502 21.0612 134.339C21.0574 133.984 21.136 133.61 21.3727 133.345C21.5336 133.165 21.756 133.048 21.9872 132.977C22.7243 132.75 23.5842 132.997 24.0898 133.579C24.4056 133.943 24.5874 134.416 24.9433 134.74C25.9492 135.658 27.6021 134.904 28.8959 135.328C29.6196 135.564 30.1981 136.201 30.3648 136.944C30.5095 137.588 30.3693 138.305 30.6845 138.885C31.2261 139.883 32.6462 139.826 33.6927 140.265C33.9444 140.37 34.1911 140.519 34.3336 140.752C34.4439 140.932 34.4824 141.147 34.4998 141.357C34.5702 142.208 34.3011 143.072 33.7971 143.756C33.5712 144.063 33.2696 144.418 32.9125 144.574C32.6415 144.693 32.3226 144.65 32.0374 144.718C31.446 144.861 30.8786 145.024 30.2621 144.958Z" fill="#95C6AF"/>
<path d="M36.2614 149.377C36.2132 149.377 36.1666 149.351 36.1423 149.306C34.2803 145.823 30.2497 141.224 28.3127 139.014C27.7321 138.351 27.1317 137.666 26.4323 137.113C25.8573 136.659 25.1944 136.277 24.5533 135.907C23.377 135.228 22.1606 134.527 21.4375 133.352C21.3985 133.289 21.4182 133.206 21.4817 133.166C21.5451 133.128 21.6282 133.147 21.6672 133.211C22.3546 134.327 23.4881 134.981 24.688 135.673C25.3375 136.048 26.0092 136.435 26.5996 136.902C27.3183 137.469 27.927 138.164 28.5156 138.836C30.4592 141.054 34.5036 145.669 36.3802 149.178C36.4153 149.244 36.3905 149.326 36.3249 149.361C36.3046 149.372 36.2828 149.377 36.2614 149.377Z" fill="#ADADAD"/>
<path d="M200.184 83.0547C200.184 83.0547 194.058 94.5385 193.075 95.4646C192.091 96.3908 178.209 100.212 178.209 100.212L178.758 102.223C178.758 102.223 195.953 102.622 196.829 102.223C197.705 101.824 202.753 97.3431 202.753 97.3431L200.184 83.0547Z" fill="#ECECEC"/>
<path d="M191.724 151.942L192.143 154.465H195.336L195.152 151.575L191.724 151.942Z" fill="#FDE2D0"/>
<path d="M180.242 151.432L180.417 154.868L183.266 154.648L183.689 151.457L180.242 151.432Z" fill="#FDE2D0"/>
<path d="M204.927 109.899C204.927 109.899 184.653 116.686 181.631 119.708C178.608 122.73 179.809 151.552 179.809 151.552H184.145L190.25 127.835C190.25 127.835 214.824 127.289 217.481 122.623C220.985 116.467 218.309 108.453 218.309 108.453L204.927 109.899Z" fill="#3C3C48"/>
<path d="M206.171 111.497C206.171 111.497 189.31 121.317 187.169 124.577C185.029 127.837 191.413 151.975 191.413 151.975L195.363 151.552L196.377 130.243C196.377 130.243 218.236 125.204 219.745 120.542C221.736 114.392 217.861 107.727 217.861 107.727L206.171 111.497Z" fill="#3C3C48"/>
<path d="M183.743 153.981C183.743 153.981 181.162 154.698 179.967 153.981L174.796 156.682C174.096 157.048 173.657 157.772 173.657 158.562V158.618H183.831C184.138 158.618 184.373 158.346 184.329 158.043L183.743 153.981Z" fill="#3C3C48"/>
<path d="M195.477 153.981C195.477 153.981 192.896 154.698 191.701 153.981L186.53 156.682C185.83 157.048 185.391 157.772 185.391 158.562V158.618H195.565C195.872 158.618 196.107 158.346 196.063 158.043L195.477 153.981Z" fill="#3C3C48"/>
<path d="M205.154 79.9846L203.207 72.0531L203.207 72.0535C203.204 70.5582 202.912 68.7708 202.168 66.6753C201.675 65.287 200.092 64.6249 198.752 65.2384L194.978 66.967C193.95 67.4377 193.4 68.5712 193.668 69.6692C193.986 70.9705 194.365 72.6656 194.487 73.7995C194.593 74.7902 194.866 75.9446 195.52 76.8027C196.663 78.304 198.677 78.8142 200.334 78.0543L200.805 83.2009L205.154 79.9846Z" fill="#FDE2D0"/>
<path d="M193.6 68.5922C193.6 68.5922 197.772 68.9417 199.597 67.5437C199.597 67.5437 199.635 70.3172 200.296 70.7556C200.956 71.194 202.98 70.7482 203.611 73.5507C203.611 73.5507 204.723 70.495 204.218 66.9223C203.713 63.3496 201.461 61.641 199.286 61.8352C197.111 62.0293 189.091 65.0091 193.6 68.5922Z" fill="#3C3C48"/>
<path d="M202.61 70.0771C202.859 69.0356 202.566 68.0729 201.955 67.9268C201.344 67.7806 200.647 68.5064 200.398 69.5479C200.149 70.5893 200.442 71.5521 201.053 71.6982C201.664 71.8443 202.361 71.1185 202.61 70.0771Z" fill="#FDE2D0"/>
<path d="M205.157 78.8066C205.157 78.8066 217.238 83.9037 219.446 110.224C219.446 110.224 214.238 113.382 201.494 111.548C201.494 111.548 201.836 108.705 201.717 107.537C201.597 106.369 197.811 88.5213 200.183 83.0538L205.157 78.8066Z" fill="#ECECEC"/>
<path d="M204.847 84.9448C204.847 84.9448 201.051 94.6573 199.926 96.1383C198.802 97.6193 181.649 100.408 181.649 100.408L182.663 103.196C182.663 103.196 200.255 104.21 202.401 103.196C204.548 102.182 209.364 98.7177 210.716 93.8169C212.068 88.9161 209.118 82.7479 204.847 84.9448Z" fill="#ECECEC"/>
<path d="M196.284 103.758C190.607 103.758 183.129 103.332 182.656 103.305C182.596 103.302 182.55 103.25 182.554 103.19C182.557 103.131 182.606 103.085 182.669 103.088C182.844 103.098 200.257 104.089 202.354 103.098C204.173 102.239 209.203 98.8912 210.61 93.7887C210.626 93.7308 210.687 93.6971 210.744 93.7129C210.802 93.7289 210.836 93.7886 210.82 93.8465C209.39 99.0279 204.291 102.424 202.447 103.295C201.712 103.642 199.242 103.758 196.284 103.758Z" fill="#ECECEC"/>
<path d="M181.648 100.516C181.596 100.516 181.55 100.478 181.541 100.425C181.531 100.366 181.571 100.31 181.631 100.3C187.549 99.3382 198.97 97.2165 199.839 96.0724C200.942 94.6203 204.707 85.0021 204.745 84.9051C204.767 84.8492 204.83 84.8216 204.886 84.8434C204.942 84.8653 204.969 84.9282 204.947 84.9841C204.792 85.3812 201.133 94.7276 200.012 96.2037C198.874 97.702 182.368 100.4 181.666 100.515C181.66 100.516 181.654 100.516 181.648 100.516Z" fill="#ECECEC"/>
<path d="M181.966 100.877C181.966 100.877 179.895 100.397 178.993 100.751C178.668 100.879 175.014 103.828 175.014 103.828H175.856H180.412L182.501 102.753L181.966 100.877Z" fill="#FDE2D0"/>
<path d="M178.32 100.621C178.32 100.621 176.595 100.491 176.035 100.621C175.475 100.751 172.606 102.062 172.606 102.225C172.606 102.387 172.897 102.611 173.278 102.522C173.659 102.432 176.886 101.553 176.886 101.553C176.886 101.553 175.049 102.454 174.78 102.835C174.511 103.216 174.264 103.828 174.264 103.828H177.648L178.757 102.225L178.32 100.621Z" fill="#FDE2D0"/>
<path d="M175.156 103.921C175.147 103.921 175.137 103.92 175.128 103.917C175.079 103.902 175.052 103.85 175.067 103.801C175.072 103.787 175.177 103.459 175.503 103.133C175.818 102.817 178.298 101.115 178.404 101.043C178.446 101.014 178.504 101.024 178.533 101.067C178.562 101.109 178.551 101.167 178.509 101.196C178.483 101.214 175.938 102.961 175.634 103.265C175.34 103.558 175.246 103.853 175.245 103.856C175.232 103.896 175.196 103.921 175.156 103.921Z" fill="#FDE2D0"/>
<path d="M209.499 129.141L202.401 158.619H202.99L212.032 128.983L209.499 129.141Z" fill="#FFDEC8"/>
<path d="M219.471 129.141L226.569 158.619H225.979L216.938 128.983L219.471 129.141Z" fill="#FFDEC8"/>
<path d="M203.294 127.946C203.294 127.946 213.716 122.699 218.68 114.852C221.285 110.735 221.589 99.9698 223.739 99.8045C225.888 99.6392 227.873 103.112 228.534 106.915C229.195 110.718 229.195 125.331 224.4 127.946C219.605 130.56 203.023 131.718 201.889 131.222C200.755 130.726 200.376 129.631 203.294 127.946Z" fill="#FFDEC8"/>
<path d="M207.862 106.771H134.127C133.662 106.771 133.285 106.394 133.285 105.929C133.285 105.465 133.662 105.088 134.127 105.088H207.862C208.327 105.088 208.704 105.465 208.704 105.929C208.704 106.394 208.327 106.771 207.862 106.771Z" fill="#868686"/>
<path d="M138.445 158.618H137.143L147.169 106.771H148.472L138.445 158.618Z" fill="#868686"/>
<path d="M203.545 158.618H204.848L194.821 106.771H193.519L203.545 158.618Z" fill="#868686"/>
<path d="M160.944 103.827L152.423 83.9425C152.335 83.7375 152.133 83.6045 151.91 83.6045C151.51 83.6045 151.24 84.0138 151.398 84.3818L160.271 105.088H160.944H161.484H181.336C181.684 105.088 181.966 104.805 181.966 104.457C181.966 104.109 181.684 103.827 181.336 103.827H160.944Z" fill="#102A54"/>
</svg>
