<svg width="20" height="20" viewBox="0 0 20 20" fill="none" xmlns="http://www.w3.org/2000/svg">
<path d="M5.52246 13.8486H13.3668M5.52246 15.5251H13.3668" stroke="#FF7312" stroke-miterlimit="10" stroke-linecap="round" stroke-linejoin="round"/>
<path d="M11.081 5.26416H14.0812C14.1875 5.26435 14.2926 5.28407 14.3907 5.3222C14.4888 5.36032 14.5778 5.4161 14.6528 5.48636C14.7278 5.55661 14.7872 5.63996 14.8277 5.73165C14.8681 5.82334 14.8888 5.92157 14.8886 6.02073V16.2434C14.8888 16.3426 14.8681 16.4408 14.8277 16.5325C14.7872 16.6242 14.7278 16.7075 14.6528 16.7778C14.5778 16.8481 14.4888 16.9038 14.3907 16.942C14.2926 16.9801 14.1875 16.9998 14.0812 17H4.8074C4.70117 16.9998 4.59601 16.9801 4.49794 16.942C4.39987 16.9038 4.31081 16.8481 4.23584 16.7778C4.16086 16.7075 4.10145 16.6242 4.06098 16.5325C4.02052 16.4408 3.9998 16.3426 4 16.2434V6.02073C3.9998 5.92157 4.02052 5.82334 4.06098 5.73165C4.10145 5.63996 4.16086 5.55661 4.23584 5.48636C4.31081 5.4161 4.39987 5.36032 4.49794 5.3222C4.59601 5.28407 4.70117 5.26435 4.8074 5.26416H7.80765" stroke="#FF7312" stroke-miterlimit="10" stroke-linecap="round" stroke-linejoin="round"/>
<path d="M11.6668 12.1707H7.22266C7.22266 11.025 8.21722 10.0967 9.44457 10.0967C10.6719 10.0967 11.6668 11.025 11.6668 12.1707Z" stroke="#FF7312" stroke-miterlimit="10" stroke-linecap="round" stroke-linejoin="round"/>
<path d="M10.4215 8.99132C10.4215 9.24361 10.3115 9.5201 10.1352 9.73301L10.1293 9.73885C10.0523 9.83314 9.95819 9.91409 9.85121 9.97801C9.72717 10.0524 9.58875 10.0973 9.44502 10.0973C8.90664 10.0973 8.46826 9.49385 8.46826 8.99132C8.46859 8.74961 8.57161 8.51789 8.75471 8.34697C8.93782 8.17605 9.18607 8.0799 9.44502 8.07959C9.70391 8.07998 9.95208 8.17617 10.1351 8.34707C10.3182 8.51798 10.4211 8.74966 10.4215 8.99132Z" stroke="#FF7312" stroke-miterlimit="10" stroke-linecap="round" stroke-linejoin="round"/>
<path d="M7.80744 6.70584V4.52626C7.80765 4.32559 7.8502 4.12692 7.93268 3.9416C8.01516 3.75629 8.13595 3.58796 8.28814 3.44622C8.44033 3.30449 8.62094 3.19213 8.81966 3.11557C9.01838 3.039 9.23132 2.99973 9.4463 3C9.87985 3.00019 10.2956 3.16088 10.6024 3.44683C10.9089 3.73315 11.0811 4.12124 11.0814 4.52597V6.70584H7.80744Z" stroke="#FF7312" stroke-miterlimit="10" stroke-linecap="round" stroke-linejoin="round"/>
</svg>
