<svg width="13" height="16" viewBox="0 0 13 16" fill="none" xmlns="http://www.w3.org/2000/svg">
<path d="M2.52246 11.8486H10.3668M2.52246 13.5251H10.3668" stroke="#FF7312" stroke-miterlimit="10" stroke-linecap="round" stroke-linejoin="round"/>
<path d="M8.08099 3.26416H11.0812C11.1875 3.26435 11.2926 3.28407 11.3907 3.3222C11.4888 3.36032 11.5778 3.4161 11.6528 3.48636C11.7278 3.55661 11.7872 3.63996 11.8277 3.73165C11.8681 3.82334 11.8888 3.92157 11.8886 4.02073V14.2434C11.8888 14.3426 11.8681 14.4408 11.8277 14.5325C11.7872 14.6242 11.7278 14.7075 11.6528 14.7778C11.5778 14.8481 11.4888 14.9038 11.3907 14.942C11.2926 14.9801 11.1875 14.9998 11.0812 15H1.8074C1.70117 14.9998 1.59601 14.9801 1.49794 14.942C1.39987 14.9038 1.31081 14.8481 1.23584 14.7778C1.16086 14.7075 1.10145 14.6242 1.06098 14.5325C1.02052 14.4408 0.999796 14.3426 1 14.2434V4.02073C0.999796 3.92157 1.02052 3.82334 1.06098 3.73165C1.10145 3.63996 1.16086 3.55661 1.23584 3.48636C1.31081 3.4161 1.39987 3.36032 1.49794 3.3222C1.59601 3.28407 1.70117 3.26435 1.8074 3.26416H4.80765" stroke="#FF7312" stroke-miterlimit="10" stroke-linecap="round" stroke-linejoin="round"/>
<path d="M8.66673 10.1707H4.2226C4.2226 9.02504 5.21716 8.09668 6.44451 8.09668C7.67185 8.09668 8.66673 9.02504 8.66673 10.1707Z" stroke="#FF7312" stroke-miterlimit="10" stroke-linecap="round" stroke-linejoin="round"/>
<path d="M7.42139 6.99132C7.42139 7.24361 7.31141 7.5201 7.13518 7.73301L7.12924 7.73885C7.05225 7.83314 6.95813 7.91409 6.85115 7.97801C6.72711 8.05238 6.58869 8.0973 6.44495 8.0973C5.90658 8.0973 5.4682 7.49385 5.4682 6.99132C5.46853 6.74961 5.57155 6.51789 5.75465 6.34697C5.93776 6.17605 6.186 6.0799 6.44495 6.07959C6.70385 6.07998 6.95202 6.17617 7.13506 6.34707C7.31809 6.51798 7.42106 6.74966 7.42139 6.99132Z" stroke="#FF7312" stroke-miterlimit="10" stroke-linecap="round" stroke-linejoin="round"/>
<path d="M4.80744 4.70584V2.52626C4.80765 2.32559 4.8502 2.12692 4.93268 1.9416C5.01516 1.75629 5.13595 1.58796 5.28814 1.44622C5.44033 1.30449 5.62094 1.19213 5.81966 1.11557C6.01838 1.039 6.23132 0.999733 6.4463 1C6.87985 1.00019 7.29561 1.16088 7.6024 1.44683C7.90885 1.73315 8.08112 2.12124 8.08141 2.52597V4.70584H4.80744Z" stroke="#FF7312" stroke-miterlimit="10" stroke-linecap="round" stroke-linejoin="round"/>
</svg>
