<svg width="24" height="24" viewBox="0 0 24 24" fill="none" xmlns="http://www.w3.org/2000/svg">
<path d="M8.5 4.5C8.5 3.39543 9.39543 2.5 10.5 2.5H13.5C14.6046 2.5 15.5 3.39543 15.5 4.5V5.5H14.5V4.5C14.5 3.94769 14.0522 3.5 13.5 3.5H10.5C9.94778 3.5 9.5 3.94769 9.5 4.5V5.5H8.5V4.5Z" stroke="#868686"/>
<path d="M2.5 10C2.5 9.72386 2.72386 9.5 3 9.5H21C21.2762 9.5 21.5 9.72386 21.5 10V21C21.5 21.2762 21.2762 21.5 21 21.5H3C2.72386 21.5 2.5 21.2762 2.5 21V10Z" stroke="#868686"/>
<path d="M1.5 6C1.5 5.72386 1.72386 5.5 2 5.5H22C22.2762 5.5 22.5 5.72386 22.5 6V13C22.5 13.2521 22.3123 13.4649 22.0619 13.4962L14.0624 14.4961C14.0414 14.4987 14.0206 14.5 14 14.5H10C9.97943 14.5 9.95855 14.4987 9.93749 14.4961L1.93803 13.4962C1.93802 13.4962 1.938 13.4962 1.93799 13.4962C1.68774 13.4648 1.5 13.2521 1.5 13V6Z" fill="#F2F2F2" stroke="#868686"/>
<path d="M9.5 11.5C9.5 11.2238 9.72386 11 10 11H14C14.2762 11 14.5 11.2238 14.5 11.5V16.5C14.5 16.7762 14.2762 17 14 17H10C9.72386 17 9.5 16.7762 9.5 16.5V11.5Z" fill="#F2F2F2" stroke="#868686"/>
</svg>
