<svg width="160" height="160" viewBox="0 0 160 160" fill="none" xmlns="http://www.w3.org/2000/svg">
<path d="M160 122.367H0V122.447H160V122.367Z" fill="#EBEBEB"/>
<path d="M143.968 127.518H133.369V127.598H143.968V127.518Z" fill="#EBEBEB"/>
<path d="M105.99 128.387H103.209V128.467H105.99V128.387Z" fill="#EBEBEB"/>
<path d="M133.049 124.547H126.908V124.627H133.049V124.547Z" fill="#EBEBEB"/>
<path d="M30.6086 125.084H16.7869V125.164H30.6086V125.084Z" fill="#EBEBEB"/>
<path d="M35.4845 125.084H33.4579V125.164H35.4845V125.084Z" fill="#EBEBEB"/>
<path d="M72.047 126.436H42.0707V126.516H72.047V126.436Z" fill="#EBEBEB"/>
<path d="M75.8445 108.096H14.0528C13.0457 108.096 12.2262 107.276 12.2262 106.269V19.4112C12.2262 18.4042 13.0457 17.5846 14.0528 17.5846H75.8445C76.8512 17.5846 77.6707 18.4042 77.6707 19.4112V106.269C77.6707 107.276 76.8512 108.096 75.8445 108.096ZM14.0528 17.665C13.0896 17.665 12.3062 18.4483 12.3062 19.4115V106.27C12.3062 107.233 13.0896 108.016 14.0528 108.016H75.8445C76.8074 108.016 77.5907 107.233 77.5907 106.27V19.4112C77.5907 18.4483 76.8074 17.6646 75.8445 17.6646L14.0528 17.665Z" fill="#EBEBEB"/>
<path d="M145.059 108.096H83.2678C82.2608 108.096 81.4416 107.276 81.4416 106.269V19.4112C81.4416 18.4042 82.2611 17.5846 83.2678 17.5846H145.059C146.067 17.5846 146.886 18.4042 146.886 19.4112V106.269C146.886 107.276 146.067 108.096 145.059 108.096ZM83.2678 17.665C82.3049 17.665 81.5216 18.4483 81.5216 19.4115V106.27C81.5216 107.233 82.3049 108.016 83.2678 108.016H145.059C146.022 108.016 146.806 107.233 146.806 106.27V19.4112C146.806 18.4483 146.022 17.6646 145.059 17.6646L83.2678 17.665Z" fill="#EBEBEB"/>
<path d="M17.5917 122.367H26.2919L26.2919 99.1857H17.5917L17.5917 122.367Z" fill="#DADADA"/>
<path d="M19.2442 122.367H17.5917V116.241H20.9766L19.2442 122.367Z" fill="#F5F5F5"/>
<path d="M67.2326 122.367H75.9327V99.1857H67.2326V122.367Z" fill="#DADADA"/>
<path d="M17.5915 120.695H68.6747V99.1858H17.5915V120.695Z" fill="#F5F5F5"/>
<path d="M67.0224 122.367H68.6749V116.241H65.2896L67.0224 122.367Z" fill="#F5F5F5"/>
<path d="M67.136 118.106H51.6736V101.556H67.136V118.106ZM51.9936 117.786H66.816V101.876H51.9936V117.786Z" fill="#DADADA"/>
<path d="M50.8643 118.106H35.4019V101.556H50.8643V118.106ZM35.7219 117.786H50.5443V101.876H35.7219V117.786Z" fill="#DADADA"/>
<path d="M34.593 118.106H19.1299V101.556H34.5926L34.593 118.106ZM19.4499 117.786H34.2726V101.876H19.4499V117.786Z" fill="#DADADA"/>
<path d="M86.8684 74.1309H138.134V30.4801L86.8684 30.4801V74.1309Z" fill="#DEE5FF"/>
<path d="M85.7147 74.1309H137.633V30.4801L85.7147 30.4801V74.1309Z" fill="#DEE5FF"/>
<path d="M135.562 72.0363V32.5751L87.7856 32.5751V72.0363H135.562Z" fill="#F3F5FC"/>
<path d="M129.7 72.0362L110.896 32.575H104.509L123.313 72.0362H129.7Z" fill="white"/>
<path d="M121.502 72.0362L102.699 32.575H98.3008L117.104 72.0362H121.502Z" fill="white"/>
<path d="M105.526 72.0361L105.526 32.575H103.055V72.0361H105.526Z" fill="#DEE5FF"/>
<path d="M121.948 72.036L121.948 32.5749H119.477V72.036H121.948Z" fill="#DEE5FF"/>
<path d="M105.08 73.3653L105.08 31.0175H101.957L101.957 73.3653H105.08Z" fill="#DEE5FF"/>
<path d="M121.502 73.3652L121.502 31.0174H118.379L118.379 73.3652H121.502Z" fill="#DEE5FF"/>
<path d="M88.0054 72.0363L88.0054 32.5752H87.7855L87.7855 72.0363H88.0054Z" fill="#DEE5FF"/>
<path d="M36.2384 99.1859H28.983C28.2115 99.1859 27.5859 98.5603 27.5859 97.7888V85.2538C27.5859 84.4822 28.2115 83.8566 28.983 83.8566H36.2384C37.0099 83.8566 37.6355 84.4822 37.6355 85.2538V97.7888C37.6355 98.5603 37.0102 99.1859 36.2384 99.1859Z" fill="#E9E9E9"/>
<path d="M37.1667 84.0374H28.055C27.7958 84.0374 27.5859 83.8275 27.5859 83.5683V83.1888C27.5859 82.9296 27.7958 82.7197 28.055 82.7197H37.1667C37.4259 82.7197 37.6358 82.9296 37.6358 83.1888V83.5683C37.6355 83.8275 37.4256 84.0374 37.1667 84.0374Z" fill="#DADADA"/>
<path d="M63.7859 99.1859H58.52C57.96 99.1859 57.5059 98.7318 57.5059 98.1718V89.0739C57.5059 88.5139 57.96 88.0598 58.52 88.0598H63.7859C64.3459 88.0598 64.8 88.5139 64.8 89.0739V98.1718C64.8 98.7318 64.3459 99.1859 63.7859 99.1859Z" fill="#F0F0F0"/>
<path d="M64.4595 88.1914H57.8464C57.6586 88.1914 57.5059 88.039 57.5059 87.8509V87.5754C57.5059 87.3872 57.6582 87.2349 57.8464 87.2349H64.4595C64.6477 87.2349 64.8 87.3872 64.8 87.5754V87.8509C64.8 88.0387 64.6477 88.1914 64.4595 88.1914Z" fill="#E6E6E6"/>
<path d="M47.079 99.1859H37.1085C36.048 99.1859 35.1885 98.3264 35.1885 97.2659V92.1667C35.1885 91.1062 36.048 90.2467 37.1085 90.2467H47.079C48.1395 90.2467 48.999 91.1062 48.999 92.1667V97.2659C48.999 98.3261 48.1395 99.1859 47.079 99.1859Z" fill="#F5F5F5"/>
<path d="M48.3546 90.4957H35.833C35.4768 90.4957 35.1885 90.207 35.1885 89.8512V89.3299C35.1885 88.9738 35.4771 88.6854 35.833 88.6854H48.3546C48.7107 88.6854 48.999 88.9741 48.999 89.3299V89.8512C48.999 90.207 48.7104 90.4957 48.3546 90.4957Z" fill="#E9E9E9"/>
<path d="M90.3793 122.367H91.9915V95.9215H90.3793V122.367Z" fill="#E6E6E6"/>
<path d="M84.7955 122.367H86.4077V95.9215H84.7955V122.367Z" fill="#F5F5F5"/>
<path d="M22.2971 55.6912H42.8225V32.6723H22.2971L22.2971 55.6912Z" fill="#F0F0F0"/>
<path d="M20.8499 55.6912H42.503V32.6723H20.8499L20.8499 55.6912Z" fill="#F5F5F5"/>
<path d="M22.6639 34.4862V53.8773H40.6892V34.4862H22.6639Z" fill="white"/>
<path d="M28.6874 38.5917C27.2675 38.5917 25.9184 39.425 25.3363 40.807C24.5648 42.6387 25.4358 44.7734 27.272 45.545L40.6906 51.1917V43.3347L30.079 38.8714C29.6243 38.6816 29.151 38.5917 28.6874 38.5917Z" fill="#F0F0F0"/>
<path d="M49.5546 67.2006H70.08V44.1818H49.5546V67.2006Z" fill="#F0F0F0"/>
<path d="M48.1073 67.2006H69.7605V44.1818H48.1073V67.2006Z" fill="#F5F5F5"/>
<path d="M49.9211 45.9956V65.3866H67.9463V45.9956H49.9211Z" fill="white"/>
<path d="M60.9629 53.4928L49.9219 48.8467V56.889L58.0899 60.3238C59.9699 61.1136 62.1546 60.2221 62.9443 58.3424C63.7341 56.4675 62.8426 54.2825 60.9629 53.4928Z" fill="#F0F0F0"/>
<path d="M109.508 129.088C114.194 122.852 125.749 105.85 119.333 97.5007C116.887 94.3177 111.432 95.579 110.45 107.958C109.762 116.636 106.628 125.353 105.141 129.088H109.508Z" fill="#95C6AF"/>
<path d="M107.301 129.088C110.338 123.764 112.447 118.129 113.761 113.988C115.532 108.409 116.286 104.26 116.293 104.219C116.32 104.071 116.226 103.928 116.082 103.901C115.938 103.873 115.801 103.971 115.774 104.119C115.766 104.161 115.018 108.28 113.256 113.826C111.928 118.01 109.783 123.727 106.686 129.088H107.301V129.088Z" fill="#95C6AF"/>
<path d="M140.494 93.3121C138.65 87.7469 130.615 86.7417 123.47 103.142C118.548 114.439 110.383 124.609 106.514 129.088H115.796C126.448 121.552 144.802 106.311 140.494 93.3121Z" fill="#E8F3EE"/>
<path d="M133.056 100.421C132.874 100.311 132.639 100.376 132.534 100.564C132.504 100.617 129.55 105.864 124.545 112.551C120.987 117.305 115.801 123.557 109.573 129.088H110.739C116.722 123.663 121.704 117.641 125.159 113.023C130.192 106.296 133.167 101.012 133.195 100.959C133.302 100.771 133.24 100.529 133.056 100.421Z" fill="#95C6AF"/>
<path d="M50.9927 122.806C50.9767 123.413 51.1007 124.002 51.3212 124.523H56.7652C58.1542 123.22 58.5601 121.079 57.6402 119.339C57.2311 118.566 56.6099 117.958 55.6675 117.843C52.7169 117.481 54.7894 115.177 53.7051 113.336C52.4568 111.216 50.2918 112.036 49.528 110.361C48.4651 108.033 45.3438 106.816 45.0284 109.629C44.7129 112.443 47.1603 113.432 46.2689 115.436C45.3776 117.44 45.9735 119.523 47.8227 119.901C49.6728 120.278 51.0547 120.449 50.9927 122.806Z" fill="#95C6AF"/>
<path d="M55.9845 124.523L48.0663 111.851C48.0025 111.749 47.8706 111.719 47.7716 111.785C47.6727 111.851 47.644 111.987 47.7078 112.089L55.4772 124.523H55.9845Z" fill="#95C6AF"/>
<path d="M81.4611 128.467C96.209 109.033 103.175 94.2667 101.641 85.6127C101.58 85.2676 101.801 84.9367 102.135 84.8735C102.47 84.8104 102.79 85.0392 102.851 85.384C103.774 90.5888 101.882 97.7456 97.2262 106.655C93.8284 113.158 88.9634 120.606 82.739 128.841L81.4611 128.467Z" fill="#95C6AF"/>
<path d="M100.734 98.3556C100.734 98.3556 104.98 101.352 109.792 93.4405C109.792 93.4405 102.033 90.7568 100.734 98.3556Z" fill="#E8F3EE"/>
<path d="M98.4584 102.567C98.4584 102.567 101.593 98.3579 94.2081 92.9587C94.2081 92.9587 91.1805 100.806 98.4584 102.567Z" fill="#E8F3EE"/>
<path d="M102.39 89.4742C102.39 89.4742 106.704 86.5845 101.486 78.9528C101.486 78.9528 96.0969 85.3094 102.39 89.4742Z" fill="#E8F3EE"/>
<path d="M94.1322 111.185C94.1322 111.185 97.1458 115.487 104.266 109.722C104.266 109.722 97.844 104.487 94.1322 111.185Z" fill="#E8F3EE"/>
<path d="M91.1839 115.112C91.1839 115.112 94.9764 111.526 88.6074 104.89C88.6074 104.89 84.3107 112.078 91.1839 115.112Z" fill="#E8F3EE"/>
<path d="M87.6649 120.904C87.6649 120.904 90.5991 125.264 97.8241 119.639C97.8241 119.639 91.499 114.28 87.6649 120.904Z" fill="#E8F3EE"/>
<path d="M80 136.82C114.266 136.82 142.044 135.197 142.044 133.196C142.044 131.195 114.266 129.573 80 129.573C45.7338 129.573 17.9555 131.195 17.9555 133.196C17.9555 135.197 45.7338 136.82 80 136.82Z" fill="#F5F5F5"/>
<path d="M62.1027 37.1859C62.4096 35.84 65.7696 34.56 68.6496 36.5334C71.5296 38.5069 72.2925 41.8928 71.3696 44.6237C69.823 49.2 77.8922 49.0307 79.7603 56.7466C81.2355 62.8403 79.8672 71.4374 71.6352 70.9699C59.0688 70.2563 60.1539 57.9731 59.6016 51.52C59.0496 45.0666 52.1958 37.8384 62.1027 37.1859Z" fill="#3C3C48"/>
<path d="M57.951 54.4189C57.8979 55.353 57.7882 56.2086 57.6656 57.0957C57.5405 57.975 57.3757 58.848 57.1853 59.7187C56.9907 60.5885 56.7846 61.4582 56.5101 62.3162C56.2499 63.1763 55.9414 64.0301 55.577 64.8691L55.2947 65.4963C55.255 65.5917 55.1789 65.7306 55.1184 65.8483C55.0541 65.9699 54.9853 66.0768 54.9184 66.1907C54.6461 66.6285 54.3462 67.0022 54.0426 67.359C53.4349 68.0704 52.7862 68.6931 52.1232 69.287C50.7818 70.4605 52.4865 69.5425 50.9998 70.5002L49.4999 69.0002C48.9066 69.6015 50.1028 68.4165 49.4999 69.0002C50.0986 68.4025 50.0458 68.3722 50.601 67.7507C51.1594 67.1341 51.6909 66.5002 52.1539 65.8646C52.3837 65.5472 52.5904 65.2234 52.7542 64.9194C52.7901 64.8448 52.8339 64.7677 52.8643 64.6963C52.8954 64.6192 52.9232 64.5693 52.961 64.464L53.176 63.9008C53.7322 62.3875 54.1267 60.7792 54.4486 59.1546C54.6122 58.3414 54.7283 57.5162 54.8512 56.6934C54.9699 55.8774 55.0637 55.024 55.1357 54.2419L57.951 54.4189Z" fill="#FDE2D0"/>
<path d="M56.0314 51.0576C54.8947 51.3469 54.0995 56.025 54.0995 56.025L58.447 58.9814C58.447 58.9814 60.2355 53.4358 59.361 52.1862C58.4502 50.8848 57.6902 50.6352 56.0314 51.0576Z" fill="#D3D3D3"/>
<path opacity="0.2" d="M56.1341 52.1024L55.2608 56.8176L57.0214 58.0115L56.1341 52.1024Z" fill="#121212"/>
<path d="M62.1814 129.793H59.4233L59.2393 123.406H61.9974L62.1814 129.793Z" fill="#FDE2D0"/>
<path d="M81.255 121.665L78.7018 122.707L75.4666 117.129L78.0202 116.086L81.255 121.665Z" fill="#FDE2D0"/>
<path d="M78.2208 122.324L80.8845 120.741C80.9814 120.684 81.1001 120.704 81.1699 120.791L82.7257 122.718C82.887 122.918 82.8221 123.237 82.5961 123.366C81.6579 123.902 81.1779 124.113 80.0064 124.809C79.2857 125.237 77.5913 126.705 76.5961 127.296C75.6227 127.875 74.9632 126.935 75.3245 126.6C76.9453 125.096 77.5971 123.603 77.9107 122.706C77.9677 122.544 78.079 122.409 78.2208 122.324Z" fill="#121212"/>
<path d="M59.329 129.474H62.4275C62.5402 129.474 62.6317 129.552 62.6477 129.662L63.0006 132.114C63.0371 132.368 62.8185 132.609 62.5584 132.604C61.4781 132.586 60.9574 132.523 59.5949 132.523C58.7565 132.523 57.0224 132.61 55.865 132.61C54.7328 132.61 54.6454 131.465 55.1277 131.361C57.2893 130.896 58.1398 130.255 58.8678 129.644C58.9994 129.533 59.1638 129.474 59.329 129.474Z" fill="#121212"/>
<g opacity="0.2">
<path d="M59.24 123.408L59.3344 126.7H62.0934L61.999 123.408H59.24Z" fill="#121212"/>
<path d="M78.0214 116.088L75.4669 117.131L77.1357 120.005L79.6902 118.963L78.0214 116.088Z" fill="#121212"/>
</g>
<path d="M56.0314 51.0576C56.0314 51.0576 54.7174 51.5203 57.3494 67.704C61.7942 67.704 66.3882 67.704 68.551 67.704C68.3632 63.145 68.3578 60.3338 70.5366 50.9776C70.5366 50.9776 68.1898 50.4672 65.7798 50.351C63.8947 50.2602 62.3504 50.2 60.6934 50.3514C58.5088 50.5507 56.0314 51.0576 56.0314 51.0576Z" fill="#F5F5F5"/>
<path opacity="0.2" d="M69.6128 54.6816C68.5984 54.9344 67.6608 56.0416 67.7728 58.08C67.84 59.3024 68.4 60.2272 68.7072 60.6464C68.8864 59.0784 69.1872 57.2576 69.664 54.928L69.6128 54.6816Z" fill="#121212"/>
<path d="M61.2832 54.8266C61.2832 54.8266 62.7385 55.7245 63.1203 57.0576C64.6998 55.9002 66.8483 52.6771 66.9334 50.7491C66.9437 50.5146 66.7446 50.3248 66.5097 50.3213C66.0505 50.3142 65.7805 50.351 65.7805 50.351L61.2832 54.8266Z" fill="#FAFAFA"/>
<path d="M61.2832 54.8266C61.2832 54.8266 59.8278 55.7245 59.4464 57.0576C57.7482 55.8131 58.6902 51.7066 59.663 50.3386C60.3651 50.2928 60.6938 50.351 60.6938 50.351L61.2832 54.8266Z" fill="#FAFAFA"/>
<path d="M65.2762 44.6237C64.9552 46.2605 64.6352 49.2589 65.7802 50.351C65.7802 50.351 64.2675 53.2534 61.2832 54.8266C59.0141 53.0131 60.6938 50.351 60.6938 50.351C62.5187 49.9152 62.4717 48.5613 62.1539 47.2896L65.2762 44.6237Z" fill="#FDE2D0"/>
<path opacity="0.2" d="M64.0032 45.7114L62.1552 47.2883C62.2313 47.5894 62.2909 47.8944 62.312 48.191C63.0093 48.0902 64.1056 47.4963 64.2553 46.7382C64.3261 46.3792 64.0624 45.881 64.0032 45.7114Z" fill="#121212"/>
<path d="M68.0198 41.9949C67.263 44.6256 66.999 45.7552 65.3478 46.8246C62.864 48.4333 59.7981 46.9286 59.7536 44.1251C59.7136 41.6016 60.9574 37.7235 63.8042 37.2426C66.6086 36.7683 68.7766 39.3642 68.0198 41.9949Z" fill="#FDE2D0"/>
<path d="M62.3386 37.4755C62.463 38.3645 67.3341 41.2266 68.2586 39.7334C69.183 38.24 67.8528 37.12 65.7802 36.8355C63.7075 36.551 62.3386 37.4755 62.3386 37.4755Z" fill="#3C3C48"/>
<path d="M65.512 37.9571C64.9136 38.7462 66.1808 44.4147 67.9961 43.8819C69.8115 43.3494 69.727 41.5341 68.4662 39.8595C67.2051 38.1846 65.512 37.9571 65.512 37.9571Z" fill="#3C3C48"/>
<path d="M57.3494 67.7043C57.3494 67.7043 55.1741 88.9504 55.3545 97.3613C55.5427 106.11 58.7485 126.063 58.7485 126.063H62.4781C62.4781 126.063 61.888 106.621 62.2176 98.0291C62.5769 88.6624 65.5523 67.7043 65.5523 67.7043H57.3494Z" fill="#4E587C"/>
<path opacity="0.4" d="M57.3494 67.7043C57.3494 67.7043 55.1741 88.9504 55.3545 97.3613C55.5427 106.11 58.7485 126.063 58.7485 126.063H62.4781C62.4781 126.063 61.888 106.621 62.2176 98.0291C62.5769 88.6624 65.5523 67.7043 65.5523 67.7043H57.3494Z" fill="#121212"/>
<path d="M62.8013 126.196H58.4253L58.1043 124.8L63.0048 124.63L62.8013 126.196Z" fill="#121212"/>
<path opacity="0.2" d="M62.1811 72.9904C59.4297 78.5251 61.6288 88.6218 62.6016 92.3779C63.1005 86.7363 63.9417 79.8403 64.5974 74.776C64.1805 71.9107 63.4499 70.4387 62.1811 72.9904Z" fill="#121212"/>
<path d="M60.3075 67.7043C60.3075 67.7043 62.8451 89.7923 64.7613 96.8835C67.0365 105.302 76.2781 119.667 76.2781 119.667L79.7603 118.245C79.7603 118.245 73.792 101.89 72.0528 97.4547C68.3405 87.9885 71.5181 73.8816 68.5513 67.7043H60.3075Z" fill="#4E587C"/>
<path opacity="0.4" d="M60.3075 67.7043C60.3075 67.7043 62.8451 89.7923 64.7613 96.8835C67.0365 105.302 76.2781 119.667 76.2781 119.667L79.7603 118.245C79.7603 118.245 73.792 101.89 72.0528 97.4547C68.3405 87.9885 71.5181 73.8816 68.5513 67.7043H60.3075Z" fill="#121212"/>
<path d="M80.2358 118.264L75.9158 120.027L74.9014 118.857L79.8896 116.553L80.2358 118.264Z" fill="#121212"/>
<path d="M22.3447 36.7257C14.5633 43.6124 13.8395 55.5055 20.7265 63.287C27.6132 71.0684 39.5044 71.7938 47.2858 64.9068C55.0673 58.0201 55.7943 46.1273 48.9076 38.3458C42.0209 30.5644 30.1262 29.839 22.3447 36.7257ZM45.3127 62.6774C38.763 68.4742 28.7531 67.8633 22.9563 61.3138C17.1582 54.7625 17.7684 44.7522 24.3182 38.9558C30.8695 33.1574 40.8798 33.7679 46.6778 40.3196C52.4747 46.8687 51.8641 56.879 45.3127 62.6774Z" fill="#182452"/>
<g opacity="0.5">
<path d="M35.6986 36.3286C35.6071 36.3228 35.5178 36.3174 35.426 36.3145L20.3482 49.6585C20.3402 49.75 20.3345 49.8415 20.329 49.9334C20.1297 53.205 21.0327 56.2902 22.715 58.829L44.241 39.7778C41.9281 37.7996 38.9729 36.5282 35.6986 36.3286Z" fill="#DEE5FF"/>
<path d="M45.6346 41.1404L23.8983 60.3775C24.6234 61.2073 25.443 61.9532 26.3431 62.5999L47.5431 43.837C47.011 42.8652 46.37 41.9609 45.6346 41.1404Z" fill="#DEE5FF"/>
</g>
<path d="M49.6215 65.0489L47.1447 67.2409C46.7684 67.574 46.1934 67.5388 45.8606 67.1625C45.5274 66.7862 45.5626 66.2111 45.939 65.8783L48.4158 63.6863C48.7921 63.3532 49.3671 63.3884 49.6999 63.7647C50.0327 64.1407 49.9978 64.7158 49.6215 65.0489Z" fill="#182452"/>
<path d="M48.7092 64.6412C50.5761 66.2838 52.3617 67.9986 54.123 69.735C55.8827 71.4726 57.6078 73.2406 59.3108 75.0284C61.0119 76.8178 62.6852 78.6322 64.3419 80.4607C65.8964 82.3798 68.0158 83.799 68.3326 86.814C68.4206 87.6511 67.8132 88.4009 66.9761 88.4889C66.8059 88.5068 66.6328 88.494 66.4747 88.4585C63.5208 87.7775 62.3694 85.5014 60.6535 83.725C59.0398 81.8582 57.4423 79.9772 55.8727 78.071C54.3051 76.1634 52.7598 74.2361 51.2491 72.2783C49.7396 70.319 48.2545 68.3385 46.851 66.2857C46.4612 65.7158 46.6075 64.9375 47.1774 64.5478C47.6593 64.2185 48.29 64.2729 48.7092 64.6412Z" fill="#182452"/>
<path d="M63.609 41.7578C63.5606 41.975 63.4064 42.1254 63.2646 42.0938C63.1226 42.0621 63.0467 41.8605 63.095 41.6435C63.1434 41.4262 63.2976 41.2758 63.4394 41.3075C63.5814 41.3389 63.6573 41.5405 63.609 41.7578Z" fill="#121212"/>
<path d="M61.1546 41.2118C61.1062 41.4291 60.952 41.5795 60.8102 41.5478C60.6682 41.5162 60.5923 41.3146 60.6406 41.0976C60.689 40.8803 60.8432 40.7299 60.985 40.7616C61.1267 40.7933 61.2026 40.9949 61.1546 41.2118Z" fill="#121212"/>
<path d="M61.0448 40.7875L60.5565 40.5213C60.5565 40.5213 60.7337 40.9882 61.0448 40.7875Z" fill="#121212"/>
<path d="M61.8243 41.7715C61.8243 41.7715 61.248 42.6246 60.7421 42.9853C60.9693 43.3165 61.4838 43.3027 61.4838 43.3027L61.8243 41.7715Z" fill="#FDE2D0"/>
<path d="M62.4794 44.4163C62.376 44.4096 62.2675 44.3946 62.1542 44.3693C62.119 44.3616 62.0966 44.3267 62.1043 44.2915C62.1123 44.256 62.1475 44.2323 62.1824 44.2419C63.1363 44.4522 63.7286 43.8867 63.7344 43.881C63.7603 43.8557 63.8016 43.856 63.8269 43.8819C63.8522 43.9075 63.8515 43.9491 63.8259 43.9744C63.8026 43.9971 63.3069 44.471 62.4794 44.4163Z" fill="#121212"/>
<path d="M68.1945 44.6192C67.8803 45.0915 67.3769 45.3747 66.9184 45.4592C66.2285 45.5862 65.9465 44.9539 66.191 44.336C66.4112 43.7798 67.0355 43.0432 67.7024 43.1962C68.3597 43.3466 68.5539 44.079 68.1945 44.6192Z" fill="#FDE2D0"/>
<path d="M64.6314 40.7987C64.5789 40.8157 64.5193 40.7984 64.4854 40.7514C64.1302 40.2624 63.3517 40.2678 63.344 40.2678C63.272 40.2688 63.2125 40.2112 63.2115 40.1392C63.2102 40.0672 63.2672 40.0077 63.3402 40.0067C63.3776 40.0061 64.2624 40.0006 64.6969 40.5978C64.7392 40.656 64.7264 40.7379 64.6681 40.7802C64.6566 40.7885 64.6442 40.7946 64.6314 40.7987Z" fill="#121212"/>
<path d="M60.6435 39.4141C60.599 39.4112 60.5571 39.3856 60.5354 39.343C60.5027 39.2787 60.5283 39.2003 60.5926 39.1674C61.2365 38.8397 61.7632 39.1347 61.785 39.1475C61.8477 39.1837 61.8691 39.2634 61.833 39.3261C61.7971 39.3885 61.7178 39.4096 61.6547 39.3744C61.6336 39.3626 61.2224 39.1402 60.711 39.4006C60.6896 39.4109 60.6662 39.4154 60.6435 39.4141Z" fill="#121212"/>
<path d="M77.1626 123.371C77.1517 123.37 77.1408 123.368 77.1299 123.366C77.0074 123.34 76.9165 123.259 76.8595 123.123C76.8166 123.02 76.8454 122.944 76.8774 122.899C77.079 122.61 78.0755 122.647 78.1882 122.652C78.2163 122.652 78.2371 122.67 78.2464 122.694C78.2557 122.718 78.2496 122.746 78.2307 122.764C77.9754 123.011 77.504 123.411 77.1626 123.371ZM78.0243 122.778C77.6256 122.775 77.0909 122.821 76.9846 122.973C76.9712 122.992 76.9587 123.021 76.9802 123.072C77.0198 123.167 77.0778 123.221 77.1565 123.237C77.3427 123.279 77.6605 123.106 78.0243 122.778Z" fill="#4E587C"/>
<path d="M78.0851 122.776C77.7446 122.737 77.1392 122.503 77.0441 122.234C77.024 122.176 77.0096 122.065 77.1401 121.965C77.223 121.901 77.3177 121.879 77.4224 121.899C77.8157 121.974 78.2246 122.654 78.2419 122.684C78.2537 122.704 78.2541 122.728 78.2429 122.749C78.2317 122.769 78.2105 122.782 78.1872 122.782C78.1568 122.783 78.1225 122.781 78.0851 122.776ZM77.3782 122.024C77.3193 122.017 77.2675 122.032 77.2198 122.068C77.1532 122.12 77.1568 122.161 77.1673 122.191C77.2313 122.373 77.7286 122.597 78.0611 122.644C77.9129 122.424 77.6323 122.072 77.3977 122.027C77.391 122.026 77.3843 122.025 77.3782 122.024Z" fill="#4E587C"/>
<path d="M58.2934 129.956C58.0192 129.956 57.7661 129.914 57.6243 129.786C57.5344 129.705 57.4947 129.598 57.5066 129.468C57.5136 129.39 57.552 129.33 57.6173 129.295C57.9558 129.108 59.0547 129.671 59.1789 129.736C59.2035 129.748 59.2173 129.775 59.2134 129.803C59.2096 129.83 59.1888 129.852 59.1616 129.858C58.927 129.904 58.5971 129.956 58.2934 129.956ZM57.8019 129.385C57.7514 129.385 57.7098 129.393 57.68 129.409C57.6531 129.424 57.6397 129.445 57.6368 129.48C57.6288 129.568 57.6534 129.636 57.7117 129.689C57.879 129.839 58.3328 129.866 58.9443 129.764C58.5658 129.583 58.063 129.385 57.8019 129.385Z" fill="#4E587C"/>
<path d="M59.1488 129.859C59.1395 129.859 59.1306 129.857 59.1219 129.853C58.7933 129.705 58.143 129.11 58.1939 128.797C58.2061 128.723 58.2582 128.631 58.4394 128.613C58.5722 128.599 58.695 128.637 58.8013 128.726C59.1478 129.014 59.2115 129.757 59.2141 129.788C59.216 129.812 59.2054 129.834 59.1866 129.847C59.1754 129.855 59.1619 129.859 59.1488 129.859ZM58.4915 128.741C58.4787 128.741 58.4656 128.741 58.4522 128.743C58.3328 128.755 58.3251 128.803 58.3226 128.818C58.2918 129.006 58.7334 129.474 59.0685 129.677C59.0362 129.461 58.9446 129.015 58.7171 128.826C58.6486 128.769 58.5744 128.741 58.4915 128.741Z" fill="#4E587C"/>
<path d="M63.4995 41.3331L63.0112 41.0669C63.0112 41.0669 63.1885 41.5338 63.4995 41.3331Z" fill="#121212"/>
<path d="M68.7187 67.0467L69.0051 68.0493C69.0442 68.127 68.9523 68.2064 68.8227 68.2064H57.2941C57.193 68.2064 57.1094 68.1568 57.103 68.0934L57.0019 67.0909C56.9949 67.0214 57.0826 66.9626 57.193 66.9626H68.5363C68.6198 66.9626 68.6934 66.9968 68.7187 67.0467Z" fill="#4E587C"/>
<path opacity="0.2" d="M68.7187 67.0467L69.0051 68.0493C69.0442 68.127 68.9523 68.2064 68.8227 68.2064H57.2941C57.193 68.2064 57.1094 68.1568 57.103 68.0934L57.0019 67.0909C56.9949 67.0214 57.0826 66.9626 57.193 66.9626H68.5363C68.6198 66.9626 68.6934 66.9968 68.7187 67.0467Z" fill="#121212"/>
<path d="M67.1581 68.3152H67.4618C67.5222 68.3152 67.5683 68.2838 67.5642 68.2458L67.4218 66.943C67.4176 66.905 67.3648 66.8736 67.3043 66.8736H67.0006C66.9402 66.8736 66.8941 66.9046 66.8982 66.943L67.0406 68.2458C67.0445 68.2838 67.0976 68.3152 67.1581 68.3152Z" fill="#4E587C"/>
<path opacity="0.4" d="M67.1581 68.3152H67.4618C67.5222 68.3152 67.5683 68.2838 67.5642 68.2458L67.4218 66.943C67.4176 66.905 67.3648 66.8736 67.3043 66.8736H67.0006C66.9402 66.8736 66.8941 66.9046 66.8982 66.943L67.0406 68.2458C67.0445 68.2838 67.0976 68.3152 67.1581 68.3152Z" fill="white"/>
<path d="M58.1478 68.3152H58.4515C58.512 68.3152 58.5581 68.2838 58.5539 68.2458L58.4115 66.943C58.4074 66.905 58.3546 66.8736 58.2938 66.8736H57.9901C57.9296 66.8736 57.8835 66.9046 57.8877 66.943L58.0301 68.2458C58.0346 68.2838 58.0874 68.3152 58.1478 68.3152Z" fill="#4E587C"/>
<path opacity="0.4" d="M58.1478 68.3152H58.4515C58.512 68.3152 58.5581 68.2838 58.5539 68.2458L58.4115 66.943C58.4074 66.905 58.3546 66.8736 58.2938 66.8736H57.9901C57.9296 66.8736 57.8835 66.9046 57.8877 66.943L58.0301 68.2458C58.0346 68.2838 58.0874 68.3152 58.1478 68.3152Z" fill="white"/>
<path d="M62.6342 68.3152H62.9379C62.9984 68.3152 63.0445 68.2838 63.0403 68.2458L62.8979 66.943C62.8938 66.905 62.841 66.8736 62.7805 66.8736H62.4768C62.4163 66.8736 62.3702 66.9046 62.3744 66.943L62.5168 68.2458C62.5206 68.2838 62.5738 68.3152 62.6342 68.3152Z" fill="#4E587C"/>
<path opacity="0.4" d="M62.6342 68.3152H62.9379C62.9984 68.3152 63.0445 68.2838 63.0403 68.2458L62.8979 66.943C62.8938 66.905 62.841 66.8736 62.7805 66.8736H62.4768C62.4163 66.8736 62.3702 66.9046 62.3744 66.943L62.5168 68.2458C62.5206 68.2838 62.5738 68.3152 62.6342 68.3152Z" fill="white"/>
<path d="M61.8201 69.9398L59.0998 68.7242L59.8752 71.4195C59.8752 71.4195 61.6022 71.8115 62.3539 70.9456L61.8201 69.9398Z" fill="#FDE2D0"/>
<path d="M71.8429 54.3005C71.969 55.2458 72.0666 56.1939 72.1792 57.1408L72.4685 59.9866C72.5693 60.9344 72.6464 61.8854 72.7354 62.8349L72.8557 64.2605L72.8854 64.617C72.889 64.6525 72.8995 64.8016 72.9024 64.9027C72.9059 65.0134 72.896 65.1242 72.889 65.2342C72.8419 65.6739 72.6912 66.0682 72.5094 66.3898C72.1366 67.0346 71.6736 67.441 71.2269 67.793C70.7747 68.1379 70.3174 68.4147 69.8576 68.6589C68.9338 69.1379 68.009 69.5155 67.0704 69.8285C66.1338 70.1437 65.1936 70.4118 64.2499 70.6506C63.2982 70.873 62.3613 71.0819 61.3843 71.232L61.0739 69.8701C61.9536 69.5814 62.8557 69.2816 63.728 68.9472C64.6077 68.6269 65.4752 68.2822 66.3146 67.9014C67.1504 67.5171 67.9744 67.12 68.7078 66.6534C69.0752 66.4246 69.4211 66.1805 69.711 65.9261C69.9987 65.6758 70.2285 65.3984 70.3152 65.2032C70.3606 65.1066 70.3696 65.0416 70.3683 65.0054C70.3632 64.9965 70.367 64.9882 70.3635 64.9798C70.3574 64.9619 70.3651 64.992 70.3523 64.9091L70.3008 64.5549L70.0963 63.1379C69.969 62.1923 69.8291 61.2483 69.7136 60.3014L69.3533 57.4621C69.2493 56.5139 69.1302 55.5674 69.0397 54.6173L71.8429 54.3005Z" fill="#FDE2D0"/>
<path d="M70.5366 50.9776C71.6589 51.3187 73.0067 55.1834 73.0067 55.1834L69.0797 59.2266C69.0797 59.2266 67.0649 55.0704 67.5363 53.6198C68.0278 52.1091 69.256 50.5885 70.5366 50.9776Z" fill="#D3D3D3"/>
<path d="M56.8496 69.2835L57.6208 71.5053L59.8752 71.4195L59.0998 68.7238L56.8496 69.2835Z" fill="#FDE2D0"/>
<path d="M94.8368 61.32C95.5702 56.0576 91.8989 51.7917 86.6365 51.7917H96.1648H125.076C130.338 51.7917 134.01 56.0576 133.276 61.32H94.8368Z" fill="#121212"/>
<path opacity="0.7" d="M94.8368 61.32C95.5702 56.0576 91.8989 51.7917 86.6365 51.7917H96.1648H125.076C130.338 51.7917 134.01 56.0576 133.276 61.32H94.8368Z" fill="#F0F0F0"/>
<path d="M86.6365 51.7917H115.548H125.076C119.814 51.7917 114.953 56.0576 114.22 61.32L105.531 123.668C104.797 128.93 99.9366 133.196 94.6746 133.196H75.2915C70.0291 133.196 66.3578 128.93 67.0912 123.668L75.7805 61.32C76.5136 56.0576 81.3741 51.7917 86.6365 51.7917Z" fill="#F0F0F0"/>
<path d="M86.4739 123.668C85.7405 128.93 89.4118 133.196 94.6743 133.196H85.1459H56.2349C50.9725 133.196 47.3011 128.93 48.0346 123.668H86.4739Z" fill="#121212"/>
<path opacity="0.7" d="M86.4739 123.668C85.7405 128.93 89.4118 133.196 94.6743 133.196H85.1459H56.2349C50.9725 133.196 47.3011 128.93 48.0346 123.668H86.4739Z" fill="#F0F0F0"/>
<path opacity="0.4" d="M92.6371 71.1878H107.526C107.959 71.1878 108.364 70.833 108.424 70.3994C108.484 69.9658 108.179 69.6109 107.745 69.6109H92.8566C92.423 69.6109 92.0189 69.9658 91.9584 70.3994C91.8982 70.833 92.2035 71.1878 92.6371 71.1878Z" fill="#A3A7BA"/>
<path opacity="0.4" d="M92.2282 74.1226H103.169C103.602 74.1226 104.006 73.7677 104.067 73.3341C104.127 72.9005 103.822 72.5456 103.388 72.5456H92.448C92.0144 72.5456 91.6102 72.9005 91.5498 73.3341C91.489 73.768 91.7946 74.1226 92.2282 74.1226Z" fill="#A3A7BA"/>
<path opacity="0.4" d="M86.0601 74.5928C88.1189 72.6725 88.4336 69.6637 86.7629 67.8725C85.0922 66.0813 82.0689 66.186 80.01 68.1064C77.9512 70.0267 77.6365 73.0355 79.3072 74.8267C80.9778 76.6179 84.0012 76.5132 86.0601 74.5928Z" fill="white"/>
<path d="M78.7866 71.3482C78.6845 72.0813 78.7744 72.7696 79.0179 73.3702C79.5495 74.6934 80.8263 75.5933 82.4403 75.5933C84.0541 75.5933 85.5818 74.6934 86.4823 73.3702C86.8931 72.7696 87.1747 72.0813 87.2771 71.3482C87.6039 69.0032 85.9683 67.103 83.6237 67.103C81.2784 67.103 79.1133 69.0032 78.7866 71.3482Z" fill="white"/>
<path opacity="0.4" d="M79.9421 72.9706C80.3501 73.9856 81.3296 74.6762 82.5677 74.6762C83.8058 74.6762 84.9779 73.9856 85.6688 72.9706C84.9251 72.4227 83.9856 72.103 82.9264 72.103C81.8672 72.103 80.8384 72.4227 79.9421 72.9706Z" fill="#182452"/>
<path opacity="0.4" d="M81.7261 70.3046C81.6144 71.1059 82.1734 71.7555 82.9747 71.7555C83.776 71.7555 84.5162 71.1059 84.6279 70.3046C84.7395 69.5034 84.1805 68.8538 83.3792 68.8538C82.5779 68.8538 81.8378 69.5034 81.7261 70.3046Z" fill="#182452"/>
<path opacity="0.4" d="M90.8499 84.0109H95.8726C96.3062 84.0109 96.7104 83.656 96.7709 83.2224C96.8314 82.7888 96.5261 82.4339 96.0925 82.4339H91.0698C90.6362 82.4339 90.232 82.7888 90.1715 83.2224C90.111 83.656 90.4163 84.0109 90.8499 84.0109Z" fill="#A3A7BA"/>
<path opacity="0.4" d="M98.9034 84.0109H106.078C106.512 84.0109 106.916 83.656 106.976 83.2224C107.037 82.7888 106.732 82.4339 106.298 82.4339H99.1232C98.6896 82.4339 98.2854 82.7888 98.225 83.2224C98.1642 83.656 98.4698 84.0109 98.9034 84.0109Z" fill="#A3A7BA"/>
<path opacity="0.4" d="M90.441 86.9456H102.74C103.174 86.9456 103.578 86.5907 103.638 86.1571C103.699 85.7235 103.394 85.3686 102.96 85.3686H90.6605C90.2269 85.3686 89.8227 85.7235 89.7622 86.1571C89.7021 86.5907 90.0074 86.9456 90.441 86.9456Z" fill="#A3A7BA"/>
<path opacity="0.4" d="M84.2729 87.4146C86.3318 85.4943 86.6465 82.4855 84.9758 80.6943C83.3051 78.9032 80.2817 79.0078 78.2229 80.9282C76.164 82.8485 75.8493 85.8573 77.52 87.6485C79.1907 89.4397 82.2141 89.335 84.2729 87.4146Z" fill="white"/>
<path d="M76.9994 84.1712C76.8973 84.9043 76.9872 85.5926 77.2307 86.1933C77.7623 87.5165 79.0394 88.4163 80.6531 88.4163C82.2669 88.4163 83.7946 87.5165 84.6951 86.1933C85.1059 85.5926 85.3875 84.9043 85.4899 84.1712C85.8167 81.8262 84.1815 79.9261 81.8365 79.9261C79.4912 79.9261 77.3261 81.8262 76.9994 84.1712Z" fill="white"/>
<path opacity="0.4" d="M78.1549 85.7933C78.5629 86.8083 79.5424 87.4989 80.7805 87.4989C82.0186 87.4989 83.1907 86.8083 83.8816 85.7933C83.1379 85.2454 82.1984 84.9258 81.1389 84.9258C80.08 84.9258 79.0515 85.2458 78.1549 85.7933Z" fill="#182452"/>
<path opacity="0.4" d="M79.9392 83.1277C79.8275 83.929 80.3866 84.5786 81.1878 84.5786C81.9891 84.5786 82.7293 83.929 82.841 83.1277C82.9526 82.3264 82.3936 81.6768 81.5923 81.6768C80.791 81.6768 80.0509 82.3264 79.9392 83.1277Z" fill="#182452"/>
<path opacity="0.4" d="M89.0631 96.8336H97.8084C98.242 96.8336 98.6461 96.4787 98.7066 96.0451C98.7671 95.6115 98.4618 95.2566 98.0282 95.2566H89.2829C88.8493 95.2566 88.4451 95.6115 88.3847 96.0451C88.3239 96.4787 88.6291 96.8336 89.0631 96.8336Z" fill="#A3A7BA"/>
<path opacity="0.4" d="M88.6538 99.7687H102.287C102.721 99.7687 103.125 99.4138 103.185 98.9802C103.246 98.5466 102.941 98.1917 102.507 98.1917H88.8736C88.44 98.1917 88.0359 98.5466 87.9754 98.9802C87.9149 99.4138 88.2202 99.7687 88.6538 99.7687Z" fill="#A3A7BA"/>
<path opacity="0.2" d="M73.7248 112.262H94.6023C95.2103 112.262 95.7773 111.764 95.8618 111.156C95.9466 110.548 95.5184 110.051 94.9104 110.051H74.033C73.425 110.051 72.8579 110.548 72.7735 111.156C72.6887 111.764 73.1168 112.262 73.7248 112.262Z" fill="#A3A7BA"/>
<path opacity="0.2" d="M73.1514 116.378H88.4922C89.1002 116.378 89.6672 115.88 89.7517 115.272C89.8365 114.664 89.4083 114.166 88.8 114.166H73.4592C72.8512 114.166 72.2842 114.664 72.1997 115.272C72.1152 115.88 72.5434 116.378 73.1514 116.378Z" fill="#A3A7BA"/>
<path opacity="0.2" d="M80.983 61.8918H105.874C106.188 61.8918 106.482 61.6346 106.525 61.32C106.569 61.0054 106.348 60.7482 106.033 60.7482H81.1424C80.8278 60.7482 80.5347 61.0054 80.4909 61.32C80.447 61.6346 80.6685 61.8918 80.983 61.8918Z" fill="#A3A7BA"/>
<path opacity="0.4" d="M82.4859 100.239C84.5447 98.3192 84.8594 95.3104 83.1887 93.5192C81.5181 91.728 78.4947 91.8327 76.4358 93.753C74.377 95.6734 74.0623 98.6822 75.733 100.473C77.4037 102.265 80.427 102.16 82.4859 100.239Z" fill="white"/>
<path d="M75.2121 96.9942C75.1101 97.7274 75.2 98.4157 75.4432 99.0163C75.9747 100.34 77.2515 101.239 78.8656 101.239C80.4794 101.239 82.007 100.34 82.9075 99.0163C83.3184 98.4157 83.6 97.7274 83.7024 96.9942C84.0291 94.6493 82.3939 92.7491 80.0489 92.7491C77.7043 92.7488 75.5392 94.6493 75.2121 96.9942Z" fill="white"/>
<path opacity="0.4" d="M76.368 98.6163C76.776 99.6314 77.7555 100.322 78.9939 100.322C80.2323 100.322 81.4041 99.6314 82.095 98.6163C81.3513 98.0685 80.4118 97.7488 79.3526 97.7488C78.2928 97.7488 77.2643 98.0685 76.368 98.6163Z" fill="#182452"/>
<path opacity="0.4" d="M78.152 95.9507C78.0403 96.752 78.5993 97.4016 79.4006 97.4016C80.2019 97.4016 80.9421 96.752 81.0537 95.9507C81.1654 95.1494 80.6064 94.4998 79.8051 94.4998C79.0038 94.4998 78.2637 95.1494 78.152 95.9507Z" fill="#182452"/>
</svg>
