<svg width="160" height="160" viewBox="0 0 160 160" fill="none" xmlns="http://www.w3.org/2000/svg">
<path d="M160 122.367H0V122.447H160V122.367Z" fill="#EBEBEB"/>
<path d="M143.968 127.518H133.369V127.598H143.968V127.518Z" fill="#EBEBEB"/>
<path d="M105.99 128.386H103.208V128.466H105.99V128.386Z" fill="#EBEBEB"/>
<path d="M133.049 124.547H126.908V124.627H133.049V124.547Z" fill="#EBEBEB"/>
<path d="M30.6089 125.084H16.7871V125.164H30.6089V125.084Z" fill="#EBEBEB"/>
<path d="M35.4846 125.084H33.458V125.164H35.4846V125.084Z" fill="#EBEBEB"/>
<path d="M72.0471 126.435H42.0708V126.515H72.0471V126.435Z" fill="#EBEBEB"/>
<path d="M75.8443 108.096H14.0526C13.0456 108.096 12.2261 107.276 12.2261 106.269V19.4112C12.2261 18.4041 13.0456 17.5846 14.0526 17.5846H75.8443C76.851 17.5846 77.6706 18.4041 77.6706 19.4112V106.269C77.6706 107.276 76.851 108.096 75.8443 108.096ZM14.0526 17.6649C13.0894 17.6649 12.3061 18.4483 12.3061 19.4115V106.27C12.3061 107.233 13.0894 108.016 14.0526 108.016H75.8443C76.8072 108.016 77.5906 107.233 77.5906 106.27V19.4112C77.5906 18.4483 76.8072 17.6646 75.8443 17.6646L14.0526 17.6649Z" fill="#EBEBEB"/>
<path d="M145.059 108.096H83.2676C82.2606 108.096 81.4414 107.276 81.4414 106.269V19.4112C81.4414 18.4041 82.2609 17.5846 83.2676 17.5846H145.059C146.066 17.5846 146.886 18.4041 146.886 19.4112V106.269C146.886 107.276 146.066 108.096 145.059 108.096ZM83.2676 17.6649C82.3048 17.6649 81.5214 18.4483 81.5214 19.4115V106.27C81.5214 107.233 82.3048 108.016 83.2676 108.016H145.059C146.022 108.016 146.806 107.233 146.806 106.27V19.4112C146.806 18.4483 146.022 17.6646 145.059 17.6646L83.2676 17.6649Z" fill="#EBEBEB"/>
<path d="M17.5913 122.367H26.2915L26.2915 99.1856H17.5913L17.5913 122.367Z" fill="#DADADA"/>
<path d="M19.2438 122.367H17.5913V116.241H20.9763L19.2438 122.367Z" fill="#F5F5F5"/>
<path d="M67.2325 122.367H75.9326V99.1856H67.2325V122.367Z" fill="#DADADA"/>
<path d="M17.5911 120.695H68.6743V99.1856H17.5911V120.695Z" fill="#F5F5F5"/>
<path d="M67.0224 122.367H68.6748V116.241H65.2896L67.0224 122.367Z" fill="#F5F5F5"/>
<path d="M67.1357 118.106H51.6733V101.556H67.1357V118.106ZM51.9933 117.786H66.8157V101.876H51.9933V117.786Z" fill="#DADADA"/>
<path d="M50.8643 118.106H35.4019V101.556H50.8643V118.106ZM35.7219 117.786H50.5443V101.876H35.7219V117.786Z" fill="#DADADA"/>
<path d="M34.5929 118.106H19.1299V101.556H34.5926L34.5929 118.106ZM19.4499 117.786H34.2726V101.876H19.4499V117.786Z" fill="#DADADA"/>
<path d="M86.8679 74.1309H138.134V30.48L86.8679 30.48V74.1309Z" fill="#FFDEC8"/>
<path d="M85.7144 74.1309H137.633V30.48L85.7144 30.48V74.1309Z" fill="#FFDEC8"/>
<path d="M135.562 72.0362V32.5751L87.7852 32.5751V72.0362H135.562Z" fill="#FFF6F0"/>
<path d="M129.699 72.0361L110.896 32.575H104.509L123.312 72.0361H129.699Z" fill="white"/>
<path d="M121.502 72.0361L102.698 32.575H98.3003L117.104 72.0361H121.502Z" fill="white"/>
<path d="M105.525 72.0361L105.525 32.575H103.055V72.0361H105.525Z" fill="#FFDEC8"/>
<path d="M121.947 72.036L121.947 32.5748H119.477V72.036H121.947Z" fill="#FFDEC8"/>
<path d="M105.08 73.3653L105.08 31.0175H101.957L101.957 73.3653H105.08Z" fill="#FFDEC8"/>
<path d="M121.502 73.3652L121.502 31.0173H118.379L118.379 73.3652H121.502Z" fill="#FFDEC8"/>
<path d="M88.0049 72.0362L88.0049 32.5751H87.785L87.785 72.0362H88.0049Z" fill="#FFDEC8"/>
<path d="M36.2384 99.1858H28.9831C28.2115 99.1858 27.5859 98.5602 27.5859 97.7887V85.2537C27.5859 84.4822 28.2115 83.8566 28.9831 83.8566H36.2384C37.0099 83.8566 37.6355 84.4822 37.6355 85.2537V97.7887C37.6355 98.5602 37.0103 99.1858 36.2384 99.1858Z" fill="#E9E9E9"/>
<path d="M37.1667 84.0374H28.0551C27.7959 84.0374 27.5859 83.8274 27.5859 83.5682V83.1887C27.5859 82.9295 27.7959 82.7196 28.0551 82.7196H37.1667C37.4259 82.7196 37.6359 82.9295 37.6359 83.1887V83.5682C37.6355 83.8274 37.4256 84.0374 37.1667 84.0374Z" fill="#DADADA"/>
<path d="M63.7859 99.1859H58.5199C57.9599 99.1859 57.5059 98.7318 57.5059 98.1718V89.0739C57.5059 88.5139 57.9599 88.0598 58.5199 88.0598H63.7859C64.3459 88.0598 64.7999 88.5139 64.7999 89.0739V98.1718C64.7999 98.7318 64.3459 99.1859 63.7859 99.1859Z" fill="#F0F0F0"/>
<path d="M64.4595 88.1913H57.8463C57.6585 88.1913 57.5059 88.039 57.5059 87.8509V87.5753C57.5059 87.3872 57.6582 87.2349 57.8463 87.2349H64.4595C64.6476 87.2349 64.7999 87.3872 64.7999 87.5753V87.8509C64.7999 88.0387 64.6476 88.1913 64.4595 88.1913Z" fill="#E6E6E6"/>
<path d="M47.079 99.1858H37.1085C36.048 99.1858 35.1885 98.3263 35.1885 97.2658V92.1666C35.1885 91.1061 36.048 90.2466 37.1085 90.2466H47.079C48.1395 90.2466 48.999 91.1061 48.999 92.1666V97.2658C48.999 98.3259 48.1395 99.1858 47.079 99.1858Z" fill="#F5F5F5"/>
<path d="M48.3546 90.4955H35.833C35.4768 90.4955 35.1885 90.2069 35.1885 89.8511V89.3298C35.1885 88.9736 35.4771 88.6853 35.833 88.6853H48.3546C48.7107 88.6853 48.999 88.9739 48.999 89.3298V89.8511C48.999 90.2069 48.7104 90.4955 48.3546 90.4955Z" fill="#E9E9E9"/>
<path d="M90.3791 122.367H91.9912V95.9214H90.3791V122.367Z" fill="#E6E6E6"/>
<path d="M84.7955 122.367H86.4077V95.9214H84.7955V122.367Z" fill="#F5F5F5"/>
<path d="M22.2968 55.6912H42.8223V32.6723H22.2968L22.2968 55.6912Z" fill="#F0F0F0"/>
<path d="M20.8498 55.6912H42.5029V32.6723H20.8498L20.8498 55.6912Z" fill="#F5F5F5"/>
<path d="M22.6636 34.4862V53.8772H40.6889V34.4862H22.6636Z" fill="white"/>
<path d="M28.687 38.5916C27.2672 38.5916 25.918 39.4248 25.336 40.8069C24.5644 42.6386 25.4355 44.7733 27.2716 45.5448L40.6902 51.1916V43.3346L30.0787 38.8712C29.624 38.6815 29.1507 38.5916 28.687 38.5916Z" fill="#F0F0F0"/>
<path d="M49.5542 67.2006H70.0796V44.1817H49.5542V67.2006Z" fill="#F0F0F0"/>
<path d="M48.1071 67.2006H69.7603V44.1817H48.1071V67.2006Z" fill="#F5F5F5"/>
<path d="M49.9204 45.9954V65.3865H67.9457V45.9954H49.9204Z" fill="white"/>
<path d="M60.9623 53.4926L49.9214 48.8466V56.8888L58.0894 60.3237C59.9694 61.1134 62.154 60.2219 62.9438 58.3422C63.7335 56.4674 62.842 54.2824 60.9623 53.4926Z" fill="#F0F0F0"/>
<path d="M109.508 129.088C114.193 122.852 125.748 105.85 119.333 97.5007C116.887 94.3176 111.432 95.5789 110.45 107.958C109.762 116.636 106.628 125.353 105.141 129.088H109.508Z" fill="#95C6AF"/>
<path d="M107.3 129.088C110.338 123.764 112.447 118.129 113.761 113.988C115.532 108.409 116.286 104.26 116.293 104.219C116.32 104.071 116.225 103.928 116.082 103.901C115.938 103.873 115.8 103.971 115.774 104.119C115.766 104.161 115.018 108.28 113.256 113.826C111.927 118.01 109.783 123.727 106.686 129.087H107.3V129.088Z" fill="#95C6AF"/>
<path d="M140.494 93.312C138.65 87.7468 130.615 86.7416 123.47 103.141C118.548 114.439 110.383 124.609 106.514 129.088H115.796C126.448 121.552 144.802 106.311 140.494 93.312Z" fill="#E8F3EE"/>
<path d="M133.056 100.421C132.874 100.311 132.639 100.376 132.534 100.564C132.504 100.617 129.55 105.864 124.545 112.551C120.987 117.305 115.801 123.557 109.573 129.088H110.739C116.722 123.663 121.704 117.641 125.158 113.023C130.192 106.296 133.167 101.012 133.195 100.959C133.302 100.771 133.239 100.529 133.056 100.421Z" fill="#95C6AF"/>
<path d="M50.9926 122.806C50.9767 123.413 51.1006 124.002 51.3211 124.523H56.7652C58.1541 123.22 58.56 121.079 57.6402 119.339C57.231 118.566 56.6098 117.958 55.6674 117.843C52.7168 117.481 54.7893 115.177 53.705 113.336C52.4567 111.216 50.2917 112.036 49.5279 110.361C48.465 108.033 45.3437 106.816 45.0283 109.629C44.7129 112.443 47.1602 113.432 46.2688 115.436C45.3775 117.44 45.9734 119.523 47.8226 119.901C49.6727 120.278 51.0546 120.449 50.9926 122.806Z" fill="#95C6AF"/>
<path d="M55.9845 124.523L48.0663 111.851C48.0025 111.749 47.8706 111.719 47.7716 111.785C47.6727 111.851 47.644 111.987 47.7078 112.089L55.4772 124.523H55.9845Z" fill="#95C6AF"/>
<path d="M81.4609 128.467C96.2089 109.033 103.175 94.2666 101.641 85.6127C101.579 85.2676 101.801 84.9366 102.135 84.8735C102.469 84.8104 102.79 85.0392 102.851 85.3839C103.774 90.5888 101.881 97.7455 97.226 106.655C93.8283 113.158 88.9633 120.606 82.7389 128.841L81.4609 128.467Z" fill="#95C6AF"/>
<path d="M100.734 98.3555C100.734 98.3555 104.98 101.352 109.792 93.4405C109.792 93.4405 102.033 90.7568 100.734 98.3555Z" fill="#E8F3EE"/>
<path d="M98.4582 102.567C98.4582 102.567 101.593 98.3578 94.208 92.9586C94.208 92.9586 91.1803 100.806 98.4582 102.567Z" fill="#E8F3EE"/>
<path d="M102.389 89.4742C102.389 89.4742 106.704 86.5845 101.486 78.9528C101.486 78.9528 96.0966 85.3093 102.389 89.4742Z" fill="#E8F3EE"/>
<path d="M94.1318 111.184C94.1318 111.184 97.1454 115.487 104.266 109.722C104.266 109.722 97.8437 104.487 94.1318 111.184Z" fill="#E8F3EE"/>
<path d="M91.1836 115.112C91.1836 115.112 94.9762 111.526 88.6072 104.89C88.6072 104.89 84.3105 112.078 91.1836 115.112Z" fill="#E8F3EE"/>
<path d="M87.6646 120.903C87.6646 120.903 90.5988 125.264 97.8238 119.639C97.8238 119.639 91.4987 114.28 87.6646 120.903Z" fill="#E8F3EE"/>
<path d="M80.0001 136.819C114.266 136.819 142.045 135.197 142.045 133.196C142.045 131.195 114.266 129.573 80.0001 129.573C45.7338 129.573 17.9556 131.195 17.9556 133.196C17.9556 135.197 45.7338 136.819 80.0001 136.819Z" fill="#F5F5F5"/>
<path d="M62.103 37.186C62.4099 35.8401 65.7699 34.5601 68.6499 36.5335C71.5299 38.5069 72.2928 41.8929 71.3699 44.6237C69.8233 49.2001 77.8924 49.0308 79.7606 56.7466C81.2358 62.8404 79.8675 71.4375 71.6355 70.97C59.0691 70.2564 60.1542 57.9732 59.6019 51.5201C59.0499 45.0666 52.1961 37.8385 62.103 37.186Z" fill="#3C3C48"/>
<path d="M57.9509 54.4189C57.8978 55.353 57.788 56.2087 57.6655 57.0957C57.5404 57.9751 57.3756 58.848 57.1852 59.7187C56.9906 60.5885 56.7845 61.4583 56.51 62.3162C56.2498 63.1763 55.9413 64.0301 55.5768 64.8691L55.2946 65.4963C55.2549 65.5917 55.1788 65.7306 55.1183 65.8483C55.054 65.9699 54.9852 66.0768 54.9183 66.1907C54.646 66.6285 54.3461 67.0023 54.0424 67.3591C53.4348 68.0704 52.7861 68.6931 52.1231 69.2871C50.7816 70.4605 52.4864 69.5425 50.9997 70.5002L49.4998 69.0002C48.9065 69.6015 50.1026 68.4166 49.4998 69.0002C50.0985 68.4025 50.0456 68.3722 50.6008 67.7507C51.1592 67.1341 51.6908 66.5002 52.1538 65.8647C52.3836 65.5472 52.5903 65.2234 52.7541 64.9194C52.79 64.8448 52.8338 64.7677 52.8642 64.6963C52.8952 64.6192 52.9231 64.5693 52.9608 64.464L53.1759 63.9008C53.732 62.3875 54.1266 60.7792 54.4485 59.1546C54.612 58.3415 54.7282 57.5162 54.8511 56.6935C54.9698 55.8775 55.0636 55.024 55.1356 54.2419L57.9509 54.4189Z" fill="#FFDEC8"/>
<path d="M56.0315 51.0577C54.8948 51.347 54.0996 56.0251 54.0996 56.0251L58.4471 58.9815C58.4471 58.9815 60.2356 53.4359 59.3611 52.1863C58.4503 50.8849 57.6903 50.6353 56.0315 51.0577Z" fill="#D3D3D3"/>
<path opacity="0.2" d="M56.134 52.1024L55.2607 56.8176L57.0214 58.0115L56.134 52.1024Z" fill="#121212"/>
<path d="M62.1813 129.793H59.4233L59.2393 123.406H61.9973L62.1813 129.793Z" fill="#FFDEC8"/>
<path d="M81.2553 121.665L78.702 122.707L75.4668 117.129L78.0204 116.086L81.2553 121.665Z" fill="#FFDEC8"/>
<path d="M78.2207 122.325L80.8843 120.741C80.9813 120.684 81.1 120.704 81.1698 120.791L82.7256 122.718C82.8869 122.918 82.8219 123.237 82.596 123.366C81.6578 123.902 81.1778 124.113 80.0063 124.809C79.2856 125.237 77.5912 126.705 76.596 127.296C75.6226 127.875 74.9631 126.935 75.3243 126.6C76.9451 125.096 77.597 123.603 77.9106 122.706C77.9675 122.544 78.0789 122.409 78.2207 122.325Z" fill="#121212"/>
<path d="M59.3292 129.474H62.4277C62.5404 129.474 62.6319 129.552 62.6479 129.662L63.0008 132.114C63.0373 132.368 62.8188 132.609 62.5586 132.605C61.4783 132.586 60.9576 132.523 59.5951 132.523C58.7567 132.523 57.0226 132.61 55.8652 132.61C54.733 132.61 54.6456 131.465 55.1279 131.361C57.2895 130.896 58.14 130.255 58.868 129.644C58.9996 129.534 59.164 129.474 59.3292 129.474Z" fill="#121212"/>
<g opacity="0.2">
<path d="M59.2402 123.408L59.3346 126.7H62.0937L61.9993 123.408H59.2402Z" fill="#121212"/>
<path d="M78.0218 116.088L75.4673 117.131L77.1361 120.006L79.6906 118.963L78.0218 116.088Z" fill="#121212"/>
</g>
<path d="M56.0316 51.0576C56.0316 51.0576 54.7177 51.5203 57.3497 67.704C61.7945 67.704 66.3884 67.704 68.5513 67.704C68.3634 63.145 68.358 60.3338 70.5369 50.9776C70.5369 50.9776 68.19 50.4672 65.7801 50.3511C63.8949 50.2602 62.3506 50.2 60.6937 50.3514C58.509 50.5507 56.0316 51.0576 56.0316 51.0576Z" fill="#F5F5F5"/>
<path opacity="0.2" d="M69.6128 54.6816C68.5984 54.9344 67.6608 56.0416 67.7728 58.08C67.84 59.3024 68.4 60.2272 68.7072 60.6464C68.8864 59.0784 69.1872 57.2576 69.664 54.928L69.6128 54.6816Z" fill="#121212"/>
<path d="M61.2832 54.8266C61.2832 54.8266 62.7386 55.7245 63.1203 57.0576C64.6998 55.9002 66.8483 52.6772 66.9334 50.7492C66.9437 50.5146 66.7446 50.3248 66.5098 50.3213C66.0506 50.3143 65.7805 50.3511 65.7805 50.3511L61.2832 54.8266Z" fill="#FAFAFA"/>
<path d="M61.2831 54.8266C61.2831 54.8266 59.8278 55.7245 59.4463 57.0576C57.7481 55.8131 58.6902 51.7066 59.663 50.3386C60.3651 50.2928 60.6937 50.3511 60.6937 50.3511L61.2831 54.8266Z" fill="#FAFAFA"/>
<path d="M65.2765 44.6238C64.9555 46.2606 64.6355 49.259 65.7805 50.3511C65.7805 50.3511 64.2678 53.2535 61.2835 54.8267C59.0144 53.0132 60.6941 50.3511 60.6941 50.3511C62.519 49.9153 62.472 48.5614 62.1542 47.2897L65.2765 44.6238Z" fill="#FFDEC8"/>
<path opacity="0.2" d="M64.0033 45.7114L62.1553 47.2884C62.2314 47.5895 62.291 47.8945 62.3121 48.1911C63.0094 48.0903 64.1057 47.4964 64.2554 46.7383C64.3262 46.3793 64.0625 45.881 64.0033 45.7114Z" fill="#121212"/>
<path d="M68.0201 41.9949C67.2633 44.6256 66.9993 45.7552 65.3481 46.8247C62.8643 48.4333 59.7983 46.9287 59.7539 44.1251C59.7139 41.6016 60.9577 37.7235 63.8044 37.2426C66.6089 36.7683 68.7769 39.3642 68.0201 41.9949Z" fill="#FFDEC8"/>
<path d="M62.3389 37.4756C62.4633 38.3646 67.3344 41.2267 68.2589 39.7335C69.1833 38.2401 67.8531 37.1201 65.7805 36.8356C63.7078 36.5511 62.3389 37.4756 62.3389 37.4756Z" fill="#3C3C48"/>
<path d="M65.5122 37.9572C64.9138 38.7463 66.181 44.4148 67.9964 43.882C69.8117 43.3495 69.7273 41.5341 68.4665 39.8596C67.2053 38.1847 65.5122 37.9572 65.5122 37.9572Z" fill="#3C3C48"/>
<path d="M57.3498 67.7043C57.3498 67.7043 55.1744 88.9504 55.3549 97.3613C55.543 106.11 58.7488 126.063 58.7488 126.063H62.4784C62.4784 126.063 61.8883 106.621 62.2179 98.0291C62.5773 88.6624 65.5526 67.7043 65.5526 67.7043H57.3498Z" fill="#4E587C"/>
<path opacity="0.4" d="M57.3498 67.7043C57.3498 67.7043 55.1744 88.9504 55.3549 97.3613C55.543 106.11 58.7488 126.063 58.7488 126.063H62.4784C62.4784 126.063 61.8883 106.621 62.2179 98.0291C62.5773 88.6624 65.5526 67.7043 65.5526 67.7043H57.3498Z" fill="#121212"/>
<path d="M62.8015 126.196H58.4254L58.1045 124.8L63.005 124.63L62.8015 126.196Z" fill="#121212"/>
<path opacity="0.2" d="M62.1812 72.9904C59.4298 78.5251 61.6288 88.6218 62.6016 92.3779C63.1005 86.7363 63.9418 79.8403 64.5975 74.776C64.1805 71.9107 63.45 70.4387 62.1812 72.9904Z" fill="#121212"/>
<path d="M60.3076 67.7043C60.3076 67.7043 62.8452 89.7923 64.7614 96.8835C67.0366 105.302 76.2782 119.667 76.2782 119.667L79.7604 118.245C79.7604 118.245 73.7921 101.89 72.0529 97.4547C68.3406 87.9885 71.5182 73.8816 68.5515 67.7043H60.3076Z" fill="#4E587C"/>
<path opacity="0.4" d="M60.3076 67.7043C60.3076 67.7043 62.8452 89.7923 64.7614 96.8835C67.0366 105.302 76.2782 119.667 76.2782 119.667L79.7604 118.245C79.7604 118.245 73.7921 101.89 72.0529 97.4547C68.3406 87.9885 71.5182 73.8816 68.5515 67.7043H60.3076Z" fill="#121212"/>
<path d="M80.2358 118.264L75.9158 120.027L74.9014 118.857L79.8895 116.553L80.2358 118.264Z" fill="#121212"/>
<path d="M22.3448 36.7257C14.5634 43.6125 13.8395 55.5056 20.7266 63.287C27.6133 71.0684 39.5045 71.7939 47.2859 64.9068C55.0674 58.0201 55.7944 46.1273 48.9077 38.3459C42.021 30.5645 30.1263 29.839 22.3448 36.7257ZM45.3128 62.6774C38.7631 68.4742 28.7531 67.8633 22.9563 61.3139C17.1583 54.7625 17.7685 44.7523 24.3183 38.9558C30.8696 33.1574 40.8799 33.768 46.6779 40.3197C52.4747 46.8688 51.8642 56.879 45.3128 62.6774Z" fill="#FF7312"/>
<g opacity="0.5">
<path d="M35.6986 36.3287C35.6071 36.3229 35.5178 36.3175 35.426 36.3146L20.3482 49.6586C20.3402 49.7501 20.3345 49.8416 20.329 49.9335C20.1297 53.2051 21.0327 56.2903 22.715 58.8291L44.241 39.7779C41.9281 37.7997 38.9729 36.5283 35.6986 36.3287Z" fill="#FFDEC8"/>
<path d="M45.6348 41.1405L23.8984 60.3776C24.6236 61.2074 25.4431 61.9533 26.3432 62.6L47.5432 43.8371C47.0111 42.8653 46.3701 41.961 45.6348 41.1405Z" fill="#FFDEC8"/>
</g>
<path d="M49.6218 65.049L47.145 67.241C46.7687 67.5741 46.1937 67.5389 45.8609 67.1626C45.5277 66.7863 45.5629 66.2112 45.9393 65.8784L48.4161 63.6864C48.7924 63.3533 49.3674 63.3885 49.7002 63.7648C50.033 64.1408 49.9982 64.7159 49.6218 65.049Z" fill="#FF7312"/>
<path d="M48.7093 64.6412C50.5762 66.2838 52.3618 67.9986 54.1231 69.735C55.8828 71.4726 57.6079 73.2406 59.3109 75.0284C61.0121 76.8178 62.6854 78.6322 64.342 80.4607C65.8965 82.3798 68.0159 83.799 68.3327 86.814C68.4207 87.6511 67.8133 88.4009 66.9762 88.4889C66.806 88.5068 66.6329 88.494 66.4748 88.4585C63.5209 87.7775 62.3695 85.5014 60.6537 83.725C59.0399 81.8582 57.4425 79.9772 55.8729 78.071C54.3052 76.1634 52.7599 74.2361 51.2492 72.2783C49.7398 70.319 48.2546 68.3385 46.8511 66.2857C46.4613 65.7158 46.6076 64.9375 47.1775 64.5478C47.6594 64.2185 48.2901 64.2729 48.7093 64.6412Z" fill="#FF7312"/>
<path d="M63.609 41.7578C63.5607 41.9751 63.4065 42.1255 63.2647 42.0938C63.1226 42.0621 63.0468 41.8605 63.0951 41.6436C63.1434 41.4263 63.2977 41.2759 63.4395 41.3076C63.5815 41.3389 63.6574 41.5405 63.609 41.7578Z" fill="#121212"/>
<path d="M61.1545 41.2119C61.1061 41.4292 60.9519 41.5796 60.8101 41.5479C60.6681 41.5162 60.5922 41.3146 60.6405 41.0977C60.6889 40.8804 60.8431 40.73 60.9849 40.7617C61.1266 40.7933 61.2025 40.9949 61.1545 41.2119Z" fill="#121212"/>
<path d="M61.045 40.7876L60.5566 40.5214C60.5566 40.5214 60.7339 40.9882 61.045 40.7876Z" fill="#121212"/>
<path d="M61.8244 41.7716C61.8244 41.7716 61.2481 42.6247 60.7422 42.9854C60.9694 43.3166 61.4839 43.3028 61.4839 43.3028L61.8244 41.7716Z" fill="#FFDEC8"/>
<path d="M62.4796 44.4164C62.3762 44.4097 62.2677 44.3946 62.1545 44.3693C62.1193 44.3617 62.0969 44.3268 62.1045 44.2916C62.1125 44.2561 62.1477 44.2324 62.1826 44.242C63.1365 44.4522 63.7289 43.8868 63.7346 43.881C63.7605 43.8557 63.8018 43.8561 63.8271 43.882C63.8524 43.9076 63.8517 43.9492 63.8261 43.9745C63.8028 43.9972 63.3071 44.4711 62.4796 44.4164Z" fill="#121212"/>
<path d="M68.1947 44.6193C67.8805 45.0916 67.3771 45.3748 66.9186 45.4593C66.2286 45.5863 65.9467 44.954 66.1912 44.3361C66.4114 43.7799 67.0357 43.0433 67.7026 43.1962C68.3598 43.3466 68.5541 44.0791 68.1947 44.6193Z" fill="#FFDEC8"/>
<path d="M64.6313 40.7988C64.5788 40.8157 64.5193 40.7985 64.4854 40.7514C64.1302 40.2625 63.3516 40.2679 63.3439 40.2679C63.2719 40.2689 63.2124 40.2113 63.2114 40.1393C63.2102 40.0673 63.2671 40.0077 63.3401 40.0068C63.3775 40.0061 64.2623 40.0007 64.6969 40.5978C64.7391 40.6561 64.7263 40.738 64.6681 40.7802C64.6566 40.7885 64.6441 40.7946 64.6313 40.7988Z" fill="#121212"/>
<path d="M60.6438 39.4142C60.5993 39.4113 60.5574 39.3857 60.5357 39.3431C60.503 39.2788 60.5286 39.2004 60.5929 39.1675C61.2368 38.8398 61.7635 39.1348 61.7853 39.1476C61.848 39.1838 61.8694 39.2635 61.8333 39.3262C61.7974 39.3886 61.7181 39.4097 61.655 39.3745C61.6339 39.3627 61.2227 39.1403 60.7113 39.4007C60.6899 39.411 60.6665 39.4155 60.6438 39.4142Z" fill="#121212"/>
<path d="M77.1626 123.371C77.1517 123.37 77.1408 123.368 77.1299 123.366C77.0074 123.341 76.9165 123.259 76.8595 123.123C76.8166 123.02 76.8454 122.944 76.8774 122.899C77.079 122.61 78.0755 122.647 78.1882 122.652C78.2163 122.653 78.2371 122.67 78.2464 122.694C78.2557 122.718 78.2496 122.746 78.2307 122.764C77.9754 123.011 77.504 123.411 77.1626 123.371ZM78.0243 122.778C77.6256 122.775 77.0909 122.821 76.9846 122.973C76.9712 122.992 76.9587 123.021 76.9802 123.072C77.0198 123.167 77.0778 123.222 77.1565 123.238C77.3427 123.279 77.6605 123.106 78.0243 122.778Z" fill="#4E587C"/>
<path d="M78.0853 122.776C77.7448 122.737 77.1394 122.503 77.0443 122.234C77.0242 122.176 77.0098 122.065 77.1403 121.965C77.2232 121.901 77.3179 121.879 77.4226 121.899C77.8159 121.974 78.2248 122.654 78.2421 122.684C78.2539 122.704 78.2543 122.728 78.2431 122.749C78.2319 122.769 78.2107 122.782 78.1874 122.782C78.157 122.783 78.1227 122.781 78.0853 122.776ZM77.3784 122.024C77.3195 122.017 77.2677 122.032 77.22 122.068C77.1535 122.12 77.157 122.161 77.1675 122.191C77.2315 122.373 77.7288 122.597 78.0613 122.644C77.9131 122.424 77.6325 122.072 77.3979 122.027C77.3912 122.026 77.3845 122.025 77.3784 122.024Z" fill="#4E587C"/>
<path d="M58.2933 129.956C58.0191 129.956 57.766 129.914 57.6242 129.786C57.5343 129.705 57.4946 129.599 57.5064 129.468C57.5135 129.391 57.5519 129.33 57.6172 129.295C57.9557 129.109 59.0546 129.671 59.1788 129.736C59.2034 129.749 59.2172 129.775 59.2133 129.803C59.2095 129.83 59.1887 129.853 59.1615 129.858C58.9269 129.904 58.597 129.956 58.2933 129.956ZM57.8018 129.385C57.7512 129.385 57.7096 129.393 57.6799 129.409C57.653 129.424 57.6396 129.446 57.6367 129.48C57.6287 129.568 57.6533 129.636 57.7116 129.689C57.8789 129.839 58.3327 129.866 58.9442 129.764C58.5656 129.583 58.0629 129.385 57.8018 129.385Z" fill="#4E587C"/>
<path d="M59.1491 129.859C59.1398 129.859 59.1309 129.857 59.1222 129.853C58.7936 129.705 58.1433 129.11 58.1942 128.797C58.2064 128.723 58.2585 128.631 58.4397 128.613C58.5725 128.599 58.6953 128.637 58.8016 128.726C59.1481 129.014 59.2118 129.757 59.2144 129.788C59.2163 129.812 59.2057 129.834 59.1869 129.847C59.1757 129.855 59.1622 129.859 59.1491 129.859ZM58.4918 128.741C58.479 128.741 58.4659 128.741 58.4525 128.743C58.3331 128.755 58.3254 128.803 58.3229 128.818C58.2921 129.006 58.7337 129.474 59.0688 129.677C59.0365 129.461 58.9449 129.015 58.7174 128.826C58.6489 128.769 58.5747 128.741 58.4918 128.741Z" fill="#4E587C"/>
<path d="M63.4996 41.3331L63.0112 41.0669C63.0112 41.0669 63.1885 41.5338 63.4996 41.3331Z" fill="#121212"/>
<path d="M68.7187 67.0468L69.0051 68.0494C69.0441 68.1271 68.9523 68.2065 68.8227 68.2065H57.294C57.1929 68.2065 57.1094 68.1569 57.103 68.0935L57.0019 67.091C56.9948 67.0215 57.0825 66.9626 57.1929 66.9626H68.5363C68.6198 66.9626 68.6934 66.9969 68.7187 67.0468Z" fill="#4E587C"/>
<path opacity="0.2" d="M68.7187 67.0468L69.0051 68.0494C69.0441 68.1271 68.9523 68.2065 68.8227 68.2065H57.294C57.1929 68.2065 57.1094 68.1569 57.103 68.0935L57.0019 67.091C56.9948 67.0215 57.0825 66.9626 57.1929 66.9626H68.5363C68.6198 66.9626 68.6934 66.9969 68.7187 67.0468Z" fill="#121212"/>
<path d="M67.1585 68.3153H67.4622C67.5227 68.3153 67.5688 68.2839 67.5646 68.2458L67.4222 66.9431C67.4181 66.905 67.3653 66.8737 67.3048 66.8737H67.0011C66.9406 66.8737 66.8945 66.9047 66.8987 66.9431L67.0411 68.2458C67.0449 68.2839 67.0981 68.3153 67.1585 68.3153Z" fill="#4E587C"/>
<path opacity="0.4" d="M67.1585 68.3153H67.4622C67.5227 68.3153 67.5688 68.2839 67.5646 68.2458L67.4222 66.9431C67.4181 66.905 67.3653 66.8737 67.3048 66.8737H67.0011C66.9406 66.8737 66.8945 66.9047 66.8987 66.9431L67.0411 68.2458C67.0449 68.2839 67.0981 68.3153 67.1585 68.3153Z" fill="white"/>
<path d="M58.1481 68.3153H58.4518C58.5123 68.3153 58.5584 68.2839 58.5542 68.2458L58.4118 66.9431C58.4076 66.905 58.3548 66.8737 58.294 66.8737H57.9904C57.9299 66.8737 57.8838 66.9047 57.888 66.9431L58.0304 68.2458C58.0348 68.2839 58.0876 68.3153 58.1481 68.3153Z" fill="#4E587C"/>
<path opacity="0.4" d="M58.1481 68.3153H58.4518C58.5123 68.3153 58.5584 68.2839 58.5542 68.2458L58.4118 66.9431C58.4076 66.905 58.3548 66.8737 58.294 66.8737H57.9904C57.9299 66.8737 57.8838 66.9047 57.888 66.9431L58.0304 68.2458C58.0348 68.2839 58.0876 68.3153 58.1481 68.3153Z" fill="white"/>
<path d="M62.6346 68.3153H62.9383C62.9988 68.3153 63.0449 68.2839 63.0407 68.2458L62.8983 66.9431C62.8941 66.905 62.8413 66.8737 62.7809 66.8737H62.4772C62.4167 66.8737 62.3706 66.9047 62.3748 66.9431L62.5172 68.2458C62.521 68.2839 62.5741 68.3153 62.6346 68.3153Z" fill="#4E587C"/>
<path opacity="0.4" d="M62.6346 68.3153H62.9383C62.9988 68.3153 63.0449 68.2839 63.0407 68.2458L62.8983 66.9431C62.8941 66.905 62.8413 66.8737 62.7809 66.8737H62.4772C62.4167 66.8737 62.3706 66.9047 62.3748 66.9431L62.5172 68.2458C62.521 68.2839 62.5741 68.3153 62.6346 68.3153Z" fill="white"/>
<path d="M61.8204 69.9399L59.1001 68.7242L59.8755 71.4196C59.8755 71.4196 61.6025 71.8116 62.3542 70.9457L61.8204 69.9399Z" fill="#FFDEC8"/>
<path d="M71.8432 54.3005C71.9693 55.2458 72.0669 56.194 72.1795 57.1409L72.4688 59.9866C72.5696 60.9345 72.6467 61.8855 72.7357 62.8349L72.856 64.2605L72.8857 64.617C72.8893 64.6525 72.8998 64.8017 72.9027 64.9028C72.9062 65.0135 72.8963 65.1242 72.8893 65.2343C72.8422 65.674 72.6915 66.0682 72.5097 66.3898C72.1369 67.0346 71.6739 67.441 71.2272 67.793C70.775 68.138 70.3177 68.4148 69.8579 68.6589C68.9341 69.138 68.0093 69.5156 67.0707 69.8285C66.1341 70.1437 65.1939 70.4119 64.2502 70.6506C63.2985 70.873 62.3616 71.082 61.3846 71.2321L61.0742 69.8701C61.9539 69.5815 62.856 69.2817 63.7283 68.9473C64.608 68.6269 65.4755 68.2823 66.3149 67.9015C67.1507 67.5172 67.9747 67.1201 68.7081 66.6535C69.0755 66.4247 69.4214 66.1805 69.7113 65.9261C69.999 65.6759 70.2288 65.3985 70.3155 65.2033C70.3609 65.1066 70.3699 65.0417 70.3686 65.0055C70.3635 64.9965 70.3673 64.9882 70.3638 64.9799C70.3577 64.962 70.3654 64.9921 70.3526 64.9092L70.3011 64.5549L70.0966 63.138C69.9693 62.1924 69.8294 61.2484 69.7139 60.3015L69.3536 57.4621C69.2496 56.514 69.1305 55.5674 69.04 54.6173L71.8432 54.3005Z" fill="#FFDEC8"/>
<path d="M70.5366 50.9777C71.6589 51.3188 73.0067 55.1834 73.0067 55.1834L69.0797 59.2266C69.0797 59.2266 67.0649 55.0705 67.5363 53.6199C68.0278 52.1092 69.256 50.5886 70.5366 50.9777Z" fill="#D3D3D3"/>
<path d="M56.8496 69.2836L57.6208 71.5053L59.8752 71.4196L59.0998 68.7239L56.8496 69.2836Z" fill="#FFDEC8"/>
<path d="M94.837 61.3199C95.5705 56.0575 91.8991 51.7916 86.6367 51.7916H96.165H125.076C130.338 51.7916 134.01 56.0575 133.276 61.3199H94.837Z" fill="#121212"/>
<path opacity="0.7" d="M94.837 61.3199C95.5705 56.0575 91.8991 51.7916 86.6367 51.7916H96.165H125.076C130.338 51.7916 134.01 56.0575 133.276 61.3199H94.837Z" fill="#F0F0F0"/>
<path d="M86.6366 51.7916H115.548H125.076C119.814 51.7916 114.953 56.0575 114.22 61.3199L105.531 123.668C104.797 128.93 99.9368 133.196 94.6747 133.196H75.2916C70.0292 133.196 66.3579 128.93 67.0913 123.668L75.7806 61.3199C76.5137 56.0575 81.3742 51.7916 86.6366 51.7916Z" fill="#F0F0F0"/>
<path d="M86.4741 123.668C85.7406 128.93 89.412 133.196 94.6744 133.196H85.1461H56.235C50.9726 133.196 47.3013 128.93 48.0347 123.668H86.4741Z" fill="#121212"/>
<path opacity="0.7" d="M86.4741 123.668C85.7406 128.93 89.412 133.196 94.6744 133.196H85.1461H56.235C50.9726 133.196 47.3013 128.93 48.0347 123.668H86.4741Z" fill="#F0F0F0"/>
<path opacity="0.4" d="M92.637 71.1878H107.526C107.959 71.1878 108.363 70.8329 108.424 70.3993C108.484 69.9657 108.179 69.6108 107.745 69.6108H92.8565C92.4229 69.6108 92.0187 69.9657 91.9582 70.3993C91.8981 70.8329 92.2034 71.1878 92.637 71.1878Z" fill="#A3A7BA"/>
<path opacity="0.4" d="M92.2281 74.1225H103.169C103.602 74.1225 104.006 73.7676 104.067 73.334C104.127 72.9004 103.822 72.5455 103.388 72.5455H92.4479C92.0143 72.5455 91.6102 72.9004 91.5497 73.334C91.4889 73.7679 91.7945 74.1225 92.2281 74.1225Z" fill="#A3A7BA"/>
<path opacity="0.4" d="M86.0602 74.5928C88.119 72.6724 88.4337 69.6636 86.763 67.8725C85.0923 66.0813 82.0689 66.186 80.0101 68.1063C77.9513 70.0266 77.6366 73.0354 79.3073 74.8266C80.9779 76.6178 84.0013 76.5131 86.0602 74.5928Z" fill="white"/>
<path d="M78.7866 71.3481C78.6845 72.0813 78.7744 72.7696 79.0179 73.3702C79.5495 74.6934 80.8263 75.5933 82.4403 75.5933C84.0541 75.5933 85.5818 74.6934 86.4823 73.3702C86.8931 72.7696 87.1747 72.0813 87.2771 71.3481C87.6039 69.0032 85.9683 67.103 83.6237 67.103C81.2784 67.103 79.1133 69.0032 78.7866 71.3481Z" fill="white"/>
<path opacity="0.4" d="M79.9424 72.9705C80.3504 73.9856 81.3299 74.6761 82.568 74.6761C83.8061 74.6761 84.9782 73.9856 85.6691 72.9705C84.9254 72.4227 83.9859 72.103 82.9267 72.103C81.8675 72.103 80.8387 72.4227 79.9424 72.9705Z" fill="#FF7312"/>
<path opacity="0.4" d="M81.7261 70.3046C81.6144 71.1059 82.1735 71.7555 82.9748 71.7555C83.776 71.7555 84.5162 71.1059 84.6279 70.3046C84.7396 69.5034 84.1805 68.8538 83.3792 68.8538C82.578 68.8538 81.8378 69.5034 81.7261 70.3046Z" fill="#FF7312"/>
<path opacity="0.4" d="M90.8501 84.0108H95.8728C96.3064 84.0108 96.7106 83.6559 96.7711 83.2223C96.8315 82.7887 96.5263 82.4338 96.0927 82.4338H91.0699C90.6363 82.4338 90.2322 82.7887 90.1717 83.2223C90.1112 83.6559 90.4165 84.0108 90.8501 84.0108Z" fill="#A3A7BA"/>
<path opacity="0.4" d="M98.9034 84.0108H106.078C106.512 84.0108 106.916 83.6559 106.976 83.2223C107.037 82.7887 106.732 82.4338 106.298 82.4338H99.1232C98.6896 82.4338 98.2855 82.7887 98.225 83.2223C98.1642 83.6559 98.4698 84.0108 98.9034 84.0108Z" fill="#A3A7BA"/>
<path opacity="0.4" d="M90.4412 86.9455H102.74C103.174 86.9455 103.578 86.5906 103.639 86.157C103.699 85.7234 103.394 85.3685 102.96 85.3685H90.6607C90.2271 85.3685 89.8229 85.7234 89.7624 86.157C89.7023 86.5906 90.0076 86.9455 90.4412 86.9455Z" fill="#A3A7BA"/>
<path opacity="0.4" d="M84.2731 87.4145C86.3319 85.4942 86.6466 82.4854 84.9759 80.6942C83.3052 78.9031 80.2818 79.0077 78.223 80.9281C76.1641 82.8484 75.8495 85.8572 77.5202 87.6484C79.1908 89.4396 82.2142 89.3349 84.2731 87.4145Z" fill="white"/>
<path d="M76.9995 84.1711C76.8974 84.9043 76.9873 85.5926 77.2308 86.1932C77.7623 87.5164 79.0395 88.4163 80.6532 88.4163C82.267 88.4163 83.7947 87.5164 84.6951 86.1932C85.106 85.5926 85.3876 84.9043 85.49 84.1711C85.8167 81.8262 84.1815 79.926 81.8366 79.926C79.4913 79.926 77.3262 81.8262 76.9995 84.1711Z" fill="white"/>
<path opacity="0.4" d="M78.1548 85.7932C78.5628 86.8082 79.5423 87.4988 80.7804 87.4988C82.0185 87.4988 83.1906 86.8082 83.8815 85.7932C83.1378 85.2453 82.1983 84.9257 81.1388 84.9257C80.0799 84.9257 79.0514 85.2457 78.1548 85.7932Z" fill="#FF7312"/>
<path opacity="0.4" d="M79.9395 83.1276C79.8278 83.9289 80.3869 84.5785 81.1881 84.5785C81.9894 84.5785 82.7296 83.9289 82.8413 83.1276C82.9529 82.3264 82.3939 81.6768 81.5926 81.6768C80.7913 81.6768 80.0512 82.3264 79.9395 83.1276Z" fill="#FF7312"/>
<path opacity="0.4" d="M89.0631 96.8336H97.8084C98.242 96.8336 98.6461 96.4787 98.7066 96.0451C98.7671 95.6115 98.4618 95.2566 98.0282 95.2566H89.2829C88.8493 95.2566 88.4451 95.6115 88.3847 96.0451C88.3239 96.4787 88.6291 96.8336 89.0631 96.8336Z" fill="#A3A7BA"/>
<path opacity="0.4" d="M88.6538 99.7686H102.287C102.721 99.7686 103.125 99.4137 103.185 98.9801C103.246 98.5465 102.941 98.1917 102.507 98.1917H88.8737C88.4401 98.1917 88.0359 98.5465 87.9754 98.9801C87.9149 99.4137 88.2202 99.7686 88.6538 99.7686Z" fill="#A3A7BA"/>
<path opacity="0.2" d="M73.7248 112.262H94.6022C95.2102 112.262 95.7772 111.764 95.8617 111.156C95.9465 110.548 95.5184 110.051 94.9104 110.051H74.0329C73.4249 110.051 72.8579 110.548 72.7734 111.156C72.6886 111.764 73.1168 112.262 73.7248 112.262Z" fill="#A3A7BA"/>
<path opacity="0.2" d="M73.1513 116.377H88.4921C89.1001 116.377 89.6671 115.88 89.7516 115.272C89.8364 114.664 89.4082 114.166 88.7999 114.166H73.4591C72.8511 114.166 72.2841 114.664 72.1996 115.272C72.1151 115.88 72.5433 116.377 73.1513 116.377Z" fill="#A3A7BA"/>
<path opacity="0.2" d="M80.983 61.8917H105.874C106.188 61.8917 106.482 61.6344 106.525 61.3199C106.569 61.0053 106.348 60.748 106.033 60.748H81.1424C80.8278 60.748 80.5347 61.0053 80.4909 61.3199C80.447 61.6344 80.6685 61.8917 80.983 61.8917Z" fill="#A3A7BA"/>
<path opacity="0.4" d="M82.486 100.239C84.5448 98.319 84.8595 95.3102 83.1888 93.5191C81.5181 91.7279 78.4947 91.8326 76.4359 93.7529C74.377 95.6732 74.0624 98.682 75.733 100.473C77.4037 102.264 80.4271 102.16 82.486 100.239Z" fill="white"/>
<path d="M75.2124 96.9941C75.1103 97.7273 75.2002 98.4156 75.4434 99.0162C75.9749 100.339 77.2517 101.239 78.8658 101.239C80.4796 101.239 82.0072 100.339 82.9077 99.0162C83.3186 98.4156 83.6002 97.7273 83.7026 96.9941C84.0293 94.6492 82.3941 92.749 80.0492 92.749C77.7045 92.7487 75.5394 94.6492 75.2124 96.9941Z" fill="white"/>
<path opacity="0.4" d="M76.3682 98.6162C76.7762 99.6312 77.7557 100.322 78.9941 100.322C80.2325 100.322 81.4043 99.6312 82.0952 98.6162C81.3515 98.0683 80.412 97.7487 79.3528 97.7487C78.293 97.7487 77.2645 98.0683 76.3682 98.6162Z" fill="#FF7312"/>
<path opacity="0.4" d="M78.1519 95.9506C78.0402 96.7519 78.5993 97.4015 79.4005 97.4015C80.2018 97.4015 80.942 96.7519 81.0537 95.9506C81.1653 95.1494 80.6063 94.4998 79.805 94.4998C79.0037 94.4998 78.2636 95.1494 78.1519 95.9506Z" fill="#FF7312"/>
</svg>
