<svg width="24" height="24" viewBox="0 0 24 24" fill="none" xmlns="http://www.w3.org/2000/svg">
<path d="M14.0755 17.5225C13.9936 17.5225 13.9043 17.5002 13.8299 17.463C13.5545 17.3216 13.4429 16.9869 13.5768 16.7117L15.1694 13.5354C15.2662 13.3495 15.4597 13.2305 15.668 13.2305C15.8764 13.2305 16.0699 13.3495 16.1666 13.5429L17.7592 16.7191C17.9006 16.9943 17.789 17.3291 17.5062 17.4704C17.2308 17.6117 16.8959 17.5002 16.7545 17.2175L15.668 15.038L14.5815 17.2175C14.4773 17.4109 14.2764 17.5225 14.0755 17.5225Z" fill="#121212"/>
<path d="M16.9711 16.9576H14.3516C14.0465 16.9576 13.7935 16.7047 13.7935 16.3997C13.7935 16.0947 14.0465 15.8418 14.3516 15.8418H16.9711C17.2762 15.8418 17.5292 16.0947 17.5292 16.3997C17.5292 16.7047 17.2836 16.9576 16.9711 16.9576Z" fill="#121212"/>
<path d="M15.6614 19.9994C13.2725 19.9994 11.3228 18.058 11.3228 15.6628C11.3228 13.2676 13.2651 11.3262 15.6614 11.3262C18.0503 11.3262 20 13.2676 20 15.6628C20 18.058 18.0577 19.9994 15.6614 19.9994ZM15.6614 12.4494C13.8828 12.4494 12.439 13.8924 12.439 15.6702C12.439 17.448 13.8828 18.8911 15.6614 18.8911C17.4326 18.8911 18.8837 17.448 18.8837 15.6702C18.8837 13.8924 17.44 12.4494 15.6614 12.4494Z" fill="#121212"/>
<path d="M6.68654 12.5245C5.86048 12.5245 5.20559 12.2939 4.74419 11.8476C4.25303 11.3715 4 10.65 4 9.72019V6.80432C4 4.99677 4.99722 4 6.80561 4H9.72284C10.6531 4 11.3675 4.24547 11.8512 4.74385C12.3201 5.22735 12.5508 5.92659 12.5284 6.81921V9.72019C12.5508 10.6277 12.3201 11.3418 11.8363 11.8253C11.3526 12.3088 10.6382 12.5319 9.71539 12.517H6.81305C6.76095 12.5245 6.72374 12.5245 6.68654 12.5245ZM6.80561 5.12322C5.60746 5.12322 5.11629 5.61417 5.11629 6.81177V9.72764C5.11629 10.345 5.25024 10.7913 5.51815 11.0517C5.77861 11.3046 6.19538 11.4162 6.78329 11.4088H9.71539C10.3405 11.4237 10.7722 11.2972 11.0326 11.0369C11.2931 10.7765 11.4122 10.3376 11.3973 9.73509V6.80432C11.4122 6.20924 11.2931 5.78523 11.0401 5.52488C10.7796 5.2571 10.3331 5.12322 9.71539 5.12322H6.80561Z" fill="#121212"/>
<path d="M9.76707 7.98687H6.74564C6.44053 7.98687 6.1875 7.73396 6.1875 7.42898C6.1875 7.124 6.44053 6.87109 6.74564 6.87109H9.76707C10.0722 6.87109 10.3252 7.124 10.3252 7.42898C10.3252 7.73396 10.0796 7.98687 9.76707 7.98687Z" fill="#121212"/>
<path d="M8.26418 7.98681C7.95921 7.98681 7.7063 7.73391 7.7063 7.42893V6.92312C7.7063 6.61814 7.95921 6.36523 8.26418 6.36523C8.56916 6.36523 8.82207 6.61814 8.82207 6.92312V7.42893C8.82207 7.73391 8.56916 7.98681 8.26418 7.98681Z" fill="#121212"/>
<path d="M6.74564 10.337C6.44053 10.337 6.1875 10.0841 6.1875 9.77916C6.1875 9.47418 6.44053 9.22127 6.74564 9.22127C7.69077 9.22127 8.45729 8.41792 8.45729 7.42117C8.45729 7.11619 8.71032 6.86328 9.01544 6.86328C9.32056 6.86328 9.57358 7.11619 9.57358 7.42117C9.57358 9.02788 8.30845 10.337 6.74564 10.337Z" fill="#121212"/>
<path d="M9.77543 10.3374C9.08333 10.3374 8.42101 9.98778 7.95216 9.37039C7.76612 9.12492 7.81821 8.77528 8.06379 8.58931C8.30938 8.40335 8.65914 8.45544 8.84519 8.70091C9.09821 9.04308 9.4331 9.22906 9.77543 9.22906C10.0805 9.22906 10.3336 9.48197 10.3336 9.78695C10.3336 10.0919 10.0805 10.3374 9.77543 10.3374Z" fill="#121212"/>
<path d="M9.76749 20.0004C6.58979 20.0004 4 17.4118 4 14.2356C4 13.9306 4.25303 13.6777 4.55814 13.6777C4.86326 13.6777 5.11629 13.9306 5.11629 14.2356C5.11629 16.4374 6.64933 18.2822 8.71074 18.7657L8.50981 18.4309C8.35353 18.1631 8.4354 17.821 8.7033 17.6648C8.96377 17.5085 9.31354 17.5904 9.46982 17.8582L10.2512 19.1599C10.3554 19.331 10.3554 19.5467 10.2587 19.7178C10.1545 19.8889 9.96842 20.0004 9.76749 20.0004Z" fill="#121212"/>
<path d="M19.4423 10.3305C19.1372 10.3305 18.8842 10.0776 18.8842 9.77263C18.8842 7.57084 17.3512 5.72608 15.2897 5.24258L15.4907 5.57732C15.647 5.84511 15.5651 6.18729 15.2972 6.3435C15.0367 6.49971 14.6869 6.41789 14.5307 6.15009L13.7493 4.84836C13.6451 4.67728 13.6451 4.46156 13.7418 4.29047C13.8386 4.11195 14.0246 4.00781 14.2255 4.00781C17.4032 4.00781 19.993 6.5964 19.993 9.77263C20.0005 10.0776 19.7475 10.3305 19.4423 10.3305Z" fill="#121212"/>
</svg>
