<svg width="20" height="20" viewBox="0 0 20 20" fill="none" xmlns="http://www.w3.org/2000/svg">
<path d="M9.99819 6.625C9.63428 6.625 9.27853 6.73731 8.97595 6.94772C8.67336 7.15814 8.43753 7.45721 8.29826 7.80712C8.159 8.15703 8.12256 8.54206 8.19356 8.91352C8.26456 9.28498 8.4398 9.62619 8.69712 9.894C8.95445 10.1618 9.2823 10.3442 9.63923 10.4181C9.99615 10.492 10.3661 10.454 10.7023 10.3091C11.0385 10.1642 11.3259 9.91873 11.5281 9.60382C11.7303 9.28891 11.8382 8.91867 11.8382 8.53993C11.8376 8.03224 11.6436 7.5455 11.2986 7.18651C10.9537 6.82752 10.486 6.62558 9.99819 6.625ZM9.99819 9.4974C9.81623 9.4974 9.63836 9.44125 9.48707 9.33604C9.33578 9.23083 9.21786 9.0813 9.14823 8.90634C9.0786 8.73139 9.06038 8.53887 9.09587 8.35314C9.13137 8.16741 9.21899 7.99681 9.34766 7.8629C9.47632 7.729 9.64025 7.63781 9.81871 7.60086C9.99717 7.56392 10.1822 7.58288 10.3503 7.65535C10.5184 7.72782 10.662 7.85054 10.7631 8.00799C10.8642 8.16545 10.9182 8.35057 10.9182 8.53993C10.9179 8.79378 10.8209 9.03715 10.6484 9.21664C10.4759 9.39614 10.2421 9.49711 9.99819 9.4974Z" fill="url(#paint0_linear_3126_775)"/>
<path d="M13.5355 4.85722C12.6613 3.94764 11.4943 3.40731 10.2598 3.34052C9.02535 3.27373 7.81084 3.68521 6.85073 4.49554C5.89061 5.30588 5.25294 6.45763 5.06079 7.7285C4.86864 8.99936 5.13563 10.2993 5.81024 11.3773L9.28629 16.931C9.36364 17.0546 9.46941 17.1561 9.594 17.2264C9.71859 17.2967 9.85807 17.3335 9.99979 17.3335C10.1415 17.3335 10.281 17.2967 10.4056 17.2264C10.5302 17.1561 10.6359 17.0546 10.7133 16.931L14.1895 11.3773C14.8154 10.3773 15.092 9.18368 14.973 7.99662C14.8539 6.80956 14.3464 5.70116 13.5355 4.85722ZM13.4186 10.8547L9.9998 16.3167L6.58096 10.8547C5.53447 9.18273 5.75892 6.94525 7.11464 5.53424C7.49352 5.13991 7.94332 4.82712 8.43836 4.61371C8.9334 4.4003 9.46398 4.29046 9.9998 4.29046C10.5356 4.29046 11.0662 4.4003 11.5612 4.61371C12.0563 4.82712 12.5061 5.13991 12.885 5.53424C14.2407 6.94525 14.4651 9.18273 13.4186 10.8547Z" fill="url(#paint1_linear_3126_775)"/>
<defs>
<linearGradient id="paint0_linear_3126_775" x1="9.99819" y1="6.6741" x2="9.99819" y2="10.3076" gradientUnits="userSpaceOnUse">
<stop stop-color="#FF7312"/>
<stop offset="1" stop-color="#182452"/>
</linearGradient>
<linearGradient id="paint1_linear_3126_775" x1="10" y1="3.51298" x2="10" y2="16.795" gradientUnits="userSpaceOnUse">
<stop stop-color="#FF7312"/>
<stop offset="1" stop-color="#182452"/>
</linearGradient>
</defs>
</svg>
