<svg width="48" height="48" viewBox="0 0 48 48" fill="none" xmlns="http://www.w3.org/2000/svg">
<path d="M31.2517 31.7286L31.2509 31.7294C29.2658 33.838 27.0457 35.7028 24.6358 37.2859C24.4551 37.3887 24.2593 37.46 24.0564 37.4974C23.8841 37.4827 23.7166 37.4288 23.5664 37.3388C19.8834 34.9585 16.6516 31.9206 14.0267 28.3707L14.0263 28.3702C11.8622 25.4504 10.6308 21.9225 10.5002 18.2646L10.5098 17.7352C10.687 12.9931 13.2533 8.66556 17.3144 6.30586C21.5253 3.85916 26.6998 3.90131 30.8717 6.41625C35.0052 8.9868 37.5219 13.5757 37.4999 18.5168C37.402 23.4233 34.6978 28.0846 31.2517 31.7286ZM26.0101 13.6094C24.0432 12.7733 21.7767 13.2288 20.2704 14.7578C18.7658 16.2852 18.3156 18.5821 19.125 20.5775C19.9347 22.5737 21.8495 23.8829 23.9814 23.8837C25.3783 23.8932 26.7191 23.3334 27.7058 22.3319C28.6922 21.3306 29.243 19.9712 29.2385 18.5567C29.2452 16.3997 27.9749 14.4446 26.0101 13.6094Z" fill="#182452" stroke="#182452"/>
<path opacity="0.4" d="M24 44C29.5228 44 34 43.1046 34 42C34 40.8954 29.5228 40 24 40C18.4772 40 14 40.8954 14 42C14 43.1046 18.4772 44 24 44Z" fill="#182452"/>
</svg>
