<svg width="24" height="24" viewBox="0 0 24 24" fill="none" xmlns="http://www.w3.org/2000/svg">
<path d="M12.1403 6.70312C11.6204 6.70312 11.1122 6.86357 10.6799 7.16416C10.2477 7.46475 9.91076 7.892 9.71181 8.39187C9.51286 8.89174 9.4608 9.44178 9.56223 9.97244C9.66365 10.5031 9.914 10.9905 10.2816 11.3731C10.6492 11.7557 11.1176 12.0163 11.6275 12.1218C12.1374 12.2274 12.6659 12.1732 13.1462 11.9661C13.6265 11.7591 14.037 11.4084 14.3258 10.9586C14.6147 10.5087 14.7688 9.9798 14.7688 9.43875C14.768 8.71347 14.4908 8.01813 13.9981 7.50528C13.5053 6.99243 12.8372 6.70395 12.1403 6.70312ZM12.1403 10.8066C11.8803 10.8066 11.6262 10.7263 11.4101 10.576C11.194 10.4257 11.0255 10.2121 10.926 9.96219C10.8266 9.71225 10.8005 9.43723 10.8512 9.1719C10.902 8.90657 11.0271 8.66285 11.2109 8.47156C11.3947 8.28027 11.6289 8.14999 11.8839 8.09722C12.1388 8.04444 12.4031 8.07153 12.6432 8.17505C12.8834 8.27858 13.0886 8.4539 13.2331 8.67883C13.3775 8.90377 13.4546 9.16822 13.4546 9.43875C13.4541 9.80138 13.3156 10.149 13.0692 10.4055C12.8228 10.6619 12.4887 10.8061 12.1403 10.8066Z" fill="#182452"/>
<path d="M17.1935 4.17675C15.9447 2.87735 14.2776 2.10545 12.514 2.01003C10.7505 1.91462 9.01549 2.50245 7.6439 3.66007C6.2723 4.81769 5.36134 6.46305 5.08684 8.27857C4.81235 10.0941 5.19376 11.9511 6.15748 13.4912L11.1233 21.425C11.2338 21.6016 11.3849 21.7466 11.5629 21.847C11.7408 21.9474 11.9401 22 12.1426 22C12.345 22 12.5443 21.9474 12.7222 21.847C12.9002 21.7466 13.0513 21.6016 13.1618 21.425L18.1278 13.4912C19.022 12.0625 19.4172 10.3574 19.2471 8.6616C19.077 6.9658 18.352 5.38238 17.1935 4.17675ZM17.0266 12.7445L12.1426 20.5475L7.25851 12.7445C5.76353 10.356 6.08417 7.15964 8.02092 5.14392C8.56218 4.5806 9.20475 4.13375 9.91194 3.82888C10.6191 3.52401 11.3771 3.3671 12.1426 3.3671C12.908 3.3671 13.666 3.52401 14.3732 3.82888C15.0804 4.13375 15.723 4.5806 16.2642 5.14392C18.201 7.15964 18.5216 10.356 17.0266 12.7445Z" fill="#182452"/>
</svg>
