<svg width="10" height="15" viewBox="0 0 10 15" fill="none" xmlns="http://www.w3.org/2000/svg">
<g id="&#240;&#159;&#166;&#134; icon &#34;location pin&#34;">
<path id="Vector" d="M4.99819 3.48633C4.63428 3.48633 4.27853 3.59864 3.97595 3.80905C3.67336 4.01947 3.43753 4.31854 3.29826 4.66845C3.159 5.01836 3.12256 5.40339 3.19356 5.77485C3.26456 6.14631 3.4398 6.48752 3.69712 6.75533C3.95445 7.02314 4.2823 7.20552 4.63923 7.2794C4.99615 7.35329 5.36611 7.31537 5.70232 7.17043C6.03854 7.0255 6.3259 6.78005 6.52808 6.46514C6.73027 6.15023 6.83818 5.78 6.83818 5.40126C6.83762 4.89357 6.64359 4.40683 6.29865 4.04784C5.9537 3.68884 5.48602 3.48691 4.99819 3.48633ZM4.99819 6.35873C4.81623 6.35873 4.63836 6.30258 4.48707 6.19737C4.33578 6.09216 4.21786 5.94262 4.14823 5.76767C4.0786 5.59272 4.06038 5.4002 4.09587 5.21447C4.13137 5.02874 4.21899 4.85814 4.34766 4.72423C4.47632 4.59033 4.64025 4.49914 4.81871 4.46219C4.99717 4.42525 5.18215 4.44421 5.35026 4.51668C5.51836 4.58915 5.66205 4.71187 5.76314 4.86932C5.86423 5.02678 5.91818 5.21189 5.91818 5.40126C5.9179 5.65511 5.82088 5.89847 5.64841 6.07797C5.47594 6.25747 5.2421 6.35844 4.99819 6.35873Z" fill="#FF7312"/>
<path id="Vector_2" d="M8.53548 1.71855C7.66128 0.808967 6.49432 0.268638 5.25983 0.201847C4.02535 0.135056 2.81084 0.546537 1.85073 1.35687C0.89061 2.16721 0.252941 3.31896 0.0607913 4.58982C-0.131358 5.86069 0.135633 7.16059 0.810236 8.23863L4.28629 13.7923C4.36364 13.9159 4.46941 14.0174 4.594 14.0877C4.71859 14.158 4.85807 14.1948 4.99979 14.1948C5.1415 14.1948 5.28098 14.158 5.40557 14.0877C5.53016 14.0174 5.63593 13.9159 5.71328 13.7923L9.18945 8.23863C9.81541 7.23859 10.092 6.04501 9.97297 4.85795C9.85391 3.67088 9.34639 2.56249 8.53548 1.71855ZM8.41861 7.71601L4.9998 13.1781L1.58096 7.71601C0.534467 6.04406 0.758917 3.80658 2.11464 2.39557C2.49352 2.00124 2.94332 1.68845 3.43836 1.47504C3.9334 1.26163 4.46398 1.15179 4.9998 1.15179C5.53563 1.15179 6.06621 1.26163 6.56124 1.47504C7.05628 1.68845 7.50608 2.00124 7.88496 2.39557C9.24068 3.80658 9.4651 6.04406 8.41861 7.71601Z" fill="#FF7312"/>
</g>
</svg>
