<svg width="20" height="21" viewBox="0 0 20 21" fill="none" xmlns="http://www.w3.org/2000/svg">
<path d="M9.99819 7.48633C9.63428 7.48633 9.27853 7.59864 8.97595 7.80905C8.67336 8.01947 8.43753 8.31854 8.29826 8.66845C8.159 9.01836 8.12256 9.40339 8.19356 9.77485C8.26456 10.1463 8.4398 10.4875 8.69712 10.7553C8.95445 11.0231 9.2823 11.2055 9.63923 11.2794C9.99615 11.3533 10.3661 11.3154 10.7023 11.1704C11.0385 11.0255 11.3259 10.7801 11.5281 10.4651C11.7303 10.1502 11.8382 9.78 11.8382 9.40126C11.8376 8.89357 11.6436 8.40683 11.2986 8.04784C10.9537 7.68884 10.486 7.48691 9.99819 7.48633ZM9.99819 10.3587C9.81623 10.3587 9.63836 10.3026 9.48707 10.1974C9.33578 10.0922 9.21786 9.94262 9.14823 9.76767C9.0786 9.59272 9.06038 9.4002 9.09587 9.21447C9.13137 9.02874 9.21899 8.85814 9.34766 8.72423C9.47632 8.59033 9.64025 8.49914 9.81871 8.46219C9.99717 8.42525 10.1822 8.44421 10.3503 8.51668C10.5184 8.58915 10.662 8.71187 10.7631 8.86932C10.8642 9.02678 10.9182 9.21189 10.9182 9.40126C10.9179 9.65511 10.8209 9.89847 10.6484 10.078C10.4759 10.2575 10.2421 10.3584 9.99819 10.3587Z" fill="#FF7312"/>
<path d="M13.5355 5.71855C12.6613 4.80897 11.4943 4.26864 10.2598 4.20185C9.02535 4.13506 7.81084 4.54654 6.85073 5.35687C5.89061 6.16721 5.25294 7.31896 5.06079 8.58982C4.86864 9.86069 5.13563 11.1606 5.81024 12.2386L9.28629 17.7923C9.36364 17.9159 9.46941 18.0174 9.594 18.0877C9.71859 18.158 9.85807 18.1948 9.99979 18.1948C10.1415 18.1948 10.281 18.158 10.4056 18.0877C10.5302 18.0174 10.6359 17.9159 10.7133 17.7923L14.1895 12.2386C14.8154 11.2386 15.092 10.045 14.973 8.85795C14.8539 7.67088 14.3464 6.56249 13.5355 5.71855ZM13.4186 11.716L9.9998 17.1781L6.58096 11.716C5.53447 10.0441 5.75892 7.80658 7.11464 6.39557C7.49352 6.00124 7.94332 5.68845 8.43836 5.47504C8.9334 5.26163 9.46398 5.15179 9.9998 5.15179C10.5356 5.15179 11.0662 5.26163 11.5612 5.47504C12.0563 5.68845 12.5061 6.00124 12.885 6.39557C14.2407 7.80658 14.4651 10.0441 13.4186 11.716Z" fill="#FF7312"/>
</svg>
