<svg width="15" height="20" viewBox="0 0 15 20" fill="none" xmlns="http://www.w3.org/2000/svg">
<path d="M7.14027 4.70312C6.62039 4.70312 6.11219 4.86357 5.67993 5.16416C5.24766 5.46475 4.91076 5.892 4.71181 6.39187C4.51286 6.89174 4.4608 7.44178 4.56223 7.97244C4.66365 8.5031 4.914 8.99054 5.2816 9.37312C5.64921 9.75571 6.11758 10.0163 6.62747 10.1218C7.13736 10.2274 7.66587 10.1732 8.14618 9.96613C8.62648 9.75908 9.03701 9.40845 9.32584 8.95858C9.61467 8.50871 9.76883 7.9798 9.76883 7.43875C9.76803 6.71347 9.49084 6.01813 8.99806 5.50528C8.50529 4.99243 7.83717 4.70395 7.14027 4.70312ZM7.14027 8.80656C6.88033 8.80656 6.62623 8.72634 6.4101 8.57604C6.19397 8.42574 6.02551 8.21212 5.92604 7.96219C5.82657 7.71225 5.80054 7.43723 5.85125 7.1719C5.90196 6.90657 6.02713 6.66285 6.21094 6.47156C6.39474 6.28027 6.62893 6.14999 6.88387 6.09722C7.13881 6.04444 7.40307 6.07153 7.64322 6.17505C7.88338 6.27858 8.08864 6.4539 8.23305 6.67883C8.37747 6.90377 8.45455 7.16822 8.45455 7.43875C8.45415 7.80138 8.31555 8.14905 8.06916 8.40547C7.82277 8.6619 7.48872 8.80614 7.14027 8.80656Z" fill="url(#paint0_linear_2737_441)"/>
<path d="M12.1935 2.17675C10.9447 0.877347 9.2776 0.105449 7.51405 0.0100327C5.7505 -0.0853834 4.01549 0.502446 2.6439 1.66007C1.2723 2.81769 0.361344 4.46305 0.0868447 6.27857C-0.187655 8.0941 0.193761 9.95109 1.15748 11.4912L6.12327 19.425C6.23378 19.6016 6.38487 19.7466 6.56286 19.847C6.74085 19.9474 6.9401 20 7.14255 20C7.34501 20 7.54426 19.9474 7.72224 19.847C7.90023 19.7466 8.05133 19.6016 8.16184 19.425L13.1278 11.4912C14.022 10.0625 14.4172 8.35741 14.2471 6.6616C14.077 4.9658 13.352 3.38238 12.1935 2.17675ZM12.0266 10.7445L7.14257 18.5475L2.25851 10.7445C0.763525 8.35605 1.08417 5.15964 3.02092 3.14392C3.56218 2.5806 4.20475 2.13375 4.91194 1.82888C5.61914 1.52401 6.37711 1.3671 7.14257 1.3671C7.90804 1.3671 8.66601 1.52401 9.3732 1.82888C10.0804 2.13375 10.723 2.5806 11.2642 3.14392C13.201 5.15964 13.5216 8.35605 12.0266 10.7445Z" fill="url(#paint1_linear_2737_441)"/>
<defs>
<linearGradient id="paint0_linear_2737_441" x1="7.14027" y1="4.77327" x2="7.14027" y2="9.96393" gradientUnits="userSpaceOnUse">
<stop stop-color="#FF7312"/>
<stop offset="1" stop-color="#182452"/>
</linearGradient>
<linearGradient id="paint1_linear_2737_441" x1="7.14286" y1="0.25641" x2="7.14286" y2="19.2307" gradientUnits="userSpaceOnUse">
<stop stop-color="#FF7312"/>
<stop offset="1" stop-color="#182452"/>
</linearGradient>
</defs>
</svg>
