<svg width="24" height="24" viewBox="0 0 24 24" fill="none" xmlns="http://www.w3.org/2000/svg">
<path fill-rule="evenodd" clip-rule="evenodd" d="M4 10.6523C4.01441 6.41168 7.46376 2.98568 11.7043 3.00004C15.9449 3.0145 19.3709 6.46385 19.3566 10.7044V10.7914C19.3044 13.5479 17.7652 16.0957 15.8783 18.087C14.7991 19.2077 13.594 20.1998 12.287 21.0436C11.9375 21.3459 11.4191 21.3459 11.0696 21.0436C9.12107 19.7753 7.41094 18.1741 6.01739 16.3131C4.77535 14.6903 4.07017 12.7207 4 10.6784V10.6523Z" stroke="#FF7312" stroke-width="1.5" stroke-linecap="round" stroke-linejoin="round"/>
<path d="M11.6779 13.2609C13.0371 13.2609 14.1389 12.159 14.1389 10.7999C14.1389 9.44069 13.0371 8.33887 11.6779 8.33887C10.3187 8.33887 9.21692 9.44069 9.21692 10.7999C9.21692 12.159 10.3187 13.2609 11.6779 13.2609Z" stroke="#FF7312" stroke-width="1.5" stroke-linecap="round" stroke-linejoin="round"/>
</svg>
