<svg width="18" height="18" viewBox="0 0 18 18" fill="none" xmlns="http://www.w3.org/2000/svg">
<path d="M4.72168 11.4171L7.21537 8.17605L10.0598 10.4106L12.5002 7.26123" stroke="#121212" stroke-linecap="round" stroke-linejoin="round"/>
<path d="M15.3446 4.20272C16.2291 4.20272 16.946 3.48576 16.946 2.60136C16.946 1.71695 16.2291 1 15.3446 1C14.4602 1 13.7433 1.71695 13.7433 2.60136C13.7433 3.48576 14.4602 4.20272 15.3446 4.20272Z" stroke="#121212" stroke-linecap="round" stroke-linejoin="round"/>
<path d="M11.1201 1.70117H5.06482C2.55576 1.70117 1 3.4781 1 5.98715V12.7212C1 15.2302 2.52526 16.9995 5.06482 16.9995H12.2335C14.7426 16.9995 16.2984 15.2302 16.2984 12.7212V6.85655" stroke="#121212" stroke-linecap="round" stroke-linejoin="round"/>
</svg>
