<svg width="18" height="16" viewBox="0 0 18 16" fill="none" xmlns="http://www.w3.org/2000/svg">
<path fill-rule="evenodd" clip-rule="evenodd" d="M17.5286 7.52953L6.23445 7.52953V8.4707L17.5286 8.4707V7.52953Z" fill="white"/>
<path fill-rule="evenodd" clip-rule="evenodd" d="M14.5676 11.6273L17.8617 8.33318C17.9056 8.28946 17.9403 8.23753 17.9641 8.18036C17.9878 8.12319 18 8.0619 18 8C18 7.9381 17.9878 7.87681 17.9641 7.81964C17.9403 7.76247 17.9056 7.71054 17.8617 7.66682L14.5676 4.37271L13.9013 5.03812L16.8632 8L13.9013 10.9609L14.5676 11.6273ZM12.3521 15.5294C12.3521 15.6542 12.3025 15.7739 12.2143 15.8622C12.126 15.9504 12.0063 16 11.8815 16L0.587394 16C0.462587 16 0.34289 15.9504 0.254638 15.8622C0.166386 15.7739 0.116806 15.6542 0.116806 15.5294L0.116806 0.470588C0.116806 0.34578 0.166386 0.226084 0.254638 0.137832C0.34289 0.0495793 0.462587 -5.96046e-08 0.587394 -5.96046e-08L11.8815 -5.96046e-08C12.0063 -5.96046e-08 12.126 0.0495793 12.2143 0.137832C12.3025 0.226084 12.3521 0.34578 12.3521 0.470588V3.29412H11.4109V0.941176L1.05798 0.941176L1.05798 15.0588L11.4109 15.0588V12.7059H12.3521V15.5294Z" fill="white"/>
</svg>
