<svg width="40" height="40" viewBox="0 0 40 40" fill="none" xmlns="http://www.w3.org/2000/svg">
<circle cx="20" cy="20" r="20" fill="#FBF1F1"/>
<path fill-rule="evenodd" clip-rule="evenodd" d="M28.5286 19.5295H17.2344V20.4707H28.5286V19.5295Z" fill="#C11919"/>
<path fill-rule="evenodd" clip-rule="evenodd" d="M25.5676 23.6273L28.8617 20.3332C28.9056 20.2895 28.9403 20.2375 28.9641 20.1804C28.9878 20.1232 29 20.0619 29 20C29 19.9381 28.9878 19.8768 28.9641 19.8196C28.9403 19.7625 28.9056 19.7105 28.8617 19.6668L25.5676 16.3727L24.9013 17.0381L27.8632 20L24.9013 22.9609L25.5676 23.6273ZM23.3521 27.5294C23.3521 27.6542 23.3025 27.7739 23.2143 27.8622C23.126 27.9504 23.0063 28 22.8815 28L11.5874 28C11.4626 28 11.3429 27.9504 11.2546 27.8622C11.1664 27.7739 11.1168 27.6542 11.1168 27.5294L11.1168 12.4706C11.1168 12.3458 11.1664 12.2261 11.2546 12.1378C11.3429 12.0496 11.4626 12 11.5874 12L22.8815 12C23.0063 12 23.126 12.0496 23.2143 12.1378C23.3025 12.2261 23.3521 12.3458 23.3521 12.4706V15.2941H22.4109V12.9412L12.058 12.9412L12.058 27.0588L22.4109 27.0588V24.7059H23.3521V27.5294Z" fill="#C11919"/>
</svg>
