<svg width="24" height="24" viewBox="0 0 24 24" fill="none" xmlns="http://www.w3.org/2000/svg">
<path fill-rule="evenodd" clip-rule="evenodd" d="M20.5286 11.5294L9.23445 11.5294V12.4706L20.5286 12.4706V11.5294Z" fill="#121212"/>
<path fill-rule="evenodd" clip-rule="evenodd" d="M17.5676 15.6273L20.8617 12.3332C20.9056 12.2895 20.9403 12.2375 20.9641 12.1804C20.9878 12.1232 21 12.0619 21 12C21 11.9381 20.9878 11.8768 20.9641 11.8196C20.9403 11.7625 20.9056 11.7105 20.8617 11.6668L17.5676 8.37271L16.9013 9.03812L19.8632 12L16.9013 14.9609L17.5676 15.6273ZM15.3521 19.5294C15.3521 19.6542 15.3025 19.7739 15.2143 19.8622C15.126 19.9504 15.0063 20 14.8815 20L3.58739 20C3.46259 20 3.34289 19.9504 3.25464 19.8622C3.16639 19.7739 3.11681 19.6542 3.11681 19.5294L3.11681 4.47059C3.11681 4.34578 3.16639 4.22608 3.25464 4.13783C3.34289 4.04958 3.46259 4 3.58739 4L14.8815 4C15.0063 4 15.126 4.04958 15.2143 4.13783C15.3025 4.22608 15.3521 4.34578 15.3521 4.47059V7.29412H14.4109V4.94118L4.05798 4.94118L4.05798 19.0588L14.4109 19.0588V16.7059H15.3521V19.5294Z" fill="#121212"/>
</svg>
