<svg width="20" height="20" viewBox="0 0 20 20" fill="none" xmlns="http://www.w3.org/2000/svg">
<path d="M9.88881 5.61111C10.1965 5.61111 10.4972 5.51988 10.753 5.34895C11.0088 5.17803 11.2082 4.93508 11.326 4.65084C11.4437 4.3666 11.4745 4.05383 11.4145 3.75208C11.3545 3.45033 11.2063 3.17316 10.9888 2.95561C10.7712 2.73806 10.494 2.58991 10.1923 2.52989C9.89053 2.46987 9.57776 2.50067 9.29352 2.61841C9.00928 2.73615 8.76634 2.93553 8.59541 3.19134C8.42448 3.44715 8.33325 3.7479 8.33325 4.05556C8.33325 4.46811 8.49714 4.86378 8.78886 5.1555C9.08059 5.44722 9.47625 5.61111 9.88881 5.61111ZM9.88881 13.3889C9.58115 13.3889 9.2804 13.4801 9.02459 13.651C8.76878 13.822 8.5694 14.0649 8.45166 14.3492C8.33393 14.6334 8.30312 14.9462 8.36314 15.2479C8.42316 15.5497 8.57132 15.8268 8.78886 16.0444C9.00641 16.2619 9.28359 16.4101 9.58533 16.4701C9.88708 16.5301 10.1999 16.4993 10.4841 16.3816C10.7683 16.2639 11.0113 16.0645 11.1822 15.8087C11.3531 15.5529 11.4444 15.2521 11.4444 14.9444C11.4444 14.5319 11.2805 14.1362 10.9888 13.8445C10.697 13.5528 10.3014 13.3889 9.88881 13.3889ZM9.88881 7.94444C9.58115 7.94444 9.2804 8.03568 9.02459 8.2066C8.76878 8.37753 8.5694 8.62047 8.45166 8.90471C8.33393 9.18896 8.30312 9.50173 8.36314 9.80347C8.42316 10.1052 8.57132 10.3824 8.78886 10.5999C9.00641 10.8175 9.28359 10.9656 9.58533 11.0257C9.88708 11.0857 10.1999 11.0549 10.4841 10.9371C10.7683 10.8194 11.0113 10.62 11.1822 10.3642C11.3531 10.1084 11.4444 9.80766 11.4444 9.5C11.4444 9.08744 11.2805 8.69178 10.9888 8.40006C10.697 8.10833 10.3014 7.94444 9.88881 7.94444Z" fill="#121212"/>
</svg>
