<svg width="186" height="165" viewBox="0 0 186 165" fill="none" xmlns="http://www.w3.org/2000/svg">
<path d="M173.281 84.2091V83.7966H94.1082C93.393 90.4139 92.5926 94.8082 91.7266 94.8082H166.917C170.433 94.8078 173.281 90.0618 173.281 84.2091Z" fill="#BABAC1"/>
<path d="M166.484 94.8031C162.968 94.8031 160.121 90.0617 160.121 84.2089V32.9707C160.116 27.1224 157.269 22.3813 153.753 22.3813H81.9604V84.2089C81.9604 90.0572 87.7828 94.8031 91.2986 94.8031H166.484Z" fill="#F0F0F0"/>
<path d="M160.142 32.7715V33.184H80.9698C80.2546 26.5667 79.4542 22.1724 78.5881 22.1724H153.779C157.295 22.1728 160.142 26.9187 160.142 32.7715Z" fill="#F0F0F0"/>
<path d="M153.692 22.1724C150.176 22.1724 147.329 26.9012 147.329 32.7384V140.804C147.324 146.637 144.477 151.365 140.961 151.365H69.1682V32.7384C69.1682 26.9057 74.9906 22.1724 78.5063 22.1724H153.692Z" fill="white"/>
<path d="M75.1428 54.5823H138.216" stroke="#F6F3F2" stroke-width="0.419237" stroke-miterlimit="10"/>
<path d="M78.5894 28.6907H141.663" stroke="#F6F3F2" stroke-width="0.419237" stroke-miterlimit="10"/>
<path d="M75.1428 81.2017H138.216" stroke="#F6F3F2" stroke-width="0.419237" stroke-miterlimit="10"/>
<mask id="mask0_5248_1134" style="mask-type:luminance" maskUnits="userSpaceOnUse" x="69" y="22" width="85" height="130">
<path d="M153.692 22.1724C150.176 22.1724 147.329 26.9012 147.329 32.7384V140.804C147.324 146.637 144.477 151.365 140.961 151.365H69.1682V32.7384C69.1682 26.9057 74.9906 22.1724 78.5063 22.1724H153.692Z" fill="white"/>
</mask>
<g mask="url(#mask0_5248_1134)">
<path d="M86.5785 52.2056C92.4421 52.2056 97.1954 47.4692 97.1954 41.6265C97.1954 35.7838 92.4421 31.0474 86.5785 31.0474C80.715 31.0474 75.9617 35.7838 75.9617 41.6265C75.9617 47.4692 80.715 52.2056 86.5785 52.2056Z" fill="#F0EBE9"/>
<mask id="mask1_5248_1134" style="mask-type:luminance" maskUnits="userSpaceOnUse" x="75" y="31" width="23" height="22">
<path d="M86.5793 52.1929C92.4428 52.1929 97.1961 47.4565 97.1961 41.6138C97.1961 35.7711 92.4428 31.0347 86.5793 31.0347C80.7157 31.0347 75.9624 35.7711 75.9624 41.6138C75.9624 47.4565 80.7157 52.1929 86.5793 52.1929Z" fill="white"/>
</mask>
<g mask="url(#mask1_5248_1134)">
<path d="M89.1558 40.0554C89.7837 39.6821 90.6095 39.451 91.2255 39.843C91.8752 40.2563 91.983 41.1405 92.035 41.9071C92.0875 42.6736 92.2244 43.5619 92.8953 43.9401C93.3404 44.1908 93.888 44.1316 94.3917 44.2178C95.8266 44.4636 96.8196 46.0249 96.6327 47.4637C96.4459 48.9025 95.256 50.0966 93.8629 50.5197C92.4703 50.9424 90.93 50.6729 89.6304 50.0186C88.3307 49.3644 87.245 48.3532 86.2827 47.2648C85.4208 46.29 84.6314 45.2224 84.1908 44.0001C83.8342 43.0106 83.2981 40.7178 84.9814 40.8367C85.7015 40.8873 86.3151 41.2875 87.0573 41.1683C87.8602 41.0388 88.4812 40.4564 89.1558 40.0554Z" fill="#3C3C48"/>
<path d="M90.9155 44.0374C93.8837 45.5068 94.8374 52.998 94.8374 52.998L89.2466 53.8328L90.9155 44.0374Z" fill="#F5F5F5"/>
<path d="M80.8354 39.0331C80.3808 39.23 79.9353 39.5636 79.8267 40.0456C79.6398 40.8754 80.5222 41.6546 80.3767 42.4927C80.2698 43.1089 79.63 43.5039 79.0099 43.6023C78.3902 43.7003 77.7574 43.5847 77.1299 43.6011C76.5024 43.6174 75.8171 43.8102 75.481 44.3382C75.0896 44.9533 75.3163 45.7656 75.6347 46.421C75.9532 47.0765 76.3643 47.743 76.3106 48.4696C76.2499 49.2859 75.6077 49.9769 75.5655 50.7946C75.5122 51.8184 76.4122 52.6487 77.3438 53.0832C78.5771 53.6586 80.0013 53.8191 81.3325 53.5329C82.6637 53.2466 83.8945 52.5147 84.7794 51.4831C85.8885 50.1909 86.4262 48.4896 86.5897 46.7972C86.7532 45.1048 86.5692 43.4001 86.3852 41.7098C86.2856 40.7929 86.186 39.8761 86.086 38.9592C86.0032 38.1972 86.0819 37.1051 85.6716 36.4337C84.945 35.2444 83.2236 36.6738 83.2236 36.6738C83.5478 38.7264 81.7387 38.6427 80.8354 39.0331Z" fill="#3C3C48"/>
<path d="M90.9144 44.0393L90.7877 46.1045L90.5398 50.1399L90.5037 50.7256L90.3893 52.5817L90.2459 54.9145H82.4673L82.4603 54.8446L81.5853 44.6825L81.5308 44.0389L83.8018 43.4344L87.7544 42.3804L89.8992 43.5059C89.8992 43.5075 89.8992 43.5075 89.8992 43.5075L90.9144 44.0393Z" fill="#F5F5F5"/>
<path d="M83.804 43.4346L87.7566 42.3813L89.9009 43.5061C89.9009 43.5077 89.9009 43.5077 89.9009 43.5077C90.055 47.7383 85.5348 46.7585 83.804 43.4346Z" fill="#FDE2D0"/>
<path d="M87.2744 44.4526L85.605 44.4493C84.994 44.4481 84.4993 43.9535 84.5005 43.3446L84.5079 40.0488L88.4679 40.0562L88.4609 43.2748C88.4593 43.9261 87.9285 44.4538 87.2744 44.4526Z" fill="#FDE2D0"/>
<path d="M88.4628 42.4602L88.4624 43.0467C86.7799 43.2202 84.9237 42.1016 85.4413 39.4397L88.4677 39.4446L88.4628 42.4602Z" fill="#FDE2D0"/>
<path d="M87.3379 33.6573C89.2544 33.4592 90.9696 34.8465 91.1684 36.7562L91.2873 37.896C91.4713 39.6611 90.1844 41.2404 88.413 41.4237L85.2251 41.7533C84.9239 41.7843 84.6542 41.5663 84.623 41.2661L84.228 37.4741C84.0288 35.5649 85.421 33.8557 87.3379 33.6573Z" fill="#FDE2D0"/>
<path d="M84.7642 38.5108C84.7642 38.5108 86.8577 36.7387 87.8311 33.6386C82.4026 33.2085 82.3444 38.0481 84.7642 38.5108Z" fill="#3C3C48"/>
<path d="M85.5944 38.8265C84.7518 37.2436 83.989 37.135 83.3734 37.456C82.2451 38.0441 82.7373 40.7231 84.8263 40.1551L85.5944 38.8265Z" fill="#FDE2D0"/>
<path d="M86.5774 33.6238C86.5774 33.6238 90.1017 33.3432 91.2133 37.1805C91.2456 33.9052 89.1127 33.2489 86.5774 33.6238Z" fill="#3C3C48"/>
<path d="M79.5626 46.1854C79.3823 47.8071 79.1102 53.0873 79.4856 57.3562L82.8021 56.0575C85.2891 45.485 82.7493 43.7256 82.7493 43.7256C82.7493 43.7256 79.8159 43.909 79.5626 46.1854Z" fill="#F5F5F5"/>
</g>
<path d="M97.0596 69.3025C98.0065 63.5363 94.0831 58.097 88.2964 57.1534C82.5097 56.2098 77.051 60.1193 76.104 65.8854C75.1571 71.6515 79.0805 77.0909 84.8672 78.0345C90.6539 78.978 96.1126 75.0686 97.0596 69.3025Z" fill="#F0EBE9"/>
<mask id="mask2_5248_1134" style="mask-type:luminance" maskUnits="userSpaceOnUse" x="75" y="57" width="23" height="22">
<path d="M97.0593 69.2988C98.0063 63.5327 94.0829 58.0933 88.2962 57.1497C82.5095 56.2061 77.0507 60.1156 76.1038 65.8817C75.1568 71.6479 79.0802 77.0872 84.8669 78.0308C90.6537 78.9744 96.1124 75.0649 97.0593 69.2988Z" fill="white"/>
</mask>
<g mask="url(#mask2_5248_1134)">
<path d="M89.0211 63.5341C90.3702 63.5341 91.4638 62.4443 91.4638 61.1001C91.4638 59.7558 90.3702 58.666 89.0211 58.666C87.672 58.666 86.5784 59.7558 86.5784 61.1001C86.5784 62.4443 87.672 63.5341 89.0211 63.5341Z" fill="#3C3C48"/>
<path d="M83.9165 71.8544L86.2715 72.5867C86.2678 72.6561 86.2289 73.3475 86.1203 74.2999C85.9592 75.7003 85.6494 77.6586 85.0834 79.03C84.9555 79.3371 84.6936 79.7467 84.3255 80.1947L81.0012 76.4726C81.4762 75.7272 81.732 74.8753 81.9664 73.807C82.0517 73.4129 82.414 72.8297 82.9238 72.3931C83.1759 72.175 83.4649 71.9933 83.7747 71.8908C83.7862 71.8851 83.8018 71.8793 83.8132 71.8773C83.8444 71.8695 83.8735 71.8597 83.9026 71.8503L83.9165 71.8544Z" fill="#F5F5F5"/>
<path d="M93.0192 74.5857C93.0192 74.5972 93.0172 74.609 93.0151 74.6184C92.8909 75.4993 92.711 76.3855 92.4839 77.2432C92.0806 78.7612 91.5245 80.1947 90.8539 81.3631C90.5904 81.8209 90.3093 82.2399 90.0129 82.6071C89.9662 82.663 89.9199 82.719 89.8736 82.7733L89.6178 82.4931L89.5596 82.4294L84.134 83.4798L83.2639 75.563L82.9073 75.1746C82.7561 74.6221 82.663 74.1916 82.6147 73.842C82.5528 73.3671 82.6786 72.9031 82.9421 72.5364C83.0237 72.4225 83.1184 72.3163 83.2249 72.2236C83.2385 72.2121 83.254 72.1987 83.2676 72.1868C83.4499 72.0361 83.6647 71.9201 83.9032 71.8507C83.909 71.8487 83.9131 71.8487 83.9188 71.847C85.7701 71.3063 89.0457 70.746 90.1797 70.5647C90.24 70.5549 90.292 70.5455 90.3408 70.5377C90.4863 70.5144 90.5716 70.5009 90.5793 70.5009C91.2753 70.4372 91.8003 70.5397 92.188 70.7791C92.7405 71.1172 93.0118 71.7294 93.0991 72.5156C93.1668 73.1175 93.1262 73.8224 93.0192 74.5857Z" fill="#F5F5F5"/>
<path d="M93.0194 74.5869C93.0194 74.5983 93.0173 74.6102 93.0153 74.6196C92.8911 75.5005 92.7112 76.3867 92.4841 77.2443L91.8947 81.1245L90.8537 81.3642C90.5902 81.8221 90.309 82.2411 90.0127 82.6082L89.6172 82.4943L89.65 81.6387L90.4738 74.4999L90.7431 72.1667L93.0981 72.5163C93.1669 73.1187 93.1264 73.8236 93.0194 74.5869Z" fill="#F5F5F5"/>
<path d="M82.7993 75.2409L83.1501 75.6243L83.3444 75.5668C83.2653 74.0361 83.5526 72.7015 83.81 71.9141C83.8054 71.9153 83.8009 71.9169 83.796 71.9181C82.9308 72.1697 82.3869 73.0192 82.507 73.9091C82.5546 74.2603 82.6484 74.6899 82.7993 75.2409Z" fill="#F5F5F5"/>
<path d="M83.5205 73.0564C81.6623 76.1267 80.9487 78.2606 83.1873 78.7458C85.4264 79.2309 85.394 76.4502 85.394 76.4502L83.5205 73.0564Z" fill="#F5F5F5"/>
<path d="M81.8175 64.7751C80.8268 62.68 82.2253 59.51 86.6267 61.4123L81.8175 64.7751Z" fill="#3C3C48"/>
<path d="M84.134 71.7884C84.3234 74.2342 88.9465 73.2194 89.4187 70.6926L86.8387 70.6955L84.134 71.7884Z" fill="#FDE2D0"/>
<path d="M86.9341 67.3299C87.7362 69.4736 90.0834 68.3978 90.0846 64.8211C90.0855 61.5282 87.5333 59.8583 82.6052 63.1826L86.9341 67.3299Z" fill="#3C3C48"/>
<path d="M84.835 72.1679L89.011 71.343L88.0102 65.781L83.8337 66.6056L84.835 72.1679Z" fill="#FDE2D0"/>
<path d="M84.6416 71.097L84.9724 71.0377C86.2036 70.8176 87.0229 69.6447 86.802 68.4179L86.3942 66.1521L83.8342 66.6095L84.6416 71.097Z" fill="#FDE2D0"/>
<path d="M88.3686 65.3653V69.7825H84.0984C82.7065 69.7825 81.5552 68.7742 81.338 67.4493C81.313 67.3007 81.2991 67.1479 81.2991 66.9935V65.3653C81.2991 65.1954 81.3106 65.0292 81.336 64.867C81.3827 64.533 81.4774 64.216 81.6151 63.9187C82.1676 62.696 83.4004 61.8445 84.8349 61.8445C84.9242 61.8445 85.0152 61.8482 85.1005 61.8543C86.4186 61.9527 87.535 62.7715 88.0563 63.9191C88.1883 64.2165 88.283 64.5334 88.3297 64.8674C88.3572 65.0292 88.3686 65.195 88.3686 65.3653Z" fill="#FDE2D0"/>
<path d="M83.8337 61.3706C84.2231 63.7556 87.3323 63.3677 87.3323 63.3677C87.3323 63.3677 86.8597 65.1438 87.6474 66.2865L89.4188 65.2381L88.4434 62.4063L83.8337 61.3706Z" fill="#FDE2D0"/>
<path d="M87.1702 66.368C88.1141 64.9199 88.8559 64.8803 89.4194 65.2405C90.1203 65.6885 90.0314 67.0868 89.1461 67.6586C88.3719 68.158 87.3358 67.6145 87.2148 66.7033L87.1702 66.368Z" fill="#FDE2D0"/>
<path d="M95.5182 76.4684L91.3733 77.3072C89.6573 72.081 91.1942 70.4866 91.1942 70.4866C91.1942 70.4866 92.0267 70.5683 92.6152 70.9133C93.5722 71.4712 94.0255 72.1908 94.6915 73.8681C94.9567 74.5366 95.2313 75.3828 95.5182 76.4684Z" fill="#F5F5F5"/>
</g>
<path d="M97.0603 96.6613C98.0073 90.8952 94.0839 85.4559 88.2972 84.5123C82.5104 83.5687 77.0517 87.4782 76.1048 93.2443C75.1578 99.0104 79.0812 104.45 84.8679 105.393C90.6546 106.337 96.1134 102.427 97.0603 96.6613Z" fill="#F0EBE9"/>
<mask id="mask3_5248_1134" style="mask-type:luminance" maskUnits="userSpaceOnUse" x="75" y="84" width="23" height="22">
<path d="M97.061 96.6696C98.008 90.9035 94.0846 85.4642 88.2979 84.5206C82.5112 83.577 77.0525 87.4865 76.1055 93.2526C75.1585 99.0187 79.0819 104.458 84.8686 105.402C90.6554 106.345 96.1141 102.436 97.061 96.6696Z" fill="white"/>
</mask>
<g mask="url(#mask3_5248_1134)">
<path d="M92.0699 97.6125L96.4119 105.09L90.7813 105.804L87.814 102.584L92.0699 97.6125Z" fill="#ADADAD"/>
<path d="M83.9527 96.8395L86.0577 96.2551L88.6742 96.931L89.3898 99.2993L83.4961 99.4794L83.9527 96.8395Z" fill="#F5F5F5"/>
<path d="M90.6694 88.8404C90.4584 90.1346 89.2349 91.0131 87.9361 90.8027C86.6373 90.5924 85.7557 89.3734 85.9668 88.0792C86.1778 86.7849 87.4013 85.9065 88.7001 86.1168C89.9985 86.3271 90.8801 87.5466 90.6694 88.8404Z" fill="#3C3C48"/>
<path d="M87.6113 89.1116C87.4318 90.2134 86.3899 90.9616 85.2842 90.7823C84.1784 90.6035 83.4275 89.5653 83.6074 88.4635C83.787 87.3616 84.8288 86.6134 85.9346 86.7923C87.04 86.9712 87.7908 88.0097 87.6113 89.1116Z" fill="#3C3C48"/>
<path d="M88.2354 98.3915L84.5491 97.9635L83.6016 92.6956L87.2878 93.1231L87.3673 93.5634L87.9661 96.8931L88.2354 98.3915Z" fill="#FDE2D0"/>
<path d="M87.9654 96.8928L87.0601 96.7887C85.9018 96.6543 84.8239 95.7791 84.655 94.8365L84.3616 93.2131L87.3662 93.5635L87.9654 96.8928Z" fill="#FDE2D0"/>
<path d="M88.1091 95.4853L84.2356 95.6405L84.0737 91.6358C84.0675 91.4806 84.0733 91.3286 84.0901 91.1824C84.1192 90.8765 84.1942 90.587 84.3032 90.3117C84.4909 89.8531 84.7774 89.4431 85.1438 89.1159C85.6213 88.6851 86.2406 88.4731 86.9062 88.331C87.0722 88.2955 87.3964 88.3028 87.7878 88.38C88.1694 88.4523 88.6112 88.5932 89.0255 88.8268C89.1337 88.8877 89.2411 88.9554 89.344 89.0294C89.5809 89.1997 89.7977 89.408 89.9744 89.6571C90.2182 89.9965 90.3867 90.4159 90.4322 90.928C90.4445 91.0758 90.4777 91.2249 90.4838 91.3785L90.5445 92.854C90.6014 94.2495 89.5108 95.4294 88.1091 95.4853Z" fill="#FDE2D0"/>
<path d="M84.4168 92.8377C85.9554 92.4673 84.4143 89.2271 84.4143 89.2271C84.4143 89.2271 80.8617 88.971 83.2963 92.7278L84.4168 92.8377Z" fill="#3C3C48"/>
<path d="M84.9977 92.9351C84.1616 91.5143 83.4571 91.4445 82.9042 91.763C82.2169 92.1596 82.2402 93.4954 83.0587 94.0786C83.7743 94.5883 84.7854 94.1154 84.9407 93.2524L84.9977 92.9351Z" fill="#FDE2D0"/>
<path d="M84.4882 91.2079C85.1304 91.2332 85.6423 90.7133 85.6423 90.7133L85.5366 88.9209L84.032 89.3701L84.4882 91.2079Z" fill="#3C3C48"/>
<path d="M85.0614 90.0371L85.2102 92.777L84.4933 92.9098L83.9175 90.769L85.0614 90.0371Z" fill="#3C3C48"/>
<path d="M84.5586 89.4421L87.6837 88.5722C86.1747 87.4557 84.5348 88.5236 84.5586 89.4421Z" fill="#3C3C48"/>
<path d="M86.5632 88.4114C88.0957 89.8228 89.4158 88.4972 89.4158 88.4972C88.5018 87.2185 86.5632 88.4114 86.5632 88.4114Z" fill="#3C3C48"/>
<path d="M93.0813 113.816L81.4766 111.938L80.7651 100.266C80.766 100.251 80.7664 100.237 80.7688 100.222C80.8373 99.3119 81.3107 98.5213 82.0045 98.023C82.2824 97.8233 82.5964 97.6698 82.9337 97.575C83.2095 97.4966 83.5013 97.4554 83.8034 97.4607L84.0202 97.4647L84.0235 97.4651L88.945 97.5452C89.1774 97.5497 89.4024 97.5791 89.6184 97.6318C89.8209 97.682 90.0147 97.7514 90.1983 97.8417C90.3307 97.9046 90.4578 97.9789 90.5787 98.061C90.6459 98.1067 90.7131 98.1557 90.7758 98.2072C91.3267 98.6503 91.7156 99.2854 91.8431 100.01C91.8771 100.198 91.8923 100.393 91.8878 100.59L91.8472 102.538L91.7914 105.144L91.7435 107.318L93.0813 113.816Z" fill="#F5F5F5"/>
<path d="M90.2077 97.8231C89.8052 98.8838 88.6916 99.9472 87.1375 99.9366C85.0808 99.9211 83.4312 98.8078 82.9426 97.5565C83.2185 97.478 83.5103 97.4368 83.8123 97.4421L84.0291 97.4458L84.0324 97.4462L88.954 97.5262C89.1863 97.5311 89.4114 97.5605 89.6273 97.6128C89.8298 97.6635 90.0241 97.7329 90.2077 97.8231Z" fill="#F5F5F5"/>
<path d="M80.0494 97.4558L75.3943 106.557L82.2208 108.003L81.9761 103.093L80.0494 97.4558Z" fill="#ADADAD"/>
<path d="M83.9532 96.8398L81.4772 111.932L80.0493 97.4492L83.9532 96.8398Z" fill="#ADADAD"/>
<path d="M88.6743 96.938L91.7441 107.319L92.0917 97.6216L88.6743 96.938Z" fill="#ADADAD"/>
</g>
<path d="M102.123 39.6814H138.216" stroke="#F0F0F0" stroke-width="1.67695" stroke-miterlimit="10"/>
<path d="M102.123 42.9915H138.216" stroke="#F0F0F0" stroke-width="1.67695" stroke-miterlimit="10"/>
<path d="M102.123 46.3108H117.974" stroke="#F0F0F0" stroke-width="1.67695" stroke-miterlimit="10"/>
<path d="M102.123 36.4834H138.216" stroke="#F0F0F0" stroke-width="1.67695" stroke-miterlimit="10"/>
<path d="M103.498 24.5061H119.351" stroke="#F0F0F0" stroke-width="1.67695" stroke-miterlimit="10"/>
<path d="M102.123 65.6482H138.216" stroke="#F0F0F0" stroke-width="1.67695" stroke-miterlimit="10"/>
<path d="M102.123 68.9575H138.216" stroke="#F0F0F0" stroke-width="1.67695" stroke-miterlimit="10"/>
<path d="M102.123 72.2776H117.974" stroke="#F0F0F0" stroke-width="1.67695" stroke-miterlimit="10"/>
<path d="M102.123 62.4495H138.216" stroke="#F0F0F0" stroke-width="1.67695" stroke-miterlimit="10"/>
<path d="M102.123 93.0022H138.216" stroke="#F0F0F0" stroke-width="1.67695" stroke-miterlimit="10"/>
<path d="M102.123 96.3115H138.216" stroke="#F0F0F0" stroke-width="1.67695" stroke-miterlimit="10"/>
<path d="M102.123 99.6313H117.975" stroke="#F0F0F0" stroke-width="1.67695" stroke-miterlimit="10"/>
<path d="M102.123 89.8032H138.216" stroke="#F0F0F0" stroke-width="1.67695" stroke-miterlimit="10"/>
<path d="M98.5624 23.1173C103.386 18.7795 104.422 12.0898 100.877 8.17535C97.3316 4.26089 90.5473 4.60401 85.7237 8.94174C80.9001 13.2795 79.8638 19.9692 83.4091 23.8837C86.9544 27.7981 93.7388 27.455 98.5624 23.1173Z" fill="#F0F0F0"/>
</g>
<path d="M141.157 151.369C137.641 151.369 134.791 146.626 134.791 140.771H56.6348C56.6348 146.623 59.4824 151.369 62.999 151.369H141.157Z" fill="#F0F0F0"/>
<path d="M134.791 130.345H56.6348V140.773H134.791V130.345Z" fill="#F0F0F0"/>
<path d="M134.79 118.494H53.2373V130.344H134.79V118.494Z" fill="#F0F0F0"/>
<path d="M53.2373 107.891C56.7534 107.891 56.6334 112.633 56.6334 118.489H134.79C134.79 112.638 131.942 107.891 128.426 107.891H53.2373Z" fill="#F0F0F0"/>
<path d="M128.837 107.897C125.321 107.897 122.474 112.639 122.474 118.496V140.772C122.474 146.625 119.626 151.371 116.111 151.371H44.3127V118.496H44.3173C44.3173 112.643 50.1347 107.897 53.6504 107.897H128.837Z" fill="white"/>
<mask id="mask4_5248_1134" style="mask-type:luminance" maskUnits="userSpaceOnUse" x="44" y="107" width="85" height="45">
<path d="M53.6491 107.904C50.133 107.904 44.3155 112.65 44.3151 118.501H44.3147V151.377H116.108C119.624 151.377 122.471 146.632 122.471 140.779V118.501C122.471 112.647 125.322 107.904 128.838 107.904H53.6491V107.904Z" fill="white"/>
</mask>
<g mask="url(#mask4_5248_1134)">
<path d="M68.2298 156.822C72.3759 152.691 72.3759 145.993 68.2298 141.861C64.0837 137.73 57.3615 137.73 53.2154 141.861C49.0693 145.993 49.0693 152.691 53.2154 156.822C57.3615 160.954 64.0837 160.954 68.2298 156.822Z" fill="#F0EBE9"/>
<mask id="mask5_5248_1134" style="mask-type:luminance" maskUnits="userSpaceOnUse" x="50" y="138" width="22" height="22">
<path d="M68.23 156.824C72.3761 152.693 72.3761 145.995 68.23 141.863C64.0839 137.732 57.3616 137.732 53.2155 141.863C49.0694 145.995 49.0694 152.693 53.2155 156.824C57.3616 160.956 64.0839 160.956 68.23 156.824Z" fill="white"/>
</mask>
<g mask="url(#mask5_5248_1134)">
<path d="M58.0974 151.226L60.2025 150.642L62.819 151.318L63.5346 153.686L57.6409 153.866L58.0974 151.226Z" fill="#508E94"/>
<path d="M64.814 143.226C64.6029 144.52 63.3795 145.399 62.0806 145.188C60.7818 144.978 59.9002 143.759 60.1113 142.465C60.3224 141.171 61.5458 140.292 62.8446 140.503C64.143 140.713 65.0246 141.932 64.814 143.226Z" fill="#362C2A"/>
<path d="M61.7566 143.494C61.5771 144.596 60.5353 145.344 59.4295 145.165C58.3237 144.986 57.5728 143.948 57.7523 142.846C57.9319 141.744 58.9737 140.996 60.0795 141.175C61.1857 141.354 61.9361 142.393 61.7566 143.494Z" fill="#362C2A"/>
<path d="M62.3797 152.787L58.6934 152.359L57.7458 147.091L61.4321 147.519L61.5116 147.959L62.1104 151.289L62.3797 152.787Z" fill="#E8AF81"/>
<path d="M62.1104 151.288L61.2051 151.184C60.0468 151.05 58.9689 150.174 58.8 149.232L58.5066 147.608L61.5112 147.959L62.1104 151.288Z" fill="#CD774E"/>
<path d="M62.2532 149.87L58.3796 150.025L58.2177 146.02C58.2116 145.865 58.2173 145.713 58.2341 145.567C58.2632 145.261 58.3382 144.971 58.4477 144.696C58.6354 144.237 58.9215 143.827 59.2883 143.5C59.7657 143.069 60.385 142.857 61.0506 142.715C61.2166 142.68 61.5408 142.687 61.9322 142.764C62.3138 142.837 62.7556 142.977 63.17 143.211C63.2786 143.272 63.3856 143.34 63.4885 143.414C63.7253 143.584 63.9417 143.792 64.1188 144.041C64.3627 144.381 64.5311 144.8 64.5766 145.312C64.5893 145.46 64.6221 145.609 64.6287 145.763L64.6893 147.238C64.7451 148.634 63.6544 149.814 62.2532 149.87Z" fill="#E8AF81"/>
<path d="M58.5606 147.222C60.0988 146.852 58.5581 143.612 58.5581 143.612C58.5581 143.612 55.0055 143.356 57.4401 147.112L58.5606 147.222Z" fill="#362C2A"/>
<path d="M59.1432 147.33C58.3071 145.91 57.6022 145.84 57.0497 146.158C56.3624 146.555 56.3857 147.891 57.2042 148.474C57.9198 148.984 58.9309 148.511 59.0858 147.648L59.1432 147.33Z" fill="#E8AF81"/>
<path d="M58.6332 145.6C59.2754 145.625 59.7873 145.105 59.7873 145.105L59.682 143.312L58.177 143.761L58.6332 145.6Z" fill="#362C2A"/>
<path d="M59.2054 144.428L59.3542 147.168L58.6374 147.301L58.0615 145.16L59.2054 144.428Z" fill="#362C2A"/>
<path d="M58.7024 143.835L61.8275 142.965C60.3185 141.848 58.6786 142.917 58.7024 143.835Z" fill="#362C2A"/>
<path d="M60.708 142.801C62.2405 144.213 63.5606 142.887 63.5606 142.887C62.6466 141.608 60.708 142.801 60.708 142.801Z" fill="#362C2A"/>
<path d="M58.097 151.226L55.621 166.318L54.1931 151.836L58.097 151.226Z" fill="#7CBBC0"/>
<path d="M62.8186 151.314L65.8884 161.695L66.236 151.998L62.8186 151.314Z" fill="#7CBBC0"/>
</g>
</g>
<mask id="mask6_5248_1134" style="mask-type:luminance" maskUnits="userSpaceOnUse" x="44" y="107" width="85" height="45">
<path d="M53.6491 107.904C50.133 107.904 44.3155 112.65 44.3151 118.501H44.3147V151.377H116.108C119.624 151.377 122.471 146.632 122.471 140.779V118.501C122.471 112.647 125.322 107.904 128.838 107.904H53.6491V107.904Z" fill="white"/>
</mask>
<g mask="url(#mask6_5248_1134)">
<path d="M60.725 132.857C66.5885 132.857 71.3419 128.121 71.3419 122.278C71.3419 116.435 66.5885 111.699 60.725 111.699C54.8615 111.699 50.1082 116.435 50.1082 122.278C50.1082 128.121 54.8615 132.857 60.725 132.857Z" fill="#F0EBE9"/>
<mask id="mask7_5248_1134" style="mask-type:luminance" maskUnits="userSpaceOnUse" x="50" y="111" width="22" height="22">
<path d="M60.7248 132.851C66.5883 132.851 71.3416 128.114 71.3416 122.271C71.3416 116.429 66.5883 111.692 60.7248 111.692C54.8612 111.692 50.1079 116.429 50.1079 122.271C50.1079 128.114 54.8612 132.851 60.7248 132.851Z" fill="white"/>
</mask>
<g mask="url(#mask7_5248_1134)">
<path d="M60.9343 128.616C61.2421 125 61.5503 121.384 61.8581 117.768L64.0841 118.119C63.9931 119.111 64.1103 120.121 64.4259 121.067C64.6648 121.783 65.014 122.456 65.33 123.142C65.646 123.827 65.9329 124.537 66.0354 125.284C66.1378 126.031 66.0415 126.828 65.637 127.465C65.2325 128.103 64.4861 128.549 63.7324 128.476" fill="#3C3C48"/>
</g>
<mask id="mask8_5248_1134" style="mask-type:luminance" maskUnits="userSpaceOnUse" x="50" y="111" width="22" height="22">
<path d="M60.7248 132.851C66.5883 132.851 71.3416 128.114 71.3416 122.271C71.3416 116.429 66.5883 111.692 60.7248 111.692C54.8612 111.692 50.1079 116.429 50.1079 122.271C50.1079 128.114 54.8612 132.851 60.7248 132.851Z" fill="white"/>
</mask>
<g mask="url(#mask8_5248_1134)">
<path d="M65.0608 124.688C68.0285 126.157 68.9827 133.648 68.9827 133.648L63.3918 134.483L65.0608 124.688Z" fill="#F5F5F5"/>
<path d="M65.0609 124.692L64.9343 126.757L64.6863 130.792L64.6507 131.378L64.5363 133.234L64.3929 135.567H56.6143L56.6073 135.497L55.7322 125.335L55.6777 124.691L57.9487 124.087L62.6096 123.708L64.0457 124.158C64.0457 124.16 64.0457 124.16 64.0457 124.16L65.0609 124.692Z" fill="#F5F5F5"/>
<path d="M53.7059 126.835C53.5255 128.457 53.2534 133.737 53.6292 138.006L56.9457 136.707C59.4327 126.134 56.8929 124.375 56.8929 124.375C56.8929 124.375 53.9591 124.558 53.7059 126.835Z" fill="#F5F5F5"/>
<path d="M56.8936 124.367L62.6094 123.708L64.0459 124.158C64.0459 124.16 64.0459 124.16 64.0459 124.16C64.2 128.39 58.624 127.691 56.8936 124.367Z" fill="#FDE2D0"/>
<path d="M61.4214 125.108L59.752 125.105C59.1409 125.103 58.6462 124.609 58.6475 124L58.6548 120.704L62.6149 120.711L62.6079 123.93C62.6067 124.582 62.0755 125.109 61.4214 125.108Z" fill="#FDE2D0"/>
<path d="M61.4847 114.31C63.4011 114.112 65.1164 115.499 65.3151 117.409L65.434 118.549C65.618 120.314 64.3311 121.893 62.5597 122.077L59.3719 122.406C59.0706 122.437 58.8009 122.219 58.7698 121.919L58.3747 118.127C58.1755 116.217 59.5678 114.509 61.4847 114.31Z" fill="#FDE2D0"/>
<path d="M58.7119 119.451C58.7119 119.451 62.8477 118.766 62.9178 114.362C61.908 114.17 60.7099 114.328 60.7099 114.328C60.7099 114.328 57.6147 117.169 58.7119 119.451Z" fill="#3C3C48"/>
<path d="M60.709 114.329C57.7674 114.338 55.9477 114.961 56.0219 120.373C56.0375 121.519 55.5083 122.575 54.6394 123.326C53.6841 124.152 53.2988 125.513 53.7624 126.512C54.7854 124.708 59.6589 126.544 59.3159 123.68C58.9728 120.816 58.8794 119.084 58.8794 119.084L60.709 114.329Z" fill="#3C3C48"/>
<path d="M59.7438 119.48C58.9012 117.897 58.1384 117.788 57.5228 118.109C56.3945 118.697 56.8867 121.376 58.9758 120.808L59.7438 119.48Z" fill="#FDE2D0"/>
<path d="M60.7095 114.327C60.7095 114.327 64.249 114.008 65.3601 117.845C65.3929 114.57 63.2448 113.952 60.7095 114.327Z" fill="#3C3C48"/>
</g>
</g>
<path d="M32.2551 140.771C32.2551 146.623 35.1028 151.369 38.6193 151.369H116.78C113.264 151.369 110.412 146.626 110.412 140.771H32.2551Z" fill="#F0F0F0"/>
<path d="M118.743 107.409H124.569" stroke="#F0EBE9" stroke-width="0.838475" stroke-miterlimit="10"/>
<path d="M68.1418 107.409H117.975" stroke="#F0EBE9" stroke-width="0.838475" stroke-miterlimit="10"/>
<path d="M81.9607 121.693H118.054" stroke="#F0F0F0" stroke-width="1.67695" stroke-miterlimit="10"/>
<path d="M81.9607 125.002H118.054" stroke="#F0F0F0" stroke-width="1.67695" stroke-miterlimit="10"/>
<path d="M81.9607 128.322H97.8126" stroke="#F0F0F0" stroke-width="1.67695" stroke-miterlimit="10"/>
<path d="M81.9607 118.494H118.054" stroke="#F0F0F0" stroke-width="1.67695" stroke-miterlimit="10"/>
<path d="M77.2082 36.6868H53.501C51.7149 36.6868 50.2668 38.1296 50.2668 39.9094V51.8542C50.2668 53.634 51.7149 55.0769 53.501 55.0769H77.2082C78.9943 55.0769 80.4423 53.634 80.4423 51.8542V39.9094C80.4428 38.1296 78.9947 36.6868 77.2082 36.6868Z" fill="#F0F0F0"/>
<path d="M75.2638 34.7039H51.5567C49.7705 34.7039 48.3225 36.1467 48.3225 37.9265V49.8713C48.3225 51.6511 49.7705 53.094 51.5567 53.094H75.2638C77.05 53.094 78.498 51.6511 78.498 49.8713V37.9265C78.498 36.1467 77.05 34.7039 75.2638 34.7039Z" fill="#F0F0F0" stroke="#F6F3F2" stroke-width="0.419237" stroke-miterlimit="10"/>
<path d="M53.0712 37.2966H52.9294C51.9478 37.2966 51.1519 38.0897 51.1519 39.0678V39.2092C51.1519 40.1873 51.9478 40.9804 52.9294 40.9804H53.0712C54.0528 40.9804 54.8487 40.1873 54.8487 39.2092V39.0678C54.8487 38.0893 54.0528 37.2966 53.0712 37.2966Z" fill="#F0F0F0"/>
<path d="M53.0712 42.1902H52.9294C51.9478 42.1902 51.1519 42.9833 51.1519 43.9614V44.1027C51.1519 45.0808 51.9478 45.8739 52.9294 45.8739H53.0712C54.0528 45.8739 54.8487 45.0808 54.8487 44.1027V43.9618C54.8487 42.9833 54.0528 42.1902 53.0712 42.1902Z" fill="#F0F0F0"/>
<path d="M53.0712 47.0972H52.9294C51.9478 47.0972 51.1519 47.8903 51.1519 48.8684V49.0097C51.1519 49.9878 51.9478 50.7809 52.9294 50.7809H53.0712C54.0528 50.7809 54.8487 49.9878 54.8487 49.0097V48.8684C54.8487 47.8903 54.0528 47.0972 53.0712 47.0972Z" fill="#F0F0F0"/>
<path d="M57.0999 39.1355H74.8264" stroke="#F0F0F0" stroke-width="1.67695" stroke-miterlimit="10"/>
<path d="M57.0999 44.0408H74.8264" stroke="#F0F0F0" stroke-width="1.67695" stroke-miterlimit="10"/>
<path d="M57.0999 48.936H74.8264" stroke="#F0F0F0" stroke-width="1.67695" stroke-miterlimit="10"/>
<path d="M51.6782 38.3172L53.0918 39.8744L55.5895 36.76" stroke="#F0F0F0" stroke-width="0.838475" stroke-miterlimit="10"/>
<path d="M51.6782 43.2816L53.0918 44.8388L55.5895 41.7244" stroke="#F0F0F0" stroke-width="0.838475" stroke-miterlimit="10"/>
<path d="M51.6782 48.3202L53.0918 49.8774L55.5895 46.7629" stroke="#F0F0F0" stroke-width="0.838475" stroke-miterlimit="10"/>
<path d="M139.799 54.8315H112.093C110.897 54.8315 109.927 55.7982 109.927 56.9903V91.3332C109.927 92.5253 110.897 93.492 112.093 93.492H139.799C140.996 93.492 141.966 92.5257 141.966 91.3332V56.9903C141.966 55.7982 140.996 54.8315 139.799 54.8315Z" fill="#F6F3F2"/>
<path d="M137.04 51.4382H109.335C108.138 51.4382 107.168 52.4049 107.168 53.597V87.9399C107.168 89.132 108.138 90.0987 109.335 90.0987H137.04C138.237 90.0987 139.207 89.1324 139.207 87.9399V53.597C139.207 52.4049 138.237 51.4382 137.04 51.4382Z" fill="white" stroke="#F6F3F2" stroke-width="0.419237" stroke-miterlimit="10"/>
<path d="M111.265 60.7803H119.126" stroke="#F0F0F0" stroke-width="1.67695" stroke-miterlimit="10"/>
<path d="M111.265 64.2812H119.126" stroke="#F0F0F0" stroke-width="1.67695" stroke-miterlimit="10"/>
<path d="M111.265 71.469H134.79" stroke="#F0F0F0" stroke-width="1.67695" stroke-miterlimit="10"/>
<path d="M111.265 75.1096H134.79" stroke="#F0F0F0" stroke-width="1.67695" stroke-miterlimit="10"/>
<path d="M111.265 78.7512H134.79" stroke="#F0F0F0" stroke-width="1.67695" stroke-miterlimit="10"/>
<path d="M111.265 82.4038H121.312" stroke="#F0F0F0" stroke-width="1.67695" stroke-miterlimit="10"/>
<path d="M129.547 69.098C133.49 69.098 136.687 65.9127 136.687 61.9833C136.687 58.054 133.49 54.8687 129.547 54.8687C125.604 54.8687 122.407 58.054 122.407 61.9833C122.407 65.9127 125.604 69.098 129.547 69.098Z" fill="#F9F9F9"/>
<mask id="mask9_5248_1134" style="mask-type:luminance" maskUnits="userSpaceOnUse" x="122" y="54" width="15" height="16">
<path d="M129.547 69.0926C133.49 69.0926 136.687 65.9073 136.687 61.978C136.687 58.0486 133.49 54.8633 129.547 54.8633C125.604 54.8633 122.407 58.0486 122.407 61.978C122.407 65.9073 125.604 69.0926 129.547 69.0926Z" fill="white"/>
</mask>
<g mask="url(#mask9_5248_1134)">
<path d="M129.406 66.2444C129.199 63.8128 128.992 61.3808 128.784 58.9492L127.288 59.1849C127.349 59.8522 127.27 60.5318 127.058 61.1672C126.897 61.6487 126.662 62.1016 126.45 62.5627C126.237 63.0238 126.044 63.5008 125.975 64.0035C125.906 64.5063 125.971 65.0417 126.243 65.4705C126.515 65.8993 127.017 66.1991 127.524 66.1501" fill="#3C3C48"/>
</g>
<mask id="mask10_5248_1134" style="mask-type:luminance" maskUnits="userSpaceOnUse" x="122" y="54" width="15" height="16">
<path d="M129.547 69.0926C133.49 69.0926 136.687 65.9073 136.687 61.978C136.687 58.0486 133.49 54.8633 129.547 54.8633C125.604 54.8633 122.407 58.0486 122.407 61.978C122.407 65.9073 125.604 69.0926 129.547 69.0926Z" fill="white"/>
</mask>
<g mask="url(#mask10_5248_1134)">
<path d="M125.886 65.0962C123.451 66.3018 122.668 72.4494 122.668 72.4494L127.256 73.1343L125.886 65.0962Z" fill="#F5F5F5"/>
<path d="M125.887 65.0937L125.992 66.7885L126.195 70.1002L126.224 70.5809L126.318 72.1038L126.436 74.0184H132.819L132.825 73.9608L133.543 65.6218L133.588 65.0937L131.724 64.5975L127.899 64.2871L126.721 64.6563V64.6575L125.887 65.0937Z" fill="#F5F5F5"/>
<path d="M135.204 66.8484C135.352 68.1793 135.575 72.5124 135.267 76.0152L132.546 74.9497C130.505 66.2734 132.589 64.8301 132.589 64.8301C132.589 64.8301 134.997 64.9804 135.204 66.8484Z" fill="#F5F5F5"/>
<path d="M132.589 64.8278L127.898 64.2871L126.72 64.6559C126.72 64.6571 126.72 64.6571 126.72 64.6571C126.593 68.1289 131.169 67.5555 132.589 64.8278Z" fill="#FDE2D0"/>
<path d="M128.873 65.4489L130.243 65.4465C130.744 65.4457 131.15 65.0397 131.149 64.5399L131.144 61.8354L127.894 61.8412L127.9 64.4823C127.9 65.0169 128.336 65.4498 128.873 65.4489Z" fill="#FDE2D0"/>
<path d="M128.822 56.5745C127.25 56.412 125.842 57.5502 125.679 59.1176L125.581 60.0528C125.43 61.5014 126.486 62.7973 127.94 62.948L130.556 63.2187C130.803 63.2445 131.025 63.0652 131.05 62.8189L131.375 59.7069C131.538 58.1395 130.395 56.7375 128.822 56.5745Z" fill="#FDE2D0"/>
<path d="M131.098 60.7979C131.098 60.7979 127.704 60.2351 127.646 56.622C128.475 56.4644 129.458 56.5942 129.458 56.5942C129.458 56.5942 131.998 58.9254 131.098 60.7979Z" fill="#3C3C48"/>
<path d="M129.457 56.5916C131.871 56.5997 133.364 57.1106 133.303 61.5515C133.291 62.4917 133.725 63.3587 134.438 63.975C135.222 64.6529 135.538 65.7699 135.158 66.5899C134.318 65.1091 130.319 66.6161 130.6 64.2657C130.882 61.9154 130.958 60.4938 130.958 60.4938L129.457 56.5916Z" fill="#3C3C48"/>
<path d="M130.252 60.827C130.943 59.5283 131.569 59.4388 132.075 59.7022C133 60.185 132.596 62.3834 130.882 61.917L130.252 60.827Z" fill="#FDE2D0"/>
<path d="M129.458 56.5923C129.458 56.5923 126.554 56.3301 125.642 59.4788C125.615 56.7912 127.378 56.2848 129.458 56.5923Z" fill="#3C3C48"/>
</g>
<path d="M50.4241 135.558H113.497" stroke="#F6F3F2" stroke-width="0.419237" stroke-miterlimit="10"/>
<path d="M159.254 27.0373C161.979 27.0373 164.188 24.938 164.188 22.3485C164.188 19.7589 161.979 17.6597 159.254 17.6597C156.529 17.6597 154.32 19.7589 154.32 22.3485C154.32 24.938 156.529 27.0373 159.254 27.0373Z" fill="#3C3C48"/>
<path d="M169.337 50.1917C168.845 59.731 166.636 61.5586 161.561 69.0167C160.523 70.5433 158.675 71.3895 156.772 71.2029C153.389 70.8708 151.3 67.533 152.608 64.5497L158.503 47.8716C159.011 46.7146 159.905 45.8026 161.006 45.2292C162.021 44.7008 163.206 44.4667 164.419 44.6109C167.339 44.9613 169.481 47.3958 169.337 50.1917Z" fill="#F5F5F5"/>
<path d="M153.372 65.2962C150.42 70.8189 162.246 77.3974 162.246 77.3974L164.401 74.2829C164.401 74.2829 160.89 63.3003 153.372 65.2962Z" fill="#FDE2D0"/>
<path d="M160.892 144.226L152.417 143.271L153.258 131.1L161.787 131.284L160.892 144.226Z" fill="#FDE2D0"/>
<path d="M138.215 151.38H161.551C161.68 150.788 161.755 150.272 161.787 149.813C161.992 147.098 160.847 146.286 162.002 142.294C162.029 142.207 162.04 142.12 162.04 142.034C162.04 141.722 161.879 141.416 161.599 141.238C161.32 141.054 160.971 141.013 160.654 141.125L160.224 141.283C159.8 141.436 159.359 141.508 158.919 141.508C158.151 141.508 157.388 141.278 156.743 140.834C156.115 140.395 155.352 140.16 154.573 140.16H153.101C152.081 140.16 151.114 140.563 150.416 141.268C146.413 145.28 139.564 144.922 138.393 149.813C138.275 150.283 138.215 150.803 138.215 151.38Z" fill="#3C3C48"/>
<path d="M138.215 151.381H161.551C161.68 150.789 161.755 150.274 161.787 149.814H138.393C138.275 150.284 138.215 150.805 138.215 151.381Z" fill="#3C3C48"/>
<path d="M184.042 145.916L175.691 143.557L173.337 132.549L181.869 132.111L184.042 145.916Z" fill="#FDE2D0"/>
<path d="M181.809 141.214C184.976 145.651 185.141 151.379 183.446 151.379C181.751 151.379 172.05 151.379 169.508 151.379C166.965 151.379 168.093 148.174 171.097 149.332C174.487 145.145 174.843 141.215 174.843 141.215L181.809 141.214Z" fill="#3C3C48"/>
<path d="M167.573 151.374H185.13C185.14 150.889 185.135 150.417 185.106 149.955C184.95 147.028 184.118 144.563 183.31 142.802C182.896 141.91 182.225 141.17 181.398 140.657C180.575 140.143 179.597 139.852 178.566 139.852C176.386 139.852 174.439 141.147 173.704 143.093C172.205 147.037 168.712 147.328 167.802 149.955C167.651 150.362 167.573 150.829 167.573 151.374Z" fill="#3C3C48"/>
<path d="M167.802 149.951C167.651 150.358 167.573 150.825 167.573 151.371H185.13C185.14 150.885 185.135 150.413 185.106 149.951H167.802Z" fill="#3C3C48"/>
<path d="M157.615 84.77H180.989C180.989 84.77 181.161 80.6187 179.994 76.3803C179.325 73.9414 178.212 71.473 176.371 69.7463L162.454 70.5354C162.454 70.5354 160.327 73.4105 158.8 78.863C158.315 80.5787 157.894 82.5528 157.615 84.77Z" fill="#3C3C48"/>
<path d="M173.53 77.052L169.425 89.0356L163.742 105.627L162.159 138.9L158.65 138.911L150.676 138.934L152.111 104.112L159.359 77.052H173.53Z" fill="#3C3C48"/>
<path d="M162.253 136.63H150.759" stroke="#3C3C48" stroke-width="0.838475" stroke-miterlimit="10"/>
<path d="M173.825 138.762L168.528 105.397L166.275 80.5718L180.99 84.7627L180.188 106.949L184.191 138.762H173.825Z" fill="#3C3C48"/>
<path d="M165.612 72.4507L166.439 80.4063C166.439 80.4063 168.889 79.1173 168.203 76.4285" stroke="#3C3C48" stroke-width="0.838475" stroke-miterlimit="10"/>
<path d="M181.152 138.763L176.893 106.991C176.893 106.991 179.352 90.0346 177.709 80.1938" stroke="#3C3C48" stroke-width="0.838475" stroke-miterlimit="10"/>
<path d="M183.948 136.728H173.513" stroke="#3C3C48" stroke-width="0.838475" stroke-miterlimit="10"/>
<path d="M180.731 80.103C180.731 80.103 173.738 82.3247 171.227 74.1167" stroke="#3C3C48" stroke-width="0.838475" stroke-miterlimit="10"/>
<path d="M161.522 72.769L177.739 72.051" stroke="#3C3C48" stroke-width="0.838475" stroke-miterlimit="10"/>
<path d="M158.802 78.863C162.437 80.0481 163.045 75.8858 163.045 75.8858L179.996 76.3803C179.327 73.9414 178.214 71.473 176.373 69.7463L162.456 70.5354C162.456 70.5354 160.329 73.4105 158.802 78.863Z" fill="#3C3C48"/>
<path d="M161.916 44.8543L161.344 44.3242C160.065 43.1403 160.231 41.1437 161.689 40.1651L163.98 38.6279L166.592 43.1713L161.916 44.8543Z" fill="#F0F0F0"/>
<path d="M158.226 36.5838L159.255 37.9785L162.41 42.263L164.282 44.8004L171.248 43.0169L164.585 24.2764L158.226 36.5838Z" fill="#FDE2D0"/>
<path d="M166.513 37.8261C166.513 37.8261 160.619 39.9028 158.59 40.3896C156.407 40.9136 154.052 39.6259 153.58 37.4888C152.926 34.5765 152.455 31.6507 153.393 28.3378C153.948 26.3816 155.168 24.7349 156.787 23.5788C157.512 23.0552 158.323 22.6346 159.191 22.3344L159.2 22.3303L159.693 22.1755L159.743 22.1576C159.99 22.0873 160.24 22.0314 160.494 21.9836C161.096 21.8639 161.716 21.7978 162.348 21.7969C162.952 21.7941 163.536 21.8868 164.077 22.0612C166.35 22.7938 167.899 24.971 167.594 27.3903L167.327 29.4666L166.513 37.8261Z" fill="#FDE2D0"/>
<path d="M164.4 25.3136C164.4 25.3136 160.943 24.9399 158.392 21.796C157.353 20.5157 169.493 18.3439 171.247 24.6328C172.551 29.3036 168.016 33.9254 168.016 33.9254L164.332 32.6271L164.4 25.3136Z" fill="#3C3C48"/>
<path d="M159.255 37.9776L164.282 44.7995C168.315 39.5022 164.899 35.5803 164.899 35.5803L159.255 37.9776Z" fill="#FDE2D0"/>
<path d="M164.4 32.7266C168.364 23.4119 176.165 33.4054 166.314 35.2411L164.4 32.7266Z" fill="#FDE2D0"/>
<path d="M158.422 75.1198L180.556 74.7425C180.556 74.7425 180.42 69.2405 180.772 61.1772C180.923 57.5816 181.642 53.6831 180.652 49.7257C178.034 39.3206 169.36 38.8648 169.887 39.3369L160.577 45.4874C160.195 46.7371 158.925 49.1903 158.324 52.0274C158.275 52.2394 158.233 52.462 158.196 52.6792C158.077 53.4221 157.999 54.1809 158.007 54.9548C158.006 55.1713 158.012 55.3988 158.041 55.6258C158.056 55.9558 158.094 56.2964 158.15 56.6252C158.486 58.5875 159.445 60.536 161.458 62.2443L161.425 62.3758L161.42 62.4044L158.422 75.1198Z" fill="#F5F5F5"/>
<path d="M171.105 39.3269L160.733 52.8424L164.248 58.2116L171.105 39.3269Z" fill="#F5F5F5"/>
<path d="M164.897 42.6344L170.244 39.2166L161.238 55.0709L161.745 44.7164L164.897 42.6344Z" fill="#F0F0F0"/>
<path d="M158.421 75.1261L177.832 74.7949C177.982 69.9239 177.709 55.2 176.621 50.2029L165.761 59.3428L159.28 60.2482L158.421 75.1261Z" fill="#F5F5F5"/>
<path d="M158.063 31.2757C157.947 32.0365 158.15 32.6944 158.515 32.7447C158.88 32.7949 159.27 32.2187 159.386 31.4574C159.502 30.6962 159.299 30.0386 158.934 29.9884C158.569 29.9382 158.179 30.5144 158.063 31.2757Z" fill="#212121"/>
<path d="M159.217 29.1531C160.864 29.6436 161.225 28.8317 160.024 28.2754C158.732 27.6775 157.167 28.5425 159.217 29.1531Z" fill="#402227"/>
<path d="M153.69 30.5032C153.574 31.264 153.776 31.9219 154.141 31.9722C154.507 32.0224 154.897 31.4461 155.012 30.6849C155.128 29.9236 154.926 29.2661 154.561 29.2159C154.195 29.1661 153.806 29.7423 153.69 30.5032Z" fill="#212121"/>
<path d="M154.65 26.9069C156.373 26.8007 156.402 25.9194 155.071 25.812C153.639 25.6964 152.507 27.0392 154.65 26.9069Z" fill="#402227"/>
<path d="M178.82 48.1306C178.362 56.9242 175.086 63.2784 171.092 69.6474C169.624 71.9875 166.609 73.0036 163.919 72.0634C160.808 70.9767 159.23 67.6858 160.408 64.7425L168.837 46.243C169.344 45.0864 171.295 42.3963 173.905 42.5474C176.843 42.7173 178.966 45.3351 178.82 48.1306Z" fill="#F5F5F5"/>
<path d="M163.77 32.1889C163.77 32.1889 163.167 34.3693 161.09 34.9378C158.403 35.6729 155.625 34.7213 152.965 34.1851C153.086 35.8792 152.119 40.6247 156.91 40.951C160.274 41.1801 164.627 37.9656 165.47 35.9886C166.312 34.0116 165.57 32.9795 165.724 29.2129L163.77 32.1889Z" fill="#3C3C48"/>
<path d="M164.272 43.0449L165.041 43.1352L166.559 44.2452L164.353 46.1075L164.283 49.7083L161.238 55.0685L161.56 48.4889L163.044 45.8518L162.753 44.0484L164.272 43.0449Z" fill="#ADADAD"/>
<path d="M166.613 45.6061L165.054 44.1041C163.203 42.3214 163.534 39.278 165.838 38.0622C165.941 38.0075 166.048 37.9565 166.157 37.9095L169.347 36.532L171.105 39.3226L166.613 45.6061Z" fill="#FDE2D0"/>
<path d="M160.709 45.841L162.409 39.78L161.91 36.3143C161.849 35.8871 161.367 35.6409 160.958 35.8271C160.72 35.9357 160.571 36.1669 160.578 36.4176L160.628 38.1786L157.028 41.3592L160.709 45.841Z" fill="#FDE2D0"/>
<path d="M159.044 40.0352L153.214 37.9655L152.962 35.4551L151.353 35.8757C150.87 35.9925 150.514 36.3809 150.458 36.8514L150.441 36.9915C150.364 37.6469 150.594 38.3016 151.072 38.7802L158.631 46.3482L159.044 40.0352Z" fill="#FDE2D0"/>
<path d="M151.788 38.5439L151.362 41.4248C151.282 41.9639 151.48 42.5062 151.895 42.8819C151.724 43.6861 152.132 44.5012 152.897 44.8819L160.13 48.4798L162.027 41.1422L151.788 38.5439Z" fill="#FDE2D0"/>
<path d="M156.788 45.4756C157.645 53.9993 158.355 60.8742 158.86 65.6937C159.315 70.0358 163.447 73.1641 168.003 72.6201C170.151 69.1373 170.335 64.8679 168.494 61.2299L159.636 43.7285L156.788 45.4756Z" fill="#FDE2D0"/>
<path d="M161.069 78.0381C160.896 78.5302 160.339 78.8026 159.818 78.6543L157.364 77.9339C157.009 77.8286 156.758 77.5513 156.689 77.2278C156.653 77.0706 156.664 76.9023 156.724 76.7349C156.736 76.6993 156.752 76.6642 156.768 76.6315C156.819 76.5311 156.891 76.4429 156.978 76.371C157.011 76.3457 157.041 76.3183 157.075 76.2954C157.303 76.1349 157.603 76.0753 157.895 76.1456L160.229 76.7692L160.364 76.8059C160.726 76.8913 160.991 77.1584 161.08 77.4781C161.088 77.4965 161.094 77.5194 161.097 77.5378C161.103 77.5627 161.108 77.5856 161.109 77.6125C161.127 77.751 161.118 77.8968 161.069 78.0381Z" fill="#FDE2D0"/>
<path d="M160.228 76.7676C160.153 76.7905 160.077 76.804 159.996 76.8085L157.446 76.8407C157.341 76.846 157.242 76.8383 157.147 76.815C157.007 76.7803 156.878 76.7166 156.768 76.6296C156.819 76.5291 156.891 76.4409 156.978 76.369C157.01 76.3437 157.04 76.3164 157.075 76.2935C157.303 76.133 157.602 76.0734 157.894 76.1436L160.228 76.7676Z" fill="#FDE2D0"/>
<path d="M160.859 75.7159C160.811 76.2309 160.339 76.6185 159.793 76.5891L157.259 76.3347C157.156 76.3298 157.058 76.3097 156.964 76.2742C156.793 76.2138 156.646 76.1043 156.538 75.9695C156.39 75.7874 156.313 75.5571 156.341 75.3124C156.359 75.1748 156.403 75.0486 156.473 74.9339C156.526 74.8493 156.596 74.7725 156.675 74.706C156.851 74.5614 157.085 74.472 157.333 74.4781L157.34 74.4785L159.75 74.6663L159.879 74.67C160.085 74.6762 160.273 74.7382 160.427 74.8416C160.512 74.8987 160.59 74.9677 160.656 75.0486C160.668 75.0654 160.683 75.0854 160.695 75.1021C160.71 75.1254 160.721 75.1454 160.736 75.1654L160.732 75.1683C160.828 75.3275 160.876 75.5146 160.859 75.7159Z" fill="#FDE2D0"/>
<path d="M160.427 74.8416C160.176 75.1005 159.776 75.2218 159.396 75.1103L157.34 74.4785L159.75 74.6664L159.879 74.6701C160.085 74.6762 160.273 74.7383 160.427 74.8416Z" fill="#FDE2D0"/>
<path d="M160.561 74.1995C160.388 74.6872 159.836 74.9645 159.313 74.8134L156.873 74.0644C156.589 73.9831 156.374 73.7887 156.26 73.5506C156.164 73.3403 156.146 73.1009 156.232 72.8694C156.312 72.6444 156.475 72.4667 156.683 72.3613C156.687 72.3573 156.695 72.3552 156.702 72.3511C156.751 72.327 156.8 72.307 156.853 72.2919C157.024 72.2384 157.214 72.229 157.401 72.2756L159.859 72.965C160.017 73.0054 160.154 73.0785 160.269 73.1749C160.379 73.2668 160.467 73.3795 160.526 73.5065C160.534 73.5249 160.542 73.5457 160.548 73.5641C160.548 73.5665 160.55 73.5686 160.55 73.571C160.626 73.7666 160.634 73.9831 160.561 74.1995Z" fill="#FDE2D0"/>
<path d="M160.269 73.1758C160.167 73.282 159.908 73.3347 159.719 73.2788L157.244 72.513C157.092 72.4685 156.96 72.3938 156.852 72.2929C157.024 72.2394 157.214 72.23 157.4 72.2766L159.858 72.9659C160.017 73.0064 160.154 73.0795 160.269 73.1758Z" fill="#FDE2D0"/>
<path d="M156.79 71.6376C156.872 71.8867 157.064 72.1027 157.337 72.213L159.719 73.118C160.221 73.3234 160.803 73.1086 161.03 72.6406C161.128 72.4315 161.147 72.2138 161.092 72.0096C161.09 71.99 161.083 71.9675 161.077 71.9492C160.987 71.678 160.779 71.4505 160.48 71.3394L158.073 70.4908C157.839 70.4058 157.587 70.4116 157.37 70.4928C157.143 70.5729 156.952 70.7358 156.84 70.9572C156.728 71.1781 156.717 71.4183 156.79 71.6376Z" fill="#FDE2D0"/>
<path d="M164.632 31.1495L164.203 30.726C162.587 29.1291 161.967 26.8466 162.566 24.7062L162.769 23.9805L166.274 25.8068L164.632 31.1495Z" fill="#3C3C48"/>
<path d="M160.732 23.3635C157.42 25.9172 155.477 23.3639 155.477 23.3639C158.329 20.3794 160.732 23.3635 160.732 23.3635Z" fill="#3C3C48"/>
<path d="M151.93 10.5671V5.45683C151.93 2.99543 149.928 1 147.457 1H132.077C129.606 1 127.604 2.99543 127.604 5.45683V10.5026C127.604 12.964 129.606 14.9598 132.077 14.9598H145.724L151.931 19.2496L151.93 10.5671Z" fill="white" stroke="#F6F3F2" stroke-width="0.419237" stroke-miterlimit="10"/>
<path d="M136.766 7.81679C136.766 8.56212 136.159 9.16654 135.411 9.16654C134.663 9.16654 134.057 8.56212 134.057 7.81679C134.057 7.07147 134.663 6.46704 135.411 6.46704C136.159 6.46704 136.766 7.07147 136.766 7.81679Z" fill="#F0F0F0"/>
<path d="M139.768 9.16654C140.516 9.16654 141.122 8.56224 141.122 7.81679C141.122 7.07135 140.516 6.46704 139.768 6.46704C139.02 6.46704 138.413 7.07135 138.413 7.81679C138.413 8.56224 139.02 9.16654 139.768 9.16654Z" fill="#F0F0F0"/>
<path d="M144.124 9.16654C144.872 9.16654 145.478 8.56224 145.478 7.81679C145.478 7.07135 144.872 6.46704 144.124 6.46704C143.376 6.46704 142.769 7.07135 142.769 7.81679C142.769 8.56224 143.376 9.16654 144.124 9.16654Z" fill="#F0F0F0"/>
<path d="M7.2997 150.793C7.2997 150.793 2.03348 157.072 1.5351 161.464C1.23263 164.127 5.05985 163.994 9.50676 163.961L19.4117 163.889C20.5314 163.881 20.9716 162.43 20.0392 161.812C19.6371 161.545 19.0535 161.357 18.2104 161.341C18.2104 161.341 16.0361 159.333 10.881 157.278C10.881 157.278 10.3978 151.274 12.5557 147.532L7.2997 150.793Z" fill="#FDE2D0"/>
<path d="M2.63721 157.964L15.0775 125.12H24.9398L10.881 157.277L2.63721 157.964Z" fill="#FDE2D0"/>
<path d="M24.9404 125.121L29.3935 90.3547C23.465 90.3547 18.4832 94.7944 17.8237 100.666L15.0781 125.121H24.9404Z" fill="#E2A8A1"/>
<path d="M2.79838 157.543C7.55064 157.543 8.49535 163.98 8.49535 163.98H0.87207C0.87248 160.087 2.79838 157.543 2.79838 157.543Z" fill="#3C3C48"/>
<path d="M12.5315 157.968C13.5356 159.43 10.8535 163.977 10.8535 163.977H21.3544C21.1216 160.411 12.5315 157.968 12.5315 157.968Z" fill="#3C3C48"/>
<path d="M0.872559 163.983H14.1301L14.7453 160.543H3.99728L0.872559 163.983Z" fill="#3C3C48"/>
<path d="M0.865479 164.999H21.3422L21.3549 163.981H0.877774L0.865479 164.999Z" fill="#3C3C48"/>
<path d="M34.3112 104.193L37.6769 132.099H29.3933L22.9619 104.193H34.3112Z" fill="#FDE2D0"/>
<path d="M49.6604 162.16C50.3596 162.803 49.8448 163.978 48.8931 163.971C46.7373 163.955 42.408 163.923 39.3231 163.898C38.0378 163.889 36.8074 163.886 35.7237 163.82C35.4241 163.803 35.1331 163.78 34.8593 163.748C32.8277 163.533 31.5194 162.956 31.7211 161.388C31.9113 159.927 31.8797 158.617 31.7584 157.535C31.7354 157.314 31.7063 157.098 31.6748 156.897C31.4239 155.255 30.2341 140.214 30.2341 140.214L38.2632 148.393L38.8448 156.423C43.7552 158.465 47.7005 161.512 47.7005 161.512C48.6747 161.546 49.2833 161.813 49.6604 162.16Z" fill="#FDE2D0"/>
<path d="M38.845 156.427L37.6774 132.098H29.3938L31.7591 157.539L38.845 156.427Z" fill="#FDE2D0"/>
<path d="M31.7578 157.541C36.51 157.541 38.6056 163.978 38.6056 163.978H30.9823C30.743 159.71 31.7578 157.541 31.7578 157.541Z" fill="#3C3C48"/>
<path d="M42.0806 157.966C43.3462 159.428 41.4773 163.975 41.4773 163.975H50.8543C49.983 160.408 42.0806 157.966 42.0806 157.966Z" fill="#3C3C48"/>
<path d="M30.9829 163.98H44.7544V160.541H33.4929L30.9829 163.98Z" fill="#3C3C48"/>
<path d="M30.9465 165H50.8547V163.982H30.9465V165Z" fill="#3C3C48"/>
<path d="M37.8438 75.9167C37.165 77.2375 35.8326 77.9795 34.4518 77.9979C33.7231 78.0065 32.9804 77.8146 32.3156 77.3955C30.8176 76.4538 30.1951 74.6695 30.6463 73.0682C30.7644 72.6487 30.9566 72.2412 31.2263 71.8646L40.9738 58.2511L40.9861 58.2319L43.3161 59.4841C43.3161 59.4841 42.3226 67.2016 37.8438 75.9167Z" fill="#FDE2D0"/>
<path d="M52.6862 57.9281L50.8812 59.0087L47.9331 59.139L48.7655 57.5973L50.2627 57.8109L52.2944 57.1158C52.4759 57.0529 52.678 57.1223 52.7858 57.284L52.8235 57.3432C52.8673 57.4147 52.8911 57.4919 52.8886 57.5687C52.8899 57.712 52.8186 57.8517 52.6862 57.9281Z" fill="#FDE2D0"/>
<path d="M53.2641 58.5754L50.3496 60.1486L49.9266 60.3765L46.7962 60.4259L46.4072 58.4415L50.1517 58.6477L52.7891 57.5716C52.9452 57.5079 53.1178 57.5185 53.2629 57.5961C53.3202 57.6267 53.3719 57.6676 53.4149 57.7166C53.5043 57.8166 53.5502 57.9408 53.5534 58.0637C53.5612 58.2667 53.4612 58.4684 53.2641 58.5754Z" fill="#FDE2D0"/>
<path d="M53.2645 58.5757L50.3501 60.1488L48.2422 59.8589L50.4771 59.6322L53.5539 58.064C53.5617 58.2669 53.4617 58.4687 53.2645 58.5757Z" fill="#FDE2D0"/>
<path d="M54.1548 59.6459C54.1113 59.7264 54.0527 59.795 53.9704 59.8505L53.6609 60.0613L51.9998 61.1893L50.4493 61.7741L47.5041 62.889L45.197 59.434L50.4583 60.1634L53.415 58.825C53.6544 58.7283 53.9298 58.7977 54.0933 58.9937C54.2507 59.1865 54.2634 59.4446 54.1548 59.6459Z" fill="#FDE2D0"/>
<path d="M53.4351 60.2156L52.0018 61.1888L50.4514 61.774L48.4939 60.9797L51.0637 60.9458L53.4351 60.2156Z" fill="#FDE2D0"/>
<path d="M47.5042 62.8936L51.2281 62.5771L53.3974 61.2053C53.597 61.0791 53.6528 60.8137 53.5208 60.6181C53.4036 60.4445 53.1757 60.384 52.9876 60.4763L51.2527 61.3258L48.4944 60.9844L47.5042 62.8936Z" fill="#FDE2D0"/>
<path d="M50.1909 55.7627C50.1036 55.9241 49.9511 56.0458 49.765 56.0846L47.4067 56.5959L46.4091 58.443L40.9814 58.2397C41.838 56.4166 43.6221 55.2024 45.6378 55.0705L49.574 54.8128C50.022 54.7801 50.3704 55.2053 50.2429 55.6349C50.231 55.6806 50.2126 55.7223 50.1909 55.7627Z" fill="#FDE2D0"/>
<path d="M40.9831 58.2425C44.4451 56.3422 48.815 57.6238 48.815 57.6238L47.4674 62.8835L40.9048 61.5428L40.9831 58.2425Z" fill="#FDE2D0"/>
<path d="M19.8739 88.1508L26.4356 87.0383L36.4135 85.3492L36.3914 82.548L36.3926 82.4373L36.3521 77.2062L36.3205 72.6493C39.096 71.2607 39.5366 67.4957 37.1558 65.5109L31.5105 60.7919L18.6878 60.6984L17.7361 60.6902C17.4324 62.9021 17.734 65.1438 18.3349 67.2425C18.9976 69.5761 20.0358 71.732 21.0248 73.4542C22.4273 75.8993 23.731 77.4769 23.731 77.4769L22.2806 81.4915L20.4137 86.663L19.8739 88.1508Z" fill="#F5F5F5"/>
<path d="M18.3345 67.2458C18.9972 69.5794 20.0354 71.7354 21.0243 73.4576L26.8689 74.0399C26.8689 74.0399 31.1305 80.0748 36.3914 82.5521L36.3926 82.4415L36.3521 77.2103L29.901 69.4528L18.3345 67.2458Z" fill="#F5F5F5"/>
<path d="M26.0286 68.3304C26.9954 69.9697 28.3197 72.0383 29.8919 74.1248C31.9903 76.9096 35.1478 80.7657 38.6418 83.4403C41.6912 85.7743 46.1426 84.137 46.95 80.3908L35.6372 68.4795L32.3834 64.1248C31.6354 63.1287 30.4866 62.5908 29.3152 62.5908C28.6439 62.5908 27.9656 62.7689 27.3487 63.136C25.5544 64.2122 24.9671 66.5278 26.0286 68.3304Z" fill="#F5F5F5"/>
<path d="M26.0286 68.33C26.9954 69.9693 28.3197 72.0379 29.8919 74.1244C30.9022 74.099 31.8547 74.008 32.708 73.8519C31.712 70.5876 32.6608 68.2022 33.7408 65.9413L32.3834 64.1248C31.6354 63.1287 30.4866 62.5908 29.3152 62.5908C28.6439 62.5908 27.9656 62.7689 27.3487 63.136C25.5544 64.2117 24.9671 66.5274 26.0286 68.33Z" fill="#F5F5F5"/>
<path d="M32.6911 53.1509L30.2484 65.2897L23.5928 62.2263L24.8289 51.0203L24.8568 50.4666L32.6911 53.1509Z" fill="#FDE2D0"/>
<path d="M23.0946 46.4857L23.7729 49.2457L24.0836 50.5035L24.9156 53.881C25.3648 55.7041 26.7292 57.1657 28.5219 57.7436L31.3089 58.6417C33.7245 59.4205 36.2267 57.7632 36.4706 55.245C36.6493 53.397 36.664 51.2399 35.9742 48.9426C35.1717 46.2742 33.0446 44.1787 30.501 43.3296L30.4908 43.3264L30.0441 43.19L29.9961 43.1773C29.7731 43.1177 29.5432 43.0683 29.3141 43.0291C28.7694 42.9286 28.2055 42.8833 27.6362 42.8955L25.8287 42.9347C23.9872 42.9751 22.6568 44.7031 23.0946 46.4857Z" fill="#FDE2D0"/>
<path d="M36.107 49.4181C36.368 50.8193 37.198 51.2735 37.812 51.4136C38.2062 51.5034 38.4657 51.8775 38.4132 52.2773C38.344 52.8046 37.9694 53.2415 37.4574 53.3922L35.6467 53.926C34.6721 54.0355 33.8147 53.2848 33.7979 52.3079L33.7405 48.9958L36.107 49.4181Z" fill="#FDE2D0"/>
<path d="M35.962 50.5142C35.9792 51.224 35.73 51.8059 35.405 51.8141C35.08 51.8219 34.8025 51.253 34.7853 50.5428C34.7681 49.833 35.0172 49.251 35.3423 49.2433C35.6673 49.2351 35.9447 49.8044 35.962 50.5142Z" fill="#3C3C48"/>
<path d="M34.9512 47.219C33.7278 47.8627 33.3442 47.09 34.2065 46.4566C35.1332 45.7758 36.4734 46.4186 34.9512 47.219Z" fill="#3C3C48"/>
<path d="M30.675 52.9122C33.3399 51.1181 32.7288 45.3973 30.9041 42.5365C30.5484 41.5535 23.0567 39.6863 19.3532 43.1597C16.3986 45.9307 19.9418 53.2851 19.9418 53.2851L30.675 52.9122Z" fill="#3C3C48"/>
<path d="M13.3916 69.6348C17.4648 73.0878 25.8934 72.7019 30.9215 71.7834C29.6604 67.648 33.0249 68.2822 32.6908 63.2606C32.4703 59.9419 28.9509 61.1189 30.2112 53.6428L19.046 43.4893C15.3651 47.951 20.6915 56.393 16.8389 60.5312C14.2154 63.3496 12.799 67.6026 13.3916 69.6348Z" fill="#3C3C48"/>
<path d="M11.4263 69.0964C11.4853 61.0342 18.9573 60.8668 18.6627 53.0525" stroke="#3C3C48" stroke-width="0.838475" stroke-miterlimit="10"/>
<path d="M31.5692 52.1433C29.5327 48.9954 27.3158 51.2387 28.0006 54.0999C28.6859 56.9611 31.1442 55.6718 31.1442 55.6718L31.5692 52.1433Z" fill="#FDE2D0"/>
<path d="M43.5691 75.5773L55.3171 74.043L57.7033 76.192C57.7033 76.192 50.785 81.9552 43.3162 83.1935C38.1807 84.0446 36.9094 76.4844 43.5691 75.5773Z" fill="#FDE2D0"/>
<path d="M57.6322 76.2413L65.3006 70.1843L55.0046 71.6782L55.1469 76.7881L57.6322 76.2413Z" fill="#FDE2D0"/>
<path d="M56.3414 72.2751L54.8688 72.1739C54.4335 72.144 54.1442 71.7128 54.2819 71.3007L54.3245 71.1737C54.5852 70.3932 55.4631 70.0057 56.2185 70.3373C56.725 70.5595 57.0529 71.0585 57.0546 71.6099C57.0558 71.9954 56.7279 72.3017 56.3414 72.2751Z" fill="#FDE2D0"/>
<path d="M59.0398 71.7122L65.3003 70.1905L65.3626 69.999C65.6061 69.2467 66.1684 68.6406 66.9008 68.3413C67.018 68.2919 67.0873 68.1734 67.0758 68.0529C67.0738 68.0342 67.0688 68.0154 67.0639 67.9966C66.9143 67.502 66.4393 67.1949 65.943 67.2415C65.8602 67.2492 65.7786 67.2696 65.6946 67.2966L65.3274 67.4526L65.2905 67.4689C64.6581 67.7393 64.2007 68.3004 64.065 68.9722L59.1992 71.6268L59.0398 71.7122Z" fill="#FDE2D0"/>
<path d="M61.4109 71.8072L64.229 70.6078C64.5487 69.347 65.2082 68.8239 65.9406 68.5249C66.0578 68.4755 66.1271 68.3571 66.1156 68.2366C66.114 68.2174 66.1086 68.199 66.1037 68.1802C65.9906 67.8008 65.6828 67.5321 65.3254 67.4504L65.2885 67.4668C64.6561 67.7371 64.1987 68.2983 64.0631 68.9701L63.6118 70.3452L61.4109 71.8072Z" fill="#FDE2D0"/>
<path d="M63.6128 70.3494L63.6743 70.1587C63.9173 69.4077 64.4797 68.8016 65.2117 68.5014C65.3469 68.4459 65.4182 68.2972 65.376 68.1576C65.2018 67.5793 64.5801 67.2607 64.0067 67.4559L63.6026 67.6295C62.971 67.9007 62.5124 68.4626 62.3755 69.1341L57.3511 71.8728L63.6128 70.3494Z" fill="#FDE2D0"/>
<path d="M12.5164 130.313H39.0118L36.1629 87.6886L36.1116 86.9363L35.9875 83.8721L24.2554 83.8174L22.5992 83.8101C22.5992 83.8101 21.0233 85.6601 19.3417 88.3355C17.992 90.4873 16.5727 93.1775 15.8579 95.8598C14.7599 99.9785 14.5628 123.962 14.5628 123.962L12.5164 130.313Z" fill="#3C3C48"/>
<path d="M19.3423 88.3365L36.1631 87.6896L36.1119 86.9373L35.9877 83.8731L24.2556 83.8184L22.5994 83.811C22.5994 83.811 21.0239 85.6611 19.3423 88.3365Z" fill="#3C3C48"/>
<path d="M12.5164 130.314H15.4275L19.3421 123.686C19.3421 123.686 14.3259 95.552 24.296 84.0618L24.2558 83.8184L22.5996 83.811C22.5996 83.811 17.4633 89.8414 15.8579 95.8612C14.7599 99.9799 14.5628 123.963 14.5628 123.963L12.5164 130.314Z" fill="#3C3C48"/>
<path d="M29.0529 48.9942C32.2666 48.0896 35.1503 44.9894 35.1503 44.9894C32.1838 39.1024 26.1499 41.4262 26.1499 41.4262L29.0529 48.9942Z" fill="#3C3C48"/>
<path d="M26.8741 28.819V23.7087C26.8741 21.2473 28.8767 19.2515 31.3473 19.2515H46.7278C49.198 19.2515 51.201 21.2469 51.201 23.7087V28.7544C51.201 31.2159 49.1984 33.2113 46.7278 33.2113H33.0801L26.8733 37.5011L26.8741 28.819Z" fill="#F0F0F0" stroke="#F6F3F2" stroke-width="0.419237" stroke-miterlimit="10"/>
<path d="M31.2419 24.4912H46.5156" stroke="#F0F0F0" stroke-width="2.09619" stroke-miterlimit="10" stroke-linecap="round" stroke-linejoin="round"/>
<path d="M31.2419 28.5996H41.0559" stroke="#F0F0F0" stroke-width="2.09619" stroke-miterlimit="10" stroke-linecap="round" stroke-linejoin="round"/>
<path d="M44.2439 28.5996H46.6805" stroke="#F0F0F0" stroke-width="2.09619" stroke-miterlimit="10" stroke-linecap="round" stroke-linejoin="round"/>
<path d="M62.9183 83.9332L60.1833 82.3045L59.0046 84.2697C58.4488 84.1092 57.8816 84.0275 57.316 84.023L56.7545 81.8018L53.6646 82.5769L54.2261 84.7982C53.7302 85.0689 53.2695 85.4087 52.8564 85.8122L50.8837 84.6377L49.2492 87.3629L51.2219 88.5374C51.0608 89.0916 50.9788 89.6564 50.9743 90.22L48.7451 90.7795L49.523 93.858L51.7522 93.2985C52.024 93.7927 52.365 94.2517 52.7699 94.6638L51.5911 96.629L54.3261 98.2577L55.5048 96.2925C56.0606 96.453 56.6278 96.5347 57.1934 96.5392L57.7549 98.76L60.8444 97.9849L60.2829 95.7636C60.7788 95.4928 61.2395 95.1531 61.6527 94.7496L63.6253 95.9241L65.2598 93.1989L63.2871 92.0243C63.4482 91.4701 63.5302 90.9053 63.5347 90.3417L65.7639 89.7822L64.986 86.7033L62.7568 87.2628C62.4851 86.7687 62.1441 86.3096 61.7391 85.8976L62.9183 83.9332ZM58.5263 88.1609C59.6993 88.8597 60.0833 90.3789 59.3821 91.5481C58.6808 92.7174 57.1557 93.1001 55.9827 92.4013C54.8093 91.7025 54.4253 90.1833 55.1265 89.014C55.8282 87.8448 57.3533 87.4621 58.5263 88.1609Z" fill="white"/>
<path d="M47.6653 92.9418L45.3115 92.6257L45.0829 94.3169C44.6546 94.3696 44.2422 94.4794 43.8533 94.642L42.8143 93.2845L40.9257 94.7196L41.9647 96.0771C41.7048 96.4079 41.4893 96.775 41.3249 97.1724L39.6273 96.9445L39.3101 99.2899L41.0077 99.5178C41.0605 99.9446 41.1708 100.355 41.3339 100.743L39.9716 101.778L41.4118 103.66L42.7741 102.625C43.1061 102.884 43.4746 103.099 43.8734 103.262L43.6447 104.954L45.9985 105.27L46.2272 103.579C46.6555 103.526 47.0678 103.416 47.4567 103.254L48.4957 104.611L50.3843 103.176L49.3453 101.819C49.6052 101.488 49.8208 101.121 49.9851 100.723L51.6827 100.951L52 98.6059L50.3023 98.378C50.2495 97.9512 50.1392 97.5404 49.9765 97.1528L51.3389 96.1175L49.899 94.2356L48.5367 95.2709C48.2047 95.012 47.8363 94.7972 47.4371 94.6334L47.6653 92.9418ZM45.9755 96.5798C47.2858 96.7558 48.208 97.961 48.0313 99.2667C47.8547 100.572 46.6452 101.491 45.3353 101.316C44.025 101.14 43.1028 99.9344 43.2791 98.6288C43.4553 97.3231 44.6652 96.4042 45.9755 96.5798Z" fill="white"/>
<path d="M103.983 6.04225H75.9851C75.0174 6.04225 74.2334 5.26057 74.2334 4.29676C74.2334 3.33253 75.0179 2.55127 75.9851 2.55127H103.983C104.951 2.55127 105.735 3.33294 105.735 4.29676C105.735 5.26057 104.951 6.04225 103.983 6.04225Z" stroke="white" stroke-width="0.838475" stroke-miterlimit="10"/>
<path d="M103.983 11.856H75.9851C75.0174 11.856 74.2334 11.0743 74.2334 10.1105C74.2334 9.14625 75.0179 8.36499 75.9851 8.36499H103.983C104.951 8.36499 105.735 9.14666 105.735 10.1105C105.735 11.0743 104.951 11.856 103.983 11.856Z" stroke="white" stroke-width="0.838475" stroke-miterlimit="10"/>
<path d="M103.983 17.6804H75.9851C75.0174 17.6804 74.2334 16.8988 74.2334 15.9349C74.2334 14.9707 75.0179 14.1895 75.9851 14.1895H103.983C104.951 14.1895 105.735 14.9711 105.735 15.9349C105.735 16.8988 104.951 17.6804 103.983 17.6804Z" stroke="white" stroke-width="0.838475" stroke-miterlimit="10"/>
<path d="M79.3561 6.04265C78.4131 6.04265 77.6487 5.28099 77.6487 4.34127V4.25265C77.6487 3.31293 78.4131 2.55127 79.3561 2.55127C80.2992 2.55127 81.0636 3.31293 81.0636 4.25265V4.34127C81.0636 5.28099 80.2992 6.04265 79.3561 6.04265Z" fill="white"/>
<path d="M94.5898 11.8677C93.6467 11.8677 92.8823 11.106 92.8823 10.1663V10.0781C92.8823 9.13837 93.6467 8.37671 94.5898 8.37671C95.5328 8.37671 96.2972 9.13837 96.2972 10.0781V10.1663C96.2972 11.1056 95.5328 11.8677 94.5898 11.8677Z" fill="white"/>
<path d="M84.1589 17.6808C83.2158 17.6808 82.4514 16.9192 82.4514 15.9795V15.8908C82.4514 14.9511 83.2158 14.1895 84.1589 14.1895C85.1019 14.1895 85.8663 14.9511 85.8663 15.8908V15.9795C85.8663 16.9192 85.1019 17.6808 84.1589 17.6808Z" fill="white"/>
</svg>
