<svg width="240" height="164" viewBox="0 0 240 164" fill="none" xmlns="http://www.w3.org/2000/svg">
<path opacity="0.15" d="M11.3193 150.997C11.3193 150.997 -18.6067 141.196 22.5251 77.0322C63.6569 12.8685 161.645 -19.4119 211.596 12.3681C261.548 44.1482 236.783 143.687 192.032 152.008L11.3193 150.997Z" fill="white"/>
<path d="M215.597 109.793H199.053V126.337H215.597V109.793Z" fill="#D9DCE4"/>
<path d="M219.374 126.338H202.83V142.882H219.374V126.338Z" fill="#B2B5BF"/>
<path d="M225.199 142.084H208.655V151.872H225.199V142.084Z" fill="#7C7E87"/>
<path d="M79.5294 130.806H27.6621V141.337H79.5294V130.806Z" fill="#E0E0E0"/>
<path d="M109.213 130.805H79.5288V141.337H109.213V130.805Z" fill="#7C7E87"/>
<path d="M86.4705 141.34H24.3411V151.871H86.4705V141.34Z" fill="#868686"/>
<path d="M116.155 141.339H86.4707V151.872H116.155V141.339Z" fill="#E0E0E0"/>
<path d="M87.6174 120.273H35.7507V130.807H87.6174V120.273Z" fill="#868686"/>
<path d="M117.302 120.272H87.6179V130.805H117.302V120.272Z" fill="#E0E0E0"/>
<g opacity="0.15">
<path d="M24.3411 151.871H46.5319C47.1076 148.485 48.2793 144.87 49.7192 141.34H24.3411V151.871Z" fill="black"/>
<path d="M38.8088 120.273C37.7465 120.656 36.7283 121.051 35.7506 121.472V130.807H27.6621V141.338H49.7192C51.2384 137.609 53.0605 133.977 54.801 130.807C58.1673 124.675 61.233 120.273 61.233 120.273H38.8088Z" fill="black"/>
</g>
<path opacity="0.15" d="M121.762 164C185.642 164 237.427 158.918 237.427 152.648C237.427 146.378 185.642 141.296 121.762 141.296C57.8814 141.296 6.09619 146.378 6.09619 152.648C6.09619 158.918 57.8814 164 121.762 164Z" fill="#969696"/>
<path d="M174.415 21.3062H161.558C160.906 21.3062 160.429 20.7779 160.493 20.1258L161.137 13.5495C161.201 12.898 161.781 12.3691 162.433 12.3691H175.29C175.941 12.3691 176.418 12.8974 176.354 13.5495L175.711 20.1258C175.647 20.7774 175.066 21.3062 174.415 21.3062Z" fill="#FFDEC8"/>
<path d="M192.033 152.009H118.351C115.705 152.009 113.77 149.864 114.029 147.218L125.791 27.0554C126.05 24.409 128.405 22.2637 131.052 22.2637H204.733C207.38 22.2637 209.315 24.409 209.056 27.0554L197.294 147.218C197.034 149.864 194.679 152.009 192.033 152.009Z" fill="#182452"/>
<path d="M188.796 145.122H122.936C120.571 145.122 118.841 143.204 119.072 140.84L129.586 33.4336C129.818 31.0681 131.923 29.1504 134.288 29.1504H200.147C202.513 29.1504 204.242 31.0681 204.011 33.4336L193.498 140.84C193.267 143.205 191.161 145.122 188.796 145.122Z" fill="white"/>
<path d="M182.511 32.6931H151.232C149.894 32.6931 148.916 31.6088 149.046 30.2709L150.124 19.2591C150.255 17.9212 151.446 16.8369 152.783 16.8369H184.063C185.401 16.8369 186.379 17.9212 186.248 19.2591L185.17 30.2709C185.04 31.6088 183.849 32.6931 182.511 32.6931Z" fill="#FF7312"/>
<path d="M192.631 60.0259H175.236L184.785 51.3287L194.334 42.6309L192.631 60.0259Z" fill="#E0E0E0"/>
<path d="M136.881 42.6309H165.899" stroke="#E0E0E0" stroke-width="0.8572" stroke-miterlimit="10" stroke-linecap="round" stroke-linejoin="round"/>
<path d="M136.493 46.6006H165.51" stroke="#E0E0E0" stroke-width="0.8572" stroke-miterlimit="10" stroke-linecap="round" stroke-linejoin="round"/>
<path d="M136.105 50.5703H165.121" stroke="#E0E0E0" stroke-width="0.8572" stroke-miterlimit="10" stroke-linecap="round" stroke-linejoin="round"/>
<path d="M135.716 54.54H164.733" stroke="#E0E0E0" stroke-width="0.8572" stroke-miterlimit="10" stroke-linecap="round" stroke-linejoin="round"/>
<path d="M135.327 58.5098H164.344" stroke="#E0E0E0" stroke-width="0.8572" stroke-miterlimit="10" stroke-linecap="round" stroke-linejoin="round"/>
<path d="M189.523 91.7828H172.127L173.83 74.3877H191.225L189.523 91.7828Z" fill="#E0E0E0"/>
<path d="M133.773 74.3877H162.79" stroke="#E0E0E0" stroke-width="0.8572" stroke-miterlimit="10" stroke-linecap="round" stroke-linejoin="round"/>
<path d="M133.384 78.3584H162.402" stroke="#E0E0E0" stroke-width="0.8572" stroke-miterlimit="10" stroke-linecap="round" stroke-linejoin="round"/>
<path d="M132.996 82.3271H162.013" stroke="#E0E0E0" stroke-width="0.8572" stroke-miterlimit="10" stroke-linecap="round" stroke-linejoin="round"/>
<path d="M132.608 86.2969H161.624" stroke="#E0E0E0" stroke-width="0.8572" stroke-miterlimit="10" stroke-linecap="round" stroke-linejoin="round"/>
<path d="M132.219 90.2676H161.236" stroke="#E0E0E0" stroke-width="0.8572" stroke-miterlimit="10" stroke-linecap="round" stroke-linejoin="round"/>
<path d="M186.414 123.539H169.019L178.568 114.841L188.117 106.144L186.414 123.539Z" fill="#E0E0E0"/>
<path d="M130.665 106.144H159.681" stroke="#E0E0E0" stroke-width="0.8572" stroke-miterlimit="10" stroke-linecap="round" stroke-linejoin="round"/>
<path d="M130.276 110.113H159.293" stroke="#E0E0E0" stroke-width="0.8572" stroke-miterlimit="10" stroke-linecap="round" stroke-linejoin="round"/>
<path d="M129.888 114.083H158.904" stroke="#E0E0E0" stroke-width="0.8572" stroke-miterlimit="10" stroke-linecap="round" stroke-linejoin="round"/>
<path d="M129.499 118.053H158.515" stroke="#E0E0E0" stroke-width="0.8572" stroke-miterlimit="10" stroke-linecap="round" stroke-linejoin="round"/>
<path d="M129.11 122.023H158.127" stroke="#E0E0E0" stroke-width="0.8572" stroke-miterlimit="10" stroke-linecap="round" stroke-linejoin="round"/>
<path d="M234.79 151.871H6V152.648H234.79V151.871Z" fill="#C4C5C8"/>
<path d="M75.5975 93.5379L67.462 94.5034C66.4119 94.628 65.4592 93.8779 65.3346 92.8272L57.2838 24.999C57.1592 23.9489 57.9093 22.9961 58.96 22.8716L67.0954 21.9061C68.1455 21.7816 69.0983 22.5316 69.2228 23.5823L77.2737 91.4105C77.3976 92.4606 76.6475 93.4134 75.5975 93.5379Z" fill="#E0E0E0"/>
<path d="M61.4587 29.4857L57.8666 29.912L57.7664 29.0669L61.3586 28.6406L61.4587 29.4857Z" fill="#888888"/>
<path d="M62.2279 35.9622L58.6357 36.3885L58.5349 35.5435L62.1271 35.1172L62.2279 35.9622Z" fill="#888888"/>
<path d="M62.9963 42.4384L59.4042 42.8647L59.304 42.0191L62.8962 41.5928L62.9963 42.4384Z" fill="#888888"/>
<path d="M63.7651 48.9144L60.1729 49.3413L60.0728 48.4956L63.6649 48.0693L63.7651 48.9144Z" fill="#888888"/>
<path d="M64.5337 55.3909L60.9415 55.8172L60.8413 54.9722L64.4335 54.5459L64.5337 55.3909Z" fill="#888888"/>
<path d="M65.3027 61.8685L61.7105 62.2948L61.6104 61.4497L65.202 61.0234L65.3027 61.8685Z" fill="#888888"/>
<path opacity="0.15" d="M65.9709 67.4935L62.3792 67.9199L62.4795 68.7654L66.0713 68.3389L65.9709 67.4935Z" fill="#181818"/>
<path opacity="0.15" d="M66.7397 73.97L63.1479 74.3965L63.2483 75.2419L66.8401 74.8155L66.7397 73.97Z" fill="#181818"/>
<path opacity="0.15" d="M67.5083 80.4456L63.9165 80.8721L64.0168 81.717L67.6086 81.2905L67.5083 80.4456Z" fill="#181818"/>
<path opacity="0.15" d="M68.2798 86.9202L64.6875 87.3467L64.7879 88.1921L68.3802 87.7656L68.2798 86.9202Z" fill="#181818"/>
<path d="M87.1216 51.5184L86.3947 53.3058L83.8126 59.6584L75.5312 80.037L74.8258 81.7699L71.1594 80.2802L71.9512 78.3318L78.8651 61.319L82.7278 51.8161L83.4552 50.0264L87.1216 51.5184Z" fill="#888888"/>
<path d="M95.1314 38.0716C95.0955 37.3679 95.7471 33.8678 95.5553 31.1294C95.9776 29.1925 96.3176 26.1749 95.4279 25.8129C94.2591 25.338 91.4112 29.6292 90.9362 30.7981L82.4429 51.6984L86.6757 53.4187L94.3998 34.4111C94.4809 36.1429 94.2701 37.3992 93.8832 38.6972C93.1216 41.2543 88.594 51.7129 88.594 51.7129C88.594 51.7129 89.713 51.4048 90.7775 48.7857C91.8421 46.1665 95.1852 39.1339 95.1314 38.0716Z" fill="#182452"/>
<path opacity="0.15" d="M83.8127 59.6592L81.4594 65.4512H77.1873L78.8652 61.3203C80.2153 60.9798 81.9407 60.4562 83.8127 59.6592Z" fill="#181818"/>
<path d="M80.1406 39.7172L70.7912 89.4367L65.5193 88.4452L74.8681 38.7256L80.1406 39.7172Z" fill="#182452"/>
<path d="M80.1406 39.7168L74.8682 38.7252L77.4491 33.8936L79.4936 34.2776L80.1406 39.7168Z" fill="#FF7312"/>
<path d="M79.4935 34.2779L77.449 33.8939L79.0794 30.838L79.0829 30.8311L79.4935 34.2779Z" fill="#888888"/>
<path opacity="0.15" d="M80.1408 39.7171L70.792 89.4367L69.8433 65.4509L71.3868 62.5943C74.0454 57.6752 75.8316 52.3326 76.6674 46.8036L79.0797 30.838L79.0838 30.8311L79.4939 34.2779L80.1408 39.7171Z" fill="#181818"/>
<path d="M92.9524 127.475H67.6292C65.3339 127.475 63.4729 125.614 63.4729 123.319V69.6055C63.4729 67.3102 65.3339 65.4492 67.6292 65.4492H92.9524C95.2477 65.4492 97.1081 67.3102 97.1081 69.6055V123.319C97.1081 125.615 95.2477 127.475 92.9524 127.475Z" fill="#B7B7BA"/>
<path d="M90.4358 69.6069V123.318C90.4358 125.615 88.5736 127.474 86.28 127.474H60.9563C58.6627 127.474 56.8005 125.615 56.8005 123.318V69.6069C56.8005 67.3104 58.6627 65.4512 60.9563 65.4512H86.28C88.5742 65.4512 90.4358 67.311 90.4358 69.6069Z" fill="#DCDCDC"/>
<path opacity="0.15" d="M90.4358 109.933V123.319C90.4358 125.616 88.5736 127.475 86.28 127.475H60.9563C58.6627 127.475 56.8005 125.616 56.8005 123.319V74.0762C58.3945 74.2053 60.7281 74.821 62.8306 77.033C66.4674 80.8534 71.8122 104.368 79.1408 108.94C82.236 110.871 86.5186 110.737 90.4358 109.933Z" fill="#181818"/>
<path d="M214.522 113.89H158.825V151.872H214.522V113.89Z" fill="#FFCCAA"/>
<path d="M186.674 124.421L214.522 151.87H158.825L186.674 124.421Z" fill="#FFDEC8"/>
<path d="M183.163 137.878L158.825 113.889H214.522L190.184 137.878C188.238 139.797 185.111 139.797 183.163 137.878Z" fill="#FF7312"/>
<path d="M153.229 151.849C151.663 152.737 149.67 152.191 148.778 150.625L135.857 127.915L129.676 117.05L135.348 113.822L137.662 117.889L154.452 147.398C155.342 148.965 154.796 150.958 153.229 151.849Z" fill="#FF7312"/>
<path opacity="0.74" d="M141.013 97.9712C141.013 108.155 132.756 116.411 122.573 116.411C112.39 116.411 104.135 108.154 104.135 97.9712C104.135 87.7883 112.39 79.5312 122.573 79.5312C132.757 79.5312 141.013 87.7877 141.013 97.9712Z" fill="#F2F2F2"/>
<path d="M135.857 127.915L129.676 117.05L135.348 113.822L137.662 117.889C136.708 120.158 135.663 123.675 135.857 127.915Z" fill="#FF7312"/>
<path d="M122.573 75.6289C110.235 75.6289 100.23 85.6311 100.23 97.9715C100.23 110.312 110.235 120.314 122.573 120.314C134.913 120.314 144.916 110.312 144.916 97.9715C144.916 85.6311 134.913 75.6289 122.573 75.6289ZM122.573 116.411C112.39 116.411 104.135 108.154 104.135 97.9715C104.135 87.7886 112.39 79.5316 122.573 79.5316C132.757 79.5316 141.013 87.7886 141.013 97.9715C141.013 108.154 132.756 116.411 122.573 116.411Z" fill="#FF7312"/>
<path d="M52.1264 105.93L51.7859 106.058L51.4695 106.17C51.2594 106.244 51.0495 106.306 50.8391 106.373C50.4178 106.499 49.9936 106.611 49.5617 106.71C48.6987 106.903 47.8126 107.054 46.8812 107.108C45.9504 107.161 44.9716 107.141 43.9183 106.882L43.7214 106.832L43.6231 106.807L43.5741 106.794C43.5592 106.791 43.5449 106.787 43.5015 106.773C43.2148 106.686 42.9371 106.545 42.6899 106.366C42.1946 106.006 41.8366 105.488 41.6755 104.921C41.507 104.356 41.5351 103.73 41.741 103.189C41.772 103.103 41.7776 103.099 41.7908 103.069L41.8274 102.991L41.9005 102.835L42.0473 102.525C42.4474 101.712 42.8987 100.962 43.3833 100.256C43.86 99.5434 44.3788 98.8759 44.9085 98.227C45.4427 97.5802 45.9959 96.958 46.5725 96.3597C47.1536 95.7598 47.7334 95.1867 48.3812 94.6289L49.8185 95.9172C48.9668 97.2333 48.0919 98.5754 47.3076 99.917C47.1059 100.251 46.9173 100.588 46.7252 100.924C46.5468 101.263 46.3539 101.598 46.1849 101.935C45.829 102.606 45.5293 103.286 45.2694 103.944L45.1796 104.19L45.1345 104.313L45.112 104.375C45.1062 104.391 45.0897 104.433 45.1067 104.395C45.1764 104.233 45.1912 104.032 45.1448 103.851C45.0979 103.671 44.9912 103.496 44.8226 103.37C44.7413 103.305 44.6451 103.258 44.5524 103.227C44.5322 103.221 44.5426 103.223 44.5526 103.225L44.5775 103.228L44.6268 103.235L44.7251 103.251C45.249 103.336 45.9011 103.33 46.5746 103.259C47.2506 103.183 47.9576 103.055 48.6642 102.883C49.0188 102.803 49.3717 102.699 49.7252 102.603L50.2496 102.445L50.5066 102.365L50.7355 102.29L52.1264 105.93Z" fill="#FDE2D0"/>
<path d="M55.7101 103.47C54.8466 101.827 52.1325 101.01 47.0632 102.54L47.1377 108.111C47.1377 108.111 57.9505 107.732 55.7101 103.47Z" fill="#F5F5F5"/>
<path opacity="0.2" d="M52.7045 104.334C51.1976 103.968 49.2691 104.955 47.3928 108.1C48.3931 108.041 52.1128 107.766 54.3256 106.648C54.4205 105.537 54.0151 104.651 52.7045 104.334Z" fill="#3C3C48"/>
<path d="M21.7201 144.78L19.0291 143.734L20.5317 137.037L23.2228 138.083L21.7201 144.78Z" fill="#FDE2D0"/>
<path d="M19.4855 142.531L22.1157 142.58C22.2285 142.582 22.3221 142.67 22.3409 142.793L22.7611 145.526C22.8046 145.81 22.5926 146.074 22.3324 146.066C21.2518 146.029 20.7556 145.947 19.3931 145.927C18.5549 145.915 16.0226 145.975 14.8652 145.959C13.7329 145.942 13.6145 144.667 14.0936 144.559C16.242 144.073 18.3178 143.383 19.029 142.713C19.1578 142.593 19.3207 142.529 19.4855 142.531Z" fill="#3C3C48"/>
<path opacity="0.2" d="M23.2231 138.087L20.531 137.04L19.7578 140.492L22.5313 141.176L23.2231 138.087Z" fill="#3C3C48"/>
<path d="M42.8578 121.439C42.8578 121.439 36.8977 121.409 28.1562 123.176C22.1002 124.401 19.1548 138.616 19.1548 138.616L23.4816 140.159C23.4816 140.159 26.3881 130.5 29.1785 128.394C43.6959 128.324 50.9451 132.642 52.744 123.115C50.3425 122.147 42.8578 121.439 42.8578 121.439Z" fill="#3C3C48"/>
<path d="M18.2617 139.429L24.0843 140.646L24.5488 138.723L18.4758 137.331L18.2617 139.429Z" fill="#F5F5F5"/>
<path d="M48.0479 94.9128L49.4093 93.4141L51.798 94.9928C51.798 94.9928 50.3272 96.8532 48.6348 96.2715L48.0479 94.9128Z" fill="#FDE2D0"/>
<path d="M52.007 92.29L52.7988 93.8123L51.7977 94.993L49.4089 93.4146L52.007 92.29Z" fill="#FDE2D0"/>
<path d="M52.1359 97.6678L49.727 95.7261C49.621 95.6405 49.6115 95.491 49.7058 95.3922L53.8688 91.0244C53.9632 90.9255 54.1256 90.9144 54.2316 91L56.6405 92.9417C56.7465 93.0273 56.756 93.1768 56.6617 93.2756L52.4987 97.6432C52.4043 97.7425 52.2422 97.7534 52.1359 97.6678Z" fill="#3C3C48"/>
<path d="M56.8019 123.806C56.8019 123.806 61.1991 117.33 63.3385 106.894C63.8425 104.436 62.0155 102.119 59.5097 101.987C57.3978 101.876 55.1516 101.848 53.3352 101.856C51.5114 101.863 49.911 103.072 49.4104 104.826C48.3047 108.701 46.4027 114.435 42.8584 121.443L56.8019 123.806Z" fill="#F5F5F5"/>
<path opacity="0.2" d="M63.3998 105.653C61.9191 103.587 60.5961 103.297 60.226 103.414C56.802 104.492 60.4777 113.926 61.0466 114.978C61.8932 112.664 62.7104 109.948 63.3378 106.891C63.4229 106.47 63.4425 106.055 63.3998 105.653Z" fill="#3C3C48"/>
<path d="M52.3434 102.957C52.2514 102.957 52.1584 102.931 52.0755 102.877C51.8495 102.729 51.7853 102.426 51.9329 102.2C51.9976 102.101 53.5395 99.7765 55.8689 100.185C56.1357 100.231 56.314 100.486 56.2671 100.752C56.2205 101.019 55.9701 101.197 55.6995 101.151C54.0154 100.856 52.7665 102.717 52.7538 102.735C52.6598 102.879 52.5029 102.957 52.3434 102.957Z" fill="#3C3C48"/>
<path d="M59.5486 95.3408C58.8589 97.2147 57.9768 100.606 59.0449 101.962C57.8668 102.919 56.4744 103.658 54.2751 103.586C52.0758 103.513 52.5239 102.633 53.2427 101.855C55.3827 101.492 55.6029 99.6909 55.5011 98.1906L59.5486 95.3408Z" fill="#FDE2D0"/>
<path d="M49.9038 102.49C49.9038 103.4 50.5477 104.138 51.3418 104.138C52.136 104.138 52.7798 103.4 52.7798 102.49C52.7798 101.579 52.136 100.842 51.3418 100.842C50.5474 100.842 49.9038 101.579 49.9038 102.49Z" fill="#3C3C48"/>
<path opacity="0.4" d="M49.9038 102.49C49.9038 103.4 50.5477 104.138 51.3418 104.138C52.136 104.138 52.7798 103.4 52.7798 102.49C52.7798 101.579 52.136 100.842 51.3418 100.842C50.5474 100.842 49.9038 101.579 49.9038 102.49Z" fill="#F5F5F5"/>
<path d="M50.0767 102.49C50.0767 103.528 50.918 104.369 51.9559 104.369C52.9938 104.369 53.8353 103.528 53.8353 102.49C53.8353 101.452 52.994 100.61 51.9559 100.61C50.918 100.61 50.0767 101.452 50.0767 102.49Z" fill="#3C3C48"/>
<path opacity="0.2" d="M57.8987 96.5029L55.5036 98.1882C55.5287 98.5432 55.5343 98.902 55.4985 99.2481C56.3027 99.1855 57.5338 98.3723 57.7638 97.531C57.8783 97.1116 57.9313 96.7043 57.8987 96.5029Z" fill="#3C3C48"/>
<path d="M60.3143 92.7352C59.6993 95.2201 59.4663 96.6995 57.9539 97.8169C55.6788 99.4979 52.7699 97.9385 52.626 95.3579C52.4965 93.0351 53.524 89.3615 56.1807 88.6912C58.7983 88.0306 60.9295 90.2503 60.3143 92.7352Z" fill="#FDE2D0"/>
<path d="M59.1754 90.8381C58.2552 89.8302 53.8842 91.4571 53.3802 89.2237C52.8762 86.9899 55.3823 86.4724 56.363 87.5212C56.9203 88.1171 58.3161 86.9409 58.9372 87.8482C59.9722 89.3599 61.4815 88.5427 61.9153 89.9637C62.2762 91.1466 60.3906 92.1694 59.1754 90.8381Z" fill="#3C3C48"/>
<path d="M61.0569 91.1078C61.0569 91.1078 61.9467 90.5084 62.7503 91.8341C62.0739 91.3349 61.0569 91.1078 61.0569 91.1078Z" fill="#3C3C48"/>
<path d="M61.1568 90.7629L60.0672 90.3135C58.5418 90.8718 58.5826 91.9614 58.5826 92.9828C58.5826 94.2584 57.7654 94.9927 57.7654 94.9927L59.1819 95.4479C59.1819 95.4479 64.2074 93.3233 61.1568 90.7629Z" fill="#3C3C48"/>
<path d="M60.7233 95.8C60.2201 96.1773 59.5921 96.301 59.085 96.2374C58.3221 96.1421 58.267 95.4086 58.7524 94.8609C59.1894 94.3678 60.1128 93.8233 60.7469 94.1953C61.3719 94.562 61.2988 95.3689 60.7233 95.8Z" fill="#FDE2D0"/>
<path d="M56.0877 92.8189C56.0504 93.0229 55.911 93.1739 55.7764 93.1562C55.6418 93.1384 55.5631 92.9588 55.6007 92.7547C55.6381 92.5507 55.7774 92.3997 55.9121 92.4174C56.0464 92.4349 56.1251 92.6148 56.0877 92.8189Z" fill="#3C3C48"/>
<path d="M53.6209 92.5513C53.5836 92.7553 53.4442 92.9064 53.3096 92.8886C53.175 92.8709 53.0963 92.6912 53.1339 92.4872C53.1713 92.2831 53.3106 92.1321 53.4453 92.1499C53.5799 92.1673 53.6586 92.3473 53.6209 92.5513Z" fill="#3C3C48"/>
<path d="M54.4865 92.7646C54.4865 92.7646 53.8026 93.8797 53.1833 94.3797C53.4857 94.7647 54.1327 94.6923 54.1327 94.6923L54.4865 92.7646Z" fill="#FDE2D0"/>
<path d="M55.0077 95.7251C55.8095 95.7238 56.2716 95.233 56.2928 95.21C56.3161 95.1848 56.315 95.1467 56.2904 95.1249C56.2658 95.1032 56.2271 95.1061 56.2038 95.1313C56.1985 95.1371 55.6592 95.7066 54.7586 95.5876C54.7252 95.5833 54.6934 95.6064 54.687 95.6395C54.6809 95.6726 54.7032 95.7031 54.7366 95.7073C54.8309 95.7195 54.9213 95.7251 55.0077 95.7251Z" fill="#3C3C48"/>
<path d="M57.1099 92.2269C57.1303 92.2269 57.1513 92.2218 57.1709 92.2112C57.2313 92.1784 57.2557 92.1047 57.2252 92.0464C56.9189 91.4645 56.3558 91.4234 56.332 91.4221C56.2644 91.4179 56.204 91.4685 56.1963 91.5353C56.1889 91.6018 56.2371 91.659 56.3044 91.6633C56.323 91.6646 56.7612 91.7011 57.0058 92.1656C57.0265 92.2046 57.067 92.2269 57.1099 92.2269Z" fill="#3C3C48"/>
<path d="M53.2103 91.6563C53.249 91.6634 53.2914 91.652 53.3226 91.6218C53.7188 91.2395 54.1504 91.3139 54.1687 91.3174C54.2344 91.3295 54.3006 91.2866 54.3165 91.2214C54.3324 91.156 54.2924 91.0929 54.227 91.0802C54.2031 91.076 53.6515 90.9742 53.1552 91.4536C53.1056 91.5012 53.103 91.5778 53.1493 91.6245C53.1663 91.6414 53.1878 91.652 53.2103 91.6563Z" fill="#3C3C48"/>
<path d="M10.9157 145.336L9.39819 142.88L14.6317 138.439L16.1492 140.896L10.9157 145.336Z" fill="#FDE2D0"/>
<path d="M10.2876 142.03L12.7201 143.895C12.8017 143.957 12.8163 144.078 12.7556 144.186L11.4013 146.581C11.2609 146.83 10.9448 146.925 10.7596 146.776C9.99035 146.161 9.46437 145.669 8.47867 144.913C7.87214 144.449 5.98155 143.121 5.14396 142.48C4.32493 141.852 5.0136 140.776 5.4304 140.95C7.299 141.732 8.91481 142.072 9.84302 141.927C10.0102 141.901 10.1681 141.939 10.2876 142.03Z" fill="#3C3C48"/>
<path opacity="0.2" d="M16.1481 140.899L14.63 138.441L11.9331 140.732L13.7349 142.948L16.1481 140.899Z" fill="#3C3C48"/>
<path d="M46.5959 122.074C46.5959 122.074 37.5857 123.66 29.0999 126.404C23.2212 128.305 12.9834 139.174 12.9834 139.174L15.5075 143.012C15.5075 143.012 28.1707 133.881 30.7054 131.473C45.1219 129.762 56.091 133.474 56.8017 123.804C54.3061 123.113 46.5959 122.074 46.5959 122.074Z" fill="#3C3C48"/>
<path d="M11.7815 139.285L15.696 143.763L17.2249 142.509L13.2161 137.739L11.7815 139.285Z" fill="#F5F5F5"/>
<path d="M63.5625 105.647C64.0124 107.603 64.3585 109.522 64.6073 111.513C64.7281 112.507 64.8272 113.51 64.8625 114.552C64.8808 115.073 64.8863 115.604 64.8572 116.167C64.8405 116.449 64.8153 116.739 64.7697 117.051C64.722 117.364 64.6608 117.697 64.5241 118.1C64.4502 118.306 64.3527 118.542 64.1934 118.797C64.0779 118.973 63.9552 119.138 63.8283 119.283C63.5747 119.576 63.31 119.811 63.0469 120.013C62.5167 120.411 61.9933 120.686 61.4788 120.922C60.4512 121.387 59.4398 121.662 58.4392 121.897C57.4355 122.117 56.44 122.275 55.444 122.383C54.4434 122.489 53.4654 122.558 52.4418 122.558L52.2349 120.638C54.0497 120.184 55.9056 119.688 57.6141 119.057C58.4689 118.749 59.2927 118.386 59.997 117.985C60.3439 117.783 60.6579 117.563 60.8797 117.351C60.9915 117.248 61.0789 117.148 61.133 117.067C61.1618 117.027 61.177 116.993 61.191 116.965C61.1563 117.012 61.151 117.023 61.155 117C61.164 116.942 61.1873 116.796 61.1971 116.63C61.2082 116.462 61.2111 116.268 61.2077 116.067C61.2037 115.662 61.1777 115.225 61.1364 114.781C61.0506 113.892 60.9247 112.972 60.7784 112.05C60.4835 110.21 60.1261 108.322 59.7593 106.496L63.5625 105.647Z" fill="#FDE2D0"/>
<path d="M60.4788 102.154C61.013 102.296 63.4131 102.658 65.1201 108.532L59.3455 110.785C59.3455 110.785 55.3473 100.782 60.4788 102.154Z" fill="#F5F5F5"/>
<path d="M58.4959 103.393C58.4959 104.431 57.6547 105.272 56.6167 105.272C55.5788 105.272 54.7375 104.431 54.7375 103.393C54.7375 102.355 55.5788 101.514 56.6167 101.514C57.6547 101.514 58.4959 102.355 58.4959 103.393Z" fill="#3C3C48"/>
<path d="M56.518 104.41C56.3137 104.41 56.1229 104.282 56.0537 104.077C55.9668 103.821 56.1036 103.543 56.3595 103.456C56.3892 103.445 58.4934 102.699 58.6248 100.995C58.6455 100.724 58.8789 100.522 59.1513 100.544C59.421 100.564 59.6232 100.8 59.6023 101.07C59.4208 103.427 56.7872 104.346 56.6751 104.384C56.6232 104.402 56.5702 104.41 56.518 104.41Z" fill="#3C3C48"/>
<path d="M58.6685 103.391C58.6685 104.301 58.0246 105.039 57.2305 105.039C56.4364 105.039 55.7925 104.301 55.7925 103.391C55.7925 102.481 56.4364 101.743 57.2305 101.743C58.0249 101.743 58.6685 102.481 58.6685 103.391Z" fill="#3C3C48"/>
<path opacity="0.4" d="M58.6685 103.391C58.6685 104.301 58.0246 105.039 57.2305 105.039C56.4364 105.039 55.7925 104.301 55.7925 103.391C55.7925 102.481 56.4364 101.743 57.2305 101.743C58.0249 101.743 58.6685 102.481 58.6685 103.391Z" fill="#F5F5F5"/>
<path d="M52.6075 120.551L50.365 120.872L51.4307 123.584C51.4307 123.584 53.8791 122.961 53.8672 121.742L53.3396 120.893C53.1849 120.644 52.8976 120.51 52.6075 120.551Z" fill="#FDE2D0"/>
<path d="M47.9866 122.231L49.3878 124.437L51.431 123.583L50.3652 120.871L47.9866 122.231Z" fill="#FDE2D0"/>
<path d="M26.458 122.913H54.5868C54.9416 122.913 55.232 123.203 55.232 123.558H25.8127C25.8127 123.203 26.1032 122.913 26.458 122.913Z" fill="#E0E0E0"/>
<path opacity="0.2" d="M26.458 122.913H54.5868C54.9416 122.913 55.232 123.203 55.232 123.558H25.8127C25.8127 123.203 26.1032 122.913 26.458 122.913Z" fill="white"/>
<path opacity="0.4" d="M46.3789 122.911H54.5867C54.9415 122.911 55.2319 123.201 55.2319 123.556H45.7334C45.7334 123.201 46.0238 122.911 46.3789 122.911Z" fill="#3C3C48"/>
<path d="M23.0663 108.528H42.7563C43.3856 108.528 44.0168 109.043 44.1593 109.672L46.8976 121.767C47.0401 122.396 46.6419 122.911 46.0125 122.911H26.3226C25.6932 122.911 25.0618 122.396 24.9195 121.767L22.1813 109.672C22.0387 109.043 22.437 108.528 23.0663 108.528Z" fill="#E0E0E0"/>
<path opacity="0.2" d="M23.0663 108.528H42.7563C43.3856 108.528 44.0168 109.043 44.1593 109.672L46.8976 121.767C47.0401 122.396 46.6419 122.911 46.0125 122.911H26.3226C25.6932 122.911 25.0618 122.396 24.9195 121.767L22.1813 109.672C22.0387 109.043 22.437 108.528 23.0663 108.528Z" fill="white"/>
<path opacity="0.4" d="M46.3447 122.366L43.3857 109.29C43.3261 109.026 43.6599 108.852 43.8377 109.056C43.9933 109.234 44.1085 109.446 44.161 109.673L46.8969 121.767C46.9541 122.014 46.9266 122.244 46.833 122.432C46.7249 122.65 46.3982 122.603 46.3447 122.366Z" fill="#3C3C48"/>
</svg>
