<svg width="162" height="164" viewBox="0 0 162 164" fill="none" xmlns="http://www.w3.org/2000/svg">
<path d="M51.3931 3.30202L53.1538 3.87804L51.3931 4.45366C50.6753 4.68832 50.1128 5.25576 49.8801 5.97977L49.3091 7.75567L48.738 5.97977C48.5053 5.25576 47.9428 4.68832 47.225 4.45366L45.4644 3.87804L47.225 3.30202C47.9428 3.06736 48.5053 2.49992 48.738 1.7759L49.3091 0L49.8801 1.7759C50.1128 2.49992 50.6753 3.06736 51.3931 3.30202Z" fill="white"/>
<path d="M159.358 118.432L161.119 119.008L159.358 119.584C158.641 119.819 158.078 120.386 157.845 121.11L157.275 122.886L156.704 121.11C156.471 120.386 155.908 119.819 155.191 119.584L153.43 119.008L155.191 118.432C155.908 118.197 156.471 117.63 156.704 116.906L157.275 115.13L157.845 116.906C158.078 117.629 158.641 118.197 159.358 118.432Z" fill="white"/>
<path d="M6.6337 103.179L8.39434 103.755L6.6337 104.331C5.9159 104.565 5.35334 105.133 5.1207 105.857L4.54963 107.633L3.97896 105.857C3.74632 105.133 3.18375 104.565 2.46596 104.331L0.705322 103.755L2.46596 103.179C3.18375 102.944 3.74632 102.377 3.97896 101.653L4.54963 99.8767L5.1207 101.653C5.35334 102.377 5.9159 102.944 6.6337 103.179Z" fill="white"/>
<path d="M85.7166 49.16L86.7387 49.4944L85.7166 49.8289C85.2999 49.965 84.9732 50.2945 84.8379 50.7148L84.5063 51.7458L84.1748 50.7148C84.0398 50.2945 83.7128 49.965 83.2961 49.8289L82.2739 49.4944L83.2961 49.16C83.7128 49.0239 84.0394 48.6944 84.1748 48.2737L84.5063 47.2427L84.8379 48.2737C84.9732 48.6944 85.2999 49.0239 85.7166 49.16Z" fill="white"/>
<path d="M23.2976 26.9701L24.3198 27.3045L23.2976 27.6389C22.881 27.775 22.5543 28.1046 22.4189 28.5248L22.0874 29.5559L21.7559 28.5248C21.6209 28.1046 21.2942 27.775 20.8772 27.6389L19.855 27.3045L20.8772 26.9701C21.2938 26.8339 21.6205 26.5044 21.7559 26.0838L22.0874 25.0527L22.4189 26.0838C22.5543 26.504 22.881 26.8335 23.2976 26.9701Z" fill="white"/>
<path d="M10.44 94.2025L11.4621 94.5369L10.44 94.8713C10.0233 95.0075 9.69664 95.337 9.56126 95.7576L9.22973 96.7887L8.89819 95.7576C8.76322 95.3374 8.43655 95.0079 8.01949 94.8713L6.99731 94.5369L8.01949 94.2025C8.43614 94.0664 8.76282 93.7369 8.89819 93.3162L9.22973 92.2852L9.56126 93.3162C9.69664 93.7365 10.0233 94.066 10.44 94.2025Z" fill="white"/>
<path d="M142.649 120.177C142.649 120.177 139.07 120.572 137.672 121.361C136.274 122.151 135.603 124.802 138.064 124.802C140.524 124.802 144.439 124.802 146.117 124.802C147.795 124.802 147.124 121.023 146.229 120.008L142.649 120.177Z" fill="#3C3C48"/>
<path d="M141.009 114.469C141.009 114.469 141.92 119.399 142.173 120.208C142.561 121.447 146.004 121.382 146.311 120.012C146.763 117.991 146.763 113.882 146.763 113.882L141.009 114.469Z" fill="#FDE2D0"/>
<path d="M140.379 121.463C140.3 121.321 140.199 121.186 140.08 121.075C139.956 120.959 139.819 120.857 139.677 120.765C139.528 120.668 139.354 120.549 139.17 120.561C139.05 120.569 138.923 120.688 138.973 120.822C138.995 120.878 139.016 120.93 139.055 120.977C139.079 121.004 139.106 121.031 139.132 121.056C139.156 121.08 139.184 121.1 139.211 121.122C139.216 121.125 139.226 121.132 139.232 121.136C139.229 121.134 139.226 121.132 139.218 121.127C139.248 121.147 139.276 121.173 139.305 121.196C139.416 121.289 139.523 121.388 139.618 121.498C139.638 121.521 139.656 121.546 139.677 121.57C139.607 121.491 139.694 121.593 139.707 121.609C139.741 121.665 139.782 121.716 139.813 121.773C139.83 121.803 139.844 121.833 139.859 121.864C139.863 121.873 139.864 121.876 139.866 121.877C139.876 121.904 139.887 121.931 139.9 121.957C139.914 121.983 139.928 122.01 139.942 122.035C139.977 122.099 140.031 122.138 140.09 122.176C140.213 122.254 140.369 122.197 140.444 122.082C140.571 121.889 140.479 121.647 140.379 121.463Z" fill="white"/>
<path d="M141.796 121.329C141.769 121.239 141.735 121.149 141.688 121.067C141.606 120.923 141.504 120.788 141.39 120.668C141.163 120.428 140.856 120.213 140.521 120.181C140.434 120.172 140.348 120.244 140.317 120.319C140.286 120.394 140.295 120.509 140.363 120.565C140.426 120.615 140.49 120.661 140.556 120.706C140.571 120.716 140.586 120.727 140.601 120.737C140.603 120.739 140.606 120.74 140.608 120.742C140.631 120.754 140.654 120.78 140.674 120.797C140.777 120.885 140.871 120.977 140.956 121.082C140.965 121.095 140.975 121.108 140.984 121.122C141.003 121.149 141.021 121.177 141.038 121.206C141.072 121.263 141.104 121.323 141.132 121.384C141.16 121.445 141.189 121.505 141.217 121.565C141.221 121.574 141.221 121.574 141.22 121.572C141.225 121.583 141.23 121.595 141.235 121.607C141.252 121.639 141.279 121.67 141.305 121.695C141.328 121.717 141.353 121.737 141.376 121.759C141.512 121.887 141.722 121.828 141.778 121.652C141.814 121.544 141.831 121.443 141.796 121.329Z" fill="white"/>
<path d="M145.697 122.299C145.659 122.166 145.593 122.05 145.495 121.951C145.443 121.91 145.39 121.869 145.337 121.828C145.215 121.756 145.083 121.72 144.942 121.72C144.834 121.716 144.733 121.738 144.64 121.788C144.543 121.819 144.459 121.874 144.388 121.951C144.312 122.022 144.258 122.107 144.227 122.205C144.178 122.299 144.155 122.4 144.159 122.509C144.169 122.579 144.178 122.649 144.187 122.718C144.225 122.852 144.292 122.968 144.388 123.067C144.441 123.108 144.494 123.149 144.547 123.19C144.669 123.262 144.801 123.297 144.942 123.298C145.049 123.302 145.15 123.279 145.243 123.23C145.34 123.198 145.424 123.144 145.495 123.067C145.571 122.995 145.625 122.911 145.657 122.813C145.706 122.719 145.728 122.617 145.724 122.509C145.715 122.439 145.706 122.369 145.697 122.299Z" fill="white"/>
<path d="M141.182 115.391C141.981 115.75 144.039 116.43 146.702 116.291C146.763 114.964 146.763 113.882 146.763 113.882L141.009 114.469C141.009 114.469 141.078 114.839 141.182 115.391Z" fill="#FDE2D0"/>
<path d="M128.555 120.177C128.555 120.177 124.975 120.572 123.578 121.361C122.18 122.151 121.508 124.802 123.969 124.802C126.43 124.802 130.344 124.802 132.022 124.802C133.7 124.802 133.029 121.023 132.134 120.008L128.555 120.177Z" fill="#3C3C48"/>
<path d="M126.914 114.469C126.914 114.469 127.825 119.399 128.078 120.208C128.466 121.447 131.909 121.382 132.216 120.012C132.668 117.991 132.668 113.882 132.668 113.882L126.914 114.469Z" fill="#FDE2D0"/>
<path d="M126.284 121.463C126.206 121.321 126.104 121.186 125.986 121.075C125.862 120.959 125.724 120.857 125.582 120.765C125.433 120.668 125.26 120.549 125.075 120.561C124.955 120.569 124.829 120.688 124.878 120.822C124.899 120.878 124.921 120.93 124.96 120.977C124.984 121.004 125.011 121.031 125.037 121.056C125.061 121.08 125.089 121.1 125.116 121.122C125.121 121.125 125.13 121.132 125.137 121.136C125.134 121.134 125.131 121.132 125.123 121.127C125.153 121.147 125.181 121.173 125.209 121.196C125.321 121.289 125.428 121.388 125.523 121.498C125.543 121.521 125.561 121.546 125.582 121.57C125.511 121.491 125.599 121.593 125.612 121.609C125.646 121.665 125.686 121.716 125.718 121.773C125.735 121.803 125.749 121.833 125.764 121.864C125.768 121.873 125.769 121.876 125.77 121.877C125.781 121.904 125.792 121.931 125.805 121.957C125.819 121.983 125.832 122.01 125.847 122.035C125.881 122.099 125.935 122.138 125.994 122.176C126.118 122.254 126.273 122.197 126.349 122.082C126.476 121.889 126.385 121.647 126.284 121.463Z" fill="white"/>
<path d="M127.702 121.329C127.674 121.239 127.64 121.149 127.594 121.067C127.511 120.923 127.409 120.788 127.296 120.668C127.069 120.428 126.762 120.213 126.427 120.181C126.34 120.172 126.254 120.244 126.223 120.319C126.191 120.394 126.2 120.509 126.269 120.565C126.332 120.615 126.395 120.661 126.462 120.706C126.477 120.716 126.492 120.727 126.507 120.737C126.509 120.739 126.512 120.74 126.514 120.742C126.537 120.754 126.56 120.78 126.579 120.797C126.683 120.885 126.776 120.977 126.862 121.082C126.871 121.095 126.88 121.108 126.89 121.122C126.909 121.149 126.927 121.177 126.944 121.206C126.978 121.263 127.01 121.323 127.038 121.384C127.065 121.445 127.094 121.505 127.123 121.565C127.127 121.574 127.127 121.574 127.126 121.572C127.131 121.583 127.136 121.595 127.141 121.607C127.158 121.639 127.184 121.67 127.211 121.695C127.234 121.717 127.259 121.737 127.282 121.759C127.417 121.887 127.627 121.828 127.684 121.652C127.719 121.544 127.736 121.443 127.702 121.329Z" fill="white"/>
<path d="M131.602 122.299C131.565 122.166 131.498 122.05 131.4 121.951C131.348 121.91 131.295 121.869 131.242 121.828C131.12 121.756 130.988 121.72 130.847 121.72C130.739 121.716 130.639 121.738 130.546 121.788C130.449 121.819 130.365 121.874 130.294 121.951C130.218 122.022 130.164 122.107 130.132 122.205C130.083 122.299 130.061 122.4 130.065 122.509C130.074 122.579 130.084 122.649 130.093 122.718C130.13 122.852 130.197 122.968 130.294 123.067C130.347 123.108 130.399 123.149 130.452 123.19C130.574 123.262 130.706 123.297 130.847 123.298C130.955 123.302 131.055 123.279 131.149 123.23C131.246 123.198 131.329 123.144 131.4 123.067C131.477 122.995 131.53 122.911 131.562 122.813C131.611 122.719 131.633 122.617 131.629 122.509C131.62 122.439 131.611 122.369 131.602 122.299Z" fill="white"/>
<path d="M127.087 115.391C127.886 115.75 129.944 116.43 132.607 116.291C132.668 114.964 132.668 113.882 132.668 113.882L126.914 114.469C126.914 114.469 126.983 114.839 127.087 115.391Z" fill="#FDE2D0"/>
<path d="M144.436 75.2085C144.889 76.7084 146.311 80.6212 146.44 85.1865C146.569 89.7517 147.087 111.729 147.281 115.12H140.363C140.363 115.12 135.772 98.2948 135.514 85.5777C135.514 85.5777 133.849 95.7442 133.251 100.186C132.539 105.468 133.509 115.186 133.509 115.186H126.139C126.139 115.186 123.747 99.0123 124.846 90.5342C125.945 82.0562 127.82 74.6218 127.82 74.6218L144.436 75.2085Z" fill="#3C3C48"/>
<path d="M144.952 76.8592C144.741 76.1659 144.555 75.6029 144.436 75.2096L136.107 74.9153L134.479 75.405L134.512 77.0681C134.512 77.0681 139.425 78.4834 144.952 76.8592Z" fill="#2E344B"/>
<path d="M123.585 60.1528C123.585 60.1528 125.67 61.1797 127.877 61.0088C130.083 60.8375 127.731 59.2971 127.731 59.2971L123.585 60.1528Z" fill="#2E344B"/>
<path d="M128.563 60.3401C128.733 60.2927 127.949 63.3073 127.27 64.7746C126.847 65.6883 123.585 70.0242 123.585 70.0242L120.708 68.2634C120.708 68.2634 123.585 63.356 123.827 62.7689C124.07 62.1818 124.652 57.9269 124.652 57.9269L127.658 57.4866L128.563 60.3401Z" fill="#FDE2D0"/>
<path d="M124.652 57.9278C124.652 57.9278 124.491 59.1036 124.303 60.3042C124.864 60.4244 127.058 60.9252 128.329 61.6439C128.53 60.8823 128.638 60.3202 128.564 60.341L127.782 57.8775L126.995 57.5852L124.652 57.9278Z" fill="#FDE2D0"/>
<path d="M139.805 49.3413C142.108 49.6622 143.951 50.3956 145.018 51.5207C146.085 52.6458 146.376 63.1127 145.891 64.5309L145.342 64.221L144.097 65.4111C144.097 65.4111 144.048 71.7694 145.067 75.34C145.067 75.34 137.017 79.0574 127.416 74.6553C127.416 74.6553 129.307 71.3782 128.774 65.8514C128.689 64.9737 127.756 62.672 127.804 60.4714C127.804 60.4714 124.992 59.9334 123.585 60.1533C123.585 60.1533 124.846 53.5746 126.01 52.0587C127.173 50.5424 129.743 49.7599 130.713 49.5155C131.683 49.271 133.477 49.8576 133.477 49.8576L137.405 49.6618L139.805 49.3413Z" fill="#ADADAD"/>
<path d="M144.866 74.5386C144.84 74.4225 144.815 74.3052 144.791 74.1858C144.002 74.4483 143.208 74.6903 142.396 74.8853C141.193 75.1739 139.976 75.3767 138.746 75.4956C136.283 75.734 133.789 75.6506 131.334 75.3599C130.139 75.2185 128.954 75.0194 127.77 74.8088C128.085 74.9474 128.399 75.0774 128.71 75.1992C130.622 75.6175 132.589 75.8313 134.533 75.9094C137.044 76.0103 139.577 75.8186 142.041 75.3129C142.992 75.1171 143.943 74.8636 144.866 74.5386Z" fill="#2E344B"/>
<path d="M116.635 68.4932L133.979 82.9531C134.912 83.7307 136.285 83.635 137.103 82.7356L137.396 82.4122C138.222 81.5042 138.189 80.0999 137.321 79.2328L121.355 63.2759L116.635 68.4932Z" fill="#182452"/>
<path d="M137.592 35.6218C137.592 35.6218 138.043 32.5724 141.617 32.3979C145.191 32.2233 146.616 34.946 146.911 37.6463C147.205 40.3465 147.566 41.763 148.425 42.3137C148.425 42.3137 144.96 45.2879 142.152 41.7888C139.345 38.2897 137.592 35.6218 137.592 35.6218Z" fill="#3C3C48"/>
<path d="M140.107 32.6873C137.909 33.4861 137.592 35.6213 137.592 35.6213C137.592 35.6213 139.275 38.1814 141.981 41.5725C142.47 41.4924 142.849 41.048 143.042 40.075C143.865 35.9161 141.193 33.4849 140.107 32.6873Z" fill="#2E344B"/>
<path d="M131.862 47.4334C129.619 45.868 128.561 46.1546 128.111 40.2542C127.661 34.3537 136.829 29.3902 141.258 35.0515C144.044 38.6115 144.288 44.9977 139.805 46.5561C134.783 48.3013 131.862 47.4334 131.862 47.4334Z" fill="#3C3C48"/>
<path d="M108.876 71.3946C117.366 71.3946 124.248 64.4529 124.248 55.8898C124.248 47.3267 117.366 40.385 108.876 40.385C100.387 40.385 93.5046 47.3267 93.5046 55.8898C93.5046 64.4529 100.387 71.3946 108.876 71.3946Z" fill="#182452"/>
<path d="M108.876 67.573C115.274 67.573 120.461 62.3415 120.461 55.8882C120.461 49.4348 115.274 44.2034 108.876 44.2034C102.478 44.2034 97.2917 49.4348 97.2917 55.8882C97.2917 62.3415 102.478 67.573 108.876 67.573Z" fill="#F0F0F0"/>
<path d="M132.507 47.0038C132.507 47.0038 132.475 47.8517 132.313 48.5365C132.152 49.2212 130.713 49.5148 130.713 49.5148C130.713 49.5148 131.699 51.9603 133.962 52.417L134.738 55.7104L135.837 52.5474C135.837 52.5474 138.48 52.1451 139.805 49.3406C139.805 49.3406 139.296 49.2867 138.617 48.9931C137.938 48.6996 137.971 46.7107 137.971 46.7107L132.507 47.0038Z" fill="#FDE2D0"/>
<path d="M118.64 72.3393C118.216 70.8079 118.64 69.7961 118.995 69.3067C119.35 68.8178 119.641 69.4371 119.674 69.6329C119.706 69.8288 119.609 71.1329 119.609 71.1329C119.609 71.1329 119.868 70.3177 120.385 69.4048C120.902 68.4919 121.484 68.1984 121.839 68.8832C121.839 68.8832 122.357 68.5896 122.68 69.3721C122.68 69.3721 123.359 69.5025 123.23 70.4154C123.23 70.4154 123.682 70.8066 123.521 71.4587C123.359 72.1108 122.648 72.861 122.357 73.8716C122.066 74.883 119.215 74.4177 118.64 72.3393Z" fill="#FDE2D0"/>
<path d="M145.891 64.5302C144.897 64.7992 140.581 63.7232 140.024 63.4052C140.024 63.4052 140.327 63.0994 140.751 63.0139L143.37 63.6864L144.437 63.9432L145.342 64.2203L145.891 64.5302Z" fill="#2E344B"/>
<path d="M140.751 63.0139C140.751 63.0139 140.298 64.6934 139.587 65.7039C138.876 66.715 132.249 73.5459 131.893 73.8394C131.538 74.1329 129.21 74.0352 128.531 74.4592C127.853 74.8831 128.402 75.3398 128.919 75.3071C129.436 75.2744 130.309 75.4048 130.309 75.4048C130.309 75.4048 129.76 76.3831 129.436 76.7089C129.113 77.0351 128.144 77.5241 127.788 77.6218C127.432 77.7195 127.497 78.5347 127.917 78.5024C127.917 78.5024 127.497 79.2526 128.37 79.5457C128.37 79.5457 128.176 80.0346 129.016 80.1C129.016 80.1 129.049 80.3282 129.954 80.2632C130.859 80.1978 131.99 79.024 132.475 78.5351C132.96 78.0461 133.8 76.5135 134.026 76.3504C134.253 76.1873 141.688 70.0247 142.82 68.7202C143.951 67.4157 145.341 64.2204 145.341 64.2204C145.341 64.2204 142.981 62.5573 140.751 63.0139Z" fill="#FDE2D0"/>
<path d="M139.001 49.1407C138.881 49.0994 138.754 49.0524 138.617 48.9931C137.938 48.6996 137.97 46.7107 137.97 46.7107L135.035 46.8685L133.241 47.1571L132.444 47.7589C132.432 47.8607 132.417 47.9678 132.4 48.0761C133.005 48.6301 135.29 50.3708 139.001 49.1407Z" fill="#FDE2D0"/>
<path d="M140.231 40.8746C140.231 40.8746 141.603 40.0549 142.466 41.4363C143.329 42.8177 141.922 43.9934 140.767 43.993C140.767 43.993 139.676 48.8678 135.5 49.0493C131.344 49.23 129.555 44.9366 129.219 41.7593C129.219 41.7593 131.089 40.8672 131.297 39.8448C131.504 38.8223 134.061 38.7111 135.337 36.8318C135.337 36.8318 136.322 38.7144 137.532 38.8137C138.741 38.9127 139.951 40.1776 140.231 40.8746Z" fill="#FDE2D0"/>
<path d="M137.531 38.8137C136.321 38.7144 135.337 36.8318 135.337 36.8318C134.061 38.7111 131.504 38.8223 131.296 39.8448C131.089 40.8672 129.219 41.7593 129.219 41.7593C129.23 41.866 129.243 41.9739 129.257 42.0826C129.984 41.9134 131.295 40.9825 131.598 40.2834C131.938 39.501 134.011 39.1461 135.223 37.7279C135.223 37.7279 136.12 39.122 137.43 39.2687C138.451 39.3832 139.506 40.2229 140.062 40.5561C139.613 39.8485 138.573 38.8996 137.531 38.8137Z" fill="#FDE2D0"/>
<path d="M141.917 41.6658C141.962 41.5562 141.859 41.4401 141.784 41.3755C141.694 41.299 141.598 41.2377 141.485 41.2026C141.279 41.1388 141.031 41.1797 140.885 41.3493C140.751 41.5055 140.725 41.7218 140.734 41.9217C140.745 42.1739 140.777 42.4274 140.817 42.6764C140.839 42.8145 141.047 42.8652 141.134 42.7606C141.218 42.66 141.414 42.5271 141.527 42.6706C141.575 42.7315 141.545 42.8252 141.514 42.8857C141.487 42.9376 141.448 42.9817 141.42 43.0333C141.389 43.0901 141.37 43.151 141.356 43.2135C141.337 43.2982 141.412 43.3877 141.501 43.3595C141.696 43.2982 141.816 43.1534 141.881 42.9605C141.944 42.7753 141.913 42.5729 141.787 42.4229C141.622 42.2254 141.371 42.2021 141.154 42.2863C141.144 42.1895 141.128 42.093 141.124 41.9949C141.119 41.8734 141.104 41.7091 141.185 41.613C141.375 41.3898 141.787 41.9887 141.917 41.6658Z" fill="#FDE2D0"/>
<path d="M140.751 63.0139C140.751 63.0139 140.725 63.1104 140.676 63.2678C141.045 63.386 143.291 63.7633 144.989 64.9906C145.207 64.5282 145.341 64.2204 145.341 64.2204C145.341 64.2204 142.981 62.5573 140.751 63.0139Z" fill="#FDE2D0"/>
<path d="M130.908 76.7326C130.781 76.7922 130.691 76.9366 130.601 77.042C130.5 77.1614 130.398 77.2824 130.288 77.3944C130.084 77.6021 129.855 77.7853 129.606 77.9357C129.115 78.2333 128.576 78.4463 128.008 78.5301C127.947 78.5391 127.961 78.643 128.022 78.6389C128.616 78.5984 129.201 78.4287 129.703 78.1029C129.947 77.9447 130.177 77.7628 130.382 77.5559C130.504 77.4333 130.618 77.3037 130.731 77.1737C130.829 77.0617 130.958 76.9537 131.012 76.8135C131.037 76.7489 130.958 76.7093 130.908 76.7326Z" fill="#FDE2D0"/>
<path d="M131.565 77.8121C131.336 78.0075 131.127 78.2205 130.887 78.4029C130.648 78.5832 130.393 78.7418 130.129 78.882C129.601 79.1637 129.025 79.355 128.441 79.4822C128.363 79.4993 128.398 79.6134 128.474 79.6011C129.082 79.5038 129.66 79.2994 130.209 79.0202C130.483 78.8808 130.746 78.7201 130.998 78.5443C131.246 78.3722 131.508 78.1846 131.711 77.9597C131.801 77.8596 131.666 77.7259 131.565 77.8121Z" fill="#FDE2D0"/>
<path d="M131.572 78.7462C131.375 78.8104 131.217 78.9817 131.048 79.0999C130.866 79.2278 130.678 79.346 130.482 79.451C130.286 79.5561 130.085 79.6501 129.878 79.7315C129.666 79.8153 129.441 79.8734 129.231 79.9613C129.171 79.9866 129.168 80.1023 129.249 80.0917C129.47 80.0626 129.695 79.9784 129.903 79.8963C130.115 79.8116 130.324 79.7155 130.526 79.6076C130.727 79.4997 130.924 79.3811 131.112 79.2515C131.287 79.1318 131.519 78.9989 131.616 78.8043C131.631 78.7757 131.607 78.7352 131.572 78.7462Z" fill="#FDE2D0"/>
<path d="M121.726 68.9388C121.625 68.9359 121.556 69.0385 121.496 69.1101C121.42 69.2016 121.351 69.3014 121.284 69.3995C121.139 69.6105 121.012 69.8329 120.899 70.063C120.791 70.2822 120.693 70.5074 120.609 70.7372C120.567 70.8545 120.528 70.9731 120.492 71.0928C120.462 71.1971 120.398 71.3418 120.44 71.4473C120.464 71.5078 120.531 71.5311 120.582 71.4849C120.659 71.4154 120.668 71.2895 120.694 71.1922C120.727 71.0716 120.763 70.9522 120.803 70.8341C120.882 70.5998 120.976 70.3713 121.089 70.1513C121.196 69.942 121.316 69.7392 121.446 69.543C121.514 69.4388 121.59 69.3402 121.661 69.2384C121.716 69.1608 121.796 69.0774 121.776 68.9772C121.771 68.9543 121.747 68.9392 121.726 68.9388Z" fill="#FDE2D0"/>
<path d="M122.609 69.4924C122.508 69.492 122.44 69.5742 122.373 69.6417C122.292 69.7218 122.219 69.808 122.149 69.8984C122.013 70.0762 121.898 70.2692 121.802 70.472C121.699 70.6874 121.611 70.9131 121.547 71.1428C121.512 71.2671 121.481 71.3922 121.452 71.5177C121.424 71.6391 121.383 71.7687 121.383 71.8942C121.383 71.9519 121.466 71.9785 121.494 71.9245C121.545 71.8247 121.567 71.7103 121.598 71.6032C121.631 71.4932 121.664 71.3836 121.701 71.2749C121.778 71.0427 121.858 70.8105 121.963 70.5889C122.053 70.3996 122.158 70.2173 122.282 70.0488C122.344 69.9642 122.412 69.8837 122.485 69.8076C122.551 69.7385 122.654 69.6756 122.673 69.5762C122.681 69.5345 122.655 69.4928 122.609 69.4924Z" fill="#FDE2D0"/>
<path d="M123.15 70.4774C123.056 70.4679 122.994 70.5444 122.934 70.6074C122.867 70.6793 122.807 70.759 122.751 70.8408C122.631 71.0174 122.533 71.2095 122.45 71.4062C122.369 71.5971 122.299 71.7925 122.237 71.9904C122.178 72.1727 122.056 72.4229 122.141 72.6114C122.168 72.6723 122.256 72.6371 122.257 72.5795C122.261 72.4683 122.269 72.3755 122.303 72.2688C122.334 72.1731 122.365 72.0783 122.398 71.983C122.462 71.7946 122.529 71.6061 122.61 71.4238C122.686 71.2533 122.773 71.0877 122.877 70.9336C122.934 70.8494 122.997 70.7692 123.063 70.6916C123.114 70.6323 123.172 70.5836 123.172 70.4994C123.172 70.4868 123.162 70.4786 123.15 70.4774Z" fill="#FDE2D0"/>
<path d="M128.944 54.8976C128.655 55.2529 128.529 55.7316 128.388 56.1605C128.227 56.6478 128.101 57.1477 127.995 57.6502C127.896 58.1203 127.817 58.5941 127.763 59.072C127.715 59.5042 127.579 60.0826 127.758 60.496C127.773 60.5319 127.83 60.5278 127.847 60.496C127.942 60.3153 127.953 60.1104 127.97 59.9097C127.99 59.6612 128.013 59.413 128.043 59.1653C128.103 58.6685 128.182 58.1727 128.282 57.6825C128.379 57.2091 128.501 56.7426 128.63 56.2774C128.754 55.8322 128.96 55.3837 128.993 54.9197C128.996 54.8939 128.96 54.8776 128.944 54.8976Z" fill="#2E344B"/>
<path d="M139.447 52.0986C139.872 51.664 140.207 51.1517 140.441 50.5888C140.557 50.31 140.658 50.0185 140.7 49.718C140.709 49.6481 140.722 49.5749 140.734 49.5005C140.662 49.4862 140.589 49.4727 140.516 49.4592C140.502 49.5365 140.485 49.6134 140.459 49.689C140.366 49.9653 140.284 50.2421 140.161 50.5078C139.923 51.0225 139.599 51.5005 139.199 51.9007C138.799 52.3001 138.324 52.6276 137.812 52.8622C137.56 52.9779 137.298 53.0634 137.031 53.1369C136.892 53.1754 136.753 53.2105 136.611 53.2379C136.548 53.2502 136.49 53.2567 136.437 53.2739C136.381 53.2698 136.322 53.2956 136.298 53.3642C135.852 54.6524 135.322 55.8961 134.668 57.0894C134.428 56.4786 134.254 55.8486 134.084 55.2129C133.989 54.8552 133.902 54.4954 133.821 54.1345C133.745 53.8033 133.703 53.4113 133.553 53.1063C133.549 53.1002 133.544 53.0997 133.541 53.0948C133.545 53.0736 133.545 53.0503 133.536 53.0233C133.485 52.8688 133.198 52.8385 133.065 52.7931C132.333 52.5433 131.657 52.1321 131.101 51.5912C130.574 51.0794 130.14 50.4469 129.819 49.7756C129.777 49.7891 129.736 49.8026 129.692 49.8173C130.076 51.1452 131.088 52.2351 132.316 52.8471C132.479 52.9284 132.647 52.9996 132.818 53.0613C132.97 53.1157 133.149 53.1901 133.316 53.2011C133.315 53.3741 133.363 53.5494 133.395 53.7183C133.432 53.9137 133.472 54.1079 133.514 54.3021C133.593 54.6635 133.675 55.0253 133.77 55.383C133.963 56.1074 134.226 56.8171 134.526 57.5031C134.571 57.6049 134.725 57.5898 134.774 57.5031C135.49 56.2337 136.102 54.8863 136.536 53.491C136.725 53.5 136.961 53.4329 137.104 53.4031C137.398 53.3418 137.686 53.2383 137.961 53.1181C138.515 52.8753 139.022 52.5327 139.447 52.0986Z" fill="#2E344B"/>
<path d="M141.152 57.0075C141.147 56.9932 141.122 56.9846 141.115 57.0026C140.929 57.4282 140.962 57.9682 140.921 58.4261C140.871 58.9809 140.801 59.5324 140.72 60.0834C140.563 61.1492 140.294 62.1864 140.088 63.242C140.063 63.3728 140.239 63.4206 140.285 63.2967C140.66 62.2808 140.851 61.1828 141.011 60.1141C141.087 59.6027 141.141 59.0876 141.182 58.572C141.202 58.3125 141.218 58.0537 141.222 57.7933C141.227 57.5214 141.248 57.2655 141.152 57.0075Z" fill="#2E344B"/>
<path d="M138.014 66.3504C137.706 66.4567 137.435 66.6354 137.149 66.7907C136.828 66.9645 136.497 67.1207 136.157 67.2527C135.497 67.5082 134.807 67.6889 134.1 67.7421C132.78 67.841 131.374 67.4951 130.304 66.6939C130.291 66.6845 130.276 66.7053 130.287 66.7163C131.321 67.6599 132.681 68.0556 134.06 67.9796C134.785 67.9399 135.507 67.7789 136.185 67.5176C136.519 67.3888 136.845 67.2396 137.162 67.072C137.488 66.8995 137.821 66.7221 138.068 66.4432C138.101 66.4048 138.069 66.3316 138.014 66.3504Z" fill="#2E344B"/>
<path d="M138.443 65.4148C138.194 65.5874 137.949 65.7636 137.684 65.9115C137.535 65.9941 137.381 66.0628 137.231 66.1413C137.09 66.2149 136.921 66.2668 136.803 66.3747C136.796 66.3809 136.802 66.3899 136.809 66.3911C136.952 66.4103 137.1 66.3551 137.235 66.3155C137.375 66.2742 137.509 66.2169 137.642 66.1568C137.916 66.0326 138.189 65.8899 138.433 65.7129C138.52 65.6495 138.728 65.535 138.716 65.4063C138.702 65.2525 138.505 65.3719 138.443 65.4148Z" fill="#2E344B"/>
<path d="M135.674 85.2985C135.67 85.0712 135.67 84.8435 135.67 84.6162C135.67 84.4114 135.723 84.1375 135.624 83.9523C135.58 83.8689 135.465 83.8799 135.418 83.9523C135.357 84.0475 135.355 84.1645 135.35 84.2753C135.344 84.3975 135.339 84.5201 135.335 84.6424C135.328 84.8697 135.328 85.097 135.331 85.3247C135.338 85.7907 135.338 86.265 135.455 86.7183C135.489 86.852 135.667 86.8111 135.68 86.6877C135.726 86.2261 135.681 85.7613 135.674 85.2985Z" fill="#2E344B"/>
<path d="M133.336 92.5872C133.527 91.6461 133.732 90.7082 133.957 89.7749C134.189 88.8146 134.481 87.8535 134.643 86.8792C134.649 86.8457 134.599 86.8163 134.583 86.8535C134.254 87.6347 134.053 88.474 133.832 89.2921C133.604 90.1408 133.406 90.9997 133.222 91.859C132.854 93.5794 132.551 95.3152 132.318 97.0592C131.855 100.517 131.627 104.036 131.708 107.526C131.752 109.417 131.859 111.32 132.124 113.195C130.301 113.19 128.48 113.184 126.657 113.188C126.394 113.188 126.13 113.187 125.866 113.186C125.882 113.305 125.897 113.418 125.911 113.528C127.996 113.532 130.082 113.526 132.167 113.519C132.566 113.518 132.965 113.517 133.364 113.516C133.355 113.413 133.347 113.308 133.338 113.197C133.028 113.196 132.719 113.196 132.409 113.196C132.26 111.531 132.108 109.869 132.047 108.197C131.983 106.458 131.973 104.71 132.041 102.971C132.179 99.4872 132.645 96.0016 133.336 92.5872Z" fill="#3C3C48"/>
<path d="M147.199 113.179C146.768 113.18 146.336 113.181 145.905 113.183C145.922 113.161 145.934 113.134 145.933 113.098C145.84 110.79 145.723 108.485 145.706 106.174C145.698 105.037 145.706 103.9 145.746 102.763C145.787 101.617 145.897 100.473 145.929 99.3265C145.989 97.0698 145.57 94.845 145.471 92.5965C145.421 91.4739 145.473 90.3505 145.479 89.2271C145.485 88.1073 145.447 86.9867 145.36 85.8703C145.167 83.4002 144.791 80.8909 144.033 78.5287C144.008 78.4474 143.888 78.4805 143.907 78.5639C144.397 80.7584 144.851 82.948 145.059 85.1912C145.161 86.2893 145.219 87.3923 145.227 88.4949C145.234 89.615 145.175 90.7348 145.189 91.8549C145.216 94.1063 145.657 96.3295 145.673 98.5808C145.681 99.7091 145.581 100.835 145.518 101.961C145.454 103.096 145.413 104.234 145.41 105.371C145.404 107.947 145.511 110.526 145.661 113.097C145.663 113.133 145.678 113.161 145.698 113.183C144.296 113.187 142.894 113.191 141.492 113.194C140.95 113.195 140.409 113.196 139.867 113.198C139.895 113.31 139.922 113.418 139.948 113.521C141.965 113.525 143.982 113.529 145.998 113.532C146.403 113.533 146.809 113.535 147.213 113.536C147.208 113.421 147.204 113.302 147.199 113.179Z" fill="#3C3C48"/>
<path d="M132.847 43.0761C132.824 42.7854 132.705 42.5042 132.484 42.3897C132.42 42.3562 132.352 42.3407 132.28 42.3427C132.231 42.3337 132.184 42.3374 132.137 42.3533C132.066 42.3619 132.001 42.3873 131.942 42.4298C131.908 42.4596 131.874 42.4895 131.84 42.5193C131.778 42.5892 131.738 42.6689 131.719 42.7589C131.63 43.1755 131.689 44.0221 132.304 43.9498C132.444 43.933 132.587 43.8774 132.678 43.7666C132.81 43.6043 132.867 43.3365 132.847 43.0761Z" fill="#2E344B"/>
<path d="M136.804 43.1774C136.781 42.8868 136.662 42.6055 136.441 42.491C136.377 42.4575 136.308 42.442 136.237 42.444C136.188 42.435 136.141 42.4387 136.094 42.4546C136.023 42.4632 135.958 42.4886 135.899 42.5311C135.865 42.5609 135.831 42.5908 135.797 42.6206C135.735 42.6905 135.694 42.7703 135.675 42.8602C135.587 43.2768 135.646 44.1234 136.261 44.0511C136.401 44.0343 136.544 43.9791 136.634 43.8679C136.766 43.7056 136.824 43.4379 136.804 43.1774Z" fill="#2E344B"/>
<path d="M134.269 45.2965C134.212 45.2418 134.157 45.1919 134.092 45.1461C134.033 45.1048 133.97 45.0709 133.917 45.021C133.811 44.9221 133.747 44.788 133.853 44.6653C133.977 44.5222 134.073 44.3702 134.136 44.1903C134.191 44.0353 134.256 43.7999 134.175 43.6462C134.14 43.5795 134.043 43.5848 134.006 43.6462C133.956 43.732 133.953 43.8452 133.925 43.9409C133.898 44.0341 133.86 44.122 133.811 44.2054C133.763 44.2884 133.707 44.3628 133.642 44.4331C133.561 44.5198 133.493 44.6081 133.481 44.7299C133.461 44.9229 133.562 45.1118 133.705 45.234C133.775 45.2941 133.853 45.3493 133.938 45.3873C134.027 45.4274 134.112 45.4388 134.208 45.4441C134.283 45.4494 134.321 45.3472 134.269 45.2965Z" fill="#FDE2D0"/>
<path d="M131.928 44.3069C131.928 44.6057 131.56 44.8482 131.107 44.8482C130.653 44.8482 130.285 44.6057 130.285 44.3069C130.285 44.0081 130.653 43.7656 131.107 43.7656C131.561 43.7656 131.928 44.0081 131.928 44.3069Z" fill="#FDE2D0"/>
<path d="M138.366 44.4253C138.366 44.7242 137.999 44.9666 137.545 44.9666C137.091 44.9666 136.723 44.7242 136.723 44.4253C136.723 44.1265 137.091 43.884 137.545 43.884C137.999 43.884 138.366 44.1265 138.366 44.4253Z" fill="#FDE2D0"/>
<path d="M136.972 42.1145C136.943 42.0855 136.893 42.0683 136.854 42.083C136.844 42.0863 136.835 42.09 136.826 42.094C136.815 42.0973 136.806 42.1026 136.798 42.1108C136.792 42.1149 136.787 42.119 136.782 42.1235C136.78 42.1251 136.779 42.1272 136.777 42.1292C136.769 42.1374 136.761 42.1456 136.753 42.1541L136.706 42.204C136.693 42.2187 136.68 42.2347 136.672 42.2531C136.667 42.2633 136.662 42.2731 136.657 42.2833C136.655 42.2882 136.652 42.2935 136.65 42.2985C136.649 42.3013 136.648 42.3042 136.646 42.307C136.644 42.3115 136.642 42.316 136.641 42.3209C136.636 42.3287 136.634 42.3373 136.634 42.3467C136.631 42.37 136.635 42.3929 136.646 42.4137C136.653 42.4264 136.665 42.4403 136.678 42.4464C136.682 42.4489 136.687 42.4509 136.693 42.453C136.718 42.464 136.746 42.464 136.772 42.453C136.785 42.4473 136.798 42.4407 136.811 42.4342C136.821 42.4297 136.83 42.4248 136.839 42.4203C136.858 42.4109 136.873 42.3974 136.888 42.3827C136.903 42.3675 136.919 42.3524 136.934 42.3373C136.942 42.3291 136.95 42.3213 136.958 42.3132C136.96 42.3115 136.962 42.3095 136.963 42.3079C136.97 42.2993 136.977 42.2903 136.984 42.2817L136.986 42.2788C136.994 42.2653 136.998 42.2498 137.003 42.2351C137.017 42.193 137.001 42.1439 136.972 42.1145Z" fill="#FDE2D0"/>
<path d="M137.177 42.5969C137.175 42.5907 137.172 42.5846 137.169 42.5785C137.165 42.5695 137.158 42.5621 137.15 42.5568C137.145 42.5519 137.139 42.5486 137.133 42.547C137.124 42.5421 137.114 42.54 137.103 42.5404L137.066 42.5359C137.06 42.5351 137.054 42.5343 137.048 42.5335C137.035 42.5319 137.022 42.5343 137.009 42.5368C136.998 42.5388 136.985 42.5404 136.974 42.5437C136.958 42.5482 136.944 42.558 136.93 42.5662C136.891 42.5879 136.891 42.648 136.93 42.6696C136.943 42.6774 136.957 42.686 136.972 42.6913C136.984 42.6954 136.997 42.6966 137.009 42.6986C137.022 42.7011 137.034 42.7036 137.046 42.7019C137.052 42.7011 137.058 42.7003 137.065 42.6995L137.103 42.6946C137.11 42.6937 137.117 42.6925 137.124 42.6917C137.134 42.6892 137.142 42.6847 137.15 42.6778C137.162 42.668 137.174 42.6537 137.177 42.6377C137.179 42.6312 137.18 42.6234 137.18 42.6173C137.18 42.6103 137.179 42.6034 137.177 42.5969Z" fill="#FDE2D0"/>
<path d="M131.445 42.1372C131.442 42.1299 131.437 42.1229 131.431 42.1176C131.42 42.107 131.407 42.0996 131.393 42.0951L131.405 42.1004C131.393 42.0955 131.383 42.0886 131.373 42.0816C131.37 42.0792 131.368 42.0771 131.365 42.0743C131.357 42.0665 131.349 42.0583 131.34 42.053C131.336 42.0514 131.333 42.0493 131.329 42.0477C131.318 42.0407 131.309 42.0318 131.295 42.0285C131.285 42.0264 131.275 42.0264 131.266 42.0252C131.267 42.0256 131.269 42.0256 131.27 42.0256C131.255 42.0236 131.241 42.0281 131.229 42.0391C131.228 42.0403 131.227 42.0416 131.226 42.0428C131.221 42.0485 131.216 42.0542 131.212 42.0604C131.208 42.0665 131.205 42.0714 131.203 42.0804C131.202 42.0878 131.2 42.0968 131.201 42.1041C131.202 42.1188 131.204 42.1336 131.208 42.1479C131.209 42.1499 131.209 42.1515 131.21 42.1536C131.215 42.1695 131.222 42.1822 131.233 42.1953C131.236 42.1986 131.239 42.2018 131.243 42.2051C131.26 42.2223 131.28 42.2378 131.301 42.2492C131.305 42.2513 131.309 42.2529 131.313 42.2546C131.33 42.2623 131.348 42.2717 131.367 42.2709C131.392 42.2697 131.416 42.2611 131.433 42.2427C131.447 42.2272 131.459 42.2071 131.457 42.1851C131.456 42.1683 131.454 42.1532 131.445 42.1372Z" fill="#FDE2D0"/>
<path d="M131.264 42.568C131.251 42.5599 131.238 42.5513 131.223 42.548C131.207 42.5443 131.191 42.5435 131.174 42.5419C131.156 42.5398 131.137 42.539 131.118 42.5386C131.067 42.5382 131.013 42.5423 130.967 42.568C130.933 42.5877 130.913 42.6343 130.925 42.6727C130.938 42.7132 130.972 42.7385 131.014 42.741C131.022 42.7414 131.03 42.7397 131.038 42.7393C131.054 42.7381 131.071 42.7369 131.086 42.7336C131.099 42.7307 131.112 42.7291 131.124 42.7271C131.139 42.7254 131.154 42.7238 131.17 42.723C131.18 42.7226 131.189 42.723 131.199 42.7226C131.216 42.7222 131.229 42.7177 131.244 42.7123C131.274 42.7017 131.296 42.6796 131.3 42.6469C131.305 42.6146 131.29 42.5856 131.264 42.568Z" fill="#FDE2D0"/>
<path d="M132.277 40.7998C132.311 40.7569 132.335 40.7172 132.343 40.6608C132.349 40.6101 132.344 40.55 132.314 40.5063C132.295 40.4777 132.274 40.4458 132.251 40.4221C132.202 40.3726 132.146 40.3501 132.082 40.3264C131.996 40.2945 131.891 40.3113 131.805 40.3276C131.686 40.3501 131.571 40.3959 131.466 40.4544C131.366 40.5104 131.26 40.5827 131.185 40.6698C131.088 40.7822 130.982 40.9433 130.983 41.0966C130.986 41.3125 131.214 41.436 131.398 41.3366C131.48 41.292 131.54 41.2078 131.613 41.1498C131.592 41.1665 131.57 41.1833 131.549 41.1997C131.583 41.1739 131.615 41.1473 131.648 41.1212C131.706 41.0778 131.769 41.0435 131.834 41.0128C131.888 40.9924 131.942 40.9724 131.999 40.9601C132.056 40.9478 132.11 40.9286 132.162 40.9C132.204 40.8767 132.242 40.8464 132.271 40.808C132.271 40.808 132.273 40.8047 132.274 40.8039C132.27 40.808 132.269 40.8088 132.277 40.7998Z" fill="#3C3C48"/>
<path d="M132.273 40.8034C132.282 40.7937 132.31 40.7591 132.3 40.7691C132.292 40.776 132.277 40.7977 132.273 40.8034Z" fill="#5F2A3D"/>
<path d="M136.953 41.2002C136.933 41.2086 136.937 41.2072 136.953 41.2002V41.2002Z" fill="#3C3C48"/>
<path d="M135.798 40.739C135.797 40.7383 135.797 40.7376 135.796 40.7368C135.792 40.7339 135.788 40.7321 135.784 40.7288C135.786 40.7295 135.792 40.7343 135.798 40.739Z" fill="#3C3C48"/>
<path d="M137.03 40.7415C136.91 40.5424 136.696 40.4149 136.48 40.3474C136.374 40.3143 136.261 40.2943 136.15 40.2947C136.009 40.2955 135.864 40.3106 135.76 40.4165C135.66 40.5179 135.695 40.6593 135.797 40.7387C135.827 40.7616 135.851 40.7775 135.889 40.791C135.907 40.7975 135.926 40.8028 135.945 40.8069C135.987 40.8163 136.028 40.8249 136.069 40.8376C136.105 40.849 136.141 40.8629 136.177 40.876C136.197 40.883 136.215 40.8916 136.235 40.8981C136.145 40.8674 136.215 40.8903 136.24 40.903C136.314 40.9406 136.387 40.9868 136.455 41.0346C136.458 41.0367 136.46 41.0391 136.463 41.0416C136.459 41.0375 136.458 41.0367 136.452 41.0314C136.482 41.0604 136.518 41.0862 136.552 41.1095C136.585 41.1315 136.617 41.1561 136.652 41.1724C136.686 41.1884 136.72 41.2068 136.756 41.2182C136.779 41.226 136.811 41.2313 136.837 41.2313C136.881 41.2313 136.914 41.2153 136.954 41.2006C136.959 41.1982 136.962 41.1969 136.972 41.1933L136.955 41.2002C136.955 41.2002 136.955 41.2002 136.954 41.2006C136.959 41.199 136.963 41.1974 136.968 41.1957C136.97 41.1949 136.972 41.1933 136.974 41.1924C136.975 41.192 136.975 41.192 136.976 41.1916C136.989 41.1835 137.003 41.172 137.013 41.1618C137.13 41.0518 137.107 40.8678 137.03 40.7415Z" fill="#3C3C48"/>
<path d="M136.464 41.0417C136.485 41.0585 136.504 41.0796 136.464 41.0417V41.0417Z" fill="#3C3C48"/>
<path d="M135.799 40.7412C135.8 40.7419 135.8 40.743 135.801 40.7433C135.818 40.7554 135.809 40.7487 135.799 40.7412Z" fill="#3C3C48"/>
<path d="M134.647 46.015C134.49 45.9206 134.279 45.8863 134.1 45.901C133.882 45.9194 133.677 45.9909 133.513 46.1397C133.402 46.2407 133.544 46.4165 133.67 46.3445C133.807 46.2665 133.959 46.2178 134.116 46.217C134.158 46.2166 134.199 46.2199 134.241 46.2244C134.245 46.2248 134.279 46.228 134.261 46.226C134.245 46.224 134.273 46.228 134.273 46.228C134.297 46.2325 134.322 46.237 134.346 46.2432C134.444 46.2673 134.508 46.3029 134.586 46.3307C134.635 46.3482 134.694 46.3691 134.744 46.347C134.752 46.3437 134.772 46.3278 134.779 46.3225C134.793 46.3098 134.802 46.3012 134.81 46.2828C134.858 46.1696 134.732 46.0666 134.647 46.015Z" fill="#FDE2D0"/>
<path d="M134.779 46.321C134.777 46.3228 134.777 46.3247 134.774 46.3266C134.784 46.318 134.783 46.3184 134.779 46.321Z" fill="#FDE2D0"/>
<path d="M106.717 47.7054C106.635 47.0901 106.052 46.4368 105.377 46.512C104.843 46.5713 104.403 46.7156 103.929 46.9756C103.698 47.1028 103.472 47.2414 103.253 47.3881C102.708 47.7528 102.182 48.1653 101.717 48.6297C101.265 49.0802 100.842 49.5876 100.56 50.1636C100.401 50.4898 100.268 50.8287 100.174 51.1799C100.094 51.4767 100.074 51.7674 100.154 52.0687C100.279 52.5364 100.707 52.9987 101.232 52.9583C101.59 52.9305 101.889 52.8017 102.149 52.5515C102.296 52.4096 102.394 52.2351 102.504 52.0662C102.628 51.8761 102.765 51.6926 102.901 51.5111C103.038 51.3377 103.174 51.1652 103.308 50.9894C103.235 51.0838 103.163 51.1783 103.091 51.2727C103.452 50.8071 103.87 50.395 104.326 50.025C104.695 49.7495 105.087 49.4911 105.498 49.2838C105.577 49.2577 105.655 49.2286 105.739 49.2156C106.042 49.1689 106.416 48.8476 106.555 48.5831C106.7 48.3047 106.758 48.0185 106.717 47.7054Z" fill="#DEE5FF"/>
<path d="M111.198 47.0052C111.197 46.8977 111.17 46.7975 111.117 46.7047C111.089 46.6037 111.038 46.5162 110.965 46.4418C110.936 46.3871 110.899 46.3409 110.852 46.3041C110.772 46.2415 110.691 46.179 110.611 46.1164C110.595 46.1054 110.579 46.0943 110.563 46.0837C110.447 46.0077 110.315 45.9549 110.181 45.9185C110.096 45.8952 110.01 45.876 109.924 45.8609C109.747 45.8294 109.569 45.8057 109.39 45.7877C109.303 45.7791 109.215 45.7714 109.128 45.7812C108.955 45.8008 108.78 45.8233 108.61 45.8605C108.568 45.8699 108.526 45.8801 108.485 45.8912C108.419 45.9091 108.367 45.9333 108.3 45.9619C108.169 46.0175 108.031 46.0952 107.936 46.2051C107.757 46.4116 107.611 46.6785 107.624 46.9643C107.636 47.23 107.72 47.5505 107.936 47.7235C108.091 47.8473 108.227 47.9704 108.43 48.0166C108.463 48.024 108.497 48.0276 108.531 48.0325C108.618 48.0464 108.704 48.0616 108.79 48.0836C108.888 48.109 108.989 48.1213 109.088 48.1425C109.188 48.1638 109.287 48.1903 109.385 48.2222C109.432 48.2374 109.478 48.2537 109.523 48.2713C109.573 48.2909 109.628 48.2983 109.681 48.3077C109.676 48.3069 109.67 48.3065 109.665 48.3056C109.672 48.3069 109.68 48.3081 109.687 48.3093C109.733 48.3171 109.777 48.3269 109.823 48.3314C109.886 48.342 109.95 48.351 110.01 48.3526C110.072 48.358 110.134 48.3514 110.194 48.333C110.301 48.3326 110.4 48.3056 110.492 48.2517C110.592 48.2235 110.679 48.1724 110.753 48.0988C110.799 48.0714 110.84 48.0391 110.877 48.0015C110.883 47.9949 110.89 47.9888 110.896 47.9823C111.098 47.7693 111.215 47.481 111.218 47.1863C111.219 47.1237 111.208 47.0808 111.198 47.0052Z" fill="#DEE5FF"/>
<path d="M114.714 63.4829C114.674 63.3136 114.597 63.1664 114.483 63.0409C114.248 62.7335 113.872 62.5058 113.471 62.5287C113.431 62.5311 113.39 62.532 113.35 62.5336C113.06 62.545 112.821 62.617 112.571 62.7527C112.476 62.8038 112.392 62.8566 112.304 62.9187C112.224 62.9755 112.141 63.0291 112.057 63.0794C111.954 63.1411 111.858 63.2139 111.764 63.2887C111.428 63.5336 111.016 63.7081 110.821 64.0957C110.727 64.2817 110.686 64.4673 110.714 64.6762C110.742 64.8867 110.826 65.0347 110.962 65.1991C111.248 65.5441 111.664 65.587 112.073 65.6275C112.253 65.6455 112.436 65.6516 112.617 65.6414C112.921 65.6238 113.193 65.5429 113.471 65.4296C113.689 65.3405 113.845 65.2772 114.02 65.1435C114.235 64.9791 114.432 64.8381 114.545 64.5801C114.605 64.4464 114.661 64.3107 114.714 64.1746C114.775 63.9436 114.775 63.7134 114.714 63.4829Z" fill="#DEE5FF"/>
<path d="M134.624 164H130.26L121.241 126.925H125.605L134.624 164Z" fill="#EDEDED"/>
<path d="M161.294 164H156.931L147.911 126.925H152.275L161.294 164Z" fill="#EDEDED"/>
<path d="M133.412 164H129.048L120.029 126.925H124.393L133.412 164Z" fill="#EDEDED"/>
<path d="M110.137 164H114.501L123.52 126.925H119.156L110.137 164Z" fill="#EDEDED"/>
<path d="M160.179 164H155.815L146.796 126.925H151.16L160.179 164Z" fill="#EDEDED"/>
<path d="M129.921 153.827H155.718V150.012H129.921V153.827Z" fill="#EDEDED"/>
<path d="M108.456 164H112.82L121.839 126.925H117.475L108.456 164Z" fill="#EDEDED"/>
<path d="M136.839 164H141.203L150.222 126.925H145.859L136.839 164Z" fill="#EDEDED"/>
<path d="M135.223 164H139.587L148.606 126.925H144.242L135.223 164Z" fill="#EDEDED"/>
<path d="M138.714 150.01H112.917V153.825H138.714V150.01Z" fill="#EDEDED"/>
<path d="M151.872 127.903H116.44C115.583 127.903 114.889 127.203 114.889 126.339V126.272C114.889 125.408 115.583 124.708 116.44 124.708H151.872C152.728 124.708 153.423 125.408 153.423 126.272V126.339C153.423 127.203 152.728 127.903 151.872 127.903Z" fill="#EDEDED"/>
<path d="M20.0515 94.6011H48.9512C49.9138 94.6011 50.8245 94.9825 51.4284 95.6387L55.5082 100.072C55.9107 100.509 56.5182 100.764 57.1598 100.764H102.274C103.872 100.764 105.167 101.897 105.167 103.296V158.536C105.167 161.554 102.373 164 98.9252 164H21.4769C19.0629 164 17.1057 162.287 17.1057 160.174V97.1795C17.1061 95.7556 18.4246 94.6011 20.0515 94.6011Z" fill="#ADADAD"/>
<path d="M41.2393 61.6111L29.0806 73.8752V120.871H88.6825V61.6111H41.2393Z" fill="#F0F0F0"/>
<path d="M41.2393 73.8752V61.6111L29.0806 73.8752H41.2393Z" fill="#B9CFE6"/>
<path d="M9.91288 108.447H89.9915C91.879 108.447 93.4986 109.623 93.8472 111.246L104.295 159.932C104.748 162.045 102.896 163.999 100.439 163.999H20.3608C18.4733 163.999 16.8537 162.823 16.5051 161.2L6.05763 112.514C5.6041 110.401 7.45634 108.447 9.91288 108.447Z" fill="#FF9D59"/>
<path d="M12.1434 65.5962H11.6214C11.5403 65.3439 11.4398 65.1007 11.3214 64.8676L11.6911 64.4948C12.0408 64.142 12.0408 63.5705 11.6911 63.2177L10.8095 62.3281C10.4598 61.9757 9.89314 61.9757 9.54377 62.3281L9.17413 62.7009C8.94311 62.5819 8.70195 62.4801 8.45188 62.3984V61.8718C8.45188 61.3731 8.05104 60.9688 7.55657 60.9688H6.30945C5.81498 60.9688 5.41413 61.3731 5.41413 61.8718V62.3984C5.16406 62.4801 4.9229 62.5815 4.69188 62.7009L4.32224 62.3281C3.97287 61.9757 3.40585 61.9757 3.05648 62.3281L2.17454 63.2177C1.82517 63.5705 1.82517 64.142 2.17454 64.4948L2.54418 64.8676C2.42583 65.1007 2.32531 65.3435 2.24425 65.5962H1.72222C1.22775 65.5962 0.826904 66.0005 0.826904 66.4992V67.7572C0.826904 68.2559 1.22775 68.6602 1.72222 68.6602H2.24425C2.32531 68.9125 2.42583 69.1557 2.54418 69.3887L2.17454 69.7616C1.82517 70.1144 1.82517 70.6859 2.17454 71.0383L3.05648 71.9279C3.40585 72.2803 3.97287 72.2803 4.32224 71.9279L4.69188 71.5551C4.9229 71.674 5.16406 71.7758 5.41413 71.8576V72.3842C5.41413 72.8829 5.81498 73.2872 6.30945 73.2872H7.55657C8.05104 73.2872 8.45188 72.8829 8.45188 72.3842V71.8576C8.70195 71.7758 8.94311 71.6744 9.17413 71.5551L9.54377 71.9279C9.89355 72.2803 10.4602 72.2803 10.8095 71.9279L11.6911 71.0383C12.0408 70.6855 12.0408 70.114 11.6911 69.7616L11.3214 69.3887C11.4394 69.1557 11.5403 68.9129 11.6214 68.6602H12.1434C12.6379 68.6602 13.0387 68.2559 13.0387 67.7572V66.4992C13.0383 66.0005 12.6375 65.5962 12.1434 65.5962ZM6.9328 70.2877C5.20297 70.2877 3.80021 68.8732 3.80021 67.128C3.80021 65.3832 5.20256 63.9682 6.9328 63.9682C8.66304 63.9682 10.0654 65.3827 10.0654 67.128C10.0654 68.8732 8.66264 70.2877 6.9328 70.2877Z" fill="#DEE5FF"/>
<path d="M113.632 86.9424H113.109C113.028 86.6902 112.928 86.4469 112.81 86.2139L113.179 85.8411C113.529 85.4883 113.529 84.9167 113.179 84.5639L112.297 83.6747C111.947 83.3219 111.381 83.3219 111.031 83.6747L110.661 84.0476C110.43 83.9282 110.19 83.8268 109.939 83.7451V83.2185C109.939 82.7197 109.538 82.3154 109.044 82.3154H107.797C107.302 82.3154 106.901 82.7197 106.901 83.2185V83.7451C106.651 83.8268 106.41 83.9282 106.179 84.0476L105.81 83.6747C105.46 83.3219 104.893 83.3219 104.544 83.6747L103.662 84.5639C103.312 84.9167 103.312 85.4883 103.662 85.8411L104.031 86.2139C103.913 86.4469 103.813 86.6902 103.732 86.9424H103.21C102.715 86.9424 102.314 87.3467 102.314 87.8455V89.1034C102.314 89.6022 102.715 90.0065 103.21 90.0065H103.732C103.813 90.2588 103.913 90.502 104.031 90.735L103.662 91.1079C103.312 91.4607 103.312 92.0322 103.662 92.385L104.544 93.2746C104.893 93.627 105.46 93.627 105.81 93.2746L106.179 92.9018C106.41 93.0211 106.651 93.1225 106.901 93.2043V93.7308C106.901 94.2296 107.302 94.6339 107.797 94.6339H109.044C109.538 94.6339 109.939 94.2296 109.939 93.7308V93.2043C110.189 93.1225 110.43 93.0211 110.661 92.9018L111.031 93.2746C111.381 93.627 111.947 93.627 112.297 93.2746L113.179 92.385C113.529 92.0322 113.529 91.4607 113.179 91.1079L112.81 90.735C112.927 90.502 113.028 90.2592 113.109 90.0065H113.632C114.126 90.0065 114.527 89.6022 114.527 89.1034V87.8455C114.526 87.3463 114.126 86.9424 113.632 86.9424ZM108.421 91.6336C106.691 91.6336 105.288 90.2191 105.288 88.4739C105.288 86.7286 106.691 85.3141 108.421 85.3141C110.151 85.3141 111.554 86.7286 111.554 88.4739C111.554 90.2191 110.151 91.6336 108.421 91.6336Z" fill="#DEE5FF"/>
<path d="M26.2138 56.2559L25.526 55.993C25.5443 55.6198 25.5317 55.2486 25.4916 54.8823L26.1632 54.5769C26.7983 54.2882 27.0812 53.5352 26.795 52.8946L26.0732 51.2789C25.787 50.6383 25.0405 50.353 24.4054 50.6416L23.7338 50.947C23.4886 50.6739 23.2211 50.4188 22.9321 50.1849L23.1927 49.4912C23.4395 48.8342 23.1112 48.0996 22.4599 47.851L20.8168 47.2235C20.1655 46.9745 19.4376 47.3056 19.1907 47.9626L18.9301 48.6564C18.5601 48.638 18.1921 48.6507 17.8289 48.6911L17.5261 48.0137C17.24 47.3731 16.493 47.0877 15.8583 47.3764L14.2566 48.1045C13.6214 48.3931 13.3385 49.1461 13.6247 49.7868L13.9275 50.4642C13.6567 50.7115 13.4034 50.9813 13.172 51.2728L12.4842 51.0099C11.8328 50.761 11.1049 51.0921 10.8581 51.7491L10.2359 53.4064C9.98911 54.0634 10.3174 54.798 10.9687 55.0466L11.6565 55.3095C11.6383 55.6827 11.6509 56.0539 11.691 56.4202L11.0194 56.7256C10.3843 57.0142 10.1014 57.7673 10.3875 58.4079L11.1094 60.0235C11.3955 60.6642 12.1421 60.9495 12.7772 60.6609L13.4488 60.3555C13.694 60.6286 13.9615 60.8841 14.2505 61.1175L13.9899 61.8113C13.743 62.4683 14.0713 63.2025 14.7227 63.4515L16.3658 64.079C17.0171 64.328 17.745 63.9968 17.9918 63.3399L18.2524 62.6461C18.6225 62.6645 18.9905 62.6518 19.3537 62.6114L19.6564 63.2888C19.9426 63.9294 20.6891 64.2147 21.3242 63.9261L22.926 63.198C23.5611 62.9094 23.844 62.1563 23.5579 61.5157L23.2551 60.8383C23.5258 60.591 23.7792 60.3212 24.0106 60.0297L24.6984 60.2925C25.3497 60.5415 26.0776 60.2104 26.3245 59.5534L26.9466 57.8961C27.193 57.2391 26.8651 56.5044 26.2138 56.2559ZM17.0276 59.8142C14.7482 58.9434 13.6004 56.3736 14.4637 54.0744C15.327 51.7752 17.8747 50.6175 20.1541 51.4883C22.4336 52.359 23.5814 54.9289 22.7181 57.2281C21.8548 59.5268 19.307 60.685 17.0276 59.8142Z" fill="#DEE5FF"/>
<path d="M33.8118 25.5733L30.5244 32.6053L37.5828 52.4322L56.0565 45.7411L47.1565 20.7402L33.8118 25.5733Z" fill="#F0F0F0"/>
<path d="M35.6539 30.746L33.8118 25.572L30.5244 32.6041L35.6539 30.746Z" fill="#F4E8D8"/>
<path d="M72.4416 12.333L66.2879 14.8673L59.3105 31.6157L74.9164 38.23L83.7143 17.1109L72.4416 12.333Z" fill="#F0F0F0"/>
<path d="M70.6209 16.7039L72.4416 12.3333L66.2878 14.8675L70.6209 16.7039Z" fill="#F4E8D8"/>
<path d="M132.437 15.4902C132.38 15.2604 132.409 15.0516 132.522 14.8638C132.633 14.6672 132.804 14.5402 133.033 14.4829C133.395 14.3925 133.709 14.2578 133.974 14.079C134.238 13.8913 134.423 13.6527 134.53 13.3633C134.646 13.0716 134.654 12.7225 134.554 12.3158C134.48 12.0153 134.34 11.7688 134.134 11.5764C133.936 11.3819 133.693 11.2503 133.404 11.1816C133.124 11.1107 132.825 11.115 132.507 11.1944C132.26 11.2561 132.037 11.3588 131.838 11.5023C131.647 11.6437 131.482 11.8115 131.343 12.0059C131.232 12.165 131.082 12.3008 130.894 12.4134C130.713 12.5149 130.502 12.5159 130.262 12.4164C130.011 12.3102 129.85 12.1488 129.778 11.9322C129.706 11.7156 129.74 11.4913 129.88 11.2593C130.118 10.8529 130.427 10.5083 130.807 10.2256C131.195 9.93192 131.631 9.72442 132.117 9.60313C132.726 9.45097 133.308 9.45569 133.864 9.6173C134.425 9.76785 134.91 10.041 135.316 10.4368C135.722 10.8326 135.998 11.3266 136.144 11.9189C136.252 12.3609 136.282 12.7709 136.235 13.1487C136.185 13.5177 136.066 13.8569 135.88 14.1661C135.7 14.4644 135.465 14.7294 135.175 14.9613C134.892 15.1821 134.568 15.3709 134.203 15.5276C134.188 15.5409 134.172 15.5541 134.157 15.5674C134.15 15.5784 134.149 15.5928 134.153 15.6105L134.274 16.1011C134.33 16.331 134.303 16.5442 134.192 16.7408C134.079 16.9286 133.907 17.0511 133.678 17.1085C133.448 17.1658 133.24 17.1381 133.053 17.0253C132.863 16.9036 132.741 16.7279 132.684 16.4981L132.437 15.4902ZM134.194 19.4987C133.938 19.5626 133.723 19.5459 133.549 19.4486C133.382 19.3402 133.267 19.1579 133.204 18.9015L133.148 18.6761C133.086 18.4197 133.104 18.2087 133.204 18.043C133.311 17.8663 133.492 17.7459 133.748 17.682L133.92 17.639C134.176 17.575 134.388 17.5972 134.555 17.7056C134.729 17.8029 134.847 17.9798 134.91 18.2361L134.966 18.4616C135.029 18.7179 135.007 18.9345 134.9 19.1112C134.8 19.2769 134.622 19.3917 134.366 19.4557L134.194 19.4987Z" fill="#182452"/>
<path d="M125.306 21.3717C125.17 21.2133 125.109 21.0375 125.123 20.8442C125.132 20.6448 125.215 20.4764 125.372 20.3391C125.62 20.1226 125.812 19.8907 125.949 19.6433C126.081 19.3899 126.131 19.1277 126.099 18.8568C126.074 18.5806 125.941 18.3025 125.7 18.0223C125.522 17.8152 125.314 17.6773 125.075 17.6087C124.843 17.5348 124.599 17.5288 124.346 17.5905C124.098 17.647 123.865 17.7703 123.647 17.9604C123.478 18.1083 123.344 18.2787 123.245 18.4716C123.152 18.6593 123.09 18.8577 123.058 19.0668C123.034 19.2366 122.971 19.4035 122.869 19.5676C122.767 19.7204 122.602 19.8057 122.374 19.8236C122.135 19.8407 121.944 19.7784 121.801 19.6367C121.659 19.4949 121.596 19.3047 121.613 19.0659C121.637 18.6504 121.742 18.255 121.928 17.8797C122.114 17.493 122.374 17.1545 122.706 16.864C123.123 16.4997 123.582 16.2697 124.082 16.1742C124.583 16.0673 125.071 16.0881 125.548 16.2367C126.024 16.3853 126.438 16.6636 126.788 17.0717C127.05 17.3763 127.237 17.687 127.35 18.0037C127.458 18.3144 127.501 18.6289 127.478 18.9474C127.456 19.2544 127.377 19.5574 127.243 19.8563C127.109 20.1439 126.93 20.4225 126.707 20.6922C126.7 20.7089 126.693 20.7255 126.686 20.7422C126.685 20.7536 126.69 20.7653 126.7 20.7775L126.991 21.1156C127.127 21.2739 127.19 21.4528 127.182 21.6523C127.168 21.8456 127.082 22.0109 126.925 22.1482C126.768 22.2855 126.593 22.3472 126.402 22.3335C126.205 22.3136 126.038 22.2245 125.902 22.0661L125.306 21.3717ZM128.284 23.8233C128.108 23.9764 127.933 24.0495 127.758 24.0427C127.583 24.0244 127.42 23.927 127.269 23.7503L127.135 23.595C126.984 23.4184 126.914 23.2447 126.926 23.0742C126.939 22.8922 127.034 22.7247 127.209 22.5715L127.327 22.4686C127.502 22.3154 127.677 22.248 127.851 22.2662C128.027 22.2731 128.19 22.3649 128.342 22.5415L128.475 22.6968C128.627 22.8735 128.696 23.0528 128.683 23.2347C128.671 23.4053 128.577 23.5672 128.401 23.7203L128.284 23.8233Z" fill="#182452"/>
<path d="M141.965 16.7134C142.051 16.5234 142.185 16.395 142.365 16.328C142.549 16.2538 142.735 16.2604 142.925 16.3481C143.223 16.4862 143.513 16.567 143.793 16.5906C144.077 16.6068 144.334 16.5446 144.566 16.404C144.805 16.2667 145 16.03 145.153 15.6939C145.266 15.4454 145.304 15.1975 145.266 14.9502C145.236 14.7063 145.14 14.4807 144.979 14.2734C144.825 14.0694 144.616 13.9067 144.354 13.7854C144.15 13.6911 143.94 13.6383 143.725 13.6271C143.517 13.6193 143.312 13.6439 143.11 13.7007C142.947 13.7491 142.77 13.7601 142.579 13.7338C142.399 13.7035 142.253 13.5875 142.142 13.3857C142.027 13.1733 142.003 12.9724 142.072 12.783C142.14 12.5935 142.286 12.4574 142.509 12.3747C142.894 12.2257 143.295 12.1589 143.711 12.1745C144.138 12.1862 144.551 12.2847 144.952 12.47C145.455 12.7025 145.853 13.0284 146.148 13.4476C146.453 13.8628 146.638 14.3197 146.702 14.8182C146.766 15.3167 146.687 15.8108 146.465 16.3004C146.299 16.6658 146.096 16.9658 145.857 17.2002C145.622 17.4274 145.355 17.5961 145.058 17.7064C144.772 17.8127 144.466 17.8656 144.14 17.8652C143.824 17.8608 143.498 17.8117 143.162 17.718C143.144 17.7185 143.126 17.7191 143.108 17.7197C143.097 17.7236 143.089 17.7329 143.082 17.7475L142.898 18.1531C142.811 18.3431 142.676 18.4752 142.493 18.5495C142.312 18.6164 142.127 18.6061 141.938 18.5185C141.749 18.4309 141.62 18.2963 141.553 18.1148C141.489 17.926 141.5 17.7365 141.586 17.5465L141.965 16.7134ZM140.991 20.4554C140.78 20.3577 140.641 20.227 140.574 20.0635C140.518 19.896 140.538 19.7063 140.635 19.4944L140.719 19.308C140.816 19.0961 140.943 18.9606 141.103 18.9015C141.272 18.8385 141.463 18.8559 141.674 18.9536L141.816 19.0193C142.027 19.1171 142.161 19.2497 142.217 19.4171C142.284 19.5807 142.269 19.7684 142.173 19.9803L142.088 20.1667C141.992 20.3786 141.859 20.5161 141.689 20.5791C141.53 20.6381 141.345 20.6188 141.133 20.5211L140.991 20.4554Z" fill="#182452"/>
<g opacity="0.6">
<path d="M74.6317 76.7041C74.8536 76.7041 75.03 76.5215 75.0234 76.2983L75.0021 75.5642C74.9957 75.341 74.8088 75.1551 74.5869 75.1511L46.1257 74.6407C45.9038 74.6367 45.7826 74.8057 45.8563 75.0165L46.3129 76.3211C46.3866 76.5317 46.6285 76.7041 46.8504 76.7041H74.6317Z" fill="white"/>
</g>
<g opacity="0.6">
<path d="M46.1257 78.9342C45.9038 78.9302 45.7826 79.0992 45.8563 79.3099L46.3129 80.6146C46.3866 80.8252 46.6285 80.9976 46.8504 80.9976H74.6316C74.8535 80.9976 75.0299 80.8149 75.0233 80.5917L75.002 79.8577C74.9956 79.6345 74.8087 79.4486 74.5868 79.4445L46.1257 78.9342Z" fill="white"/>
</g>
<g opacity="0.6">
<path d="M46.1252 83.2933C45.9033 83.2893 45.7821 83.4583 45.8558 83.6691L46.3124 84.9737C46.3861 85.1843 46.628 85.3567 46.8499 85.3567H74.6311C74.8531 85.3567 75.0294 85.1741 75.0228 84.9509L75.0015 84.2168C74.9951 83.9936 74.8083 83.8077 74.5863 83.8037L46.1252 83.2933Z" fill="white"/>
</g>
<g opacity="0.78">
<path d="M60.071 90.9974C60.293 90.9974 60.4719 90.8147 60.4687 90.5914L60.4582 89.8577C60.455 89.6343 60.271 89.445 60.0491 89.437L46.3897 88.9414C46.1679 88.9334 46.0176 89.1068 46.0557 89.3269L46.2755 90.5974C46.3136 90.8173 46.5263 90.9974 46.7482 90.9974H60.071Z" fill="white"/>
</g>
<g opacity="0.78">
<path d="M48.1071 31.6993C48.3132 31.6169 48.4115 31.3808 48.3256 31.1746L48.0434 30.4973C47.9575 30.2911 47.7163 30.1836 47.5074 30.2586L34.6404 34.8701C34.4315 34.945 34.3563 35.1618 34.4734 35.352L35.1492 36.4501C35.2662 36.6402 35.5306 36.7284 35.7367 36.646L48.1071 31.6993Z" fill="white"/>
</g>
<g opacity="0.78">
<path d="M78.3129 26.6407C78.513 26.7366 78.7534 26.6492 78.847 26.4464L79.1547 25.7803C79.2483 25.5775 79.1642 25.3272 78.9676 25.2241L66.8645 18.8728C66.6679 18.7696 66.4575 18.861 66.3967 19.0759L66.0457 20.3166C65.9849 20.5314 66.099 20.7858 66.2991 20.8817L78.3129 26.6407Z" fill="white"/>
</g>
<g opacity="0.78">
<path d="M46.3574 94.0138C46.1355 94.0139 45.9915 94.1927 46.0377 94.4112L46.3035 95.6728C46.3495 95.8912 46.5687 96.0633 46.7904 96.0551L60.1044 95.5648C60.3263 95.5567 60.4984 95.3675 60.4871 95.1445L60.4498 94.4117C60.4385 94.1887 60.2477 94.0062 60.0257 94.0063L46.3574 94.0138Z" fill="white"/>
</g>
<g opacity="0.78">
<path d="M36.4935 39.5915C36.2874 39.674 36.2202 39.8935 36.3441 40.0792L37.0593 41.1519C37.1831 41.3377 37.4506 41.4161 37.6534 41.3262L49.8336 35.9275C50.0366 35.8376 50.1262 35.5979 50.0328 35.3951L49.7262 34.7285C49.6329 34.5256 49.3879 34.4271 49.1819 34.5096L36.4935 39.5915Z" fill="white"/>
</g>
<g opacity="0.78">
<path d="M64.6435 23.4323C64.4433 23.3365 64.2362 23.4355 64.1833 23.6525L63.8777 24.905C63.8248 25.1219 63.9481 25.3718 64.1515 25.4603L76.3693 30.7733C76.5729 30.8619 76.81 30.7657 76.8961 30.5597L77.1793 29.8828C77.2655 29.6768 77.1722 29.4298 76.9721 29.3339L64.6435 23.4323Z" fill="white"/>
</g>
<g opacity="0.78">
<path d="M76.0222 90.9974C76.2441 90.9974 76.4231 90.8147 76.4199 90.5914L76.4094 89.8577C76.4062 89.6343 76.222 89.445 76.0003 89.437L62.3409 88.9414C62.1191 88.9334 61.9688 89.1068 62.0069 89.3269L62.2267 90.5974C62.2647 90.8173 62.4775 90.9974 62.6994 90.9974H76.0222Z" fill="white"/>
</g>
<g opacity="0.78">
<path d="M62.3084 94.0138C62.0864 94.0139 61.9425 94.1927 61.9886 94.4112L62.2544 95.6728C62.3004 95.8912 62.5195 96.0633 62.7413 96.0551L76.0553 95.5648C76.2771 95.5567 76.4494 95.3675 76.438 95.1445L76.4007 94.4117C76.3895 94.1887 76.1986 94.0062 75.9767 94.0063L62.3084 94.0138Z" fill="white"/>
</g>
</svg>
