<svg width="160" height="164" viewBox="0 0 160 164" fill="none" xmlns="http://www.w3.org/2000/svg">
<g opacity="0.3">
<path d="M121.895 20.6972C121.661 20.6398 121.502 20.4118 121.535 20.1654C121.607 19.6264 121.703 19.0825 121.821 18.5489C121.878 18.2893 122.133 18.1257 122.391 18.1835C122.394 18.1842 122.397 18.185 122.4 18.1857C122.652 18.2474 122.81 18.5016 122.753 18.7581C122.641 19.265 122.55 19.7816 122.482 20.2936C122.447 20.5571 122.206 20.7421 121.945 20.7066C121.928 20.7044 121.911 20.7011 121.895 20.6972ZM122.906 16.6286C122.888 16.6242 122.87 16.6186 122.852 16.6119C122.605 16.5193 122.479 16.2421 122.571 15.9929C122.759 15.4809 122.972 14.972 123.202 14.4805C123.314 14.24 123.597 14.1373 123.837 14.2503C124.076 14.3638 124.178 14.6508 124.065 14.8911C123.847 15.3584 123.645 15.8418 123.466 16.3284C123.381 16.5595 123.138 16.6853 122.906 16.6286ZM124.78 12.8857C124.728 12.873 124.678 12.8514 124.631 12.8203C124.41 12.6744 124.349 12.376 124.493 12.1536C124.79 11.6978 125.109 11.2493 125.443 10.8206C125.607 10.6116 125.907 10.5756 126.114 10.7396C126.321 10.9039 126.357 11.2066 126.194 11.4156C125.877 11.8228 125.573 12.2486 125.292 12.6815C125.178 12.8565 124.971 12.9323 124.78 12.8857ZM127.437 9.65853C127.352 9.63762 127.271 9.59274 127.206 9.52413C127.023 9.33238 127.03 9.02753 127.22 8.84342C127.61 8.46578 128.021 8.10054 128.442 7.75795C128.647 7.59119 128.947 7.62331 129.113 7.82995C129.279 8.0367 129.247 8.33987 129.042 8.50703C128.642 8.83233 128.252 9.17918 127.881 9.53821C127.759 9.65635 127.591 9.69606 127.437 9.65853ZM130.742 7.11011C130.622 7.0808 130.514 7.00512 130.445 6.89026C130.309 6.6623 130.382 6.36654 130.608 6.22966C131.071 5.94941 131.552 5.68508 132.038 5.44437C132.274 5.32692 132.56 5.42524 132.677 5.66405C132.793 5.90264 132.695 6.19116 132.459 6.30856C131.997 6.53726 131.54 6.78849 131.1 7.05483C130.988 7.12281 130.86 7.13895 130.742 7.11011ZM134.522 5.36237C134.367 5.32445 134.235 5.20912 134.181 5.04506C134.099 4.79245 134.235 4.52037 134.485 4.4371C134.998 4.26661 135.525 4.11611 136.051 3.99016C136.308 3.92873 136.565 4.08865 136.626 4.3474C136.687 4.60593 136.529 4.86555 136.272 4.92703C135.772 5.04684 135.272 5.18964 134.784 5.35168C134.696 5.38088 134.606 5.38283 134.522 5.36237ZM151.792 8.40877C151.728 8.39303 151.666 8.36361 151.61 8.31982C151.207 8.00078 150.784 7.69526 150.353 7.41185C150.132 7.26652 150.07 6.96818 150.214 6.74568C150.358 6.52295 150.654 6.46026 150.875 6.60564C151.328 6.9041 151.774 7.22584 152.199 7.56177C152.407 7.72577 152.443 8.02843 152.281 8.23771C152.161 8.39119 151.968 8.45193 151.792 8.40877ZM138.591 4.50353C138.398 4.45641 138.248 4.29069 138.228 4.08077C138.203 3.81598 138.396 3.58119 138.658 3.55619C139.196 3.505 139.743 3.47684 140.284 3.47242C140.547 3.4715 140.763 3.68394 140.765 3.94993C140.767 4.21576 140.555 4.43308 140.291 4.43532C139.778 4.4394 139.259 4.46618 138.748 4.51479C138.694 4.51985 138.641 4.51583 138.591 4.50353ZM148.25 6.21093C148.219 6.20346 148.189 6.19289 148.159 6.17886C147.694 5.95895 147.214 5.75645 146.732 5.57671C146.484 5.48442 146.358 5.20757 146.449 4.95818C146.541 4.70885 146.815 4.58007 147.063 4.67345C147.57 4.86267 148.076 5.07575 148.565 5.30703C148.803 5.42001 148.906 5.70681 148.794 5.9474C148.696 6.15818 148.466 6.26379 148.25 6.21093ZM142.747 4.58266C142.513 4.52537 142.355 4.29793 142.387 4.05176C142.422 3.78812 142.662 3.60286 142.923 3.63756C143.458 3.7091 143.998 3.8049 144.526 3.92258C144.529 3.92321 144.533 3.92402 144.536 3.92482C144.788 3.98642 144.945 4.24001 144.889 4.49629C144.832 4.75602 144.578 4.92008 144.32 4.86273C143.818 4.75114 143.306 4.66023 142.797 4.59231C142.78 4.58984 142.764 4.58668 142.747 4.58266Z" fill="#DEE5FF"/>
<path d="M154.233 10.7281C154.142 10.7057 154.056 10.6561 153.989 10.5797C153.826 10.3938 153.656 10.2085 153.484 10.0283C153.301 9.83674 153.307 9.53184 153.497 9.34767C153.687 9.16333 153.99 9.16902 154.172 9.36111C154.353 9.55045 154.532 9.74548 154.703 9.94097C154.878 10.1399 154.86 10.4443 154.663 10.6205C154.541 10.7294 154.38 10.764 154.233 10.7281Z" fill="#DEE5FF"/>
</g>
<g opacity="0.3">
<path d="M158.866 24.6389C158.642 24.5841 158.484 24.3721 158.503 24.133C158.522 23.8857 158.537 23.6336 158.546 23.3841C158.556 23.1184 158.778 22.9111 159.042 22.9213C159.306 22.9314 159.51 23.155 159.501 23.4206C159.491 23.6833 159.475 23.9487 159.455 24.2092C159.434 24.4743 159.204 24.6721 158.941 24.6511C158.915 24.6491 158.89 24.6448 158.866 24.6389Z" fill="#DEE5FF"/>
<path d="M135.962 41.3959C135.748 41.3436 135.535 41.2875 135.322 41.2276C135.068 41.1562 134.919 40.8907 134.99 40.6345C135.06 40.3784 135.325 40.228 135.578 40.2999C136.07 40.4381 136.567 40.556 137.06 40.6511C137.319 40.7015 137.489 40.9532 137.439 41.2143C137.389 41.4757 137.139 41.6469 136.88 41.5969C136.575 41.5381 136.266 41.4705 135.962 41.3959ZM132.945 40.3797C132.919 40.3734 132.894 40.3647 132.868 40.3537C132.379 40.1409 131.894 39.9048 131.425 39.652C131.193 39.5266 131.105 39.2348 131.229 39.0005C131.354 38.766 131.644 38.6771 131.875 38.8031C132.32 39.0432 132.782 39.2674 133.246 39.4698C133.489 39.575 133.6 39.8584 133.496 40.1024C133.402 40.321 133.167 40.434 132.945 40.3797ZM139.375 41.8992C139.156 41.8456 138.999 41.6414 139.011 41.4065C139.025 41.1408 139.249 40.9369 139.513 40.9506C140.017 40.9771 140.528 40.9822 141.034 40.9654C141.297 40.9571 141.518 41.1652 141.527 41.4309C141.535 41.6967 141.329 41.9192 141.065 41.9279C140.533 41.9454 139.994 41.9401 139.463 41.9123C139.433 41.9107 139.403 41.9062 139.375 41.8992ZM129.388 38.3366C129.329 38.3222 129.272 38.296 129.22 38.2579C128.789 37.9423 128.367 37.6042 127.965 37.2533C127.766 37.0793 127.744 36.7753 127.916 36.5743C128.089 36.3731 128.39 36.3511 128.59 36.5253C128.972 36.8585 129.373 37.1795 129.781 37.4793C129.995 37.6356 130.042 37.9368 129.887 38.1517C129.77 38.3142 129.57 38.3813 129.388 38.3366ZM143.458 41.656C143.279 41.6121 143.133 41.4647 143.1 41.2694C143.056 41.0073 143.23 40.7584 143.49 40.7134C143.987 40.6276 144.487 40.5189 144.977 40.3907C145.232 40.3238 145.493 40.4782 145.559 40.7357C145.625 40.9931 145.472 41.2557 145.217 41.3226C144.701 41.4576 144.175 41.572 143.651 41.6624C143.585 41.6739 143.52 41.6711 143.458 41.656ZM147.39 40.5151C147.247 40.48 147.121 40.3786 147.061 40.2304C146.96 39.9845 147.077 39.7031 147.321 39.602C147.788 39.4079 148.253 39.1918 148.703 38.9596C148.937 38.838 149.225 38.9314 149.345 39.1684C149.466 39.4051 149.373 39.6951 149.138 39.8165C148.665 40.0609 148.176 40.2883 147.684 40.4924C147.587 40.5326 147.485 40.5383 147.39 40.5151ZM150.981 38.537C150.872 38.5103 150.772 38.445 150.703 38.3448C150.552 38.1269 150.605 37.8267 150.821 37.6745C151.236 37.3823 151.643 37.0693 152.031 36.744C152.234 36.5741 152.535 36.6019 152.703 36.8067C152.872 37.0113 152.844 37.3147 152.641 37.4847C152.233 37.8269 151.804 38.1565 151.368 38.464C151.251 38.5462 151.11 38.5685 150.981 38.537ZM154.059 35.8163C153.984 35.7978 153.912 35.7605 153.85 35.7038C153.656 35.5244 153.642 35.22 153.82 35.0237C154.161 34.6473 154.491 34.252 154.799 33.8486C154.96 33.6379 155.26 33.5987 155.468 33.7606C155.677 33.9229 155.716 34.2252 155.555 34.4358C155.231 34.8608 154.884 35.2772 154.525 35.6734C154.403 35.8077 154.223 35.8564 154.059 35.8163ZM156.471 32.4793C156.428 32.4689 156.387 32.4523 156.347 32.4294C156.118 32.2977 156.038 32.0036 156.169 31.7728C156.419 31.3308 156.653 30.8723 156.866 30.4096C156.977 30.1683 157.261 30.0639 157.5 30.1753C157.739 30.2871 157.843 30.5734 157.732 30.8147C157.508 31.3018 157.261 31.7846 156.998 32.2498C156.89 32.4404 156.673 32.5286 156.471 32.4793ZM158.096 28.6922C158.086 28.6898 158.076 28.6871 158.067 28.6843C157.815 28.6059 157.674 28.3364 157.751 28.0824C157.861 27.7237 157.961 27.3574 158.049 26.9934C158.08 26.8616 158.11 26.7297 158.139 26.5979C158.196 26.3382 158.451 26.1739 158.708 26.2311C158.97 26.2838 159.128 26.5449 159.072 26.8045C159.042 26.9432 159.01 27.0818 158.977 27.2205C158.884 27.6034 158.779 27.9889 158.664 28.3661C158.589 28.6105 158.339 28.7517 158.096 28.6922Z" fill="#DEE5FF"/>
<path d="M126.357 35.5458C126.264 35.5232 126.178 35.4729 126.111 35.3956C125.94 35.1996 125.771 34.9963 125.607 34.7914C125.441 34.5844 125.473 34.2813 125.678 34.1144C125.884 33.9475 126.184 33.9796 126.35 34.1867C126.505 34.3814 126.667 34.5745 126.828 34.7606C127.002 34.9602 126.983 35.2644 126.784 35.4399C126.663 35.5474 126.503 35.5815 126.357 35.5458Z" fill="#DEE5FF"/>
</g>
<path d="M128.288 30.2712C128.329 30.3578 128.42 30.4086 128.515 30.3976L131.213 30.0852C132.007 31.0825 132.964 31.9594 134.064 32.6687L134.045 35.4055C134.044 35.5016 134.104 35.5874 134.194 35.6193L137.266 36.7118C137.356 36.7437 137.456 36.7146 137.515 36.6395L139.203 34.4961C140.5 34.6391 141.791 34.5619 143.03 34.2873L144.937 36.2373C145.004 36.3056 145.106 36.3237 145.192 36.2823L148.131 34.8641C148.217 34.8226 148.267 34.7308 148.256 34.6355L147.946 31.9147C148.935 31.114 149.805 30.1485 150.508 29.0397L153.222 29.0587C153.317 29.0594 153.403 28.9991 153.434 28.9086L154.518 25.8105C154.549 25.72 154.52 25.6191 154.446 25.5595L152.32 23.8575C152.462 22.5491 152.386 21.2472 152.113 19.998L154.047 18.075C154.115 18.0076 154.133 17.9043 154.092 17.8177L152.685 14.8545C152.644 14.7679 152.553 14.7171 152.459 14.7281L149.76 15.0406C148.966 14.0432 148.009 13.1664 146.91 12.4571L146.928 9.72021C146.929 9.62424 146.869 9.5384 146.779 9.50645L143.707 8.41396C143.618 8.38201 143.518 8.41103 143.458 8.48625L141.771 10.6297C140.473 10.4865 139.182 10.5639 137.943 10.8384L136.036 8.88843C135.97 8.82005 135.867 8.80201 135.781 8.84344L132.843 10.2616C132.757 10.3031 132.707 10.3949 132.717 10.4903L133.027 13.2111C132.038 14.0118 131.169 14.9773 130.465 16.086L127.751 16.067C127.656 16.0663 127.571 16.1266 127.539 16.2172L126.456 19.3153C126.424 19.4058 126.453 19.5066 126.528 19.5663L128.653 21.2682C128.511 22.5766 128.588 23.8785 128.86 25.1277L126.927 27.0508C126.859 27.1182 126.841 27.2215 126.882 27.3081L128.288 30.2712Z" fill="#DEE5FF"/>
<path d="M139.713 25.7676C138.162 25.388 137.076 23.9061 137.226 22.2566C137.392 20.4433 138.989 19.1041 140.787 19.2709C141.658 19.3515 142.446 19.7696 143.005 20.4478C143.564 21.1259 143.828 21.9831 143.748 22.8614C143.582 24.6747 141.985 26.0139 140.187 25.8472C140.025 25.832 139.866 25.8053 139.713 25.7676ZM141.084 20.0995C140.965 20.0702 140.842 20.0495 140.717 20.0378C139.339 19.9099 138.114 20.937 137.987 22.327C137.86 23.7172 138.878 24.9526 140.257 25.0801C141.636 25.2081 142.86 24.181 142.987 22.7909C143.049 22.1174 142.846 21.4603 142.417 20.9402C142.069 20.5177 141.605 20.2268 141.084 20.0995Z" fill="white"/>
<path d="M138.662 30.4194C138.396 30.3542 138.131 30.2751 137.869 30.182C137.787 30.1527 137.705 30.122 137.623 30.0901C137.221 29.9323 136.832 29.7425 136.462 29.5237C136.457 29.5207 136.452 29.5177 136.447 29.5148C136.433 29.5063 136.419 29.4977 136.404 29.4891C136.377 29.4724 136.349 29.4554 136.322 29.4384C136.249 29.3937 136.217 29.3082 136.236 29.2291C136.241 29.21 136.248 29.1912 136.259 29.1735C136.314 29.0828 136.432 29.0549 136.522 29.1104C136.984 29.3971 137.48 29.6354 137.996 29.8187C140.559 30.7305 143.287 30.1813 145.283 28.6052C146.393 27.7287 147.277 26.5344 147.78 25.0969C147.868 24.8448 147.943 24.5901 148.004 24.3338C148.419 22.6092 148.235 20.8083 147.465 19.1861C146.58 17.3226 145.029 15.918 143.097 15.2311C139.107 13.8126 134.72 15.9312 133.314 19.9529C133.227 20.2009 133.153 20.4524 133.092 20.7062C132.828 21.8063 132.805 22.9526 133.029 24.0628C133.035 24.0914 133.034 24.1199 133.027 24.1466C133.011 24.2167 132.955 24.2745 132.88 24.2899C132.777 24.3108 132.676 24.2441 132.655 24.1395C132.419 22.974 132.443 21.7705 132.721 20.6156C132.785 20.3492 132.863 20.0852 132.953 19.8249C134.43 15.6025 139.039 13.3794 143.224 14.8678C145.253 15.589 146.881 17.0636 147.809 19.0199C148.618 20.7229 148.811 22.6136 148.376 24.424C148.311 24.6931 148.233 24.9604 148.14 25.225C147.425 27.2704 145.963 28.9124 144.023 29.8487C142.333 30.6638 140.458 30.8589 138.662 30.4194Z" fill="white"/>
<g opacity="0.3">
<path d="M103.096 29.1491C102.972 29.1188 102.877 29.0093 102.871 28.8742C102.859 28.6221 102.854 28.3661 102.857 28.1135C102.859 27.9493 102.993 27.8179 103.156 27.8198C103.319 27.8212 103.449 27.9567 103.447 28.1209C103.444 28.3616 103.448 28.6056 103.46 28.8462C103.468 29.0101 103.342 29.1494 103.179 29.1574C103.15 29.1587 103.122 29.1557 103.096 29.1491Z" fill="#DEE5FF"/>
<path d="M103.196 26.865C103.051 26.8295 102.953 26.6881 102.974 26.5357C103.033 26.1051 103.114 25.6726 103.215 25.2504C103.237 25.1615 103.259 25.0726 103.283 24.9836C103.325 24.8247 103.493 24.7383 103.643 24.7721C103.801 24.8142 103.894 24.977 103.853 25.1357C103.831 25.2207 103.809 25.3057 103.789 25.3907C103.692 25.7934 103.614 26.2059 103.558 26.6165C103.536 26.7793 103.387 26.893 103.226 26.8708C103.216 26.8692 103.206 26.8674 103.196 26.865ZM103.981 23.8807C103.968 23.8773 103.954 23.8731 103.941 23.8678C103.789 23.8066 103.716 23.6335 103.776 23.481C103.971 22.9918 104.197 22.5105 104.448 22.0506C104.527 21.9066 104.707 21.8551 104.849 21.9338C104.992 22.0132 105.043 22.1938 104.965 22.3377C104.725 22.7765 104.509 23.2357 104.324 23.7022C104.269 23.8411 104.121 23.915 103.981 23.8807ZM105.46 21.1773C105.424 21.1684 105.388 21.1523 105.356 21.1289C105.225 21.0325 105.196 20.8463 105.291 20.7135C105.598 20.288 105.935 19.877 106.292 19.4926C106.403 19.3726 106.589 19.3664 106.709 19.4789C106.827 19.5911 106.833 19.7794 106.722 19.8992C106.382 20.2658 106.061 20.6574 105.768 21.0633C105.696 21.1636 105.573 21.2049 105.46 21.1773ZM107.553 18.9233C107.494 18.9088 107.438 18.8756 107.396 18.8249C107.292 18.6987 107.309 18.511 107.434 18.4059C107.836 18.0686 108.262 17.7535 108.7 17.4693C108.837 17.3807 109.019 17.4211 109.107 17.5589C109.195 17.697 109.156 17.8809 109.019 17.9699C108.601 18.2405 108.194 18.5412 107.812 18.8629C107.737 18.9256 107.641 18.9448 107.553 18.9233ZM110.128 17.2532C110.045 17.2329 109.972 17.1767 109.932 17.0931C109.861 16.9453 109.923 16.7677 110.07 16.6962C110.54 16.468 111.029 16.2667 111.522 16.0982C111.677 16.0452 111.844 16.1289 111.896 16.2845C111.949 16.4401 111.866 16.609 111.712 16.6615C111.241 16.8223 110.774 17.0142 110.326 17.2322C110.262 17.2632 110.192 17.2689 110.128 17.2532ZM113.027 16.2641C112.92 16.2379 112.832 16.1514 112.808 16.035C112.775 15.8743 112.878 15.7171 113.037 15.6839C113.548 15.5777 114.071 15.5027 114.59 15.4612C114.753 15.4487 114.895 15.5707 114.907 15.7343C114.92 15.8978 114.799 16.0412 114.637 16.0541C114.141 16.0936 113.643 16.1651 113.156 16.2664C113.112 16.2756 113.068 16.2742 113.027 16.2641ZM116.077 16.0198C115.943 15.987 115.846 15.862 115.852 15.7177C115.859 15.5536 115.997 15.4266 116.16 15.4339C116.68 15.4574 117.205 15.5142 117.721 15.6024C117.881 15.6327 117.99 15.7838 117.962 15.9457C117.935 16.1075 117.783 16.2164 117.622 16.1891C117.13 16.1045 116.629 16.0504 116.134 16.0281C116.114 16.0271 116.095 16.0243 116.077 16.0198ZM120.535 17.0719C120.518 17.0679 120.502 17.0623 120.486 17.055C120.092 16.8807 119.682 16.7251 119.267 16.5925C119.204 16.572 119.142 16.5527 119.08 16.5343C118.924 16.4871 118.835 16.3216 118.882 16.1642C118.928 16.0065 119.095 15.9128 119.249 15.9642C119.315 15.9842 119.381 16.0045 119.447 16.0259C119.88 16.1646 120.31 16.3278 120.723 16.5106C120.872 16.5767 120.94 16.752 120.874 16.9024C120.816 17.0363 120.671 17.1053 120.535 17.0719Z" fill="#DEE5FF"/>
</g>
<g opacity="0.3">
<path d="M112.761 40.7866C112.604 40.7483 112.507 40.59 112.543 40.4312C112.579 40.2712 112.737 40.171 112.896 40.2078C113.374 40.3182 113.863 40.4 114.348 40.4511C114.509 40.4695 114.628 40.6143 114.611 40.7778C114.594 40.9413 114.449 41.0597 114.287 41.0428C113.778 40.9889 113.266 40.9033 112.765 40.7876C112.763 40.7872 112.762 40.7869 112.761 40.7866ZM111.313 40.3586C111.303 40.356 111.293 40.3529 111.282 40.3493C110.799 40.1743 110.322 39.9678 109.863 39.7357C109.718 39.6619 109.659 39.4834 109.732 39.3366C109.805 39.1895 109.983 39.1312 110.128 39.204C110.565 39.4255 111.021 39.6225 111.482 39.7897C111.635 39.8451 111.715 40.0155 111.66 40.17C111.608 40.3145 111.457 40.3939 111.313 40.3586ZM115.755 41.1011C115.628 41.07 115.533 40.9558 115.53 40.8177C115.527 40.6538 115.657 40.5181 115.819 40.5149C116.31 40.5053 116.804 40.4657 117.288 40.3967C117.449 40.3744 117.598 40.4871 117.621 40.6497C117.644 40.8122 117.531 40.9628 117.37 40.9858C116.863 41.0579 116.345 41.0995 115.831 41.1094C115.805 41.1098 115.779 41.107 115.755 41.1011ZM108.621 38.9941C108.589 38.9861 108.557 38.9724 108.527 38.9526C108.1 38.6654 107.686 38.3486 107.296 38.011C107.173 37.9039 107.159 37.7162 107.265 37.5916C107.371 37.4675 107.557 37.4533 107.681 37.5601C108.052 37.8818 108.447 38.1838 108.854 38.4577C108.99 38.5488 109.027 38.7335 108.936 38.8701C108.866 38.9768 108.738 39.0227 108.621 38.9941ZM118.736 40.6762C118.635 40.6514 118.55 40.5729 118.521 40.4642C118.479 40.3054 118.572 40.1424 118.729 40.0999C119.202 39.9723 119.672 39.8142 120.126 39.6294C120.277 39.5678 120.449 39.6418 120.51 39.7942C120.57 39.9465 120.497 40.1199 120.346 40.1812C119.87 40.3745 119.377 40.5406 118.882 40.6745C118.833 40.6878 118.783 40.6875 118.736 40.6762ZM121.529 39.5426C121.452 39.5236 121.382 39.4731 121.341 39.3972C121.262 39.2533 121.314 39.0724 121.456 38.9931C121.886 38.7543 122.305 38.4872 122.702 38.1994C122.834 38.1033 123.018 38.1338 123.113 38.267C123.208 38.4002 123.178 38.5859 123.046 38.6818C122.631 38.9838 122.191 39.2638 121.741 39.5141C121.674 39.5513 121.599 39.5595 121.529 39.5426ZM123.973 37.7667C123.918 37.7534 123.867 37.7243 123.826 37.6794C123.716 37.5588 123.723 37.3706 123.843 37.2592C124.203 36.924 124.546 36.5633 124.862 36.1873C124.968 36.0625 125.154 36.0468 125.278 36.1531C125.402 36.2593 125.417 36.4469 125.312 36.5723C124.98 36.9663 124.621 37.3447 124.243 37.6965C124.167 37.7665 124.066 37.7894 123.973 37.7667Z" fill="#DEE5FF"/>
<path d="M106.327 37.0079C106.272 36.9944 106.22 36.9646 106.179 36.919C106.009 36.7308 105.844 36.5365 105.688 36.3418C105.586 36.214 105.606 36.0267 105.732 35.9235C105.859 35.821 106.045 35.8407 106.147 35.9682C106.296 36.154 106.453 36.3393 106.615 36.519C106.725 36.6405 106.716 36.8287 106.595 36.9391C106.52 37.0079 106.419 37.0304 106.327 37.0079Z" fill="#DEE5FF"/>
</g>
<path d="M107.463 33.3319C107.491 33.3898 107.552 33.4238 107.615 33.4164L109.42 33.2074C109.952 33.8748 110.592 34.4615 111.328 34.9362L111.316 36.7675C111.315 36.8317 111.355 36.8892 111.415 36.9105L113.471 37.6416C113.531 37.6629 113.598 37.6435 113.638 37.5932L114.767 36.1589C115.635 36.2546 116.499 36.2029 117.328 36.0192L118.604 37.3241C118.649 37.3698 118.717 37.3819 118.775 37.3541L120.741 36.4051C120.799 36.3774 120.832 36.316 120.825 36.2521L120.618 34.4315C121.28 33.8957 121.861 33.2497 122.332 32.5077L124.148 32.5205C124.212 32.5209 124.269 32.4806 124.29 32.42L125.015 30.3469C125.036 30.2863 125.017 30.2188 124.967 30.1789L123.545 29.0401C123.64 28.1645 123.588 27.2934 123.406 26.4574L124.7 25.1706C124.745 25.1254 124.757 25.0563 124.73 24.9984L123.789 23.0156C123.761 22.9577 123.7 22.9237 123.637 22.931L121.832 23.1401C121.3 22.4727 120.66 21.886 119.924 21.4114L119.937 19.5799C119.937 19.5157 119.897 19.4583 119.837 19.4369L117.781 18.7059C117.721 18.6845 117.654 18.7039 117.615 18.7542L116.485 20.1886C115.617 20.0928 114.753 20.1446 113.924 20.3283L112.648 19.0235C112.604 18.9777 112.535 18.9656 112.477 18.9933L110.511 19.9423C110.454 19.9701 110.42 20.0315 110.427 20.0954L110.635 21.916C109.973 22.4517 109.391 23.0978 108.92 23.8398L107.104 23.827C107.041 23.8266 106.984 23.8669 106.962 23.9275L106.237 26.0006C106.216 26.0612 106.236 26.1286 106.285 26.1686L107.708 27.3074C107.613 28.1829 107.664 29.0541 107.846 29.89L106.552 31.1768C106.507 31.2219 106.495 31.2911 106.522 31.349L107.463 33.3319Z" fill="#DEE5FF"/>
<path d="M115.095 30.359C114.633 30.2459 114.221 29.9874 113.911 29.612C113.53 29.15 113.35 28.5661 113.405 27.9678C113.518 26.7331 114.606 25.8208 115.83 25.9341C117.057 26.05 117.96 27.1452 117.847 28.38C117.793 28.9784 117.51 29.5195 117.052 29.9034C116.594 30.2877 116.015 30.469 115.422 30.4137C115.311 30.4034 115.202 30.385 115.095 30.359ZM116.014 26.5662C115.937 26.5473 115.858 26.5339 115.776 26.5262C114.875 26.4429 114.075 27.1139 113.992 28.0224C113.952 28.4623 114.084 28.892 114.364 29.2316C114.645 29.5715 115.039 29.7805 115.476 29.8215C115.912 29.862 116.338 29.7287 116.675 29.4463C117.012 29.1636 117.22 28.7656 117.26 28.3254C117.335 27.4991 116.791 26.7564 116.014 26.5662Z" fill="white"/>
<path d="M114.36 33.5981C114.179 33.5537 113.998 33.4996 113.819 33.436C113.462 33.3092 113.118 33.1458 112.795 32.9496C112.78 32.9407 112.766 32.9318 112.752 32.9229C112.64 32.8537 112.59 32.7217 112.619 32.5998C112.626 32.5701 112.638 32.5411 112.655 32.5138C112.74 32.3739 112.922 32.3311 113.06 32.4164C113.36 32.6024 113.681 32.7566 114.015 32.8749L114.015 32.875C114.033 32.8815 114.052 32.8879 114.07 32.8941C114.861 33.167 115.69 33.2306 116.493 33.0925C116.929 33.0175 117.358 32.8827 117.769 32.6889C117.772 32.6874 117.776 32.6858 117.779 32.6842C117.789 32.6792 117.799 32.6746 117.81 32.6696C119.006 32.0921 119.908 31.0796 120.349 29.8183C120.406 29.6551 120.454 29.4903 120.494 29.3244C120.763 28.208 120.643 27.042 120.145 25.9917C119.572 24.7854 118.568 23.8763 117.317 23.4316C116.067 22.9876 114.719 23.0599 113.523 23.637C112.326 24.2145 111.425 25.227 110.984 26.4883C110.927 26.6487 110.88 26.8116 110.84 26.9758C110.669 27.6881 110.654 28.43 110.799 29.1486C110.808 29.1929 110.807 29.2368 110.797 29.278C110.771 29.3864 110.685 29.4757 110.569 29.4993C110.41 29.5317 110.254 29.4285 110.221 29.2672C110.059 28.463 110.075 27.6328 110.267 26.8361C110.311 26.6521 110.365 26.4701 110.427 26.2905C110.921 24.8793 111.93 23.7465 113.268 23.1005C114.606 22.4548 116.114 22.3718 117.513 22.8706C118.913 23.3681 120.036 24.3852 120.676 25.7351C121.234 26.91 121.368 28.2144 121.067 29.4635C121.023 29.6489 120.969 29.8334 120.905 30.0159C119.949 32.7479 117.094 34.267 114.36 33.5981Z" fill="white"/>
<path d="M45.9128 55.2109C45.8922 54.1918 44.9998 53.3533 43.9057 53.3533H2.55444C1.44577 53.3533 0.356934 54.2356 0.356934 55.2686V147.594C0.356934 148.09 0.664246 148.567 1.04182 148.918C1.4195 149.269 1.97902 149.465 2.51239 149.464L45.7474 149.354C46.2854 149.353 46.8121 149.15 47.1884 148.792C47.5647 148.433 47.7768 147.938 47.7667 147.437L45.9128 55.2109Z" fill="#F0F0F0"/>
<g opacity="0.5">
<path d="M15.4602 64.228L3.68012 64.2133L3.58667 58.5876H15.3782L15.4602 64.228Z" fill="white"/>
<path d="M28.6646 64.2252L16.8963 64.2105L16.8157 58.5876H28.5953L28.6646 64.2252Z" fill="white"/>
<path d="M41.8552 64.2224L30.0988 64.2076L30.031 58.5876H41.7988L41.8552 64.2224Z" fill="white"/>
<path d="M15.6073 74.3288L3.84775 74.3358L3.75464 68.7469L15.5255 68.7424L15.6073 74.3288Z" fill="white"/>
<path d="M28.7885 74.3217L17.0407 74.3287L16.9604 68.7426L28.7195 68.738L28.7885 74.3217Z" fill="white"/>
<path d="M41.9561 74.3135L30.2202 74.3205L30.1526 68.7372L41.8999 68.7327L41.9561 74.3135Z" fill="white"/>
<path d="M15.7537 84.3544L4.01464 84.3659L3.92188 78.7964L15.6723 78.7874L15.7537 84.3544Z" fill="white"/>
<path d="M28.9119 84.3406L17.1846 84.3521L17.1045 78.7854L28.8431 78.7764L28.9119 84.3406Z" fill="white"/>
<path d="M42.0571 84.3286L30.3415 84.3401L30.2742 78.7761L42.0011 78.7671L42.0571 84.3286Z" fill="white"/>
<path d="M15.9001 94.3486L4.18135 94.3645L4.08887 88.8142L15.8189 88.8008L15.9001 94.3486Z" fill="white"/>
<path d="M29.0356 94.3311L17.3286 94.347L17.2488 88.7996L28.9671 88.7861L29.0356 94.3311Z" fill="white"/>
<path d="M42.1578 94.3135L30.4626 94.3294L30.3955 88.7847L42.102 88.7712L42.1578 94.3135Z" fill="white"/>
<path d="M16.0459 104.315L4.34751 104.335L4.25537 98.8038L15.9651 98.7859L16.0459 104.315Z" fill="white"/>
<path d="M29.1587 104.293L17.4721 104.313L17.3926 98.785L29.0905 98.7671L29.1587 104.293Z" fill="white"/>
<path d="M42.258 104.271L30.583 104.291L30.5161 98.7656L42.2024 98.7478L42.258 104.271Z" fill="white"/>
<path d="M16.1909 114.235L4.51276 114.26L4.4209 108.748L16.1103 108.725L16.1909 114.235Z" fill="white"/>
<path d="M29.2809 114.209L17.6144 114.234L17.5352 108.725L29.2129 108.702L29.2809 114.209Z" fill="white"/>
<path d="M42.3578 114.182L30.7029 114.206L30.6362 108.7L42.3023 108.677L42.3578 114.182Z" fill="white"/>
<path d="M16.3359 124.13L4.67794 124.159L4.58643 118.666L16.2556 118.639L16.3359 124.13Z" fill="white"/>
<path d="M29.403 124.092L17.7567 124.121L17.6777 118.631L29.3352 118.604L29.403 124.092Z" fill="white"/>
<path d="M42.4573 124.061L30.8225 124.09L30.7561 118.602L42.402 118.576L42.4573 124.061Z" fill="white"/>
<path d="M16.4803 133.978L4.84239 134.011L4.75122 128.537L16.4002 128.506L16.4803 133.978Z" fill="white"/>
<path d="M29.5252 133.941L17.899 133.975L17.8203 128.503L29.4577 128.472L29.5252 133.941Z" fill="white"/>
<path d="M42.5566 133.905L30.9419 133.939L30.8757 128.47L42.5016 128.439L42.5566 133.905Z" fill="white"/>
<path d="M16.6235 143.81L5.00569 143.847L4.91479 138.392L16.5437 138.357L16.6235 143.81Z" fill="white"/>
<path d="M29.6459 143.762L18.0396 143.799L17.9612 138.347L29.5786 138.312L29.6459 143.762Z" fill="white"/>
<path d="M42.6554 143.722L31.0606 143.759L30.9946 138.309L42.6004 138.274L42.6554 143.722Z" fill="white"/>
</g>
<path d="M157.587 31.8198C157.564 30.5453 156.574 29.4966 155.361 29.4966H109.503C108.273 29.4966 107.066 30.6 107.066 31.8919V147.354C107.066 147.975 107.407 148.571 107.825 149.01C108.244 149.449 108.865 149.694 109.456 149.693L157.403 149.555C158 149.553 158.584 149.3 159.001 148.852C159.419 148.404 159.654 147.785 159.643 147.158L157.587 31.8198Z" fill="#F0F0F0"/>
<g opacity="0.5">
<path d="M123.815 43.1003L110.751 43.0819L110.647 36.0464H123.724L123.815 43.1003Z" fill="white"/>
<path d="M138.458 43.0967L125.407 43.0783L125.318 36.0464H138.381L138.458 43.0967Z" fill="white"/>
<path d="M153.086 43.0932L140.048 43.0747L139.973 36.0464H153.023L153.086 43.0932Z" fill="white"/>
<path d="M123.978 55.7263L110.937 55.7351L110.833 48.7456L123.887 48.74L123.978 55.7263Z" fill="white"/>
<path d="M138.595 55.7166L125.567 55.7253L125.478 48.7393L138.519 48.7336L138.595 55.7166Z" fill="white"/>
<path d="M153.199 55.7075L140.184 55.7162L140.109 48.7337L153.136 48.728L153.199 55.7075Z" fill="white"/>
<path d="M124.14 68.2706L111.122 68.2849L111.019 61.3196L124.05 61.3083L124.14 68.2706Z" fill="white"/>
<path d="M138.733 68.2561L125.727 68.2704L125.638 61.3086L138.656 61.2974L138.733 68.2561Z" fill="white"/>
<path d="M153.31 68.2406L140.318 68.2549L140.243 61.2967L153.248 61.2854L153.31 68.2406Z" fill="white"/>
<path d="M124.303 80.7699L111.307 80.7898L111.204 73.8487L124.213 73.8318L124.303 80.7699Z" fill="white"/>
<path d="M138.869 80.7498L125.886 80.7697L125.798 73.832L138.793 73.8152L138.869 80.7498Z" fill="white"/>
<path d="M153.421 80.727L140.452 80.7469L140.377 73.8127L153.36 73.7959L153.421 80.727Z" fill="white"/>
<path d="M124.464 93.2195L111.491 93.245L111.389 86.3278L124.375 86.3054L124.464 93.2195Z" fill="white"/>
<path d="M139.006 93.1922L126.045 93.2176L125.957 86.3039L138.93 86.2815L139.006 93.1922Z" fill="white"/>
<path d="M153.533 93.1648L140.586 93.1902L140.511 86.2799L153.471 86.2576L153.533 93.1648Z" fill="white"/>
<path d="M124.625 105.635L111.675 105.666L111.573 98.773L124.536 98.7451L124.625 105.635Z" fill="white"/>
<path d="M139.141 105.602L126.203 105.633L126.115 98.7435L139.066 98.7156L139.141 105.602Z" fill="white"/>
<path d="M153.644 105.568L140.719 105.599L140.645 98.7121L153.582 98.6843L153.644 105.568Z" fill="white"/>
<path d="M124.786 118.008L111.857 118.044L111.756 111.175L124.697 111.141L124.786 118.008Z" fill="white"/>
<path d="M139.278 117.963L126.362 118L126.274 111.133L139.202 111.1L139.278 117.963Z" fill="white"/>
<path d="M153.755 117.924L140.852 117.96L140.778 111.097L153.694 111.064L153.755 117.924Z" fill="white"/>
<path d="M124.945 130.336L112.039 130.377L111.938 123.532L124.857 123.493L124.945 130.336Z" fill="white"/>
<path d="M139.412 130.284L126.519 130.326L126.431 123.483L139.337 123.445L139.412 130.284Z" fill="white"/>
<path d="M153.864 130.24L140.983 130.281L140.91 123.442L153.803 123.403L153.864 130.24Z" fill="white"/>
<path d="M125.105 142.615L112.221 142.662L112.12 135.839L125.016 135.795L125.105 142.615Z" fill="white"/>
<path d="M139.546 142.557L126.675 142.604L126.588 135.785L139.472 135.741L139.546 142.557Z" fill="white"/>
<path d="M153.974 142.507L141.115 142.554L141.042 135.738L153.913 135.694L153.974 142.507Z" fill="white"/>
</g>
<path d="M136.966 64.1748C136.955 63.5811 136.453 63.1033 135.839 63.1033H98.5802C97.9576 63.1033 97.2964 63.5958 97.2964 64.1976V148.261C97.2964 148.71 97.5597 149.14 97.8886 149.458C98.2176 149.775 98.7028 149.952 99.1675 149.951L136.835 149.852C137.303 149.851 137.762 149.668 138.089 149.344C138.417 149.02 138.602 148.581 138.593 148.128L136.966 64.1748Z" fill="#F0F0F0"/>
<g opacity="0.56">
<path d="M115.569 69.0576L103.381 69.0168L103.385 67.5425L115.56 67.5797L115.569 69.0576Z" fill="white"/>
<path d="M115.602 74.4849L103.364 74.431L103.369 72.9446L115.593 72.995L115.602 74.4849Z" fill="white"/>
<path d="M115.636 79.9603L103.347 79.8929L103.352 78.3943L115.627 78.458L115.636 79.9603Z" fill="white"/>
<path d="M115.67 85.4806L103.331 85.3995L103.335 83.8884L115.661 83.9658L115.67 85.4806Z" fill="white"/>
<path d="M115.704 91.0498L103.313 90.9548L103.318 89.4312L115.695 89.5223L115.704 91.0498Z" fill="white"/>
<path d="M115.774 102.325L103.279 102.201L103.283 100.652L115.764 100.772L115.774 102.325Z" fill="white"/>
<path d="M115.88 119.595L103.225 119.427L103.23 117.838L115.87 118.002L115.88 119.595Z" fill="white"/>
<path d="M115.739 96.6654L103.296 96.5564L103.3 95.02L115.729 95.1252L115.739 96.6654Z" fill="white"/>
<path d="M115.809 108.032L103.261 107.894L103.266 106.331L115.799 106.465L115.809 108.032Z" fill="white"/>
<path d="M115.844 113.791L103.243 113.638L103.248 112.063L115.835 112.211L115.844 113.791Z" fill="white"/>
<path d="M115.916 125.449L103.207 125.265L103.212 123.663L115.906 123.842L115.916 125.449Z" fill="white"/>
<path d="M115.953 131.351L103.189 131.152L103.194 129.536L115.943 129.731L115.953 131.351Z" fill="white"/>
<path d="M115.989 137.309L103.171 137.094L103.176 135.464L115.979 135.674L115.989 137.309Z" fill="white"/>
<path d="M116.026 143.314L103.152 143.084L103.157 141.439L116.016 141.665L116.026 143.314Z" fill="white"/>
<path d="M131.549 69.1093L119.284 69.0682L119.271 67.5894L131.522 67.6268L131.549 69.1093Z" fill="white"/>
<path d="M131.648 74.5589L119.333 74.5046L119.32 73.0134L131.621 73.0641L131.648 74.5589Z" fill="white"/>
<path d="M131.749 80.0523L119.382 79.9844L119.368 78.481L131.721 78.545L131.749 80.0523Z" fill="white"/>
<path d="M131.85 85.589L119.431 85.5074L119.418 83.9915L131.822 84.0693L131.85 85.589Z" fill="white"/>
<path d="M131.952 91.176L119.482 91.0804L119.468 89.5518L131.924 89.6435L131.952 91.176Z" fill="white"/>
<path d="M132.158 102.487L119.583 102.363L119.569 100.809L132.13 100.929L132.158 102.487Z" fill="white"/>
<path d="M132.475 119.813L119.738 119.644L119.723 118.05L132.446 118.215L132.475 119.813Z" fill="white"/>
<path d="M132.055 96.8028L119.532 96.6931L119.518 95.1516L132.026 95.2574L132.055 96.8028Z" fill="white"/>
<path d="M132.263 108.212L119.634 108.073L119.62 106.505L132.234 106.64L132.263 108.212Z" fill="white"/>
<path d="M132.369 113.989L119.686 113.835L119.672 112.254L132.34 112.404L132.369 113.989Z" fill="white"/>
<path d="M132.582 125.687L119.79 125.503L119.776 123.895L132.552 124.075L132.582 125.687Z" fill="white"/>
<path d="M132.69 131.614L119.843 131.414L119.829 129.792L132.66 129.988L132.69 131.614Z" fill="white"/>
<path d="M132.799 137.591L119.896 137.375L119.882 135.739L132.769 135.951L132.799 137.591Z" fill="white"/>
<path d="M132.91 143.618L119.951 143.386L119.936 141.736L132.88 141.963L132.91 143.618Z" fill="white"/>
</g>
<path d="M87.4294 49.3039C87.4158 48.5967 86.8187 48.0276 86.0871 48.0276H41.7066C40.9651 48.0276 40.1775 48.6142 40.1775 49.3311V149.461C40.1775 149.996 40.4911 150.51 40.8829 150.887C41.2749 151.265 41.8528 151.477 42.4063 151.475L87.2728 151.357C87.8311 151.355 88.3771 151.137 88.7676 150.752C89.1581 150.366 89.378 149.843 89.3675 149.304L87.4294 49.3039Z" fill="#F0F0F0"/>
<g opacity="0.48">
<path d="M61.9424 55.1257L47.4246 55.0771L47.43 53.321L61.9316 53.3653L61.9424 55.1257Z" fill="white"/>
<path d="M61.9823 61.5933L47.4048 61.529L47.4103 59.7585L61.9714 59.8185L61.9823 61.5933Z" fill="white"/>
<path d="M62.0225 68.1173L47.3848 68.037L47.3902 66.252L62.0115 66.3278L62.0225 68.1173Z" fill="white"/>
<path d="M62.0629 74.6872L47.3645 74.5907L47.37 72.7908L62.0518 72.8829L62.0629 74.6872Z" fill="white"/>
<path d="M62.1039 81.3228L47.3442 81.2097L47.3499 79.3948L62.0927 79.5033L62.1039 81.3228Z" fill="white"/>
<path d="M62.1863 94.7482L47.3027 94.6013L47.3084 92.7559L62.1749 92.8981L62.1863 94.7482Z" fill="white"/>
<path d="M62.3129 115.319L47.2395 115.119L47.2454 113.226L62.3012 113.421L62.3129 115.319Z" fill="white"/>
<path d="M62.145 88.0058L47.3237 87.876L47.3293 86.0459L62.1337 86.1712L62.145 88.0058Z" fill="white"/>
<path d="M62.2283 101.546L47.282 101.382L47.2877 99.521L62.2169 99.6805L62.2283 101.546Z" fill="white"/>
<path d="M62.2703 108.405L47.2607 108.223L47.2665 106.346L62.2587 106.523L62.2703 108.405Z" fill="white"/>
<path d="M62.3558 122.292L47.218 122.074L47.2239 120.165L62.344 120.378L62.3558 122.292Z" fill="white"/>
<path d="M62.3992 129.326L47.1965 129.09L47.2025 127.164L62.3873 127.396L62.3992 129.326Z" fill="white"/>
<path d="M62.4429 136.421L47.1748 136.165L47.1807 134.224L62.431 134.474L62.4429 136.421Z" fill="white"/>
<path d="M62.4868 143.58L47.1526 143.306L47.1586 141.347L62.4747 141.617L62.4868 143.58Z" fill="white"/>
<path d="M80.9765 55.1866L66.3676 55.1378L66.3518 53.3762L80.9443 53.4208L80.9765 55.1866Z" fill="white"/>
<path d="M81.095 61.6802L66.4256 61.6155L66.4097 59.8394L81.0625 59.8997L81.095 61.6802Z" fill="white"/>
<path d="M81.2147 68.2176L66.4843 68.1368L66.4683 66.3459L81.1819 66.4223L81.2147 68.2176Z" fill="white"/>
<path d="M81.3348 74.8153L66.543 74.7181L66.5269 72.9124L81.3018 73.005L81.3348 74.8153Z" fill="white"/>
<path d="M81.4565 81.4712L66.6027 81.3575L66.5864 79.5366L81.4231 79.6459L81.4565 81.4712Z" fill="white"/>
<path d="M81.7026 94.9394L66.7234 94.7915L66.7068 92.9399L81.6687 93.0831L81.7026 94.9394Z" fill="white"/>
<path d="M82.0797 115.584L66.9081 115.383L66.8911 113.484L82.0449 113.68L82.0797 115.584Z" fill="white"/>
<path d="M81.5787 88.1755L66.6625 88.0449L66.646 86.2087L81.5451 86.3348L81.5787 88.1755Z" fill="white"/>
<path d="M81.8271 101.765L66.7843 101.6L66.7676 99.7327L81.793 99.8932L81.8271 101.765Z" fill="white"/>
<path d="M81.9529 108.64L66.846 108.457L66.8291 106.574L81.9184 106.752L81.9529 108.64Z" fill="white"/>
<path d="M82.2071 122.579L66.9703 122.359L66.9531 120.444L82.172 120.659L82.2071 122.579Z" fill="white"/>
<path d="M82.3363 129.637L67.0337 129.399L67.0164 127.467L82.3009 127.7L82.3363 129.637Z" fill="white"/>
<path d="M82.4662 136.755L67.0973 136.497L67.0798 134.549L82.4305 134.801L82.4662 136.755Z" fill="white"/>
<path d="M82.5977 143.938L67.162 143.662L67.1443 141.696L82.5617 141.967L82.5977 143.938Z" fill="white"/>
</g>
<path d="M71.706 120.744L68.8347 146.712H102.147L97.8079 120.744H71.706Z" fill="#182452"/>
<path d="M13.7402 54.9066V116.105C13.7402 121.14 17.7185 125.256 22.7092 125.386C44.8754 125.963 122.402 127.36 143.503 127.047C147.129 126.993 150.067 124.066 150.172 120.41C150.579 106.193 151.239 72.005 148.794 56.1329C148.279 52.7904 145.481 50.291 142.129 50.1828C123.556 49.5837 41.373 47.6813 20.2822 48.1589C16.6448 48.2413 13.7402 51.2376 13.7402 54.9066Z" fill="#182452"/>
<path d="M17.5486 54.6074V112.75C17.5486 115.69 19.8884 118.085 22.8029 118.129L140.467 119.595C143.357 119.638 145.725 117.294 145.736 114.38L145.933 56.7563C145.941 54.6726 144.294 52.9654 142.229 52.9147L21.7622 50.4605C19.4518 50.4038 17.5486 52.2769 17.5486 54.6074Z" fill="#EBEBEB"/>
<path opacity="0.65" d="M146.622 122.004C146.621 122.004 146.62 122.004 146.618 122.004L17.5453 119.787C17.4409 119.785 17.3576 119.698 17.3594 119.593C17.3611 119.487 17.4462 119.404 17.5517 119.405L146.625 121.623C146.729 121.625 146.813 121.711 146.811 121.817C146.809 121.921 146.725 122.004 146.622 122.004Z" fill="white"/>
<path d="M109.322 152.023H60.5678C59.2433 152.023 58.2486 151.072 58.5047 150.051L59.1303 147.556C59.3185 146.805 60.1371 146.255 61.1093 146.224L108.111 144.745C109.126 144.713 110.026 145.257 110.247 146.037L111.375 150.01C111.668 151.043 110.668 152.023 109.322 152.023Z" fill="#182452"/>
<path d="M5.7818 62.6294C5.80391 62.6208 17.7028 41.6076 19.3107 39.6301C19.5812 39.2976 19.9998 39.1282 20.4234 39.1791L23.7446 39.5782L27.6463 48.09L21.1462 44.2725C21.7893 48.7583 13.4391 55.4247 10.5754 57.8572C10.2847 58.104 10.2609 58.5462 10.5234 58.8232L11.6667 60.0301C9.78967 61.9488 7.62379 63.1807 5.1792 63.7505L5.7818 62.6294Z" fill="#FDE2D0"/>
<path d="M11.0055 59.3772C11.0055 59.3772 11.7352 59.6149 11.9822 60.2702C12.1004 60.5838 11.973 60.9389 11.7026 61.1342C10.5011 62.0023 6.53782 64.8049 4.70888 65.3537C4.55896 65.3987 4.41633 65.2619 4.45007 65.1079C4.54392 64.6794 4.84752 63.8239 5.82559 62.5713L5.73783 62.7503C5.62677 62.9769 5.8714 63.2127 6.08959 63.0884C7.31285 62.3922 9.80445 60.868 11.0055 59.3772Z" fill="#3C3C48"/>
<path d="M10.4164 67.785C10.4364 67.7721 12.2216 63.4347 12.2415 63.4218C13.8784 53.3722 17.8719 44.7654 19.0497 42.5007C19.2479 42.1198 19.6238 41.8685 20.0489 41.8319L23.3814 41.5449L28.9106 49.0843L21.779 46.6724C23.3091 50.9341 16.4695 59.1666 14.1531 62.1332C13.918 62.4343 13.9834 62.8722 14.2961 63.09L15.6579 64.0386C14.2048 66.3005 12.3309 67.9491 10.0513 69.0059L10.4164 67.785Z" fill="#FDE2D0"/>
<path d="M14.8796 63.5396C14.8796 63.5396 15.6419 63.6234 16.0154 64.2148C16.194 64.4977 16.1406 64.8715 15.9149 65.1181C14.9125 66.2134 11.5936 69.7667 9.91269 70.6775C9.77491 70.7522 9.60777 70.6473 9.60988 70.4896C9.61581 70.0509 9.7414 69.151 10.4479 67.7248L10.3979 67.918C10.3346 68.1625 10.6215 68.3436 10.8102 68.1774C11.8685 67.2457 14.0027 65.2446 14.8796 63.5396Z" fill="#3C3C48"/>
<path d="M38.9808 39.957C38.9808 39.957 41.9955 44.4788 42.2429 46.5414C42.4903 48.604 41.4093 49.3173 38.2539 49.5804C28.8639 50.3632 24.2351 47.5253 24.2351 47.5253C23.5927 43.3953 23.1357 42.3446 17.771 40.099C17.771 40.099 24.5563 40.6423 25.922 40.1078C27.2876 39.5734 38.9808 39.957 38.9808 39.957Z" fill="#3C3C48"/>
<path d="M26.9597 14.6266C26.9597 14.6266 29.0594 12.1214 31.2917 15.1951C31.696 15.7518 33.2489 15.2925 33.8181 16.4578C34.112 17.0594 34.7469 17.4012 35.4009 17.2795C37.0299 16.9765 39.6924 16.9511 41.007 19.5252C42.0104 21.49 41.2356 22.6399 40.2326 23.2955C39.4959 23.777 39.233 24.7545 39.6785 25.5173C40.1058 26.249 40.1861 27.2398 39.0828 28.4322C36.6104 31.1044 31.7161 26.7365 31.7161 26.7365L27.83 17.4764L26.9597 14.6266Z" fill="#3C3C48"/>
<path d="M30.8281 39.3653C30.8281 39.3653 27.3175 35.9943 25.5894 33.7615C24.6552 32.5546 24.3619 30.9657 24.7939 29.498C25.5829 26.8175 26.985 24.0413 27.1129 23.6093C27.3089 22.947 31.2453 22.9745 31.2453 22.9745C31.2453 22.9745 38.9912 28.0441 42.0347 36.6315L38.6167 37.7046C38.6167 37.7046 36.5942 34.283 34.5959 32.1075C34.5959 32.1075 38.0538 36.7139 38.1755 38.5996L30.8281 39.3653Z" fill="#ADADAD"/>
<path d="M24.1389 40.693L26.7768 37.7987L29.8234 38.626C29.8234 38.626 33.3751 39.1809 35.4079 38.626C37.4407 38.0711 37.4407 38.0711 37.4407 38.0711L42.0344 36.6289L42.7559 38.685C42.9391 39.2071 42.755 39.7867 42.3074 40.1074C41.91 40.3922 41.4441 40.7051 41.1472 40.8361C40.5423 41.103 27.2116 40.9205 27.2116 40.9205L24.1389 40.693Z" fill="#FDE2D0"/>
<path d="M28.5398 18.2014L31.1854 23.1625C31.0107 24.2454 28.3059 24.276 27.8881 23.6293C27.8455 23.5635 27.8213 23.4874 27.8051 23.4105L26.2225 20.0957C26.1545 19.7724 27.0333 18.6833 27.3225 18.528L28.3741 17.9636C28.779 17.7463 27.0894 17.7292 28.5398 18.2014Z" fill="#FDE2D0"/>
<path d="M23.1857 17.0343C23.1857 17.0343 22.887 18.7104 24.1934 20.8415C25.4998 22.9725 26.8007 22.8764 27.4616 22.1163C28.1225 21.3563 28.9142 20.0906 28.554 17.965C28.1938 15.8394 23.6369 14.8968 23.1857 17.0343Z" fill="#FDE2D0"/>
<path d="M26.9724 18.1954C26.9724 18.1954 24.857 15.3935 23.233 17.836L23.2604 18.6798C23.2604 18.6798 21.1485 18.5802 21.3775 16.6173C21.6065 14.6543 23.3307 13.3134 25.721 13.9841C28.1113 14.6547 29.508 15.4185 29.778 17.092C30.0479 18.7656 28.6928 18.4921 28.6928 18.4921C28.6928 18.4921 28.1752 17.3373 27.5501 17.2586C26.925 17.1797 27.1509 18.0931 27.1509 18.0931L26.9724 18.1954Z" fill="#3C3C48"/>
<path d="M27.4582 18.1196C27.4582 18.1196 26.3624 16.6857 27.3598 16.3881C28.3573 16.0905 28.3201 17.7931 28.255 18.4266L27.4582 18.1196Z" fill="#FDE2D0"/>
<path d="M32.8707 41.8366C32.8615 41.8371 32.8521 41.8373 32.8428 41.8372L20.7095 41.8239C20.4096 41.8236 20.1667 41.5781 20.167 41.2757C20.1673 40.9731 20.4116 40.7231 20.7107 40.7286L32.844 40.7419C33.1439 40.7422 33.3868 40.9877 33.3865 41.2901C33.3862 41.5832 33.1577 41.8223 32.8707 41.8366Z" fill="#F0F0F0"/>
<path d="M9.80239 30.7271H19.907C20.6524 30.7271 21.3309 31.1608 21.6489 31.8407L26.3203 41.8295H13.7629C13.2825 41.8295 12.8509 41.5335 12.6743 41.083L9.05187 31.8399C8.84263 31.3058 9.2329 30.7271 9.80239 30.7271Z" fill="#F0F0F0"/>
<path d="M16.9208 35.8482C17.1398 36.5343 16.9781 37.2006 16.5595 37.3364C16.141 37.4722 15.6242 37.0262 15.4053 36.3401C15.1863 35.6541 15.348 34.9878 15.7666 34.852C16.1851 34.7162 16.7019 35.1622 16.9208 35.8482Z" fill="#ADADAD"/>
<path d="M68.3536 152.505C68.3536 152.505 61.0838 160.587 55.0124 157.171C50.1328 154.426 57.0653 155.143 62.9458 153.846C63.4073 153.745 63.2865 153.049 62.8182 153.111C58.2172 153.727 51.1969 154.229 49.9775 151.81C48.1367 148.158 49.9218 149.343 55.5242 149.87C61.1266 150.398 62.2061 149.003 58.5491 148.134C54.8921 147.265 49.0747 149.187 47.7195 147.4C46.3643 145.613 45.6236 142.065 45.0834 140.54C44.5432 139.014 52.0572 136.725 54.0886 138.728C56.12 140.731 57.7696 145.201 60.1803 146.017C62.5911 146.833 59.9978 142.879 58.399 140.838C56.8001 138.797 56.1663 137.28 59.3606 137.767C62.5549 138.254 64.2435 142.185 64.5802 145.12C64.9169 148.054 66.042 149.696 65.9911 148.244C65.9401 146.792 65.4177 142.34 64.3967 141.001C63.3758 139.663 70.6641 141.296 68.3536 152.505Z" fill="#95C6AF"/>
<path opacity="0.53" d="M67.7616 152.582C67.7297 152.594 67.6922 152.589 67.6646 152.564C61.4248 147.059 50.9592 143.058 50.8542 143.018C50.8047 143 50.7798 142.944 50.7984 142.894C50.8169 142.845 50.872 142.819 50.9214 142.838C51.0267 142.878 61.5242 146.891 67.7906 152.419C67.8302 152.454 67.8343 152.515 67.7995 152.555C67.7889 152.568 67.7758 152.576 67.7616 152.582Z" fill="white"/>
<path d="M72.7428 157.662C72.7428 157.662 59.4665 158.104 57.2658 149.788C55.4972 143.105 60.7926 149.881 66.9502 154C67.4335 154.324 67.9384 153.622 67.4835 153.259C63.0152 149.694 56.5781 143.883 57.6513 140.732C59.2715 135.976 59.7611 138.574 64.086 144.006C68.411 149.437 70.5527 149.205 68.1882 145.211C65.8236 141.218 59.1736 137.688 59.5782 134.957C59.9827 132.225 62.4509 128.536 63.3232 126.753C64.1953 124.969 72.6157 129.694 72.6003 133.211C72.585 136.728 70.0863 142.013 71.4324 144.853C72.7784 147.694 74.0198 142.01 74.4382 138.845C74.8565 135.68 75.6411 133.821 77.9445 137.077C80.2478 140.332 78.2534 145.192 75.9755 147.998C73.6977 150.805 73.2239 153.207 74.4496 151.922C75.6753 150.636 79.1213 146.368 79.4195 144.317C79.7176 142.266 84.5158 150.141 72.7428 157.662Z" fill="#95C6AF"/>
<path opacity="0.53" d="M72.1698 157.204C72.1318 157.186 72.1045 157.148 72.1023 157.103C71.5841 146.852 66.1414 134.13 66.0864 134.003C66.0606 133.943 66.0878 133.873 66.1472 133.847C66.2064 133.821 66.2757 133.849 66.3016 133.909C66.3567 134.036 71.8164 146.797 72.3366 157.091C72.3399 157.156 72.2901 157.212 72.2254 157.215C72.2054 157.216 72.1866 157.212 72.1698 157.204Z" fill="white"/>
<path d="M19.1085 17.7071C20.0374 16.534 20.5724 15.1568 20.5724 13.6836C20.5724 9.39972 16.0492 5.927 10.4697 5.927C4.89017 5.927 0.366943 9.39978 0.366943 13.6836C0.366943 17.9674 4.89011 21.4402 10.4696 21.4402C12.5608 21.4402 14.5036 20.9524 16.1154 20.1169C17.1808 20.3002 18.8346 20.6081 19.7073 20.7719C19.9643 20.8201 20.1748 20.5667 20.0828 20.32L19.1085 17.7071Z" fill="#EBEBEB"/>
<path d="M10.8473 15.1708L10.1344 15.1388C9.93803 15.13 9.77637 14.9345 9.76617 14.7076L9.511 9.02816C9.50575 8.91151 9.54205 8.81268 9.6114 8.72878C9.6808 8.64483 9.77728 8.61265 9.87831 8.6138L11.1061 8.62788C11.2085 8.62908 11.3064 8.66103 11.3771 8.7474C11.4477 8.83377 11.4847 8.94065 11.4794 9.05833L11.2198 14.774C11.2093 15.0018 11.0455 15.1798 10.8473 15.1708Z" fill="#FF7312"/>
<path d="M9.7536 16.5427C9.92859 16.3559 10.1762 16.2704 10.4969 16.2866C10.8305 16.3035 11.0852 16.4128 11.2606 16.6146C11.4363 16.8168 11.5243 17.1067 11.5243 17.484C11.5243 17.8478 11.4344 18.1242 11.2548 18.313C11.0755 18.5016 10.8227 18.5855 10.4969 18.5653C10.18 18.5455 9.93338 18.4288 9.75645 18.2154C9.57991 18.0023 9.4917 17.7203 9.4917 17.3692C9.49176 17.0047 9.57894 16.7293 9.7536 16.5427Z" fill="#FF7312"/>
<path d="M116.273 101.151C134.739 82.5293 134.739 52.3382 116.273 33.7169C97.8071 15.0956 67.8679 15.0956 49.402 33.7169C30.9361 52.3383 30.9361 82.5294 49.402 101.151C67.8679 119.772 97.807 119.772 116.273 101.151Z" fill="white"/>
<path d="M82.8388 113.531C108.085 113.531 128.552 92.8921 128.552 67.433C128.552 41.9739 108.085 21.3352 82.8388 21.3352C57.5922 21.3352 37.1257 41.9739 37.1257 67.433C37.1257 92.8921 57.5922 113.531 82.8388 113.531Z" fill="#FF7312"/>
<path d="M109.199 96.0282C124.309 80.7916 124.309 56.0882 109.199 40.8517C94.0899 25.6151 69.5927 25.6151 54.4833 40.8517C39.3738 56.0882 39.3738 80.7916 54.4833 96.0282C69.5927 111.265 94.0899 111.265 109.199 96.0282Z" fill="white"/>
<mask id="mask0_5238_159" style="mask-type:luminance" maskUnits="userSpaceOnUse" x="42" y="13" width="79" height="95">
<path d="M43.1525 60.3065C41.1595 79.256 49.1025 95.1555 63.1091 102.676C68.5042 105.573 74.8355 107.703 81.7909 107.579C94.6623 107.35 104.542 101.821 111.733 93.2567C119.154 84.4179 121.703 72.8549 120.534 60.3065C118.117 34.3819 103.211 13.1589 81.8431 13.1589C60.4748 13.159 45.8758 34.4129 43.1525 60.3065Z" fill="white"/>
</mask>
<g mask="url(#mask0_5238_159)">
<path d="M102.842 110.461L97.2458 51.3284C83.8058 46.3195 66.8594 51.9177 66.8594 51.9177L64.2424 110.461H102.842Z" fill="white"/>
<path d="M76.2095 41.3083L75.9572 49.7021C75.9323 50.5321 76.4427 51.2801 77.2194 51.5564C79.3476 52.3133 83.7535 53.4643 87.9288 51.9567C88.7711 51.6526 89.2781 50.7831 89.148 49.8904L87.8964 41.3083H76.2095Z" fill="#FDE2D0"/>
<path d="M78.5806 110.462C80.0615 108.969 80.8842 107.9 80.8842 107.9L79.1313 102.891C79.1313 102.891 64.8146 111.141 60.1398 107.016C55.465 102.891 63.3539 78.7309 63.3539 78.7309L51.9588 57.8118C51.9588 57.8118 42.3944 89.9678 45.6105 107.54C45.9201 109.231 47.3823 110.462 49.0879 110.462H78.5806Z" fill="#ADADAD"/>
<path d="M76.0568 46.3782L82.562 52.6674L77.8645 55.8984L73.7117 50.2618L76.0568 46.3782Z" fill="#ADADAD"/>
<path d="M88.5154 46.3782L82.0103 52.6674L86.7078 55.8984L90.8605 50.2618L88.5154 46.3782Z" fill="#ADADAD"/>
<path d="M71.9524 25.9901C71.9524 25.9901 73.4133 41.0165 76.6272 44.8467C76.6272 44.8467 86.2691 45.7307 89.7751 43.6682C89.7751 43.6682 92.2587 36.1551 91.9664 26.1375C91.9664 26.1375 92.4452 17.0216 82.4708 16.2672C70.7837 15.3833 71.9524 25.9901 71.9524 25.9901Z" fill="#FDE2D0"/>
<path d="M90.9441 30.6995C90.9441 30.6995 91.8207 28.0479 93.2814 28.0479C94.7423 28.0479 92.9893 35.1191 90.9441 35.1191V30.6995Z" fill="#FDE2D0"/>
<path d="M73.2819 31.3985C73.2819 31.3985 72.0588 28.8901 70.6112 29.0888C69.1637 29.2874 71.8463 36.0557 73.8728 35.7777L73.2819 31.3985Z" fill="#FDE2D0"/>
<path d="M88.0223 22.4504C88.0223 22.4504 80.5783 30.171 72.4672 30.1409C72.4672 30.1409 67.8622 17.7363 76.9196 15.6738C85.977 13.6114 86.2692 16.263 86.2692 16.263C86.2692 16.263 96.693 13.6282 91.9816 28.7877L88.0223 22.4504Z" fill="#3C3C48"/>
<path d="M90.4909 110.459H117.617C118.838 110.459 119.974 109.824 120.62 108.78C132.308 89.9238 115.653 58.9871 115.653 58.9871L106.888 82.2632C106.888 82.2632 114.485 89.9237 110.394 102.004C106.304 114.084 89.6499 104.656 89.6499 104.656L90.2341 110.254C90.2341 110.254 90.3243 110.328 90.4909 110.459Z" fill="url(#paint0_linear_5238_159)"/>
<path d="M81.6006 53.1993L79.1736 54.8648L80.8843 58.2196H83.6735L85.5378 55.1008L82.361 52.9094L81.6006 53.1993Z" fill="#ADADAD"/>
<path d="M80.8841 58.2205L78.9907 90.0069L83.8058 98.7871L88.6524 90.3239L83.6733 58.2205H80.8841Z" fill="#ADADAD"/>
<path d="M60.5019 78.6981C62.5746 83.7667 63.5645 89.2188 63.407 94.699L62.9541 110.457H84.9232L83.806 88.0085L73.7119 50.2595C64.3623 51.7328 51.9587 57.8067 51.9587 57.8067L60.5019 78.6981Z" fill="#F5F5F5"/>
<path d="M105.049 110.462L105.719 97.3886C105.719 90.6954 106.851 84.0512 109.067 77.7419L115.653 58.9902C107.18 51.3298 90.4946 49.6584 90.4946 49.6584L83.8059 88.0135V110.462H105.049Z" fill="#F5F5F5"/>
<path d="M81.9552 86.6911C81.91 86.6911 81.865 86.672 81.833 86.6347L72.839 76.1749C72.8194 76.1523 72.8064 76.1243 72.8015 76.0943L71.895 70.4878L68.5663 69.8125C68.4931 69.7975 68.4396 69.7344 68.4367 69.6592L67.7208 51.9104C67.7172 51.8202 67.7865 51.7445 67.8758 51.7406C67.9685 51.7372 68.0403 51.8069 68.044 51.897L68.7546 69.5179L72.0686 70.1903C72.1347 70.2037 72.1855 70.2569 72.1964 70.3241L73.1135 75.9962L82.0775 86.4213C82.1359 86.4892 82.1286 86.5924 82.0612 86.6513C82.0306 86.678 81.9928 86.6911 81.9552 86.6911Z" fill="#ADADAD"/>
<path d="M84.972 86.6902C84.9344 86.6902 84.8967 86.6771 84.866 86.6501C84.7986 86.5906 84.7913 86.4866 84.8498 86.4181L93.8138 75.9044L94.7309 70.184C94.7418 70.1162 94.7927 70.0626 94.8586 70.0491L98.1727 69.3709L98.8832 51.6002C98.8867 51.5093 98.9543 51.4393 99.0514 51.4425C99.1407 51.4464 99.21 51.5228 99.2064 51.6137L98.4906 69.5134C98.4876 69.5893 98.434 69.6529 98.361 69.668L95.0322 70.3491L94.1257 76.0033C94.1208 76.0335 94.1078 76.0618 94.0883 76.0845L85.0943 86.6332C85.0622 86.6709 85.0172 86.6902 84.972 86.6902Z" fill="#ADADAD"/>
</g>
<path d="M59.7168 103.143L54.3733 98.7987L105.495 33.2888L110.197 36.8695L59.7168 103.143Z" fill="#FF7312"/>
<path d="M130.031 103.245C130.031 103.245 118.218 107.999 119.207 111.737C120.195 115.475 126.621 109.245 126.621 109.245L130.031 103.245Z" fill="#FDE2D0"/>
<path d="M121.432 120.464H122.667V86.5715H121.432V120.464Z" fill="url(#paint1_linear_5238_159)"/>
<path d="M136.47 65.2253L134.306 86.8562C134.154 88.3679 132.845 89.4887 131.341 89.3938L112.782 88.2241C111.37 88.1351 110.246 86.9995 110.159 85.5758L108.782 62.9643C108.676 61.2293 110.134 59.8101 111.849 59.977L133.95 62.1275C135.496 62.2779 136.626 63.667 136.47 65.2253Z" fill="#DEE5FF"/>
<path d="M134.618 90.2219C134.618 90.2219 135.622 90.6697 136.743 92.6993C137.297 93.7017 138.044 95.9106 138.203 97.9398C138.285 98.9875 138.776 99.8266 139.437 99.9864C141.082 100.385 143.617 101.734 144.023 106.247C144.333 109.691 143.221 110.997 142.055 111.449C141.198 111.781 140.629 113.097 140.802 114.464C140.968 115.774 140.72 117.289 139.283 118.487C136.062 121.172 132.845 112.127 132.845 112.127L132.186 96.3339L134.618 90.2219Z" fill="#3C3C48"/>
<path d="M149.041 161.05L149.267 162.923C149.31 163.278 149.587 163.559 149.94 163.6C150.536 163.668 151.491 163.739 152.426 163.639C152.837 163.595 153.103 163.176 152.978 162.78C152.75 162.056 152.333 160.971 151.732 160.332H149.671C149.29 160.332 148.995 160.668 149.041 161.05Z" fill="#3C3C48"/>
<path d="M132.901 139.109L132.553 141.172C132.553 141.172 133.718 153.07 133.925 157.828C133.957 158.575 133.766 159.312 133.378 159.948L131.352 163.265L136.5 160.202L136.602 159.568L135.759 158.4L136.863 145.072C136.928 144.289 136.768 143.503 136.402 142.81L135.337 140.793L132.901 139.109Z" fill="#FDE2D0"/>
<path d="M131.013 163.745H132.656C132.963 163.745 133.253 163.603 133.441 163.357C133.953 162.686 135.014 161.377 135.521 161.343C136.204 161.297 136.117 163.745 136.117 163.745H136.5L136.985 160.703C137.107 159.938 136.729 159.179 136.047 158.821C136.047 158.821 135.891 159.985 135.045 160.5C134.198 161.015 131.6 162.859 131.6 162.859C131.6 162.859 131.282 162.813 130.932 162.877C130.414 162.972 130.487 163.745 131.013 163.745Z" fill="#3C3C48"/>
<path d="M139.951 140.084C139.951 140.084 146.775 153.137 147.859 156.117C148.944 159.097 149.324 161.583 149.339 161.819C149.361 162.186 149.815 162.539 151.066 162.539C151.711 162.539 152.027 162.278 152.182 162.026C152.314 161.81 152.321 161.541 152.21 161.314C151.815 160.508 150.563 157.934 150.099 156.766C149.545 155.372 148.353 149.054 147.7 146.858C147.046 144.661 146.308 142.279 143.462 140.084C143.462 140.084 141.509 138.155 139.951 140.084Z" fill="#FDE2D0"/>
<path d="M135.64 118.703C133.88 111.181 138.483 107.507 138.483 107.507C138.236 104.517 130.399 102.964 130.399 102.964C130.399 102.964 125.508 106.571 126.088 109.393C126.428 111.048 129.526 119.303 129.526 119.303C129.526 119.303 132.391 120.67 135.64 118.703Z" fill="#ADADAD"/>
<path d="M139.543 122.422C138.827 120.246 135.64 118.698 135.64 118.698C132.391 120.666 129.526 119.299 129.526 119.299C129.526 119.299 128.884 121.775 129.327 124.077C129.771 126.378 132.553 141.169 132.553 141.169C136.937 142.065 143.679 140.268 143.679 140.268C140.886 135.269 140.259 124.598 139.543 122.422Z" fill="#3C3C48"/>
<path d="M133.597 97.9916L135.028 104.474C135.165 105.045 134.649 104.951 134.077 104.842C133.139 104.664 131.931 104.297 131.527 103.562C131.486 103.487 131.466 103.402 131.454 103.317L130.839 98.8224C130.79 98.4659 130.982 98.1197 131.308 97.9738L132.494 97.4433C132.951 97.239 133.48 97.5018 133.597 97.9916Z" fill="#FDE2D0"/>
<path d="M131.918 91.8216C131.918 91.8216 130.223 92.5433 129.071 95.013C127.918 97.4827 128.779 98.6231 129.86 98.7797C130.941 98.9362 132.557 98.9123 134.267 97.3169C135.977 95.7215 134.121 90.9661 131.918 91.8216Z" fill="#FDE2D0"/>
<path d="M133.118 95.9992C133.118 95.9992 134.397 92.3859 131.22 92.3431L130.472 92.87C130.472 92.87 129.307 90.8666 131.22 89.9103C133.133 88.954 135.372 89.7439 136.186 92.3431C137 94.9423 137.139 96.6822 135.785 97.9257C134.43 99.1693 133.872 97.7593 133.872 97.7593C133.872 97.7593 134.61 96.5962 134.31 95.9739C134.009 95.3516 133.317 96.1026 133.317 96.1026L133.118 95.9992Z" fill="#3C3C48"/>
<path d="M133.154 96.5337C133.154 96.5337 133.801 94.6724 134.663 95.4137C135.526 96.1549 133.962 97.133 133.35 97.4499L133.154 96.5337Z" fill="#FDE2D0"/>
<path d="M138.483 107.504C138.483 107.504 139.966 115.23 133.541 117.223C127.116 119.217 122.631 110.467 122.631 110.467C122.631 110.467 121.432 109.249 121.432 107.754C121.432 106.258 122.667 105.198 122.667 105.198C122.667 105.198 124.644 108.003 124.644 109.498C124.644 110.993 130.822 115.23 133.047 113.984C135.208 112.773 135.239 110.294 135.12 109.131C135.073 108.673 135.211 108.217 135.511 107.871C136.176 107.103 137.63 106.3 138.483 107.504Z" fill="#FDE2D0"/>
<path d="M120.963 110.87L121.148 113.479C121.171 113.799 121.513 113.994 121.792 113.841C122.048 113.702 122.357 113.437 122.667 112.938C123.347 111.842 122.778 110.492 121.342 110.471C121.124 110.467 120.948 110.65 120.963 110.87Z" fill="url(#paint2_linear_5238_159)"/>
<path d="M123.301 77.9854L122.078 77.9306C121.742 77.9155 121.465 77.5803 121.447 77.1912L121.01 67.4541C121.001 67.2541 121.063 67.0846 121.182 66.9408C121.301 66.7969 121.466 66.7417 121.639 66.7437L123.744 66.7679C123.92 66.7699 124.088 66.8248 124.209 66.9728C124.33 67.1209 124.393 67.3041 124.384 67.5059L123.939 77.3052C123.921 77.6956 123.641 78.0006 123.301 77.9854Z" fill="#FF7312"/>
<path d="M121.425 80.336C121.725 80.0156 122.15 79.869 122.7 79.8969C123.271 79.9259 123.708 80.1132 124.009 80.4592C124.31 80.8059 124.461 81.3028 124.461 81.9497C124.461 82.5734 124.307 83.0474 123.999 83.3712C123.692 83.6944 123.258 83.8383 122.7 83.8035C122.156 83.7697 121.733 83.5696 121.43 83.2036C121.128 82.8384 120.976 82.3549 120.976 81.7529C120.976 81.1279 121.126 80.6558 121.425 80.336Z" fill="#FF7312"/>
<path d="M24.5771 106.995C24.5771 106.995 31.6996 115.742 34.3199 113.634C36.9401 111.526 29.8661 100.036 29.8661 100.036L24.5771 106.995Z" fill="#ADADAD"/>
<path d="M24.8686 163.798C24.8692 163.755 24.8664 163.712 24.8554 163.668C24.2122 161.096 21.0196 159.494 21.0196 159.494L19.7545 159.594C19.0271 161.861 19.1206 163.251 19.2373 163.87C19.2406 163.888 19.2458 163.904 19.2504 163.921C20.294 164.015 22.442 164.076 24.8686 163.798Z" fill="#3C3C48"/>
<path d="M19.2458 157.691L19.7817 160.292C19.8209 160.483 19.9662 160.626 20.1421 160.642C20.3574 160.663 20.6639 160.675 20.9722 160.629C21.2486 160.588 21.4411 160.305 21.3921 160.001L21.0197 157.691H19.2458Z" fill="#FDE2D0"/>
<path d="M36.0749 163.682C36.0656 163.662 36.0577 163.642 36.0446 163.623C35.367 162.669 33.6414 160.768 30.2317 159.943L28.5959 159.891C28.5959 159.891 27.8675 161.168 27.8538 163.533C28.2273 163.687 28.9501 163.852 30.3473 163.892C32.5072 163.953 35.0691 163.765 36.0749 163.682Z" fill="#3C3C48"/>
<path d="M28.293 157.394C28.3111 157.517 28.5354 159.385 28.6222 160.11C28.6428 160.282 28.7664 160.415 28.9224 160.434C29.2009 160.468 29.6517 160.498 30.046 160.417C30.2587 160.373 30.4128 160.167 30.4128 159.927V156.994L28.293 157.394Z" fill="#FDE2D0"/>
<path d="M26.9805 123.287C26.9805 123.287 30.9258 138.407 30.8545 157.434C30.8532 157.781 30.6116 158.08 30.275 158.152C29.779 158.257 29.0498 158.382 28.4461 158.365C28.1239 158.356 27.8545 158.115 27.8003 157.795C27.2471 154.523 24.0724 136.094 22.2635 133.102C22.2635 133.102 21.0735 149.516 21.4539 158.032C21.4633 158.244 21.3096 158.427 21.1008 158.452C20.784 158.488 20.2773 158.516 19.6325 158.447C19.3877 158.421 19.1902 158.235 19.1553 157.989C18.7612 155.22 16.4932 138.74 16.5897 126.868C16.5951 126.198 18.3454 123.287 18.3454 123.287H26.9805Z" fill="#3C3C48"/>
<path d="M29.6978 100.116C24.2682 99.3238 18.3039 100.05 15.4091 100.418C14.4719 100.537 13.6146 101.003 12.997 101.724C10.5475 104.582 5.17257 112.408 11.4991 120.294C12.3087 119.841 13.4592 119.114 14.2405 118.273C13.5406 116.284 13.4833 113.741 14.9501 110.623C15.0003 110.87 15.0622 111.115 15.1375 111.356C17.1593 117.815 17.2671 123.19 17.2626 124.428C17.2619 124.597 17.3621 124.748 17.517 124.81C20.1778 125.886 25.2998 125.246 27.0192 124.987C27.3344 124.94 27.5466 124.644 27.503 124.326C26.8982 119.907 28.9517 113.445 30.5847 109.204C31.23 107.528 30.0357 100.585 29.6978 100.116Z" fill="#ADADAD"/>
<path d="M21.0439 93.6919L20.2943 99.9408C20.2603 100.224 20.4332 100.492 20.705 100.572C21.5187 100.812 23.2605 101.176 24.8522 100.515C25.1543 100.39 25.3211 100.06 25.2518 99.7383L24.304 95.3401L21.0439 93.6919Z" fill="#FDE2D0"/>
<path d="M25.9036 89.2447C25.9504 89.3309 26.9537 95.7471 26.9537 95.7471L23.3085 96.2469L21.4617 90.3081C21.4617 90.3081 25.1203 87.8021 25.9036 89.2447Z" fill="#FDE2D0"/>
<path d="M22.8124 90.9026C22.7088 91.0308 22.6699 91.199 22.7065 91.3601L23.4255 94.5169C23.4364 94.5648 23.453 94.6103 23.4767 94.6533C23.6071 94.8902 24.0822 95.6109 24.8013 95.078C25.4142 94.6238 25.9837 94.215 26.4792 94.1319C26.7687 94.0834 27.0399 94.287 27.0845 94.5795C27.1764 95.1818 27.3375 96.401 27.3298 97.5045C27.3278 97.7811 27.1127 98.0081 26.8391 98.0275C26.1171 98.0788 24.7043 98.1364 23.5353 97.925C23.3432 97.8903 23.1865 97.7524 23.1259 97.5654C22.8592 96.7425 22.1022 94.4391 21.7893 93.822C21.4986 93.2487 20.6521 93.1512 20.2609 93.1374C20.1124 93.1322 19.974 93.0658 19.8766 92.9526C19.5848 92.613 19.1286 91.8562 20.008 91.1169C20.2266 90.933 20.2525 90.6011 20.0748 90.3769C19.7563 89.9751 19.4794 89.3263 20.162 88.6466C20.8531 87.9586 21.6343 88.1329 22.1296 88.3658C22.3488 88.4688 22.6194 88.4241 22.7762 88.2385C22.8459 88.1559 22.9491 88.0999 23.1019 88.1176C23.3901 88.151 23.648 87.9599 23.683 87.6695C23.7431 87.1716 24.0078 86.586 24.8815 86.4183C26.484 86.1107 27.2784 87.7294 27.2466 88.8653C27.2148 90.0013 25.4587 90.2351 24.4632 90.0437C23.732 89.903 23.0976 90.5495 22.8124 90.9026Z" fill="#3C3C48"/>
<path d="M22.0663 94.986C22.0663 94.986 22.0374 93.0042 21.2426 92.8158C20.4478 92.6274 19.588 93.2048 20.2649 94.3932C21.1069 95.8714 22.0663 94.986 22.0663 94.986Z" fill="#FDE2D0"/>
<path d="M14.2406 118.272C13.4593 119.113 12.3088 119.84 11.4993 120.293C12.7083 121.8 14.3442 123.309 16.5099 124.786L16.7719 125.379C16.9963 125.887 17.4869 126.224 18.0377 126.25C21.0645 126.396 21.9021 125.748 19.1157 123.789C19.1157 123.789 15.5522 122 14.2406 118.272Z" fill="#FDE2D0"/>
<path d="M36.4941 105.023C36.4941 105.023 32.6748 109.027 31.7924 110.48C30.91 111.932 31.8922 114.577 33.8967 113.963C35.9013 113.349 38.2348 106.402 38.2348 106.402L36.4941 105.023Z" fill="#FDE2D0"/>
<path d="M30.1008 99.3406C30.1008 99.3406 33.4572 108.267 34.5176 110.124C35.7485 112.279 39.3434 110.906 39.1645 109.102C38.9856 107.298 34.7855 99.8416 34.7855 99.8416L30.1008 99.3406Z" fill="#ADADAD"/>
<path d="M34.636 92.8332L55.497 85.5396L55.2779 105.277L34.0659 100.505L34.636 92.8332Z" fill="#ADADAD"/>
<path d="M55.5166 105.611C56.6485 105.611 57.5661 101.07 57.5661 95.4677C57.5661 89.8656 56.6485 85.3242 55.5166 85.3242C54.3846 85.3242 53.467 89.8656 53.467 95.4677C53.467 101.07 54.3846 105.611 55.5166 105.611Z" fill="#FF7312"/>
<path d="M55.672 104.92C55.4867 104.73 55.0832 103.997 54.7372 102.102C54.4029 100.271 54.2188 97.8951 54.2188 95.4131C54.2188 92.9311 54.4029 90.5556 54.7372 88.724C55.0832 86.8289 55.4867 86.096 55.672 85.906C55.8573 86.096 56.2608 86.8289 56.6068 88.724C56.9411 90.5555 57.1252 92.9311 57.1252 95.4131C57.1252 97.8951 56.9411 100.271 56.6068 102.102C56.2608 103.997 55.8573 104.73 55.672 104.92Z" fill="white"/>
<path d="M31.2714 92.4119C32.2528 92.2969 33.66 92.2556 35.1815 92.6069C34.6802 95.2475 34.7559 97.9998 35.3356 100.85H31.0442C30.36 100.85 29.7766 100.349 29.6699 99.667C29.456 98.3009 29.1945 96.0049 29.4733 94.1608C29.6132 93.2354 30.3493 92.5198 31.2714 92.4119Z" fill="#FF7312"/>
<path d="M33.8468 94.4807H30.5033C30.3732 94.4807 30.2538 94.4091 30.1916 94.2939C30.1294 94.1787 30.1347 94.0387 30.2055 93.9286C30.246 93.8651 30.3303 93.8471 30.3933 93.8881C30.4562 93.9291 30.4742 94.0139 30.4334 94.0775C30.4093 94.1152 30.4232 94.1499 30.4302 94.163C30.4373 94.1762 30.4586 94.2068 30.5033 94.2068H33.8468C33.8927 94.2068 33.93 94.1691 33.93 94.123V93.8832C33.93 93.8369 33.8927 93.7993 33.8468 93.7993H30.4785C30.4035 93.7993 30.3427 93.7379 30.3427 93.6623C30.3427 93.5867 30.4035 93.5254 30.4785 93.5254H33.8468C34.0425 93.5254 34.2016 93.6859 34.2016 93.8832V94.1231C34.2016 94.3202 34.0425 94.4807 33.8468 94.4807Z" fill="#91B3FA"/>
<path d="M33.5486 95.9773H30.2051C30.075 95.9773 29.9556 95.9058 29.8935 95.7906C29.8314 95.6754 29.8366 95.5354 29.9073 95.4253C29.948 95.3616 30.0321 95.3435 30.0951 95.3846C30.1581 95.4258 30.1761 95.5105 30.1354 95.574C30.1112 95.6118 30.1251 95.6465 30.1321 95.6597C30.1392 95.6728 30.1605 95.7034 30.2052 95.7034H33.5487C33.5946 95.7034 33.6319 95.6657 33.6319 95.6196V95.3797C33.6319 95.3335 33.5946 95.2958 33.5487 95.2958H30.1803C30.1053 95.2958 30.0445 95.2345 30.0445 95.1589C30.0445 95.0833 30.1053 95.022 30.1803 95.022H33.5487C33.7444 95.022 33.9035 95.1825 33.9035 95.3798V95.6196C33.9035 95.8168 33.7443 95.9773 33.5486 95.9773Z" fill="#91B3FA"/>
<path d="M33.847 97.7252H30.5035C30.3734 97.7252 30.254 97.6536 30.1919 97.5385C30.1297 97.4233 30.135 97.2833 30.2056 97.1731C30.2464 97.1094 30.3306 97.0915 30.3934 97.1324C30.4565 97.1735 30.4744 97.2583 30.4337 97.3218C30.4094 97.3596 30.4234 97.3944 30.4305 97.4075C30.4375 97.4207 30.459 97.4513 30.5035 97.4513H33.847C33.8929 97.4513 33.9302 97.4137 33.9302 97.3674V97.1275C33.9302 97.0813 33.8929 97.0438 33.847 97.0438H30.4787C30.4037 97.0438 30.3429 96.9824 30.3429 96.9068C30.3429 96.8311 30.4037 96.7698 30.4787 96.7698H33.847C34.0427 96.7698 34.2019 96.9303 34.2019 97.1275V97.3674C34.2018 97.5647 34.0426 97.7252 33.847 97.7252Z" fill="#91B3FA"/>
<path d="M34.16 99.6692H30.8165C30.6864 99.6692 30.567 99.5976 30.5049 99.4824C30.4427 99.3672 30.4479 99.2272 30.5185 99.1171C30.5593 99.0535 30.6434 99.0354 30.7064 99.0765C30.7694 99.1175 30.7873 99.2024 30.7467 99.2659C30.7225 99.3037 30.7363 99.3383 30.7435 99.3515C30.7506 99.3648 30.772 99.3953 30.8165 99.3953H34.1601C34.2059 99.3953 34.2432 99.3577 34.2432 99.3115V99.0716C34.2432 99.0254 34.2059 98.9878 34.1601 98.9878H30.7917C30.7167 98.9878 30.6559 98.9264 30.6559 98.8508C30.6559 98.7752 30.7167 98.7139 30.7917 98.7139H34.1601C34.3556 98.7139 34.5148 98.8744 34.5148 99.0716V99.3115C34.5148 99.5088 34.3556 99.6692 34.16 99.6692Z" fill="#91B3FA"/>
<path d="M32.1749 102.109C32.1231 102.109 32.0736 102.079 32.0509 102.029L31.753 101.361C31.7222 101.292 31.7527 101.211 31.8211 101.18C31.8893 101.149 31.97 101.18 32.0007 101.249L32.2987 101.916C32.3295 101.985 32.299 102.066 32.2305 102.097C32.2125 102.106 32.1936 102.109 32.1749 102.109Z" fill="#91B3FA"/>
<path d="M35.048 102.725C35.048 102.725 36.1361 101.793 36.9865 102.725C37.8369 103.656 38.0051 105.282 37.8321 105.361C37.6591 105.441 32.4009 104.124 35.048 102.725Z" fill="#FDE2D0"/>
<defs>
<linearGradient id="paint0_linear_5238_159" x1="75.7624" y1="39.6426" x2="129.823" y2="127.611" gradientUnits="userSpaceOnUse">
<stop offset="1" stop-color="#ADADAD"/>
</linearGradient>
<linearGradient id="paint1_linear_5238_159" x1="122.667" y1="103.518" x2="121.432" y2="103.518" gradientUnits="userSpaceOnUse">
<stop stop-color="#4F52FF"/>
<stop offset="1" stop-color="#4042E2"/>
</linearGradient>
<linearGradient id="paint2_linear_5238_159" x1="122.953" y1="112.182" x2="120.962" y2="112.182" gradientUnits="userSpaceOnUse">
<stop stop-color="#FEBBBA"/>
<stop offset="1" stop-color="#FF928E"/>
</linearGradient>
</defs>
</svg>
