<svg width="209" height="208" viewBox="0 0 209 208" fill="none" xmlns="http://www.w3.org/2000/svg">
<path d="M104.212 208C161.766 208 208.424 161.438 208.424 104C208.424 46.5624 161.766 0 104.212 0C46.6572 0 0 46.5624 0 104C0 161.438 46.6572 208 104.212 208Z" fill="#F5F5F5"/>
<path d="M96.8322 72.0588L96.8322 72.0588C97.6399 68.7071 99.7668 64.7892 101.766 61.9924C102.767 60.5923 103.712 59.5081 104.415 58.9234C104.663 58.7174 104.847 58.6021 104.971 58.5442C104.962 58.5969 104.952 58.6583 104.94 58.7282C104.892 59.0087 104.814 59.4264 104.692 59.968C104.449 61.0511 104.035 62.6294 103.351 64.5956C102.056 68.3219 99.7933 73.4417 95.8974 79.2251C95.8871 79.0906 95.8792 78.9406 95.8749 78.774C95.8441 77.5567 96.0104 75.4688 96.8322 72.0588Z" fill="#95C6AF" stroke="#95C6AF"/>
<path d="M105.501 58.3735C105.501 58.3735 97.7038 66.182 95.6468 80.4761C95.6468 80.4761 95.248 85.3779 96.4479 89.6255" stroke="#95C6AF" stroke-miterlimit="10" stroke-linecap="round"/>
<path d="M82.5475 58.3357L82.5475 58.3357C84.3897 61.1728 84.7354 63.0972 84.6669 64.2657C84.6326 64.851 84.494 65.2596 84.3741 65.5122C84.3405 65.5828 84.3082 65.6417 84.2797 65.6893C84.1603 65.6911 83.9954 65.6904 83.7904 65.6823C83.319 65.6635 82.6361 65.6049 81.8049 65.4447C80.1427 65.1244 77.8905 64.3983 75.5474 62.7729C74.4474 62.0098 73.4501 60.5982 72.5745 58.8361C71.7051 57.0866 70.9836 55.0498 70.4076 53.1019C69.8322 51.1563 69.4056 49.3122 69.1229 47.9538C69.0002 47.3646 68.9048 46.8675 68.8361 46.4938C75.5482 48.3949 79.108 53.0384 82.5475 58.3357Z" fill="#95C6AF" stroke="#95C6AF"/>
<path d="M86.0035 72.1392C86.2612 72.2918 86.452 72.4342 86.5916 72.5554C80.3834 75.3695 75.4507 76.2426 72.0576 76.4093C70.3067 76.4953 68.9635 76.3933 68.0643 76.2718C67.6146 76.211 67.2757 76.1453 67.0523 76.0958C67.008 76.0859 66.9683 76.0767 66.9331 76.0683C66.9385 76.0411 66.9499 76.0031 66.9728 75.9526C67.0642 75.7511 67.2847 75.4709 67.6654 75.1306C68.4154 74.4601 69.6378 73.687 71.1144 72.9697C74.0803 71.529 77.8951 70.3978 80.6803 70.7014L80.6803 70.7014C83.5578 71.0147 85.1486 71.6327 86.0035 72.1392ZM66.732 76.0161C66.7319 76.0161 66.7319 76.0161 66.7321 76.0161L66.732 76.0161Z" fill="#95C6AF" stroke="#95C6AF"/>
<path d="M66.5867 76.4949C66.5867 76.4949 75.847 69.6319 87.3952 72.7363C87.3952 72.7363 88.5831 73.1525 89.7927 75.4145" stroke="#95C6AF" stroke-miterlimit="10" stroke-linecap="round"/>
<path d="M93.404 87.0003C93.514 87.2051 93.6041 87.3851 93.6747 87.5324C87.4559 90.3113 82.4053 89.9274 78.8971 88.8483C77.0961 88.2943 75.6947 87.5547 74.7461 86.9558C74.272 86.6565 73.9118 86.3928 73.6722 86.2058C73.5524 86.1123 73.4628 86.0381 73.4043 85.9882C73.375 85.9633 73.3536 85.9445 73.34 85.9324L73.3348 85.9279C73.3134 85.9033 73.3097 85.8877 73.3081 85.8774C73.3054 85.8605 73.3038 85.8177 73.3327 85.7389C73.395 85.5692 73.5649 85.3246 73.8861 85.0214C74.5188 84.4243 75.5854 83.7417 76.9109 83.1129C79.5666 81.853 83.0887 80.8887 85.8847 81.1934C88.6264 81.4922 90.6168 83.1545 91.9408 84.7921C92.6004 85.6079 93.0848 86.4061 93.404 87.0003Z" fill="#95C6AF" stroke="#95C6AF"/>
<path d="M72.9841 86.2852C72.9841 86.2852 81.8864 80.4698 94.3336 87.7814C94.3336 87.7814 95.7974 88.6935 97.007 90.9556" stroke="#95C6AF" stroke-miterlimit="10" stroke-linecap="round"/>
<path d="M97.0348 56.2126L97.0348 56.2126C95.743 57.8856 94.7821 59.1818 94.0681 60.187C94.2873 59.543 94.5439 58.8485 94.8407 58.1303C96.1103 55.0588 98.0797 51.6461 100.933 49.8163C100.931 49.842 100.928 49.8715 100.922 49.9051C100.87 50.2419 100.655 50.8481 100.056 51.8771C99.4634 52.8963 98.5145 54.2962 97.0348 56.2126Z" fill="black" stroke="#95C6AF"/>
<path d="M97.0311 53.0781C97.5341 52.528 98.0084 52.0587 98.4436 51.6605C97.9093 52.7912 97.4156 54.151 96.9205 55.5571C96.8458 55.7691 96.7711 55.9822 96.6961 56.1961C96.2274 57.5333 95.749 58.8979 95.2188 60.175C94.6031 61.6583 93.9312 62.9885 93.1513 63.9906C91.5435 66.0562 90.3434 66.7829 89.6076 67.0223C89.4132 67.0856 89.2495 67.1155 89.1163 67.127C91.68 60.0078 94.675 55.654 97.0311 53.0781Z" fill="#95C6AF" stroke="#95C6AF"/>
<path d="M100.381 99.8396C96.6772 89.3946 91.535 77.5285 84.5427 66.1803C84.5427 66.1803 82.8249 63.0309 76.8571 54.8663C70.8892 46.7016 68.2092 45.812 68.2092 45.812" stroke="#95C6AF" stroke-miterlimit="10" stroke-linecap="round"/>
<path d="M100.086 49.7236C100.086 49.7236 93.1923 53.9351 88.4418 67.5336C87.2911 70.8282 88.6678 73.4352 89.7931 75.4142" stroke="#95C6AF" stroke-miterlimit="10" stroke-linecap="round"/>
<path d="M162.947 162.454C162.947 162.454 157.185 168.407 143.909 164.038C143.909 164.038 143.944 161.057 148.709 158.19C153.474 155.322 163.7 159.694 162.947 162.454Z" fill="#95C6AF"/>
<path d="M162.535 161.912C162.535 161.912 153.442 157.657 143.969 163.716C143.969 163.716 140.9 166.142 139.148 169.995" stroke="#95C6AF" stroke-miterlimit="10" stroke-linecap="round"/>
<path d="M143.736 149.359C143.736 149.359 146.362 150.476 147.505 142.809C148.59 135.525 149.223 128.337 145.927 118.89C145.927 118.89 139.125 129.655 140.021 137.082C140.917 144.509 143.736 149.359 143.736 149.359Z" fill="#95C6AF"/>
<path d="M163.264 152.234C163.264 152.234 165.29 154.174 157.19 154.484C149.542 154.778 150.052 155.479 150.052 155.479C150.052 155.479 156.777 149.254 163.264 152.234Z" fill="black"/>
<path d="M158.35 151.433C159.199 151.499 159.942 151.627 160.57 151.777C160.561 151.78 160.552 151.783 160.544 151.786C159.519 152.143 158.404 152.768 157.284 153.419C157.128 153.51 156.971 153.602 156.813 153.694C155.831 154.268 154.839 154.848 153.85 155.315C152.701 155.857 151.604 156.223 150.591 156.256C148.46 156.326 147.235 155.783 146.554 155.274C146.263 155.056 146.063 154.838 145.931 154.665C151.16 151.705 155.409 151.201 158.35 151.433Z" fill="#95C6AF" stroke="#95C6AF"/>
<path d="M133.568 187.069C137.435 176.74 141.278 163.946 143.736 149.359C143.736 149.359 144.549 145.564 145.767 134.007C146.986 122.45 145.927 118.89 145.927 118.89" stroke="#95C6AF" stroke-miterlimit="10" stroke-linecap="round"/>
<path d="M162.385 151.821C162.385 151.821 155.217 148.632 145.244 154.483C142.828 155.9 142.142 158.138 141.121 162.287" stroke="#95C6AF" stroke-miterlimit="10" stroke-linecap="round"/>
<path d="M71.1286 93.6362C69.2638 93.6362 67.4585 92.7203 66.0266 91.0474L62.0542 86.4066C60.6246 84.7366 58.9265 83.8418 57.1869 83.8418H37.4715C35.6823 83.8418 34.2319 85.8723 34.2319 88.3771V93.6362V188.303C34.2319 192.625 36.7346 196.129 39.8218 196.129H138.103C140.504 196.129 142.45 193.404 142.45 190.042V99.7234C142.45 96.3618 140.504 93.6366 138.103 93.6366H71.1286V93.6362Z" fill="#DEE5FF"/>
<path d="M142.45 190.551C142.45 190.551 135.762 172.987 135.093 170.969L116.813 118.832C116.354 117.447 115.361 116.561 114.27 116.561H46.3414C43.8719 116.561 40.3002 114.748 38.4039 112.533L35.6629 109.331C34.2333 107.661 32.5352 106.766 30.7956 106.766H12.033C10.036 106.766 8.67935 109.607 9.44236 112.19L32.1304 189.013C33.4024 193.319 36.4025 196.128 39.7307 196.128H141.223C141.885 196.128 142.496 195.334 142.495 194.408L142.45 190.551Z" fill="#182452"/>
<path d="M162.45 93.685C162.882 91.0743 160.898 87.8195 159.019 88.3327C157.49 88.7504 156.728 89.2636 156.483 89.377C156.003 89.5987 152.418 89.272 152.007 90.1082C151.71 90.7138 153.58 91.4132 154.776 91.5796C155.023 91.6138 155.095 92.0647 154.885 92.247C153.709 93.2674 151.369 95.3415 151.17 95.8538C150.903 96.5405 149.688 99.2108 150.03 99.507C150.373 99.8037 151.408 98.4697 152.081 97.5229C152.755 96.5761 154.722 95.7709 154.722 95.7709C154.722 95.7709 151.302 100.577 150.851 101.909C150.179 103.893 152.127 103.023 152.127 103.023C151.822 104.145 153.42 103.899 153.798 103.476C154.544 102.64 156.849 98.7449 156.856 99.1414C156.863 99.5384 154.474 103.783 154.716 104.774C154.958 105.765 155.924 104.521 156.483 103.476C157.042 102.43 158.684 99.507 158.684 99.507C158.684 99.507 160.548 97.6012 162.105 94.3094C162.118 94.2831 162.445 93.716 162.45 93.685Z" fill="#FDE2D0"/>
<path d="M137.919 78.2415L149.657 67.9883C149.73 67.9217 149.799 67.8481 149.865 67.768L153.736 62.1916C154.579 61.1576 155.878 61.3985 156.5 62.7039L158.397 66.688C158.799 67.5317 158.813 68.6257 158.433 69.4891L155.708 75.6776C155.508 76.1332 155.214 76.489 154.863 76.6999C152.671 78.0142 144.296 82.9662 139.301 84.9419C138.061 85.4326 136.855 84.019 136.963 82.2205L137.086 80.1952C137.134 79.3988 137.441 78.6784 137.919 78.2415Z" fill="#D3D3D3"/>
<path d="M164.954 180.691L164.333 186.595C164.333 186.595 152.701 192.85 153.78 192.941C154.859 193.031 171.575 191.67 171.575 191.67L170.591 180.952L164.954 180.691Z" fill="#FDE2D0"/>
<path d="M168.194 85.15C168.194 85.15 169.121 97.6404 169.816 98.2891C170.511 98.9379 171.438 99.2622 171.438 99.2622L169.932 84.9878L168.194 85.15Z" stroke="#424242" stroke-miterlimit="10"/>
<path d="M186.562 76.5649C186.562 76.5649 191.277 90.006 189.908 97.4947L163.773 92.4616L164.319 78.4979L186.562 76.5649Z" fill="#263238"/>
<path d="M163.773 92.4614C163.773 92.4614 156.771 127.361 156.59 138.596L161.706 181.879C161.706 181.879 166.586 185.277 171.669 182.531C171.878 182.419 169.092 160.082 168.897 137.084L183.509 94.281L163.773 92.4614Z" fill="#263238"/>
<path d="M190.024 96.0304L188.994 138.145L200.504 182.174C200.504 182.174 195.688 187.87 189.604 182.686L177.109 140.762L178.39 110.257L172.945 105.641L172.134 92.4287L190.024 96.0304Z" fill="#263238"/>
<path d="M169.798 88.3328L175.347 94.1853L183.3 81.7534L163.98 85.6176L168.708 94.3943L169.798 88.3328Z" fill="white"/>
<path d="M192.371 179.979L191.367 185.073C191.367 185.073 184.029 196.216 185.11 196.216C186.192 196.216 198.242 189.318 198.242 189.318L196.697 178.706L192.371 179.979Z" fill="#FDE2D0"/>
<path d="M139.068 84.4009C139.068 84.4009 139.223 85.4935 137.495 86.3278C135.767 87.1621 134.75 86.8973 134.75 86.8973C134.75 86.8973 130.874 80.4964 130.702 80.2705C130.53 80.0441 130.823 77.5829 131.97 76.5971C132.666 75.9986 135.366 76.9745 137.381 77.8332C138.785 78.4317 139.651 80.4008 139.415 82.429C139.323 83.2263 139.207 83.9654 139.068 84.4009Z" fill="#FDE2D0"/>
<path d="M135.888 82.7022C135.888 82.7022 132.719 82.0582 131.38 80.5124C131.38 80.5124 129.379 79.9476 128.953 80.301C128.528 80.6544 128.179 81.1564 127.259 81.3739C126.339 81.5914 126.616 80.7332 127.583 79.5164C127.859 79.1686 128.598 77.9185 129.239 77.7493C130.102 77.5219 131.969 76.5972 131.969 76.5972L135.716 82.8677" fill="#FDE2D0"/>
<path d="M134.75 86.8972C134.75 86.8972 133.465 88.0259 133.014 87.995C132.562 87.9645 132.135 87.5872 132.024 86.5475C132.024 86.5475 129.631 87.1625 130.389 84.6272C130.389 84.6272 128.944 84.2991 128.905 82.9782C128.905 82.9782 127.621 82.0825 127.902 80.6468C128.183 79.2107 132.211 79.341 132.211 79.341L136.486 82.3792L134.75 86.8972Z" fill="#FDE2D0"/>
<path d="M135.891 89.3869L135.835 89.431C135.397 89.7759 134.843 89.5585 134.596 88.9454L126.143 67.9026L127.785 66.6104L136.238 87.6531C136.484 88.2657 136.329 89.0419 135.891 89.3869Z" fill="#333969"/>
<path d="M130.322 71.2847L131.032 73.0508C131.224 73.5298 131.137 74.1096 130.837 74.3454L129.304 75.5524C129.004 75.7886 128.606 75.5913 128.413 75.1127L127.673 73.2702" fill="#333969"/>
<path d="M127.042 54.0031C124.11 46.3878 120.435 41.1456 118.099 40.9005L118.176 40.1772L116.955 41.2914C114.858 43.2914 115.972 52.2257 119.446 61.2462C122.919 70.2667 127.435 75.958 129.533 73.9579L130.681 72.8869L130.35 72.2677C131.157 68.7734 129.897 61.4192 127.042 54.0031Z" fill="#333969"/>
<path d="M130.59 72.9796C132.827 71.3476 131.897 62.6522 128.512 53.5578C125.127 44.4634 120.569 38.4139 118.332 40.046C116.095 41.678 117.026 50.3734 120.411 59.4678C123.796 68.5622 128.353 74.6117 130.59 72.9796Z" fill="#E3E5E8"/>
<path d="M127.104 53.9939C129.931 61.3355 131.04 68.4131 129.583 69.8029C128.125 71.1926 124.652 66.3681 121.825 59.0265C118.999 51.685 117.889 44.6073 119.347 43.2176C120.804 41.8278 124.277 46.6523 127.104 53.9939Z" fill="#D3DDF7"/>
<path d="M135.888 82.7022C135.888 82.7022 132.719 82.0582 131.38 80.5124C131.38 80.5124 129.379 79.9476 128.953 80.301C128.528 80.6544 128.179 81.1564 127.259 81.3739C126.339 81.5914 126.616 80.7332 127.583 79.5164C127.859 79.1686 128.598 77.9185 129.239 77.7493C130.102 77.5219 131.969 76.5972 131.969 76.5972L135.716 82.8677" fill="#FDE2D0"/>
<path d="M127.104 53.9939C124.277 46.6523 120.804 41.8278 119.347 43.2176C119.231 43.3272 119.134 43.4763 119.051 43.6544C120.736 43.7978 123.683 48.2774 126.142 54.6632C128.745 61.425 129.89 67.959 128.916 70.0354C129.168 70.0569 129.393 69.9834 129.582 69.8029C131.04 68.4131 129.93 61.335 127.104 53.9939Z" fill="#333969"/>
<path d="M125.136 51.1167C126.64 55.022 127.23 58.7873 126.454 59.5264C125.679 60.2656 123.832 57.6994 122.328 53.794C120.824 49.8886 120.234 46.1234 121.01 45.3842C121.785 44.645 123.632 47.2113 125.136 51.1167Z" fill="white"/>
<path d="M181.361 63.6858L179.029 52.0371C178.173 47.761 176.672 43.8041 174.69 40.3374C171.178 34.1962 161.954 34.7549 161.954 34.7549L154.857 41.9043C154.835 41.9207 154.813 41.9376 154.791 41.9545C150.613 45.1826 149.845 50.1622 149.955 57.8375L150.214 68.2014L155.018 61.7781L156.231 64.1057C156.225 64.0387 156.22 63.9764 156.216 63.9159L156.791 65.1815L156.231 64.1057C156.401 66.244 157.197 71.6901 160.9 74.2343L163.01 78.8817L162.45 85.3046C182.249 95.3839 187.179 75.5922 187.179 75.5922L181.361 63.6858Z" fill="#F5F5F5"/>
<path d="M173.677 69.7432L158.609 88.1241C158.609 88.1241 161.592 93.9723 162.935 94.1813L180.988 78.0981" fill="#D3D3D3"/>
<path d="M137.162 77.7061L139.549 76.1396C139.549 76.1396 142.459 80.578 141.414 84.3901L138.505 85.5909C138.505 85.5909 139.847 81.4137 137.162 77.7061Z" fill="white"/>
<path d="M159.56 85.7739C159.56 85.7739 162.693 87.654 164.931 93.0583L162.525 95.6433C162.525 95.6433 159.559 89.6906 157.489 88.7503L159.56 85.7739Z" fill="white"/>
<path d="M156.93 34.0781L166.814 35.0962C166.814 35.0962 167.189 42.7077 161.22 49.4203L158.54 45.7741L157.079 50.2133C157.079 50.2133 154.811 48.4271 154.505 43.2997L154.987 37.0747L156.93 34.0781Z" fill="white"/>
<path d="M161.954 34.7545C162.315 35.1847 162.486 35.8475 162.402 36.5004C162.085 38.9776 161.125 44.9735 159.201 45.7267C156.768 46.6796 155.251 39.953 155.251 39.953L156.464 28.2036L161.954 34.7545Z" fill="#FDE2D0"/>
<path d="M153.998 37.8356L153.966 39.5423C153.941 39.5596 153.485 44.598 154.814 44.792C160.37 43.5127 160.719 36.8031 161.194 30.1445C161.194 30.1445 153.459 36.5062 153.998 37.8356Z" fill="#121212"/>
<path d="M145.811 24.9431C145.811 24.9431 144.576 41.4177 151.887 44.2525C159.198 47.0878 160.949 30.3966 160.697 24.6243C160.445 18.8521 158.607 16.7053 153.483 16.4466C145.903 16.0641 145.811 24.9431 145.811 24.9431Z" fill="#FDE2D0"/>
<path d="M153.182 29.8683C153.182 29.8683 150.767 31.3401 150.53 28.7837" stroke="black" stroke-width="0.5" stroke-miterlimit="10" stroke-linecap="round"/>
<path d="M147.599 29.875C147.599 29.875 146.801 31.8141 145.883 30.9526" stroke="black" stroke-width="0.5" stroke-miterlimit="10" stroke-linecap="round"/>
<path d="M150.941 31.652C150.941 31.652 151.397 31.4457 152.067 31.9407" stroke="black" stroke-width="0.2" stroke-miterlimit="10" stroke-linecap="round"/>
<path d="M146.542 32.6007C146.542 32.6007 146.73 32.1368 147.556 32.0339" stroke="black" stroke-width="0.2" stroke-miterlimit="10" stroke-linecap="round"/>
<path d="M151.086 40.3875C151.086 40.3875 151.745 39.5058 152.288 39.3052" stroke="black" stroke-width="0.5" stroke-miterlimit="10" stroke-linecap="round"/>
<path d="M148.532 35.2178C148.532 35.2178 148.112 36.5536 149.181 37.1948" stroke="black" stroke-width="0.2" stroke-miterlimit="10" stroke-linecap="round"/>
<path d="M145.725 28.4853C145.725 28.4853 145.849 23.6613 147.376 20.9356C147.376 20.9356 149.475 27.6154 158.521 28.978L161.155 28.2032C161.155 28.2032 162.233 20.4683 158.454 17.4226C154.676 14.3768 148.893 16.06 147.032 18.7987C143.878 23.441 145.725 28.4853 145.725 28.4853Z" fill="black"/>
<path d="M156.766 28.0964L158.33 32.4245L159.437 27.562L156.766 28.0964Z" fill="black"/>
<path d="M162.235 31.9749C161.785 34.2772 160.491 35.7991 159.346 35.3745C158.201 34.9498 157.637 32.7389 158.088 30.4365C158.539 28.1342 159.833 26.6122 160.978 27.0369C162.123 27.4616 162.686 29.6725 162.235 31.9749Z" fill="#FDE2D0"/>
<path d="M158.025 19.4395C158.025 19.4395 159.399 9.39341 162.606 11.317C165.812 13.2407 167.262 22.8593 164.209 23.6074C161.155 24.3554 158.788 22.3249 158.788 22.3249L158.025 19.4395Z" fill="black"/>
<path d="M158.063 22.3247C158.063 22.3247 163.369 28.5235 165.086 22.8056" stroke="black" stroke-miterlimit="10" stroke-linecap="round"/>
<path d="M38.7112 46.2964C45.3473 46.5495 50.838 53.9909 51.22 63.2697C51.4447 68.7256 49.9344 73.6903 47.3926 77.1931C47.0169 77.7105 46.8425 78.4483 46.9302 79.1758L47.8847 87.0835L42.0117 82.2927C41.6772 82.02 41.2832 81.9196 40.9035 82.027C39.4679 82.4324 37.9469 82.507 36.379 82.1746C30.5772 80.9442 26.0507 74.22 25.5157 66.0389C24.8026 55.1351 31.0235 46.003 38.7112 46.2964Z" fill="#D3DDF7"/>
<path d="M37.7631 70.5832L37.7269 66.2686C38.1766 66.1153 38.5867 65.9156 38.9577 65.6686C39.3283 65.4221 39.6537 65.1371 39.9333 64.8132C40.2128 64.4903 40.4468 64.1284 40.6357 63.7281C40.8242 63.3283 40.9665 62.8985 41.0642 62.4391C41.1613 61.9798 41.2102 61.4947 41.2102 60.9838C41.2102 60.2521 41.0823 59.5626 40.8268 58.9158C40.5717 58.2694 40.2068 57.7458 39.7327 57.3456C39.2586 56.9457 38.6935 56.7456 38.037 56.7456C37.3319 56.7456 36.6783 57.0184 36.0767 57.5626C35.4747 58.1077 35.0157 59.0348 34.7 60.3454L34.3719 60.0388C34.6514 58.7967 35.1195 57.8433 35.776 57.1796C36.4326 56.5154 37.1799 56.1836 38.0189 56.1836C38.7363 56.1836 39.3651 56.3969 39.9065 56.822C40.4472 57.2476 40.8697 57.8222 41.1737 58.5455C41.4774 59.2687 41.6297 60.0815 41.6297 60.9838C41.6297 61.6648 41.5477 62.3027 41.3836 62.8985C41.2196 63.4942 40.9882 64.0389 40.6906 64.5324C40.3926 65.0265 40.031 65.4558 39.6055 65.8219C39.18 66.1884 38.6999 66.4645 38.1648 66.6515L38.1287 70.5832H37.7631ZM37.5445 73.8C37.5445 73.5787 37.587 73.3959 37.672 73.2511C37.7571 73.1067 37.8729 73.0341 38.0185 73.0341C38.1886 73.0341 38.3101 73.1025 38.3835 73.2385C38.4565 73.3749 38.4926 73.5619 38.4926 73.8C38.4926 74.0043 38.4531 74.1829 38.3741 74.3362C38.2947 74.4895 38.1762 74.5659 38.0182 74.5659C37.8598 74.5659 37.7417 74.4974 37.6623 74.3615C37.5836 74.2256 37.5445 74.0386 37.5445 73.8Z" fill="black"/>
</svg>
