<svg width="206" height="177" viewBox="0 0 206 177" fill="none" xmlns="http://www.w3.org/2000/svg">
<path d="M44.5247 176.38C55.4813 176.38 64.3634 171.252 64.3634 164.926C64.3634 158.6 55.4813 153.472 44.5247 153.472C33.5681 153.472 24.686 158.6 24.686 164.926C24.686 171.252 33.5681 176.38 44.5247 176.38Z" fill="#F0F0F0"/>
<path d="M145.501 173.236C156.458 173.236 165.34 168.108 165.34 161.783C165.34 155.457 156.458 150.329 145.501 150.329C134.545 150.329 125.663 155.457 125.663 161.783C125.663 168.108 134.545 173.236 145.501 173.236Z" fill="#F0F0F0"/>
<path d="M154.343 110.802C118.684 97.6712 102.367 117.308 101.864 132.218C101.783 134.595 102.199 136.879 102.949 139.041C99.0071 139.418 95.2222 140.474 92.181 142.23C84.4338 146.703 84.4338 153.955 92.181 158.428C99.9287 162.901 112.49 162.901 120.237 158.428C120.237 158.428 189.657 149.149 191.333 143.389C193.01 137.628 190.001 123.933 154.343 110.802Z" fill="#F0F0F0"/>
<path d="M157.818 93.7578C142.797 68.9874 122.696 47.5219 100.627 34.7804C78.3777 21.9345 58.1098 20.2585 43.0503 27.909L34.7354 32.6373L40.2483 39.2696L44.6893 39.6088C46.6794 41.7458 49.0645 42.7416 50.7304 41.8928C51.8838 41.3049 53.0853 40.8036 54.3075 40.3437L87.2034 42.8562L125.68 73.3441L149.657 107.967L157.967 103.241L157.972 103.239C160.235 101.932 160.165 97.6266 157.818 93.7578Z" fill="#FFC49B"/>
<path d="M100.627 60.8668C84.6017 51.6141 69.9809 50.2858 59.0171 55.5802L50.7021 60.3085L57.8329 62.5131C58.1006 63.2949 58.4342 64.0879 58.8857 64.8697L58.8986 64.8921C61.0138 68.5552 64.4417 70.6833 66.6418 69.6131C68.8772 68.5262 71.2992 67.7784 73.8793 67.3867L94.8647 73.6697L123.559 102.527L133.675 117.199L141.99 112.471L142.002 112.464C144.265 111.154 144.215 106.826 141.837 102.976C130.918 85.2946 116.459 70.0065 100.627 60.8668Z" fill="#FFC49B"/>
<path d="M102.526 88.1133C101.938 87.7221 101.351 87.3695 100.752 87.0241L100.628 86.9526C90.9007 81.3368 81.9918 80.3354 75.1572 83.229C74.9795 83.3045 74.8169 83.4012 74.6638 83.5096L66.8423 87.9573L72.3669 92.257L74.9119 92.6153C77.0288 96.2594 80.3723 98.2394 82.6372 97.3039C84.0271 96.7305 85.5393 96.3896 87.1465 96.2768L101.714 104.835L117.668 126.442L125.983 121.713H125.984C128.32 120.368 128.174 115.841 125.645 111.929C119.327 102.152 111.299 93.6597 102.526 88.1133Z" fill="#FFC49B"/>
<path d="M100.627 113.038C95.6819 110.183 91.252 110.156 88.2572 112.419L82.1279 115.992L82.9639 122.085L84.3471 124.398C84.8176 130.251 87.3693 136.594 91.1168 141.85C93.6092 145.353 96.6331 148.358 99.9006 150.41L103.736 156.824L111.67 152.28C114.944 150.72 117.006 146.94 117.006 141.407C117.006 137.312 115.876 132.863 113.956 128.664C110.985 122.149 106.129 116.215 100.627 113.038Z" fill="#FFC49B"/>
<path d="M117.668 126.442C115.59 127.638 112.288 125.856 110.034 122.38C105.573 115.497 99.9156 109.515 93.736 105.585C93.2616 105.285 92.7871 104.998 92.3127 104.724C85.4513 100.763 79.1627 100.034 74.3221 102.033C72.0493 102.971 68.6896 100.977 66.5738 97.3091C64.2708 93.3167 64.3792 89.0008 66.842 87.958C73.6766 85.0644 82.5861 86.0658 92.3127 91.6816L92.4367 91.7531C93.0358 92.099 93.6226 92.4511 94.2099 92.8423C102.984 98.3893 111.011 106.882 117.33 116.658C119.858 120.569 120.005 125.096 117.668 126.442Z" fill="#B0B0B0"/>
<path d="M133.688 117.193L133.676 117.2C131.574 118.417 128.171 116.616 125.965 113.038C117.057 98.5892 105.247 86.106 92.312 78.6377C79.2117 71.0744 67.2728 69.9919 58.3269 74.3419C56.1268 75.4115 52.6989 73.284 50.5837 69.6208L50.5708 69.5985C48.3165 65.6939 48.3534 61.4428 50.7016 60.309C61.666 55.014 76.2862 56.3429 92.312 65.595C108.144 74.7353 122.603 90.0234 133.522 107.705C135.901 111.555 135.95 115.882 133.688 117.193Z" fill="#B0B0B0"/>
<path d="M149.657 107.966L149.652 107.969C147.522 109.199 144.077 107.322 141.871 103.68C128.865 82.2092 111.437 63.5926 92.3127 52.5517C73.02 41.413 55.4614 39.974 42.4148 46.6208C40.2113 47.7435 36.7482 45.6428 34.6084 41.9366L34.6045 41.9293C32.3496 38.0236 32.4116 33.8173 34.7353 32.637C49.7948 24.9865 70.0626 26.6625 92.3127 39.5085C114.381 52.2499 134.482 73.7154 149.504 98.4858C151.85 102.355 151.92 106.66 149.657 107.966Z" fill="#FF9D59"/>
<path d="M133.688 117.193L133.676 117.2C131.574 118.417 128.171 116.616 125.965 113.038C117.057 98.5892 105.247 86.106 92.312 78.6377C79.2117 71.0744 67.2728 69.9919 58.3269 74.3419C56.1268 75.4115 52.6989 73.284 50.5837 69.6208L50.5708 69.5985C48.3165 65.6939 48.3534 61.4428 50.7016 60.309C61.666 55.014 76.2862 56.3429 92.312 65.595C108.144 74.7353 122.603 90.0234 133.522 107.705C135.901 111.555 135.95 115.882 133.688 117.193Z" fill="#B0B0B0"/>
<path d="M117.668 126.442C115.59 127.638 112.288 125.856 110.034 122.38C105.573 115.497 99.9156 109.515 93.736 105.585C93.2616 105.285 92.7871 104.998 92.3127 104.724C85.4513 100.763 79.1627 100.034 74.3221 102.033C72.0493 102.971 68.6896 100.977 66.5738 97.3091C64.2708 93.3167 64.3792 89.0008 66.842 87.958C73.6766 85.0644 82.5861 86.0658 92.3127 91.6816L92.4367 91.7531C93.0358 92.099 93.6226 92.4511 94.2099 92.8423C102.984 98.3893 111.011 106.882 117.33 116.658C119.858 120.569 120.005 125.096 117.668 126.442Z" fill="#B0B0B0"/>
<path d="M133.688 117.193L133.676 117.2C131.574 118.417 128.171 116.616 125.965 113.038C117.057 98.5892 105.247 86.106 92.312 78.6377C79.2117 71.0744 67.2728 69.9919 58.3269 74.3419C56.1268 75.4115 52.6989 73.284 50.5837 69.6208L50.5708 69.5985C48.3165 65.6939 48.3534 61.4428 50.7016 60.309C61.666 55.014 76.2862 56.3429 92.312 65.595C108.144 74.7353 122.603 90.0234 133.522 107.705C135.901 111.555 135.95 115.882 133.688 117.193Z" fill="#FF9D59"/>
<path d="M117.668 126.442C115.59 127.638 112.288 125.856 110.034 122.38C105.573 115.497 99.9156 109.515 93.736 105.585C93.2616 105.285 92.7871 104.998 92.3127 104.724C85.4513 100.763 79.1627 100.034 74.3221 102.033C72.0493 102.971 68.6896 100.977 66.5738 97.3091C64.2708 93.3167 64.3792 89.0008 66.842 87.958C73.6766 85.0644 82.5861 86.0658 92.3127 91.6816L92.4367 91.7531C93.0358 92.099 93.6226 92.4511 94.2099 92.8423C102.984 98.3893 111.011 106.882 117.33 116.658C119.858 120.569 120.005 125.096 117.668 126.442Z" fill="#B0B0B0"/>
<path d="M117.668 126.442C115.59 127.638 112.288 125.856 110.034 122.38C105.573 115.497 99.9156 109.515 93.736 105.585C93.2616 105.285 92.7871 104.998 92.3127 104.724C85.4513 100.763 79.1627 100.034 74.3221 102.033C72.0493 102.971 68.6896 100.977 66.5738 97.3091C64.2708 93.3167 64.3792 89.0008 66.842 87.958C73.6766 85.0644 82.5861 86.0658 92.3127 91.6816L92.4367 91.7531C93.0358 92.099 93.6226 92.4511 94.2099 92.8423C102.984 98.3893 111.011 106.882 117.33 116.658C119.858 120.569 120.005 125.096 117.668 126.442Z" fill="#B0B0B0"/>
<path d="M117.668 126.442C115.59 127.638 112.288 125.856 110.034 122.38C105.573 115.497 99.9156 109.515 93.736 105.585C93.2616 105.285 92.7871 104.998 92.3127 104.724C85.4513 100.763 79.1627 100.034 74.3221 102.033C72.0493 102.971 68.6896 100.977 66.5738 97.3091C64.2708 93.3167 64.3792 89.0008 66.842 87.958C73.6766 85.0644 82.5861 86.0658 92.3127 91.6816L92.4367 91.7531C93.0358 92.099 93.6226 92.4511 94.2099 92.8423C102.984 98.3893 111.011 106.882 117.33 116.658C119.858 120.569 120.005 125.096 117.668 126.442Z" fill="#FF9D59"/>
<path d="M105.641 133.392C102.67 126.876 97.8136 120.942 92.3125 117.766C86.6308 114.486 81.6269 114.936 78.7014 118.307C76.9506 120.309 75.9341 123.335 75.9341 127.222C75.9341 133.574 78.645 140.748 82.8016 146.578C85.4784 150.341 88.7655 153.543 92.3125 155.59C95.6783 157.534 98.8073 158.167 101.417 157.651C105.799 156.804 108.691 152.695 108.691 146.134C108.691 142.039 107.561 137.591 105.641 133.392Z" fill="#FF9D59"/>
<path d="M146.132 137.955C146.108 138.243 146.071 138.551 146.206 138.807C146.298 138.982 146.46 139.109 146.624 139.217C147.957 140.097 149.834 140.055 151.126 139.117C151.319 138.978 151.507 138.808 151.576 138.58C151.673 138.262 151.513 137.928 151.368 137.628C150.35 135.509 149.957 133.151 149.574 130.831C149.595 130.976 148.112 131.849 147.937 131.971C147.369 132.366 146.802 132.761 146.234 133.156C145.864 133.414 145.475 133.646 145.504 134.147C145.534 134.683 145.858 135.227 145.976 135.752C146.138 136.473 146.192 137.218 146.132 137.955Z" fill="#FDE2D0"/>
<path d="M155.794 145.628C154.992 145.628 154.746 146.218 155.008 146.618C154.601 147.11 154.599 147.597 154.356 153.438C154.303 154.736 154.417 156.095 154.436 157.027C154.441 157.296 154.494 158.073 154.731 158.284L154.73 158.286C155.306 158.791 156.497 158.434 156.813 158.704C157.114 158.962 157.437 158.916 157.62 158.725C158.04 158.284 157.847 153.793 157.867 150.954C157.897 146.191 158.61 146.538 156.496 145.778C156.265 145.696 156.045 145.628 155.794 145.628Z" fill="#FDE2D0"/>
<path d="M131.938 149.771C131.124 149.771 130.55 150.155 130.302 150.974C129.996 151.964 130.998 152.881 130.84 152.69C135.201 157.965 137.093 158.147 139.8 159.807C143.728 162.215 143.19 161.287 145.804 162.042C149.186 163.033 149.656 163.393 152.833 163.518C153.762 163.555 159.46 163.899 160.735 163.431C161.789 163.044 161.496 161.984 161.029 161.37C160.823 161.099 160.4 160.679 160.443 160.723C160.053 160.322 159.716 159.875 159.339 159.433C158.557 158.515 156.497 156.835 155.087 156.162C153.951 155.616 152.442 155.31 151.236 155.151L151.301 155.162C150.071 154.992 147.646 154.856 146.405 155.117C145.33 154.248 144.155 153.109 141.767 152.11C137.803 150.436 133.437 149.771 131.938 149.771Z" fill="#3C3C48"/>
<path d="M131.731 149.686C129.654 149.686 127.306 152.743 130.975 157.294C132.36 159.177 138.04 165.828 138.415 166.18C139.272 166.987 139.564 167.017 140.008 167.558C140.223 167.819 142.227 171.242 143.374 172.299C143.545 172.456 144.151 172.86 144.337 172.996C146.956 175.115 148.454 173.019 147.687 170.941C147.152 169.497 146.449 169.427 145.386 166.916L145.387 166.921C144.066 163.827 143.242 164.456 142.026 161.69L142.033 161.712C140.705 158.495 140.146 157.035 137.68 153.888L137.7 153.918C137.665 153.872 137.405 153.544 137.273 153.374L137.293 153.407C136.812 152.783 135.248 151.129 134.917 150.821C133.659 149.649 132.901 149.839 132.36 149.748C132.174 149.718 131.952 149.686 131.731 149.686Z" fill="#3C3C48"/>
<path d="M156.39 158.924C155.016 158.931 153.315 159.811 152.315 160.258L152.336 160.249L150.542 161.063C150.148 161.225 149.716 161.392 149.302 161.573L149.326 161.564C149.323 161.565 147.99 162.184 147.993 162.184C147.978 162.19 146.46 162.837 146.445 162.843L146.485 162.831C146.443 162.846 145.777 163.132 145.754 163.142L145.773 163.136C145.735 163.153 145.606 163.208 145.568 163.225L145.587 163.219C143.352 164.191 142.339 164.048 141.205 164.37C140.914 164.451 138.896 164.91 138.192 164.91C138 164.91 137.705 164.907 137.4 164.792C137.324 164.761 136.888 164.608 136.888 164.608C135.765 164.077 135.142 164.267 135.142 164.267C135.142 164.267 134.256 164.341 133.243 165.212C132.405 165.936 132.139 165.925 131.634 166.272C130.273 167.206 130.491 166.876 129.491 167.71C128.607 168.448 127.943 168.807 127.89 169.556C127.87 169.827 127.979 170.105 128.302 170.336C128.747 170.65 130.37 170.906 131.059 170.925C132.31 170.962 133.357 170.574 134.048 170.365C135.342 169.977 136.019 169.642 137.556 169.42C138.699 169.256 147.995 168.871 149.125 168.726C149.316 168.701 154.392 167.9 156.929 166.668C158.36 165.976 158.668 166.062 159.971 165.159C160.165 165.025 160.808 164.489 160.922 164.347C161.591 163.52 161.626 163.254 161.571 162.647C161.354 160.315 158.859 158.924 156.39 158.924ZM145.593 163.213L145.691 163.177C145.689 163.178 145.593 163.213 145.593 163.213ZM128.92 169.498C128.922 169.495 128.924 169.491 128.924 169.491C128.994 169.521 129.067 169.548 129.146 169.573C129.066 169.549 128.992 169.524 128.92 169.498Z" fill="#3C3C48"/>
<path d="M134.428 138.261L130.547 137.936C130.395 137.923 130.286 137.971 130.222 138.056L130.219 138.054L130.021 138.355C130.021 138.355 130.126 138.42 130.202 138.465C130.211 138.49 130.218 138.514 130.23 138.539L133.373 145.214C133.543 145.576 133.961 145.893 134.307 145.922L138.033 146.234L138.03 146.239L138.332 146.406L138.534 146.1L138.533 146.099C138.595 145.989 138.59 145.829 138.503 145.643L135.36 138.968C135.191 138.607 134.773 138.289 134.428 138.261Z" fill="#1A2654"/>
<path d="M138.009 146.517L134.129 146.192C133.783 146.163 133.365 145.846 133.195 145.484L130.052 138.809C129.882 138.447 130.024 138.177 130.369 138.206L134.25 138.531C134.595 138.56 135.013 138.877 135.183 139.239L138.326 145.914C138.497 146.275 138.355 146.546 138.009 146.517Z" fill="#1A2654"/>
<path d="M134.908 140.586C134.724 140.586 134.503 140.687 134.329 140.777C134.117 140.887 133.998 141.097 133.852 141.296L133.871 141.276C133.488 141.749 133 142.632 132.772 143.176C132.24 144.448 133.203 147.177 133.615 147.89L133.614 147.89C134.411 150.029 133.717 149.7 136.456 152.142C136.998 152.623 137.513 153.302 138.325 153.69C138.571 153.806 138.547 153.91 138.811 154.039C140.51 154.868 141.536 150.212 141.839 148.334C142.164 146.292 142.598 146.047 141.857 144.76C141.55 144.225 141.301 142.59 141.213 141.974C141.114 141.195 141.264 140.733 140.835 140.733C140.211 140.733 139.998 142.816 139.96 143.435C139.867 144.985 139.526 145.883 139.426 146.43C139.285 147.217 138.935 149.232 138.477 149.923C138.102 149.687 136.141 147.009 136.069 146.818C136.069 146.815 135.985 146.597 135.983 146.597C135.983 146.597 136.03 145.831 136.03 145.829C136.066 143.372 136.031 144.743 135.989 143.17C135.959 142.036 136.057 140.586 134.908 140.586Z" fill="#FDE2D0"/>
<path d="M143.57 134.649C140.447 134.649 140.421 137.485 139.831 138.927L139.857 138.871C139.54 139.614 139.305 140.832 139.184 141.258C139.024 141.81 138.873 142.48 139.311 142.849C140.025 143.453 140.43 142.538 141.147 145.22C141.404 146.176 141.381 145.921 141.363 147.677C141.353 148.629 141.344 149.137 141.181 150.503L141.186 150.487C140.687 153.428 140.378 152.358 143.326 154.383C143.559 154.543 143.742 154.625 143.87 154.749C144.15 155.018 144.204 155.007 144.685 155.344C146.488 156.571 146.143 156.536 147.903 156.74C148.388 156.798 152.86 156.741 154.358 156.436C155.3 156.245 154.825 155.107 155.063 152.635C155.067 152.594 155.137 150.793 155.137 150.363C157.664 150.774 158.653 151.021 159.014 150.401C159.089 150.273 159.523 146.768 159.413 145.263C159.388 144.908 159.112 143.255 159.142 143.446C158.949 142.248 158.47 140.727 157.42 140.126C157.207 140.004 156.637 139.805 156.746 139.846C156.421 139.683 156.638 139.737 155.761 139.347C154.653 138.854 154.438 139.003 153.661 138.441C152.884 137.824 152.847 137.843 152.313 137.595C152.122 137.504 151.73 137.197 151.265 137.197C150.164 137.197 150.704 138.649 148.105 138.382C147.231 138.231 146.771 137.749 146.624 136.854C147.092 136.361 146.718 135.604 146.013 135.375C145.934 135.35 145.878 135.312 145.798 135.262C144.933 134.73 143.775 134.649 143.57 134.649Z" fill="#F5F5F5"/>
<path d="M145.129 125.78C144.685 125.78 144.1 125.891 143.356 126.467C141.426 127.155 141.156 130.32 141.811 132.133C142.31 133.513 144.049 138.014 145.505 138.014C146.568 138.014 147.716 136.461 148.147 135.101C148.665 133.461 149.675 130.876 148.359 128.017C148.051 127.341 146.816 126.011 145.917 125.848C145.681 125.805 145.329 125.78 145.129 125.78Z" fill="#FDE2D0"/>
<path d="M146.064 122.767C145.826 122.767 144.924 122.954 144.749 123.007C143.19 123.007 143.173 123.593 142.123 124.64C141.092 125.666 140.462 127.893 141.232 128.506C141.978 129.1 142.461 128.717 144.174 128.471L144.128 128.475C144.42 128.434 144.492 128.396 144.82 128.396C146.156 128.396 147.357 129.345 147.665 131.225C147.761 131.815 147.764 132.936 147.755 133.5C147.727 135.295 148.822 135.542 149.602 134.641C149.729 134.494 149.955 134.22 150.11 134.017L150.095 134.035C151.671 131.896 152.382 127.24 149.817 124.453C148.668 123.207 149.157 123.614 147.242 122.935C146.895 122.813 146.472 122.779 146.102 122.768C146.089 122.767 146.077 122.767 146.064 122.767Z" fill="#3C3C48"/>
<path d="M148.181 130.547C147.934 130.573 147.738 130.752 147.574 130.947C147.344 131.221 147.197 131.435 147.137 131.669C147.07 131.935 146.973 132.27 147.062 132.442C147.205 132.718 147.319 132.493 147.227 132.774C146.708 133.514 147.554 134.159 148.153 133.788C148.947 133.303 149.401 131.685 149.253 131.247C149.067 130.698 148.647 130.496 148.181 130.547ZM149.265 131.679C149.249 131.784 149.251 131.771 149.265 131.679V131.679Z" fill="#FDE2D0"/>
<path d="M83.1382 58.1475C82.9063 58.1475 82.7398 58.2816 82.6408 58.3934C82.4168 58.2358 82.1021 58.3744 82.0798 58.6879C82.0356 59.3328 82.0574 59.5289 81.6606 60.4923L81.6634 60.4868C80.6916 62.7942 80.1903 62.3879 79.1068 64.8753L79.0777 64.9429L79.1096 64.8764C78.867 65.4224 78.648 66.231 78.6815 66.1193C78.406 67.0425 78.506 67.3889 78.8385 67.6315C79.3739 68.0294 80.6614 67.3934 81.203 66.9832C83.3444 65.3699 83.7909 64.6886 83.7138 64.7663C83.9172 64.5059 83.9547 64.4377 84.0625 64.1974C84.9254 62.2661 84.7141 61.7492 84.3296 60.3448C83.9664 59.0204 84.0603 59.0304 83.8982 58.6722C83.7552 58.3576 83.45 58.1475 83.1382 58.1475Z" fill="#3C3C48"/>
<path d="M79.394 54.1987C79.0632 54.1987 78.1936 54.5419 77.9606 55.1873C77.8913 55.2387 77.85 55.322 77.8494 55.4081C77.8488 55.5489 77.8488 55.6126 77.8488 55.6126C77.7628 56.0697 77.7617 56.5665 77.7214 57.2304C77.3476 58.6985 75.6878 60.157 75.0424 61.6665L75.0558 61.6413C74.2125 63.5453 74.8473 64.9915 79.0207 61.4614L78.9279 61.529C79.1995 61.3239 79.441 61.1233 79.8338 60.7416C81.1365 59.4775 81.6707 58.9455 80.9034 57.3159C80.1183 55.6389 80.5871 54.7861 79.7992 54.3071C79.688 54.2395 79.5365 54.1987 79.394 54.1987Z" fill="#3C3C48"/>
<path d="M95.1589 33.7744C94.3687 33.7744 94.0904 34.0779 93.5785 34.6048C93.3919 34.7976 92.9968 35.1089 93.2767 35.5694C90.0288 37.9618 87.0183 40.9901 86.5148 41.7294C85.4173 43.3339 83.1434 49.1223 81.7642 55.2231C81.0673 58.3124 80.7532 58.8941 80.6526 59.8542C80.5872 60.446 80.951 61.0277 81.4506 61.2518C82.0631 61.5268 82.4381 61.5424 83.6653 61.538C84.0654 61.5368 84.346 61.5581 84.6578 61.0998C85.1753 60.3409 85.3351 57.9435 85.6576 56.9019C86.3963 54.5089 88.7999 50.829 89.3397 48.3897C89.9092 45.8212 89.3358 45.615 91.5952 44.3655C92.2077 44.0263 92.3636 43.9279 92.7604 43.6446C93.7216 42.9555 96.3816 41.6339 97.1752 41.065C98.2515 40.2877 99.5474 39.5908 99.1021 37.6164C98.8668 36.5803 98.617 36.4708 98.0956 35.9684C97.4261 35.3252 97.387 35.456 97.0869 34.9362C96.7555 34.3601 96.4615 34.0035 95.6546 33.8275C95.4908 33.7923 95.3243 33.7744 95.1589 33.7744Z" fill="#3C3C48"/>
<path d="M89.1513 31.8159C88.4002 31.8159 87.7587 32.3429 85.8223 33.4069C83.9312 34.4486 84.2766 34.4894 82.4291 35.6797C78.4719 38.2308 77.7192 39.1652 77.2576 40.0392C76.2936 41.8582 76.2439 42.6495 76.1852 43.4939C76.1734 43.6672 76.0656 49.901 76.7625 54.1716C77.1369 56.4628 77.0005 56.4818 77.7102 56.7327C77.9477 56.8166 78.4893 56.8769 78.3624 56.8596C78.9894 56.9473 79.3923 56.9965 80.1607 56.6254C80.738 56.346 80.8392 56.2007 81.1694 52.3979C81.5958 47.584 82.044 46.4848 81.6545 45.2922C81.3986 44.5076 80.9548 43.8493 81.3108 42.6618C81.4259 42.4534 81.7244 42.1549 81.901 41.9934C83.2248 40.7791 83.8608 40.7908 84.5085 40.3762C84.9701 40.0805 85.8676 39.4122 85.9386 39.3462L85.9397 39.3473L85.9548 39.3334L85.9559 39.3345L85.9732 39.3189L85.9721 39.3177L87.306 38.3817C91.3352 35.5227 92.2065 36.005 92.2718 34.742C92.2875 34.429 92.1305 34.2346 91.8125 33.6802C91.2983 32.7844 91.1648 32.9319 90.7406 32.6385C89.9409 31.9763 89.5945 31.8159 89.1513 31.8159Z" fill="#3C3C48"/>
<path d="M106.206 29.032C106.177 28.4469 105.854 25.5884 105.854 25.5884C105.854 25.5851 105.836 25.4638 105.818 25.342C105.802 25.219 105.784 25.0972 105.784 25.0939V25.1179C105.784 25.1145 105.783 25.076 105.779 25.076C105.778 25.0726 105.778 25.0665 105.776 25.0665L105.774 25.0391L105.773 25.0408C105.423 19.1227 104.24 19.7855 101.425 17.4942C100.631 16.8477 99.9311 16.6722 99.1935 16.1748C97.7919 15.2293 96.6933 17.2936 96.2395 15.417C96.3853 15.1527 96.3205 14.8258 95.9511 14.6246C95.8148 14.5514 95.5717 14.367 95.447 14.2748C95.076 13.9959 95.0939 14.0529 94.5445 13.8015C94.217 13.6522 93.9985 13.5505 93.5884 13.4986C93.4928 13.4857 93.3989 13.479 93.3061 13.479C92.2494 13.479 91.1932 14.2468 90.5321 15.0834C89.5468 16.3296 89.5016 16.9421 88.2308 19.1557C87.0349 21.2412 87.1858 21.2491 86.7191 22.45C86.4369 23.1759 86.5152 23.4319 86.6996 23.6509C86.7868 23.756 86.9002 23.8532 87.0109 23.9896C87.9586 25.1659 88.8645 25.542 89.4317 25.7639C89.61 25.8354 89.7542 25.8902 89.8564 25.95C89.9604 26.5479 88.3169 30.2083 87.9346 31.1986C87.6854 31.8452 87.2657 32.4688 87.0304 33.1802C87.0287 33.1869 87.0271 33.1914 87.0271 33.1964C86.9527 33.4233 86.8991 33.6597 86.8762 33.9095C86.8745 33.9129 86.8745 33.9162 86.8745 33.9173C86.8488 34.1945 86.8616 34.4862 86.9281 34.7975C87.0885 35.5329 88.3169 36.1325 89.0087 36.4226C89.0087 36.4226 89.8302 36.9328 90.8607 37.557C91.8543 38.155 93.0401 38.8597 93.87 39.309C94.677 39.7415 95.0268 40.0399 95.0089 40.0271C95.0106 40.0288 95.0123 40.0304 95.0156 40.0321C95.3414 40.264 96.6865 40.8653 96.8469 40.9089C97.555 41.0984 98.785 40.6189 99.6992 39.6739C99.8417 39.528 99.949 39.4196 100.035 39.3319C100.351 39.0111 100.386 38.9686 100.778 38.4355C101.639 37.3111 101.746 36.1197 101.819 35.4603C101.826 35.3954 101.833 35.3356 101.84 35.2803C101.84 35.2803 101.937 34.4018 101.937 34.4002C102.294 31.4557 102.169 32.1123 102.158 30.4866C102.156 30.2614 102.118 30.2206 102.244 30.2486C102.343 30.2715 102.545 30.3363 102.947 30.3877C103.355 30.4397 103.754 30.3648 104.157 30.2888C104.711 30.1849 105.164 30.1429 105.502 30.0524C105.99 29.9216 106.24 29.692 106.206 29.032Z" fill="#F5F5F5"/>
<path d="M99.6017 8.64307C99.3608 8.64307 99.2217 8.75874 99.1015 8.91913C98.636 9.5372 97.6994 10.466 97.3557 10.7443C96.361 11.4624 94.86 11.7077 94.6029 12.2777C94.4844 12.5566 94.4375 12.8438 94.694 13.1221C94.8644 13.7994 95.0701 14.4907 95.1701 15.1943L95.1695 15.1854C95.2048 15.4514 95.2819 16.5852 95.2746 16.8552C95.2539 17.5308 95.1081 17.6113 95.302 17.9745C95.701 18.7323 97.8849 18.6932 98.717 18.4747L99.1127 18.3707C99.3843 18.3439 99.7257 18.3769 99.9018 17.889C99.9565 17.5833 99.9219 17.5017 99.847 17.0748C99.5391 15.3195 99.7079 14.4561 99.7922 13.8665L99.79 13.8755C100.31 10.2615 100.121 10.7253 100.164 9.62662C100.177 9.28796 100.249 8.67436 99.6017 8.64307Z" fill="#FDE2D0"/>
<path d="M89.4326 25.7643C89.0436 26.3231 88.7732 26.602 88.2495 28.3897C87.7522 30.0941 88.0534 29.4481 87.5448 31.185C87.3129 31.9774 87.1542 32.6273 87.0313 33.1811C87.0296 33.1878 87.0279 33.1923 87.0279 33.1973C86.9698 33.455 86.9212 33.6902 86.877 33.9104C86.8754 33.9138 86.8754 33.9171 86.8754 33.9182C86.6775 34.8923 86.5641 35.5584 86.2288 36.3279C85.2257 38.7427 84.0102 39.0064 83.7123 38.4493C83.3217 37.7234 83.5486 35.5858 83.8437 34.9672C83.8437 34.9672 83.9973 34.6481 84.0817 34.4614C84.2505 34.0451 84.8289 31.9612 85.0183 30.8558C85.0183 30.8558 85.1413 30.3747 85.3212 29.3101C85.4593 28.4606 85.4347 28.5892 85.4833 28.3589C85.5772 27.8957 85.7068 27.0093 85.7068 27.0093L85.7085 27.0043C85.7068 27.0043 85.7068 27.0043 85.7068 27.0043C85.7297 26.8534 85.7555 26.5394 85.7733 26.3449C85.8756 25.1942 86.2578 24.3666 86.7004 23.6519C86.7876 23.7569 86.9011 23.8542 87.0117 23.9905C87.9595 25.1663 88.8654 25.5418 89.4326 25.7643Z" fill="#FDE2D0"/>
<path d="M95.0361 4.91309C94.2124 4.91309 93.2232 5.39313 92.7717 5.92067C91.6316 7.2507 90.6302 12.0455 93.5496 15.8881C93.8368 16.2804 94.4599 17.858 96.2957 16.3776C96.4969 16.2161 97.3022 15.4745 97.2602 15.5125C99.0457 13.9003 99.7147 11.0536 99.2659 8.74838C98.9228 6.98078 98.1225 6.16264 97.0853 5.50992C96.4248 5.09974 95.6922 4.91309 95.0361 4.91309Z" fill="#FDE2D0"/>
<path d="M96.3508 2.55469C95.8249 2.55469 95.4236 2.60107 93.7924 3.46503C93.252 3.74948 91.5649 4.49888 91.3849 5.768C91.3749 5.8345 91.3 6.34304 91.2654 6.4006C91.1743 6.55819 91.2547 7.11759 91.6197 7.41321C91.7862 7.54957 91.9404 7.71778 92.1953 7.85022C92.4065 7.96199 93.2526 8.06929 93.0905 8.04414C94.8475 8.31853 95.2951 7.29809 96.3871 7.40204C96.5184 7.42607 96.7515 7.48083 96.8632 7.55404C97.4042 8.04022 97.6439 8.68401 97.7322 8.84607L97.7305 8.84663C98.8493 11.609 96.999 15.4834 98.3235 15.4834C99.0885 15.4834 100.148 13.9086 100.564 13.2715C101.664 11.5911 102.466 8.03687 101.272 5.69535C100.191 3.56786 99.5719 3.33762 97.5746 2.69551C97.2572 2.59213 96.7447 2.56642 96.4329 2.5558C96.4033 2.55525 96.377 2.55469 96.3508 2.55469Z" fill="#3C3C48"/>
<path d="M98.1839 10.607C97.9748 10.6299 97.8078 10.7819 97.6697 10.9468C97.4747 11.1798 97.3495 11.3609 97.2992 11.5598C97.2417 11.7845 97.1601 12.0689 97.2355 12.2153C97.3562 12.4495 97.4529 12.2584 97.3752 12.497C96.9349 13.1245 97.653 13.6717 98.1609 13.3576C98.8349 12.9457 99.2194 11.5732 99.0936 11.2016C98.9355 10.735 98.5789 10.564 98.1839 10.607ZM99.1043 11.5676C99.0892 11.657 99.0914 11.6453 99.1043 11.5676V11.5676Z" fill="#FDE2D0"/>
<path d="M75.0732 37.6421L85.2457 32.3477L97.9207 38.6357H99.1071V39.2303H99.0965L88.9816 44.7544L75.0732 37.6421Z" fill="#182452"/>
<path d="M88.9816 44.1909L99.1071 38.6612L85.2457 31.7842L75.0732 37.0786L88.9816 44.1909Z" fill="#182452"/>
<path d="M69.6768 27.6188L70.1216 27.2852L83.9746 34.4064L89.4741 44.4856L88.9818 44.7544L87.8272 43.9144L88.1653 43.7753L75.5183 37.3084L70.7743 28.4967L70.5843 28.6945L69.6768 27.6188Z" fill="#F5F5F5"/>
<path d="M88.9818 44.7547L83.5298 34.7404L69.6768 27.6191L75.0734 37.6424L88.9818 44.7547Z" fill="#182452"/>
<path d="M86.066 36.3992L88.9244 38.0494C89.2463 38.235 89.7325 38.2551 90.0114 38.0947L92.0377 36.9245C92.3166 36.7635 92.2814 36.4825 91.9595 36.2969L89.101 34.6467C88.7791 34.4611 88.2929 34.441 88.0141 34.6014L85.9877 35.7716C85.7094 35.9326 85.7441 36.2131 86.066 36.3992Z" fill="#F5F5F5"/>
<path d="M100.036 39.3323C99.9172 39.3401 99.796 39.3485 99.6713 39.3546C99.4282 39.3692 97.7623 39.3222 95.6119 39.8878C95.38 39.9476 95.1844 39.9945 95.0173 40.0319C94.2445 40.199 94.0986 40.1325 93.8393 40.0889C92.7764 39.9984 92.2477 40.332 92.0276 40.4164L92.0421 40.4131C91.2497 40.7595 90.7942 40.7176 90.1314 40.9702C89.7587 41.139 89.4849 41.3508 89.078 41.3363C88.5594 41.3072 87.9648 40.9943 88.1302 40.5489C88.1951 40.3756 88.869 38.9104 89.6894 38.2476C89.9358 38.0497 90.3829 37.7742 90.8624 37.5574C91.2916 37.3629 91.747 37.2154 92.1103 37.2121C92.1393 37.2087 92.5043 37.1908 92.9659 37.264C94.6882 37.4602 93.8991 37.4261 98.3022 36.5459C99.7183 36.2626 101.083 35.7842 101.82 35.4601C102.15 35.3159 102.357 35.2008 102.386 35.1488C102.386 35.1488 102.395 34.9644 102.384 34.4391C102.352 32.7179 102.287 31.3392 102.245 30.2484C102.344 30.2713 102.546 30.3361 102.948 30.3875C103.356 30.4395 103.755 30.3646 104.158 30.2886C104.713 30.1847 105.165 30.1428 105.503 30.0522C105.494 30.3602 105.487 30.6988 105.484 31.0732C105.443 37.4624 106.122 38.9417 100.036 39.3323Z" fill="#FDE2D0"/>
<path d="M33.7005 113.684C33.8922 113.655 34.0828 113.624 34.2705 113.588C35.8046 113.291 37.362 113.079 38.8116 112.465C39.4616 112.19 40.0808 111.84 40.7514 111.619C41.4214 111.399 42.1708 111.315 42.8241 111.581C42.2217 112.054 41.4969 112.369 40.7402 112.487C42.3994 112.46 44.0569 112.318 45.6965 112.063C45.7826 112.185 45.7284 112.353 45.6658 112.488C45.3579 113.16 44.9225 113.772 44.3888 114.282C44.1323 114.528 43.8473 114.753 43.5159 114.882C43.1599 115.021 42.7693 115.041 42.3876 115.029C41.3225 114.999 40.0981 114.564 39.1011 114.939C38.6261 115.118 38.3355 115.1 37.5381 115.537C36.3405 116.192 35.1384 116.839 33.9369 117.487C32.5862 118.216 29.3919 119.919 27.7517 119.235C26.8414 118.855 26.3898 118.279 26.5016 117.299C26.6139 116.313 27.4634 115.787 28.3418 115.326C29.6562 114.635 32.2632 113.897 33.7005 113.684Z" fill="#FDE2D0"/>
<path d="M32.6473 100.747C32.7641 101.244 32.7417 101.758 32.716 102.266C32.4657 107.225 31.9202 112.224 30.1851 116.945C29.9978 117.454 29.79 117.971 29.4088 118.384C29.0277 118.797 28.4353 119.091 27.8502 119.01C27.2679 118.929 26.8097 118.494 26.5873 118.003C26.3643 117.512 26.3369 116.968 26.3201 116.437C26.1771 111.872 26.6337 107.273 27.9195 102.846C28.2213 101.808 28.6086 100.722 29.5055 100.013C30.0057 99.6179 30.8428 99.2524 31.5246 99.3954C32.174 99.5307 32.5182 100.196 32.6473 100.747Z" fill="#FDE2D0"/>
<path d="M29.3745 119.219C29.6159 119.111 29.8646 119.064 30.1144 119.072C30.0322 118.604 29.921 118.149 29.9205 117.67C29.9199 117.125 30.2396 116.604 30.4027 116.094C30.7392 115.044 30.8487 114.003 31.0812 112.913C31.1818 112.441 31.2639 112.004 31.2661 111.516C31.2684 111.017 31.3734 110.125 31.1315 109.682C30.8968 109.251 30.13 109.389 29.6919 109.545C29.6947 109.549 29.6975 109.554 29.7003 109.558C29.6969 109.566 29.6936 109.578 29.6897 109.597C30.0652 110.542 30.0127 112.006 29.9646 113.034C29.902 114.38 29.527 115.649 29.2074 116.951C29.0677 117.52 28.7788 118.156 28.7598 118.739C29.0213 118.65 29.2214 118.85 29.3745 119.219Z" fill="#F5F5F5"/>
<path d="M49.0541 110.41C49.1145 110.225 49.172 110.041 49.2235 109.857C49.6459 108.353 50.1545 106.865 50.2562 105.295C50.3015 104.59 50.2668 103.88 50.3696 103.182C50.4725 102.484 50.734 101.777 51.2654 101.312C51.418 102.062 51.375 102.851 51.1408 103.581C51.8606 102.085 52.4764 100.541 52.9833 98.9602C53.1308 98.9378 53.2566 99.0619 53.3499 99.1781C53.8121 99.7543 54.1641 100.418 54.381 101.124C54.4855 101.464 54.5598 101.819 54.5263 102.173C54.4905 102.553 54.3329 102.912 54.1518 103.248C53.6478 104.186 52.7089 105.086 52.5977 106.146C52.5446 106.651 52.3988 106.902 52.4312 107.81C52.4798 109.175 52.5195 110.539 52.5603 111.904C52.6061 113.438 52.6966 117.057 51.3498 118.216C50.6027 118.859 49.8851 119.005 49.0592 118.466C48.2282 117.923 48.1388 116.928 48.1198 115.936C48.0918 114.452 48.6004 111.79 49.0541 110.41Z" fill="#FDE2D0"/>
<path d="M33.3726 101.658C33.5051 102.284 33.5051 102.929 33.5045 103.569C33.504 104.075 33.5034 104.58 33.5029 105.086C33.5023 105.544 33.5017 106.003 33.4615 106.459C33.4218 106.908 33.3441 107.353 33.2659 107.798C33.1329 108.558 32.9993 109.317 32.8663 110.077C30.0856 110.269 27.2478 109.509 24.937 107.951C25.2159 106.762 25.5791 105.593 26.0239 104.456C26.4587 103.343 26.9824 102.244 27.7737 101.349C28.5504 100.47 29.7687 99.7252 30.9277 99.4681C32.2058 99.1848 33.1469 100.59 33.3726 101.658Z" fill="#F5F5F5"/>
<path d="M41.375 94.1206C41.1258 94.6822 40.7452 95.2729 40.1417 95.3942C39.9466 95.4333 39.4252 95.3942 38.872 95.3148C38.739 95.2975 38.6026 95.2757 38.4707 95.2528C37.9136 95.1572 37.3989 95.032 37.2346 94.9163C36.8685 94.6593 36.2169 93.5846 36.1577 93.4354C36.1415 93.3963 36.1214 93.3522 36.0974 93.3047C36.0515 93.2102 35.9895 93.1012 35.9252 92.9856C35.7246 92.6313 35.4849 92.2144 35.4849 91.9545C35.4849 90.0696 36.2818 89.5744 36.982 88.6535C37.6833 87.7342 38.6999 87.0865 39.7901 86.7026C40.3797 86.4952 41.0961 86.3326 41.7142 86.5126C42.2663 86.6729 42.1948 87.0742 42.2233 87.5693C42.3513 89.8175 42.2988 92.035 41.375 94.1206Z" fill="#FDE2D0"/>
<path d="M39.7027 98.3824C38.3363 99.8555 36.1541 100.518 34.1992 100.051C33.6421 99.917 33.0978 99.6991 32.5244 99.6734C33.3174 99.162 33.7214 98.2154 33.9014 97.2894C34.1048 96.2555 34.078 95.1714 33.8002 94.1537C33.7449 93.9503 33.2805 93.0752 33.4946 92.9154C33.6762 92.7807 34.6983 93.2238 34.9917 93.2171C35.3175 93.2104 35.6232 93.1121 35.9249 92.9858C35.9747 92.9645 36.0244 92.9427 36.0741 92.9198L36.0753 92.9187C36.4117 92.7667 36.742 92.5918 37.089 92.48C37.1616 92.456 37.2399 92.4359 37.3136 92.456C37.3757 92.4733 37.4265 92.518 37.4751 92.5611C37.925 92.9679 38.376 93.373 38.827 93.7782C38.6772 94.2225 38.5632 94.6802 38.4878 95.1434C38.4811 95.1798 38.4755 95.2161 38.4704 95.2541C38.4045 95.6928 38.3721 96.137 38.3738 96.5813C38.3738 96.7076 38.3777 96.8356 38.3911 96.9624C38.4056 97.1256 38.4369 97.2855 38.4933 97.4391C38.6806 97.9421 39.1667 98.3232 39.7027 98.3824Z" fill="#FDE2D0"/>
<path d="M38.471 95.2525C38.405 95.6912 38.3726 96.1355 38.3743 96.5797C38.3743 96.706 38.3782 96.834 38.3916 96.9609C38.2608 96.8882 38.1452 96.7412 38.0513 96.658C37.8479 96.4775 37.6634 96.2959 37.479 96.0964C36.9174 95.4839 36.5894 94.7121 36.301 93.9487C36.2256 93.7481 36.1406 93.5274 36.0976 93.3038C36.0719 93.1748 36.0613 93.0451 36.0747 92.9188C36.0747 92.9177 36.0747 92.9177 36.0747 92.916L36.0758 92.9177C36.5754 93.4452 36.9671 94.0376 37.526 94.5115C37.8127 94.7551 38.1519 94.9664 38.4889 95.1413C38.5224 95.1603 38.5559 95.1765 38.59 95.1938C38.6816 95.2397 38.7783 95.2743 38.8728 95.3134C38.7386 95.2967 38.6029 95.2754 38.471 95.2525Z" fill="#FDE2D0"/>
<path d="M37.0015 94.7022C37.3653 94.3987 37.7196 94.0774 38.0002 93.6952C38.6758 92.7748 38.8664 91.5856 39.4319 90.5936C39.7963 89.9549 40.3165 89.4055 40.9346 89.0071C41.4482 88.6757 42.0311 88.4444 42.4887 88.0392C43.1862 87.4217 43.5069 86.4571 43.5036 85.5256C43.5002 84.594 43.2057 83.687 42.8352 82.8325C42.482 83.2259 41.9265 83.3595 41.4024 83.4299C39.9561 83.6244 38.4841 83.4947 37.0311 83.6305C35.5782 83.7663 34.0643 84.224 33.1171 85.3339C32.1128 86.5102 31.939 88.1694 31.91 89.7163C31.8954 90.497 31.9066 91.2832 32.0614 92.0488C32.2631 93.0441 32.7097 93.9891 33.3506 94.7765C34.4163 96.0864 35.8425 95.6695 37.0015 94.7022Z" fill="#3C3C48"/>
<path d="M39.7797 90.2555C39.6623 90.0672 39.5126 89.8889 39.3114 89.7961C39.1102 89.7028 38.8481 89.714 38.6905 89.8699C38.5682 89.9906 38.5274 90.1761 38.5441 90.3471C38.5609 90.5187 38.6279 90.6802 38.6939 90.8389C38.9247 91.3933 39.1611 91.9572 39.5444 92.4193C39.6115 92.4998 39.7071 92.5847 39.8071 92.554C39.8663 92.5361 39.906 92.4819 39.939 92.4294C39.939 92.2919 40.1323 92.0393 40.1709 91.889C40.2251 91.6811 40.2424 91.4659 40.229 91.2513C40.215 91.2553 40.2491 91.2921 40.205 91.2877C39.9926 91.0435 39.9686 90.5578 39.7797 90.2555Z" fill="#FDE2D0"/>
<path d="M31.3309 165.007C31.2756 165.419 31.2219 165.847 31.3494 166.242C31.6059 167.037 32.5408 167.445 33.3723 167.373C34.2033 167.3 34.9522 166.862 35.6653 166.429C36.8315 165.72 37.9962 164.99 38.9959 164.061C39.3726 163.711 39.7308 163.324 39.9387 162.854C40.146 162.383 40.1829 161.814 39.9281 161.367C39.5318 160.674 38.5762 160.502 37.8028 160.7C37.0294 160.898 36.361 161.373 35.6373 161.71C34.6515 162.167 34.072 162.514 33.0622 162.904C31.8557 163.37 31.4935 163.792 31.3309 165.007Z" fill="#3C3C48"/>
<path d="M29.9982 126.495C29.788 129.074 30.2474 131.655 30.6235 134.215C31.0186 136.906 31.3237 139.61 31.5377 142.322C31.6037 143.157 31.6613 143.998 31.5746 144.831C31.4349 146.178 30.9253 147.457 30.652 148.784C30.1887 151.035 30.415 153.364 30.6431 155.651C30.7945 157.166 30.9454 158.681 31.0968 160.195C31.2404 161.631 31.3857 163.079 31.8228 164.455C33.1058 164.923 33.8245 164.403 34.2766 163.965C34.513 159.989 35.1551 156.037 36.1901 152.19C36.5142 150.986 36.8774 149.788 37.0864 148.558C37.3228 147.169 37.3603 145.755 37.4541 144.349C37.8129 138.981 39.0049 133.629 38.5243 128.27C38.3382 126.198 37.904 124.157 37.4704 122.123C37.4312 121.938 37.386 121.743 37.2535 121.609C37.1049 121.459 36.8802 121.42 36.6712 121.388C35.5703 121.221 34.4694 121.053 33.3685 120.885C32.7012 120.784 31.8205 120.462 31.2896 121.026C30.7677 121.58 30.6632 122.822 30.4938 123.534C30.2619 124.509 30.0786 125.496 29.9982 126.495Z" fill="#3C3C48"/>
<path d="M42.2778 167.194C42.2052 167.627 42.1325 168.076 42.2499 168.499C42.4896 169.367 43.4777 169.849 44.3763 169.813C45.2754 169.777 46.1047 169.345 46.8994 168.924C48.1406 168.266 49.3834 167.607 50.5631 166.845C51.2505 166.401 51.9446 165.889 52.2905 165.147C52.6364 164.406 52.499 163.378 51.7903 162.97C51.0214 162.526 50.0747 162.979 49.246 163.296C48.3535 163.637 47.4085 163.816 46.4691 163.993C45.5174 164.172 43.8862 164.157 43.0557 164.638C42.3337 165.057 42.412 166.399 42.2778 167.194Z" fill="#3C3C48"/>
<path d="M36.4153 131.274C36.958 132.086 37.6118 132.823 38.1243 133.655C38.8245 134.792 39.2425 136.075 39.6549 137.345C40.7832 140.822 41.9221 144.362 41.9808 148.016C42.0221 150.575 41.5309 153.114 41.465 155.673C41.4214 157.375 41.5667 159.075 41.7114 160.772C41.8601 162.512 42.0087 164.253 42.1574 165.993C43.574 166.127 45.0287 165.825 46.2738 165.135C46.0346 160.829 46.4928 156.51 47.2338 152.261C47.5915 150.209 48.0162 148.165 48.2012 146.09C48.541 142.282 48.0693 138.455 47.5988 134.662C47.0148 129.955 46.4185 125.199 44.7755 120.75C44.8867 121.052 36.8741 121.826 36.184 121.894C33.6284 122.15 34.3259 125.232 34.7075 127.084C35.0138 128.57 35.5709 130.009 36.4153 131.274Z" fill="#3C3C48"/>
<path d="M30.8735 109.995C30.6031 109.787 29.9341 109.851 29.5944 109.785C29.406 109.749 29.1523 109.689 29.0065 109.55C28.7829 109.337 28.8908 109.084 28.9472 108.774C29.1825 107.491 29.1814 106.101 29.1227 104.777C29.1026 104.328 29.021 103.893 29.0216 103.439C29.0221 103.127 29.1076 102.918 29.1819 102.637C29.6536 103.146 29.534 104.352 29.719 105.01C29.9129 105.701 30.1286 106.397 30.2638 107.098C30.3616 107.606 30.2985 108.145 30.408 108.658C30.4712 108.95 30.6254 109.674 30.8735 109.995Z" fill="#ECECEC"/>
<path d="M34.5827 142.142C34.8375 143.004 35.1298 143.861 35.2522 144.752C35.393 145.779 35.3036 146.822 35.2142 147.856C35.1124 149.028 35.0107 150.201 34.9096 151.373C34.6469 154.406 34.4217 157.447 33.9299 160.451C33.7327 161.656 34.1451 162.628 34.2731 163.981C35.4528 160.158 35.9915 156.567 36.7213 152.632C37.5434 148.2 37.7831 143.684 38.0217 139.183C38.0905 137.883 38.1592 136.583 38.228 135.284C38.2626 134.625 38.2883 133.925 37.9625 133.351C37.6378 132.779 37.0276 132.443 36.4699 132.094C35.0292 131.192 34.1032 129.893 32.843 128.846C32.3937 129.445 32.8078 131.008 32.8665 131.728C32.962 132.901 33.0727 134.074 33.2163 135.242C33.503 137.57 33.9171 139.889 34.5827 142.142Z" fill="#3C3C48"/>
<path d="M47.9684 106.43L38.4839 105.34C37.9993 105.284 37.8781 104.872 38.2139 104.419L47.1799 92.3274C47.5152 91.8747 48.1802 91.5534 48.6653 91.6087L58.1499 92.699C58.6344 92.7549 58.7556 93.1668 58.4198 93.6194L49.4538 105.712C49.118 106.164 48.4529 106.486 47.9684 106.43Z" fill="#3C3C48"/>
<path d="M39.4189 104.139L47.8098 92.8216C48.0004 92.5645 48.3776 92.3824 48.6525 92.4137L57.0608 93.3799C57.3357 93.4117 57.4045 93.6453 57.2139 93.9024L48.823 105.219C48.6324 105.476 48.2552 105.659 47.9802 105.627L39.572 104.661C39.297 104.629 39.2283 104.395 39.4189 104.139Z" fill="#182452"/>
<path d="M45.2246 112.857C45.3106 112.056 45.4347 111.257 45.4302 110.451C45.4224 108.996 44.9971 107.579 44.5752 106.186C44.0086 104.313 43.4419 102.44 42.8747 100.567C42.6673 99.881 42.4572 99.1891 42.1102 98.5627C41.1976 98.7164 40.2498 98.656 39.3641 98.3872L39.4943 98.4772C38.2693 99.5105 36.6442 100.052 35.0448 99.9737C35.0454 99.9704 35.0465 99.9682 35.0471 99.9648C34.8716 99.8799 34.576 99.9067 34.3569 99.8094C34.1663 99.7251 33.9579 99.6088 33.7807 99.4971C33.5052 99.3238 33.1828 98.9404 33.3281 98.5945C32.8151 98.9689 32.4474 99.0936 31.8159 99.1232C31.3699 99.1439 30.8234 99.1819 30.468 99.487C29.8599 100.009 29.5274 100.808 29.3928 101.6C29.3805 101.637 29.367 101.673 29.3564 101.711C29.1592 102.392 29.2173 103.119 29.2843 103.826C29.4252 105.305 29.6006 106.786 29.9616 108.228C30.188 109.131 30.487 110.017 30.6535 110.933C31.3258 114.624 29.8124 118.459 30.5205 122.143C30.9692 122.11 31.3403 122.459 31.6929 122.738C32.89 123.686 34.4692 124.018 35.9948 124.055C37.5205 124.091 39.0411 123.863 40.5667 123.825C42.3047 123.782 44.2461 123.92 45.556 122.777C45.1497 119.486 44.8692 116.154 45.2246 112.857Z" fill="#F5F5F5"/>
<path d="M41.8871 99.8373C41.4087 99.5551 40.7554 99.8278 40.4442 100.288C40.1329 100.748 40.082 101.332 40.0708 101.887C40.0016 105.223 40.9913 108.488 41.2656 111.814C41.3238 112.517 41.3484 113.235 41.1723 113.918C41.0019 114.579 40.6509 115.179 40.4324 115.826C40.0032 117.096 40.1055 118.485 40.3447 119.804C40.5833 121.124 40.9538 122.425 41.0505 123.762C42.7002 123.673 44.3359 123.335 45.8861 122.764C45.9828 122.728 46.0873 122.685 46.1376 122.595C46.189 122.503 46.1689 122.389 46.1482 122.285C45.515 119.151 45.553 115.919 45.7637 112.729C45.8174 111.918 45.8816 111.105 45.8202 110.296C45.7632 109.551 45.5994 108.818 45.4351 108.089C45.0378 106.326 44.5941 104.486 43.4021 103.128C42.9656 102.63 42.437 102.21 42.067 101.661C41.6971 101.112 41.5099 100.367 41.8345 99.7898C41.9843 100.016 42.1341 100.242 42.2838 100.469" fill="#F5F5F5"/>
<path d="M48.7223 118.434C48.653 118.402 48.5848 118.364 48.5206 118.323C48.0674 118.032 47.7477 117.59 47.4454 117.153C45.6576 114.573 44.0974 111.824 42.8663 108.925C42.3069 107.606 41.8145 106.256 41.4004 104.876C41.0897 103.841 40.8232 102.719 41.1914 101.637C41.396 101.033 41.8995 100.272 42.5511 100.021C43.1692 99.7821 43.8196 100.152 44.2287 100.545C44.5959 100.898 44.8574 101.342 45.1122 101.782C47.5974 106.081 49.8573 110.573 50.9672 115.479C51.0873 116.008 51.1929 116.555 51.0979 117.109C51.0024 117.663 50.6659 118.232 50.13 118.481C49.6712 118.694 49.1487 118.639 48.7223 118.434Z" fill="#FDE2D0"/>
<path d="M49.674 118.374C49.3594 118.38 49.0397 118.45 48.7218 118.434C48.6525 118.402 48.5843 118.364 48.52 118.323C48.0668 118.032 47.7472 117.59 47.4448 117.153C45.6571 114.573 44.0968 111.824 42.8657 108.925C43.144 108.85 43.4614 108.755 43.652 108.882C43.9627 109.089 44.0521 109.668 44.2371 109.974C44.6825 110.711 45.1474 111.348 45.4621 112.147C45.7594 112.906 46.05 113.514 46.4613 114.208C46.886 114.925 47.2604 115.755 47.7919 116.435C48.3395 117.133 49.0381 117.775 49.674 118.374Z" fill="#ECECEC"/>
<path d="M44.5437 99.3367C45.0254 99.7575 45.4127 100.274 45.796 100.786C46.0989 101.19 46.4024 101.595 46.7053 102C46.9796 102.367 47.2546 102.734 47.4966 103.123C47.7346 103.506 47.9392 103.909 48.1437 104.31C48.493 104.998 48.8428 105.686 49.1921 106.374C47.0836 108.196 44.3576 109.291 41.5735 109.433C41.0828 108.314 40.6721 107.161 40.3446 105.985C40.0244 104.834 39.7835 103.641 39.8791 102.449C39.973 101.281 40.4999 99.9536 41.2734 99.0522C42.1256 98.0586 43.7222 98.618 44.5437 99.3367Z" fill="#F5F5F5"/>
<path d="M38.5655 97.0029C38.6446 97.0849 38.5983 97.0549 38.5435 97.0046C38.5508 97.0041 38.5587 97.0041 38.5655 97.0029Z" fill="#3C3C48"/>
<path d="M24.8898 63.3933C24.4294 63.1273 23.9901 62.9748 23.5866 62.9262C22.6489 59.1982 20.0363 55.3986 16.9611 53.6232C14.9934 52.4871 13.2185 52.4033 11.9472 53.1789L11.9422 53.1756L10.468 54.0289L10.7792 54.3469C10.3892 54.97 10.1254 55.7557 10.0192 56.689C9.42572 55.8289 8.68582 55.0957 7.88557 54.6336C6.90593 54.068 6.0185 54.0144 5.37695 54.3855L4.01172 55.1678L4.47387 55.6512C4.38837 55.9547 4.3392 56.2967 4.3392 56.6812C4.3392 59.315 6.18839 62.5171 8.469 63.8337L13.5209 66.7503L20.4024 70.723L24.3075 72.9779C24.6937 73.2009 25.0653 73.3501 25.4202 73.4401L25.8605 74.0503L27.2163 73.2736L27.2157 73.2724C27.9696 72.8438 28.4373 71.9167 28.4373 70.5934V69.5366C28.4368 67.2745 26.8491 64.5244 24.8898 63.3933Z" fill="#182452"/>
<path d="M27.0898 70.3077V71.3645C27.0898 73.9983 25.2412 75.0657 22.96 73.7485L19.0549 71.4936L12.1734 67.5208L7.1215 64.6042C4.84089 63.2876 2.9917 60.0849 2.9917 57.4517C2.9917 55.1895 4.57935 54.273 6.53807 55.4041C7.33889 55.8663 8.07823 56.5995 8.67171 57.4595C9.09922 53.7187 12.0432 52.3333 15.6136 54.3943C18.6889 56.1697 21.3014 59.9693 22.2391 63.6973C22.6426 63.7459 23.0813 63.8984 23.5423 64.1645C25.5022 65.2955 27.0898 68.0456 27.0898 70.3077Z" fill="#E6E6E6"/>
<path d="M173.824 23.1921C173.203 22.8334 172.61 22.6277 172.067 22.5618C170.802 17.5356 167.28 12.4127 163.133 10.0187C160.48 8.48692 158.087 8.37348 156.373 9.41962L156.367 9.41459L154.379 10.5652L154.799 10.9939C154.273 11.8338 153.918 12.8939 153.774 14.1513C152.974 12.9917 151.977 12.0031 150.897 11.38C149.576 10.6172 148.38 10.5457 147.515 11.0458L145.674 12.1009L146.297 12.7525C146.181 13.1616 146.115 13.6226 146.115 14.1412C146.115 17.6921 148.608 22.0096 151.683 23.7851L158.494 27.7176L167.772 33.074L173.038 36.1141C173.558 36.4148 174.06 36.6154 174.538 36.7372L175.131 37.5604L176.96 36.5131L176.959 36.512C177.976 35.9342 178.606 34.684 178.606 32.8997V31.4746C178.605 28.4245 176.465 24.7166 173.824 23.1921Z" fill="#3C3C48"/>
<path d="M176.79 32.5141V33.9391C176.79 37.4899 174.297 38.9289 171.221 37.1535L165.956 34.1134L156.678 28.7564L149.867 24.8239C146.791 23.0485 144.298 18.7309 144.298 15.1801C144.298 12.1305 146.439 10.8944 149.08 12.4194C150.16 13.0425 151.157 14.0311 151.957 15.1907C152.533 10.1472 156.503 8.279 161.317 11.0575C165.463 13.4516 168.986 18.5744 170.25 23.6006C170.794 23.6666 171.386 23.8722 172.007 24.2304C174.649 25.7566 176.79 29.4645 176.79 32.5141Z" fill="#E6E6E6"/>
<path d="M43.4765 9.61872C43.4765 6.33612 41.1719 2.34436 38.3291 0.703054C36.9096 -0.116759 35.6243 -0.194997 34.6927 0.340368L34.6894 0.342043L34.6888 0.342602L33.4532 1.06462L33.6377 1.49269C33.3454 2.06996 33.1816 2.8026 33.1816 3.67439C33.1816 6.95699 35.4863 10.9488 38.3291 12.5901C39.0254 12.9919 39.6887 13.2148 40.2945 13.2752L40.6354 13.7273L41.9677 12.9516C41.9688 12.9511 41.9699 12.9505 41.971 12.95L41.9934 12.9365L41.9928 12.936C42.9093 12.3922 43.4765 11.2455 43.4765 9.61872Z" fill="#DEE5FF"/>
<path d="M31.9302 4.40536C31.9302 1.12276 34.2348 -0.207832 37.0776 1.43347C39.9204 3.07477 42.2251 7.06654 42.2251 10.3491C42.2251 13.6318 39.9204 14.9623 37.0776 13.321C34.2348 11.6797 31.9302 7.68797 31.9302 4.40536Z" fill="#182452"/>
<path d="M35.478 6.6514V4.34956C35.478 4.0517 35.7574 4.02655 35.981 4.30485L37.7072 6.45246L39.4335 8.60006C39.657 8.87781 39.657 9.25055 39.4335 9.27011L37.7072 9.42435L35.981 9.57859C35.7574 9.5987 35.478 9.25111 35.478 8.95325V6.6514Z" fill="#FF9D59"/>
<path d="M169.92 73.4274L170.622 73.0015L170.441 72.6724L169.746 73.12L169.92 73.4274Z" fill="white"/>
<path d="M170.878 57.861V72.4232C170.878 72.9977 170.475 73.2307 169.977 72.9435L161.398 67.9905C160.901 67.7033 160.497 67.0047 160.497 66.4302V56.161L165.114 53.4932L169.977 56.3008C170.475 56.588 170.878 57.2865 170.878 57.861Z" fill="white"/>
<path d="M170.184 58.2814V72.8435C170.184 73.418 169.781 73.651 169.283 73.3638L160.704 68.4108C160.207 68.1236 159.803 67.425 159.803 66.8506V56.5819L164.42 53.9141L169.283 56.7217C169.781 57.0083 170.184 57.7069 170.184 58.2814Z" fill="#182452"/>
<path d="M164.645 54.042V58.3551C164.645 58.9296 164.241 59.1627 163.744 58.8754L160.025 56.7289L164.421 53.9141L164.645 54.042Z" fill="white"/>
<path d="M164.422 53.9155V58.2068C164.422 58.7813 164.018 59.0144 163.521 58.7271L159.803 56.5806L164.422 53.9155Z" fill="#FF9D59"/>
<path d="M161.435 59.6685L168.64 63.829" stroke="white" stroke-width="0.6599" stroke-miterlimit="10" stroke-linecap="round"/>
<path d="M161.435 61.3857L168.64 65.5463" stroke="white" stroke-width="0.6599" stroke-miterlimit="10" stroke-linecap="round"/>
<path d="M161.435 63.103L168.64 67.263" stroke="white" stroke-width="0.6599" stroke-miterlimit="10" stroke-linecap="round"/>
<path d="M161.435 64.8198L168.64 68.9804" stroke="white" stroke-width="0.6599" stroke-miterlimit="10" stroke-linecap="round"/>
<path d="M4.61747 90.7319V98.3718C4.41964 98.1337 4.19722 97.9281 3.95748 97.7654C3.90383 97.7297 3.8485 97.6939 3.79318 97.6626C3.77138 97.6486 3.74736 97.6369 3.72612 97.6269V98.8753C3.48247 98.5841 3.20305 98.3383 2.90184 98.1661C2.37709 97.8627 1.86352 97.8197 1.45557 98.0493L1.75455 98.3785C1.7171 98.5311 1.69698 98.6953 1.69698 98.8736C1.69698 99.4006 1.8652 99.9695 2.14294 100.483C2.45589 101.061 2.9119 101.57 3.42491 101.867C3.53612 101.93 3.64509 101.979 3.75406 102.02L4.01169 102.467L4.01392 102.47L4.92315 101.957V101.951C5.3093 101.707 5.53954 101.265 5.53954 100.671C5.53954 100.645 5.53954 100.58 5.53954 100.58V94.0464L11.0357 96.1269V100.8C10.8435 100.571 10.6277 100.369 10.3975 100.21C10.336 100.167 10.2746 100.125 10.2114 100.09C10.1896 100.078 10.1656 100.064 10.1438 100.054V101.304C9.90014 101.013 9.62072 100.767 9.31951 100.595C8.78862 100.288 8.27114 100.248 7.86151 100.484L8.16831 100.822C8.13254 100.969 8.11466 101.129 8.11466 101.302C8.11466 101.762 8.24152 102.253 8.45947 102.711C8.77241 103.372 9.26978 103.965 9.84258 104.295C9.9197 104.341 9.99906 104.379 10.0762 104.412L10.3735 104.927V104.93L10.4109 104.908L11.2844 104.417V104.413C11.2905 104.409 11.2961 104.407 11.3023 104.403C11.7125 104.167 11.9539 103.708 11.9539 103.093C11.9539 103.069 11.9561 103.008 11.9561 103.008V93.5099L4.61747 90.7319ZM10.1432 94.8036L5.53898 93.0623V92.0676L11.0351 94.1481V95.1406L10.1432 94.8036Z" fill="#F2F2F2"/>
<path d="M4.61749 91.5718L3.72614 91.2349V98.8747C3.48249 98.5836 3.20307 98.3377 2.90186 98.1655C2.37711 97.8621 1.86354 97.8191 1.45559 98.0488C1.45168 98.051 1.44553 98.0549 1.44162 98.0566C1.03143 98.2941 0.805664 98.7618 0.805664 99.376C0.805664 99.7348 0.88278 100.113 1.02193 100.481C1.31308 101.26 1.87583 101.989 2.53358 102.37C2.8348 102.544 3.1321 102.631 3.40928 102.631C3.6194 102.631 3.81723 102.581 3.99382 102.479C3.99997 102.475 4.00556 102.471 4.01171 102.467C4.41183 102.227 4.64766 101.777 4.64766 101.173C4.64766 101.147 4.64766 101.082 4.64766 101.082V94.5499L5.539 94.8869L10.1433 96.6304V101.305C9.89961 101.013 9.62018 100.767 9.31897 100.595C8.78808 100.289 8.2706 100.249 7.86097 100.484C7.86097 100.486 7.85873 100.486 7.85873 100.486C7.44855 100.724 7.22278 101.192 7.22278 101.806C7.22278 102.099 7.27419 102.406 7.37143 102.711C7.6352 103.563 8.23539 104.387 8.9507 104.8C9.25191 104.974 9.54921 105.061 9.82416 105.061C10.022 105.061 10.2064 105.017 10.3729 104.928C10.3869 104.922 10.3986 104.916 10.4104 104.908C10.8206 104.671 11.062 104.211 11.062 103.599C11.062 103.573 11.0642 103.512 11.0642 103.512V94.0128L4.61749 91.5718ZM4.6471 93.5652V92.5705L5.53845 92.9075L10.1427 94.651V95.6435L4.6471 93.5652Z" fill="#182452"/>
<path d="M3.72559 91.2354L4.61693 90.7319L11.9561 93.5099L11.0648 94.0134L3.72559 91.2354Z" fill="#182452"/>
<path d="M3.72563 98.8753C3.48198 98.5841 3.20256 98.3382 2.90135 98.1661C2.3766 97.8626 1.86303 97.8196 1.45508 98.0493L2.30283 97.572H2.30507C2.31513 97.5659 2.32295 97.5603 2.33301 97.5542C2.72531 97.3262 3.21877 97.3541 3.72563 97.6274V98.8753Z" fill="white"/>
<path d="M10.1431 100.054V101.304C9.89947 101.013 9.62005 100.767 9.31884 100.595C8.78795 100.288 8.27047 100.248 7.86084 100.483L8.70859 100.006L8.7125 100.008C8.72424 100.001 8.73598 99.9906 8.74995 99.9828C9.14225 99.7548 9.6357 99.7822 10.1431 100.054Z" fill="white"/>
<path d="M192.629 96.0996L181.628 89.7479C180.932 89.3461 180.301 89.2986 179.834 89.5417L179.831 89.5389L179.79 89.5618C179.787 89.5635 179.784 89.5652 179.781 89.5669L178.394 90.3392L178.817 91.0925L179.033 90.9718C179.026 91.0623 179.02 91.1556 179.02 91.2529V96.1801C179.02 97.8421 180.188 99.8651 181.628 100.696L182.267 101.065L182.77 103.912L182.554 103.699L181.613 106.302L183.051 105.501L185.317 102.826L192.468 106.955L192.378 107.005L193.028 108.036L194.4 107.27L194.399 107.266C194.913 107.013 195.237 106.416 195.237 105.543V100.616C195.237 98.9519 194.069 96.9306 192.629 96.0996Z" fill="#3C3C48"/>
<path d="M202.587 88.3799L191.585 82.0281C190.916 81.6414 190.307 81.5839 189.845 81.7962L189.843 81.7929L189.788 81.8236C189.763 81.8365 189.738 81.8499 189.714 81.865L188.356 82.6183C188.356 82.6183 188.734 83.271 188.775 83.271C188.785 83.271 188.873 83.2274 189.002 83.162C188.988 83.2805 188.978 83.4034 188.978 83.5342V88.4615C188.978 90.1235 190.146 92.1464 191.585 92.9774L198.898 97.1994L199.944 99.6421L199.493 99.7986L199.727 103.291L201.164 102.49L201.948 98.9598L202.515 99.2872L202.928 100.347L204.418 99.518V99.5169C204.897 99.2476 205.194 98.6613 205.194 97.8237V92.8964C205.194 91.2322 204.026 89.2109 202.587 88.3799Z" fill="#979CB1"/>
<path d="M193.8 101.417V106.344C193.8 108.006 192.632 108.68 191.192 107.849L183.879 103.627L181.614 106.302L180.83 101.866L180.192 101.498C178.752 100.667 177.584 98.6437 177.584 96.9817V92.0544C177.584 90.3908 178.752 89.7179 180.192 90.5489L191.193 96.9007C192.632 97.7317 193.8 99.753 193.8 101.417Z" fill="#979CB1"/>
<path d="M187.541 84.3344V89.2617C187.541 90.9237 188.708 92.9466 190.148 93.7776L197.461 97.9996L199.727 103.291L200.511 99.76L201.149 100.129C202.589 100.96 203.757 100.286 203.757 98.6233V93.696C203.757 92.0324 202.589 90.0111 201.149 89.1801L190.148 82.8284C188.708 81.9979 187.541 82.6708 187.541 84.3344Z" fill="#3C3C48"/>
</svg>
