<svg width="192" height="164" viewBox="0 0 192 164" fill="none" xmlns="http://www.w3.org/2000/svg">
<path d="M41.6288 164C51.8164 164 60.0751 159.232 60.0751 153.35C60.0751 147.468 51.8164 142.7 41.6288 142.7C31.4413 142.7 23.1826 147.468 23.1826 153.35C23.1826 159.232 31.4413 164 41.6288 164Z" fill="#F0F0F0"/>
<path d="M135.518 161.077C145.706 161.077 153.964 156.309 153.964 150.427C153.964 144.545 145.706 139.777 135.518 139.777C125.33 139.777 117.072 144.545 117.072 150.427C117.072 156.309 125.33 161.077 135.518 161.077Z" fill="#F0F0F0"/>
<path d="M143.739 103.025C110.583 90.8158 95.4116 109.074 94.9435 122.938C94.8686 125.148 95.2552 127.271 95.9525 129.282C92.2872 129.632 88.7679 130.614 85.9401 132.247C78.7368 136.406 78.7368 143.149 85.9401 147.309C93.144 151.468 104.823 151.468 112.027 147.309C112.027 147.309 176.574 138.68 178.133 133.324C179.692 127.968 176.894 115.234 143.739 103.025Z" fill="#F0F0F0"/>
<path d="M146.971 87.1765C133.004 64.1447 114.314 44.1859 93.7938 32.3387C73.106 20.3944 54.2607 18.8361 40.2582 25.9496L32.5269 30.346L37.6528 36.5128L41.7822 36.8282C43.6325 38.8152 45.8502 39.7411 47.3992 38.9519C48.4717 38.4052 49.5888 37.9391 50.7252 37.5115L81.3122 39.8477L117.089 68.1956L139.382 100.388L147.109 95.9944L147.114 95.9923C149.218 94.7769 149.153 90.7738 146.971 87.1765Z" fill="#FFC49B"/>
<path d="M93.7936 56.5941C78.8932 47.9909 65.2986 46.7557 55.1044 51.6786L47.373 56.075L54.0033 58.1249C54.2522 58.8518 54.5624 59.5891 54.9822 60.3161L54.9942 60.3368C56.9609 63.7429 60.1482 65.7216 62.1939 64.7265C64.2724 63.7159 66.5244 63.0206 68.9234 62.6564L88.4359 68.4984L115.116 95.3306L124.522 108.973L132.254 104.576L132.265 104.57C134.369 103.351 134.322 99.3275 132.111 95.7474C121.959 79.3074 108.514 65.0923 93.7936 56.5941Z" fill="#FFC49B"/>
<path d="M95.5587 81.9285C95.0126 81.5648 94.4665 81.2369 93.9094 80.9158L93.7941 80.8493C84.7497 75.6277 76.466 74.6966 70.1112 77.3871C69.946 77.4573 69.7947 77.5472 69.6524 77.648L62.3799 81.7836L67.5168 85.7815L69.8831 86.1145C71.8514 89.5029 74.9602 91.3439 77.0662 90.4741C78.3585 89.941 79.7645 89.624 81.259 89.519L94.8037 97.4769L109.639 117.567L117.37 113.17H117.37C119.543 111.92 119.407 107.71 117.056 104.072C111.18 94.9822 103.717 87.0857 95.5587 81.9285Z" fill="#FFC49B"/>
<path d="M93.7935 105.104C89.1954 102.449 85.0765 102.424 82.2919 104.528L76.5928 107.85L77.3701 113.515L78.6561 115.666C79.0937 121.109 81.4662 127.006 84.9507 131.893C87.2682 135.15 90.0798 137.944 93.118 139.852L96.6841 145.816L104.062 141.591C107.105 140.141 109.023 136.626 109.023 131.481C109.023 127.673 107.972 123.537 106.187 119.633C103.424 113.575 98.9091 108.057 93.7935 105.104Z" fill="#FFC49B"/>
<path d="M109.639 117.567C107.706 118.679 104.636 117.022 102.541 113.79C98.3921 107.39 93.132 101.828 87.3862 98.1737C86.945 97.8947 86.5039 97.6281 86.0627 97.3735C79.6829 93.69 73.8357 93.0124 69.3349 94.8711C67.2216 95.7435 64.0977 93.889 62.1304 90.4788C59.9891 86.7667 60.0899 82.7537 62.3798 81.7841C68.7347 79.0936 77.0189 80.0247 86.0627 85.2463L86.1781 85.3128C86.7351 85.6344 87.2807 85.9618 87.8268 86.3255C95.9852 91.4832 103.448 99.3797 109.324 108.47C111.675 112.106 111.811 116.315 109.639 117.567Z" fill="#B0B0B0"/>
<path d="M124.534 108.967L124.523 108.973C122.568 110.105 119.404 108.43 117.353 105.104C109.07 91.6692 98.0895 80.0621 86.062 73.118C73.8813 66.0856 62.7803 65.0791 54.4623 69.1238C52.4166 70.1183 49.2293 68.1401 47.2626 64.7341L47.2506 64.7133C45.1545 61.0828 45.1888 57.1301 47.3722 56.0758C57.567 51.1525 71.1611 52.3881 86.062 60.9908C100.783 69.4896 114.227 83.7046 124.38 100.145C126.591 103.725 126.637 107.749 124.534 108.967Z" fill="#B0B0B0"/>
<path d="M139.382 100.388L139.378 100.391C137.397 101.535 134.194 99.7891 132.142 96.4023C120.049 76.4388 103.844 59.129 86.0628 48.863C68.1242 38.5061 51.798 37.1681 39.6671 43.3483C37.6183 44.3922 34.3982 42.439 32.4086 38.9929L32.405 38.9862C30.3084 35.3546 30.3661 31.4435 32.5266 30.3461C46.5291 23.2326 65.3744 24.7909 86.0628 36.7352C106.582 48.5824 125.272 68.5412 139.24 91.573C141.421 95.1703 141.486 99.1734 139.382 100.388Z" fill="#FF7312"/>
<path d="M124.534 108.967L124.523 108.973C122.568 110.105 119.404 108.43 117.353 105.104C109.07 91.6692 98.0895 80.0621 86.062 73.118C73.8813 66.0856 62.7803 65.0791 54.4623 69.1238C52.4166 70.1183 49.2293 68.1401 47.2626 64.7341L47.2506 64.7133C45.1545 61.0828 45.1888 57.1301 47.3722 56.0758C57.567 51.1525 71.1611 52.3881 86.062 60.9908C100.783 69.4896 114.227 83.7046 124.38 100.145C126.591 103.725 126.637 107.749 124.534 108.967Z" fill="#B0B0B0"/>
<path d="M109.639 117.567C107.706 118.679 104.636 117.022 102.541 113.79C98.3921 107.39 93.132 101.828 87.3862 98.1737C86.945 97.8947 86.5039 97.6281 86.0627 97.3735C79.6829 93.69 73.8357 93.0124 69.3349 94.8711C67.2216 95.7435 64.0977 93.889 62.1304 90.4788C59.9891 86.7667 60.0899 82.7537 62.3798 81.7841C68.7347 79.0936 77.0189 80.0247 86.0627 85.2463L86.1781 85.3128C86.7351 85.6344 87.2807 85.9618 87.8268 86.3255C95.9852 91.4832 103.448 99.3797 109.324 108.47C111.675 112.106 111.811 116.315 109.639 117.567Z" fill="#B0B0B0"/>
<path d="M124.534 108.967L124.523 108.973C122.568 110.105 119.404 108.43 117.353 105.104C109.07 91.6692 98.0895 80.0621 86.062 73.118C73.8813 66.0856 62.7803 65.0791 54.4623 69.1238C52.4166 70.1183 49.2293 68.1401 47.2626 64.7341L47.2506 64.7133C45.1545 61.0828 45.1888 57.1301 47.3722 56.0758C57.567 51.1525 71.1611 52.3881 86.062 60.9908C100.783 69.4896 114.227 83.7046 124.38 100.145C126.591 103.725 126.637 107.749 124.534 108.967Z" fill="#FF7312"/>
<path d="M109.639 117.567C107.706 118.679 104.636 117.022 102.541 113.79C98.3921 107.39 93.132 101.828 87.3862 98.1737C86.945 97.8947 86.5039 97.6281 86.0627 97.3735C79.6829 93.69 73.8357 93.0124 69.3349 94.8711C67.2216 95.7435 64.0977 93.889 62.1304 90.4788C59.9891 86.7667 60.0899 82.7537 62.3798 81.7841C68.7347 79.0936 77.0189 80.0247 86.0627 85.2463L86.1781 85.3128C86.7351 85.6344 87.2807 85.9618 87.8268 86.3255C95.9852 91.4832 103.448 99.3797 109.324 108.47C111.675 112.106 111.811 116.315 109.639 117.567Z" fill="#B0B0B0"/>
<path d="M109.639 117.567C107.706 118.679 104.636 117.022 102.541 113.79C98.3921 107.39 93.132 101.828 87.3862 98.1737C86.945 97.8947 86.5039 97.6281 86.0627 97.3735C79.6829 93.69 73.8357 93.0124 69.3349 94.8711C67.2216 95.7435 64.0977 93.889 62.1304 90.4788C59.9891 86.7667 60.0899 82.7537 62.3798 81.7841C68.7347 79.0936 77.0189 80.0247 86.0627 85.2463L86.1781 85.3128C86.7351 85.6344 87.2807 85.9618 87.8268 86.3255C95.9852 91.4832 103.448 99.3797 109.324 108.47C111.675 112.106 111.811 116.315 109.639 117.567Z" fill="#B0B0B0"/>
<path d="M109.639 117.567C107.706 118.679 104.636 117.022 102.541 113.79C98.3921 107.39 93.132 101.828 87.3862 98.1737C86.945 97.8947 86.5039 97.6281 86.0627 97.3735C79.6829 93.69 73.8357 93.0124 69.3349 94.8711C67.2216 95.7435 64.0977 93.889 62.1304 90.4788C59.9891 86.7667 60.0899 82.7537 62.3798 81.7841C68.7347 79.0936 77.0189 80.0247 86.0627 85.2463L86.1781 85.3128C86.7351 85.6344 87.2807 85.9618 87.8268 86.3255C95.9852 91.4832 103.448 99.3797 109.324 108.47C111.675 112.106 111.811 116.315 109.639 117.567Z" fill="#FF7312"/>
<path d="M98.456 124.029C95.6938 117.971 91.1778 112.453 86.0628 109.5C80.7799 106.45 76.1273 106.868 73.4071 110.003C71.7792 111.865 70.834 114.678 70.834 118.292C70.834 124.199 73.3546 130.868 77.2195 136.29C79.7084 139.788 82.7648 142.765 86.0628 144.669C89.1924 146.477 92.1017 147.065 94.5283 146.586C98.6031 145.797 101.292 141.977 101.292 135.877C101.292 132.069 100.241 127.934 98.456 124.029Z" fill="#FF7312"/>
<path d="M136.105 128.272C136.083 128.54 136.048 128.826 136.174 129.064C136.259 129.227 136.409 129.345 136.563 129.446C137.802 130.264 139.547 130.225 140.749 129.353C140.928 129.223 141.103 129.065 141.167 128.854C141.257 128.558 141.108 128.248 140.974 127.968C140.027 125.998 139.661 123.806 139.306 121.648C139.325 121.784 137.946 122.595 137.783 122.708C137.255 123.076 136.727 123.443 136.2 123.81C135.856 124.05 135.494 124.266 135.521 124.731C135.549 125.23 135.85 125.736 135.96 126.224C136.11 126.894 136.161 127.587 136.105 128.272Z" fill="#FDE2D0"/>
<path d="M145.088 135.407C144.343 135.407 144.114 135.955 144.358 136.327C143.979 136.785 143.977 137.238 143.752 142.668C143.702 143.875 143.808 145.139 143.826 146.005C143.83 146.256 143.88 146.978 144.1 147.175L144.099 147.176C144.635 147.646 145.742 147.314 146.036 147.565C146.316 147.805 146.616 147.762 146.786 147.584C147.177 147.175 146.998 142.998 147.017 140.359C147.044 135.931 147.707 136.253 145.741 135.547C145.527 135.47 145.322 135.407 145.088 135.407Z" fill="#FDE2D0"/>
<path d="M122.907 139.259C122.15 139.259 121.616 139.615 121.385 140.377C121.101 141.297 122.033 142.151 121.886 141.973C125.941 146.878 127.7 147.047 130.217 148.59C133.869 150.829 133.369 149.967 135.8 150.668C138.945 151.59 139.381 151.924 142.336 152.04C143.199 152.075 148.497 152.395 149.683 151.959C150.662 151.6 150.39 150.615 149.956 150.044C149.764 149.791 149.372 149.401 149.412 149.442C149.049 149.069 148.735 148.654 148.385 148.242C147.657 147.389 145.742 145.827 144.431 145.201C143.375 144.694 141.971 144.409 140.851 144.261L140.911 144.271C139.767 144.113 137.512 143.987 136.358 144.229C135.359 143.422 134.266 142.363 132.046 141.434C128.361 139.877 124.301 139.259 122.907 139.259Z" fill="#3C3C48"/>
<path d="M122.714 139.179C120.784 139.179 118.6 142.022 122.011 146.254C123.3 148.005 128.58 154.188 128.93 154.516C129.727 155.266 129.997 155.294 130.411 155.797C130.61 156.04 132.474 159.222 133.541 160.206C133.699 160.351 134.263 160.727 134.436 160.853C136.871 162.824 138.263 160.875 137.55 158.943C137.053 157.6 136.399 157.535 135.411 155.2L135.412 155.205C134.183 152.329 133.417 152.913 132.287 150.342L132.293 150.361C131.059 147.37 130.539 146.013 128.246 143.087L128.265 143.114C128.232 143.072 127.991 142.767 127.867 142.609L127.886 142.639C127.439 142.059 125.985 140.521 125.677 140.235C124.507 139.145 123.802 139.322 123.3 139.237C123.126 139.209 122.92 139.179 122.714 139.179Z" fill="#3C3C48"/>
<path d="M145.642 147.769C144.366 147.775 142.784 148.594 141.853 149.009L141.874 149.002L140.206 149.758C139.839 149.909 139.438 150.064 139.053 150.232L139.075 150.224C139.072 150.225 137.833 150.8 137.835 150.8C137.822 150.806 136.409 151.407 136.396 151.413L136.433 151.402C136.394 151.416 135.775 151.682 135.754 151.692L135.771 151.685C135.736 151.701 135.615 151.752 135.58 151.768L135.598 151.763C133.52 152.667 132.578 152.533 131.524 152.833C131.253 152.909 129.376 153.335 128.722 153.335C128.544 153.335 128.269 153.333 127.986 153.225C127.915 153.196 127.51 153.054 127.51 153.054C126.465 152.56 125.886 152.738 125.886 152.738C125.886 152.738 125.062 152.806 124.121 153.616C123.342 154.289 123.094 154.279 122.625 154.601C121.359 155.47 121.562 155.163 120.632 155.939C119.81 156.624 119.192 156.959 119.143 157.655C119.125 157.907 119.226 158.165 119.527 158.38C119.94 158.672 121.449 158.91 122.089 158.928C123.253 158.962 124.226 158.601 124.869 158.408C126.072 158.046 126.702 157.735 128.131 157.529C129.194 157.376 137.837 157.018 138.887 156.883C139.065 156.86 143.785 156.115 146.144 154.97C147.475 154.327 147.761 154.406 148.973 153.566C149.153 153.442 149.75 152.944 149.857 152.812C150.478 152.043 150.512 151.795 150.46 151.231C150.258 149.063 147.939 147.769 145.642 147.769ZM135.604 151.758L135.694 151.723C135.693 151.724 135.604 151.758 135.604 151.758ZM120.101 157.601C120.103 157.599 120.105 157.595 120.105 157.595C120.17 157.622 120.238 157.648 120.311 157.671C120.237 157.648 120.168 157.626 120.101 157.601Z" fill="#3C3C48"/>
<path d="M125.222 128.557L121.614 128.255C121.473 128.243 121.371 128.287 121.312 128.366L121.308 128.365L121.124 128.645C121.124 128.645 121.222 128.705 121.293 128.747C121.301 128.77 121.307 128.792 121.319 128.816L124.241 135.022C124.4 135.359 124.788 135.653 125.109 135.68L128.574 135.97L128.572 135.975L128.852 136.13L129.04 135.846L129.039 135.845C129.096 135.743 129.092 135.594 129.011 135.421L126.089 129.215C125.931 128.879 125.543 128.584 125.222 128.557Z" fill="#1A2654"/>
<path d="M128.552 136.233L124.944 135.931C124.623 135.904 124.234 135.61 124.076 135.273L121.153 129.067C120.995 128.73 121.127 128.479 121.448 128.506L125.056 128.808C125.377 128.835 125.766 129.129 125.925 129.466L128.847 135.672C129.005 136.009 128.873 136.26 128.552 136.233Z" fill="#1A2654"/>
<path d="M125.668 130.719C125.497 130.719 125.292 130.813 125.13 130.896C124.933 130.999 124.822 131.193 124.686 131.378L124.704 131.36C124.348 131.8 123.894 132.621 123.682 133.127C123.188 134.31 124.083 136.847 124.467 137.51L124.465 137.51C125.207 139.498 124.561 139.193 127.108 141.463C127.612 141.91 128.091 142.542 128.845 142.902C129.074 143.01 129.052 143.107 129.298 143.227C130.878 143.998 131.832 139.669 132.113 137.922C132.416 136.024 132.819 135.797 132.13 134.599C131.844 134.102 131.613 132.582 131.531 132.009C131.439 131.284 131.579 130.856 131.179 130.856C130.6 130.856 130.402 132.792 130.366 133.367C130.279 134.808 129.962 135.644 129.869 136.153C129.739 136.884 129.413 138.757 128.987 139.4C128.639 139.18 126.815 136.69 126.748 136.513C126.748 136.511 126.67 136.307 126.668 136.307C126.668 136.307 126.711 135.595 126.711 135.594C126.746 133.309 126.712 134.584 126.674 133.121C126.645 132.067 126.737 130.719 125.668 130.719Z" fill="#FDE2D0"/>
<path d="M133.723 125.198C130.819 125.198 130.795 127.835 130.246 129.176L130.27 129.124C129.975 129.814 129.757 130.947 129.644 131.344C129.495 131.857 129.355 132.48 129.762 132.823C130.427 133.385 130.803 132.534 131.469 135.027C131.709 135.916 131.687 135.679 131.67 137.312C131.661 138.197 131.653 138.669 131.501 139.94L131.506 139.925C131.042 142.659 130.755 141.665 133.495 143.547C133.712 143.696 133.882 143.772 134.001 143.887C134.262 144.138 134.312 144.128 134.76 144.441C136.436 145.582 136.115 145.549 137.751 145.739C138.202 145.793 142.36 145.74 143.754 145.456C144.63 145.279 144.187 144.22 144.409 141.922C144.413 141.884 144.477 140.209 144.477 139.81C146.827 140.192 147.747 140.421 148.082 139.845C148.152 139.726 148.556 136.467 148.454 135.068C148.43 134.737 148.173 133.2 148.202 133.378C148.022 132.264 147.577 130.85 146.6 130.29C146.402 130.178 145.872 129.992 145.974 130.03C145.671 129.879 145.874 129.929 145.058 129.566C144.027 129.108 143.827 129.247 143.105 128.724C142.383 128.151 142.348 128.168 141.852 127.937C141.674 127.853 141.31 127.567 140.877 127.567C139.854 127.567 140.356 128.917 137.94 128.669C137.126 128.528 136.699 128.081 136.563 127.248C136.997 126.79 136.65 126.086 135.994 125.874C135.921 125.85 135.869 125.814 135.794 125.768C134.99 125.274 133.913 125.198 133.723 125.198Z" fill="#F5F5F5"/>
<path d="M135.172 116.951C134.76 116.951 134.215 117.055 133.524 117.59C131.729 118.23 131.478 121.173 132.088 122.858C132.552 124.142 134.168 128.327 135.522 128.327C136.51 128.327 137.578 126.883 137.978 125.618C138.46 124.093 139.399 121.69 138.176 119.031C137.889 118.403 136.741 117.167 135.905 117.015C135.685 116.975 135.359 116.951 135.172 116.951Z" fill="#FDE2D0"/>
<path d="M136.041 114.15C135.82 114.15 134.982 114.325 134.819 114.374C133.369 114.374 133.354 114.919 132.377 115.892C131.418 116.846 130.833 118.917 131.549 119.487C132.242 120.039 132.692 119.683 134.285 119.454L134.241 119.457C134.513 119.42 134.58 119.384 134.885 119.384C136.127 119.384 137.244 120.267 137.53 122.014C137.62 122.563 137.623 123.606 137.614 124.13C137.588 125.799 138.606 126.028 139.332 125.191C139.449 125.055 139.659 124.8 139.804 124.61L139.789 124.628C141.255 122.639 141.917 118.31 139.531 115.718C138.463 114.56 138.918 114.938 137.137 114.307C136.815 114.193 136.421 114.162 136.077 114.151C136.065 114.15 136.053 114.15 136.041 114.15Z" fill="#3C3C48"/>
<path d="M138.01 121.384C137.781 121.409 137.598 121.575 137.446 121.756C137.232 122.011 137.095 122.21 137.04 122.428C136.977 122.675 136.887 122.986 136.97 123.147C137.103 123.403 137.209 123.194 137.123 123.455C136.64 124.143 137.427 124.743 137.984 124.398C138.722 123.947 139.144 122.442 139.006 122.035C138.834 121.524 138.443 121.337 138.01 121.384ZM139.018 122.437C139.003 122.535 139.005 122.522 139.018 122.437V122.437Z" fill="#FDE2D0"/>
<path d="M77.5325 54.0657C77.3168 54.0657 77.162 54.1904 77.07 54.2943C76.8616 54.1478 76.5691 54.2766 76.5483 54.5681C76.5073 55.1678 76.5275 55.3502 76.1586 56.246L76.1612 56.2408C75.2576 58.3863 74.7915 58.0085 73.784 60.3213L73.757 60.3842L73.7866 60.3223C73.5611 60.83 73.3574 61.5819 73.3886 61.4779C73.1324 62.3363 73.2254 62.6585 73.5346 62.884C74.0324 63.254 75.2295 62.6627 75.733 62.2813C77.7242 60.7811 78.1394 60.1477 78.0677 60.22C78.2568 59.9778 78.2916 59.9144 78.3919 59.691C79.1942 57.8952 78.9978 57.4146 78.6403 56.1088C78.3025 54.8773 78.3898 54.8867 78.2391 54.5536C78.1061 54.2611 77.8224 54.0657 77.5325 54.0657Z" fill="#3C3C48"/>
<path d="M74.0507 50.3943C73.7431 50.3943 72.9346 50.7133 72.7179 51.3135C72.6535 51.3613 72.615 51.4387 72.6145 51.5187C72.614 51.6497 72.614 51.7089 72.614 51.7089C72.534 52.1339 72.5329 52.5959 72.4955 53.2132C72.1479 54.5782 70.6046 55.9344 70.0045 57.3379L70.017 57.3145C69.2329 59.0848 69.8231 60.4296 73.7036 57.1472L73.6174 57.21C73.8699 57.0193 74.0944 56.8328 74.4596 56.4779C75.6709 55.3025 76.1676 54.8079 75.4542 53.2927C74.7241 51.7333 75.1601 50.9404 74.4274 50.4951C74.324 50.4322 74.1832 50.3943 74.0507 50.3943Z" fill="#3C3C48"/>
<path d="M88.709 31.4036C87.9743 31.4036 87.7155 31.6857 87.2396 32.1757C87.066 32.355 86.6987 32.6444 86.959 33.0726C83.939 35.297 81.1398 38.1128 80.6717 38.8002C79.6512 40.2921 77.5369 45.6742 76.2545 51.3468C75.6065 54.2192 75.3145 54.7601 75.2209 55.6528C75.1601 56.2031 75.4984 56.744 75.9629 56.9524C76.5324 57.208 76.8811 57.2226 78.0222 57.2184C78.3942 57.2174 78.6551 57.2371 78.945 56.811C79.4262 56.1054 79.5748 53.8763 79.8746 52.9077C80.5615 50.6827 82.7964 47.2611 83.2983 44.993C83.8278 42.6048 83.2947 42.4131 85.3955 41.2513C85.965 40.9359 86.1099 40.8444 86.4789 40.581C87.3726 39.9403 89.8459 38.7114 90.5838 38.1824C91.5846 37.4596 92.7895 36.8117 92.3754 34.9759C92.1567 34.0125 91.9244 33.9107 91.4396 33.4436C90.8171 32.8455 90.7807 32.9671 90.5017 32.4838C90.1936 31.9481 89.9202 31.6166 89.1699 31.4529C89.0177 31.4202 88.8628 31.4036 88.709 31.4036Z" fill="#3C3C48"/>
<path d="M83.1231 29.5823C82.4248 29.5823 81.8283 30.0723 80.0278 31.0616C78.2694 32.0302 78.5906 32.0681 76.8727 33.1749C73.1933 35.5469 72.4934 36.4157 72.0642 37.2284C71.1679 38.9197 71.1217 39.6555 71.0671 40.4406C71.0562 40.6017 70.9559 46.398 71.6038 50.3688C71.952 52.4992 71.8252 52.5169 72.4851 52.7502C72.7059 52.8282 73.2095 52.8843 73.0915 52.8682C73.6745 52.9497 74.0491 52.9955 74.7636 52.6504C75.3004 52.3906 75.3944 52.2555 75.7015 48.7196C76.098 44.2437 76.5147 43.2216 76.1525 42.1127C75.9146 41.3832 75.502 40.7711 75.833 39.6669C75.94 39.4731 76.2175 39.1956 76.3817 39.0454C77.6126 37.9163 78.204 37.9272 78.8062 37.5417C79.2354 37.2668 80.0699 36.6454 80.1359 36.584L80.1369 36.5851L80.151 36.5721L80.152 36.5731L80.1681 36.5586L80.1671 36.5575L81.4074 35.6872C85.1538 33.0289 85.9639 33.4773 86.0246 32.303C86.0392 32.012 85.8932 31.8312 85.5975 31.3157C85.1195 30.4828 84.9953 30.6199 84.6009 30.3471C83.8573 29.7314 83.5352 29.5823 83.1231 29.5823Z" fill="#3C3C48"/>
<path d="M98.9808 26.994C98.9537 26.45 98.6539 23.7922 98.6539 23.7922C98.6539 23.7891 98.6373 23.6763 98.6207 23.563C98.6056 23.4487 98.589 23.3354 98.589 23.3323V23.3547C98.589 23.3516 98.5874 23.3157 98.5843 23.3157C98.5827 23.3126 98.5827 23.3069 98.5812 23.3069L98.5796 23.2814L98.5781 23.283C98.2528 17.7803 97.1528 18.3965 94.5355 16.2661C93.7971 15.6649 93.1466 15.5018 92.4607 15.0393C91.1575 14.1601 90.1359 16.0796 89.714 14.3347C89.8496 14.089 89.7893 13.785 89.4459 13.5979C89.3191 13.5298 89.0931 13.3584 88.9772 13.2726C88.6322 13.0134 88.6488 13.0664 88.138 12.8325C87.8335 12.6938 87.6304 12.5992 87.249 12.5509C87.1601 12.5389 87.0728 12.5327 86.9866 12.5327C86.004 12.5327 85.0219 13.2467 84.4072 14.0245C83.4911 15.1833 83.449 15.7527 82.2674 17.8109C81.1555 19.7501 81.2958 19.7574 80.8619 20.874C80.5995 21.549 80.6722 21.787 80.8437 21.9907C80.9248 22.0884 81.0302 22.1788 81.1331 22.3056C82.0144 23.3994 82.8567 23.7491 83.3841 23.9553C83.5498 24.0219 83.6839 24.0728 83.779 24.1284C83.8756 24.6844 82.3475 28.0878 81.992 29.0086C81.7603 29.6098 81.3701 30.1897 81.1513 30.8511C81.1498 30.8574 81.1482 30.8615 81.1482 30.8662C81.0791 31.0771 81.0292 31.2969 81.0079 31.5292C81.0063 31.5323 81.0063 31.5355 81.0063 31.5365C80.9824 31.7942 80.9944 32.0655 81.0562 32.3549C81.2054 33.0387 82.3475 33.5962 82.9907 33.8659C82.9907 33.8659 83.7546 34.3403 84.7127 34.9207C85.6366 35.4767 86.7392 36.1319 87.5108 36.5497C88.2612 36.9519 88.5864 37.2294 88.5698 37.2174C88.5714 37.219 88.5729 37.2205 88.576 37.2221C88.879 37.4377 90.1297 37.9968 90.2788 38.0373C90.9372 38.2135 92.0808 37.7677 92.9309 36.889C93.0634 36.7534 93.1632 36.6526 93.2427 36.571C93.5368 36.2728 93.5695 36.2333 93.9343 35.7375C94.7345 34.6921 94.8337 33.5843 94.9018 32.9711C94.908 32.9109 94.9153 32.8553 94.9215 32.8038C94.9215 32.8038 95.012 31.987 95.012 31.9854C95.3435 29.2476 95.2276 29.8581 95.2167 28.3466C95.2151 28.1372 95.1803 28.0993 95.2967 28.1252C95.3887 28.1465 95.5768 28.2068 95.9504 28.2546C96.3302 28.3029 96.7007 28.2333 97.0759 28.1626C97.5913 28.066 98.0117 28.027 98.3266 27.9428C98.7802 27.8213 99.0125 27.6077 98.9808 26.994Z" fill="#F5F5F5"/>
<path d="M92.8403 8.03613C92.6163 8.03613 92.487 8.14369 92.3752 8.29282C91.9424 8.86751 91.0715 9.7311 90.752 9.98987C89.8271 10.6576 88.4314 10.8857 88.1924 11.4157C88.0822 11.675 88.0386 11.9421 88.2771 12.2008C88.4356 12.8306 88.6268 13.4734 88.7198 14.1275L88.7193 14.1192C88.752 14.3666 88.8237 15.4209 88.8169 15.6718C88.7977 16.3 88.6621 16.3749 88.8424 16.7126C89.2134 17.4172 91.2441 17.3808 92.0178 17.1777L92.3856 17.081C92.6382 17.0561 92.9557 17.0867 93.1193 16.6331C93.1703 16.3489 93.138 16.273 93.0684 15.876C92.7821 14.2439 92.939 13.4411 93.0175 12.8929L93.0154 12.9013C93.4992 9.54093 93.3235 9.9722 93.363 8.95065C93.3755 8.63576 93.442 8.06523 92.8403 8.03613Z" fill="#FDE2D0"/>
<path d="M83.3847 23.9553C83.023 24.475 82.7715 24.7342 82.2846 26.3965C81.8222 27.9813 82.1023 27.3806 81.6294 28.9956C81.4138 29.7324 81.2662 30.3367 81.1519 30.8516C81.1503 30.8579 81.1488 30.862 81.1488 30.8667C81.0947 31.1063 81.0495 31.325 81.0085 31.5297C81.0069 31.5329 81.0069 31.536 81.0069 31.537C80.823 32.4427 80.7175 33.0621 80.4057 33.7776C79.473 36.0228 78.3429 36.2681 78.0659 35.75C77.7027 35.075 77.9137 33.0875 78.188 32.5123C78.188 32.5123 78.3309 32.2156 78.4094 32.0421C78.5663 31.655 79.1041 29.7173 79.2803 28.6895C79.2803 28.6895 79.3946 28.2421 79.5619 27.2523C79.6902 26.4625 79.6674 26.582 79.7126 26.3679C79.7999 25.9371 79.9204 25.113 79.9204 25.113L79.922 25.1084C79.9204 25.1084 79.9204 25.1084 79.9204 25.1084C79.9417 24.9681 79.9656 24.676 79.9822 24.4952C80.0773 23.4253 80.4327 22.6558 80.8443 21.9912C80.9253 22.0889 81.0308 22.1793 81.1337 22.3061C82.015 23.3994 82.8573 23.7485 83.3847 23.9553Z" fill="#FDE2D0"/>
<path d="M88.5949 4.56763C87.829 4.56763 86.9093 5.01397 86.4894 5.50449C85.4294 6.74117 84.4983 11.1994 87.2127 14.7723C87.4798 15.1371 88.0592 16.6039 89.7661 15.2275C89.9531 15.0773 90.7019 14.3878 90.6629 14.4231C92.3231 12.924 92.9451 10.2771 92.5278 8.13372C92.2088 6.49019 91.4647 5.72948 90.5003 5.12257C89.8861 4.74118 89.2049 4.56763 88.5949 4.56763Z" fill="#FDE2D0"/>
<path d="M89.8176 2.37476C89.3286 2.37476 88.9555 2.41789 87.4388 3.22121C86.9363 3.48569 85.3676 4.18249 85.2003 5.36253C85.191 5.42436 85.1213 5.89721 85.0891 5.95073C85.0044 6.09726 85.0792 6.61739 85.4185 6.89226C85.5734 7.01905 85.7168 7.17545 85.9537 7.2986C86.1502 7.40252 86.9368 7.50229 86.7862 7.47891C88.4198 7.73404 88.836 6.78522 89.8514 6.88187C89.9735 6.90422 90.1901 6.95514 90.2941 7.0232C90.7971 7.47527 91.02 8.07386 91.1021 8.22455L91.1005 8.22507C92.1408 10.7935 90.4203 14.396 91.6518 14.396C92.3632 14.396 93.3478 12.9317 93.7355 12.3394C94.7581 10.7769 95.5032 7.47215 94.3938 5.29498C93.3884 3.31681 92.8126 3.10273 90.9555 2.5057C90.6604 2.40957 90.1839 2.38567 89.894 2.37579C89.8664 2.37527 89.842 2.37476 89.8176 2.37476Z" fill="#3C3C48"/>
<path d="M91.5219 9.86192C91.3276 9.88322 91.1722 10.0246 91.0438 10.1778C90.8625 10.3945 90.7461 10.5629 90.6993 10.7479C90.6458 10.9567 90.57 11.2212 90.6401 11.3574C90.7523 11.5751 90.8422 11.3974 90.77 11.6192C90.3606 12.2028 91.0283 12.7115 91.5006 12.4194C92.1272 12.0365 92.4847 10.7603 92.3678 10.4148C92.2208 9.9809 91.8893 9.8219 91.5219 9.86192ZM92.3777 10.7551C92.3637 10.8383 92.3657 10.8274 92.3777 10.7551V10.7551Z" fill="#FDE2D0"/>
<path d="M70.0332 34.9995L79.4917 30.0767L91.277 35.9233H92.3802V36.4762H92.3703L82.9653 41.6126L70.0332 34.9995Z" fill="#182452"/>
<path d="M82.9653 41.0886L92.3802 35.9471L79.4917 29.5527L70.0332 34.4755L82.9653 41.0886Z" fill="#182452"/>
<path d="M65.0156 25.6798L65.4292 25.3696L78.3099 31.991L83.4234 41.3628L82.9656 41.6127L81.8921 40.8317L82.2065 40.7023L70.4471 34.6894L66.0361 26.4961L65.8595 26.6801L65.0156 25.6798Z" fill="#F5F5F5"/>
<path d="M82.9656 41.6128L77.8963 32.3014L65.0156 25.6799L70.0335 34.9997L82.9656 41.6128Z" fill="#182452"/>
<path d="M80.2543 33.844L82.9121 35.3784C83.2114 35.5509 83.6635 35.5696 83.9228 35.4205L85.8069 34.3325C86.0662 34.1828 86.0335 33.9214 85.7342 33.7489L83.0763 32.2145C82.777 32.042 82.325 32.0233 82.0657 32.1724L80.1816 33.2605C79.9228 33.4101 79.955 33.671 80.2543 33.844Z" fill="#F5F5F5"/>
<path d="M93.2435 36.5711C93.1333 36.5783 93.0206 36.5861 92.9047 36.5918C92.6787 36.6054 91.1297 36.5617 89.1302 37.0876C88.9146 37.1432 88.7327 37.1868 88.5774 37.2216C87.8588 37.377 87.7231 37.3151 87.482 37.2746C86.4937 37.1904 86.0022 37.5006 85.7974 37.5791L85.811 37.576C85.0741 37.8981 84.6507 37.8592 84.0344 38.094C83.6878 38.251 83.4332 38.4479 83.0549 38.4344C82.5727 38.4074 82.0199 38.1164 82.1737 37.7023C82.2339 37.5412 82.8606 36.1788 83.6234 35.5625C83.8525 35.3785 84.2682 35.1224 84.7141 34.9208C85.1131 34.7399 85.5366 34.6028 85.8744 34.5997C85.9014 34.5965 86.2407 34.5799 86.6699 34.648C88.2713 34.8304 87.5376 34.7987 91.6316 33.9803C92.9483 33.7168 94.2172 33.272 94.9026 32.9707C95.2097 32.8366 95.4014 32.7296 95.4285 32.6812C95.4285 32.6812 95.4373 32.5098 95.4269 32.0213C95.3968 30.4209 95.3365 29.139 95.2975 28.1248C95.3895 28.1461 95.5776 28.2063 95.9512 28.2541C96.331 28.3025 96.7015 28.2328 97.0767 28.1622C97.5921 28.0655 98.0125 28.0266 98.3274 27.9424C98.3185 28.2287 98.3123 28.5436 98.3092 28.8917C98.2713 34.8324 98.9026 36.2079 93.2435 36.5711Z" fill="#FDE2D0"/>
<path d="M31.5647 105.704C31.7429 105.678 31.9201 105.649 32.0947 105.615C33.521 105.339 34.9692 105.142 36.317 104.572C36.9214 104.316 37.4971 103.99 38.1206 103.785C38.7436 103.58 39.4404 103.502 40.0479 103.75C39.4877 104.189 38.8138 104.482 38.1102 104.592C39.653 104.567 41.1941 104.435 42.7187 104.198C42.7987 104.311 42.7483 104.467 42.6901 104.593C42.4038 105.217 41.999 105.786 41.5028 106.261C41.2643 106.49 40.9993 106.699 40.6911 106.819C40.3601 106.948 39.9969 106.966 39.642 106.956C38.6517 106.928 37.5132 106.523 36.5862 106.872C36.1445 107.038 35.8743 107.022 35.1329 107.427C34.0193 108.037 32.9016 108.638 31.7845 109.241C30.5286 109.918 27.5585 111.502 26.0334 110.866C25.187 110.512 24.7671 109.977 24.871 109.066C24.9755 108.149 25.7653 107.66 26.5821 107.231C27.8042 106.589 30.2282 105.902 31.5647 105.704Z" fill="#FDE2D0"/>
<path d="M30.5852 93.6753C30.6938 94.1372 30.673 94.6158 30.6491 95.0881C30.4163 99.6986 29.9092 104.347 28.2958 108.736C28.1217 109.21 27.9284 109.691 27.5741 110.075C27.2197 110.459 26.6689 110.732 26.1249 110.657C25.5834 110.581 25.1573 110.177 24.9505 109.72C24.7432 109.264 24.7178 108.758 24.7022 108.264C24.5691 104.02 24.9937 99.7433 26.1893 95.6275C26.4699 94.662 26.83 93.6519 27.664 92.993C28.129 92.6257 28.9074 92.2858 29.5413 92.4189C30.1451 92.5446 30.4652 93.1629 30.5852 93.6753Z" fill="#FDE2D0"/>
<path d="M27.5423 110.852C27.7667 110.751 27.998 110.707 28.2302 110.714C28.1539 110.279 28.0505 109.856 28.0499 109.411C28.0494 108.904 28.3466 108.42 28.4984 107.946C28.8112 106.97 28.913 106.001 29.1292 104.988C29.2227 104.549 29.2991 104.142 29.3012 103.689C29.3032 103.225 29.4009 102.396 29.1759 101.983C28.9577 101.583 28.2448 101.711 27.8374 101.856C27.84 101.86 27.8426 101.864 27.8452 101.868C27.8421 101.876 27.839 101.887 27.8353 101.905C28.1845 102.784 28.1357 104.145 28.091 105.1C28.0328 106.352 27.6841 107.532 27.3869 108.742C27.257 109.272 26.9884 109.863 26.9707 110.405C27.2139 110.322 27.3999 110.508 27.5423 110.852Z" fill="#F5F5F5"/>
<path d="M45.8405 102.66C45.8966 102.488 45.9502 102.317 45.998 102.146C46.3908 100.747 46.8636 99.3644 46.9582 97.9037C47.0003 97.249 46.9681 96.5881 47.0637 95.9391C47.1593 95.2901 47.4025 94.6328 47.8966 94.2005C48.0385 94.8983 47.9985 95.632 47.7808 96.3101C48.45 94.9196 49.0226 93.4834 49.4939 92.0139C49.6311 91.9931 49.748 92.1085 49.8348 92.2166C50.2645 92.7523 50.5919 93.3696 50.7935 94.0259C50.8906 94.3418 50.9597 94.6723 50.9286 95.0017C50.8953 95.355 50.7488 95.6881 50.5804 96.0009C50.1117 96.8733 49.2388 97.7099 49.1354 98.6951C49.086 99.1648 48.9504 99.3987 48.9805 100.243C49.0257 101.511 49.0626 102.78 49.1006 104.049C49.1432 105.476 49.2274 108.841 47.9751 109.918C47.2804 110.516 46.6132 110.652 45.8452 110.15C45.0725 109.646 44.9894 108.721 44.9717 107.798C44.9457 106.418 45.4186 103.943 45.8405 102.66Z" fill="#FDE2D0"/>
<path d="M31.2596 94.5231C31.3827 95.1051 31.3827 95.7047 31.3822 96.2997C31.3817 96.7699 31.3812 97.2402 31.3806 97.7104C31.3801 98.136 31.3796 98.5626 31.3422 98.9871C31.3053 99.4049 31.2331 99.8185 31.1603 100.232C31.0366 100.938 30.9125 101.644 30.7888 102.351C28.2032 102.53 25.5646 101.823 23.416 100.374C23.6753 99.2687 24.013 98.1817 24.4267 97.1243C24.8309 96.0897 25.3178 95.0677 26.0536 94.2352C26.7758 93.4184 27.9086 92.7258 28.9863 92.4867C30.1746 92.2233 31.0496 93.5301 31.2596 94.5231Z" fill="#F5F5F5"/>
<path d="M38.7003 87.514C38.4686 88.0362 38.1147 88.5854 37.5536 88.6982C37.3722 88.7346 36.8874 88.6982 36.373 88.6244C36.2493 88.6083 36.1226 88.588 35.9999 88.5667C35.4819 88.4779 35.0033 88.3615 34.8505 88.2539C34.5102 88.0149 33.9043 87.0157 33.8493 86.8769C33.8342 86.8406 33.8155 86.7995 33.7931 86.7554C33.7505 86.6675 33.6928 86.5662 33.6331 86.4587C33.4466 86.1292 33.2236 85.7416 33.2236 85.5C33.2236 83.7473 33.9646 83.2869 34.6157 82.4306C35.2678 81.5759 36.213 80.9736 37.2267 80.6167C37.7749 80.4239 38.4411 80.2727 39.0158 80.44C39.5291 80.5891 39.4626 80.9622 39.4891 81.4226C39.6081 83.513 39.5593 85.5748 38.7003 87.514Z" fill="#FDE2D0"/>
<path d="M37.1456 91.4771C35.8752 92.8468 33.8461 93.4626 32.0285 93.0282C31.5104 92.904 31.0043 92.7013 30.4712 92.6774C31.2085 92.202 31.5842 91.3218 31.7515 90.4608C31.9407 89.4995 31.9157 88.4914 31.6575 87.5452C31.606 87.3561 31.1742 86.5424 31.3732 86.3938C31.5421 86.2685 32.4925 86.6806 32.7653 86.6744C33.0682 86.6681 33.3524 86.5767 33.633 86.4592C33.6793 86.4395 33.7255 86.4192 33.7718 86.3979L33.7728 86.3969C34.0856 86.2555 34.3927 86.0929 34.7154 85.989C34.7829 85.9666 34.8557 85.9479 34.9243 85.9666C34.9819 85.9828 35.0292 86.0243 35.0744 86.0643C35.4927 86.4426 35.912 86.8193 36.3314 87.196C36.1921 87.6091 36.0861 88.0347 36.016 88.4655C36.0097 88.4992 36.0045 88.533 35.9999 88.5683C35.9385 88.9762 35.9084 89.3893 35.91 89.8024C35.91 89.9199 35.9136 90.0388 35.9261 90.1568C35.9396 90.3085 35.9687 90.4571 36.0212 90.6C36.1952 91.0677 36.6473 91.422 37.1456 91.4771Z" fill="#FDE2D0"/>
<path d="M36.0001 88.5668C35.9388 88.9747 35.9087 89.3878 35.9102 89.8009C35.9102 89.9183 35.9139 90.0373 35.9263 90.1552C35.8047 90.0877 35.6972 89.951 35.6099 89.8736C35.4207 89.7058 35.2493 89.5369 35.0778 89.3514C34.5556 88.7819 34.2506 88.0643 33.9825 87.3545C33.9123 87.168 33.8333 86.9627 33.7933 86.7549C33.7694 86.6349 33.7595 86.5143 33.772 86.3969C33.772 86.3958 33.772 86.3958 33.772 86.3943L33.7731 86.3958C34.2376 86.8864 34.6018 87.4371 35.1215 87.8778C35.388 88.1043 35.7034 88.3007 36.0167 88.4634C36.0479 88.4811 36.0791 88.4961 36.1108 88.5122C36.196 88.5548 36.2859 88.5871 36.3737 88.6234C36.249 88.6078 36.1227 88.5881 36.0001 88.5668Z" fill="#FDE2D0"/>
<path d="M34.6341 88.0551C34.9723 87.773 35.3018 87.4742 35.5626 87.1188C36.1908 86.263 36.368 85.1572 36.8938 84.2349C37.2326 83.641 37.7164 83.1302 38.2911 82.7597C38.7686 82.4516 39.3106 82.2365 39.7361 81.8598C40.3846 81.2856 40.6829 80.3888 40.6797 79.5226C40.6766 78.6564 40.4028 77.813 40.0583 77.0186C39.7299 77.3844 39.2134 77.5085 38.726 77.574C37.3812 77.7548 36.0126 77.6343 34.6616 77.7606C33.3106 77.8868 31.903 78.3124 31.0222 79.3443C30.0885 80.4381 29.9269 81.9808 29.8999 83.4191C29.8864 84.145 29.8968 84.8761 30.0407 85.588C30.2283 86.5134 30.6434 87.3921 31.2394 88.1242C32.2303 89.3422 33.5564 88.9546 34.6341 88.0551Z" fill="#3C3C48"/>
<path d="M37.2171 83.9205C37.108 83.7454 36.9688 83.5796 36.7817 83.4934C36.5946 83.4066 36.351 83.417 36.2044 83.562C36.0906 83.6742 36.0527 83.8467 36.0683 84.0057C36.0839 84.1652 36.1462 84.3154 36.2075 84.463C36.4221 84.9784 36.6419 85.5027 36.9984 85.9325C37.0607 86.0073 37.1496 86.0863 37.2426 86.0577C37.2977 86.041 37.3346 85.9906 37.3652 85.9418C37.3652 85.814 37.545 85.5791 37.5809 85.4393C37.6313 85.246 37.6474 85.046 37.6349 84.8465C37.6219 84.8501 37.6536 84.8844 37.6126 84.8802C37.4151 84.6532 37.3928 84.2016 37.2171 83.9205Z" fill="#FDE2D0"/>
<path d="M29.3614 153.425C29.3099 153.808 29.2601 154.206 29.3785 154.574C29.617 155.313 30.4863 155.692 31.2595 155.625C32.0322 155.558 32.7285 155.15 33.3915 154.747C34.4759 154.088 35.5588 153.409 36.4884 152.546C36.8386 152.22 37.1717 151.861 37.365 151.423C37.5577 150.986 37.592 150.456 37.3551 150.041C36.9867 149.397 36.0982 149.236 35.379 149.421C34.6599 149.605 34.0384 150.047 33.3655 150.36C32.4489 150.785 31.9101 151.107 30.9711 151.47C29.8493 151.903 29.5126 152.296 29.3614 153.425Z" fill="#3C3C48"/>
<path d="M28.1219 117.616C27.9265 120.014 28.3536 122.414 28.7033 124.795C29.0707 127.297 29.3544 129.811 29.5534 132.332C29.6147 133.108 29.6683 133.891 29.5877 134.665C29.4578 135.918 28.9839 137.107 28.7298 138.34C28.2991 140.434 28.5095 142.6 28.7215 144.726C28.8623 146.134 29.0026 147.543 29.1434 148.951C29.277 150.286 29.4121 151.633 29.8184 152.911C31.0114 153.347 31.6797 152.864 32.1 152.456C32.3198 148.759 32.9169 145.085 33.8792 141.508C34.1806 140.388 34.5183 139.274 34.7126 138.131C34.9324 136.839 34.9673 135.524 35.0545 134.217C35.3881 129.226 36.4965 124.25 36.0496 119.267C35.8766 117.34 35.4728 115.443 35.0696 113.551C35.0332 113.379 34.9912 113.198 34.868 113.073C34.7298 112.934 34.5209 112.897 34.3266 112.868C33.3029 112.712 32.2793 112.556 31.2557 112.4C30.6352 112.306 29.8163 112.007 29.3227 112.531C28.8374 113.046 28.7402 114.201 28.5828 114.863C28.3671 115.77 28.1967 116.687 28.1219 117.616Z" fill="#3C3C48"/>
<path d="M39.5396 155.458C39.472 155.861 39.4045 156.279 39.5136 156.672C39.7365 157.479 40.6552 157.928 41.4907 157.894C42.3268 157.86 43.0979 157.459 43.8368 157.067C44.9908 156.455 46.1465 155.842 47.2434 155.134C47.8825 154.721 48.5278 154.245 48.8495 153.556C49.1711 152.866 49.0433 151.91 48.3844 151.531C47.6694 151.119 46.7892 151.539 46.0186 151.834C45.1888 152.152 44.3102 152.317 43.4367 152.482C42.5518 152.649 41.035 152.635 40.2629 153.082C39.5916 153.471 39.6643 154.719 39.5396 155.458Z" fill="#3C3C48"/>
<path d="M34.0888 122.06C34.5934 122.815 35.2013 123.5 35.6778 124.274C36.3289 125.331 36.7176 126.524 37.101 127.705C38.1501 130.938 39.2091 134.229 39.2637 137.627C39.3021 140.006 38.8454 142.367 38.7841 144.746C38.7435 146.329 38.8786 147.91 39.0132 149.487C39.1514 151.106 39.2896 152.724 39.4279 154.342C40.7451 154.467 42.0976 154.185 43.2553 153.545C43.0329 149.541 43.459 145.525 44.148 141.574C44.4806 139.666 44.8755 137.765 45.0475 135.836C45.3634 132.296 44.9248 128.737 44.4873 125.21C43.9443 120.834 43.3899 116.412 41.8622 112.275C41.9656 112.555 34.5154 113.275 33.8737 113.339C31.4975 113.577 32.146 116.442 32.5009 118.164C32.7857 119.546 33.3037 120.884 34.0888 122.06Z" fill="#3C3C48"/>
<path d="M28.9361 102.274C28.6846 102.081 28.0626 102.141 27.7467 102.079C27.5716 102.045 27.3357 101.99 27.2001 101.86C26.9922 101.662 27.0925 101.427 27.145 101.139C27.3638 99.9457 27.3627 98.6534 27.3082 97.4225C27.2895 97.0052 27.2136 96.601 27.2141 96.1785C27.2146 95.8881 27.2941 95.6942 27.3632 95.4329C27.8018 95.9057 27.6906 97.0276 27.8626 97.6391C28.0429 98.2814 28.2435 98.9283 28.3692 99.5804C28.4601 100.053 28.4014 100.554 28.5033 101.031C28.562 101.302 28.7054 101.976 28.9361 102.274Z" fill="#ECECEC"/>
<path d="M32.3845 132.165C32.6215 132.967 32.8932 133.764 33.007 134.592C33.138 135.547 33.0548 136.517 32.9717 137.478C32.8771 138.568 32.7826 139.659 32.6885 140.749C32.4443 143.569 32.2349 146.396 31.7776 149.189C31.5942 150.31 31.9777 151.213 32.0967 152.472C33.1936 148.917 33.6945 145.578 34.3731 141.92C35.1374 137.798 35.3603 133.599 35.5822 129.414C35.6461 128.205 35.71 126.997 35.774 125.789C35.8062 125.176 35.8301 124.525 35.5271 123.991C35.2252 123.459 34.6578 123.147 34.1393 122.823C32.7997 121.984 31.9387 120.776 30.767 119.803C30.3492 120.36 30.7342 121.813 30.7888 122.482C30.8777 123.573 30.9805 124.663 31.1141 125.75C31.3806 127.914 31.7657 130.071 32.3845 132.165Z" fill="#3C3C48"/>
<path d="M44.831 98.9603L36.0121 97.9465C35.5616 97.8945 35.4489 97.5116 35.7611 97.0907L44.0978 85.8473C44.4096 85.4264 45.0279 85.1277 45.4789 85.1791L54.2978 86.1929C54.7483 86.2448 54.861 86.6278 54.5488 87.0487L46.2121 98.292C45.8998 98.7129 45.2815 99.0122 44.831 98.9603Z" fill="#3C3C48"/>
<path d="M36.8815 96.8296L44.6835 86.3069C44.8607 86.0679 45.2114 85.8985 45.4671 85.9276L53.2851 86.826C53.5408 86.8556 53.6047 87.0728 53.4275 87.3118L45.6255 97.8345C45.4484 98.0735 45.0976 98.2429 44.842 98.2138L37.0239 97.3154C36.7682 97.2858 36.7043 97.0681 36.8815 96.8296Z" fill="#182452"/>
<path d="M42.2795 104.936C42.3596 104.191 42.4749 103.447 42.4708 102.699C42.4635 101.346 42.0681 100.028 41.6758 98.7329C41.1489 96.9912 40.622 95.2494 40.0946 93.5077C39.9018 92.8701 39.7064 92.2268 39.3837 91.6444C38.5352 91.7873 37.654 91.7311 36.8304 91.4812L36.9514 91.5649C35.8125 92.5256 34.3014 93.0291 32.8143 92.9564C32.8148 92.9533 32.8159 92.9512 32.8164 92.9481C32.6532 92.8691 32.3783 92.894 32.1747 92.8036C31.9975 92.7252 31.8036 92.6171 31.6389 92.5131C31.3828 92.3521 31.0829 91.9956 31.218 91.674C30.741 92.0221 30.3991 92.138 29.812 92.1655C29.3973 92.1848 28.8891 92.2201 28.5587 92.5038C27.9933 92.9891 27.6842 93.7322 27.5589 94.4684C27.5475 94.5027 27.535 94.5365 27.5252 94.5713C27.3417 95.2053 27.3958 95.8808 27.4581 96.5381C27.5891 97.9135 27.7522 99.2905 28.0879 100.631C28.2983 101.471 28.5763 102.295 28.7312 103.146C29.3563 106.578 27.9492 110.144 28.6075 113.569C29.0248 113.539 29.3698 113.863 29.6977 114.123C30.8107 115.004 32.2791 115.313 33.6976 115.347C35.1162 115.381 36.53 115.169 37.9486 115.134C39.5646 115.093 41.3697 115.222 42.5877 114.159C42.2099 111.099 41.9491 108.001 42.2795 104.936Z" fill="#F5F5F5"/>
<path d="M39.1763 92.8297C38.7315 92.5673 38.1241 92.8209 37.8347 93.2485C37.5453 93.6762 37.498 94.2197 37.4876 94.7356C37.4232 97.8377 38.3434 100.873 38.5985 103.966C38.6526 104.619 38.6754 105.287 38.5118 105.922C38.3533 106.537 38.027 107.095 37.8238 107.696C37.4247 108.877 37.5198 110.168 37.7422 111.395C37.9641 112.622 38.3086 113.832 38.3985 115.075C39.9324 114.992 41.4533 114.678 42.8947 114.147C42.9846 114.114 43.0817 114.074 43.1285 113.99C43.1763 113.904 43.1576 113.798 43.1384 113.701C42.5497 110.788 42.585 107.783 42.7809 104.816C42.8308 104.063 42.8905 103.307 42.8334 102.554C42.7804 101.862 42.6281 101.18 42.4754 100.502C42.1059 98.8629 41.6933 97.1524 40.585 95.8892C40.1792 95.4267 39.6876 95.0355 39.3437 94.5252C38.9997 94.0149 38.8256 93.3223 39.1275 92.7855C39.2668 92.996 39.406 93.2064 39.5453 93.4169" fill="#F5F5F5"/>
<path d="M45.5318 110.121C45.4673 110.091 45.4039 110.056 45.3442 110.018C44.9228 109.747 44.6256 109.336 44.3444 108.93C42.6822 106.531 41.2315 103.975 40.0867 101.279C39.5666 100.053 39.1088 98.7978 38.7238 97.5149C38.4349 96.5521 38.187 95.5087 38.5295 94.5027C38.7196 93.941 39.1878 93.2333 39.7937 93C40.3684 92.7781 40.9732 93.1221 41.3536 93.4874C41.6949 93.8158 41.9381 94.2284 42.1751 94.6378C44.4858 98.6347 46.5871 102.812 47.619 107.373C47.7308 107.866 47.829 108.374 47.7406 108.889C47.6518 109.404 47.339 109.933 46.8407 110.165C46.4141 110.363 45.9282 110.312 45.5318 110.121Z" fill="#FDE2D0"/>
<path d="M46.4169 110.066C46.1243 110.071 45.8271 110.136 45.5314 110.121C45.467 110.091 45.4036 110.056 45.3439 110.018C44.9225 109.747 44.6252 109.336 44.3441 108.93C42.6819 106.531 41.2311 103.975 40.0864 101.279C40.3452 101.209 40.6403 101.122 40.8175 101.239C41.1064 101.432 41.1896 101.97 41.3616 102.255C41.7757 102.94 42.208 103.532 42.5005 104.276C42.777 104.981 43.0472 105.546 43.4296 106.192C43.8245 106.859 44.1727 107.63 44.6668 108.262C45.176 108.912 45.8255 109.509 46.4169 110.066Z" fill="#ECECEC"/>
<path d="M41.6464 92.3642C42.0943 92.7555 42.4544 93.2356 42.8109 93.7116C43.0925 94.0878 43.3747 94.464 43.6563 94.8407C43.9114 95.1816 44.1671 95.523 44.3921 95.8846C44.6134 96.2411 44.8036 96.6152 44.9938 96.9888C45.3185 97.6279 45.6438 98.2675 45.9686 98.9072C44.0081 100.602 41.4734 101.62 38.8847 101.752C38.4285 100.712 38.0466 99.6399 37.7421 98.5461C37.4443 97.4757 37.2204 96.3663 37.3092 95.2585C37.3965 94.172 37.8865 92.9379 38.6057 92.0998C39.3981 91.1759 40.8826 91.696 41.6464 92.3642Z" fill="#F5F5F5"/>
<path d="M36.0879 90.1941C36.1614 90.2703 36.1184 90.2424 36.0674 90.1957C36.0742 90.1951 36.0816 90.1951 36.0879 90.1941Z" fill="#3C3C48"/>
<path d="M23.3722 58.9432C22.944 58.6959 22.5356 58.554 22.1604 58.5088C21.2885 55.0425 18.8593 51.5096 15.9999 49.8588C14.1704 48.8024 12.5201 48.7245 11.338 49.4457L11.3333 49.4426L9.96255 50.2361L10.252 50.5317C9.88929 51.1111 9.64403 51.8417 9.5453 52.7094C8.99347 51.9097 8.30551 51.228 7.56142 50.7983C6.65054 50.2724 5.8254 50.2225 5.22888 50.5676L3.95947 51.295L4.38919 51.7445C4.30969 52.0266 4.26396 52.3446 4.26396 52.7021C4.26396 55.1511 5.98336 58.1284 8.1039 59.3526L12.8012 62.0645L19.1997 65.7584L22.8307 67.8551C23.1898 68.0624 23.5353 68.2011 23.8653 68.2848L24.2747 68.8522L25.5353 68.1299L25.5348 68.1289C26.2358 67.7304 26.6707 66.8683 26.6707 65.6379V64.6553C26.6702 62.5519 25.1939 59.9949 23.3722 58.9432Z" fill="#182452"/>
<path d="M25.4179 65.3725V66.3551C25.4179 68.804 23.6991 69.7965 21.578 68.5717L17.947 66.4751L11.5485 62.7812L6.85116 60.0693C4.73063 58.8451 3.01123 55.8672 3.01123 53.4188C3.01123 51.3154 4.48745 50.4632 6.30869 51.5149C7.05329 51.9447 7.74074 52.6264 8.29257 53.4261C8.69007 49.9478 11.4274 48.6597 14.7472 50.576C17.6066 52.2268 20.0358 55.7597 20.9077 59.226C21.2829 59.2712 21.6908 59.4131 22.1194 59.6604C23.9417 60.7121 25.4179 63.2691 25.4179 65.3725Z" fill="#E6E6E6"/>
<path d="M161.853 21.5643C161.275 21.2307 160.725 21.0395 160.219 20.9782C159.044 16.3048 155.768 11.5415 151.912 9.31547C149.445 7.89122 147.22 7.78573 145.627 8.75845L145.621 8.75377L143.773 9.82365L144.163 10.2222C143.674 11.0032 143.344 11.9889 143.21 13.158C142.466 12.0798 141.539 11.1606 140.536 10.5812C139.307 9.87198 138.195 9.80546 137.39 10.2705L135.679 11.2515L136.258 11.8574C136.151 12.2378 136.089 12.6664 136.089 13.1486C136.089 16.4503 138.407 20.4648 141.266 22.1156L147.599 25.7721L156.226 30.7526L161.122 33.5793C161.606 33.8588 162.072 34.0454 162.517 34.1586L163.069 34.924L164.769 33.9503L164.768 33.9492C165.713 33.412 166.299 32.2496 166.299 30.5905V29.2655C166.299 26.4294 164.308 22.9818 161.853 21.5643Z" fill="#3C3C48"/>
<path d="M164.61 30.2321V31.5571C164.61 34.8587 162.292 36.1967 159.433 34.5459L154.537 31.7192L145.91 26.7382L139.577 23.0817C136.717 21.4309 134.399 17.4163 134.399 14.1147C134.399 11.2792 136.39 10.1298 138.846 11.5478C139.85 12.1272 140.777 13.0464 141.521 14.1246C142.056 9.4351 145.748 7.69804 150.223 10.2816C154.079 12.5076 157.354 17.2709 158.53 21.9442C159.035 22.0056 159.586 22.1968 160.163 22.5298C162.62 23.9489 164.61 27.3965 164.61 30.2321Z" fill="#E6E6E6"/>
<path d="M40.6543 8.9436C40.6543 5.8914 38.5115 2.17981 35.8682 0.653707C34.5484 -0.108564 33.3533 -0.181311 32.4871 0.316478L32.484 0.318036L32.4834 0.318555L31.3346 0.989894L31.506 1.38792C31.2343 1.92468 31.082 2.60589 31.082 3.41649C31.082 6.46869 33.2249 10.1803 35.8682 11.7064C36.5156 12.08 37.1324 12.2873 37.6957 12.3434L38.0126 12.7638L39.2514 12.0426C39.2524 12.042 39.2535 12.0415 39.2545 12.041L39.2753 12.0285L39.2748 12.028C40.1269 11.5224 40.6543 10.4562 40.6543 8.9436Z" fill="#DEE5FF"/>
<path d="M29.9185 4.09616C29.9185 1.04395 32.0613 -0.193243 34.7046 1.33286C37.3479 2.85896 39.4908 6.57055 39.4908 9.62275C39.4908 12.675 37.3479 13.9121 34.7046 12.386C32.0613 10.8599 29.9185 7.14836 29.9185 4.09616Z" fill="#182452"/>
<path d="M33.2173 6.18423V4.04395C33.2173 3.767 33.4771 3.74361 33.6849 4.00238L35.29 5.99925L36.8951 7.99612C37.1029 8.25437 37.1029 8.60095 36.8951 8.61913L35.29 8.76255L33.6849 8.90596C33.4771 8.92466 33.2173 8.60147 33.2173 8.32451V6.18423Z" fill="#FF7312"/>
<path d="M158.223 68.273L158.875 67.8771L158.707 67.571L158.061 67.9873L158.223 68.273Z" fill="white"/>
<path d="M159.114 53.7993V67.3394C159.114 67.8735 158.739 68.0902 158.276 67.8231L150.299 63.2178C149.837 62.9507 149.461 62.3012 149.461 61.7671V52.2187L153.754 49.738L158.276 52.3486C158.739 52.6157 159.114 53.2652 159.114 53.7993Z" fill="white"/>
<path d="M158.469 54.1907V67.7307C158.469 68.2649 158.094 68.4815 157.631 68.2145L149.654 63.6091C149.192 63.3421 148.816 62.6925 148.816 62.1584V52.6105L153.109 50.1299L157.631 52.7404C158.094 53.007 158.469 53.6565 158.469 54.1907Z" fill="#182452"/>
<path d="M153.318 50.2489V54.2592C153.318 54.7934 152.943 55.0101 152.48 54.743L149.023 52.7472L153.11 50.1299L153.318 50.2489Z" fill="white"/>
<path d="M153.111 50.1309V54.121C153.111 54.6551 152.735 54.8718 152.273 54.6047L148.816 52.6089L153.111 50.1309Z" fill="#FF7312"/>
<path d="M150.333 55.4802L157.033 59.3487" stroke="white" stroke-width="0.6599" stroke-miterlimit="10" stroke-linecap="round"/>
<path d="M150.333 57.0771L157.033 60.9457" stroke="white" stroke-width="0.6599" stroke-miterlimit="10" stroke-linecap="round"/>
<path d="M150.333 58.6736L157.033 62.5416" stroke="white" stroke-width="0.6599" stroke-miterlimit="10" stroke-linecap="round"/>
<path d="M150.333 60.2703L157.033 64.1388" stroke="white" stroke-width="0.6599" stroke-miterlimit="10" stroke-linecap="round"/>
<path d="M4.52298 84.3635V91.4671C4.33903 91.2458 4.13223 91.0546 3.90931 90.9034C3.85943 90.8701 3.80799 90.8368 3.75654 90.8078C3.73628 90.7948 3.71394 90.7839 3.69419 90.7745V91.9353C3.46764 91.6646 3.20784 91.436 2.92777 91.2759C2.43985 90.9938 1.96232 90.9538 1.58301 91.1673L1.861 91.4734C1.82619 91.6152 1.80748 91.768 1.80748 91.9337C1.80748 92.4237 1.96389 92.9527 2.22213 93.4297C2.51312 93.9675 2.93712 94.4409 3.41412 94.7173C3.51752 94.776 3.61885 94.8207 3.72017 94.8592L3.95972 95.2754L3.96179 95.2775L4.8072 94.8005V94.7947C5.16625 94.5682 5.38033 94.1572 5.38033 93.6048C5.38033 93.5809 5.38033 93.5201 5.38033 93.5201V87.4453L10.4907 89.3799V93.7254C10.312 93.5118 10.1114 93.3237 9.89732 93.1767C9.84016 93.1361 9.78301 93.0977 9.72429 93.0644C9.70403 93.0535 9.68168 93.0405 9.66142 93.0312V94.1935C9.43487 93.9228 9.17506 93.6942 8.89499 93.5342C8.40136 93.2489 7.9202 93.212 7.53932 93.4308L7.82459 93.7456C7.79133 93.8818 7.77471 94.0309 7.77471 94.1915C7.77471 94.6191 7.89266 95.0758 8.09531 95.5014C8.38629 96.1166 8.84875 96.6674 9.38135 96.975C9.45305 97.0176 9.52684 97.0524 9.59855 97.0836L9.87498 97.5627V97.5648L9.90979 97.5445L10.7219 97.0878V97.0841C10.7277 97.0805 10.7329 97.0784 10.7386 97.0748C11.12 96.8555 11.3444 96.4284 11.3444 95.8568C11.3444 95.8345 11.3465 95.7778 11.3465 95.7778V86.9465L4.52298 84.3635ZM9.6609 88.1494L5.37981 86.5303V85.6054L10.4902 87.5399V88.4627L9.6609 88.1494Z" fill="#F2F2F2"/>
<path d="M4.52279 85.1444L3.69401 84.8311V91.9347C3.46746 91.664 3.20765 91.4353 2.92758 91.2753C2.43966 90.9931 1.96214 90.9531 1.58282 91.1667C1.57918 91.1688 1.57347 91.1724 1.56983 91.174C1.18844 91.3948 0.978516 91.8297 0.978516 92.4008C0.978516 92.7344 1.05022 93.0861 1.1796 93.4286C1.45032 94.1524 1.97357 94.8305 2.58515 95.1843C2.86522 95.3464 3.14166 95.4275 3.39939 95.4275C3.59476 95.4275 3.7787 95.3813 3.9429 95.2856C3.94862 95.282 3.95381 95.2784 3.95953 95.2747C4.33157 95.0518 4.55085 94.6335 4.55085 94.0718C4.55085 94.0479 4.55085 93.9871 4.55085 93.9871V87.9134L5.37963 88.2267L9.66071 89.8479V94.1939C9.43416 93.9232 9.17435 93.6946 8.89428 93.5346C8.40065 93.2493 7.91949 93.2124 7.53862 93.4312C7.53862 93.4332 7.53654 93.4332 7.53654 93.4332C7.15514 93.6541 6.94522 94.089 6.94522 94.66C6.94522 94.9328 6.99302 95.2181 7.08343 95.5018C7.32869 96.2942 7.88676 97.0601 8.55186 97.4436C8.83193 97.6057 9.10836 97.6868 9.36401 97.6868C9.54795 97.6868 9.71943 97.6462 9.87427 97.5631C9.88726 97.5574 9.89817 97.5522 9.90909 97.5449C10.2905 97.3241 10.515 96.8964 10.515 96.3275C10.515 96.3036 10.517 96.2464 10.517 96.2464V87.414L4.52279 85.1444ZM4.55033 86.9978V86.0729L5.37911 86.3863L9.66019 88.0074V88.9303L4.55033 86.9978Z" fill="#182452"/>
<path d="M3.69336 84.8317L4.52214 84.3635L11.3462 86.9465L10.5174 87.4147L3.69336 84.8317Z" fill="#182452"/>
<path d="M3.69371 91.9353C3.46715 91.6646 3.20735 91.436 2.92728 91.276C2.43936 90.9938 1.96184 90.9538 1.58252 91.1674L2.37077 90.7236H2.37285C2.3822 90.7179 2.38948 90.7127 2.39883 90.707C2.7636 90.495 3.22242 90.521 3.69371 90.775V91.9353Z" fill="white"/>
<path d="M9.66067 93.0312V94.1935C9.43412 93.9228 9.17431 93.6942 8.89424 93.5341C8.40061 93.2489 7.91945 93.212 7.53857 93.4307L8.32682 92.987L8.33046 92.9891C8.34137 92.9818 8.35228 92.9724 8.36527 92.9652C8.73004 92.7532 9.18886 92.7786 9.66067 93.0312Z" fill="white"/>
<path d="M179.338 89.3545L169.109 83.4486C168.462 83.075 167.875 83.0309 167.441 83.2569L167.438 83.2543L167.4 83.2756C167.397 83.2772 167.394 83.2787 167.391 83.2803L166.102 83.9984L166.495 84.6988L166.696 84.5866C166.689 84.6708 166.685 84.7575 166.685 84.8479V89.4294C166.685 90.9747 167.771 92.8557 169.109 93.6283L169.703 93.9713L170.171 96.6182L169.97 96.4202L169.096 98.8406L170.432 98.096L172.539 95.6091L179.188 99.448L179.105 99.4942L179.709 100.453L180.984 99.7405L180.983 99.7369C181.461 99.5015 181.763 98.9466 181.763 98.1349V93.5535C181.763 92.0066 180.677 90.1272 179.338 89.3545Z" fill="#3C3C48"/>
<path d="M188.597 82.1766L178.368 76.2706C177.745 75.9111 177.179 75.8576 176.749 76.055L176.747 76.0519L176.696 76.0805C176.673 76.0924 176.65 76.1049 176.627 76.1189L175.365 76.8194C175.365 76.8194 175.716 77.4263 175.754 77.4263C175.763 77.4263 175.846 77.3857 175.965 77.3249C175.952 77.4351 175.943 77.5494 175.943 77.671V82.2524C175.943 83.7977 177.029 85.6787 178.368 86.4514L185.167 90.3771L186.14 92.6483L185.72 92.7938L185.938 96.0414L187.274 95.2968L188.003 92.0139L188.53 92.3183L188.914 93.3035L190.299 92.5329V92.5319C190.745 92.2815 191.021 91.7364 191.021 90.9575V86.3761C191.021 84.8287 189.935 82.9492 188.597 82.1766Z" fill="#979CB1"/>
<path d="M180.427 94.2983V98.8797C180.427 100.425 179.341 101.052 178.002 100.28L171.203 96.3538L169.096 98.8407L168.368 94.7166L167.774 94.3736C166.435 93.6009 165.349 91.72 165.349 90.1746V85.5932C165.349 84.0463 166.435 83.4207 167.774 84.1934L178.003 90.0993C179.341 90.8719 180.427 92.7514 180.427 94.2983Z" fill="#979CB1"/>
<path d="M174.606 78.4152V82.9966C174.606 84.5419 175.692 86.4229 177.031 87.1956L183.831 91.1212L185.938 96.0409L186.666 92.758L187.26 93.101C188.599 93.8736 189.685 93.247 189.685 91.7011V87.1197C189.685 85.5728 188.599 83.6934 187.26 82.9207L177.031 77.0148C175.692 76.2427 174.606 76.8683 174.606 78.4152Z" fill="#3C3C48"/>
</svg>
