<svg width="282" height="164" viewBox="0 0 282 164" fill="none" xmlns="http://www.w3.org/2000/svg">
<path d="M43.9963 162.328C43.9963 162.328 13.3729 167.95 3.62464 146.68C-9.02256 119.084 16.9609 98.1608 36.889 102.059C80.3129 110.554 69.8564 16.8413 139.546 35.967C159.142 41.3448 212.087 9.3978 226.853 60.6222C230.365 72.8031 242.805 74.1445 260.865 81.8736C296.209 97 280.048 162.583 254.793 162.84C229.538 163.098 43.9963 162.328 43.9963 162.328Z" fill="#F2F2F2"/>
<path d="M203.586 163.661H223.533V89.3316H203.586V163.661Z" fill="#FFF6F0"/>
<path d="M194.273 163.661H208.93V89.3316H194.273V163.661Z" fill="#FFDEC8"/>
<path d="M201.847 159.059C203.654 159.059 205.119 157.594 205.119 155.787C205.119 153.98 203.654 152.516 201.847 152.516C200.041 152.516 198.576 153.98 198.576 155.787C198.576 157.594 200.041 159.059 201.847 159.059Z" fill="white"/>
<path d="M232.846 163.661H252.793V89.3316H232.846V163.661Z" fill="#FFF6F0"/>
<path d="M223.533 163.661H238.19V89.3316H223.533V163.661Z" fill="#182452"/>
<path d="M231.108 159.059C232.915 159.059 234.38 157.594 234.38 155.787C234.38 153.98 232.915 152.516 231.108 152.516C229.301 152.516 227.836 153.98 227.836 155.787C227.836 157.594 229.301 159.059 231.108 159.059Z" fill="#FFF6F0"/>
<path d="M234.38 96.8965H227.836V135.91H234.38V96.8965Z" fill="white"/>
<path d="M261.764 163.661H281.711V89.3316H261.764V163.661Z" fill="#FFF6F0"/>
<path d="M252.451 163.661H267.108V89.3316H252.451V163.661Z" fill="#182452"/>
<path d="M260.025 159.059C261.832 159.059 263.297 157.594 263.297 155.787C263.297 153.98 261.832 152.516 260.025 152.516C258.218 152.516 256.754 153.98 256.754 155.787C256.754 157.594 258.218 159.059 260.025 159.059Z" fill="#FFF6F0"/>
<path d="M263.297 96.8965H256.754V135.91H263.297V96.8965Z" fill="white"/>
<path d="M204.873 97.3955H198.33V136.409H204.873V97.3955Z" fill="white"/>
<path d="M155.702 74.9271L162.734 158.55C162.734 158.55 163.471 163.619 159.701 163.628C153.501 163.643 128.844 163.628 128.844 163.628C128.844 163.628 133.51 162.572 133.453 160.198C133.387 157.4 125.233 74.1357 125.233 74.1357L155.702 74.9271Z" fill="#FF7312"/>
<path d="M126.843 162.11C128.062 162.114 151.613 162.188 157.651 162.11C160.282 162.078 160.743 159.771 160.765 158.278C160.776 157.562 160.685 157.033 160.685 157.033L160.502 154.86L160.036 149.32L159.624 144.426L159.095 138.137L158.65 132.828L153.653 73.4088L123.184 72.6182C123.184 72.6182 126.618 107.464 129.047 132.828C129.318 135.655 129.576 138.364 129.815 140.894C129.892 141.701 129.966 142.491 130.039 143.26C130.264 145.66 130.47 147.863 130.649 149.809C130.743 150.835 130.83 151.788 130.909 152.661C131.219 156.081 131.401 158.266 131.403 158.681C131.404 158.923 131.384 159.149 131.344 159.358C130.844 162.023 127.301 162.11 126.843 162.11Z" fill="#FFF6F0"/>
<path d="M83.4167 29.4229H229.695L212.565 98.2339L210.219 107.658L202.24 139.708H54.0085L83.4167 29.4229Z" fill="#FF7312"/>
<path d="M229.696 29.4229L232.07 30.2142L205.397 142.102L202.24 139.709L229.696 29.4229Z" fill="#FFF6F0"/>
<path d="M205.396 142.102H58.0769L54.0088 139.708H202.24L205.396 142.102Z" fill="#FF7312"/>
<path d="M153.662 162.144H121.766V163.659H153.662V162.144Z" fill="#FF7312"/>
<path d="M129.874 142.102L130.039 143.26L160.036 149.321L159.625 144.426L159.428 142.102H129.874Z" fill="#FF7312"/>
<path opacity="0.4" d="M126.843 162.111C128.063 162.115 151.613 162.189 157.651 162.111C160.282 162.079 160.743 159.772 160.765 158.279L130.909 152.662C131.219 156.083 131.401 158.267 131.403 158.682C131.404 158.925 131.384 159.15 131.344 159.359C130.844 162.024 127.301 162.111 126.843 162.111Z" fill="#FF7312"/>
<path opacity="0.4" d="M139.051 118.042L202.24 139.708L207.636 118.029L139.051 118.042Z" fill="#FF7312"/>
<path d="M83.417 29.4229H229.696L207.649 118.029L59.6831 118.058L83.417 29.4229Z" fill="#FF7312"/>
<path d="M124.195 129.264C124.617 127.09 126.722 125.328 128.896 125.328C131.069 125.328 132.489 127.09 132.066 129.264C131.644 131.438 129.539 133.2 127.366 133.2C125.192 133.2 123.772 131.438 124.195 129.264Z" fill="white"/>
<path d="M66.5818 114.219H203.543L219.054 52.4298L220.242 47.6914L221.257 43.6497L223.636 34.1729H88.6489L86.0366 43.6497L84.9223 47.6914L83.6162 52.4298L66.5818 114.219Z" fill="#FFF6F0"/>
<path d="M17.1392 155.139C17.1392 155.139 15.3957 156.755 15.7359 157.904C16.076 159.052 17.6495 159.817 17.862 161.22C18.0747 162.623 18.9251 163.389 19.6905 163.389C20.4559 163.389 23.3396 163.389 23.3396 163.389C23.3396 163.389 23.9031 162.401 22.5423 162.104C21.1816 161.806 20.6686 160.157 20.7536 158.626C20.8386 157.095 20.6261 155.054 20.6261 155.054L17.7346 154.374L17.1392 155.139Z" fill="#3C3C48"/>
<path d="M48.7477 163.386H39.0577C38.9734 163.369 38.9095 163.35 38.8688 163.33C38.223 163.007 38.4243 160.536 38.5024 159.77C38.5175 159.628 38.5281 159.545 38.5281 159.545C38.5281 159.545 41.9306 156.824 42.398 158.908C42.4122 158.973 42.4301 159.036 42.4487 159.099C43.0368 161.049 45.6781 161.935 47.2031 162.182C48.3663 162.37 48.6687 163.047 48.7477 163.386Z" fill="#3C3C48"/>
<path d="M46.7981 107.6C46.7981 107.6 46.2814 114.046 45.6742 121.795C44.8488 132.32 43.8564 145.249 43.7582 147.699C43.5885 151.952 42.9073 158.755 42.9073 158.755C42.9073 158.755 41.2923 160.371 38.0598 159.69C38.0598 159.69 35.1792 149.978 34.3564 139.703C34.3437 139.534 34.3309 139.365 34.3181 139.195C33.5527 128.734 32.3625 106.707 32.3625 106.707L46.7981 107.6Z" fill="#3C3C48"/>
<path d="M46.7982 107.599C46.7982 107.599 46.2815 114.045 45.6743 121.794L34.3564 139.702C34.3437 139.533 34.3309 139.364 34.3181 139.194C33.5527 128.733 32.3625 106.706 32.3625 106.706L46.7982 107.599Z" fill="#3C3C48"/>
<path d="M44.4393 108.365C44.4393 108.365 35.1268 131.71 29.0036 142.681C22.8803 153.652 20.9668 156.713 20.9668 156.713C20.9668 156.713 17.4586 155.31 17.1396 154.353C17.1396 154.353 19.4812 133.174 23.5819 128.01C25.899 125.093 28.6208 116.338 28.7484 113.276C28.876 110.215 29.5776 104.155 29.5776 104.155L44.4393 108.365Z" fill="#3C3C48"/>
<path d="M53.8563 101.92L54.3886 102.981C54.3886 102.981 57.0954 103.359 56.3503 106.181C56.3503 106.181 55.9489 107.342 55.2025 106.974C54.4561 106.607 54.8238 106.638 53.754 106.144C52.6843 105.649 52.0652 104.7 52.3044 103.828L52.1331 102.905L53.8563 101.92Z" fill="#FDE2D0"/>
<path d="M39.6626 72.3305C40.0766 69.8857 40.0893 68.4368 40.0893 68.4368L35.3644 64.6289C35.5399 69.8649 32.1848 72.3826 32.1848 72.3826C32.1848 72.3826 38.4811 75.4819 42.1206 74.334C42.1206 74.334 41.2245 73.1887 39.6626 72.3305Z" fill="#FDE2D0"/>
<path d="M41.2023 68.3496C41.2023 68.3496 35.1915 69.3483 34.6271 65.5953C34.0629 61.8425 32.907 59.4439 36.7211 58.6476C40.535 57.8514 41.4976 59.1711 41.9907 60.3779C42.4837 61.5848 42.7513 67.9932 41.2023 68.3496Z" fill="#FDE2D0"/>
<path d="M34.6668 65.8545C34.6668 65.8545 34.7881 60.8274 40.265 60.0207C44.0164 59.4681 41.7445 56.3333 41.3157 55.8369C41.3157 55.8369 38.4479 56.3841 35.5129 57.0283C29.3522 58.3803 34.0157 65.1069 34.6668 65.8545Z" fill="#3C3C48"/>
<path d="M53.2256 103.395C54.0291 102.571 54.6257 101.497 54.6257 101.497C54.6257 101.497 47.7962 93.0121 47.241 92.1322C46.6859 91.2522 42.5381 77.1385 42.5381 77.1385L32.0493 75.0137C32.0493 75.0137 40.8043 93.0761 42.2547 95.278C44.6514 98.9167 51.8218 104.332 51.8218 104.332C51.8218 104.332 52.5945 104.043 53.2256 103.395Z" fill="#ECECEC"/>
<path d="M47.1994 108.137C47.0899 108.228 46.9626 108.283 46.8169 108.283C45.4504 108.264 41.4654 109.023 38.0935 108.677C35.2509 108.404 32.735 107.562 30.0331 106.351C29.6743 106.19 28.8485 105.749 28.867 105.348C28.8791 104.909 28.9228 104.272 28.9775 103.47C29.1688 100.681 29.5019 95.8846 29.1771 90.3506C29.1187 89.3202 29.0879 88.298 29.0843 87.2917C29.0564 79.7915 30.5181 73.1575 33.5064 70.9248C33.7617 70.742 35.3543 71.5449 36.7943 72.2551C38.1247 72.9115 39.055 72.8963 40.312 72.642L41.969 73.8408C43.4999 75.2621 45.1765 77.194 45.9053 80.1277C46.5255 82.624 46.8893 87.1256 47.09 91.7907C47.181 93.9045 47.2542 96.0369 47.2728 98.0599V98.1323C47.2905 98.3328 47.2905 98.5519 47.2905 98.7525C47.3637 103.946 47.2904 108.064 47.1994 108.137Z" fill="#F5F5F5"/>
<path d="M28.9775 103.47C29.1689 100.681 29.502 95.8839 29.1772 90.35C29.1187 89.3195 29.088 88.2973 29.0844 87.2911C30.3293 84.2712 31.3468 82.0811 31.3468 82.0811H34.4846C34.4846 82.0811 36.7852 97.7945 28.9775 103.47Z" fill="#ECECEC"/>
<path d="M22.8729 104.447L22.2773 105.473C22.2773 105.473 23.4443 107.945 20.6758 108.868C20.6758 108.868 19.4847 109.168 19.3829 108.343C19.281 107.517 19.4566 107.842 19.2838 106.676C19.111 105.51 19.5662 104.472 20.4262 104.194L21.1049 103.545L22.8729 104.447Z" fill="#FDE2D0"/>
<path d="M21.2935 104.728C22.4235 104.948 23.6485 104.859 23.6485 104.859C23.6485 104.859 27.003 94.4963 27.4347 93.5498C27.8665 92.6031 37.3989 81.3988 37.3989 81.3988L33.4278 71.4609C33.4278 71.4609 23.1176 88.683 22.0706 91.103C20.3406 95.1019 19.7402 104.068 19.7402 104.068C19.7402 104.068 20.406 104.555 21.2935 104.728Z" fill="#F5F5F5"/>
<path d="M141.659 100.255H77.7192L99.5776 11.8232H163.518L141.659 100.255Z" fill="#E0E0E0"/>
<path d="M132.108 94.7371H68.1685L90.0267 6.30566H153.967L132.108 94.7371Z" fill="#E0E0E0"/>
<path d="M121.76 88.4314H57.8196L79.6778 0H143.618L121.76 88.4314Z" fill="#E0E0E0"/>
<path d="M152.664 11.8232L132.434 94.2083L79.2781 94.7371L134.039 95.9417L152.664 11.8232Z" fill="#182452"/>
<path d="M142.044 6.30566L122.825 87.9025L69.6685 88.4314L123.727 89.7673L142.044 6.30566Z" fill="#182452"/>
<path d="M95.1207 30.6457H77.239L82.8368 8.18262H100.719L95.1207 30.6457Z" fill="#E9F3FE"/>
<path d="M135.944 11.2861H103.906L104.694 8.18262H136.732L135.944 11.2861Z" fill="#F2F2F2"/>
<path d="M134.499 17.6572H102.46L103.249 14.5537H135.287L134.499 17.6572Z" fill="#F2F2F2"/>
<path d="M132.988 24.0293H100.95L101.738 20.9258H133.777L132.988 24.0293Z" fill="#F2F2F2"/>
<path d="M131.215 30.4003H99.1763L99.9645 27.2969H132.003L131.215 30.4003Z" fill="#F2F2F2"/>
<path d="M131.215 37.0351H72.5657L73.3539 33.9316H132.003L131.215 37.0351Z" fill="#F2F2F2"/>
<path d="M129.649 43.6688H71L71.7882 40.5654H130.438L129.649 43.6688Z" fill="#F2F2F2"/>
<path d="M127.482 51.1396H68.8323L69.6205 48.0361H128.27L127.482 51.1396Z" fill="#F2F2F2"/>
<path d="M125.511 57.5898H66.8618L67.6501 54.4863H126.299L125.511 57.5898Z" fill="#F2F2F2"/>
<mask id="mask0_5257_349" style="mask-type:luminance" maskUnits="userSpaceOnUse" x="77" y="8" width="24" height="23">
<path d="M95.1205 30.6476H77.2388L82.8366 8.18457H100.718L95.1205 30.6476Z" fill="white"/>
</mask>
<g mask="url(#mask0_5257_349)">
<path d="M97.9594 35.1039C97.9411 35.1629 97.9165 35.219 97.8848 35.2702C97.5317 35.8388 91.7195 35.8672 91.0553 35.3902C90.7585 35.1769 90.6677 32.2364 90.6585 29.0499C90.647 25.1108 90.7596 20.7959 90.7596 20.7959C90.7596 20.7959 93.0338 21.8514 93.1446 23.1504C93.2556 24.4493 92.2994 32.2563 92.9635 32.7333C93.6278 33.2104 96.6915 33.2724 97.7138 33.5725C97.7138 33.5725 98.1479 34.5072 97.9594 35.1039Z" fill="#BABABD"/>
<path d="M92.0787 11.84C91.681 11.4258 91.0309 11.3868 90.6128 11.3575C90.734 11.2611 90.9493 11.2481 90.9493 11.2481C90.697 11.1765 90.0896 11.3573 90.0896 11.3573C90.0896 11.3573 88.0587 9.96157 86.6814 12.6873C86.6814 12.6873 86.8825 12.4942 87.1528 12.2804C86.3577 13.848 86.624 16.4099 88.4007 17.0898C89.5557 17.5317 96.1547 16.0844 92.0787 11.84Z" fill="#3C3C48"/>
<path d="M90.8483 21.447C90.8595 21.4539 89.6195 21.9066 88.7764 21.5542C87.9834 21.2236 87.5846 20.088 87.5962 20.0872C87.9533 20.0631 88.1157 19.5977 88.3748 17.541L88.5281 17.5925L91.1064 18.4595C91.1064 18.4595 90.9382 19.2845 90.8347 20.0688C90.7476 20.7272 90.7065 21.3572 90.8483 21.447Z" fill="#FDE2D0"/>
<path d="M91.1064 18.4588C91.1064 18.4588 90.9382 19.2838 90.8347 20.0681C89.3593 19.8344 88.7517 18.3821 88.5281 17.5918L91.1064 18.4588Z" fill="#FDE2D0"/>
<path d="M88.2922 17.2689C88.2922 17.2689 87.6752 15.9421 87.6248 14.8695C87.5888 14.1037 88.3298 11.3785 91.0661 12.1396C91.0661 12.1396 91.8657 12.3245 92.5601 12.9372C93.1124 13.4245 93.8716 14.4204 92.5809 16.7149L92.2211 17.4999L88.2922 17.2689Z" fill="#3C3C48"/>
<path d="M91.5046 19.2667C91.5046 19.2667 87.9935 18.8702 88.274 16.6875C88.5545 14.5049 88.2903 12.9837 90.5439 13.1444C92.7974 13.3052 93.125 14.194 93.2086 14.9453C93.2922 15.6967 92.4252 19.3136 91.5046 19.2667Z" fill="#FDE2D0"/>
<path d="M91.7352 24.2086C91.7063 23.9521 92.2549 23.8331 92.3547 24.0711C92.5416 24.5174 92.5214 25.0465 92.5635 25.4759C92.6839 26.7017 92.198 28.2956 92.198 28.2956L91.7352 24.2086Z" fill="#F2F2F2"/>
<path d="M93.262 13.718C92.8063 12.9926 92.379 13.082 92.1239 13.249C91.5134 12.0196 88.9084 13.3455 88.9084 13.3455C88.4711 14.881 87.2256 15.6316 87.2256 15.6316C87.2256 15.6316 87.813 16.1089 89.3342 15.9211C90.5315 15.7734 91.586 14.2334 91.9809 13.5839C92.1652 13.7961 92.5494 14.2811 92.6268 14.7172C92.7295 15.2956 92.6597 16.4498 92.9981 16.4541C92.9983 16.4543 93.9465 14.8078 93.262 13.718Z" fill="#3C3C48"/>
<path d="M97.9595 35.1041C97.9412 35.1632 97.9167 35.2193 97.8849 35.2705C97.5319 35.8391 91.7196 35.8675 91.0555 35.3905C90.7586 35.1771 90.6626 31.523 91.4808 28.3711C91.6749 30.2595 91.3194 34.0346 92.3078 34.3426C93.4287 34.6922 96.4885 34.699 97.9595 35.1041Z" fill="#F2F2F2"/>
<path d="M92.3933 28.4702C90.086 35.1312 91.138 36.3361 90.3131 36.9134C90.3088 36.9162 89.6214 37.113 89.6165 37.1163C88.7611 37.6833 88.8466 36.8729 86.294 37.6071C85.078 37.9571 83.5163 38.4271 82.1765 38.6511C81.6719 38.7347 81.1991 38.7847 80.7877 38.7793C79.9991 38.7698 79.4371 38.5596 79.3162 38.0105C78.9644 36.4151 82.1259 32.7087 81.8247 29.8608C81.8223 29.8365 81.82 29.8116 81.8181 29.7874C81.8017 29.5395 81.8288 29.261 81.893 28.9599C82.2158 27.4345 83.4794 25.3208 84.7359 23.5389C86.1228 21.5734 87.5003 20.0116 87.5963 20.0866C90.3068 22.2101 90.7599 20.7955 90.7599 20.7955C90.7599 20.7955 93.1804 26.1985 92.3933 28.4702Z" fill="#BABABD"/>
<path d="M89.8625 37.0503C89.8582 37.053 89.8674 37.047 89.8625 37.0503C89.0071 37.6175 88.8467 36.8728 86.294 37.6071C85.078 37.9571 83.5163 38.4271 82.1765 38.651C81.503 38.6805 80.9994 38.7179 80.7877 38.7793C79.9991 38.7697 79.4371 38.5595 79.3162 38.0105C78.9644 36.415 82.1259 32.7086 81.8247 29.8608C81.8223 29.8364 81.82 29.8115 81.8181 29.7873C81.7969 29.507 81.8245 29.2336 81.893 28.9599C82.1837 27.8068 83.2097 26.648 84.4252 24.9238C84.9884 25.6979 89.9926 25.5339 87.9507 32.1947C87.3246 34.2365 89.7676 35.3904 89.8625 37.0503Z" fill="#F2F2F2"/>
<path d="M87.5961 20.0875C87.5961 20.0875 83.6047 19.6242 82.6414 21.4542C81.6781 23.2842 81.022 30.0688 81.8022 32.2365C82.5824 34.4041 88.1586 37.9195 88.8035 38.1148C89.4485 38.3101 89.9922 37.3473 89.9789 37.2339C89.9656 37.1206 84.4103 31.2899 84.5054 30.7717C84.6004 30.2534 87.5961 20.0875 87.5961 20.0875Z" fill="#BABABD"/>
</g>
<path d="M219.968 152.908L218.542 158.913L216.407 158.901L216.328 152.908H219.968Z" fill="#FDE2D0"/>
<path d="M202.005 153.164L197.948 158.913L196.367 156.883L198.809 152.374L202.005 153.164Z" fill="#FDE2D0"/>
<path d="M212.551 74.005C213.288 73.586 214.171 73.5403 214.789 73.5768C214.63 73.4126 214.317 73.3528 214.317 73.3528C214.7 73.2958 215.556 73.6759 215.556 73.6759C220.886 71.6221 221.724 79.4702 221.612 81.2935C221.5 83.1167 223.403 83.7121 226.176 85.1486C231.467 87.8896 231.932 91.5599 231.932 91.5599C231.89 91.5842 231.847 91.6119 231.802 91.6435C231.539 91.1987 230.999 90.3636 230.543 90.2375C230.56 90.278 231.081 91.3874 231.276 92.0232C229.715 93.2106 226.795 95.8416 224.76 97.7069C224.769 97.3424 224.754 96.8248 224.621 96.5513L224.37 98.0654C223.281 99.0665 222.53 99.7708 222.53 99.7708C222.664 98.2975 215.866 90.5219 212.319 88.1933C211.456 86.9222 211.149 84.6766 211.126 84.4999C211.275 86.2804 211.579 87.2791 211.852 87.8414C208.848 85.0771 210.597 75.1154 212.551 74.005Z" fill="#3C3C48"/>
<path d="M212.529 88.3089C212.511 88.317 214.242 89.2153 215.543 88.8593C216.768 88.5254 217.567 86.9382 217.551 86.9345C217.032 86.8315 216.883 86.1192 216.894 83.0576L216.659 83.1038L212.718 83.8841C212.718 83.8841 212.808 85.1244 212.811 86.2926C212.813 87.2737 212.754 88.2042 212.529 88.3089Z" fill="#FDE2D0"/>
<path d="M212.719 83.884C212.719 83.884 212.808 85.1242 212.811 86.2924C215.016 86.2303 216.182 84.2186 216.659 83.1035L212.719 83.884Z" fill="#182452"/>
<path d="M217.067 82.6745C217.067 82.6745 218.222 80.8484 218.5 79.2871C218.698 78.1724 218.13 74.0403 213.978 74.6354C213.978 74.6354 212.772 74.7543 211.638 75.5199C210.737 76.1288 209.436 77.4433 210.89 81.049L211.268 82.2671L217.067 82.6745Z" fill="#3C3C48"/>
<path d="M197.011 155.307L199.1 155.371L201.361 155.44C201.361 155.44 206.584 149.625 209.514 140.304C209.582 140.087 209.654 139.868 209.73 139.646C211.334 134.971 214.658 129.102 216.409 123.791C216.688 122.945 216.938 122.148 217.163 121.395C217.235 121.153 217.305 120.916 217.371 120.683C218.662 116.198 219.036 113.253 219.381 110.106L206.732 110.208C206.732 110.208 204.69 131.692 197.011 155.307Z" fill="#3C3C48"/>
<path d="M208.503 102.941C208.535 108.959 207.62 111.542 207.62 111.542C207.62 111.542 213.036 114.293 219.472 112.268C219.548 112.244 224.313 111.288 224.313 111.288C224.205 111.044 222.891 106.881 222.786 106.657C221.427 103.739 221.24 102.324 221.079 101.427C220.78 99.7516 220.773 98.0185 220.922 96.384C221.315 92.0569 222.483 88.4651 222.483 88.4651C220.729 88.0661 219.087 87.3649 217.262 86.6804C216.842 87.2031 215.558 87.7502 214.445 87.7252C213.163 87.697 212.747 87.1482 212.814 86.5488C211.447 87.3091 210.357 88.0273 210.357 88.0273C209.196 90.0443 206.841 92.003 206.67 95.0971C206.628 95.858 208.502 102.772 208.503 102.941Z" fill="#ECECEC"/>
<path d="M201.16 93.9989C203.017 91.8298 207.827 87.1259 212.792 86.5488L208.508 94.8942C208.508 94.8942 208.267 96.3246 206.998 97.158C203.891 99.1999 199.941 100.103 199.941 100.103C199.941 100.103 197.265 98.9355 193.608 96.2555C192.46 95.4143 190.442 92.2058 190.442 92.2058L190.987 90.3851C190.987 90.3851 194.411 92.3 195.635 92.8521C196.332 93.167 197.937 93.9184 199.068 94.4497C199.787 94.7877 200.643 94.6026 201.16 93.9989Z" fill="#F5F5F5"/>
<path d="M211.982 84.9906C211.982 84.9906 217.2 85.0766 217.203 81.8266C217.207 78.5765 217.883 76.3988 214.551 76.2064C211.22 76.014 210.572 77.2535 210.307 78.338C210.041 79.4225 210.625 84.8845 211.982 84.9906Z" fill="#FDE2D0"/>
<path d="M212.175 76.1264C212.175 76.1264 213.604 79.9393 215.796 80.5031C217.988 81.0669 218.939 80.4795 218.939 80.4795C218.939 80.4795 217.258 79.1436 216.909 76.8116C216.909 76.8116 213.253 74.3116 212.175 76.1264Z" fill="#3C3C48"/>
<path d="M212.529 76.4363C212.529 76.4363 211.462 77.2876 211.202 78.1151C210.942 78.9428 210.825 80.6465 210.328 80.5886C210.328 80.5886 209.252 77.9969 210.462 76.5308C211.744 74.9762 212.529 76.4363 212.529 76.4363Z" fill="#3C3C48"/>
<path d="M190.987 90.3849C190.987 90.3849 190.251 87.7339 187.337 88.1085C187.002 88.2133 186.025 88.603 186.65 89.6493C187.11 90.4205 187.309 90.0226 188.034 91.0591C188.758 92.0956 189.544 92.3295 190.443 92.2056L190.987 90.3849Z" fill="#FDE2D0"/>
<path d="M218.614 158.577C218.614 158.577 218.441 159.766 218.885 161.039C218.885 161.039 219.235 162.631 217.666 162.661C216.098 162.691 215.713 162.543 215.891 161.566C216.068 160.589 216.406 158.9 216.406 158.9L218.614 158.577Z" fill="#FDE2D0"/>
<path d="M215.743 163.341C215.743 163.341 215.776 163.362 215.841 163.393H218.911C218.971 163.362 218.998 163.341 218.998 163.341C219.175 162.542 218.886 161.038 218.886 161.038C217.109 162.666 215.998 160.998 215.998 160.998C215.709 161.694 215.743 163.341 215.743 163.341Z" fill="#3C3C48"/>
<path d="M192.588 161.727C192.588 161.727 195.479 158.517 196.367 156.884L198.517 157.985L193.711 162.499L192.586 162.351L192.588 161.727Z" fill="#FDE2D0"/>
<path d="M190.794 163.394H194.751C195.132 163.109 195.488 162.45 195.93 161.565C196.166 161.093 196.696 160.833 197.24 160.69V163.363H198.06L198.838 160.521C199.349 159.581 198.878 158.727 198.518 157.984C198.099 157.983 196.972 158.27 194.836 160.677C194.133 161.467 193.358 161.75 192.588 161.725C192.577 161.732 192.567 161.738 192.557 161.742C191.268 162.322 190.899 163.042 190.794 163.394Z" fill="#3C3C48"/>
<path d="M212.814 86.5488C212.814 86.5488 209.795 94.0063 209.706 95.5156C209.617 97.0248 209.351 120.196 209.351 120.196C209.351 120.196 209.529 121.261 207.487 120.817C205.445 120.374 204.912 119.93 204.912 119.93C204.912 119.93 206.865 105.636 206.333 100.665C205.8 95.6933 210.416 87.5848 210.416 87.5848L212.814 86.5488Z" fill="#F5F5F5"/>
<path d="M199.1 155.371L201.361 155.441C201.361 155.441 206.584 149.626 209.514 140.304C209.582 140.087 209.654 139.868 209.73 139.646C211.334 134.971 214.658 129.103 216.409 123.791C216.688 122.945 216.938 122.149 217.163 121.395C217.235 121.154 217.305 120.916 217.372 120.683L215.509 119.27C215.509 119.27 209.917 128.325 208.186 136.847C206.682 144.249 200.659 153.156 199.1 155.371Z" fill="#3C3C48"/>
<path d="M215.315 137.64C215.283 141.785 215.492 151.312 216.032 155.257H218.035C219.142 155.257 219.694 155.241 219.694 155.241C221.048 148.383 222.011 142.708 222.713 137.818C223.288 133.805 223.799 130.365 224.193 127.403C224.589 124.423 224.864 121.927 224.962 119.819C224.977 119.487 224.989 119.164 224.995 118.85C225.001 118.535 225.003 118.229 225 117.932L214.072 116.866C214.209 124.127 215.332 135.232 215.315 137.64Z" fill="#3C3C48"/>
<path d="M218.035 155.257C219.142 155.257 219.694 155.241 219.694 155.241C221.048 148.383 222.011 142.708 222.712 137.818C223.288 133.805 223.799 130.365 224.192 127.404C224.588 124.423 224.863 121.928 224.962 119.819L220.952 122.178C220.952 122.178 223.511 123.081 222.535 129.917C221.558 136.753 219.394 154.289 218.035 155.257Z" fill="#3C3C48"/>
<path d="M217.519 119.751C217.519 119.751 218.289 122.532 220.952 122.177C223.615 121.822 227.403 120.224 227.403 120.224C227.403 120.224 226.264 116.627 224.849 111.903C223.136 106.183 221.015 98.8087 220.015 94.1575C219.735 92.8543 219.543 91.7658 219.472 90.9863L217.262 86.6992C217.262 86.6992 213.968 94.0935 213.79 95.9578C213.613 97.8224 217.519 119.751 217.519 119.751Z" fill="#F5F5F5"/>
<path d="M217.637 99.8649C217.756 102.883 218.466 108.743 224.799 111.879C224.816 111.887 224.832 111.896 224.849 111.903C223.136 106.183 221.015 98.8094 220.015 94.1582C218.852 95.8965 217.572 98.203 217.637 99.8649Z" fill="#F5F5F5"/>
<path d="M182.022 75.2597L180.025 77.2568L187.967 85.1991L189.965 83.2019L182.022 75.2597Z" fill="#3C3C48"/>
<path d="M231.73 126.265L231.033 126.962C229.662 128.333 227.44 128.333 226.069 126.962L187.203 88.0958C185.832 86.7251 185.832 84.5027 187.203 83.132L187.9 82.4352C189.27 81.0646 191.493 81.0646 192.864 82.4352L231.73 121.301C233.1 122.672 233.1 124.894 231.73 126.265Z" fill="#182452"/>
<path d="M133.991 29.2232C121.019 42.1953 121.019 63.2274 133.991 76.1995C146.963 89.1717 167.995 89.1717 180.968 76.1995C193.94 63.2274 193.94 42.1953 180.968 29.2232C167.995 16.2511 146.963 16.2511 133.991 29.2232ZM178.38 73.6121C166.837 85.1552 148.122 85.1552 136.579 73.6121C125.036 62.0689 125.036 43.3538 136.579 31.8106C148.122 20.2675 166.837 20.2675 178.38 31.8106C189.923 43.3538 189.923 62.0689 178.38 73.6121Z" fill="#182452"/>
<path d="M220.178 95.6811L217.262 86.7002C217.27 86.7038 220.945 87.7939 222.794 88.7278C222.794 88.7278 223.95 90.2177 224.665 93.6549C224.665 93.6549 225.42 101.907 223.733 104.926C223.733 104.926 218.407 105.991 209.884 103.061V101.108C209.884 101.108 219.206 101.596 221.114 101.818L220.178 95.6811Z" fill="#FDE2D0"/>
<path d="M217.262 86.7002C217.262 86.7002 222.668 87.081 223.97 89.9812C225.272 92.8813 225.686 102.529 224.029 105.369C224.029 105.369 221.748 106.019 217.712 105.265C217.663 105.255 217.613 105.246 217.563 105.236C217.563 105.236 216.276 102.085 217.43 101.463C217.43 101.463 220.833 101.641 220.478 100.516C220.123 99.3918 217.262 86.7002 217.262 86.7002Z" fill="#F5F5F5"/>
<path d="M210.839 101.627C210.839 101.627 210.097 100.727 209.938 99.8083C209.78 98.8893 209.289 98.208 208.007 98.0396C206.725 97.8711 206.174 97.8529 206.177 98.2142C206.181 98.5755 207.224 101.098 209.064 102.604C210.903 104.111 210.839 101.627 210.839 101.627Z" fill="#FDE2D0"/>
</svg>
