<svg width="308" height="164" viewBox="0 0 308 164" fill="none" xmlns="http://www.w3.org/2000/svg">
<path d="M24.1959 163.918C24.1959 163.918 -12.178 124.864 18.0445 82.5821C44.86 45.067 76.1242 47.6315 99.0621 62.8554C108.832 69.3395 136.999 63.6546 160.972 25.4816C193.665 -26.576 306.993 4.99702 286.329 85.089C276.33 123.848 316.762 125.257 296.16 164L24.1959 163.918Z" fill="#F2F2F2"/>
<path d="M94.0486 88.4167C94.0486 88.4167 76.0541 62.8028 69.0219 66.1232C61.9896 69.4436 94.0486 88.4167 94.0486 88.4167Z" fill="#95C6AF"/>
<path d="M92.9044 81.535C92.9044 81.535 90.1559 62.2758 85.8228 63.0314C81.4897 63.7871 92.9044 81.535 92.9044 81.535Z" fill="#95C6AF"/>
<path d="M77.691 141.562C77.691 141.562 79.4205 132.992 72.7035 131.915C72.7035 131.915 68.1476 131.756 65.4651 133.474C65.4651 133.474 73.0834 137.872 72.1775 139.239C71.2716 140.606 64.0418 133.727 64.0418 133.727C64.0418 133.727 55.8749 137.304 54.0521 139.894C54.0521 139.894 63.7029 141.614 62.4884 142.716C61.2738 143.817 51.1482 142.494 51.1482 142.494C51.1482 142.494 44.6233 147.75 47.4652 151.934C50.3071 156.118 53.5504 156.088 54.577 155.361C55.6037 154.634 60.6291 148.627 61.2681 149.444C61.9072 150.261 59.6957 155.333 57.0796 156.974C57.0796 156.974 65.2952 159.74 67.7698 156.235C70.2445 152.729 69.0999 150.003 70.6686 147.865C72.2372 145.726 74.0363 144.724 73.7149 146.191C73.3936 147.658 70.1147 150.741 70.1005 153.544C70.0863 156.347 69.8085 158.388 73.01 155.909C76.2118 153.43 80.4647 147.698 79.0778 144.63C77.691 141.562 77.691 141.562 77.691 141.562Z" fill="#95C6AF"/>
<path d="M51.0745 150.074C51.0745 150.074 70.2371 138.378 77.6911 141.562C77.6911 141.562 80.248 143.893 84.6486 144.857L85.806 145.851C85.806 145.851 80.4132 144.168 79.078 144.63C79.078 144.63 77.1004 136.631 51.0745 150.074Z" fill="#95C6AF"/>
<path d="M84.6485 144.857C84.6485 144.857 90.5889 145.617 93.9843 151.009L93.2595 151.503C93.2595 151.503 88.7082 146.51 85.0268 145.62C81.3453 144.729 84.6485 144.857 84.6485 144.857Z" fill="#95C6AF"/>
<path d="M83.5567 116.557C83.5567 116.557 97.4717 108.764 90.978 98.1888C90.978 98.1888 85.7831 91.6951 80.2172 90.0253C80.2172 90.0253 83.1857 105.796 80.2172 106.167C77.2486 106.538 78.1763 88.3555 78.1763 88.3555C78.1763 88.3555 63.5193 81.3052 57.7677 81.8618C57.7677 81.8618 66.8589 97.2611 63.8904 96.8899C60.9219 96.5187 50.7175 80.9342 50.7175 80.9342C50.7175 80.9342 35.6895 78.1511 33.2776 87.0567C30.8657 95.9623 34.7618 100.415 36.9882 100.972C39.2146 101.528 53.5006 101.343 53.1294 103.198C52.7583 105.053 43.1107 108.022 37.7302 106.352C37.7302 106.352 43.6673 121.009 51.4597 120.267C59.252 119.525 61.6639 114.701 66.4878 114.33C71.3116 113.959 74.8367 115.258 72.4248 116.556C70.0129 117.855 61.8494 116.982 57.9533 120.294C54.0571 123.607 50.9031 125.647 58.1388 127.132C65.3745 128.616 78.3618 127.688 80.9593 122.122C83.5567 116.557 83.5567 116.557 83.5567 116.557Z" fill="#95C6AF"/>
<path d="M40.1423 89.8389C40.1423 89.8389 79.1042 102.455 83.5569 116.556C83.5569 116.556 83.3714 122.864 87.2677 130.099V132.882C87.2677 132.882 83.186 123.42 80.9595 122.121C80.9595 122.121 89.6795 109.876 40.1423 89.8389Z" fill="#95C6AF"/>
<path d="M87.2673 130.099C87.2673 130.099 93.2758 139.223 89.8504 150.33L88.3045 149.915C88.3045 149.915 89.8051 137.682 86.6614 131.529C83.5179 125.376 87.2673 130.099 87.2673 130.099Z" fill="#95C6AF"/>
<path d="M97.699 51.3604L76.8797 158.994C76.4562 161.183 78.1333 163.216 80.3631 163.216H91.3433L97.699 51.3604Z" fill="#182452"/>
<path d="M236.091 82.1728C236.091 82.1728 226.726 76.1988 231.664 69.1043C231.664 69.1043 235.536 64.7962 239.473 63.8573C239.473 63.8573 236.779 74.7048 238.828 75.0814C240.878 75.4579 240.958 62.7777 240.958 62.7777C240.958 62.7777 251.432 58.4603 255.409 59.0769C255.409 59.0769 248.473 69.4221 250.552 69.2826C252.631 69.1431 260.349 58.7134 260.349 58.7134C260.349 58.7134 270.91 57.378 272.231 63.667C273.553 69.9559 270.666 72.8967 269.096 73.1948C267.525 73.493 257.599 72.7937 257.783 74.0986C257.967 75.4036 264.557 77.8529 268.365 76.9066C268.365 76.9066 263.651 86.8617 258.262 86.0345C252.874 85.2074 251.389 81.7567 248.049 81.3062C244.71 80.8555 242.207 81.6179 243.832 82.6174C245.457 83.6166 251.169 83.3354 253.746 85.7943C256.323 88.2529 258.435 89.7981 253.344 90.5413C248.253 91.2846 239.259 90.1212 237.675 86.147C236.091 82.1728 236.091 82.1728 236.091 82.1728Z" fill="#DEE5FF"/>
<path d="M267.347 65.3291C267.347 65.3291 239.75 72.5466 236.091 82.1738C236.091 82.1738 235.968 86.5678 232.97 91.4436L232.859 93.3788C232.859 93.3788 236.075 86.962 237.675 86.1479C237.675 86.1479 232.1 77.2851 267.347 65.3291Z" fill="#DEE5FF"/>
<path d="M232.97 91.4438C232.97 91.4438 228.428 97.5486 230.366 105.409L231.458 105.182C231.458 105.182 230.903 96.6151 233.334 92.4621C235.766 88.3091 232.97 91.4438 232.97 91.4438Z" fill="#DEE5FF"/>
<path d="M210.877 56.2405C210.877 56.2405 196.489 53.0809 199.395 41.9925C199.395 41.9925 202.247 34.8602 206.72 31.8926C206.72 31.8926 208.322 46.6287 211.045 46.1612C213.769 45.6937 208.077 29.8696 208.077 29.8696C208.077 29.8696 219.144 19.7099 224.377 18.6607C224.377 18.6607 220.467 34.7093 222.992 33.5859C225.517 32.4625 230.361 15.9515 230.361 15.9515C230.361 15.9515 242.9 9.46434 247.418 16.6904C251.937 23.9165 249.686 28.8967 247.867 29.9853C246.048 31.0739 233.37 34.7381 234.195 36.2787C235.02 37.8193 244.344 37.8582 248.652 34.9404C248.652 34.9404 247.332 49.4878 240.245 50.9198C233.157 52.3518 229.733 48.734 225.369 49.6986C221.005 50.6631 218.237 52.7559 220.717 53.2576C223.198 53.7594 230.18 50.8001 234.512 52.684C238.843 54.568 242.178 55.5269 236.18 58.7779C230.181 62.0289 218.452 64.689 214.665 60.4648C210.877 56.2405 210.877 56.2405 210.877 56.2405Z" fill="#DEE5FF"/>
<path d="M242.096 20.9902C242.096 20.9902 211.035 42.5831 210.877 56.2406C210.877 56.2406 212.732 61.7672 211.227 69.2074L211.972 71.6675C211.972 71.6675 213.045 62.2095 214.665 60.4648C214.665 60.4649 203.675 51.977 242.096 20.9902Z" fill="#DEE5FF"/>
<path d="M211.227 69.2077C211.227 69.2077 208.36 78.8834 214.364 87.7837L215.62 87.0025C215.62 87.0025 211.015 76.5904 212.145 70.3091C213.275 64.0278 211.227 69.2077 211.227 69.2077Z" fill="#DEE5FF"/>
<path d="M97.9494 50.9246L84.1498 156.604C83.6923 160.108 86.4203 163.216 89.9541 163.216H110.198L98.7842 50.543L97.9494 50.9246Z" fill="#AAB7F2"/>
<path d="M97.9493 50.9258L91.7719 155.931C91.5393 159.884 94.6819 163.217 98.6414 163.217H128.833L97.9493 50.9258Z" fill="#C5D0FF"/>
<path d="M97.7175 51.7822L100.721 155.931C100.489 159.883 103.631 163.216 107.59 163.216H137.782L97.7175 51.7822Z" fill="#E3E9FF"/>
<path d="M242.271 163.216H123.226C120.253 163.216 117.705 161.092 117.171 158.168L99.0564 59.1058C98.234 54.6082 101.688 50.4648 106.261 50.4648H223.904C226.877 50.4648 229.424 52.5888 229.959 55.5127L248.325 155.953C249.017 159.734 246.113 163.216 242.271 163.216Z" fill="white"/>
<path d="M101.413 71.971H233.051L229.676 53.2677C229.383 51.6451 227.971 50.4648 226.322 50.4648H98.8152C98.1184 50.4648 97.592 51.0964 97.7176 51.7818L101.413 71.971Z" fill="#FF9D59"/>
<path d="M104.491 44.8369C101.344 44.8369 98.7837 47.3957 98.7837 50.5428H99.8801C99.8801 48.0002 101.948 45.932 104.491 45.932C107.034 45.932 109.103 48.0002 109.103 50.5428C109.103 51.0535 109.02 51.5441 108.866 52.0025C108.413 53.3577 107.347 54.4341 105.999 54.9005C105.605 55.0372 105.188 55.123 104.754 55.1471V56.2435C105.26 56.2207 105.748 56.1323 106.212 55.9848C108.063 55.3991 109.509 53.8911 110.009 52.0025C110.133 51.5361 110.198 51.0468 110.198 50.5428C110.198 47.3957 107.638 44.8369 104.491 44.8369Z" fill="#AAB7F2"/>
<path d="M106.256 55.6547C106.256 55.7686 106.24 55.88 106.212 55.9845C106.067 56.5072 105.589 56.8905 105.021 56.8905C104.338 56.8905 103.785 56.337 103.785 55.6547C103.785 54.9725 104.338 54.4189 105.021 54.4189C105.419 54.4189 105.773 54.608 105.999 54.9002C106.161 55.1092 106.256 55.3706 106.256 55.6547Z" fill="#AAB7F2"/>
<path d="M124.953 44.8369C121.806 44.8369 119.246 47.3957 119.246 50.5428H120.341C120.341 48.0002 122.41 45.932 124.953 45.932C127.496 45.932 129.564 48.0002 129.564 50.5428C129.564 51.0535 129.481 51.5441 129.327 52.0025C128.874 53.3577 127.808 54.4341 126.461 54.9005C126.067 55.0372 125.649 55.123 125.214 55.1471V56.2435C125.721 56.2207 126.209 56.1323 126.673 55.9848C128.525 55.3991 129.971 53.8911 130.471 52.0025C130.595 51.5361 130.66 51.0468 130.66 50.5428C130.66 47.3957 128.1 44.8369 124.953 44.8369Z" fill="#AAB7F2"/>
<path d="M126.717 55.6547C126.717 55.7686 126.701 55.88 126.673 55.9845C126.528 56.5072 126.051 56.8905 125.481 56.8905C124.799 56.8905 124.245 56.337 124.245 55.6547C124.245 54.9725 124.799 54.4189 125.481 54.4189C125.881 54.4189 126.234 54.608 126.461 54.9002C126.622 55.1092 126.717 55.3706 126.717 55.6547Z" fill="#AAB7F2"/>
<path d="M145.415 44.8369C142.268 44.8369 139.708 47.3957 139.708 50.5428H140.803C140.803 48.0002 142.871 45.932 145.415 45.932C147.958 45.932 150.026 48.0002 150.026 50.5428C150.026 51.0535 149.943 51.5441 149.788 52.0025C149.335 53.3577 148.27 54.4341 146.923 54.9005C146.529 55.0372 146.11 55.123 145.676 55.1471V56.2435C146.182 56.2207 146.671 56.1323 147.134 55.9848C148.987 55.3978 150.432 53.8911 150.932 52.0025C151.055 51.5361 151.121 51.0468 151.121 50.5428C151.121 47.3957 148.561 44.8369 145.415 44.8369Z" fill="#AAB7F2"/>
<path d="M147.179 55.6547C147.179 55.7686 147.163 55.88 147.135 55.9845C146.99 56.5072 146.511 56.8905 145.943 56.8905C145.261 56.8905 144.707 56.337 144.707 55.6547C144.707 54.9725 145.261 54.4189 145.943 54.4189C146.341 54.4189 146.695 54.608 146.923 54.9002C147.084 55.1092 147.179 55.3706 147.179 55.6547Z" fill="#AAB7F2"/>
<path d="M165.876 44.8369C162.728 44.8369 160.17 47.3957 160.17 50.5428H161.265C161.265 48.0002 163.333 45.932 165.876 45.932C168.418 45.932 170.488 48.0002 170.488 50.5428C170.488 51.0535 170.405 51.5441 170.25 52.0025C169.798 53.3577 168.732 54.4341 167.384 54.9005C166.989 55.0372 166.573 55.123 166.138 55.1471V56.2435C166.644 56.2207 167.133 56.1323 167.597 55.9848C169.449 55.3978 170.894 53.8911 171.394 52.0025C171.517 51.5361 171.583 51.0468 171.583 50.5428C171.583 47.3957 169.023 44.8369 165.876 44.8369Z" fill="#AAB7F2"/>
<path d="M167.641 55.6547C167.641 55.7686 167.625 55.88 167.597 55.9845C167.452 56.5072 166.973 56.8905 166.405 56.8905C165.723 56.8905 165.169 56.337 165.169 55.6547C165.169 54.9725 165.723 54.4189 166.405 54.4189C166.803 54.4189 167.157 54.608 167.384 54.9002C167.546 55.1092 167.641 55.3706 167.641 55.6547Z" fill="#AAB7F2"/>
<path d="M186.338 44.8369C183.191 44.8369 180.631 47.3957 180.631 50.5428H181.726C181.726 48.0002 183.795 45.932 186.338 45.932C188.881 45.932 190.949 48.0002 190.949 50.5428C190.949 51.0535 190.866 51.5441 190.712 52.0025C190.259 53.3577 189.193 54.4341 187.845 54.9005C187.452 55.0372 187.034 55.123 186.599 55.1471V56.2435C187.106 56.2207 187.594 56.1323 188.058 55.9848C189.91 55.3991 191.356 53.8911 191.856 52.0025C191.98 51.5361 192.045 51.0468 192.045 50.5428C192.045 47.3957 189.485 44.8369 186.338 44.8369Z" fill="#AAB7F2"/>
<path d="M188.102 55.6547C188.102 55.7686 188.086 55.88 188.058 55.9845C187.913 56.5072 187.436 56.8905 186.866 56.8905C186.184 56.8905 185.63 56.337 185.63 55.6547C185.63 54.9725 186.184 54.4189 186.866 54.4189C187.266 54.4189 187.619 54.608 187.845 54.9002C188.007 55.1092 188.102 55.3706 188.102 55.6547Z" fill="#AAB7F2"/>
<path d="M206.8 44.8369C203.653 44.8369 201.093 47.3957 201.093 50.5428H202.188C202.188 48.0002 204.256 45.932 206.8 45.932C209.342 45.932 211.411 48.0002 211.411 50.5428C211.411 51.0535 211.328 51.5441 211.173 52.0025C210.72 53.3577 209.655 54.4341 208.306 54.9005C207.914 55.0372 207.495 55.123 207.061 55.1471V56.2435C207.568 56.2207 208.056 56.1323 208.519 55.9848C210.371 55.3991 211.817 53.8911 212.317 52.0025C212.44 51.5361 212.506 51.0468 212.506 50.5428C212.506 47.3957 209.946 44.8369 206.8 44.8369Z" fill="#AAB7F2"/>
<path d="M208.564 55.6547C208.564 55.7686 208.548 55.88 208.52 55.9845C208.375 56.5072 207.896 56.8905 207.328 56.8905C206.646 56.8905 206.092 56.337 206.092 55.6547C206.092 54.9725 206.646 54.4189 207.328 54.4189C207.726 54.4189 208.08 54.608 208.306 54.9002C208.469 55.1092 208.564 55.3706 208.564 55.6547Z" fill="#AAB7F2"/>
<path d="M227.261 44.8369C224.113 44.8369 221.555 47.3957 221.555 50.5428H222.65C222.65 48.0002 224.718 45.932 227.261 45.932C229.803 45.932 231.873 48.0002 231.873 50.5428C231.873 51.0535 231.79 51.5441 231.636 52.0025C231.183 53.3577 230.117 54.4341 228.769 54.9005C228.375 55.0372 227.958 55.123 227.523 55.1471V56.2435C228.03 56.2207 228.518 56.1323 228.982 55.9848C230.833 55.3991 232.279 53.8911 232.779 52.0025C232.902 51.5361 232.968 51.0468 232.968 50.5428C232.968 47.3957 230.408 44.8369 227.261 44.8369Z" fill="#AAB7F2"/>
<path d="M229.026 55.6547C229.026 55.7686 229.01 55.88 228.982 55.9845C228.837 56.5072 228.358 56.8905 227.79 56.8905C227.108 56.8905 226.554 56.337 226.554 55.6547C226.554 54.9725 227.108 54.4189 227.79 54.4189C228.188 54.4189 228.542 54.608 228.769 54.9002C228.931 55.1092 229.026 55.3706 229.026 55.6547Z" fill="#AAB7F2"/>
<path d="M177.538 107.107H170.884C170.115 107.107 169.364 106.478 169.215 105.708L167.932 99.0539C167.783 98.2847 168.291 97.6553 169.061 97.6553H175.715C176.485 97.6553 177.235 98.2847 177.384 99.0539L178.667 105.708C178.816 106.478 178.308 107.107 177.538 107.107Z" fill="#DEE5FF"/>
<path d="M194.33 107.107H187.676C186.907 107.107 186.156 106.478 186.007 105.708L184.724 99.0539C184.575 98.2847 185.083 97.6553 185.853 97.6553H192.507C193.276 97.6553 194.027 98.2847 194.176 99.0539L195.459 105.708C195.608 106.478 195.1 107.107 194.33 107.107Z" fill="#DEE5FF"/>
<path d="M211.122 107.107H204.468C203.699 107.107 202.948 106.478 202.799 105.708L201.516 99.0539C201.367 98.2847 201.875 97.6553 202.645 97.6553H209.299C210.068 97.6553 210.819 98.2847 210.968 99.0539L212.251 105.708C212.4 106.478 211.892 107.107 211.122 107.107Z" fill="#ADBEFE"/>
<path d="M127.162 107.107H120.508C119.738 107.107 118.988 106.478 118.839 105.708L117.556 99.0539C117.407 98.2847 117.915 97.6553 118.684 97.6553H125.339C126.108 97.6553 126.859 98.2847 127.007 99.0539L128.291 105.708C128.44 106.478 127.932 107.107 127.162 107.107Z" fill="#DEE5FF"/>
<path d="M119.869 87.1292H117.009C116.679 87.1292 116.356 86.8588 116.292 86.5283L115.741 83.6685C115.677 83.3379 115.895 83.0674 116.226 83.0674H119.086C119.416 83.0674 119.739 83.3379 119.803 83.6685L120.354 86.5283C120.418 86.8588 120.2 87.1292 119.869 87.1292Z" fill="#FF9D59"/>
<path d="M143.954 107.107H137.3C136.531 107.107 135.78 106.478 135.631 105.708L134.348 99.0539C134.199 98.2847 134.707 97.6553 135.477 97.6553H142.131C142.9 97.6553 143.651 98.2847 143.8 99.0539L145.083 105.708C145.232 106.478 144.724 107.107 143.954 107.107Z" fill="#DEE5FF"/>
<path d="M160.746 107.107H154.092C153.323 107.107 152.572 106.478 152.423 105.708L151.14 99.0539C150.991 98.2847 151.499 97.6553 152.269 97.6553H158.923C159.693 97.6553 160.443 98.2847 160.592 99.0539L161.875 105.708C162.024 106.478 161.516 107.107 160.746 107.107Z" fill="#DEE5FF"/>
<path d="M227.914 107.107H221.26C220.491 107.107 219.74 106.478 219.591 105.708L218.308 99.0539C218.159 98.2847 218.667 97.6553 219.437 97.6553H226.091C226.86 97.6553 227.611 98.2847 227.76 99.0539L229.043 105.708C229.192 106.478 228.684 107.107 227.914 107.107Z" fill="#ADBEFE"/>
<path d="M174.75 92.654H168.096C167.327 92.654 166.576 92.0246 166.427 91.2554L165.144 84.6009C164.995 83.8315 165.503 83.2021 166.272 83.2021H172.927C173.696 83.2021 174.447 83.8315 174.596 84.6009L175.879 91.2554C176.028 92.0245 175.52 92.654 174.75 92.654Z" fill="#DEE5FF"/>
<path d="M191.543 92.654H184.888C184.119 92.654 183.368 92.0246 183.22 91.2554L181.936 84.6009C181.788 83.8315 182.296 83.2021 183.065 83.2021H189.719C190.489 83.2021 191.239 83.8315 191.388 84.6009L192.671 91.2554C192.82 92.0245 192.312 92.654 191.543 92.654Z" fill="#DEE5FF"/>
<path d="M208.334 92.654H201.68C200.911 92.654 200.16 92.0246 200.011 91.2554L198.728 84.6009C198.579 83.8315 199.087 83.2021 199.857 83.2021H206.511C207.28 83.2021 208.031 83.8315 208.179 84.6009L209.463 91.2554C209.612 92.0245 209.104 92.654 208.334 92.654Z" fill="#ADBEFE"/>
<path d="M225.127 92.654H218.472C217.703 92.654 216.952 92.0246 216.804 91.2554L215.52 84.6009C215.371 83.8315 215.88 83.2021 216.649 83.2021H223.303C224.073 83.2021 224.823 83.8315 224.972 84.6009L226.255 91.2554C226.404 92.0245 225.896 92.654 225.127 92.654Z" fill="#ADBEFE"/>
<path d="M180.494 122.426H173.839C173.07 122.426 172.319 121.797 172.171 121.028L170.887 114.373C170.738 113.604 171.246 112.975 172.016 112.975H178.67C179.44 112.975 180.19 113.604 180.339 114.373L181.622 121.028C181.771 121.797 181.263 122.426 180.494 122.426Z" fill="#DEE5FF"/>
<path d="M197.285 122.426H190.631C189.862 122.426 189.111 121.797 188.962 121.028L187.679 114.373C187.53 113.604 188.038 112.975 188.808 112.975H195.462C196.231 112.975 196.982 113.604 197.13 114.373L198.414 121.028C198.563 121.797 198.055 122.426 197.285 122.426Z" fill="#DEE5FF"/>
<path d="M214.077 122.426H207.423C206.654 122.426 205.903 121.797 205.754 121.028L204.471 114.373C204.322 113.604 204.83 112.975 205.6 112.975H212.254C213.023 112.975 213.774 113.604 213.922 114.373L215.206 121.028C215.355 121.797 214.847 122.426 214.077 122.426Z" fill="#ADBEFE"/>
<path d="M130.118 122.426H123.463C122.694 122.426 121.943 121.797 121.795 121.028L120.511 114.373C120.362 113.604 120.871 112.975 121.64 112.975H128.294C129.064 112.975 129.814 113.604 129.963 114.373L131.246 121.028C131.395 121.797 130.887 122.426 130.118 122.426Z" fill="#DEE5FF"/>
<path d="M146.91 122.426H140.255C139.486 122.426 138.735 121.797 138.587 121.028L137.303 114.373C137.154 113.604 137.663 112.975 138.432 112.975H145.086C145.856 112.975 146.606 113.604 146.755 114.373L148.038 121.028C148.187 121.797 147.679 122.426 146.91 122.426Z" fill="#DEE5FF"/>
<path d="M163.701 122.426H157.047C156.277 122.426 155.527 121.797 155.378 121.028L154.095 114.373C153.946 113.604 154.454 112.975 155.223 112.975H161.878C162.647 112.975 163.398 113.604 163.547 114.373L164.83 121.028C164.979 121.797 164.471 122.426 163.701 122.426Z" fill="#DEE5FF"/>
<path d="M230.869 122.426H224.215C223.445 122.426 222.695 121.797 222.546 121.028L221.263 114.373C221.114 113.604 221.622 112.975 222.391 112.975H229.046C229.815 112.975 230.566 113.604 230.714 114.373L231.998 121.028C232.146 121.797 231.638 122.426 230.869 122.426Z" fill="#ADBEFE"/>
<path d="M183.448 137.745H176.794C176.024 137.745 175.274 137.115 175.125 136.346L173.841 129.692C173.693 128.922 174.201 128.293 174.97 128.293H181.625C182.394 128.293 183.145 128.922 183.293 129.692L184.577 136.346C184.725 137.115 184.217 137.745 183.448 137.745Z" fill="#DEE5FF"/>
<path d="M200.24 137.745H193.586C192.816 137.745 192.066 137.115 191.917 136.346L190.634 129.692C190.485 128.922 190.993 128.293 191.762 128.293H198.417C199.186 128.293 199.937 128.922 200.085 129.692L201.369 136.346C201.518 137.115 201.01 137.745 200.24 137.745Z" fill="#DEE5FF"/>
<path d="M217.032 137.745H210.378C209.608 137.745 208.858 137.115 208.709 136.346L207.425 129.692C207.277 128.922 207.785 128.293 208.554 128.293H215.209C215.978 128.293 216.729 128.922 216.877 129.692L218.161 136.346C218.309 137.115 217.801 137.745 217.032 137.745Z" fill="#ADBEFE"/>
<path d="M133.072 137.745H126.418C125.649 137.745 124.898 137.115 124.749 136.346L123.466 129.692C123.317 128.922 123.825 128.293 124.595 128.293H131.249C132.018 128.293 132.769 128.922 132.917 129.692L134.201 136.346C134.35 137.115 133.842 137.745 133.072 137.745Z" fill="#DEE5FF"/>
<path d="M149.864 137.745H143.21C142.441 137.745 141.69 137.115 141.541 136.346L140.258 129.692C140.109 128.922 140.617 128.293 141.387 128.293H148.041C148.81 128.293 149.561 128.922 149.709 129.692L150.993 136.346C151.141 137.115 150.633 137.745 149.864 137.745Z" fill="#FF9D59"/>
<path d="M166.656 137.745H160.002C159.233 137.745 158.482 137.115 158.333 136.346L157.05 129.692C156.901 128.922 157.409 128.293 158.179 128.293H164.833C165.602 128.293 166.353 128.922 166.502 129.692L167.785 136.346C167.934 137.115 167.426 137.745 166.656 137.745Z" fill="#DEE5FF"/>
<path d="M233.824 137.745H227.17C226.4 137.745 225.65 137.115 225.501 136.346L224.217 129.692C224.069 128.922 224.577 128.293 225.346 128.293H232.001C232.77 128.293 233.521 128.922 233.669 129.692L234.953 136.346C235.101 137.115 234.593 137.745 233.824 137.745Z" fill="#ADBEFE"/>
<path d="M186.236 152.198H179.582C178.812 152.198 178.062 151.569 177.913 150.799L176.63 144.145C176.481 143.375 176.989 142.746 177.758 142.746H184.413C185.182 142.746 185.933 143.375 186.081 144.145L187.365 150.799C187.513 151.568 187.005 152.198 186.236 152.198Z" fill="#DEE5FF"/>
<path d="M203.028 152.198H196.374C195.604 152.198 194.854 151.569 194.705 150.799L193.422 144.145C193.273 143.375 193.781 142.746 194.55 142.746H201.205C201.974 142.746 202.725 143.375 202.873 144.145L204.157 150.799C204.305 151.568 203.797 152.198 203.028 152.198Z" fill="#DEE5FF"/>
<path d="M219.82 152.198H213.166C212.396 152.198 211.646 151.569 211.497 150.799L210.214 144.145C210.065 143.375 210.573 142.746 211.342 142.746H217.997C218.766 142.746 219.517 143.375 219.665 144.145L220.949 150.799C221.097 151.568 220.589 152.198 219.82 152.198Z" fill="#ADBEFE"/>
<path d="M135.86 152.198H129.206C128.437 152.198 127.686 151.569 127.537 150.799L126.254 144.145C126.105 143.375 126.613 142.746 127.383 142.746H134.037C134.806 142.746 135.557 143.375 135.706 144.145L136.989 150.799C137.138 151.568 136.63 152.198 135.86 152.198Z" fill="#DEE5FF"/>
<path d="M152.652 152.198H145.998C145.229 152.198 144.478 151.569 144.329 150.799L143.046 144.145C142.897 143.375 143.405 142.746 144.175 142.746H150.829C151.599 142.746 152.349 143.375 152.498 144.145L153.781 150.799C153.93 151.568 153.422 152.198 152.652 152.198Z" fill="#DEE5FF"/>
<path d="M169.444 152.198H162.79C162.02 152.198 161.27 151.569 161.121 150.799L159.838 144.145C159.689 143.375 160.197 142.746 160.966 142.746H167.621C168.39 142.746 169.141 143.375 169.289 144.145L170.573 150.799C170.722 151.568 170.213 152.198 169.444 152.198Z" fill="#DEE5FF"/>
<path d="M140.038 84.5033H122.409C122.149 84.5033 121.937 84.2906 121.937 84.0309C121.937 83.7711 122.149 83.5586 122.409 83.5586H140.038C140.298 83.5586 140.511 83.7712 140.511 84.0309C140.511 84.2906 140.298 84.5033 140.038 84.5033Z" fill="white"/>
<path d="M140.575 86.638H122.945C122.685 86.638 122.473 86.4254 122.473 86.1656C122.473 85.9059 122.685 85.6934 122.945 85.6934H140.575C140.834 85.6934 141.047 85.906 141.047 86.1656C141.047 86.4255 140.834 86.638 140.575 86.638Z" fill="white"/>
<path d="M121.13 68.6047H115.08C114.585 68.6047 114.179 68.1993 114.179 67.7037C114.179 67.2082 114.585 66.8027 115.08 66.8027H121.13C121.626 66.8027 122.031 67.2082 122.031 67.7037C122.031 68.1993 121.626 68.6047 121.13 68.6047Z" fill="white"/>
<path d="M137.73 68.6047H131.681C131.185 68.6047 130.78 68.1993 130.78 67.7037C130.78 67.2082 131.185 66.8027 131.681 66.8027H137.73C138.226 66.8027 138.631 67.2082 138.631 67.7037C138.631 68.1993 138.226 68.6047 137.73 68.6047Z" fill="white"/>
<path d="M154.33 68.6047H148.281C147.785 68.6047 147.38 68.1993 147.38 67.7037C147.38 67.2082 147.785 66.8027 148.281 66.8027H154.33C154.826 66.8027 155.231 67.2082 155.231 67.7037C155.231 68.1993 154.826 68.6047 154.33 68.6047Z" fill="white"/>
<path d="M170.931 68.6047H164.881C164.385 68.6047 163.98 68.1993 163.98 67.7037C163.98 67.2082 164.385 66.8027 164.881 66.8027H170.931C171.426 66.8027 171.832 67.2082 171.832 67.7037C171.832 68.1993 171.426 68.6047 170.931 68.6047Z" fill="white"/>
<path d="M187.531 68.6047H181.481C180.985 68.6047 180.58 68.1993 180.58 67.7037C180.58 67.2082 180.985 66.8027 181.481 66.8027H187.531C188.026 66.8027 188.432 67.2082 188.432 67.7037C188.432 68.1993 188.026 68.6047 187.531 68.6047Z" fill="white"/>
<path d="M204.131 68.6047H198.081C197.585 68.6047 197.18 68.1993 197.18 67.7037C197.18 67.2082 197.585 66.8027 198.081 66.8027H204.131C204.626 66.8027 205.032 67.2082 205.032 67.7037C205.032 68.1993 204.626 68.6047 204.131 68.6047Z" fill="white"/>
<path d="M220.731 68.6047H214.681C214.185 68.6047 213.78 68.1993 213.78 67.7037C213.78 67.2082 214.185 66.8027 214.681 66.8027H220.731C221.226 66.8027 221.632 67.2082 221.632 67.7037C221.632 68.1993 221.226 68.6047 220.731 68.6047Z" fill="white"/>
<path d="M182.469 92.7865C181.133 92.7865 180.16 92.3624 179.63 91.5396C178.613 89.9616 179.398 87.7497 181.963 84.9648C183.836 82.9314 186.023 81.3198 186.044 81.3037C186.13 81.2407 186.251 81.2592 186.314 81.3453C186.377 81.4312 186.359 81.5521 186.273 81.6152C186.187 81.6779 177.757 87.9197 179.955 91.3304C180.651 92.4109 182.141 92.4825 183.27 92.3518C185.359 92.1102 188.082 90.9853 190.555 89.3429C193.115 87.6428 194.917 85.7268 195.502 84.0861C195.885 83.0097 195.767 82.2474 195.149 81.8202C194.352 81.2682 192.686 81.2678 190.693 81.8187C188.784 82.3464 186.863 83.2964 185.679 84.2983C185.597 84.3671 185.475 84.3568 185.407 84.2755C185.338 84.1943 185.348 84.0724 185.429 84.0035C186.653 82.968 188.63 81.9882 190.59 81.4467C192.723 80.8569 194.465 80.8773 195.369 81.5028C195.904 81.8731 196.425 82.6447 195.865 84.2158C195.254 85.9335 193.396 87.9196 190.769 89.6646C188.247 91.3394 185.461 92.4872 183.314 92.7354C183.018 92.7695 182.736 92.7865 182.469 92.7865Z" fill="#FF9D59"/>
<path d="M217.4 81.8158L216.713 80.5202C216.713 80.5202 217.054 78.2114 214.161 76.751C214.161 76.751 213.104 76.3205 212.507 77.1828C211.957 77.977 213.555 77.8336 213.469 79.1924C213.384 80.5512 214.028 81.3484 214.926 81.791L215.668 82.6506L217.4 81.8158Z" fill="#FDE2D0"/>
<path d="M244.739 78.7176C244.739 78.7176 242.255 90.9111 228.584 94.895C224.316 96.1386 214.621 82.0886 214.621 82.0886C214.621 82.0886 214.962 80.7934 217.097 81.0908C217.097 81.0908 226.537 87.3404 227.726 88.0194C228.78 88.6219 235.715 80.2754 238.877 78.9292C242.038 77.5828 244.739 78.7176 244.739 78.7176Z" fill="#ECECEC"/>
<path d="M204.771 78.4968L205.319 81.4551L220.2 78.6992L219.652 75.7409L204.771 78.4968Z" fill="#FF9D59"/>
<path d="M201.579 80.6196L205.312 81.4582L204.764 78.5L201.579 80.6196Z" fill="#FDE2D0"/>
<path d="M221.557 76.4053L221.73 77.3405C221.837 77.9158 221.457 78.4685 220.881 78.5751L220.193 78.7026L219.645 75.7444L220.394 75.6058C220.936 75.5053 221.457 75.8633 221.557 76.4053Z" fill="#FDE2D0"/>
<path d="M261.061 155.37C261.061 155.37 262.757 156.918 262.426 158.017C262.095 159.117 260.565 159.85 260.358 161.194C260.151 162.539 259.324 163.272 258.579 163.272C257.835 163.272 255.029 163.272 255.029 163.272C255.029 163.272 254.481 162.326 255.805 162.041C257.129 161.756 257.628 160.176 257.545 158.71C257.462 157.244 257.669 155.288 257.669 155.288L260.482 154.637L261.061 155.37Z" fill="#ECECEC"/>
<path d="M240.254 159.373C240.254 159.373 240.559 162.895 239.814 163.262L230.285 163.242C230.285 163.242 230.285 162.143 231.815 161.898C233.346 161.654 236.035 160.758 236.49 158.762C236.945 156.766 240.254 159.373 240.254 159.373Z" fill="#ECECEC"/>
<path d="M232.209 109.614C232.209 109.614 232.711 115.789 233.302 123.211C234.105 133.293 235.07 145.677 235.166 148.023C235.331 152.097 235.994 158.614 235.994 158.614C235.994 158.614 237.565 160.162 240.709 159.51C240.709 159.51 243.512 150.207 244.312 140.364C244.324 140.203 244.337 140.04 244.349 139.878C245.094 129.858 246.252 108.759 246.252 108.759L232.209 109.614Z" fill="#3C3C48"/>
<path d="M232.209 109.614C232.209 109.614 232.711 115.789 233.302 123.211L244.312 140.364C244.324 140.203 244.337 140.04 244.349 139.878C245.094 129.858 246.252 108.759 246.252 108.759L232.209 109.614Z" fill="#3C3C48"/>
<path d="M234.504 110.349C234.504 110.349 243.563 132.71 249.52 143.219C255.477 153.727 257.338 156.66 257.338 156.66C257.338 156.66 260.751 155.316 261.061 154.4C261.061 154.4 258.783 134.112 254.794 129.166C252.54 126.372 249.892 117.986 249.768 115.053C249.644 112.121 248.962 106.316 248.962 106.316L234.504 110.349Z" fill="#3C3C48"/>
<path d="M246.424 75.889C246.424 75.889 240.294 78.8465 236.76 77.7493C236.76 77.7493 237.63 76.652 239.152 75.8355C239.03 75.1263 238.935 74.5106 238.88 73.9888C238.731 72.7843 238.731 72.1019 238.731 72.1019L241.096 70.2418L243.339 68.4619C243.162 73.4668 246.424 75.889 246.424 75.889Z" fill="#FDE2D0"/>
<path d="M231.822 110.126C231.93 110.22 232.053 110.272 232.19 110.272C233.521 110.245 237.395 110.981 240.669 110.646C243.442 110.379 245.889 109.576 248.512 108.426C248.865 108.265 249.668 107.837 249.653 107.463C249.639 107.034 249.599 106.432 249.545 105.655C249.435 104.126 249.281 101.955 249.231 99.3814C249.195 97.4734 249.216 95.344 249.354 93.0888C249.362 92.9375 249.37 92.7846 249.376 92.6317C249.416 91.805 249.435 90.972 249.435 90.1583C249.45 87.5351 249.26 85.0331 248.879 82.7985C248.212 78.9172 246.962 75.88 245.114 74.5278C244.869 74.3399 243.346 75.0757 241.934 75.7589C240.642 76.388 239.352 76.4549 238.129 76.2144L236.906 77.2846C235.423 78.6352 233.792 80.4955 233.072 83.3065C232.475 85.6891 232.121 89.9973 231.93 94.4679C231.836 96.5017 231.768 98.5356 231.741 100.475V100.542C231.726 100.743 231.726 100.945 231.726 101.146C231.66 106.11 231.726 110.059 231.822 110.126Z" fill="#F5F5F5"/>
<path d="M243.379 70.375C243.379 70.375 241.83 73.1986 238.88 73.9881C238.731 72.7837 238.731 72.1012 238.731 72.1012L241.096 70.2412L243.379 70.375Z" fill="#FDE2D0"/>
<path d="M237.653 72.0194C237.653 72.0194 243.5 72.976 244.049 69.3812C244.598 65.7865 245.722 63.4889 242.012 62.7263C238.302 61.9636 237.366 63.2277 236.886 64.3836C236.406 65.5395 236.146 71.6779 237.653 72.0194Z" fill="#FDE2D0"/>
<path d="M246.174 62.2961C246.227 62.2352 246.35 62.1861 246.622 62.1712C246.622 62.1712 246.405 62.035 246.113 62.0279C246.056 61.6489 245.855 60.9783 245.203 60.8153C245.203 60.8153 245.553 61.0022 245.599 61.405C244.843 60.6293 243.225 60.0647 238.744 60.4184C232.838 60.8846 234.784 64.6659 235.549 65.1167C236.314 65.5675 238.238 64.3317 239.663 64.4447C241.087 64.5578 241.358 66.6162 241.842 66.8987C242.325 67.1812 242.135 66.6816 242.789 66.3861C243.442 66.0905 243.505 67.174 243.316 67.8784C243.127 68.5829 244.025 69.5122 244.025 69.5122C244.025 69.5122 244.025 69.5122 244.933 68.5344C245.841 67.5566 246.697 63.4151 246.284 62.5323C246.248 62.4545 246.212 62.3756 246.174 62.2961Z" fill="#2C3A64"/>
<path d="M216.701 80.4589C216.701 80.4589 216.902 79.6643 216.351 79.307C215.799 78.9497 215.292 77.9782 215.06 78.1098C214.578 78.3824 215.323 79.2301 215.187 80.2875C215.139 80.6578 216.001 81.6279 216.701 80.4589Z" fill="#FDE2D0"/>
<path d="M249.231 99.3808C249.195 97.4728 249.215 95.3434 249.354 93.0882C249.362 92.9369 249.37 92.784 249.376 92.6311C248.821 89.8774 247.979 87.4341 246.742 87.3545C246.742 87.3545 243.055 93.1486 249.231 99.3808Z" fill="#ECECEC"/>
<path d="M254.108 109.374C254.108 109.374 253.801 112.361 253.464 112.927C253.127 113.492 251.691 115.298 251.08 115.652C250.468 116.007 251.453 113.272 251.328 112.741C251.204 112.208 250.825 113.711 250.555 113.747C250.286 113.782 250.355 112.429 250.346 111.937C250.336 111.445 251.657 110.23 252.123 109.182C252.589 108.133 254.108 109.374 254.108 109.374Z" fill="#FDE2D0"/>
<path d="M245.112 74.498C245.112 74.498 248.811 76.2499 250.585 78.9433C253.337 83.1211 256.526 98.3469 256.585 99.7569C256.644 101.167 254.257 111.121 254.257 111.121C254.257 111.121 251.837 110.961 251.212 109.739C251.212 109.739 251.696 99.5119 251.389 98.8545C251.083 98.197 241.297 85.1352 242.398 82.3481C243.498 79.5609 245.112 74.498 245.112 74.498Z" fill="#F5F5F5"/>
<path d="M203.492 79.3467L203.687 81.093L201.579 80.6196L203.492 79.3467Z" fill="#FF9D59"/>
<path d="M283.549 163.216H272.887C272.316 162.731 273.282 161.631 274.292 161.557C274.731 161.524 275.286 161.615 275.92 161.749C276.066 159.801 276.904 151.04 280.062 151.392C283.613 151.786 280.062 155.25 279.058 157.301C278.315 158.82 277.53 160.998 277.172 162.026C277.46 162.089 277.759 162.15 278.064 162.206C278.534 160.761 280.285 155.9 282.512 156.184C285.127 156.515 284.076 158.464 282.223 159.621C280.863 160.471 279.194 161.68 278.4 162.265C279.072 162.374 279.774 162.448 280.485 162.432C282.312 162.388 283.203 162.926 283.549 163.216Z" fill="#95C6AF"/>
<path d="M40.1624 162.71C39.5973 161.822 37.8969 159.518 35.6319 159.823C33.1642 160.155 38.3573 161.782 39.9473 162.716C39.5942 162.721 39.2906 162.693 39.0676 162.614C38.0047 162.235 36.1843 162.961 35.6023 163.216H45.7215C45.6515 162.974 45.4693 162.579 44.9979 162.291C44.8318 162.189 44.4978 162.175 44.0666 162.208C44.6683 161.499 45.0861 159.233 43.4112 159.816C42.1875 160.242 42.1908 161.626 42.3109 162.445C42.0506 162.486 41.7866 162.527 41.5257 162.565C41.0219 159.997 39.2399 152.472 35.6281 152.271C31.9666 152.068 38.7331 160.076 40.986 162.637C40.6977 162.671 40.4198 162.698 40.1624 162.71Z" fill="#95C6AF"/>
<path d="M307.651 163.951H0.348943C0.156985 163.951 0 163.79 0 163.592V163.469C0 163.271 0.156985 163.109 0.348943 163.109H307.651C307.843 163.109 308 163.271 308 163.469V163.592C308 163.79 307.843 163.951 307.651 163.951Z" fill="#DEDEDE"/>
</svg>
