<svg width="168" height="164" viewBox="0 0 168 164" fill="none" xmlns="http://www.w3.org/2000/svg">
<path fill-rule="evenodd" clip-rule="evenodd" d="M25.4658 29.7395C26.9582 30.1356 28.3709 30.7266 29.6751 31.4842L33.2492 29.2311L38.1918 34.172L35.9383 37.7444C36.6962 39.0482 37.2874 40.4607 37.6836 41.9526L41.8024 42.8853V49.873L37.684 50.8057C37.2878 52.298 36.6962 53.7102 35.9383 55.014L38.1918 58.5864L33.2492 63.5273L29.6751 61.2745C28.3709 62.0318 26.9582 62.6232 25.4658 63.0189L24.5324 67.1366H17.5426L16.6096 63.0197C15.1172 62.6236 13.7041 62.0322 12.3999 61.2745L8.8258 63.5273L3.88316 58.5864L6.1371 55.0136C5.37957 53.7098 4.78799 52.2976 4.39215 50.8057L0.272949 49.8726V42.885L4.39175 41.9523C4.78799 40.4603 5.37957 39.0478 6.1375 37.744L3.88395 34.1716L8.8266 29.2307L12.4007 31.4834C13.7049 30.7262 15.1176 30.1352 16.61 29.7391L17.5434 25.6213H24.5336L25.4658 29.7395ZM21.3553 38.8831C17.2139 38.8831 13.857 42.2392 13.857 46.3792C13.857 50.5192 17.2143 53.8753 21.3553 53.8753C25.4968 53.8753 28.8541 50.5192 28.8541 46.3792C28.8537 42.2392 25.4964 38.8831 21.3553 38.8831Z" fill="#FFDEC8"/>
<path fill-rule="evenodd" clip-rule="evenodd" d="M128.71 52.7322C129.737 52.6397 130.759 52.6885 131.75 52.866L133.478 50.6362L137.708 52.608L137.11 55.3644C137.884 56.0097 138.578 56.7607 139.167 57.6064L141.965 57.2512L143.561 61.6357L141.19 63.1613C141.282 64.1881 141.234 65.2093 141.056 66.2007L143.286 67.928L141.313 72.1569L138.556 71.5592C137.911 72.3323 137.159 73.0257 136.313 73.6147L136.669 76.4116L132.283 78.0075L130.756 75.6372C129.729 75.7293 128.708 75.6809 127.716 75.5031L125.988 77.7328L121.758 75.7611L122.356 73.0047C121.583 72.3597 120.889 71.6084 120.299 70.7626L117.501 71.1178L115.905 66.733L118.276 65.2073C118.184 64.1806 118.233 63.1594 118.41 62.1683L116.18 60.441L118.153 56.2122L120.91 56.8099C121.556 56.0367 122.307 55.3434 123.153 54.7544L122.798 51.9575L127.184 50.3616L128.71 52.7322ZM128.22 59.4083C125.621 60.3537 124.281 63.226 125.227 65.8241C126.173 68.4217 129.046 69.7613 131.645 68.8159C134.244 67.8705 135.584 64.9982 134.638 62.4001C133.692 59.802 130.818 58.4625 128.22 59.4083Z" fill="#FFDEC8"/>
<path fill-rule="evenodd" clip-rule="evenodd" d="M142.131 31.0406C142.711 30.9886 143.288 31.016 143.847 31.116L144.823 29.8571L147.211 30.9704L146.874 32.5262C147.31 32.8905 147.702 33.3144 148.034 33.7919L149.614 33.5914L150.515 36.0669L149.176 36.9281C149.228 37.5076 149.201 38.0843 149.101 38.6439L150.36 39.619L149.246 42.0064L147.689 41.669C147.325 42.1056 146.901 42.4969 146.423 42.8295L146.624 44.4083L144.148 45.3093L143.286 43.971C142.706 44.023 142.129 43.9956 141.57 43.8956L140.594 45.1545L138.206 44.0412L138.543 42.485C138.107 42.1207 137.715 41.6968 137.383 41.2193L135.803 41.4197L134.902 38.9443L136.241 38.0831C136.189 37.5036 136.216 36.9269 136.316 36.3673L135.057 35.3921L136.171 33.0048L137.728 33.3422C138.092 32.906 138.516 32.5143 138.994 32.1817L138.793 30.6028L141.269 29.7019L142.131 31.0406ZM141.854 34.8095C140.387 35.3433 139.631 36.9646 140.165 38.4315C140.699 39.8981 142.321 40.6541 143.788 40.1203C145.255 39.5865 146.012 37.9652 145.478 36.4983C144.943 35.0322 143.321 34.2757 141.854 34.8095Z" fill="#FFDEC8"/>
<path fill-rule="evenodd" clip-rule="evenodd" d="M15.1401 8.99192C15.5947 8.95104 16.0469 8.97247 16.486 9.05105L17.2511 8.06398L19.1239 8.93715L18.8591 10.1572C19.2013 10.443 19.5086 10.7756 19.7695 11.1498L21.0078 10.9926L21.7145 12.9335L20.6648 13.609C20.7057 14.0634 20.6842 14.5155 20.6056 14.9544L21.5927 15.7192L20.7196 17.5914L19.4991 17.3267C19.2132 17.6688 18.8805 17.976 18.5061 18.2367L18.6634 19.475L16.7219 20.1815L16.0461 19.1321C15.5915 19.173 15.1393 19.1516 14.7002 19.073L13.9355 20.06L12.0627 19.1869L12.3275 17.9668C11.9853 17.6815 11.678 17.3485 11.4171 16.9742L10.1784 17.1314L9.47168 15.1906L10.5214 14.5151C10.4805 14.0606 10.502 13.6086 10.5806 13.1696L9.59317 12.4048L10.4666 10.5327L11.6871 10.797C11.973 10.4549 12.3057 10.1481 12.6801 9.88691L12.5229 8.64861L14.4647 7.94214L15.1401 8.99192ZM14.9233 11.9472C13.7731 12.3655 13.18 13.6371 13.5984 14.7873C14.0173 15.9371 15.289 16.5305 16.4396 16.1118C17.5898 15.693 18.1829 14.4214 17.7645 13.2716C17.3456 12.1214 16.0735 11.5285 14.9233 11.9472Z" fill="#FFDEC8"/>
<path d="M160.283 134.687C161.989 134.119 163.601 133.056 164.456 131.474C165.121 130.243 165.278 128.809 165.408 127.416C166.017 120.907 166.311 114.368 166.287 107.83C166.28 105.993 166.142 103.917 164.743 102.727C163.833 101.952 162.582 101.74 161.393 101.613C159.188 101.378 156.962 101.336 154.749 101.487C153.323 101.585 151.819 101.796 150.71 102.697C149.487 103.689 148.996 105.305 148.604 106.829C147.498 111.126 146.676 115.495 146.132 119.899C145.919 119.853 145.7 119.825 145.496 119.809C144.47 119.729 143.434 119.65 142.417 119.799C141.399 119.947 140.386 120.346 139.678 121.092C138.263 122.586 138.443 124.921 137.964 126.922C137.837 127.451 137.658 127.979 137.672 128.523C137.678 128.737 137.724 128.957 137.807 129.157C136.392 130.098 135.413 131.744 135.835 133.356C136.202 134.754 137.514 135.744 138.905 136.138C140.295 136.532 141.771 136.434 143.213 136.333C145.304 136.186 147.394 136.04 149.485 135.893C149.555 138.167 149.626 140.441 149.697 142.714C146.616 142.676 143.53 143.027 140.537 143.764C139.784 143.95 138.984 144.192 138.5 144.799C138.016 145.406 138.071 146.485 138.785 146.791C139.039 146.899 139.325 146.893 139.602 146.886C139.603 146.886 139.605 146.886 139.607 146.886C139.373 147.215 139.234 147.616 139.234 148.051C139.234 149.163 140.136 150.065 141.249 150.065C142.362 150.065 143.264 149.163 143.264 148.051C143.264 147.576 143.098 147.139 142.823 146.795C145.465 146.72 148.106 146.646 150.748 146.571C150.592 147.69 150.44 148.86 150.812 149.926C150.948 150.315 151.177 150.682 151.467 150.983C151.373 151.183 151.32 151.406 151.32 151.641V152.906C151.32 153.773 152.03 154.482 152.897 154.482C153.764 154.482 154.473 153.773 154.473 152.906V151.641C154.473 151.462 154.442 151.29 154.386 151.129C154.775 150.733 155.038 150.186 155.133 149.633C155.296 148.685 155.071 147.717 154.848 146.781C157.051 146.829 159.256 146.764 161.453 146.588C161.065 146.955 160.821 147.474 160.821 148.051C160.821 149.163 161.723 150.065 162.836 150.065C163.949 150.065 164.851 149.163 164.851 148.051C164.851 147.322 164.463 146.686 163.884 146.332C164.347 146.242 164.789 146.073 165.043 145.692C165.425 145.119 165.169 144.296 164.654 143.838C164.14 143.38 163.44 143.201 162.765 143.059C159.68 142.411 156.499 142.234 153.359 142.524C153.562 142.328 153.73 142.099 153.844 141.839C154.095 141.271 154.083 140.626 154.066 140.004C154.027 138.53 153.987 137.056 153.948 135.582C154.287 135.558 154.627 135.534 154.966 135.51C156.76 135.384 158.576 135.254 160.283 134.687ZM145.877 122.147C145.869 122.227 145.863 122.307 145.855 122.387L145.658 122.133C145.73 122.142 145.804 122.146 145.877 122.147ZM145.43 126.623C145.289 127.258 145.149 127.892 145.008 128.526C143.448 128.29 141.83 128.06 140.287 128.276C140.374 127.535 140.203 126.774 140.236 126.024C140.293 124.717 141.021 123.457 142.125 122.755C143.218 122.059 144.651 121.932 145.852 122.417C145.706 123.897 145.587 125.38 145.505 126.865L145.43 126.623Z" fill="#FF7312"/>
<path d="M166.219 125.823H160.156L160.873 120.993H161.34V119.649H158.985C160.753 118.889 162.224 117.52 162.986 115.847C162.049 115.958 160.949 116.646 159.955 117.444C161.01 116.228 161.968 114.94 162.811 113.588C161.225 113.57 159.784 114.546 158.907 115.782C159.152 113.906 158.916 111.975 158.168 110.217C156.934 112.028 156.855 115.507 156.971 117.888C156.472 115.621 155.231 113.493 153.422 111.905C153.44 114.276 155.701 118.057 156.723 119.648H156.708C155.423 117.748 153.624 116.15 151.515 115.063C151.858 116.217 152.66 117.217 153.611 118.023C154.187 118.511 155.321 119.188 156.128 119.648H153.161V120.992H153.628L154.345 125.822H139.5C139.824 125.822 139.903 125.816 139.903 125.682C139.903 125.547 139.849 125.452 139.849 125.452C139.849 125.452 139.476 125.059 139.007 124.634C138.538 124.208 138.604 123.895 138.604 123.895L138.498 122.471H146.825C147.415 122.471 147.893 122.082 147.893 121.603V106.844C147.893 106.364 147.415 105.976 146.825 105.976H124.216C123.625 105.976 123.147 106.364 123.147 106.844V121.603C123.147 122.082 123.626 122.471 124.216 122.471H132.542L132.436 123.895C132.436 123.895 132.502 124.208 132.033 124.634C131.564 125.06 131.192 125.452 131.192 125.452C131.192 125.452 131.138 125.547 131.138 125.682C131.138 125.816 131.216 125.822 131.54 125.822H120.657V107.624H115.032V106.545H109.407V107.624H103.782V105.976H98.1567V125.823H93.6461C92.8159 125.823 92.137 126.456 92.137 127.229C92.137 128.003 92.8163 128.636 93.6461 128.636H96.3419V154.502H99.9708V128.636H159.654V154.502H163.283V128.636H166.218C167.048 128.636 167.727 128.003 167.727 127.229C167.728 126.456 167.049 125.823 166.219 125.823Z" fill="#EDEDED"/>
<path d="M126.844 96.3256H32.8026C30.2771 96.3256 28.2109 94.2602 28.2109 91.7356V53.8713C28.2109 51.3467 30.2771 49.2812 32.8026 49.2812H126.844C129.369 49.2812 131.436 51.3467 131.436 53.8713V91.7356C131.436 94.2602 129.369 96.3256 126.844 96.3256Z" fill="#F0F0F0"/>
<path d="M124.956 72.3386H66.2708V74.0786H124.956V72.3386Z" fill="white"/>
<path d="M124.956 75.8799H66.2708V77.6199H124.956V75.8799Z" fill="white"/>
<path d="M124.956 79.4211H66.2708V81.1611H124.956V79.4211Z" fill="white"/>
<path d="M124.956 82.9631H66.2708V84.7031H124.956V82.9631Z" fill="white"/>
<path d="M124.956 86.5051H66.2708V88.2451H124.956V86.5051Z" fill="white"/>
<path d="M124.956 90.0466H66.2708V91.7866H124.956V90.0466Z" fill="white"/>
<path d="M61.5464 82.9058H34.6904V91.7858H61.5464V82.9058Z" fill="white"/>
<path d="M108.357 53.822H66.2708V59.9742H108.357V53.822Z" fill="white"/>
<path d="M99.7782 61.8389H66.2708V64.8219H99.7782V61.8389Z" fill="white"/>
<path d="M99.7782 66.6855H66.2708V69.6686H99.7782V66.6855Z" fill="white"/>
<path d="M48.1184 80.6686C55.5345 80.6686 61.5464 74.6588 61.5464 67.2453C61.5464 59.8318 55.5345 53.822 48.1184 53.822C40.7024 53.822 34.6904 59.8318 34.6904 67.2453C34.6904 74.6588 40.7024 80.6686 48.1184 80.6686Z" fill="white"/>
<mask id="mask0_5248_2508" style="mask-type:luminance" maskUnits="userSpaceOnUse" x="34" y="53" width="28" height="28">
<path d="M48.1184 80.5595C55.5345 80.5595 61.5464 74.5496 61.5464 67.1362C61.5464 59.7227 55.5345 53.7129 48.1184 53.7129C40.7024 53.7129 34.6904 59.7227 34.6904 67.1362C34.6904 74.5496 40.7024 80.5595 48.1184 80.5595Z" fill="white"/>
</mask>
<g mask="url(#mask0_5248_2508)">
<path d="M52.7657 60.2109C54.1648 62.5216 52.9578 65.0494 54.2426 66.4398C54.6027 66.8295 54.0378 67.6995 54.2391 68.1964C54.3768 68.5361 54.6107 68.8338 54.7874 69.1577C54.964 69.4815 55.0831 69.859 54.9692 70.2063C54.1839 70.2428 53.4065 70.415 52.6883 70.7115C52.0224 70.9866 51.3777 71.3743 50.6495 71.3997C49.7649 71.4307 48.9256 70.9143 48.0446 70.9953C47.2811 71.0655 46.5422 71.5783 45.8113 71.362C45.4031 71.241 45.1113 70.9179 44.8052 70.6397C44.4991 70.3615 44.1024 70.1011 43.6792 70.1618C43.3056 70.2154 43.0201 70.5051 42.6588 70.6079C42.2285 70.7302 41.7195 70.5385 41.5027 70.1725C42.0323 70.0852 42.2428 69.4831 42.2586 68.9846C42.2856 68.1408 42.1673 67.5272 42.4421 66.7227C42.5778 66.3255 43.0892 65.8091 43.248 65.419C43.5653 64.6402 43.1396 63.6849 43.2286 62.8566C43.3171 62.0283 43.6296 61.1309 44.4109 60.7217" fill="#3C3C48"/>
<path d="M50.7117 68.0745C50.7117 68.0745 49.5107 71.5123 50.385 71.9104C51.2592 72.3085 55.7393 71.2139 56.5858 75.1451C57.4323 79.0763 56.5858 80.7183 56.5858 80.7183C56.5858 80.7183 40.99 81.6652 38.858 79.1704C38.1373 78.327 40.6382 74.8006 41.5185 74.1838C43.1419 73.0463 45.9553 73.0055 46.3674 71.5624C46.7795 70.1193 46.7394 68.9873 46.7394 68.9873L50.7117 68.0745Z" fill="#FDE2D0"/>
<path d="M50.7123 68.0745L46.7396 68.9873C46.7396 68.9873 46.7674 69.8061 46.5232 70.9376C47.1279 71.0134 47.7528 70.9742 48.3479 70.838C48.98 70.6936 49.5819 70.4511 50.1608 70.1578C50.3395 69.1429 50.7123 68.0745 50.7123 68.0745Z" fill="#FDE2D0"/>
<path d="M52.386 72.0635C52.0211 72.2318 51.6702 72.4334 51.3382 72.6564C50.4155 73.2764 49.6104 74.0515 48.7623 74.7695C48.1517 75.2866 47.4557 75.7986 46.6556 75.8137C45.5193 75.8355 44.599 74.8258 44.223 73.7538C44.1496 73.5443 44.0944 73.324 44.0591 73.101C43.1864 73.3911 42.2363 73.68 41.5185 74.1829C40.6382 74.7996 38.1373 78.326 38.858 79.1694C40.99 81.6647 56.5858 80.7173 56.5858 80.7173C56.5858 80.7173 57.4323 79.0754 56.5858 75.1442C56.0435 72.6243 54.0079 72.1702 52.386 72.0635Z" fill="#F5F5F5"/>
<path d="M53.4184 72.1893C53.0679 72.1234 52.7181 72.0853 52.3862 72.0635C52.0213 72.2318 51.6703 72.4334 51.3384 72.6564C50.4157 73.2764 49.6105 74.0515 48.7625 74.7695C48.1518 75.2866 47.4558 75.7986 46.6558 75.8137C45.5195 75.8355 44.5992 74.8258 44.2232 73.7538C44.1497 73.5443 44.0945 73.324 44.0592 73.101C43.8317 73.1768 43.5995 73.2526 43.3672 73.3319C43.8043 74.4809 44.7187 76.3249 46.088 76.3281C48.5381 76.3336 49.0948 75.391 51.5556 73.3704C52.2536 72.7973 52.8777 72.4294 53.4184 72.1893Z" fill="#F5F5F5"/>
<path d="M42.7921 65.5369C42.8172 65.0745 42.8525 64.2875 43.3877 64.1014C43.6946 63.9946 43.9944 64.1621 44.0217 64.4387C44.2254 64.6066 44.3632 64.8975 44.4172 65.1372C44.4827 65.4266 44.464 65.7302 44.4351 66.0223C44.3977 66.4009 44.3648 66.9554 44.2084 67.3102C44.0364 67.7004 43.6116 67.5631 43.3289 67.3452C42.7878 66.9276 42.758 66.1624 42.7921 65.5369Z" fill="#FDE2D0"/>
<path d="M52.5743 65.4428C52.0379 68.889 49.2321 70.5163 47.4415 70.5215C46.03 70.5254 43.8138 68.82 43.6764 66.826C43.6101 65.8608 43.5978 64.8693 43.6752 63.9041C43.7233 63.3083 43.7741 62.5376 44.0087 61.8926C44.0965 61.5664 44.2128 61.2469 44.3689 60.9405C44.8735 59.9494 45.8212 59.262 46.8948 58.8719C48.1002 58.4341 49.5561 58.5321 50.6336 59.1715C51.1966 59.5057 51.7691 60.0975 52.0347 60.7528C52.2384 61.1298 52.3627 61.5592 52.4353 62.0042C52.4735 62.1403 52.508 62.278 52.5374 62.4181C52.6982 63.1833 52.7061 63.9954 52.6176 64.8007C52.618 65.0174 52.6045 65.2329 52.5743 65.4428Z" fill="#FDE2D0"/>
<path d="M52.7031 62.4164C52.6733 62.2763 52.638 62.1385 52.5995 62.0024C52.5256 61.5575 52.399 61.1281 52.1913 60.751C51.9209 60.0957 51.3381 59.504 50.7644 59.1702C49.667 58.5312 48.1841 58.4332 46.9565 58.8709C45.8626 59.2611 44.8974 59.9485 44.3833 60.9399C44.2245 61.2467 44.1058 61.5658 44.0164 61.8921C43.7774 62.5366 43.7254 63.3078 43.6766 63.9035C43.6762 63.9071 43.6762 63.9107 43.6758 63.9142C43.7917 63.7829 43.9386 63.6793 44.1058 63.6269C44.2856 63.5701 44.4909 63.5618 44.6342 63.4392C44.7895 63.3066 44.8649 63.0502 45.0682 63.0323C45.1928 63.0212 45.3016 63.1125 45.4231 63.1415C45.5998 63.1832 45.7781 63.0895 45.9285 62.9879C46.5551 62.564 47.0406 61.9357 47.2927 61.2229C47.2534 61.7794 47.2356 62.3791 47.5385 62.8474C47.8601 63.3443 48.4707 63.5733 49.056 63.6626C49.2235 63.688 49.3954 63.7055 49.5491 63.7765C49.7277 63.8591 49.8671 64.0067 50.0334 64.1115C50.392 64.3373 50.8398 64.3469 51.2634 64.3679C51.3722 64.3734 51.4862 64.3814 51.5791 64.4381C51.643 64.4774 51.6922 64.5366 51.7371 64.5969C51.9035 64.8192 52.0345 65.0676 52.1234 65.3307L52.7916 64.7148C52.8714 63.9361 52.8607 63.1546 52.7031 62.4164Z" fill="#FDE2D0"/>
<path d="M48.1919 64.299C48.1566 64.3161 48.1824 64.3676 48.2173 64.3597C48.9181 64.2037 49.7265 64.0636 50.1215 64.8249C50.168 64.915 50.3288 64.8507 50.2883 64.7546C49.9361 63.9168 48.8899 63.964 48.1919 64.299Z" fill="#3C3C48"/>
<path d="M46.0294 64.2851C45.501 63.8156 44.8347 63.4679 44.1368 63.7862C44.0915 63.8069 44.1237 63.8851 44.1709 63.8672C44.8272 63.6199 45.4327 63.9676 45.9055 64.4086C45.9881 64.4859 46.1136 64.3597 46.0294 64.2851Z" fill="#3C3C48"/>
<path d="M49.5213 65.6057C49.1417 65.5258 48.7594 65.5596 48.3973 65.6943C48.3338 65.7177 48.358 65.8119 48.4255 65.7968C48.7777 65.7178 49.1151 65.7285 49.4649 65.8108C49.5979 65.8418 49.6543 65.6339 49.5213 65.6057Z" fill="#3C3C48"/>
<path d="M45.807 65.6931C45.5552 65.4331 45.0808 65.1839 44.7096 65.2483C44.6167 65.2646 44.6266 65.4041 44.7096 65.4268C44.8803 65.4733 45.0566 65.4657 45.2273 65.5245C45.4087 65.5873 45.5699 65.6883 45.7276 65.7956C45.7907 65.8385 45.8574 65.7451 45.807 65.6931Z" fill="#3C3C48"/>
<path d="M48.2369 62.6744C48.4215 62.9387 48.6954 63.2078 49.0329 63.1836C49.2247 63.1697 49.4216 63.061 49.5975 63.1328C49.6789 63.1662 49.7388 63.2332 49.7873 63.3027C49.9544 63.5408 50.0529 63.8524 50.33 63.9726C50.6278 64.1016 51.0463 63.9607 51.2654 64.1889C51.3818 64.31 51.3873 64.4882 51.4397 64.6434C51.5307 64.9133 51.7653 65.1161 51.9364 65.3499C52.1687 65.6674 52.2862 66.0567 52.2652 66.4409C52.5212 65.8682 52.9711 65.3761 53.1636 64.7819C53.2724 64.4457 53.2939 64.0913 53.3145 63.7409C53.3721 62.7649 53.4257 61.7588 53.0763 60.8368C52.6205 59.6342 51.4985 58.7087 50.2161 58.2665C49.825 58.1316 49.3911 58.0379 48.9956 58.1606C48.2409 58.3943 47.365 59.1341 47.417 59.9224C47.4789 60.8674 47.6767 61.8719 48.2369 62.6744Z" fill="#3C3C48"/>
<path d="M52.1231 65.8092C52.2315 65.631 52.3673 65.4738 52.5285 65.3404C52.8163 64.9955 53.2888 64.9578 53.635 65.273C54.0646 65.6643 54.0221 66.3132 53.8776 66.8244C53.7279 67.3531 53.4277 68.0528 52.8763 68.2691C52.4411 68.4398 52.0242 68.2465 51.8472 67.8349C51.5061 67.2523 51.7034 66.4005 52.1231 65.8092Z" fill="#FDE2D0"/>
<path d="M52.7834 66.1331C52.9736 65.9609 53.3409 65.797 53.4493 66.1343C53.4588 66.1633 53.4127 66.1804 53.3992 66.1534C53.1801 65.7152 52.6496 66.4832 52.5758 66.6316C52.5532 66.6769 52.5337 66.7233 52.515 66.7698C52.6421 66.7571 52.7664 66.7836 52.8799 66.8515C52.9955 66.921 53.1503 67.0643 53.1412 67.2095C53.1384 67.256 53.0808 67.2782 53.0479 67.2444C53.0097 67.2051 52.9951 67.1567 52.9645 67.1119C52.924 67.0531 52.8688 67.0019 52.8088 66.9638C52.71 66.9003 52.5937 66.871 52.4769 66.8722C52.413 67.0575 52.3693 67.2492 52.3141 67.4381C52.2927 67.5108 52.1923 67.4742 52.205 67.4036C52.2852 66.9515 52.4313 66.4526 52.7834 66.1331Z" fill="#FDE2D0"/>
<path d="M47.7148 60.1113C47.1852 60.9674 46.5372 61.7497 45.7944 62.4292C45.657 62.5546 45.4787 62.6855 45.302 62.6276C45.2238 62.6022 45.1595 62.5419 45.0789 62.5236C44.9118 62.4863 44.7656 62.6443 44.6918 62.7987C44.6179 62.9531 44.5636 63.134 44.4174 63.2229C44.3249 63.2797 44.211 63.288 44.1109 63.3297C43.868 63.4317 43.7342 63.7028 43.6841 63.9616C43.6015 64.3906 43.6401 64.8442 43.6214 65.3356C43.2518 64.2624 42.9782 63.1201 43.0969 61.9914C43.2156 60.8626 43.704 59.7458 44.5723 59.0143C45.2008 58.4852 46.0401 57.9812 46.8612 57.9594C47.6822 57.9375 48.3592 58.1078 49.0147 58.6027L47.7148 60.1113Z" fill="#3C3C48"/>
<path d="M45.7474 58.6463C46.3887 58.2807 47.1204 58.0795 47.8581 58.0529C47.546 57.9791 47.2181 57.9497 46.8615 57.9593C46.0405 57.9811 45.2011 58.4851 44.5726 59.0142C43.7043 59.7453 43.216 60.8621 43.0973 61.9913C43.0437 62.5021 43.073 63.0157 43.1525 63.5245C43.235 63.0173 43.3283 62.512 43.4455 62.0115C43.5316 61.6428 43.6273 61.2749 43.7679 60.9228C44.147 59.9707 44.8573 59.1539 45.7474 58.6463Z" fill="#3C3C48"/>
</g>
<path d="M126.686 53.892C124.701 52.3476 122.068 53.961 120.504 55.3946C119.15 56.6361 118.253 58.2601 117.996 60.0196C117.149 59.2349 116.11 58.6705 114.961 58.3927C114.389 58.2546 114.032 58.7829 114.098 59.2246C114.03 59.4314 114.076 59.6628 114.313 59.8465C115.946 61.1134 117.202 62.7157 118.04 64.6053C118.289 65.168 119.18 64.9831 119.318 64.4382C120.319 60.4772 122.935 57.0853 126.511 55.1084C126.739 54.9826 126.842 54.7917 126.854 54.5952C126.955 54.3571 126.93 54.0821 126.686 53.892Z" fill="#FF7312"/>
<path d="M126.844 145.606H32.8026C30.2771 145.606 28.2109 143.541 28.2109 141.016V103.152C28.2109 100.627 30.2771 98.5618 32.8026 98.5618H126.844C129.369 98.5618 131.436 100.627 131.436 103.152V141.016C131.436 143.541 129.369 145.606 126.844 145.606Z" fill="#F0F0F0"/>
<path d="M124.956 121.619H66.2708V123.359H124.956V121.619Z" fill="white"/>
<path d="M124.956 125.16H66.2708V126.9H124.956V125.16Z" fill="white"/>
<path d="M124.956 128.701H66.2708V130.441H124.956V128.701Z" fill="white"/>
<path d="M124.956 132.243H66.2708V133.983H124.956V132.243Z" fill="white"/>
<path d="M124.956 135.785H66.2708V137.525H124.956V135.785Z" fill="white"/>
<path d="M124.956 139.326H66.2708V141.066H124.956V139.326Z" fill="white"/>
<path d="M61.5464 132.186H34.6904V141.066H61.5464V132.186Z" fill="white"/>
<path d="M108.357 103.103H66.2708V109.255H108.357V103.103Z" fill="white"/>
<path d="M99.7782 111.119H66.2708V114.102H99.7782V111.119Z" fill="white"/>
<path d="M99.7782 115.967H66.2708V118.95H99.7782V115.967Z" fill="white"/>
<path d="M53.3636 128.879C60.1901 125.983 63.3752 118.103 60.4778 111.279C57.5803 104.455 49.6975 101.271 42.871 104.167C36.0445 107.064 32.8594 114.944 35.7568 121.768C38.6543 128.592 46.5371 131.776 53.3636 128.879Z" fill="white"/>
<mask id="mask1_5248_2508" style="mask-type:luminance" maskUnits="userSpaceOnUse" x="34" y="102" width="28" height="28">
<path d="M48.1187 129.795C55.5348 129.795 61.5467 123.785 61.5467 116.372C61.5467 108.958 55.5348 102.948 48.1187 102.948C40.7026 102.948 34.6907 108.958 34.6907 116.372C34.6907 123.785 40.7026 129.795 48.1187 129.795Z" fill="white"/>
</mask>
<g mask="url(#mask1_5248_2508)">
<path d="M45.6487 117.991C45.7876 118.088 46.2954 120.595 45.9711 121.336C45.6467 122.078 40.627 122.306 39.9001 124.345C39.1731 126.384 39.3899 127.867 39.3899 127.867C39.3899 127.867 50.4238 134.819 58.3978 126.569C58.3978 126.569 58.954 120.266 55.3378 120.405C51.7217 120.544 50.8859 120.727 50.6398 120.356C50.3936 119.985 49.9509 118.479 49.9509 118.479L45.6487 117.991Z" fill="#FDE2D0"/>
<path d="M49.9511 118.48L45.6484 117.991C45.7417 118.056 46.0002 119.206 46.0625 120.18C46.7089 120.424 47.4049 120.546 48.0961 120.542C48.9176 120.538 49.7291 120.367 50.5025 120.086C50.2576 119.522 49.9511 118.48 49.9511 118.48Z" fill="#FDE2D0"/>
<path d="M58.3978 126.57C58.3978 126.57 58.954 120.267 55.3378 120.406C52.5479 120.513 51.416 120.645 50.93 120.53C50.7708 121.949 49.752 124.298 49.752 124.298C49.1533 124.298 47.0609 122.194 45.9115 121.419C45.2667 122.098 40.5992 122.384 39.9001 124.345C39.1731 126.384 39.3899 127.867 39.3899 127.867C39.3899 127.867 50.4238 134.819 58.3978 126.57Z" fill="#F5F5F5"/>
<path d="M49.752 124.298C49.752 124.298 50.1518 124.973 50.3225 125.585C50.7052 126.957 51.1559 129.561 51.1447 130.28" stroke="#F5F5F5" stroke-width="0.4819" stroke-miterlimit="10" stroke-linecap="round" stroke-linejoin="round"/>
<path d="M49.7518 124.299C49.7518 124.299 46.3933 124.065 45.9308 125.062C45.9308 125.062 43.9345 121.685 45.8006 121.117C45.8006 121.117 48.8764 122.854 49.7518 124.299Z" fill="#F5F5F5"/>
<path d="M49.7521 124.298C49.4229 124.092 50.9626 121.5 50.5767 120.245C50.4508 119.835 52.2911 119.568 53.4175 123.164C53.4175 123.164 51.6403 122.294 49.7521 124.298Z" fill="#F5F5F5"/>
<path d="M49.442 125.964C49.6082 125.964 49.7429 125.83 49.7429 125.663C49.7429 125.497 49.6082 125.363 49.442 125.363C49.2758 125.363 49.1411 125.497 49.1411 125.663C49.1411 125.83 49.2758 125.964 49.442 125.964Z" fill="#F5F5F5"/>
<path d="M50.0528 128.96C50.219 128.96 50.3537 128.825 50.3537 128.659C50.3537 128.493 50.219 128.358 50.0528 128.358C49.8867 128.358 49.752 128.493 49.752 128.659C49.752 128.825 49.8867 128.96 50.0528 128.96Z" fill="#F5F5F5"/>
<path d="M52.8516 114.819C52.775 114.405 52.6519 113.7 52.1477 113.594C51.8582 113.533 51.6077 113.719 51.6152 113.971C51.4513 114.146 51.3607 114.425 51.3401 114.647C51.3147 114.915 51.3667 115.187 51.4266 115.447C51.5045 115.784 51.5986 116.28 51.7812 116.582C51.9817 116.914 52.3486 116.74 52.578 116.511C53.0176 116.072 52.9552 115.378 52.8516 114.819Z" fill="#FDE2D0"/>
<path d="M51.3335 110.138C51.409 110.163 52.1566 113.419 52.0371 114.419L49.8093 110.601L51.3335 110.138Z" fill="#3C3C48"/>
<path d="M44.0207 115.871C44.9053 118.915 47.6095 119.946 49.6002 119.58C50.862 119.348 52.1964 117.901 52.2039 116.084C52.2095 114.687 51.3333 110.949 50.9295 110.607C50.1572 109.954 49.3902 109.513 48.3766 109.287C47.2391 109.032 45.9376 109.29 45.0407 109.992C44.5718 110.358 44.1247 110.959 43.9612 111.58C43.8214 111.944 43.7595 112.345 43.7456 112.755C43.7273 112.882 43.7118 113.01 43.7019 113.14C43.6459 113.849 43.7333 114.581 43.9068 115.297C43.9322 115.493 43.9691 115.685 44.0207 115.871Z" fill="#FDE2D0"/>
<path d="M44.4213 116.893L44.486 116.974C44.2911 116.264 44.3594 115.485 44.6754 114.819C44.899 114.348 45.2499 113.901 45.2428 113.38C45.2412 113.265 45.2253 113.14 45.2924 113.048C45.3289 112.998 45.3845 112.966 45.4393 112.936C47.0425 112.061 48.8681 111.676 50.6829 111.473C50.7996 111.46 51.0716 111.445 51.3078 111.435C51.1661 111.002 51.0323 110.693 50.9295 110.606C50.1572 109.953 49.3902 109.512 48.3766 109.286C47.2391 109.031 45.9376 109.289 45.0407 109.991C44.5718 110.357 44.1247 110.958 43.9612 111.579C43.8214 111.943 43.7595 112.344 43.7456 112.754C43.7273 112.881 43.7118 113.009 43.7019 113.139C43.6459 113.847 43.7333 114.58 43.9068 115.296C43.9322 115.492 43.9691 115.685 44.0207 115.87C44.0747 116.056 44.1359 116.233 44.2026 116.404C44.2697 116.575 44.3431 116.737 44.4213 116.893Z" fill="#FDE2D0"/>
<path d="M42.7096 113.79C42.3951 113.264 41.6209 111.677 41.7571 111.289C41.8746 110.955 44.9941 107.476 46.8205 107.038C46.8808 107.023 46.9475 107.01 47.0035 107.037C47.1246 107.094 47.094 107.274 47.0106 107.376C46.9273 107.478 46.8058 107.565 46.7887 107.694C47.1194 107.834 47.4994 107.718 47.8472 107.622C48.7496 107.374 49.6966 107.277 50.6332 107.336C50.9083 107.353 51.2335 107.418 51.3383 107.664C51.3633 107.722 51.3716 107.791 51.3427 107.847C51.3053 107.921 51.218 107.953 51.1382 107.98C50.9059 108.059 50.6737 108.137 50.4418 108.215C50.9893 108.304 51.5225 108.477 52.0152 108.723C52.1852 108.809 52.3698 108.93 52.3884 109.114C52.4083 109.31 52.2241 109.472 52.0351 109.547C51.8457 109.622 51.6345 109.646 51.461 109.751C51.8806 109.891 52.3841 110.147 52.3519 110.575C49.7819 111.15 47.2397 111.84 44.736 112.644C44.6662 113.047 44.8131 113.46 44.7738 113.868C44.7476 114.139 44.6606 114.692 44.5852 114.955C44.3513 115.768 44.6932 116.797 44.5824 117.596C44.2771 117.284 43.9444 116.17 43.7185 115.793C43.3099 115.11 43.1181 114.472 42.7096 113.79Z" fill="#3C3C48"/>
<path d="M52.0153 108.724C51.5226 108.477 50.9894 108.305 50.4419 108.216C50.6742 108.138 50.906 108.059 51.1383 107.981C51.2181 107.954 51.305 107.921 51.3428 107.848C51.3717 107.792 51.3634 107.723 51.3384 107.665C51.2336 107.418 50.9088 107.353 50.6333 107.336C49.6967 107.277 48.7498 107.374 47.8473 107.623C47.4995 107.719 47.1199 107.835 46.7888 107.694C46.8063 107.565 46.9278 107.478 47.0108 107.376C47.0941 107.274 47.1247 107.094 47.0036 107.037C46.9476 107.01 46.8809 107.024 46.8206 107.038C45.7557 107.294 44.2542 108.582 43.1611 109.679C43.9488 109.104 44.7588 108.559 45.5926 108.052C45.7196 107.975 45.9034 107.906 45.9987 108.02C46.0817 108.119 46.017 108.271 45.9312 108.367C45.8455 108.464 45.7343 108.556 45.722 108.684C46.6761 108.419 47.6301 108.154 48.5842 107.889C48.8955 107.802 49.2329 107.717 49.5347 107.833C49.2635 108.294 48.6227 108.436 48.3567 108.901C48.7581 108.94 49.1615 108.867 49.5645 108.85C50.4447 108.813 51.3309 109.058 52.0773 109.526C52.2504 109.445 52.4072 109.296 52.3889 109.114C52.3699 108.93 52.1853 108.809 52.0153 108.724Z" fill="#3C3C48"/>
<path d="M44.4708 116.15C44.3525 116.002 44.2115 115.876 44.0511 115.775C43.7514 115.497 43.321 115.518 43.0458 115.842C42.704 116.245 42.8179 116.826 43.0077 117.269C43.2042 117.729 43.5564 118.325 44.0785 118.455C44.4906 118.558 44.844 118.336 44.9559 117.944C45.195 117.379 44.9182 116.634 44.4708 116.15Z" fill="#FDE2D0"/>
<path d="M43.9132 116.519C43.7219 116.385 43.3717 116.28 43.3129 116.597C43.3078 116.625 43.351 116.635 43.3602 116.609C43.5067 116.188 44.0744 116.819 44.1582 116.944C44.1836 116.982 44.207 117.022 44.2289 117.062C44.1129 117.065 44.0038 117.103 43.9093 117.178C43.8132 117.254 43.6901 117.401 43.7155 117.531C43.7235 117.573 43.7778 117.586 43.8037 117.552C43.8334 117.512 43.841 117.467 43.8636 117.423C43.893 117.365 43.9371 117.312 43.9867 117.271C44.0685 117.203 44.1701 117.162 44.2753 117.15C44.3543 117.309 44.4163 117.477 44.4881 117.641C44.5159 117.704 44.6021 117.659 44.5826 117.597C44.4572 117.199 44.2678 116.766 43.9132 116.519Z" fill="#FDE2D0"/>
<path d="M47.621 113.793C47.4265 113.698 45.4187 113.965 45.342 115.09C45.6021 114.762 47.1779 114.192 47.7774 114.374L47.621 113.793Z" fill="#3C3C48"/>
<path d="M49.6123 113.167C49.7302 113.005 51.4573 112.468 51.9766 113.464C51.6336 113.266 50.132 113.359 49.7227 113.757L49.6123 113.167Z" fill="#3C3C48"/>
<path d="M50.3693 114.288C50.1364 114.224 50.1027 114.519 50.1825 114.712C50.1921 114.761 50.2076 114.809 50.2378 114.851C50.297 114.936 50.4158 115.012 50.52 114.959C50.7692 114.831 50.5899 114.349 50.3693 114.288Z" fill="#3C3C48"/>
<path d="M46.7946 115.183C46.5617 115.12 46.5279 115.415 46.6078 115.607C46.6174 115.657 46.6329 115.704 46.6631 115.747C46.7223 115.831 46.8411 115.908 46.9453 115.855C47.1949 115.727 47.0152 115.244 46.7946 115.183Z" fill="#3C3C48"/>
</g>
<path d="M126.686 103.45C124.701 101.906 122.068 103.519 120.505 104.953C119.15 106.194 118.253 107.818 117.997 109.578C117.149 108.793 116.111 108.229 114.961 107.951C114.389 107.813 114.032 108.341 114.098 108.783C114.03 108.99 114.076 109.221 114.313 109.405C115.946 110.672 117.202 112.274 118.04 114.164C118.29 114.726 119.18 114.541 119.318 113.997C120.32 110.036 122.936 106.644 126.512 104.667C126.74 104.541 126.842 104.35 126.854 104.154C126.955 103.915 126.931 103.64 126.686 103.45Z" fill="#FF7312"/>
<path d="M126.844 47.044H32.8026C30.2771 47.044 28.2109 44.9786 28.2109 42.4539V4.59005C28.2109 2.06543 30.2771 0 32.8026 0H126.844C129.369 0 131.436 2.06543 131.436 4.59005V42.4543C131.436 44.9786 129.369 47.044 126.844 47.044Z" fill="#F0F0F0"/>
<path d="M124.956 23.0547H66.2708V24.7947H124.956V23.0547Z" fill="white"/>
<path d="M124.956 26.5969H66.2708V28.3369H124.956V26.5969Z" fill="white"/>
<path d="M124.956 30.1382H66.2708V31.8782H124.956V30.1382Z" fill="white"/>
<path d="M124.956 33.6792H66.2708V35.4192H124.956V33.6792Z" fill="white"/>
<path d="M124.956 37.2212H66.2708V38.9612H124.956V37.2212Z" fill="white"/>
<path d="M124.956 40.7634H66.2708V42.5034H124.956V40.7634Z" fill="white"/>
<path d="M61.5464 33.6228H34.6904V42.5029H61.5464V33.6228Z" fill="white"/>
<path d="M108.357 4.53906H66.2708V10.6913H108.357V4.53906Z" fill="white"/>
<path d="M99.7782 12.5557H66.2708V15.5387H99.7782V12.5557Z" fill="white"/>
<path d="M99.7782 17.4033H66.2708V20.3864H99.7782V17.4033Z" fill="white"/>
<path d="M48.1184 31.3856C55.5345 31.3856 61.5464 25.3758 61.5464 17.9623C61.5464 10.5489 55.5345 4.53906 48.1184 4.53906C40.7024 4.53906 34.6904 10.5489 34.6904 17.9623C34.6904 25.3758 40.7024 31.3856 48.1184 31.3856Z" fill="white"/>
<path d="M126.686 4.48253C124.701 2.93822 122.068 4.55158 120.504 5.98516C119.15 7.22664 118.253 8.85072 117.996 10.6101C117.149 9.82549 116.11 9.26111 114.961 8.98328C114.389 8.84516 114.032 9.37343 114.098 9.81517C114.03 10.0219 114.076 10.2533 114.313 10.4371C115.946 11.704 117.202 13.3062 118.04 15.1958C118.289 15.7586 119.18 15.5737 119.318 15.0287C120.319 11.0678 122.935 7.67592 126.511 5.6986C126.739 5.57279 126.842 5.38228 126.854 5.18542C126.955 4.94768 126.93 4.67264 126.686 4.48253Z" fill="#FF7312"/>
<mask id="mask2_5248_2508" style="mask-type:luminance" maskUnits="userSpaceOnUse" x="34" y="4" width="28" height="28">
<path d="M48.1184 31.3873C55.5345 31.3873 61.5464 25.3775 61.5464 17.9641C61.5464 10.5506 55.5345 4.54077 48.1184 4.54077C40.7024 4.54077 34.6904 10.5506 34.6904 17.9641C34.6904 25.3775 40.7024 31.3873 48.1184 31.3873Z" fill="white"/>
</mask>
<g mask="url(#mask2_5248_2508)">
<path d="M47.2694 24.5931C47.2793 24.5919 47.2813 24.6074 47.271 24.6086C47.2611 24.6098 47.2595 24.5943 47.2694 24.5931Z" fill="#ABAE8D"/>
<path d="M44.7756 17.6489C44.7756 17.6489 45.1711 21.0876 44.7756 22.2422C44.3802 23.3967 38.79 24.5513 38.5589 27.2299C38.3278 29.9085 49.6313 32.7717 49.6313 32.7717L56.207 28.9846C56.207 28.9846 56.3233 23.7912 54.2794 23.3697C52.2355 22.9482 49.7969 22.7295 49.4439 21.987C49.1211 21.3079 49.2168 19.7378 49.2168 19.7378L44.7756 17.6489Z" fill="#FDE2D0"/>
<path d="M49.4443 21.987C49.1215 21.3079 49.2172 19.7378 49.2172 19.7378L44.7756 17.6489C44.7756 17.6489 44.9495 19.1694 44.9503 20.528C45.1874 20.8042 45.4339 21.0713 45.7079 21.3118C46.4777 21.9874 47.4536 22.4831 48.478 22.4787C48.8988 22.4771 49.3097 22.3914 49.7135 22.2703C49.5881 22.1842 49.494 22.0913 49.4443 21.987Z" fill="#FDE2D0"/>
<path d="M53.179 16.0946C53.1651 15.6739 53.1484 14.9579 52.6656 14.7785C52.3885 14.6753 52.1133 14.8218 52.0828 15.0726C51.8946 15.2215 51.7635 15.483 51.7095 15.6997C51.6444 15.9613 51.6552 16.2375 51.6758 16.5038C51.7024 16.8487 51.7215 17.3532 51.8568 17.6786C52.0057 18.0366 52.394 17.9199 52.6553 17.7274C53.1559 17.3587 53.198 16.6638 53.179 16.0946Z" fill="#FDE2D0"/>
<path d="M44.8616 11.1287C45.0458 10.3294 45.2908 9.44353 45.9975 9.02679C46.2635 8.87002 46.5704 8.79818 46.8749 8.74619C47.9707 8.56005 49.1154 8.61125 50.1671 8.97043C51.2188 9.32962 52.1721 10.0055 52.7962 10.9251C53.0722 11.3315 53.287 11.8011 53.2794 12.2924C53.2699 12.883 53.0091 13.7911 52.749 14.3213C52.3619 15.1111 51.8704 16.378 51.7473 17.2488C51.3141 17.0579 51.0477 16.0744 50.615 15.8835C50.0944 15.6541 49.5727 15.4239 49.0737 15.1504C47.7262 14.4122 46.5541 13.3557 45.6802 12.092" fill="#3C3C48"/>
<path d="M43.864 15.846C44.294 18.9886 46.5019 21.3601 48.5109 21.1969C50.3555 21.0473 51.9079 19.0898 52.0739 17.2804C52.1541 16.4045 52.1842 15.5039 52.1314 14.6248C52.0989 14.0827 52.0667 13.3809 51.8618 12.7904C51.7868 12.4919 51.6856 12.1994 51.547 11.9176C51.0991 11.0067 50.2352 10.363 49.2486 9.98713C48.1413 9.56523 46.7917 9.62556 45.7821 10.1848C45.2544 10.4773 44.7129 11.0036 44.4544 11.5937C44.2587 11.9323 44.1352 12.3201 44.0594 12.7233C44.0217 12.8463 43.9867 12.971 43.9569 13.0976C43.7934 13.7897 43.7703 14.5276 43.8366 15.2614C43.8315 15.4587 43.8398 15.6547 43.864 15.846Z" fill="#FDE2D0"/>
<path d="M51.8613 12.7896C51.7863 12.4912 51.685 12.1987 51.5465 11.9169C51.0986 11.006 50.2347 10.3623 49.2481 9.98639C48.1407 9.5645 46.7912 9.62483 45.7816 10.184C45.2539 10.4766 44.7124 11.0028 44.4539 11.593C44.2582 11.9316 44.1347 12.3193 44.0589 12.7226C44.0211 12.8456 43.9862 12.9702 43.9564 13.0968C43.802 13.7497 43.7758 14.4431 43.8286 15.1357L44.2117 15.86C44.5663 15.3849 45.0788 15.0583 45.5541 14.7039C46.0293 14.3494 46.4966 13.9311 46.69 13.3711C47.091 13.5699 47.569 13.4322 47.9986 13.3056C49.0071 13.0079 50.0608 12.7865 51.1062 12.9C51.3936 12.9309 51.695 13.002 51.9538 13.1314C51.926 13.0159 51.8994 12.8996 51.8613 12.7896Z" fill="#FDE2D0"/>
<path d="M47.1129 16.476C47.0859 16.2914 47.035 16.0267 46.8125 15.9858C46.5712 15.9414 46.5541 16.1962 46.5422 16.37C46.5402 16.3998 46.5386 16.4407 46.5374 16.4851C46.5319 16.5669 46.5338 16.649 46.545 16.7304C46.5593 16.8959 46.5978 17.0594 46.6849 17.1332C46.756 17.2376 46.857 17.3039 46.9806 17.1868C47.1642 17.013 47.1455 16.6994 47.1129 16.476Z" fill="#3C3C48"/>
<path d="M50.6927 16.3361C50.6804 16.1499 50.6498 15.882 50.4312 15.8241C50.1939 15.761 50.1574 16.0138 50.1319 16.1865C50.1275 16.2158 50.1228 16.2567 50.1184 16.3008C50.1065 16.3817 50.1021 16.4639 50.1069 16.546C50.1081 16.7119 50.1339 16.8782 50.215 16.9584C50.2778 17.068 50.3732 17.1418 50.5059 17.0346C50.7027 16.8755 50.7078 16.5615 50.6927 16.3361Z" fill="#3C3C48"/>
<path d="M51.4582 14.526C51.0802 14.1731 50.4199 14.3205 50.0761 14.6428C50.0436 14.6734 50.0872 14.7327 50.1246 14.706C50.3155 14.5701 50.5359 14.493 50.7721 14.4982C50.996 14.5029 51.168 14.5995 51.3696 14.6778C51.4558 14.7108 51.5213 14.5848 51.4582 14.526Z" fill="#3C3C48"/>
<path d="M47.4729 14.6767C47.077 14.3739 46.4537 14.482 46.1007 14.8103C46.0483 14.8592 46.1027 14.9577 46.1726 14.9335C46.6078 14.7828 46.9603 14.4931 47.434 14.7435C47.4792 14.7681 47.5118 14.7065 47.4729 14.6767Z" fill="#3C3C48"/>
<path d="M46.8703 11.3954C47.0248 12.369 46.6674 13.4092 45.9472 14.0823C45.6169 14.3911 45.2175 14.6261 44.9249 14.971C44.3178 15.6866 44.2892 16.7118 44.2904 17.65C42.9655 15.9751 42.5343 13.6327 43.1763 11.5958C43.2613 11.3263 43.3677 11.0552 43.5583 10.8461C43.8894 10.4825 44.4131 10.3686 44.9042 10.342C45.4513 10.3127 46.0679 10.4012 46.4066 10.8322L46.8703 11.3954Z" fill="#3C3C48"/>
<path d="M44.4172 16.1941C44.3223 16.0298 44.202 15.8845 44.0583 15.7603C43.8034 15.4412 43.3746 15.3975 43.0542 15.6773C42.6564 16.0246 42.6822 16.6156 42.8037 17.0827C42.9295 17.5661 43.1888 18.2079 43.6855 18.4151C44.0777 18.5786 44.4601 18.4111 44.6292 18.0404C44.95 17.5173 44.7872 16.7394 44.4172 16.1941Z" fill="#FDE2D0"/>
<path d="M50.1671 8.97092C49.1154 8.61173 47.9707 8.56054 46.8749 8.74668C46.5704 8.79828 46.2635 8.87011 45.9975 9.02689C45.2908 9.44362 45.0458 10.3295 44.8616 11.1288L45.6798 12.0925C45.7708 12.2239 45.8665 12.3513 45.9637 12.4783C46.1031 12.5942 46.25 12.7001 46.4112 12.7827C47.2315 13.2034 48.23 13.022 49.0959 12.7065C49.9618 12.3909 50.8008 11.948 51.7183 11.8595C52.1999 11.8131 52.7299 11.8861 53.0738 12.2266C53.1528 12.3052 53.2143 12.3945 53.2671 12.4886C53.2735 12.4211 53.2786 12.3544 53.2794 12.2929C53.2874 11.802 53.0722 11.332 52.7962 10.9256C52.1721 10.0064 51.2188 9.33011 50.1671 8.97092Z" fill="#3C3C48"/>
<path d="M50.167 8.97092C49.1153 8.61173 47.9706 8.56054 46.8748 8.74668C46.5703 8.79828 46.2634 8.87011 45.9974 9.02689C45.7639 9.16461 45.5841 9.3567 45.4368 9.57698C45.6138 9.49244 45.8001 9.42338 45.9886 9.37615C47.7126 8.94473 49.5858 9.53253 50.9777 10.6367C51.3303 10.9165 51.6618 11.2332 51.8917 11.6202C51.9358 11.694 51.9699 11.7714 52.0057 11.8484C52.4007 11.8535 52.7973 11.9528 53.0733 12.2258C53.1523 12.3044 53.2138 12.3937 53.2666 12.4878C53.273 12.4203 53.2781 12.3536 53.2789 12.2921C53.2869 11.8012 53.0717 11.3312 52.7957 10.9248C52.172 10.0064 51.2187 9.33011 50.167 8.97092Z" fill="#3C3C48"/>
<path d="M51.9809 24.1699C51.8999 25.0105 51.9241 25.8615 51.7847 26.6946C51.645 27.5272 51.3154 28.3682 50.6651 28.9072C50.2061 29.2878 49.6265 29.4875 49.052 29.6462C47.9931 29.9387 46.8183 30.1066 45.8293 29.628C45.1646 29.3061 44.6644 28.7294 44.1975 28.1575C43.808 27.6804 42.7102 26.7184 43.1187 25.9996C43.4776 25.3685 45.1067 25.6134 45.7455 25.5499C46.825 25.4424 47.8982 25.2697 48.9571 25.0332C49.2703 24.9637 51.9547 24.4386 51.9809 24.1699Z" fill="#E6E7E8"/>
<path d="M54.2799 23.3703C52.9982 23.1059 51.5618 22.921 50.5811 22.6372C50.1734 24.2375 49.6405 25.8131 48.5789 27.0566C46.953 25.7901 45.3137 24.5101 43.9372 22.9829C42.2697 23.9485 38.742 25.113 38.5594 27.23C38.3283 29.9087 49.6318 32.7718 49.6318 32.7718L56.2075 28.9847C56.2071 28.9855 56.3234 23.7922 54.2799 23.3703Z" fill="#F5F5F5"/>
<path d="M48.5784 27.0568C48.4823 26.9822 44.6684 23.2395 44.6799 22.4104C44.6898 21.7162 42.6817 21.521 42.3827 23.0411C42.3827 23.0411 40.9867 23.5892 41.4104 24.2873C41.8344 24.985 44.8518 26.6615 48.5784 27.0568Z" fill="#F5F5F5"/>
<path d="M48.5784 27.0572C48.6844 27.1239 50.0148 22.9962 49.7131 22.2711C49.4753 21.7004 50.926 21.4932 51.4116 22.6378C51.4116 22.6378 53.0974 22.6847 52.6888 23.3487C52.2799 24.0127 50.4452 26.323 48.5784 27.0572Z" fill="#F5F5F5"/>
<path d="M48.2562 27.3452C48.4383 28.416 48.391 29.5249 48.1179 30.5763" stroke="#E6E7E8" stroke-width="0.9637" stroke-miterlimit="10" stroke-linecap="round" stroke-linejoin="round"/>
<path d="M49.1353 27.2092C49.2104 28.4543 49.2565 29.7013 49.2724 30.9487" stroke="#E6E7E8" stroke-width="0.9637" stroke-miterlimit="10" stroke-linecap="round" stroke-linejoin="round"/>
</g>
<path d="M28.968 160.513C29.0204 160.813 28.2271 161.695 24.9738 161.938C21.7205 162.182 19.7251 161.313 19.7251 161.313C19.7251 161.313 19.4436 160.679 18.798 160.569C18.8135 160.97 18.8254 161.277 18.8254 161.277L16.8906 161.091L16.8589 160.265C16.8589 160.265 18.8317 160.214 18.9477 160.162C19.064 160.11 21.1953 160.983 22.9494 161.017C24.7034 161.051 28.968 160.513 28.968 160.513Z" fill="#3C3C48"/>
<path d="M22.1617 156.782C24.2549 158.181 24.5808 158.958 26.7518 158.973C28.9228 158.988 28.646 159.492 28.9644 160.071C29.2829 160.65 28.5098 161.075 26.157 161.461C23.8042 161.848 21.2565 161.453 19.9407 161.01C18.8199 160.19 18.5531 160.477 18.5531 160.477C18.5531 160.477 17.3235 160.445 16.859 160.265C16.8177 159.195 16.512 158.242 17.1778 156.853C18.3327 156.809 22.1617 156.782 22.1617 156.782Z" fill="#ADADAD"/>
<path d="M25.1612 117.209C25.1612 117.209 23.8824 139.122 23.4699 143.578C23.0574 148.034 23.1288 157.305 23.1288 157.305C23.1288 157.305 18.9779 158.291 16.5032 157.215C16.5032 152.299 17.8416 114.404 17.8416 114.404L25.3903 114.409L25.1612 117.209Z" fill="#3C3C48"/>
<path d="M16.6323 156.123C16.6323 156.123 19.1035 157.038 23.0464 156" stroke="#3C3C48" stroke-width="0.4819" stroke-miterlimit="10" stroke-linecap="round" stroke-linejoin="round" stroke-dasharray="1.93 1.93"/>
<path d="M20.824 162.719C20.8649 163.022 20.0379 163.872 16.7779 163.99C13.5179 164.108 11.5573 163.164 11.5573 163.164C11.5573 163.164 11.3005 162.519 10.6596 162.384C10.6596 162.786 10.6596 163.093 10.6596 163.093L8.73364 162.832V162.005C8.73364 162.005 10.7069 162.03 10.8252 161.982C10.9431 161.935 13.0395 162.89 14.7908 162.991C16.5417 163.093 20.824 162.719 20.824 162.719Z" fill="#3C3C48"/>
<path d="M14.1665 158.729C16.2041 160.209 16.4999 160.997 18.6684 161.095C20.837 161.194 20.5412 161.687 20.837 162.278C21.1328 162.869 20.3443 163.263 17.9784 163.559C15.6125 163.854 13.0818 163.361 11.7843 162.869C10.696 162.006 10.4185 162.283 10.4185 162.283C10.4185 162.283 9.1913 162.204 8.73352 162.006C8.73352 160.935 8.46473 159.971 9.18375 158.609C10.3391 158.608 14.1665 158.729 14.1665 158.729Z" fill="#ADADAD"/>
<path d="M25.7917 113.951C25.1314 117.88 22.6372 119.621 19.6666 120.332C19.6666 120.332 15.9723 148.239 15.6316 159.163C13.5623 159.914 10.9951 159.691 8.75781 158.46C8.75781 151.603 11.4902 119.531 11.6434 112.536C15.7448 112.536 25.7917 113.951 25.7917 113.951Z" fill="#3C3C48"/>
<path d="M11.4441 116.769C18.869 117.861 22.9556 117.097 25.1901 116.037C25.4549 115.42 25.661 114.73 25.7916 113.95C25.7916 113.95 15.7451 112.535 11.643 112.535C11.6216 113.507 11.5505 114.964 11.4441 116.769Z" fill="#3C3C48"/>
<path d="M21.1215 93.1834C23.0411 94.8611 23.3766 95.4017 25.3002 97.7894C27.2238 100.177 29.1895 102.21 31.5519 103.805C30.7288 106.614 27.5935 106.358 25.7242 105.167C23.855 103.977 22.5004 101.744 21.4764 99.4083C20.4525 97.0726 19.6882 94.5622 18.5959 92.2761" fill="#F5F5F5"/>
<path d="M25.7918 113.95C25.7918 113.95 25.9383 115.673 25.546 115.891C25.1541 116.108 17.8809 117.545 10.782 115.586L11.3045 112.843L25.7918 113.95Z" fill="#F5F5F5"/>
<path d="M11.8157 90.6829C9.86309 91.2 7.09499 95.0963 6.92705 97.1081C6.7591 99.1204 8.06692 100.785 9.01543 102.567C9.96394 104.35 9.98776 105.023 10.5214 106.971C11.502 110.549 11.7283 110.582 11.1777 113.439C14.0939 114.842 25.1409 114.521 25.7912 113.951C25.958 112.985 26.0933 110.905 26.0937 109.924C26.0941 103.965 24.8955 99.2307 22.3906 94.6629C21.7574 93.5079 20.71 92.5772 19.5233 92.0045C18.3715 91.4489 16.2219 91.0032 14.9431 91.0071C13.3812 91.0119 11.8157 90.6829 11.8157 90.6829Z" fill="#F5F5F5"/>
<path d="M25.7918 113.951C25.8379 113.684 25.8815 113.329 25.9209 112.937C24.4332 113.228 22.9233 113.408 21.4078 113.459C20.3584 113.494 19.2976 113.47 18.2756 113.229C15.0998 112.48 12.7124 109.685 11.6285 106.609C10.5446 103.532 10.5621 100.186 10.7332 96.9292L7.10474 98.7573C7.47993 100.08 8.33831 101.294 9.01605 102.568C9.96456 104.35 9.98838 105.024 10.522 106.971C11.5027 110.55 11.729 110.583 11.1783 113.44C14.0945 114.842 25.1415 114.521 25.7918 113.951Z" fill="#F5F5F5"/>
<path d="M12.4317 100.246C13.0896 96.8916 11.8723 93.3072 10.7538 92.2769C10.4843 92.0284 10.1916 91.9411 9.90301 91.9479C8.4197 93.3993 7.04438 95.708 6.92765 97.1079C6.91852 97.2198 6.91534 97.3301 6.91455 97.4397C6.94949 97.7957 6.99316 98.1632 7.04438 98.5343C7.38106 99.9445 8.30019 101.222 9.01564 102.567C9.2757 103.055 9.46468 103.459 9.61516 103.83C10.6498 103.502 11.9894 102.499 12.4317 100.246Z" fill="#F5F5F5"/>
<path d="M11.8158 90.6826C11.7729 90.6941 11.7273 90.7156 11.6836 90.7302C13.6163 92.2095 20.2845 96.8217 20.6668 97.2039C21.0484 97.5854 21.1048 94.3023 20.0101 92.2749C19.8525 92.1773 19.6913 92.0852 19.5234 92.0043C18.3716 91.4486 16.2221 91.0029 14.9432 91.0069C13.3813 91.0116 11.8158 90.6826 11.8158 90.6826Z" fill="#F5F5F5"/>
<path d="M18.0195 88.1857C18.0195 88.1857 17.1643 89.7824 18.0446 91.6236C19.7431 93.5096 19.8574 93.2421 20.1969 95.8449C16.7895 92.931 15.3983 91.8518 13.7368 91.2628C12.0756 90.6738 13.78 86.8474 13.78 86.8474L18.0195 88.1857Z" fill="#FDE2D0"/>
<path d="M17.0747 93.2552C17.9101 93.9049 18.909 94.7431 20.1966 95.8445C19.9258 93.7707 19.796 93.5167 18.8959 92.5459L17.0747 93.2552Z" fill="#F5F5F5"/>
<path d="M13.3749 86.6831C14.4163 87.176 18.0197 88.1853 18.0197 88.1853C18.0197 88.1853 17.7351 88.6485 17.7335 89.1418C16.4062 89.1418 13.5531 87.307 13.5531 87.307C13.5531 87.307 13.2578 86.7954 13.3749 86.6831Z" fill="#FDE2D0"/>
<path d="M18.4548 92.6838C18.4651 92.8343 19.9171 93.4725 20.1847 93.6094C20.3566 93.6975 19.9048 92.0075 19.2616 91.5487C18.7752 91.2015 17.6687 90.3025 17.6687 90.3025C17.6687 90.3025 17.7509 90.9693 17.8243 91.1741C17.9883 91.6321 18.4346 92.3838 18.4548 92.6838Z" fill="#FDE2D0"/>
<path d="M17.9079 92.4182C18.0925 92.4976 18.455 92.6837 18.455 92.6837C18.501 92.8036 18.3764 93.0056 18.2525 93.1211C17.7725 93.5692 17.5878 93.8141 17.267 94.6329C15.3541 93.722 13.0093 92.1547 11.7654 90.7072C12.135 90.0499 12.5047 89.3927 12.8743 88.7358C12.8743 88.7358 16.44 91.7871 17.9079 92.4182Z" fill="#F5F5F5"/>
<path d="M25.8604 91.6311C25.8604 91.6311 23.1546 92.3927 23.2245 94.4355L25.0917 94.7146L25.8604 91.6311Z" fill="#B5BCCC"/>
<path d="M24.9129 90.7905L26.1623 92.8794L24.1303 94.8737L23.3335 92.3698L24.9129 90.7905Z" fill="#FDE2D0"/>
<path d="M23.2244 94.4358C24.367 94.0393 25.3493 92.9943 25.8603 91.6313C27.604 94.1901 29.3565 96.764 30.7557 99.645C31.1428 100.442 31.5076 101.279 31.6541 102.193C31.801 103.106 31.7018 104.117 31.2396 104.812C30.6687 105.671 29.6448 105.871 28.7888 105.517C27.9324 105.162 27.2272 104.344 26.665 103.434C25.034 100.794 23.2244 94.4358 23.2244 94.4358Z" fill="#F5F5F5"/>
<path d="M24.2709 93.8538C24.2709 93.8538 23.5669 94.3892 23.2239 94.4364C23.428 95.1274 25.7045 103.289 27.4705 104.524C26.6689 102.982 24.1378 96.1581 24.2709 93.8538Z" fill="#F5F5F5"/>
<path d="M23.9395 88.3768C23.1868 87.4667 21.6153 87.5176 20.6823 88.2419C20.4679 88.4082 20.2706 88.6304 20.2416 88.9003C20.213 89.1702 20.4262 89.4726 20.697 89.4476C20.9082 89.4282 21.0539 89.2377 21.2115 89.096C21.5383 88.8019 22.0159 88.6852 22.4415 88.7955C22.1255 88.9321 21.8043 89.071 21.5403 89.2921C21.2767 89.5131 21.0734 89.8318 21.073 90.1759C21.0726 90.52 21.3207 90.8721 21.6626 90.913C21.8873 90.94 22.1823 90.8685 22.2891 91.0681C22.3879 91.2527 22.2101 91.523 22.3558 91.6734C22.4789 91.8004 22.7064 91.7028 22.8632 91.7853C22.9938 91.8548 23.0295 92.0211 23.1038 92.1493C23.2761 92.4473 23.6938 92.5363 24.0154 92.4128C24.3366 92.289 24.5684 92.0004 24.7209 91.6917C25.2851 90.5506 24.4823 89.0329 23.9395 88.3768Z" fill="#FDE2D0"/>
<path d="M20.7878 88.5234C22.0512 87.268 22.6404 84.6232 22.4331 83.4122C22.3752 83.0725 22.794 82.7454 22.6781 82.4577C22.6312 82.341 22.3005 81.9691 21.5247 81.9953C20.9419 81.2166 21.0288 80.5649 21.2194 79.7628C20.899 79.1389 19.9672 75.2037 15.1337 76.0261C13.5841 76.2896 11.9491 76.9028 11.0066 78.1006C10.5138 78.7265 10.1259 79.6366 10.1156 80.4717C10.0517 80.9761 10.1021 81.5 10.2181 82.0172C10.2355 82.1827 10.2578 82.3486 10.2867 82.5141C10.4452 83.4194 11.5465 85.1792 12.0071 86.0115C12.104 86.2464 17.7267 88.9477 20.7878 88.5234Z" fill="#FDE2D0"/>
<path d="M21.0035 79.2382C20.4985 77.9964 19.1903 75.3356 15.1338 76.0262C13.5842 76.2897 11.9492 76.9029 11.0067 78.1008C10.7605 78.4135 10.5402 78.7977 10.3806 79.2077C10.3552 79.7931 10.4437 80.3793 10.5815 80.9496C10.861 82.105 11.3362 83.2191 12.0334 84.1815L13.8069 83.4767C14.3743 82.7853 14.9417 82.0939 15.509 81.4021C15.5058 81.5898 15.6984 81.7335 15.8858 81.7466C16.0732 81.7597 16.2527 81.6783 16.423 81.599C17.2976 81.191 18.1723 80.783 19.047 80.3753C19.7041 80.0689 20.3687 79.7578 20.9321 79.301C20.9563 79.2807 20.9793 79.2589 21.0035 79.2382Z" fill="#FDE2D0"/>
<path d="M20.0497 80.9063C20.0096 80.9186 19.9727 80.9421 19.9437 80.9722C19.7055 81.2211 19.9012 81.6624 20.0628 81.8942C20.137 82.0002 20.2359 82.1058 20.3645 82.1173C20.4674 82.1264 20.5726 82.0657 20.6162 81.9724C20.6591 81.8807 20.6436 81.7732 20.619 81.6747C20.5626 81.4489 20.463 81.2342 20.3272 81.0453C20.2831 80.9841 20.2307 80.9226 20.1581 80.9028C20.1223 80.8936 20.085 80.8956 20.0497 80.9063Z" fill="#3C3C48"/>
<path d="M20.1209 80.2012C20.0371 80.1833 19.3685 79.9873 19.1216 80.7112C18.8746 81.4351 18.8512 80.8124 19.0041 80.5655C19.1569 80.3187 19.4198 79.8619 20.1209 79.9897C20.8217 80.1175 20.2551 80.2294 20.1209 80.2012Z" fill="#3C3C48"/>
<path d="M12.3304 74.361C12.8081 73.9907 13.4505 73.8697 14.0599 73.9082C14.6693 73.9463 15.2585 74.1289 15.8402 74.3102C16.3877 74.4809 16.9356 74.6516 17.4831 74.8222C18.3304 75.0862 19.1824 75.3521 19.9729 75.7498C20.6637 76.0974 21.1632 76.6809 21.6349 77.2766C22.1883 77.9759 22.0232 78.9618 21.3303 79.3059C21.3681 78.7784 20.9925 78.1958 20.7765 77.7104C20.9281 78.0581 20.8007 78.474 20.5565 78.7677C20.3124 79.0614 19.9689 79.2579 19.6314 79.4452C18.5948 80.0215 17.5339 80.576 16.3917 80.9125C16.4099 80.6109 16.537 80.3164 16.745 80.0922C16.342 80.5113 15.839 80.8391 15.2867 81.0415C15.1704 81.084 15.0457 81.1261 14.9691 81.2213C14.8976 81.3106 14.8829 81.4293 14.8611 81.5404C14.7726 81.9865 14.5296 82.3866 14.3041 82.7843C13.6672 83.9055 13.593 86.0273 13.5533 87.3081C13.5434 87.6303 13.5434 87.6303 13.3476 88.1975C11.9898 86.7572 10.4906 85.2319 9.48411 83.5404C9.0986 82.8922 8.7504 82.2124 8.58603 81.4809C8.40856 80.6895 8.45263 79.8691 8.49749 79.0602C8.5225 78.6082 8.55784 78.1279 8.83338 77.7632C9.10137 77.4084 9.54565 77.231 9.9673 77.0702C10.6315 76.817 11.1385 76.7567 11.3696 76.084C11.586 75.4521 11.7571 74.7901 12.3304 74.361Z" fill="#3C3C48"/>
<path d="M21.6349 77.2765C21.1632 76.6804 20.6638 76.0969 19.9729 75.7497C19.1824 75.352 18.3304 75.0861 17.4831 74.8221C16.9352 74.6515 16.3877 74.4808 15.8402 74.3101C15.2586 74.1287 14.6694 73.9462 14.0599 73.9081C13.4505 73.87 12.8081 73.9906 12.3305 74.3609C12.0776 74.5502 11.9053 74.7864 11.7703 75.0436C12.0557 74.8686 12.3785 74.7463 12.7069 74.6927C13.4926 74.5641 14.2966 74.7475 15.0521 74.9987C15.8077 75.2504 16.5434 75.5718 17.3235 75.7326C17.8254 75.8362 18.3415 75.8719 18.8358 76.008C19.3301 76.1442 19.8177 76.399 20.0932 76.8312C20.3684 77.2634 20.3644 77.8976 19.9833 78.2405C20.0396 77.9357 19.8939 77.6035 19.6311 77.4388C19.8411 77.8925 19.6243 78.4207 19.3988 78.8668C19.2261 79.2078 19.0391 79.5487 18.8346 79.8773C19.1026 79.7368 19.3679 79.592 19.6319 79.4451C19.969 79.2578 20.3124 79.0613 20.557 78.7676C20.8011 78.4739 20.929 78.0584 20.7773 77.7103C20.9933 78.1957 21.3689 78.7779 21.3312 79.3058C22.0232 78.9617 22.1884 77.9758 21.6349 77.2765Z" fill="#3C3C48"/>
<path d="M13.1169 83.1339C12.9272 82.9937 12.7175 82.8882 12.492 82.8179C12.0426 82.581 11.5324 82.7445 11.3065 83.2228C11.0258 83.8161 11.349 84.4765 11.7202 84.9484C12.1041 85.4366 12.7187 86.0391 13.3881 86.028C13.9162 86.0193 14.2691 85.6386 14.2771 85.1318C14.3823 84.3769 13.8102 83.5716 13.1169 83.1339Z" fill="#FDE2D0"/>
<path d="M12.5659 83.7556C12.2932 83.6572 11.839 83.6437 11.8707 84.0429C11.8735 84.0775 11.9287 84.0755 11.9311 84.0414C11.9716 83.4893 12.8566 84.0644 12.9971 84.1874C13.0404 84.2251 13.0805 84.2652 13.1202 84.3057C12.9816 84.347 12.8633 84.4279 12.774 84.5478C12.683 84.67 12.5826 84.8863 12.6549 85.0344C12.6779 85.082 12.7474 85.0804 12.7672 85.0308C12.7899 84.9733 12.7847 84.9169 12.7974 84.8566C12.8145 84.778 12.8502 84.7006 12.8963 84.6347C12.9725 84.526 13.0813 84.4454 13.204 84.3962C13.3505 84.5625 13.4787 84.7443 13.6177 84.9177C13.6713 84.9844 13.7602 84.903 13.7169 84.8351C13.4382 84.3974 13.0713 83.9382 12.5659 83.7556Z" fill="#FDE2D0"/>
<path d="M16.6807 112.471C16.7423 112.531 16.8026 112.598 16.8256 112.68C16.9055 112.97 16.4993 113.152 16.2023 113.107C15.6 113.016 15.0068 112.552 14.4427 112.781C15.3324 113.118 15.8124 114.096 15.9855 115.03C16.0467 115.36 15.9943 115.818 15.662 115.868C15.3642 115.912 15.1692 115.572 15.0648 115.29C15.1093 115.589 15.1538 115.889 15.1986 116.188C15.2216 116.342 15.2403 116.515 15.1482 116.64C15.018 116.818 14.7261 116.794 14.5598 116.649C14.3934 116.504 14.3208 116.282 14.2553 116.071C14.3355 116.44 14.3601 116.929 14.0163 117.085C13.703 117.227 13.358 116.944 13.1892 116.645C13.0205 116.345 12.9073 115.985 12.6139 115.806C12.1637 116.264 11.5142 116.519 10.873 116.488C10.2314 116.458 9.60881 116.144 9.20344 115.646C9.16135 115.604 10.7856 113.77 10.9849 113.605C11.4109 113.253 11.9322 113.104 12.4103 112.842C13.1479 112.437 13.7213 111.842 14.5995 111.761C15.3503 111.691 16.1376 111.943 16.6807 112.471Z" fill="#FDE2D0"/>
<path d="M10.9007 116.067C11.4947 115.194 11.8437 114.151 11.8735 113.1C11.5626 113.241 11.2545 113.381 10.9849 113.605C10.7856 113.77 9.16135 115.604 9.20344 115.646C9.55283 116.075 10.0638 116.366 10.6089 116.458C10.7114 116.332 10.809 116.201 10.9007 116.067Z" fill="#FDE2D0"/>
<path d="M9.28665 92.7507C9.28665 92.7507 -0.318738 103.513 0.582921 107.453C1.48458 111.392 9.20287 116.603 9.20287 116.603C10.8001 115.421 11.7034 114.119 11.9666 113.084C11.9666 113.084 5.69669 108.169 7.46864 106.016C9.24059 103.864 10.7866 103.022 11.7657 100.129C12.0817 99.193 11.4802 91.177 9.28665 92.7507Z" fill="#F5F5F5"/>
<path d="M10.4931 100.327C9.70101 102.191 8.35627 103.841 7.71069 105.73C9.38021 103.785 10.8306 102.889 11.7648 100.129C11.9423 99.6052 11.8311 96.8587 11.3134 94.821C11.4646 96.6956 11.2268 98.6011 10.4931 100.327Z" fill="#F5F5F5"/>
<path d="M10.113 115.09C9.16843 115.119 8.25526 114.765 7.4072 114.348C5.62929 113.476 4.00424 112.3 2.60669 110.897C5.18303 113.889 9.20257 116.603 9.20257 116.603C9.92438 116.069 10.4973 115.511 10.9404 114.964C10.6708 115.032 10.396 115.081 10.113 115.09Z" fill="#F5F5F5"/>
<path d="M133.143 97.3039C133.038 97.136 132.894 97.0059 132.729 96.9106C132.128 97.1749 131.61 97.5702 131.198 98.0687C130.906 98.6343 130.624 99.2062 130.348 99.7793C129.755 101.012 129.195 102.26 128.664 103.521C128.169 104.704 127.702 105.898 127.262 107.103C125.328 105.204 122.781 103.803 121.761 101.191L121.751 101.174C121.734 101.127 121.713 101.083 121.691 101.039C121.463 100.153 121.426 99.2816 121.326 98.3851C121.066 97.1718 120.045 95.7215 118.802 95.325C117.559 94.9285 118.802 95.9422 119.26 96.1383C119.717 96.3343 120.11 97.4786 120.11 97.4786C120.11 97.4786 119.848 97.2496 119.129 97.7731C118.41 98.2962 117.984 98.7212 117.951 99.5384C117.919 100.356 118.213 101.239 118.311 100.879C118.409 100.52 118.377 99.931 118.377 99.931C118.377 99.931 118.496 100.207 118.689 100.475C118.7 100.497 118.714 100.518 118.734 100.538C118.991 100.793 119.107 101.162 119.343 101.435C119.501 101.618 119.681 101.754 119.884 101.873C119.872 102.501 120.17 103.172 120.45 103.722C120.448 103.74 120.45 103.757 120.459 103.778C121.22 105.33 122.128 106.804 123.188 108.172C124.048 109.279 124.99 110.464 126.271 111.095C126.542 111.41 127.165 111.366 127.604 111.188C128.552 110.803 129.103 109.803 129.624 108.982C130.945 106.908 132.066 104.696 132.885 102.372C133.288 101.23 133.628 100.017 133.547 98.7947C133.516 98.3216 133.429 97.7207 133.143 97.3039Z" fill="#FDE2D0"/>
<path d="M118.376 99.9308C118.856 100.687 119.146 101.008 119.287 100.923C119.412 100.846 118.867 99.9269 118.839 99.522C118.817 99.2121 118.839 99.0073 118.839 99.0073C118.839 99.0073 118.826 99.5875 119.104 100.103C119.296 100.458 119.538 100.867 119.734 100.93C119.93 100.994 119.325 99.5387 119.309 99.1628C119.292 98.787 119.43 98.6497 119.43 98.6497C119.43 98.6497 119.39 98.8167 119.382 98.9993C119.374 99.1954 119.423 99.449 119.456 99.555C119.488 99.6613 119.807 100.601 119.815 100.74C119.824 100.879 119.84 101.018 119.75 101.002C119.66 100.985 119.382 100.634 119.21 100.372C119.039 100.111 119.014 100.037 119.014 100.037C119.014 100.037 119.358 100.806 119.366 100.887C119.374 100.969 119.254 100.999 119.156 100.956C119.058 100.912 118.824 100.665 118.733 100.538C118.644 100.411 118.48 100.176 118.376 99.9308Z" fill="#F27D83"/>
<path d="M121.069 98.2306C121.069 98.2306 120.077 97.6749 119.38 98.0563C118.682 98.4378 118.447 98.9938 118.785 99.0045C119.123 99.0152 119.543 98.5413 119.794 98.6719C120.045 98.8029 120.165 98.9934 120.099 99.168C120.034 99.3423 119.685 100.748 120.197 101.162C120.088 100.912 119.903 100.225 120.153 99.2335C120.175 99.1029 120.246 98.8958 120.028 98.7215C119.81 98.5473 119.558 98.5497 119.325 98.7108C118.903 99.0025 118.519 99.0315 118.747 98.6834C119.036 98.2421 119.554 97.915 120.067 97.9531C120.203 97.969 120.639 98.0452 121.069 98.2306Z" fill="#F27D83"/>
<path d="M134.802 96.3367C134.186 96.5121 131.645 96.2255 131.067 97.9227C130.343 100.047 127.679 105.751 127.459 106.568C127.349 106.866 127.32 107.126 126.805 106.673C126.291 106.219 125.575 105.616 125.575 105.616C125.575 105.616 125.643 107.621 123.367 108.402C123.803 108.948 125.473 111.603 126.88 111.505C128.286 111.407 129.415 110.23 129.93 109.249C130.445 108.268 131.266 106.14 131.494 105.668C131.722 105.195 131.955 98.9804 134.802 96.3367Z" fill="#F5F5F5"/>
<path d="M131.33 104.59C130.984 104.14 130.664 103.646 130.617 103.066C130.546 102.208 130.988 101.308 131.249 100.514C131.332 100.26 131.442 99.9837 131.548 99.6975C131.593 98.9823 131.697 98.2735 131.869 97.5769C131.869 97.5757 131.869 97.5746 131.868 97.5734C131.872 97.5654 131.877 97.5595 131.88 97.5515C131.9 97.4948 131.911 97.4368 131.92 97.3781C131.955 97.2471 131.991 97.1197 132.031 96.9907C132.066 96.9232 132.107 96.8582 132.153 96.8022C132.17 96.7808 132.199 96.7629 132.231 96.7454L132.232 96.7458C132.783 96.5799 133.36 96.4827 133.93 96.4101C134.569 96.3271 135.251 96.3664 135.858 96.1303C136.567 95.8568 137.149 95.3857 137.395 94.7288C137.547 94.322 137.602 93.8811 137.702 93.4604C137.78 93.1286 137.801 92.538 138.11 92.3078C138.409 92.0859 138.973 92.1625 139.319 92.1522C139.997 92.1355 140.677 92.1645 141.354 92.2268C141.412 92.2332 141.468 92.2744 141.466 92.3387C141.437 92.8591 141.331 93.3659 141.256 93.8811C141.144 94.6534 141.343 95.4127 141.814 96.1426C142.467 97.1523 143.483 97.6682 144.321 98.4747L144.344 98.5243C144.646 98.7815 144.91 99.078 145.088 99.4221C145.542 100.299 145.198 101.138 144.75 101.936C144.109 103.074 143.382 104.026 142.634 105.098C142.267 105.624 141.655 106.191 141.526 106.828C141.186 108.503 142.59 110.087 143.452 111.563C143.861 112.259 144.396 112.929 144.607 113.719C144.792 114.409 144.645 115.095 144.302 115.711C143.564 117.048 142.218 118.223 140.976 119.083C139.74 119.939 138.291 120.528 136.769 120.511C135.316 120.494 133.688 119.943 132.838 118.699L132.829 118.678C131.581 117.379 131.142 115.339 131.079 113.6C131.027 112.142 131.152 110.677 131.233 109.222C131.264 108.676 131.297 108.131 131.33 107.586C131.33 107.437 131.355 107.205 131.36 107.056C131.391 106.193 131.65 105.448 131.386 104.665C131.376 104.636 131.35 104.615 131.33 104.59Z" fill="#FDE2D0"/>
<path d="M137.146 95.2853C137.124 95.2829 137.102 95.2773 137.081 95.2734C137.212 95.1087 137.321 94.9281 137.395 94.7288C137.548 94.322 137.603 93.8811 137.702 93.4604C137.781 93.1286 137.802 92.538 138.111 92.3078C138.409 92.0859 138.973 92.1625 139.32 92.1522C139.998 92.1355 140.678 92.1645 141.354 92.2268C141.412 92.2332 141.468 92.2744 141.466 92.3387C141.437 92.8591 141.331 93.3659 141.257 93.8811C141.233 94.0454 141.226 94.2089 141.23 94.3716C140.075 95.1745 138.479 95.4325 137.146 95.2853Z" fill="#FDE2D0"/>
<path d="M142.292 96.7438C139.44 99.0807 135.902 98.8243 135.859 96.1306C134.69 96.3453 131.877 100.024 131.494 105.668C131.111 111.311 130.99 114.407 130.99 114.407L141.135 114.987C141.135 114.987 140.027 100.605 142.808 97.2272C142.292 96.7438 142.292 96.7438 142.292 96.7438Z" fill="#F5F5F5"/>
<path d="M145.088 99.4221C144.91 99.078 144.647 98.7816 144.344 98.5244L144.321 98.4748C143.672 97.8497 142.917 97.3964 142.305 96.755C142.301 96.7515 142.296 96.7475 142.292 96.7435C139.737 98.3954 136.899 102.154 134.984 105.091C133.494 99.0907 136.494 95.8065 136.494 95.8065L136.49 95.8057C136.296 95.9331 136.085 96.0426 135.859 96.1303C135.251 96.3665 134.569 96.3272 133.93 96.4101C133.36 96.4828 132.784 96.58 132.232 96.7459L132.232 96.7455C132.2 96.7634 132.171 96.7812 132.153 96.8023C132.107 96.8582 132.066 96.9237 132.031 96.9908C131.991 97.1198 131.955 97.2472 131.92 97.3782C131.911 97.4369 131.9 97.4948 131.881 97.5516C131.878 97.5595 131.872 97.5659 131.869 97.5734C131.869 97.5746 131.869 97.5758 131.87 97.577C131.697 98.2735 131.594 98.9824 131.548 99.6976C131.443 99.9837 131.333 100.259 131.25 100.514C130.988 101.308 130.547 102.208 130.617 103.066C130.665 103.646 130.984 104.14 131.33 104.59C131.351 104.615 131.376 104.636 131.387 104.666C131.65 105.449 131.391 106.194 131.361 107.057C131.356 107.206 131.331 107.438 131.331 107.587C131.298 108.132 131.264 108.677 131.233 109.223C131.152 110.678 131.028 112.143 131.08 113.601C131.114 114.571 131.274 115.631 131.618 116.607L133.56 117.325L134.57 114.612L135.646 117.325L144.082 116.07C144.159 115.951 144.236 115.832 144.303 115.711C144.645 115.095 144.793 114.409 144.608 113.719C144.589 113.646 144.564 113.576 144.539 113.505C144.456 113.282 144.334 113.027 144.192 112.758C143.96 112.35 143.687 111.961 143.454 111.563C143.169 111.077 142.827 110.578 142.506 110.069C142.345 109.818 142.113 109.453 141.91 109.013C141.571 108.304 141.376 107.575 141.527 106.829C141.592 106.406 142.062 105.759 142.676 105.041C143.41 103.994 144.123 103.055 144.751 101.938C145.198 101.138 145.542 100.299 145.088 99.4221Z" fill="#F5F5F5"/>
<path d="M130.751 122.693L130.753 122.739C130.757 122.605 130.761 122.471 130.765 122.34C130.775 122.014 130.739 121.651 130.994 121.408C131.667 120.773 133.026 120.849 133.864 120.898C134.807 120.954 135.829 121.145 136.551 121.803C137.089 122.296 137.405 122.981 137.325 123.695C137.335 126.48 137.308 129.265 137.283 132.049C137.271 133.493 137.259 134.935 137.247 136.38C137.235 137.774 137.156 139.195 137.398 140.576C137.64 141.946 138.343 143.132 138.806 144.427C139.244 145.651 139.37 146.949 139.325 148.242C139.23 150.952 138.644 153.685 138.125 156.34C138.005 156.959 137.922 157.621 137.728 158.223C137.61 158.586 137.375 158.981 136.947 158.991C136.396 159.003 136.187 158.455 136.14 157.934C135.897 156.814 135.771 155.649 135.664 154.501C135.471 153.383 135.276 152.266 135.06 151.152C134.614 148.862 134.129 146.579 133.654 144.294C132.706 139.739 131.777 135.172 131.196 130.553C130.868 127.948 130.661 125.331 130.635 122.704C130.634 122.629 130.748 122.616 130.751 122.693Z" fill="#FDE2D0"/>
<path d="M129.888 160.227C130.139 159.974 130.643 159.866 130.99 159.738C131.545 159.532 132.105 159.331 132.665 159.134C133.714 158.768 134.808 158.301 135.916 158.071C136.729 157.901 137.289 158.251 137.702 158.797C138.008 159.134 138.315 159.472 138.601 159.82C138.832 160.098 139.103 160.424 139.049 160.778C138.956 161.394 138.028 161.601 137.408 161.682C136.28 161.831 135.1 161.659 133.975 161.57C132.84 161.483 131.619 161.472 130.535 161.158C130.055 161.019 129.45 160.666 129.888 160.227Z" fill="#3C3C48"/>
<path d="M132.302 159.265C132.423 159.222 132.543 159.177 132.665 159.134C133.714 158.767 134.808 158.301 135.915 158.071C136.71 157.905 137.262 158.236 137.672 158.759C137.315 159.003 136.846 159.159 136.436 159.304C135.714 159.559 134.959 159.747 134.184 159.857C133.647 159.935 131.766 160.125 132.302 159.265Z" fill="#3C3C48"/>
<path d="M142.682 160.713C143.119 159.666 143.365 158.394 143.971 157.437C144.296 156.924 144.754 156.63 145.326 156.679C145.369 156.652 145.424 156.64 145.485 156.663C146.48 157.026 148.763 157.642 147.616 159.078C146.95 159.911 146.093 160.684 145.346 161.451C144.722 162.09 143.985 162.704 143.095 162.915C141.415 163.314 142.357 161.492 142.682 160.713Z" fill="#3C3C48"/>
<path d="M143.971 157.437C144.296 156.924 144.754 156.63 145.326 156.679C145.37 156.652 145.424 156.64 145.485 156.663C145.716 156.747 146.016 156.845 146.326 156.964C146.061 158.263 145.338 159.416 144.308 160.254C143.837 160.637 143.124 160.933 142.688 160.701C143.121 159.656 143.368 158.391 143.971 157.437Z" fill="#3C3C48"/>
<path d="M135.772 137.701C135.714 135.763 135.682 133.828 135.556 131.893C135.292 127.849 134.732 123.847 134.135 119.842C134.119 119.74 134.216 119.702 134.29 119.731C134.336 119.695 134.399 119.677 134.475 119.693C136.701 120.16 139.196 119.743 141.319 120.621C141.382 120.568 141.51 120.587 141.529 120.696C142.086 123.804 142.269 126.941 142.017 130.09C141.893 131.64 141.658 133.171 141.357 134.695C141.035 136.328 140.65 138.062 140.919 139.728C141.203 141.488 142.294 142.808 143.093 144.345C143.67 145.457 144.047 146.646 144.305 147.869C144.326 147.966 144.343 148.063 144.362 148.161C144.796 150.016 145.13 151.893 145.384 153.781C145.532 154.881 145.856 156.202 145.774 157.318C145.739 157.809 145.742 158.102 145.245 158.244C145.241 158.245 145.238 158.244 145.235 158.245C145.022 158.351 144.761 158.358 144.503 158.199C144.011 157.895 143.678 156.826 143.443 156.362C142.945 155.384 142.452 154.404 141.963 153.422C139.975 149.435 137.912 145.427 136.295 141.272C136.28 141.234 136.282 141.2 136.295 141.173C135.906 140.068 135.807 138.896 135.772 137.701Z" fill="#FDE2D0"/>
<path d="M149.303 137.313C148.008 138.148 146.704 137.989 145.252 137.836C142.541 137.551 140.23 138.281 137.711 139.171C136.56 139.577 135.38 139.945 134.144 139.874C132.668 139.79 131.416 139.04 130.07 138.515C128.619 137.948 127.275 137.826 125.994 138.118C126.128 137.336 126.257 136.554 126.394 135.772C127.624 128.761 128.989 121.773 130.483 114.81C130.505 114.705 130.553 114.628 130.612 114.571C130.691 114.467 130.816 114.398 130.99 114.408C135.312 114.656 139.631 114.902 143.953 115.149C144.139 115.161 144.268 115.254 144.345 115.379C144.575 115.333 144.827 115.426 144.898 115.719C146.014 120.259 147.216 124.783 148.596 129.25C149.228 131.298 149.933 133.336 150.944 135.232C150.977 135.294 151.013 135.355 151.046 135.416C150.663 136.201 149.95 136.896 149.303 137.313Z" fill="#3C3C48"/>
<path d="M130.798 115.106C130.996 114.863 131.21 114.641 131.432 114.434C135.606 114.673 139.779 114.91 143.953 115.149C144.139 115.161 144.268 115.254 144.345 115.379C144.362 115.376 144.378 115.375 144.394 115.373C144.396 115.375 144.398 115.377 144.399 115.379C144.424 115.374 144.448 115.372 144.473 115.37C144.662 115.376 144.84 115.48 144.899 115.72C146.014 120.26 147.217 124.783 148.596 129.25C149.228 131.298 149.934 133.336 150.944 135.232C150.977 135.294 151.013 135.355 151.047 135.417C150.663 136.201 149.95 136.896 149.304 137.314C148.009 138.148 146.705 137.99 145.253 137.837C142.541 137.551 140.231 138.282 137.711 139.171C136.6 139.564 135.46 139.916 134.27 139.876C135.621 139.452 136.738 138.434 137.883 137.545C139.097 136.602 140.282 136.067 141.772 135.71C143.689 135.251 145.197 134.535 145.836 132.535C146.232 131.298 146.162 130.025 145.973 128.761C145.706 127.703 145.441 126.645 145.154 125.591C144.665 123.795 144.201 121.725 142.866 120.345C141.314 118.738 138.82 118.861 136.775 118.483C134.498 118.062 132.307 117.322 130.211 116.348C130.302 115.92 130.392 115.491 130.484 115.063C130.584 115.054 130.69 115.064 130.798 115.106Z" fill="#3C3C48"/>
<path d="M130.05 135.932C129.888 136.713 129.715 137.51 129.548 138.315C128.315 137.926 127.158 137.865 126.048 138.118C126.182 137.337 126.31 136.555 126.447 135.773C127.554 129.465 128.771 123.176 130.092 116.908C130.685 117.981 131.224 119.088 131.534 120.278C131.981 122.001 131.942 123.811 131.801 125.57C131.522 129.071 130.761 132.501 130.05 135.932Z" fill="#3C3C48"/>
<path d="M138.212 118.499L130.168 118.521C129.912 118.522 129.615 118.33 129.507 118.093L124.225 106.521C124.117 106.285 124.238 106.091 124.494 106.091L132.537 106.068C132.793 106.068 133.091 106.26 133.198 106.496L138.481 118.068C138.588 118.305 138.467 118.499 138.212 118.499Z" fill="#C3996B"/>
<path d="M131.682 113.364C131.96 113.846 132.243 114.339 132.36 114.884C132.478 115.429 132.406 116.044 132.039 116.463C131.652 116.905 131.033 117.044 130.457 117.158C130.074 117.234 129.685 117.309 129.296 117.271C128.908 117.232 128.514 117.063 128.295 116.74C127.995 116.3 128.064 115.658 127.691 115.277C127.542 115.125 127.317 115.001 127.311 114.788C127.305 114.593 127.497 114.425 127.466 114.232C127.433 114.025 127.179 113.949 127.025 113.806C126.771 113.572 126.816 113.124 127.063 112.882C127.309 112.64 127.691 112.582 128.03 112.649C128.369 112.716 129.244 112.608 129.544 112.779C129.016 112.355 128.035 112.068 127.794 111.435C127.696 111.176 127.684 110.791 127.952 110.718C128.068 110.686 128.189 110.735 128.299 110.785C129.608 111.382 130.78 112.276 131.702 113.38" fill="#FDE2D0"/>
<path d="M131.876 113.706C131.876 113.706 137.539 113.486 139.238 113.111C140.811 113.706 141.269 115.839 139.241 116.374C137.213 116.911 131.686 116.374 131.686 116.374C131.686 116.374 131.805 114.457 131.876 113.706Z" fill="#FDE2D0"/>
<path d="M139.238 113.111C139.238 113.111 140.091 114.753 139.241 116.375C142.315 116.375 143.981 116.131 145.334 114.858C147.534 112.788 148.409 100.028 143.56 98.0466C142.555 101.466 143.196 108.989 142.723 112.415C141.985 112.475 139.238 113.111 139.238 113.111Z" fill="#F5F5F5"/>
<path d="M139.238 113.112C139.238 113.112 141.82 112.605 142.723 112.415C142.847 111.049 142.937 104.866 142.959 103.986C143.169 105.294 143.89 112.519 143.169 112.781C142.449 113.043 139.238 113.112 139.238 113.112Z" fill="#F5F5F5"/>
<path d="M132.69 88.3758C132.72 87.894 132.762 87.0732 133.321 86.8827C133.643 86.7735 133.953 86.9502 133.98 87.2387C134.191 87.4153 134.333 87.7197 134.388 87.9698C134.454 88.2718 134.433 88.5885 134.4 88.893C134.359 89.2879 134.321 89.8653 134.155 90.2344C133.973 90.6401 133.531 90.494 133.238 90.2646C132.676 89.826 132.65 89.0279 132.69 88.3758Z" fill="#FDE2D0"/>
<path d="M133.902 83.1523C133.9 83.0927 133.944 83.0447 133.996 83.0288L133.997 83.0276C134.039 82.9768 134.11 83.0205 134.115 83.0749C134.117 83.0776 134.12 83.0792 134.121 83.0824C134.464 83.771 134.439 84.5573 134.418 85.3098C134.393 86.2512 134.272 87.1819 134.079 88.1031C134.06 88.1936 133.945 88.2099 133.884 88.1547C132.569 86.962 132.905 84.4691 133.902 83.1523Z" fill="#3C3C48"/>
<path d="M147.375 83.1849C147.633 83.7647 147.845 84.3656 148.006 84.9796C148.273 85.9952 148.366 87.1871 147.689 87.9904C146.284 89.6597 141.82 89.0398 142.46 86.3326C142.816 84.832 146.199 80.5503 147.375 83.1849Z" fill="#3C3C48"/>
<path d="M146.091 92.7879C145.834 91.9012 145.386 91.0701 144.788 90.3672C145.05 91.2682 145.149 92.3283 144.568 93.0657C144.638 91.7961 144.288 90.5443 143.744 89.4072C143.465 88.8257 142.794 88.1522 143.708 88.1526C144.322 88.1526 145.137 88.9202 145.487 89.3667C146.357 90.4776 146.22 91.6746 146.091 92.7879Z" fill="#3C3C48"/>
<path d="M143.377 88.3906C143.297 89.4249 143.09 90.4802 142.573 91.4042C142.056 92.3274 139.577 94.0122 136.795 94.0122C136.794 94.0122 136.793 94.0114 136.793 94.0114C136.602 93.9637 136.417 93.9014 136.242 93.8276C134.49 93.0882 133.818 91.4022 133.629 89.7718C133.512 88.7692 133.557 87.7309 133.649 86.7248C133.706 86.1041 133.767 85.3004 134.028 84.6296C134.127 84.2899 134.256 83.9577 134.429 83.639C134.989 82.6087 136.031 81.8986 137.209 81.4994C138.531 81.0513 140.124 81.1636 141.298 81.8375C141.912 82.1899 142.534 82.8111 142.82 83.4961C143.04 83.8906 143.173 84.3395 143.25 84.8043C143.29 84.9468 143.327 85.0904 143.358 85.2369C143.529 86.0362 143.531 86.8828 143.429 87.7222C143.428 87.9473 143.412 88.1719 143.377 88.3906Z" fill="#FDE2D0"/>
<path d="M134.43 83.639C134.989 82.6087 136.032 81.8986 137.21 81.4994C138.532 81.0513 140.125 81.1636 141.299 81.8375C141.913 82.1899 142.535 82.8111 142.821 83.4961C143.041 83.8906 143.174 84.3395 143.25 84.8043C143.291 84.9468 143.328 85.0904 143.359 85.2369C143.529 86.0362 143.532 86.8828 143.43 87.7222C143.428 87.948 143.412 88.1727 143.377 88.3914C143.362 88.5902 143.337 88.7887 143.308 88.9867C143.157 88.9847 143.042 88.8359 143.055 88.697C142.423 88.618 141.748 87.906 141.301 87.5039C141.037 87.2666 140.79 87.0138 140.551 86.7534C140.591 86.936 140.606 87.1257 140.468 87.2563C140.414 87.3079 140.319 87.3285 140.253 87.2841C140.237 87.2737 140.226 87.2618 140.213 87.2507C140.184 87.263 140.153 87.269 140.123 87.2642C138.567 87.0233 137.039 85.7794 136.279 84.3121C135.799 85.0234 135.06 85.7135 134.757 86.1878C134.687 86.2982 134.558 86.2898 134.485 86.2188C134.433 86.2109 134.381 86.1855 134.334 86.1374C134.12 85.9211 133.95 85.6731 133.812 85.4072C133.864 85.1404 133.933 84.8757 134.029 84.6292C134.127 84.2895 134.257 83.9573 134.43 83.639Z" fill="#FDE2D0"/>
<path d="M133.827 82.8834C134.332 81.8789 135.651 81.1208 136.761 81.141C136.771 81.141 136.775 81.1478 136.783 81.1502C138.735 79.7769 141.552 80.5251 143.096 82.1928C144.01 83.1787 144.553 84.313 144.499 85.6652C144.452 86.8599 144.177 88.089 143.26 88.9225C143.25 88.9316 143.24 88.936 143.229 88.9412C143.226 88.9574 143.223 88.9741 143.221 88.9904C143.202 89.1011 143.055 89.094 143.003 89.019C142.088 87.7033 140.916 86.6043 139.876 85.3953C140.119 86.0375 140.373 86.6745 140.655 87.3012C140.696 87.3909 140.629 87.5072 140.521 87.4762C138.405 86.869 136.908 85.1866 136.494 83.1438C136.358 83.4938 136.131 83.8141 135.93 84.1451C135.512 84.8306 134.911 85.5791 134.744 86.3741C134.727 86.4526 134.625 86.4907 134.559 86.4495C134.32 86.2994 134.146 86.0915 134.023 85.8533C133.804 85.6406 133.72 85.2417 133.66 84.9722C133.609 84.7448 133.583 84.5186 133.581 84.292C133.536 83.8109 133.606 83.3228 133.827 82.8834Z" fill="#3C3C48"/>
<path d="M134.217 86.1459C134.291 86.2336 134.374 86.3142 134.469 86.3848C134.19 85.4347 134.098 84.4008 134.551 83.4887C135.054 82.4758 135.814 82.2615 136.801 81.9706C137.272 81.8321 137.305 81.7337 137.682 81.3812C138.076 81.0129 138.518 80.67 138.981 80.4434C138.493 80.4592 138.011 80.5481 137.557 80.7307C137.552 80.7327 137.548 80.7347 137.543 80.7367C137.419 80.7871 137.298 80.8442 137.179 80.9081C137.169 80.9133 137.159 80.918 137.149 80.9232C137.024 80.9915 136.902 81.0669 136.783 81.1506C136.775 81.1482 136.771 81.1415 136.761 81.1415C135.651 81.1209 134.332 81.8793 133.827 82.8839C133.605 83.3232 133.536 83.8114 133.58 84.2928C133.583 84.5194 133.609 84.7457 133.659 84.9731C133.719 85.2426 133.803 85.6415 134.023 85.8542C134.075 85.955 134.137 86.0495 134.209 86.1368C134.212 86.1396 134.214 86.1427 134.217 86.1459Z" fill="#3C3C48"/>
<path d="M138.034 87.7996C138.07 87.7917 138.11 87.7941 138.145 87.8048C138.438 87.8949 138.477 88.3219 138.452 88.5716C138.441 88.6859 138.41 88.8105 138.314 88.8752C138.238 88.9268 138.131 88.9252 138.056 88.8716C137.983 88.8192 137.948 88.7288 137.925 88.6422C137.871 88.4426 137.855 88.233 137.879 88.0278C137.886 87.9616 137.9 87.8909 137.948 87.8441C137.972 87.8211 138.003 87.8064 138.034 87.7996Z" fill="#3C3C48"/>
<path d="M134.526 87.7996C134.562 87.7917 134.601 87.7941 134.637 87.8048C134.93 87.8949 134.969 88.3219 134.944 88.5716C134.932 88.6859 134.901 88.8105 134.806 88.8752C134.73 88.9268 134.622 88.9252 134.547 88.8716C134.474 88.8192 134.44 88.7288 134.416 88.6422C134.362 88.4426 134.347 88.233 134.37 88.0278C134.378 87.9616 134.392 87.8909 134.44 87.8441C134.464 87.8211 134.494 87.8064 134.526 87.7996Z" fill="#3C3C48"/>
<path d="M137.638 87.1179C137.691 86.873 137.98 86.761 138.207 86.7586C138.545 86.7554 138.815 86.9839 139.042 87.2097C139.105 87.2725 139.01 87.3647 138.945 87.3067C138.759 87.1425 138.547 86.9676 138.289 86.949C138.057 86.9323 137.94 87.0495 137.798 87.2113C137.731 87.2884 137.619 87.2053 137.638 87.1179Z" fill="#3C3C48"/>
<path d="M134.014 86.7349C134.243 86.2651 134.953 86.57 135.144 86.9154C135.195 87.008 135.059 87.087 135.003 86.998C134.862 86.7746 134.378 86.5282 134.219 86.8545C134.152 86.9917 133.947 86.8716 134.014 86.7349Z" fill="#3C3C48"/>
<path d="M142.735 88.7709C142.849 88.5855 142.992 88.4228 143.161 88.2847C143.463 87.9267 143.956 87.8906 144.315 88.2216C144.76 88.6324 144.711 89.3095 144.557 89.8413C144.397 90.3918 144.079 91.1193 143.503 91.3407C143.048 91.5158 142.614 91.3114 142.432 90.8808C142.081 90.2715 142.293 89.3845 142.735 88.7709Z" fill="#FDE2D0"/>
</svg>
