<svg width="18" height="16" viewBox="0 0 18 16" fill="none" xmlns="http://www.w3.org/2000/svg">
<path fill-rule="evenodd" clip-rule="evenodd" d="M0.471436 8.47047L11.7656 8.47047V7.5293L0.471436 7.5293L0.471436 8.47047Z" fill="#FF7312"/>
<path fill-rule="evenodd" clip-rule="evenodd" d="M3.43237 4.37271L0.138253 7.66682C0.0944287 7.71054 0.0596591 7.76247 0.0359353 7.81964C0.0122116 7.87681 0 7.9381 0 8C0 8.0619 0.0122116 8.12319 0.0359353 8.18036C0.0596591 8.23753 0.0944287 8.28946 0.138253 8.33318L3.43237 11.6273L4.09872 10.9619L1.13684 8L4.09872 5.03906L3.43237 4.37271ZM5.6479 0.470588C5.6479 0.34578 5.69748 0.226085 5.78573 0.137832C5.87398 0.0495798 5.99368 0 6.11849 0L17.4126 0C17.5374 0 17.6571 0.0495798 17.7454 0.137832C17.8336 0.226085 17.8832 0.34578 17.8832 0.470588L17.8832 15.5294C17.8832 15.6542 17.8336 15.7739 17.7454 15.8622C17.6571 15.9504 17.5374 16 17.4126 16L6.11849 16C5.99368 16 5.87398 15.9504 5.78573 15.8622C5.69748 15.7739 5.6479 15.6542 5.6479 15.5294V12.7059L6.58908 12.7059V15.0588H16.942L16.942 0.941176L6.58908 0.941176L6.58908 3.29412H5.6479L5.6479 0.470588Z" fill="#FF7312"/>
</svg>
