<svg width="24" height="24" viewBox="0 0 24 24" fill="none" xmlns="http://www.w3.org/2000/svg">
<path d="M19.222 4.77804C20.2593 5.81543 20.2593 7.49736 19.222 8.53475L9.41128 18.3454C8.98573 18.771 8.45252 19.0729 7.86867 19.2188L4.82577 19.9796C4.3394 20.1012 3.89884 19.6606 4.02043 19.1742L4.78116 16.1313C4.92712 15.5475 5.22902 15.0143 5.65457 14.5887L15.4652 4.77804C16.5026 3.74065 18.1846 3.74065 19.222 4.77804ZM14.526 7.59543L6.59374 15.5279C6.33841 15.7832 6.15728 16.1032 6.0697 16.4535L5.57742 18.4226L7.54654 17.9303C7.89685 17.8427 8.21677 17.6616 8.4721 17.4063L16.404 9.4735L14.526 7.59543ZM16.4044 5.71722L15.465 6.6564L17.3431 8.53447L18.2828 7.59557C18.8015 7.07688 18.8015 6.23591 18.2828 5.71722C17.7641 5.19852 16.9231 5.19852 16.4044 5.71722Z" fill="url(#paint0_linear_4479_575)"/>
<defs>
<linearGradient id="paint0_linear_4479_575" x1="12" y1="4.20513" x2="12" y2="19.3846" gradientUnits="userSpaceOnUse">
<stop stop-color="#FF7312"/>
<stop offset="1" stop-color="#182452"/>
</linearGradient>
</defs>
</svg>
