<svg width="24" height="25" viewBox="0 0 24 25" fill="none" xmlns="http://www.w3.org/2000/svg">
<circle cx="12" cy="12.6987" r="12" fill="white"/>
<path d="M17.5532 9.16933L15.4982 7.10688C15.2299 6.85404 14.8785 6.70897 14.5106 6.69925C14.1428 6.68954 13.7842 6.81586 13.5032 7.05419L6.75315 13.8286C6.51073 14.074 6.35978 14.3956 6.32565 14.7394L6.00315 17.8783C5.99305 17.9885 6.0073 18.0996 6.0449 18.2037C6.08249 18.3078 6.1425 18.4023 6.22065 18.4804C6.29073 18.5502 6.37384 18.6054 6.46522 18.6428C6.5566 18.6803 6.65445 18.6993 6.75315 18.6987H6.82065L9.94815 18.4127C10.2907 18.3784 10.6112 18.2269 10.8557 17.9836L17.6057 11.2092C17.8676 10.9314 18.0092 10.5607 17.9994 10.1784C17.9895 9.79601 17.8291 9.43316 17.5532 9.16933ZM9.81315 16.9073L7.56315 17.118L7.76565 14.8599L12.0032 10.6597L14.0282 12.692L9.81315 16.9073ZM15.0032 11.6834L12.9932 9.66612L14.4557 8.16069L16.5032 10.2156L15.0032 11.6834Z" fill="#868686"/>
</svg>
