<svg width="23" height="22" viewBox="0 0 23 22" fill="none" xmlns="http://www.w3.org/2000/svg">
<path d="M12.3113 11.9952L21.2083 12.0022C21.4744 12.0022 21.7297 11.8965 21.9179 11.7083C22.1061 11.5201 22.2118 11.2649 22.2118 10.9988C22.2118 10.7326 22.1061 10.4774 21.9179 10.2892C21.7297 10.101 21.4744 9.9953 21.2083 9.9953L12.3113 10.0024L12.3184 1.10539C12.3184 0.83925 12.2127 0.584014 12.0245 0.395826C11.8363 0.207639 11.5811 0.101916 11.3149 0.101916C11.0488 0.101916 10.7936 0.207639 10.6054 0.395826C10.4172 0.584014 10.3115 0.83925 10.3115 1.10539L10.3185 10.0024L1.42155 9.9953C1.28962 9.99476 1.15889 10.0203 1.0369 10.0706C0.914906 10.1208 0.804069 10.1947 0.71078 10.288C0.617491 10.3813 0.543597 10.4921 0.493359 10.6141C0.443122 10.7361 0.417536 10.8668 0.418077 10.9988C0.417536 11.1307 0.443121 11.2614 0.493359 11.3834C0.543596 11.5054 0.617491 11.6162 0.71078 11.7095C0.804069 11.8028 0.914906 11.8767 1.0369 11.927C1.15889 11.9772 1.28962 12.0028 1.42155 12.0022L10.3185 11.9952L10.3115 20.8921C10.3109 21.0241 10.3365 21.1548 10.3867 21.2768C10.437 21.3988 10.5109 21.5096 10.6042 21.6029C10.6974 21.6962 10.8083 21.7701 10.9303 21.8203C11.0523 21.8706 11.183 21.8962 11.3149 21.8956C11.4469 21.8962 11.5776 21.8706 11.6996 21.8203C11.8216 21.7701 11.9324 21.6962 12.0257 21.6029C12.119 21.5096 12.1929 21.3988 12.2431 21.2768C12.2934 21.1548 12.3189 21.0241 12.3184 20.8921L12.3113 11.9952Z" fill="#FF7312"/>
</svg>
