<svg width="24" height="24" viewBox="0 0 24 24" fill="none" xmlns="http://www.w3.org/2000/svg">
<path d="M11.9999 22.4025C17.7045 22.4025 22.3447 17.7623 22.3447 12.0577C22.3447 6.35317 17.7045 1.71289 11.9999 1.71289C6.29535 1.71289 1.65507 6.35317 1.65507 12.0577C1.65507 17.7623 6.29535 22.4025 11.9999 22.4025ZM11.9999 3.36806C16.7916 3.36806 20.6896 7.26599 20.6896 12.0577C20.6896 16.8494 16.7916 20.7474 11.9999 20.7474C7.20817 20.7474 3.31024 16.8486 3.31024 12.0577C3.31024 7.26682 7.20817 3.36806 11.9999 3.36806Z" fill="#182452"/>
<path d="M12.0001 17.8509C12.2195 17.8509 12.43 17.7637 12.5852 17.6085C12.7404 17.4533 12.8276 17.2428 12.8276 17.0233V7.09223C12.8276 6.87275 12.7404 6.66225 12.5852 6.50704C12.43 6.35184 12.2195 6.26465 12.0001 6.26465C11.7806 6.26465 11.5701 6.35184 11.4149 6.50704C11.2597 6.66225 11.1725 6.87275 11.1725 7.09223V17.0233C11.1725 17.2428 11.2597 17.4533 11.4149 17.6085C11.5701 17.7637 11.7806 17.8509 12.0001 17.8509Z" fill="#182452"/>
<path d="M7.03459 12.8852H16.9656C17.1851 12.8852 17.3956 12.798 17.5508 12.6428C17.706 12.4876 17.7932 12.2771 17.7932 12.0576C17.7932 11.8381 17.706 11.6276 17.5508 11.4724C17.3956 11.3172 17.1851 11.23 16.9656 11.23H7.03459C6.8151 11.23 6.6046 11.3172 6.4494 11.4724C6.2942 11.6276 6.20701 11.8381 6.20701 12.0576C6.20701 12.2771 6.2942 12.4876 6.4494 12.6428C6.6046 12.798 6.8151 12.8852 7.03459 12.8852Z" fill="#182452"/>
</svg>
