<svg width="24" height="24" viewBox="0 0 24 24" fill="none" xmlns="http://www.w3.org/2000/svg">
<path fill-rule="evenodd" clip-rule="evenodd" d="M4 8.19048C4 5.87614 5.87614 4 8.19048 4H15.8095C18.1239 4 20 5.87614 20 8.19048V15.8095C20 18.1239 18.1239 20 15.8095 20H8.19048C5.87614 20 4 18.1239 4 15.8095V8.19048ZM8.19048 4.7619C6.29693 4.7619 4.7619 6.29693 4.7619 8.19048V15.8095C4.7619 17.7031 6.29693 19.2381 8.19048 19.2381H15.8095C17.7031 19.2381 19.2381 17.7031 19.2381 15.8095V8.19048C19.2381 6.29693 17.7031 4.7619 15.8095 4.7619H8.19048Z" fill="#FF7312" stroke="#FF7312" stroke-width="0.5"/>
<path fill-rule="evenodd" clip-rule="evenodd" d="M12.0001 16.5711C11.7897 16.5711 11.6191 16.4005 11.6191 16.1901V7.80918C11.6191 7.59878 11.7897 7.42822 12.0001 7.42822V7.42822C12.2105 7.42822 12.381 7.59878 12.381 7.80918V16.1901C12.381 16.4005 12.2105 16.5711 12.0001 16.5711V16.5711Z" fill="#FF7312" stroke="#FF7312" stroke-width="0.5"/>
<path fill-rule="evenodd" clip-rule="evenodd" d="M16.5716 12.0001C16.5716 12.2105 16.401 12.381 16.1906 12.381H7.80966C7.59927 12.381 7.42871 12.2105 7.42871 12.0001V12.0001C7.42871 11.7897 7.59927 11.6191 7.80966 11.6191H16.1906C16.401 11.6191 16.5716 11.7897 16.5716 12.0001V12.0001Z" fill="#FF7312" stroke="#FF7312" stroke-width="0.5"/>
</svg>
