<svg width="18" height="18" viewBox="0 0 18 18" fill="none" xmlns="http://www.w3.org/2000/svg">
<path fill-rule="evenodd" clip-rule="evenodd" d="M1 5.19048C1 2.87614 2.87614 1 5.19048 1H12.8095C15.1239 1 17 2.87614 17 5.19048V12.8095C17 15.1239 15.1239 17 12.8095 17H5.19048C2.87614 17 1 15.1239 1 12.8095V5.19048ZM5.19048 1.7619C3.29693 1.7619 1.7619 3.29693 1.7619 5.19048V12.8095C1.7619 14.7031 3.29693 16.2381 5.19048 16.2381H12.8095C14.7031 16.2381 16.2381 14.7031 16.2381 12.8095V5.19048C16.2381 3.29693 14.7031 1.7619 12.8095 1.7619H5.19048Z" fill="url(#paint0_linear_4479_558)" stroke="url(#paint1_linear_4479_558)" stroke-width="0.5"/>
<path fill-rule="evenodd" clip-rule="evenodd" d="M9.00009 13.5711C8.7897 13.5711 8.61914 13.4005 8.61914 13.1901V4.80918C8.61914 4.59878 8.7897 4.42822 9.00009 4.42822C9.21049 4.42822 9.38105 4.59878 9.38105 4.80918V13.1901C9.38105 13.4005 9.21049 13.5711 9.00009 13.5711Z" fill="url(#paint2_linear_4479_558)" stroke="url(#paint3_linear_4479_558)" stroke-width="0.5"/>
<path fill-rule="evenodd" clip-rule="evenodd" d="M13.5716 9.00009C13.5716 9.21049 13.401 9.38105 13.1906 9.38105H4.80966C4.59927 9.38105 4.42871 9.21049 4.42871 9.00009C4.42871 8.7897 4.59927 8.61914 4.80966 8.61914H13.1906C13.401 8.61914 13.5716 8.7897 13.5716 9.00009Z" fill="url(#paint4_linear_4479_558)" stroke="url(#paint5_linear_4479_558)" stroke-width="0.5"/>
<defs>
<linearGradient id="paint0_linear_4479_558" x1="9" y1="1.20513" x2="9" y2="16.3846" gradientUnits="userSpaceOnUse">
<stop stop-color="#FF7312"/>
<stop offset="1" stop-color="#182452"/>
</linearGradient>
<linearGradient id="paint1_linear_4479_558" x1="9" y1="1.20513" x2="9" y2="16.3846" gradientUnits="userSpaceOnUse">
<stop stop-color="#FF7312"/>
<stop offset="1" stop-color="#182452"/>
</linearGradient>
<linearGradient id="paint2_linear_4479_558" x1="9.00009" y1="4.54544" x2="9.00009" y2="13.2194" gradientUnits="userSpaceOnUse">
<stop stop-color="#FF7312"/>
<stop offset="1" stop-color="#182452"/>
</linearGradient>
<linearGradient id="paint3_linear_4479_558" x1="9.00009" y1="4.54544" x2="9.00009" y2="13.2194" gradientUnits="userSpaceOnUse">
<stop stop-color="#FF7312"/>
<stop offset="1" stop-color="#182452"/>
</linearGradient>
<linearGradient id="paint4_linear_4479_558" x1="9.00014" y1="8.62891" x2="9.00014" y2="9.35174" gradientUnits="userSpaceOnUse">
<stop stop-color="#FF7312"/>
<stop offset="1" stop-color="#182452"/>
</linearGradient>
<linearGradient id="paint5_linear_4479_558" x1="9.00014" y1="8.62891" x2="9.00014" y2="9.35174" gradientUnits="userSpaceOnUse">
<stop stop-color="#FF7312"/>
<stop offset="1" stop-color="#182452"/>
</linearGradient>
</defs>
</svg>
