<svg width="24" height="24" viewBox="0 0 24 24" fill="none" xmlns="http://www.w3.org/2000/svg">
<path d="M5.94866 10.875H12.7388C12.8081 10.875 12.8745 10.8454 12.9235 10.7926C12.9725 10.7399 13 10.6683 13 10.5938C13 10.5192 12.9725 10.4476 12.9235 10.3949C12.8745 10.3421 12.8081 10.3125 12.7388 10.3125H5.94866C5.8794 10.3125 5.81297 10.3421 5.76399 10.3949C5.71502 10.4476 5.6875 10.5192 5.6875 10.5938C5.6875 10.6683 5.71502 10.7399 5.76399 10.7926C5.81297 10.8454 5.8794 10.875 5.94866 10.875ZM5.94866 13.125H12.7388C12.8081 13.125 12.8745 13.0954 12.9235 13.0426C12.9725 12.9899 13 12.9183 13 12.8438C13 12.7692 12.9725 12.6976 12.9235 12.6449C12.8745 12.5921 12.8081 12.5625 12.7388 12.5625H5.94866C5.8794 12.5625 5.81297 12.5921 5.76399 12.6449C5.71502 12.6976 5.6875 12.7692 5.6875 12.8438C5.6875 12.9183 5.71502 12.9899 5.76399 13.0426C5.81297 13.0954 5.8794 13.125 5.94866 13.125ZM5.94866 8.625H9.08259C9.15185 8.625 9.21828 8.59537 9.26726 8.54262C9.31624 8.48988 9.34375 8.41834 9.34375 8.34375C9.34375 8.26916 9.31624 8.19762 9.26726 8.14488C9.21828 8.09213 9.15185 8.0625 9.08259 8.0625H5.94866C5.8794 8.0625 5.81297 8.09213 5.76399 8.14488C5.71502 8.19762 5.6875 8.26916 5.6875 8.34375C5.6875 8.41834 5.71502 8.48988 5.76399 8.54262C5.81297 8.59537 5.8794 8.625 5.94866 8.625ZM5.94866 15.375H12.7388C12.8081 15.375 12.8745 15.3454 12.9235 15.2926C12.9725 15.2399 13 15.1683 13 15.0938C13 15.0192 12.9725 14.9476 12.9235 14.8949C12.8745 14.8421 12.8081 14.8125 12.7388 14.8125H5.94866C5.8794 14.8125 5.81297 14.8421 5.76399 14.8949C5.71502 14.9476 5.6875 15.0192 5.6875 15.0938C5.6875 15.1683 5.71502 15.2399 5.76399 15.2926C5.81297 15.3454 5.8794 15.375 5.94866 15.375ZM5.94866 17.625H12.7388C12.8081 17.625 12.8745 17.5954 12.9235 17.5426C12.9725 17.4899 13 17.4183 13 17.3438C13 17.2692 12.9725 17.1976 12.9235 17.1449C12.8745 17.0921 12.8081 17.0625 12.7388 17.0625H5.94866C5.8794 17.0625 5.81297 17.0921 5.76399 17.1449C5.71502 17.1976 5.6875 17.2692 5.6875 17.3438C5.6875 17.4183 5.71502 17.4899 5.76399 17.5426C5.81297 17.5954 5.8794 17.625 5.94866 17.625Z" fill="url(#paint0_linear_9112_3890)"/>
<path fill-rule="evenodd" clip-rule="evenodd" d="M16.6562 21H4.84375C4.37856 21 4 20.6214 4 20.1562V3.84375C4 3.37856 4.37856 3 4.84375 3H12.7188C12.7294 3 12.7393 3.00267 12.7493 3.00536C12.7552 3.00694 12.7611 3.00852 12.7671 3.00956C12.7686 3.00978 12.7701 3.01 12.7715 3.0102C12.7809 3.01158 12.7893 3.01282 12.7986 3.01575C12.8464 3.02922 12.8897 3.05524 12.9241 3.09112C12.9249 3.09197 12.9259 3.09239 12.9269 3.09281C12.9279 3.09323 12.9288 3.09366 12.9297 3.0945L17.4297 8.157C17.4317 8.15953 17.4325 8.16234 17.4333 8.16516C17.4342 8.16797 17.435 8.17078 17.437 8.17331C17.4615 8.205 17.4788 8.24167 17.4876 8.28075C17.4883 8.28371 17.489 8.2866 17.4897 8.28947C17.4919 8.2986 17.4941 8.30747 17.4949 8.31731C17.4952 8.32146 17.4963 8.32537 17.4974 8.32932C17.4987 8.33393 17.5 8.3386 17.5 8.34375V12.3577C17.3463 12.2645 17.1972 12.1601 17.0567 12.0431C17.0232 12.0153 16.9811 12 16.9376 12C16.9375 12 16.9375 12 16.9375 12V8.625H13.2812C12.8059 8.625 12.4375 8.09569 12.4375 7.64062V3.5625H4.84375C4.76916 3.5625 4.69762 3.59213 4.64488 3.64488C4.59213 3.69762 4.5625 3.76916 4.5625 3.84375V20.1562C4.5625 20.3137 4.68625 20.4375 4.84375 20.4375H16.6562C16.7308 20.4375 16.8024 20.4079 16.8551 20.3551C16.9079 20.3024 16.9375 20.2308 16.9375 20.1562V19.875C16.9375 19.875 16.9375 19.875 16.9376 19.875C16.9653 19.875 16.9927 19.8689 17.0179 19.857C17.1881 19.7757 17.3486 19.6938 17.5 19.6114V20.1562C17.5 20.6214 17.1214 21 16.6562 21ZM16.5927 8.0625L13 4.02094V7.64062C13 7.82625 13.1575 8.0625 13.2812 8.0625H16.5927Z" fill="url(#paint1_linear_9112_3890)"/>
<path d="M20.2656 13.191C20.2489 13.1717 20.2285 13.156 20.2055 13.1449C20.1826 13.1338 20.1577 13.1276 20.1322 13.1265C20.1136 13.1265 18.2678 13.0515 17.0567 12.0431C17.0232 12.0153 16.9811 12 16.9376 12C16.894 12 16.8519 12.0153 16.8184 12.0431C15.6073 13.0541 13.7623 13.1265 13.7429 13.1265C13.7175 13.1274 13.6926 13.1334 13.6697 13.1443C13.6468 13.1551 13.6263 13.1705 13.6095 13.1896C13.5927 13.2086 13.5799 13.2309 13.5719 13.2551C13.564 13.2792 13.561 13.3048 13.5632 13.3301C13.5632 13.3301 13.7362 15.3341 13.8098 16.1636C13.8845 16.9808 14.0186 18.5006 16.8572 19.857C16.8824 19.8689 16.9098 19.875 16.9376 19.875C16.9653 19.875 16.9927 19.8689 17.0179 19.857C19.8569 18.5006 19.9925 16.9808 20.0654 16.1636C20.1401 15.3341 20.3119 13.3301 20.3119 13.3301C20.3139 13.305 20.3108 13.2797 20.3029 13.2558C20.2949 13.2319 20.2822 13.2099 20.2656 13.191ZM19.6933 16.1321C19.6276 16.8668 19.5065 18.2273 16.9376 19.4809C14.3686 18.2273 14.2479 16.8668 14.1818 16.1321C14.122 15.4571 13.995 14.0096 13.9517 13.4899C15.0232 13.4085 16.0538 13.0422 16.9376 12.4286C17.8213 13.0422 18.8519 13.4085 19.9234 13.4899C19.8786 14.0096 19.7531 15.4583 19.6933 16.1321ZM16.6716 16.299L17.6223 15.1594C17.6541 15.1212 17.6997 15.0972 17.7491 15.0928C17.7985 15.0884 17.8476 15.1038 17.8856 15.1358C17.9237 15.1677 17.9475 15.2135 17.952 15.263C17.9564 15.3126 17.941 15.3619 17.9092 15.4001L16.8091 16.7183C16.7915 16.7394 16.7696 16.7564 16.7448 16.768C16.72 16.7797 16.693 16.7857 16.6656 16.7858H16.6622C16.6343 16.7852 16.6068 16.7783 16.5819 16.7657C16.5569 16.753 16.5351 16.7349 16.5181 16.7126L15.9618 15.9889C15.9459 15.9695 15.934 15.9471 15.9269 15.923C15.9198 15.8989 15.9176 15.8737 15.9203 15.8487C15.9231 15.8237 15.9309 15.7996 15.9432 15.7777C15.9554 15.7558 15.972 15.7366 15.9918 15.7212C16.0116 15.7059 16.0343 15.6947 16.0585 15.6883C16.0827 15.6819 16.1079 15.6805 16.1327 15.6841C16.1574 15.6876 16.1812 15.6962 16.2026 15.7092C16.2241 15.7222 16.2426 15.7394 16.2573 15.7598L16.6716 16.299Z" fill="url(#paint2_linear_9112_3890)"/>
<defs>
<linearGradient id="paint0_linear_9112_3890" x1="9.34375" y1="8.1851" x2="9.34375" y2="17.2572" gradientUnits="userSpaceOnUse">
<stop stop-color="#FF7312"/>
<stop offset="1" stop-color="#182452"/>
</linearGradient>
<linearGradient id="paint1_linear_9112_3890" x1="10.75" y1="3.23077" x2="10.75" y2="20.3077" gradientUnits="userSpaceOnUse">
<stop stop-color="#FF7312"/>
<stop offset="1" stop-color="#182452"/>
</linearGradient>
<linearGradient id="paint2_linear_9112_3890" x1="16.9375" y1="12.101" x2="16.9375" y2="19.5721" gradientUnits="userSpaceOnUse">
<stop stop-color="#FF7312"/>
<stop offset="1" stop-color="#182452"/>
</linearGradient>
</defs>
</svg>
