<svg width="24" height="24" viewBox="0 0 24 24" fill="none" xmlns="http://www.w3.org/2000/svg">
<rect width="24" height="24" rx="2" fill="white"/>
<path d="M20.2795 10.3088L20.2698 10.3574V10.3913L20.2249 10.4138L20.1691 10.4682L16.7313 13.8222L16.5424 14.0065L16.588 14.2665L17.426 19.0433C17.4601 19.2528 17.3353 19.4164 17.1867 19.4657H17.1865H17.1862H17.1859H17.1857H17.1854H17.1851H17.1849H17.1846H17.1843H17.1841H17.1838H17.1835H17.1833H17.183H17.1827H17.1825H17.1822H17.1819H17.1817H17.1814H17.1811H17.1809H17.1806H17.1804H17.1801H17.1798H17.1796H17.1793H17.1791H17.1788H17.1785H17.1783H17.178H17.1778H17.1775H17.1773H17.177H17.1767H17.1765H17.1762H17.176H17.1757H17.1755H17.1752H17.175H17.1747H17.1745H17.1742H17.174H17.1737H17.1735H17.1732H17.173H17.1727H17.1725H17.1722H17.172H17.1717H17.1715H17.1712H17.171H17.1707H17.1705H17.1702H17.17H17.1697H17.1695H17.1692H17.169H17.1687H17.1685H17.1682H17.168H17.1677H17.1675H17.1673H17.167H17.1668H17.1665H17.1663H17.166H17.1658H17.1655H17.1653H17.165H17.1648H17.1645H17.1643H17.1641H17.1638H17.1636H17.1633H17.1631H17.1628H17.1626H17.1623H17.1621H17.1618H17.1616H17.1614H17.1611H17.1609H17.1606H17.1604H17.1601H17.1599H17.1596H17.1594H17.1591H17.1589H17.1586H17.1584H17.1581H17.1579H17.1576H17.1574H17.1571H17.1569H17.1566H17.1564H17.1562H17.1559H17.1557H17.1554H17.1552H17.1549H17.1546H17.1544H17.1541H17.1539H17.1536H17.1534H17.1531H17.1529H17.1526H17.1524H17.1521H17.1519H17.1516H17.1514H17.1511H17.1508H17.1506H17.1503H17.1501H17.1498H17.1496H17.1493H17.149H17.1488H17.1485H17.1483H17.148H17.1477H17.1475H17.1472H17.1469H17.1467H17.1464H17.1461H17.1459H17.1456H17.1454H17.1451H17.1448H17.1445H17.1443H17.144H17.1437H17.1435H17.1432H17.1429H17.1427H17.1424H17.1421H17.1418H17.1416H17.1413H17.141H17.1407H17.1405H17.1402H17.1399H17.1396H17.1393H17.1391H17.1388H17.1385H17.1382H17.1379H17.1376H17.1373H17.1371H17.1368H17.1365H17.1362H17.1359H17.1356H17.1353H17.135H17.1347H17.1344H17.1342H17.1339H17.1336H17.1333H17.133H17.1327H17.1324H17.1321H17.1318H17.1315H17.1312H17.1309H17.1305H17.1302H17.1299H17.1296H17.1293H17.129H17.1287H17.1284H17.1281H17.1278H17.1274H17.1271H17.1268H17.1265H17.1262H17.1258H17.1255H17.1252H17.1249H17.1245H17.1242H17.1239H17.1236H17.1232H17.1229H17.1226H17.1222H17.1219H17.1216H17.1212H17.1209H17.1206H17.1202H17.1199H17.1195H17.1192H17.1189H17.1185H17.1182H17.1178H17.1175H17.1171H17.1168H17.1164H17.116H17.1157H17.1153H17.115H17.1146H17.1143H17.1139H17.1135H17.1132H17.1128H17.1124H17.1121H17.1117H17.1113H17.1109H17.1106H17.1102H17.1098H17.1094H17.1091H17.1087H17.1083H17.1079H17.1075H17.1071H17.1067H17.1064H17.106H17.1056H17.1052H17.1048H17.1044H17.104H17.1036H17.1032H17.1028H17.1024H17.102H17.1016H17.1011H17.1007H17.1003H17.0999H17.0995H17.0991H17.0987H17.0982H17.0978H17.0974H17.097H17.0965H17.0961H17.0957H17.0952H17.0948H17.0944H17.0939H17.0935H17.093H17.0926H17.0922H17.0917H17.0913H17.0908H17.0904H17.0899H17.0895H17.089H17.0885H17.0881H17.0876H17.0871H17.0867H17.0862H17.0857H17.0853H17.0848H17.0843H17.0838H17.0834H17.0829H17.0824H17.0819H17.0814H17.0809H17.0805C17.037 19.4657 17.0033 19.4656 16.9721 19.4646C16.959 19.4642 16.948 19.4636 16.9388 19.463L16.8952 19.4399L12.6188 17.176L12.3849 17.0521L12.151 17.176L7.87466 19.4399L7.86283 19.4462L7.85136 19.4531C7.70976 19.538 7.50793 19.5117 7.37502 19.3076C7.35843 19.2673 7.35207 19.2156 7.35103 19.0859L8.18184 14.3503L8.22745 14.0904L8.03852 13.906L4.60332 10.5546C4.46497 10.4147 4.46556 10.2292 4.6051 10.0896L4.66247 10.0323L4.68371 9.98979C4.69822 9.98716 4.72113 9.98453 4.75464 9.98453H4.78956L4.82414 9.97968L9.60353 9.30888L9.86866 9.27167L9.98466 9.03038L12.0694 4.69419C12.2023 4.48846 12.4049 4.46172 12.5469 4.54694L12.5634 4.55681L12.5805 4.5654C12.6338 4.59202 12.6471 4.60532 12.6497 4.60793L12.6497 4.608L12.6498 4.60806C12.6524 4.61067 12.6657 4.62396 12.6923 4.67719L13.1349 4.45589L12.6923 4.67719L14.8724 9.03734L14.9899 9.27236L15.2501 9.30888L20.0295 9.97968L20.0641 9.98453H20.099C20.1008 9.98453 20.1529 9.98936 20.2146 10.0768C20.2758 10.1635 20.29 10.2566 20.2795 10.3088Z" stroke="#121212"/>
</svg>
