<svg width="17" height="16" viewBox="0 0 17 16" fill="none" xmlns="http://www.w3.org/2000/svg">
<path d="M16.2795 6.30881L16.2698 6.35736V6.39132L16.2249 6.41377L16.1691 6.46822L12.7313 9.82218L12.5424 10.0065L12.588 10.2665L13.426 15.0434C13.4601 15.2529 13.3352 15.4164 13.1867 15.4657H13.1865H13.1862H13.1859H13.1857H13.1854H13.1851H13.1849H13.1846H13.1843H13.1841H13.1838H13.1835H13.1833H13.183H13.1827H13.1825H13.1822H13.1819H13.1817H13.1814H13.1811H13.1809H13.1806H13.1804H13.1801H13.1798H13.1796H13.1793H13.1791H13.1788H13.1785H13.1783H13.178H13.1778H13.1775H13.1773H13.177H13.1767H13.1765H13.1762H13.176H13.1757H13.1755H13.1752H13.175H13.1747H13.1745H13.1742H13.174H13.1737H13.1735H13.1732H13.173H13.1727H13.1725H13.1722H13.172H13.1717H13.1715H13.1712H13.171H13.1707H13.1705H13.1702H13.17H13.1697H13.1695H13.1692H13.169H13.1687H13.1685H13.1682H13.168H13.1677H13.1675H13.1673H13.167H13.1668H13.1665H13.1663H13.166H13.1658H13.1655H13.1653H13.165H13.1648H13.1645H13.1643H13.1641H13.1638H13.1636H13.1633H13.1631H13.1628H13.1626H13.1623H13.1621H13.1618H13.1616H13.1614H13.1611H13.1609H13.1606H13.1604H13.1601H13.1599H13.1596H13.1594H13.1591H13.1589H13.1586H13.1584H13.1581H13.1579H13.1576H13.1574H13.1571H13.1569H13.1566H13.1564H13.1562H13.1559H13.1557H13.1554H13.1552H13.1549H13.1546H13.1544H13.1541H13.1539H13.1536H13.1534H13.1531H13.1529H13.1526H13.1524H13.1521H13.1519H13.1516H13.1514H13.1511H13.1508H13.1506H13.1503H13.1501H13.1498H13.1496H13.1493H13.149H13.1488H13.1485H13.1483H13.148H13.1477H13.1475H13.1472H13.1469H13.1467H13.1464H13.1461H13.1459H13.1456H13.1454H13.1451H13.1448H13.1445H13.1443H13.144H13.1437H13.1435H13.1432H13.1429H13.1427H13.1424H13.1421H13.1418H13.1416H13.1413H13.141H13.1407H13.1405H13.1402H13.1399H13.1396H13.1393H13.1391H13.1388H13.1385H13.1382H13.1379H13.1376H13.1373H13.1371H13.1368H13.1365H13.1362H13.1359H13.1356H13.1353H13.135H13.1347H13.1344H13.1342H13.1339H13.1336H13.1333H13.133H13.1327H13.1324H13.1321H13.1318H13.1315H13.1312H13.1309H13.1305H13.1302H13.1299H13.1296H13.1293H13.129H13.1287H13.1284H13.1281H13.1278H13.1274H13.1271H13.1268H13.1265H13.1262H13.1258H13.1255H13.1252H13.1249H13.1245H13.1242H13.1239H13.1236H13.1232H13.1229H13.1226H13.1222H13.1219H13.1216H13.1212H13.1209H13.1206H13.1202H13.1199H13.1195H13.1192H13.1189H13.1185H13.1182H13.1178H13.1175H13.1171H13.1168H13.1164H13.116H13.1157H13.1153H13.115H13.1146H13.1143H13.1139H13.1135H13.1132H13.1128H13.1124H13.1121H13.1117H13.1113H13.1109H13.1106H13.1102H13.1098H13.1094H13.1091H13.1087H13.1083H13.1079H13.1075H13.1071H13.1067H13.1064H13.106H13.1056H13.1052H13.1048H13.1044H13.104H13.1036H13.1032H13.1028H13.1024H13.102H13.1016H13.1011H13.1007H13.1003H13.0999H13.0995H13.0991H13.0987H13.0982H13.0978H13.0974H13.097H13.0965H13.0961H13.0957H13.0952H13.0948H13.0944H13.0939H13.0935H13.093H13.0926H13.0922H13.0917H13.0913H13.0908H13.0904H13.0899H13.0895H13.089H13.0885H13.0881H13.0876H13.0871H13.0867H13.0862H13.0857H13.0853H13.0848H13.0843H13.0838H13.0834H13.0829H13.0824H13.0819H13.0814H13.0809H13.0805C13.037 15.4657 13.0033 15.4656 12.9721 15.4646C12.959 15.4642 12.948 15.4636 12.9388 15.463L12.8952 15.4399L8.61885 13.176L8.38491 13.0521L8.15096 13.176L3.87466 15.4399L3.86283 15.4462L3.85136 15.4531C3.70976 15.538 3.50793 15.5117 3.37502 15.3076C3.35843 15.2673 3.35207 15.2156 3.35103 15.0859L4.18184 10.3503L4.22745 10.0904L4.03852 9.90603L0.603322 6.55462C0.464969 6.41469 0.465562 6.22917 0.605101 6.08963L0.662474 6.03226L0.683708 5.98979C0.698224 5.98716 0.721131 5.98453 0.754642 5.98453H0.789558L0.824136 5.97968L5.60353 5.30888L5.86866 5.27167L5.98466 5.03038L8.06937 0.694191C8.20227 0.488456 8.40488 0.461721 8.5469 0.546935L8.56337 0.556815L8.58054 0.565402C8.63377 0.592015 8.64706 0.605318 8.64967 0.60793L8.64974 0.607996L8.64981 0.608062C8.65242 0.610672 8.66572 0.623964 8.69233 0.677192L10.8724 5.03734L10.9899 5.27236L11.2501 5.30888L16.0295 5.97968L16.0641 5.98453H16.099C16.1008 5.98453 16.1529 5.98936 16.2146 6.07682C16.2758 6.16348 16.29 6.25662 16.2795 6.30881Z" stroke="#121212"/>
</svg>
