<svg width="17" height="17" viewBox="0 0 17 17" fill="none" xmlns="http://www.w3.org/2000/svg">
<path d="M8.89697 0.896973C4.48642 0.896973 0.896973 4.48642 0.896973 8.89697C0.896973 13.3075 4.48642 16.897 8.89697 16.897C13.3075 16.897 16.897 13.3075 16.897 8.89697C16.897 4.48642 13.3075 0.896973 8.89697 0.896973ZM8.89697 15.7709C5.11985 15.7709 2.02307 12.6976 2.02307 8.89697C2.02307 5.09639 5.09639 2.02307 8.89697 2.02307C12.6976 2.02307 15.7709 5.09639 15.7709 8.89697C15.7709 12.6976 12.6741 15.7709 8.89697 15.7709Z" fill="url(#paint0_linear_2561_3075)"/>
<path d="M12.5803 8.26367H5.21368C4.9087 8.26367 4.65063 8.52174 4.65063 8.82672C4.65063 9.13171 4.9087 9.38977 5.21368 9.38977H12.5803C12.8852 9.38977 13.1433 9.13171 13.1433 8.82672C13.1433 8.52174 12.8852 8.26367 12.5803 8.26367Z" fill="url(#paint1_linear_2561_3075)"/>
<defs>
<linearGradient id="paint0_linear_2561_3075" x1="8.89697" y1="1.1021" x2="8.89697" y2="16.2816" gradientUnits="userSpaceOnUse">
<stop stop-color="#FF7312"/>
<stop offset="1" stop-color="#182452"/>
</linearGradient>
<linearGradient id="paint1_linear_2561_3075" x1="8.89697" y1="8.27811" x2="8.89697" y2="9.34646" gradientUnits="userSpaceOnUse">
<stop stop-color="#FF7312"/>
<stop offset="1" stop-color="#182452"/>
</linearGradient>
</defs>
</svg>
