<svg width="17" height="16" viewBox="0 0 17 16" fill="none" xmlns="http://www.w3.org/2000/svg">
<g clip-path="url(#clip0_9417_2420)">
<path d="M8.79167 4.67709C9.71167 4.67709 10.545 5.05043 11.1517 5.65043L10.025 6.77709C9.97893 6.82409 9.94781 6.88367 9.93554 6.94833C9.92328 7.01299 9.93044 7.07983 9.9561 7.14043C9.98177 7.20103 10.0248 7.25268 10.0798 7.28886C10.1347 7.32504 10.1992 7.34415 10.265 7.34376H13.125C13.3117 7.34376 13.4583 7.19709 13.4583 7.01043V4.15043C13.4583 3.85043 13.0983 3.70376 12.8917 3.91709L12.0917 4.71709C11.6601 4.28087 11.1461 3.9348 10.5796 3.69904C10.0131 3.46327 9.4053 3.3425 8.79167 3.34376C6.765 3.34376 5.045 4.63709 4.405 6.43709C4.245 6.87709 4.55833 7.34376 5.025 7.34376C5.305 7.34376 5.55167 7.17043 5.645 6.90376C5.87485 6.25278 6.30088 5.68908 6.86443 5.2903C7.42797 4.89152 8.1013 4.67728 8.79167 4.67709ZM12.5517 10.7704C12.8183 10.4104 13.0317 10.0038 13.185 9.57043C13.3383 9.13709 13.0183 8.67709 12.5583 8.67709C12.422 8.67658 12.2889 8.71872 12.1777 8.79762C12.0666 8.87653 11.9829 8.98823 11.9383 9.11709C11.7085 9.76807 11.2825 10.3318 10.7189 10.7306C10.1554 11.1293 9.48204 11.3436 8.79167 11.3438C7.87167 11.3438 7.03833 10.9704 6.43167 10.3704L7.55833 9.24376C7.6044 9.19676 7.63553 9.13718 7.64779 9.07252C7.66005 9.00786 7.6529 8.94102 7.62723 8.88042C7.60157 8.81982 7.55854 8.76818 7.50357 8.73199C7.44859 8.69581 7.38414 8.67671 7.31833 8.67709H4.45833C4.27167 8.67709 4.125 8.82376 4.125 9.01043V11.8704C4.125 12.1704 4.485 12.3171 4.69167 12.1038L5.49167 11.3038C6.27837 12.0946 7.32284 12.5767 8.43502 12.6623C9.5472 12.7479 10.6532 12.4315 11.5517 11.7704C11.5517 11.7704 11.9364 11.484 12.1302 11.2708C12.2865 11.099 12.5517 10.7704 12.5517 10.7704Z" fill="#FF7312"/>
</g>
<defs>
<clipPath id="clip0_9417_2420">
<rect width="16" height="16" fill="white" transform="translate(0.5)"/>
</clipPath>
</defs>
</svg>
