<svg width="24" height="24" viewBox="0 0 24 24" fill="none" xmlns="http://www.w3.org/2000/svg">
<path d="M12.0007 7.71449C13.1837 7.71449 14.2552 8.19454 15.0353 8.96606L13.5866 10.4148C13.5273 10.4752 13.4873 10.5518 13.4715 10.635C13.4558 10.7181 13.465 10.8041 13.498 10.882C13.531 10.9599 13.5863 11.0263 13.657 11.0728C13.7277 11.1194 13.8105 11.1439 13.8952 11.1434H17.5727C17.8127 11.1434 18.0013 10.9548 18.0013 10.7148V7.03727C18.0013 6.65151 17.5384 6.46292 17.2727 6.73724L16.244 7.76592C15.6891 7.205 15.0281 6.76001 14.2997 6.45685C13.5712 6.15368 12.7897 5.99839 12.0007 6.00001C9.39466 6.00001 7.18299 7.66305 6.36004 9.9776C6.1543 10.5434 6.5572 11.1434 7.15727 11.1434C7.51731 11.1434 7.83449 10.9206 7.9545 10.5777C8.25005 9.74059 8.79787 9.01575 9.52251 8.50298C10.2471 7.99021 11.113 7.71473 12.0007 7.71449ZM16.8355 15.5496C17.1784 15.0867 17.4527 14.5638 17.6499 14.0066C17.847 13.4494 17.4356 12.8579 16.8441 12.8579C16.6688 12.8572 16.4976 12.9114 16.3547 13.0129C16.2117 13.1144 16.1041 13.258 16.0468 13.4237C15.7513 14.2608 15.2035 14.9856 14.4788 15.4984C13.7542 16.0111 12.8884 16.2866 12.0007 16.2869C10.8177 16.2869 9.74613 15.8068 8.96604 15.0353L10.4148 13.5866C10.474 13.5261 10.514 13.4495 10.5298 13.3664C10.5456 13.2832 10.5364 13.1973 10.5034 13.1194C10.4704 13.0414 10.415 12.975 10.3443 12.9285C10.2737 12.882 10.1908 12.8574 10.1062 12.8579H6.42862C6.18859 12.8579 6 13.0465 6 13.2865V16.9641C6 17.3498 6.46291 17.5384 6.72865 17.2641L7.75734 16.2354C8.76892 17.2523 10.112 17.8722 11.5421 17.9823C12.9722 18.0924 14.3943 17.6855 15.5496 16.8355L16.2011 16.2869L16.8355 15.5496Z" fill="#868686"/>
</svg>
