<svg width="17" height="16" viewBox="0 0 17 16" fill="none" xmlns="http://www.w3.org/2000/svg">
<path d="M8.58987 0C5.24645 0 2.29902 2.05257 1.12016 5.14571L1.07959 5.06686C0.935017 4.78629 0.591017 4.67371 0.309874 4.82057C0.0293023 4.96514 -0.0809834 5.30914 0.063588 5.59029L0.891017 7.19714C0.972731 7.35543 1.12359 7.46686 1.29845 7.49771C1.33216 7.504 1.3653 7.50686 1.39902 7.50686C1.54073 7.50686 1.67902 7.45371 1.7853 7.35657L3.30416 5.964C3.53673 5.75086 3.55273 5.38914 3.33959 5.15657C3.12645 4.92457 2.76473 4.908 2.53216 5.12114L2.25216 5.37771C3.30473 2.824 5.78702 1.14286 8.59045 1.14286C12.3716 1.14286 15.4476 4.21886 15.4476 8C15.4476 11.7811 12.3716 14.8571 8.59045 14.8571C5.79273 14.8571 3.30016 13.184 2.2413 10.5943C2.12187 10.3029 1.78759 10.1629 1.49616 10.2817C1.20416 10.4011 1.06416 10.7349 1.18359 11.0274C2.41959 14.048 5.32702 16 8.59102 16C13.0024 16 16.591 12.4114 16.591 8C16.591 3.58857 13.0013 0 8.58987 0Z" fill="url(#paint0_linear_2564_3089)"/>
<path d="M10.8631 10.2397C10.7442 10.2397 10.6237 10.2025 10.5208 10.1254L8.23508 8.4111C8.09108 8.30368 8.00651 8.13396 8.00651 7.95396V5.09682C8.00651 4.78082 8.26251 4.52539 8.57794 4.52539C8.89337 4.52539 9.14937 4.78082 9.14937 5.09682V7.66825L11.2065 9.21111C11.4591 9.40025 11.5099 9.75853 11.3208 10.0105C11.2088 10.1608 11.0368 10.2397 10.8631 10.2397Z" fill="url(#paint1_linear_2564_3089)"/>
<defs>
<linearGradient id="paint0_linear_2564_3089" x1="8.29551" y1="0.205128" x2="8.29551" y2="15.3846" gradientUnits="userSpaceOnUse">
<stop stop-color="#FF7312"/>
<stop offset="1" stop-color="#182452"/>
</linearGradient>
<linearGradient id="paint1_linear_2564_3089" x1="9.72078" y1="4.59865" x2="9.72078" y2="10.0199" gradientUnits="userSpaceOnUse">
<stop stop-color="#FF7312"/>
<stop offset="1" stop-color="#182452"/>
</linearGradient>
</defs>
</svg>
