<svg width="24" height="24" viewBox="0 0 24 24" fill="none" xmlns="http://www.w3.org/2000/svg">
<path d="M14.9835 14.2203C15.8753 13.1395 16.4386 11.7533 16.4386 10.2261C16.4386 6.79589 13.6458 4 10.2193 4C6.79281 4 4 6.79589 4 10.2261C4 13.6564 6.79281 16.4523 10.2193 16.4523C11.7213 16.4523 13.1294 15.9119 14.209 14.9956L19.0436 19.8355C19.161 19.953 19.3018 20 19.4426 20C19.5834 20 19.7242 19.953 19.8416 19.8355C20.0528 19.6241 20.0528 19.2482 19.8416 19.0367L14.9835 14.2203ZM10.1958 15.3245C7.37954 15.3245 5.10304 13.0455 5.10304 10.2261C5.10304 7.40676 7.37954 5.12775 10.1958 5.12775C13.0121 5.12775 15.2886 7.40676 15.2886 10.2261C15.2886 13.0455 13.0121 15.3245 10.1958 15.3245Z" fill="#868686"/>
</svg>
