<svg width="24" height="24" viewBox="0 0 24 24" fill="none" xmlns="http://www.w3.org/2000/svg">
<path d="M5.88604 14.9924C6.99413 16.1021 8.46977 16.7682 10.0349 16.8654C11.6001 16.9625 13.1468 16.4839 14.3836 15.5198L18.6392 19.7754C18.7901 19.9211 18.9922 20.0018 19.202 20C19.4119 19.9981 19.6126 19.914 19.7609 19.7656C19.9093 19.6173 19.9935 19.4165 19.9953 19.2067C19.9971 18.9969 19.9165 18.7948 19.7707 18.6439L15.5151 14.3883C16.522 13.0961 16.9981 11.4684 16.8462 9.83723C16.6943 8.20608 15.9259 6.6943 14.6977 5.61022C13.4695 4.52613 11.874 3.9514 10.2366 4.00322C8.59918 4.05505 7.04323 4.72954 5.88604 5.88912C5.28811 6.48675 4.81379 7.19632 4.49018 7.97731C4.16656 8.7583 4 9.5954 4 10.4408C4 11.2862 4.16656 12.1233 4.49018 12.9043C4.81379 13.6852 5.28811 14.3948 5.88604 14.9924ZM7.01755 7.02224C7.80863 6.23118 8.84952 5.73888 9.96287 5.62921C11.0762 5.51954 12.1932 5.7993 13.1234 6.42081C14.0536 7.04232 14.7395 7.96714 15.0643 9.03769C15.3891 10.1082 15.3327 11.2583 14.9047 12.2919C14.4766 13.3255 13.7034 14.1787 12.7168 14.7062C11.7302 15.2337 10.5913 15.4027 9.49401 15.1846C8.39675 14.9664 7.40905 14.3746 6.69922 13.5099C5.98939 12.6452 5.60133 11.5611 5.60116 10.4424C5.59896 9.80667 5.72304 9.17684 5.96618 8.58946C6.20932 8.00207 6.56669 7.46882 7.01755 7.02064V7.02224Z" fill="#121212"/>
</svg>
