<svg width="242" height="172" viewBox="0 0 242 172" fill="none" xmlns="http://www.w3.org/2000/svg">
<path d="M105.318 26.9666C105.318 25.1458 106.041 23.7262 107.487 22.7087L108.183 22.2273C108.844 21.799 109.304 21.4466 109.562 21.1697C109.821 20.8932 109.951 20.5495 109.951 20.1386C109.951 19.1033 109.084 18.5856 107.353 18.5856C106.549 18.5856 105.719 18.6929 104.862 18.907C104.006 19.1207 103.193 19.4252 102.426 19.8172V15.6936C104.068 14.944 105.907 14.5693 107.942 14.5693C110.137 14.5693 111.878 15.029 113.163 15.9484C114.449 16.8677 115.091 18.1395 115.091 19.7636C115.091 20.6742 114.886 21.4104 114.476 21.9725C114.065 22.5347 113.369 23.164 112.387 23.8601C111.727 24.3425 111.245 24.7127 110.941 24.9718C110.638 25.2309 110.41 25.5204 110.259 25.8419C110.107 26.1633 110.031 26.5563 110.031 27.0198V27.5288H105.318V26.9666ZM105.867 33.3794C105.394 32.9067 105.157 32.3218 105.157 31.6253C105.157 30.9114 105.394 30.3222 105.867 29.8581C106.34 29.3941 106.934 29.1621 107.648 29.1621C108.344 29.1621 108.938 29.3984 109.428 29.8717C109.919 30.3454 110.164 30.9293 110.164 31.6258C110.164 32.3218 109.918 32.9067 109.428 33.3799C108.937 33.8526 108.344 34.0895 107.648 34.0895C106.934 34.089 106.34 33.8526 105.867 33.3794Z" fill="#FF7312"/>
<path d="M108.261 46.4484C95.6818 46.4484 85.448 36.2146 85.448 23.6356C85.448 11.0565 95.6818 0.823242 108.261 0.823242C120.84 0.823242 131.073 11.057 131.073 23.6356C131.073 36.2146 120.84 46.4484 108.261 46.4484ZM108.261 2.22548C96.4552 2.22548 86.8507 11.8299 86.8507 23.6351C86.8507 35.4408 96.4552 45.0452 108.261 45.0452C120.066 45.0452 129.67 35.4408 129.67 23.6351C129.67 11.8299 120.066 2.22548 108.261 2.22548Z" fill="#FF7312"/>
<path d="M107.222 171.824C163.254 171.824 208.677 167.838 208.677 162.921C208.677 158.004 163.254 154.018 107.222 154.018C51.1906 154.018 5.76782 158.004 5.76782 162.921C5.76782 167.838 51.1906 171.824 107.222 171.824Z" fill="#F2F2F2"/>
<path d="M187.052 158.877C187.052 158.877 171.977 128.274 217.964 114.934C217.964 114.934 221.167 161.308 187.052 158.877Z" fill="#95C6AF"/>
<mask id="mask0_5309_3618" style="mask-type:luminance" maskUnits="userSpaceOnUse" x="184" y="114" width="35" height="45">
<path d="M187.052 158.876C187.052 158.876 171.977 128.273 217.964 114.933C217.964 114.933 221.167 161.307 187.052 158.876Z" fill="white"/>
</mask>
<g mask="url(#mask0_5309_3618)">
<path d="M224.131 122.056L223.867 121.615C214.776 127.027 206.501 128.926 204.057 129.4C206.334 126.711 208.579 124.246 210.612 122.112C211.526 121.942 217.791 120.641 224.152 115.901L223.845 115.49C218.49 119.48 213.222 120.992 211.243 121.453C215.659 116.861 218.923 113.952 219.021 113.865L218.679 113.481C218.58 113.569 215.246 116.542 210.751 121.225C211.185 115.396 214.046 109.687 214.076 109.628L213.617 109.396C213.586 109.458 210.475 115.658 210.201 121.802C208.163 123.944 205.912 126.417 203.631 129.115C203.795 121.486 207.061 112.549 207.095 112.456L206.612 112.279C206.576 112.374 203.098 121.888 203.108 129.736C200.908 132.366 198.695 135.198 196.626 138.141C196.224 127.153 199.471 115.819 199.505 115.703L199.011 115.561C198.976 115.679 195.57 127.558 196.14 138.839C194.609 141.055 193.167 143.329 191.884 145.623C189.608 133.81 192.541 123.087 192.571 122.979L192.076 122.84C192.045 122.952 188.975 134.153 191.497 146.327C190.238 148.639 189.148 150.966 188.292 153.271C185.381 145.009 184.816 133.177 184.942 132.494L184.435 132.401C184.3 133.141 184.824 145.485 188.018 154.029C187.237 156.263 186.683 158.472 186.425 160.619L186.936 160.68C187.184 158.607 187.715 156.475 188.46 154.316C189.06 154.441 190.792 154.736 193.771 154.736C194.006 154.736 194.25 154.735 194.501 154.731C198.348 154.671 204.84 154.084 213.915 151.632L213.78 151.137C198.304 155.319 190.182 154.126 188.63 153.825C189.491 151.433 190.616 149.012 191.923 146.607C192.337 146.647 193.416 146.735 194.987 146.735C199.934 146.735 209.657 145.858 218.114 139.84L217.816 139.422C207.209 146.97 194.578 146.318 192.193 146.116C193.506 143.745 194.992 141.394 196.575 139.103C198.162 138.942 212.29 137.323 221.702 129.987L221.385 129.583C212.671 136.375 199.833 138.21 196.964 138.544C199.058 135.558 201.306 132.683 203.538 130.017C204.75 129.813 213.938 128.123 224.131 122.056Z" fill="#F0F0F0"/>
</g>
<path opacity="0.1" d="M217.964 114.934C215.243 115.723 212.744 116.574 210.435 117.474C211.431 120.453 211.975 123.673 211.975 127.033C211.975 142.302 200.754 154.679 186.911 154.679C186.471 154.679 186.032 154.666 185.597 154.641C186.263 157.271 187.052 158.877 187.052 158.877C221.167 161.308 217.964 114.934 217.964 114.934Z" fill="#95C6AF"/>
<path d="M41.3195 155.643C41.3195 155.643 14.6088 162.013 12.2756 123.625C12.2756 123.625 49.2728 129.356 41.3195 155.643Z" fill="#95C6AF"/>
<mask id="mask1_5309_3618" style="mask-type:luminance" maskUnits="userSpaceOnUse" x="12" y="123" width="31" height="34">
<path d="M41.319 155.645C41.319 155.645 14.6083 162.015 12.2751 123.627C12.2751 123.627 49.2723 129.358 41.319 155.645Z" fill="white"/>
</mask>
<g mask="url(#mask1_5309_3618)">
<path d="M18.9631 120.062L18.5702 120.19C21.2108 128.272 21.2369 135.09 21.1765 137.089C19.4668 134.828 17.9287 132.631 16.612 130.66C16.6401 129.914 16.7285 124.776 14.1314 118.951L13.7544 119.119C15.9397 124.022 16.1949 128.416 16.2055 130.048C13.3812 125.774 11.674 122.701 11.6232 122.608L11.2612 122.808C11.3124 122.901 13.0569 126.041 15.9402 130.393C11.4386 129.018 7.46004 125.762 7.41895 125.728L7.15552 126.047C7.19854 126.083 11.5184 129.62 16.295 130.927C17.6174 132.904 19.1608 135.106 20.8763 137.372C14.9125 135.888 8.47027 131.742 8.40356 131.699L8.1788 132.045C8.24744 132.09 15.1049 136.505 21.2722 137.892C22.9485 140.082 24.7809 142.319 26.7264 144.462C18.0235 142.824 9.69511 138.267 9.61004 138.22L9.41041 138.582C9.49742 138.631 18.225 143.409 27.1876 144.967C28.6575 146.559 30.1883 148.093 31.7626 149.506C22.0799 149.189 14.1764 144.987 14.0961 144.944L13.8999 145.307C13.9825 145.352 22.2374 149.746 32.2474 149.933C33.8406 151.33 35.4753 152.597 37.1342 153.677C30.1283 154.489 20.7332 152.83 20.2189 152.61L20.0565 152.99C20.6133 153.228 30.4034 155.011 37.6809 154.026C39.2978 155.035 40.9349 155.862 42.5754 156.445L42.7137 156.056C41.1297 155.493 39.5481 154.699 37.9849 153.732C38.1894 153.284 38.7284 151.98 39.2557 149.647C39.2973 149.463 39.3393 149.271 39.3809 149.074C40.0151 146.05 40.7039 140.862 40.3853 133.318L39.9725 133.336C40.5163 146.2 38.1406 152.35 37.6292 153.512C35.9026 152.412 34.2002 151.101 32.5418 149.65C32.6467 149.333 32.9067 148.504 33.1851 147.273C34.0615 143.398 35.0949 135.627 31.8656 127.934L31.4847 128.094C35.5353 137.742 32.7859 147.519 32.2049 149.351C30.5755 147.901 28.991 146.32 27.4718 144.673C27.6265 143.402 28.8576 132.049 24.7616 123.374L24.3884 123.55C28.1804 131.582 27.3471 141.963 27.102 144.269C25.1265 142.098 23.267 139.828 21.568 137.605C21.6236 136.62 21.9237 129.123 18.9631 120.062Z" fill="#F0F0F0"/>
</g>
<path opacity="0.1" d="M12.2756 123.626C12.4134 125.897 12.6396 128.006 12.9378 129.974C15.4547 129.724 18.0803 129.869 20.72 130.466C32.7142 133.179 40.4495 144.167 37.9974 155.008C37.9191 155.353 37.8311 155.695 37.7344 156.031C39.9192 155.977 41.3195 155.644 41.3195 155.644C49.2728 129.356 12.2756 123.626 12.2756 123.626Z" fill="#0046A0"/>
<path d="M183.507 138.618C183.507 140.745 181.767 142.485 179.64 142.485H34.8034C32.6766 142.485 30.9365 140.745 30.9365 138.618V51.3405C30.9365 49.2137 32.6766 47.4736 34.8034 47.4736H179.64C181.767 47.4736 183.507 49.2137 183.507 51.3405V138.618Z" fill="#182452"/>
<path d="M179.201 52.1328H35.2427V137.824H179.201V52.1328Z" fill="#E4E9FF"/>
<path d="M130.908 142.485H83.5371V154.349H130.908V142.485Z" fill="#182452"/>
<path d="M153.579 161.159C144.916 154.165 127.409 149.383 107.222 149.383C87.0341 149.383 69.5276 154.165 60.8643 161.159H153.579Z" fill="#182452"/>
<path d="M60.8643 162.367C61.6923 162.367 62.5204 162.367 63.3484 162.367C65.6013 162.367 67.8548 162.367 70.1077 162.367C73.4231 162.367 76.7385 162.367 80.0539 162.367C84.1161 162.367 88.1783 162.367 92.2405 162.367C96.6903 162.367 101.141 162.367 105.59 162.367C110.063 162.367 114.535 162.367 119.007 162.367C123.196 162.367 127.385 162.367 131.574 162.367C135.113 162.367 138.653 162.367 142.192 162.367C144.727 162.367 147.263 162.367 149.797 162.367C151.004 162.367 152.216 162.397 153.423 162.367C153.475 162.366 153.527 162.367 153.579 162.367C155.134 162.367 155.137 159.951 153.579 159.951C152.751 159.951 151.923 159.951 151.095 159.951C148.842 159.951 146.588 159.951 144.335 159.951C141.02 159.951 137.705 159.951 134.389 159.951C130.327 159.951 126.265 159.951 122.203 159.951C117.753 159.951 113.303 159.951 108.853 159.951C104.381 159.951 99.9085 159.951 95.4365 159.951C91.2476 159.951 87.0583 159.951 82.8695 159.951C79.3298 159.951 75.7906 159.951 72.2509 159.951C69.7157 159.951 67.1805 159.951 64.6457 159.951C63.4387 159.951 62.2274 159.921 61.0205 159.951C60.9683 159.952 60.9161 159.951 60.8643 159.951C59.3094 159.951 59.3065 162.367 60.8643 162.367Z" fill="#182452"/>
<path d="M151.532 95.597C151.532 100.015 147.734 103.63 143.094 103.63H71.7501C67.1088 103.63 63.312 100.015 63.312 95.597C63.312 91.1785 67.1093 87.5635 71.7501 87.5635H143.094C147.734 87.5635 151.532 91.1785 151.532 95.597Z" fill="#E0E0E0"/>
<path d="M80.9592 99.384L78.0315 96.6598C78.4733 96.0343 78.7014 95.287 78.6734 94.5083C78.6396 93.5682 78.2418 92.6977 77.553 92.0567C76.8642 91.4158 75.9675 91.0818 75.0274 91.1156C74.0872 91.1495 73.2167 91.5473 72.5763 92.2361C71.9353 92.9248 71.6008 93.822 71.6347 94.7616C71.6685 95.7018 72.0663 96.5723 72.7551 97.2132C73.4439 97.8542 74.3405 98.1882 75.2807 98.1544C76.0589 98.1263 76.7878 97.8455 77.3799 97.3597L80.3077 100.084L80.9592 99.384ZM73.4067 96.5133C72.9049 96.0464 72.6154 95.4122 72.5908 94.7278C72.5661 94.0429 72.8097 93.3898 73.2766 92.8881C73.7431 92.3864 74.3778 92.0969 75.0622 92.0722C75.7471 92.0475 76.4001 92.2912 76.9019 92.7576C77.4036 93.2245 77.6931 93.8587 77.7178 94.5432C77.7424 95.2281 77.4988 95.8811 77.0319 96.3828C76.565 96.8846 75.9308 97.1741 75.2464 97.1987C74.5614 97.2239 73.9079 96.9803 73.4067 96.5133Z" fill="#FF7312"/>
<path d="M93.6547 96.2888C94.112 96.2888 94.4827 95.9181 94.4827 95.4608C94.4827 95.0035 94.112 94.6328 93.6547 94.6328C93.1974 94.6328 92.8267 95.0035 92.8267 95.4608C92.8267 95.9181 93.1974 96.2888 93.6547 96.2888Z" fill="#B6C3F2"/>
<path d="M103.322 96.2888C103.779 96.2888 104.15 95.9181 104.15 95.4608C104.15 95.0035 103.779 94.6328 103.322 94.6328C102.865 94.6328 102.494 95.0035 102.494 95.4608C102.494 95.9181 102.865 96.2888 103.322 96.2888Z" fill="#B6C3F2"/>
<path d="M112.989 96.2888C113.446 96.2888 113.817 95.9181 113.817 95.4608C113.817 95.0035 113.446 94.6328 112.989 94.6328C112.532 94.6328 112.161 95.0035 112.161 95.4608C112.161 95.9181 112.532 96.2888 112.989 96.2888Z" fill="#B6C3F2"/>
<path d="M122.656 96.2888C123.114 96.2888 123.484 95.9181 123.484 95.4608C123.484 95.0035 123.114 94.6328 122.656 94.6328C122.199 94.6328 121.828 95.0035 121.828 95.4608C121.828 95.9181 122.199 96.2888 122.656 96.2888Z" fill="#B6C3F2"/>
<path d="M236.602 29.9824H172.775V100.205H236.602V29.9824Z" fill="#F2F2F2"/>
<path d="M236.602 29.9824H172.775V37.8985H236.602V29.9824Z" fill="#E0E0E0"/>
<path d="M179.682 34.1232C179.682 35.1237 178.871 35.9348 177.87 35.9348C176.87 35.9348 176.059 35.1237 176.059 34.1232C176.059 33.1226 176.87 32.3115 177.87 32.3115C178.871 32.3115 179.682 33.1231 179.682 34.1232Z" fill="#EB725F"/>
<path d="M185.782 34.1232C185.782 35.1237 184.971 35.9348 183.97 35.9348C182.97 35.9348 182.158 35.1237 182.158 34.1232C182.158 33.1226 182.97 32.3115 183.97 32.3115C184.971 32.3115 185.782 33.1231 185.782 34.1232Z" fill="#F9AB43"/>
<path d="M191.882 34.1232C191.882 35.1237 191.071 35.9348 190.07 35.9348C189.069 35.9348 188.258 35.1237 188.258 34.1232C188.258 33.1226 189.069 32.3115 190.07 32.3115C191.071 32.3115 191.882 33.1231 191.882 34.1232Z" fill="#6E7FDD"/>
<path d="M217.86 74.0025L215.223 76.6387L238.85 100.266L241.487 97.6295L217.86 74.0025Z" fill="#FF7312"/>
<path d="M218.679 72.496L213.719 77.4561L220.633 84.3697L225.593 79.4097L218.679 72.496Z" fill="#FF7312"/>
<path d="M218.049 76.8241C211.039 83.8334 199.633 83.8339 192.624 76.8241C185.615 69.8144 185.615 58.409 192.624 51.3997C199.633 44.3904 211.039 44.39 218.049 51.3997C225.058 58.409 225.058 69.8144 218.049 76.8241ZM195.26 54.0355C189.704 59.5917 189.704 68.6316 195.26 74.1874C200.816 79.7432 209.856 79.7436 215.412 74.1874C220.968 68.6311 220.968 59.5913 215.412 54.0355C209.856 48.4797 200.816 48.4792 195.26 54.0355Z" fill="#FF7312"/>
<path d="M213.219 58.5511L210.898 56.2295L205.336 61.7916L199.774 56.2295L197.452 58.5511L203.014 64.1131L197.452 69.6747L199.774 71.9968L205.336 66.4347L210.898 71.9968L213.219 69.6747L207.657 64.1131L213.219 58.5511Z" fill="white"/>
<path d="M35.9995 11.1836H3.52227C1.58495 11.1836 0 12.7685 0 14.7059V37.4873C0 39.4246 1.58495 41.0095 3.52227 41.0095H14.9335L19.7609 46.8897L24.5882 41.0095H35.9995C37.9368 41.0095 39.5218 39.4246 39.5218 37.4873V14.7059C39.5218 12.7685 37.9368 11.1836 35.9995 11.1836Z" fill="#F2F2F2"/>
<path d="M19.7609 15.416C13.8306 15.416 9.0061 20.2405 9.0061 26.1709C9.0061 32.1012 13.8306 36.9257 19.7609 36.9257C25.6913 36.9257 30.5158 32.1008 30.5158 26.1709C30.5158 20.2405 25.6913 15.416 19.7609 15.416ZM19.7609 17.4437C21.8022 17.4437 23.6805 18.1504 25.1688 19.3288L12.9194 31.5787C11.741 30.0904 11.0343 28.2121 11.0343 26.1709C11.0338 21.359 14.9491 17.4437 19.7609 17.4437ZM19.7609 34.8975C17.7197 34.8975 15.8413 34.1913 14.3531 33.0124L26.6025 20.763C27.7814 22.2508 28.4876 24.1296 28.4876 26.1709C28.4881 30.9827 24.5733 34.8975 19.7609 34.8975Z" fill="#E0E0E0"/>
<path d="M171.772 107.378L144.836 107.2L144.515 155.861L186.062 156.136L186.291 121.471L171.772 107.378Z" fill="#F2F2F2"/>
<path d="M171.772 107.378L186.291 121.471L171.68 121.375L171.772 107.378Z" fill="#E0E0E0"/>
<path d="M174.26 125.517L171.695 122.918L165.466 129.064L159.319 122.836L156.719 125.402L162.866 131.63L156.637 137.777L159.203 140.376L165.432 134.23L171.579 140.458L174.179 137.892L168.032 131.664L174.26 125.517Z" fill="#E0E0E0"/>
<path d="M13.1773 72.8105L0.275391 77.009L7.85986 100.317L27.7609 93.8417L22.3579 77.2377L13.1773 72.8105Z" fill="#F2F2F2"/>
<path d="M13.1772 72.8105L22.3578 77.2377L15.3592 79.5148L13.1772 72.8105Z" fill="#E0E0E0"/>
<path d="M17.251 81.0843L15.6114 80.25L13.6122 84.1783L9.68341 82.1786L8.84912 83.8182L12.7774 85.8179L10.7777 89.7462L12.4173 90.5804L14.417 86.6521L18.3453 88.6518L19.1801 87.0118L15.2518 85.0126L17.251 81.0843Z" fill="#E0E0E0"/>
<path d="M49.9755 156.739L48.8458 156.736C48.61 155.737 48.2199 154.8 47.7008 153.948L48.5036 153.15C49.1296 152.529 49.1334 151.508 48.5114 150.882L47.5799 149.943C46.9578 149.317 45.937 149.314 45.311 149.936L44.5081 150.733C43.6589 150.208 42.725 149.811 41.7283 149.569L41.7322 148.439C41.7351 147.556 41.0158 146.831 40.1332 146.829L38.8112 146.824C37.9286 146.821 37.204 147.541 37.2011 148.423L37.1973 149.553C36.1986 149.79 35.2619 150.179 34.4092 150.698L33.6122 149.896C32.9901 149.269 31.9692 149.266 31.3432 149.888L30.405 150.819C29.7791 151.441 29.7752 152.462 30.3973 153.088L31.1944 153.891C30.6694 154.74 30.2731 155.674 30.0299 156.671L28.8998 156.667C28.0172 156.665 27.2927 157.384 27.2898 158.266L27.2854 159.588C27.2825 160.471 28.0017 161.196 28.8844 161.198L30.0145 161.202C30.2504 162.201 30.6404 163.138 31.1596 163.99L30.3567 164.787C29.7307 165.409 29.7269 166.43 30.349 167.056L31.2804 167.995C31.902 168.621 32.9234 168.624 33.5498 168.002L34.3522 167.205C35.2015 167.73 36.1353 168.127 37.1325 168.37L37.1286 169.5C37.1257 170.382 37.845 171.107 38.7276 171.11L40.0496 171.114C40.9322 171.117 41.6563 170.398 41.6597 169.515L41.6635 168.385C42.6622 168.149 43.5989 167.759 44.4516 167.24L45.2487 168.043C45.8703 168.669 46.8916 168.673 47.5176 168.051L48.4558 167.119C49.0817 166.498 49.0856 165.476 48.4635 164.85L47.6664 164.048C48.1914 163.199 48.5877 162.265 48.8309 161.268L49.9605 161.271C50.8431 161.274 51.5677 160.555 51.5706 159.673L51.5749 158.351C51.5773 157.467 50.8576 156.743 49.9755 156.739ZM39.414 163.446C36.9416 163.437 34.9443 161.426 34.9525 158.953C34.9612 156.481 36.9725 154.484 39.4449 154.492C41.9173 154.501 43.9146 156.511 43.9063 158.984C43.8976 161.457 41.8864 163.454 39.414 163.446Z" fill="#DEE5FF"/>
<path d="M39.4517 152.582C35.9241 152.57 33.0544 155.42 33.0423 158.947C33.0302 162.475 35.8796 165.344 39.4072 165.356C42.9348 165.368 45.804 162.519 45.8166 158.991C45.8287 155.464 42.9793 152.594 39.4517 152.582ZM39.4159 162.936C37.2253 162.928 35.4557 161.146 35.463 158.956C35.4707 156.765 37.2524 154.996 39.443 155.003C41.6336 155.01 43.4032 156.792 43.3959 158.983C43.3882 161.173 41.6065 162.943 39.4159 162.936Z" fill="#DEE5FF"/>
</svg>
