<svg width="20" height="20" viewBox="0 0 20 20" fill="none" xmlns="http://www.w3.org/2000/svg">
<path d="M10.8333 20H9.16667C8.4775 20 7.91667 19.4392 7.91667 18.75V17.1983C7.38327 17.0442 6.86882 16.8307 6.38292 16.5621L5.28542 17.66C4.81292 18.1325 3.99 18.1317 3.5175 17.66L2.33875 16.4817C2.1025 16.2458 1.9725 15.9317 1.9725 15.5979C1.9725 15.2642 2.1025 14.95 2.33875 14.7142L3.43667 13.6158C3.16799 13.1303 2.95484 12.6161 2.80125 12.0829H1.25C0.560833 12.0829 0 11.5221 0 10.8329V9.16625C0 8.83208 0.13 8.51833 0.365833 8.2825C0.481709 8.16607 0.619507 8.07376 0.771266 8.0109C0.923025 7.94803 1.08574 7.91587 1.25 7.91625H2.80167C2.95583 7.38375 3.16833 6.87 3.4375 6.38333L2.34 5.28542C2.10587 5.0509 1.97436 4.73305 1.97436 4.40167C1.97436 4.07028 2.10587 3.75243 2.34 3.51792L3.51833 2.33917C3.99042 1.8675 4.81375 1.86667 5.28625 2.33917L6.38417 3.43708C6.86969 3.16877 7.38373 2.95563 7.91667 2.80167V1.25C7.91667 0.560833 8.4775 0 9.16667 0H10.8333C11.5225 0 12.0833 0.560833 12.0833 1.25V2.80167C12.6167 2.95583 13.13 3.16875 13.6158 3.43708L14.7137 2.33917C15.1862 1.8675 16.0092 1.86667 16.4817 2.33917L17.6604 3.5175C17.8967 3.75333 18.0267 4.0675 18.0267 4.40125C18.0267 4.735 17.8967 5.04917 17.6604 5.285L16.5629 6.38292C16.8317 6.86857 17.045 7.38291 17.1987 7.91625H18.75C19.4392 7.91625 20 8.47708 20 9.16625V10.8329C20 11.1671 19.87 11.4808 19.6342 11.7167C19.3983 11.9525 19.0842 12.0829 18.75 12.0829H17.1983C17.0443 12.6162 16.831 13.1305 16.5625 13.6163L17.66 14.7142C17.8941 14.9487 18.0256 15.2665 18.0256 15.5979C18.0256 15.9293 17.8941 16.2471 17.66 16.4817L16.4817 17.6604C16.0092 18.1325 15.1862 18.1325 14.7137 17.6604L13.6167 16.5625C13.131 16.8309 12.6168 17.0442 12.0837 17.1983V18.75C12.0832 19.0814 11.9513 19.3991 11.7169 19.6334C11.4825 19.8677 11.1648 19.9996 10.8333 20ZM6.31542 15.6242C6.39 15.6242 6.46542 15.6442 6.5325 15.685C7.12049 16.045 7.76114 16.3108 8.43125 16.4729C8.52211 16.4949 8.60294 16.5468 8.66076 16.6202C8.71857 16.6937 8.75 16.7844 8.75 16.8779V18.75C8.75 18.98 8.93708 19.1667 9.16667 19.1667H10.8333C11.0629 19.1667 11.25 18.98 11.25 18.75V16.8779C11.25 16.7844 11.2814 16.6937 11.3392 16.6202C11.3971 16.5468 11.4779 16.4949 11.5687 16.4729C12.2387 16.3109 12.8792 16.0452 13.4671 15.6854C13.6321 15.585 13.8429 15.6104 13.9792 15.7463L15.3033 17.0708C15.4596 17.2267 15.7362 17.2275 15.8929 17.0708L17.0712 15.8921C17.1494 15.8139 17.1932 15.708 17.1932 15.5975C17.1932 15.487 17.1494 15.3811 17.0712 15.3029L15.7467 13.9783C15.6805 13.9122 15.6385 13.8257 15.6275 13.7328C15.6165 13.6399 15.637 13.546 15.6858 13.4662C16.0456 12.8784 16.3112 12.2379 16.4729 11.5679C16.4948 11.477 16.5467 11.3961 16.6201 11.3382C16.6936 11.2803 16.7844 11.2488 16.8779 11.2487H18.75C18.8047 11.249 18.8589 11.2384 18.9095 11.2176C18.9601 11.1968 19.0061 11.1661 19.0448 11.1275C19.0835 11.0889 19.1142 11.0429 19.1352 10.9924C19.1561 10.9418 19.1668 10.8876 19.1667 10.8329V9.16625C19.1667 8.93625 18.9796 8.74958 18.75 8.74958H16.8779C16.7844 8.74963 16.6935 8.71817 16.62 8.66026C16.5466 8.60236 16.4947 8.52139 16.4729 8.43042C16.3112 7.76045 16.0456 7.11991 15.6858 6.53208C15.637 6.45229 15.6165 6.35839 15.6275 6.2655C15.6385 6.17261 15.6805 6.08614 15.7467 6.02L17.0712 4.69542C17.1488 4.6175 17.1933 4.51042 17.1933 4.40083C17.1933 4.29125 17.1488 4.18375 17.0712 4.10625L15.8925 2.92792C15.813 2.85233 15.7074 2.81018 15.5977 2.81018C15.488 2.81018 15.3825 2.85233 15.3029 2.92792L13.9783 4.2525C13.9124 4.31898 13.8259 4.36118 13.7329 4.37222C13.6399 4.38327 13.5459 4.36251 13.4662 4.31333C12.8786 3.95369 12.2384 3.68812 11.5687 3.52625C11.4779 3.50452 11.3971 3.45281 11.3392 3.37948C11.2814 3.30615 11.25 3.21547 11.25 3.12208V1.25C11.25 1.02 11.0629 0.833333 10.8333 0.833333H9.16667C8.93708 0.833333 8.75 1.02 8.75 1.25V3.12208C8.75 3.21556 8.71857 3.30632 8.66076 3.37978C8.60294 3.45323 8.52211 3.50512 8.43125 3.52708C7.76133 3.68893 7.12082 3.9545 6.53292 4.31417C6.45321 4.36302 6.35936 4.38359 6.26653 4.37255C6.17369 4.36151 6.08728 4.31951 6.02125 4.25333L4.69667 2.92875C4.61713 2.85316 4.5116 2.81101 4.40188 2.81101C4.29215 2.81101 4.18662 2.85316 4.10708 2.92875L2.92917 4.10708C2.85105 4.18522 2.80717 4.29118 2.80717 4.40167C2.80717 4.51215 2.85105 4.61811 2.92917 4.69625L4.25375 6.02083C4.3199 6.08697 4.36187 6.17344 4.3729 6.26633C4.38394 6.35922 4.3634 6.45312 4.31458 6.53292C3.95485 7.12064 3.68928 7.76102 3.5275 8.43083C3.50561 8.52177 3.45377 8.6027 3.3803 8.66059C3.30684 8.71848 3.21603 8.74998 3.1225 8.75H1.25C1.19526 8.74978 1.14101 8.76039 1.09038 8.78123C1.03976 8.80206 0.993758 8.83271 0.955029 8.8714C0.916299 8.91009 0.885608 8.95606 0.864722 9.00667C0.843836 9.05727 0.833168 9.11151 0.833333 9.16625V10.8329C0.833333 11.0629 1.02042 11.2496 1.25 11.2496H3.12208C3.31458 11.2496 3.48208 11.3812 3.52708 11.5687C3.68893 12.2385 3.9545 12.8789 4.31417 13.4667C4.36298 13.5465 4.38352 13.6404 4.37249 13.7332C4.36145 13.8261 4.31948 13.9126 4.25333 13.9787L2.92875 15.3038C2.85125 15.3817 2.80667 15.4887 2.80667 15.5983C2.80667 15.7079 2.85125 15.8154 2.92875 15.8929L4.1075 17.0712C4.18703 17.1468 4.29257 17.189 4.40229 17.189C4.51202 17.189 4.61755 17.1468 4.69708 17.0712L6.02125 15.7467C6.05971 15.7078 6.10552 15.6769 6.15603 15.6559C6.20653 15.6348 6.26071 15.6241 6.31542 15.6242Z" fill="url(#paint0_linear_2187_665)"/>
<path d="M10 13C8.3458 13 7 11.6542 7 10C7 8.3458 8.3458 7 10 7C11.6542 7 13 8.3458 13 10C13 11.6542 11.6545 13 10 13ZM10 7.6C8.6767 7.6 7.6 8.6767 7.6 10C7.6 11.3233 8.6767 12.4 10 12.4C11.3233 12.4 12.4 11.3233 12.4 10C12.4 8.6767 11.3236 7.6 10 7.6Z" fill="url(#paint1_linear_2187_665)"/>
<defs>
<linearGradient id="paint0_linear_2187_665" x1="10" y1="0.25641" x2="10" y2="19.2307" gradientUnits="userSpaceOnUse">
<stop stop-color="#FF7312"/>
<stop offset="1" stop-color="#182452"/>
</linearGradient>
<linearGradient id="paint1_linear_2187_665" x1="10" y1="7.07692" x2="10" y2="12.7692" gradientUnits="userSpaceOnUse">
<stop stop-color="#FF7312"/>
<stop offset="1" stop-color="#182452"/>
</linearGradient>
</defs>
</svg>
