<svg width="24" height="24" viewBox="0 0 24 24" fill="none" xmlns="http://www.w3.org/2000/svg">
<rect width="24" height="24" rx="2" fill="white"/>
<path d="M20.741 13.5464C20.8975 13.4962 21.0035 13.3506 21.0035 13.1862V10.8249C21.0035 10.6605 20.8973 10.5149 20.7408 10.4646L18.5135 9.75037C18.4148 9.47619 18.3138 9.23193 18.2077 9.01096L19.2782 6.92244C19.3531 6.77648 19.3252 6.59874 19.2093 6.48271L17.5406 4.81027C17.4245 4.6935 17.247 4.66616 17.1008 4.74043L15.0119 5.80576C14.7771 5.68862 14.5266 5.58404 14.2633 5.49314L13.5503 3.2631C13.5001 3.10642 13.3545 3 13.1899 3H10.8288C10.6647 3 10.5193 3.10568 10.4687 3.26199L9.74797 5.49093C9.52219 5.56926 9.26242 5.6694 8.99895 5.80095L6.92281 4.73304C6.77611 4.65803 6.59801 4.68611 6.48179 4.80251L4.80935 6.47902C4.69369 6.59505 4.66579 6.77205 4.74025 6.91801L5.79874 8.99323C5.67975 9.23526 5.57666 9.48579 5.49074 9.7415L3.26975 10.4573C3.11381 10.5075 3.00795 10.6524 3.00739 10.8164L3 13.1777C2.99945 13.3421 3.10513 13.4877 3.26144 13.5387L5.4913 14.2629C5.57629 14.5024 5.67735 14.7437 5.80077 15.0023L4.73656 17.0853C4.6621 17.2313 4.68981 17.4083 4.80547 17.5243L6.47034 19.1967C6.58618 19.3131 6.76392 19.3427 6.91007 19.267L8.99785 18.2039C9.24376 18.3243 9.48801 18.4267 9.73725 18.5135L10.4615 20.7388C10.5121 20.8947 10.6574 21 10.8212 21H13.1823C13.3462 21 13.4914 20.8947 13.542 20.7388L14.267 18.512C14.5286 18.4193 14.7723 18.3188 15.0042 18.2075L17.0894 19.271C17.2361 19.3453 17.4125 19.3172 17.5287 19.2019L19.1973 17.5369C19.3131 17.4212 19.3416 17.2438 19.2673 17.0979L18.2051 15.0046C18.3164 14.7803 18.418 14.5353 18.5128 14.2633L20.741 13.5464ZM17.4423 15.1734L18.4682 17.1951L17.1886 18.4721L15.1782 17.4467C15.0692 17.3905 14.9408 17.3913 14.8325 17.4474C14.5327 17.6026 14.2103 17.736 13.8472 17.8554C13.7329 17.8931 13.6431 17.9832 13.6059 18.0978L12.9075 20.2432H11.096L10.3976 18.0978C10.3599 17.9818 10.2683 17.8909 10.1519 17.8543C9.82021 17.7493 9.49984 17.6152 9.17244 17.4441C9.06418 17.388 8.93484 17.3868 8.82565 17.4426L6.81214 18.4677L5.53546 17.1851L6.56069 15.1782C6.61537 15.0711 6.61593 14.9443 6.56216 14.8368C6.38239 14.4773 6.25103 14.1624 6.14867 13.8454C6.11135 13.7301 6.021 13.6396 5.90553 13.6019L3.7577 12.9042L3.76324 11.0936L5.90848 10.4022C6.0271 10.3638 6.1193 10.2695 6.15495 10.1502C6.2562 9.81171 6.39145 9.48284 6.55754 9.1717C6.61574 9.0627 6.61704 8.93189 6.56069 8.82177L5.53915 6.81898L6.8223 5.53268L8.82805 6.56438C8.94094 6.62165 9.07489 6.61981 9.18538 6.55847C9.45642 6.40733 9.74982 6.28465 10.1668 6.1483C10.2819 6.11098 10.3721 6.02045 10.4094 5.90516L11.1041 3.75677H12.9136L13.6013 5.90774C13.639 6.02525 13.7314 6.11689 13.8489 6.15347C14.2038 6.26433 14.5334 6.40253 14.8285 6.56364C14.9382 6.62313 15.0705 6.62535 15.1817 6.56844L17.1993 5.5397L18.4791 6.8223L17.4467 8.83618C17.3907 8.94556 17.3913 9.07526 17.4482 9.1839C17.5927 9.46067 17.7275 9.78473 17.8604 10.1749C17.899 10.2884 17.989 10.3767 18.103 10.4133L20.2467 11.101V12.9105L18.0991 13.6015C17.9831 13.6388 17.8923 13.7297 17.8548 13.8454C17.7323 14.2249 17.5991 14.5441 17.4476 14.8205C17.3878 14.9303 17.3857 15.0622 17.4423 15.1734Z" fill="#121212"/>
<path d="M12.4763 8.42977C10.5084 8.16741 8.69259 9.55643 8.43005 11.5249C8.30275 12.4801 8.55384 13.4279 9.13731 14.1932C9.72152 14.9592 10.569 15.4514 11.524 15.5785C11.685 15.5999 11.8448 15.6103 12.0029 15.6103C13.7833 15.6103 15.3373 14.2889 15.5786 12.4771C15.8409 10.5087 14.4493 8.69287 12.4763 8.42977ZM14.8285 12.3773C14.621 13.9363 13.1865 15.0364 11.6238 14.8284C10.8698 14.7278 10.2004 14.3395 9.73925 13.7342C9.27809 13.1293 9.07948 12.3803 9.18017 11.6246C9.37047 10.1964 10.5954 9.15477 11.9989 9.15477C12.1236 9.15477 12.2496 9.16289 12.3763 9.17989C13.9357 9.38793 15.0356 10.822 14.8285 12.3773Z" fill="#121212"/>
</svg>
