<svg width="11" height="10" viewBox="0 0 11 10" fill="none" xmlns="http://www.w3.org/2000/svg">
<path d="M2.12409 9.97153C2.5095 10.2376 4.98249 8.55103 5.45613 8.54732C5.92976 8.54365 8.43059 10.1914 8.81151 9.91938C9.19243 9.64734 8.29691 6.85316 8.43962 6.4167C8.58233 5.98025 10.9767 4.19082 10.8267 3.75663C10.6767 3.32245 7.65027 3.28212 7.26486 3.01606C6.87944 2.75003 5.8584 -0.00367125 5.38474 3.6749e-06C4.91114 0.00371055 3.93623 2.77297 3.55531 3.04501C3.17439 3.31702 0.148969 3.40458 0.00622368 3.84103C-0.136488 4.27748 2.28743 6.02933 2.43745 6.46352C2.58744 6.8977 1.73867 9.70547 2.12409 9.97153Z" fill="url(#paint0_linear_1072_608)"/>
<defs>
<linearGradient id="paint0_linear_1072_608" x1="10.8335" y1="5.00001" x2="0.000171166" y2="5.00001" gradientUnits="userSpaceOnUse">
<stop stop-color="#FCD635"/>
<stop offset="1" stop-color="#F7A928"/>
</linearGradient>
</defs>
</svg>
