<svg width="24" height="24" viewBox="0 0 24 24" fill="none" xmlns="http://www.w3.org/2000/svg">
<path fill-rule="evenodd" clip-rule="evenodd" d="M4.00003 12C4.00003 7.58172 7.58175 4 12 4C16.4183 4 20 7.58172 20 12C20 16.4183 16.4183 20 12 20C10.4242 20 8.95767 19.5454 7.72073 18.7606C7.46686 18.5996 7.15399 18.5613 6.86877 18.6563L4.58117 19.4189L5.3437 17.1313C5.43878 16.846 5.40047 16.5332 5.2394 16.2793C4.45461 15.0424 4.00003 13.5758 4.00003 12ZM12 2C6.47718 2 2.00003 6.47715 2.00003 12C2.00003 13.7931 2.47283 15.4784 3.30088 16.9352L2.05134 20.6838C1.93157 21.0431 2.02509 21.4393 2.29292 21.7071C2.56075 21.9749 2.95692 22.0685 3.31625 21.9487L7.06485 20.6992C8.52163 21.5272 10.2069 22 12 22C17.5229 22 22 17.5228 22 12C22 6.47715 17.5229 2 12 2ZM7.75716 7.75736C6.98543 8.52909 6.46652 9.46139 6.20321 10.4478C6.06077 10.9813 6.37786 11.5294 6.91146 11.6718C7.44506 11.8143 7.9931 11.4972 8.13554 10.9636C8.31058 10.3079 8.65493 9.68802 9.17138 9.17157C9.68783 8.65513 10.3077 8.31077 10.9634 8.13574C11.497 7.99329 11.8141 7.44525 11.6716 6.91165C11.5292 6.37805 10.9812 6.06096 10.4476 6.20341C9.4612 6.46672 8.5289 6.98562 7.75716 7.75736ZM13.5521 6.20341C13.0185 6.06096 12.4704 6.37805 12.328 6.91165C12.1855 7.44525 12.5026 7.99329 13.0362 8.13574C13.6919 8.31077 14.3118 8.65513 14.8282 9.17157C15.3447 9.68802 15.689 10.3079 15.8641 10.9636C16.0065 11.4972 16.5546 11.8143 17.0882 11.6718C17.6218 11.5294 17.9388 10.9813 17.7964 10.4478C17.5331 9.46139 17.0142 8.52909 16.2424 7.75736C15.4707 6.98562 14.5384 6.46671 13.5521 6.20341ZM8.13554 13.0364C7.9931 12.5028 7.44506 12.1857 6.91146 12.3282C6.37786 12.4706 6.06077 13.0187 6.20321 13.5522C6.46652 14.5386 6.98543 15.4709 7.75716 16.2426C8.5289 17.0144 9.4612 17.5333 10.4476 17.7966C10.9812 17.939 11.5292 17.6219 11.6716 17.0883C11.8141 16.5547 11.497 16.0067 10.9634 15.8643C10.3077 15.6892 9.68783 15.3449 9.17138 14.8284C8.65493 14.312 8.31058 13.6921 8.13554 13.0364ZM13.0362 15.8643C12.5026 16.0067 12.1855 16.5547 12.328 17.0883C12.4704 17.6219 13.0185 17.939 13.5521 17.7966C14.5384 17.5333 15.4707 17.0144 16.2424 16.2426C17.0142 15.4709 17.5331 14.5386 17.7964 13.5522C17.9388 13.0187 17.6218 12.4706 17.0882 12.3282C16.5546 12.1857 16.0065 12.5028 15.8641 13.0364C15.689 13.6921 15.3447 14.312 14.8282 14.8284C14.3118 15.3449 13.6919 15.6892 13.0362 15.8643Z" fill="#121212"/>
</svg>
