<svg width="24" height="24" viewBox="0 0 24 24" fill="none" xmlns="http://www.w3.org/2000/svg">
<path d="M7.29 11.7102C7.38296 11.8039 7.49356 11.8783 7.61542 11.9291C7.73728 11.9798 7.86799 12.006 8 12.006C8.13201 12.006 8.26272 11.9798 8.38458 11.9291C8.50644 11.8783 8.61704 11.8039 8.71 11.7102C8.80373 11.6172 8.87812 11.5066 8.92889 11.3848C8.97966 11.2629 9.0058 11.1322 9.0058 11.0002C9.0058 10.8682 8.97966 10.7375 8.92889 10.6156C8.87812 10.4937 8.80373 10.3831 8.71 10.2902L6.41 8.00019H20C20.2652 8.00019 20.5196 7.89483 20.7071 7.70729C20.8946 7.51976 21 7.2654 21 7.00019C21 6.73497 20.8946 6.48062 20.7071 6.29308C20.5196 6.10554 20.2652 6.00019 20 6.00019H6.41L8.71 3.71019C8.8983 3.52188 9.00409 3.26649 9.00409 3.00019C9.00409 2.73388 8.8983 2.47849 8.71 2.29019C8.5217 2.10188 8.2663 1.99609 8 1.99609C7.7337 1.99609 7.4783 2.10188 7.29 2.29019L3.29 6.29019C3.19627 6.38315 3.12188 6.49375 3.07111 6.61561C3.02034 6.73747 2.9942 6.86817 2.9942 7.00019C2.9942 7.1322 3.02034 7.2629 3.07111 7.38476C3.12188 7.50662 3.19627 7.61722 3.29 7.71019L7.29 11.7102ZM16.71 12.2902C16.5217 12.1019 16.2663 11.9961 16 11.9961C15.7337 11.9961 15.4783 12.1019 15.29 12.2902C15.1017 12.4785 14.9959 12.7339 14.9959 13.0002C14.9959 13.2665 15.1017 13.5219 15.29 13.7102L17.59 16.0002H4C3.73478 16.0002 3.48043 16.1055 3.29289 16.2931C3.10536 16.4806 3 16.735 3 17.0002C3 17.2654 3.10536 17.5198 3.29289 17.7073C3.48043 17.8948 3.73478 18.0002 4 18.0002H17.59L15.29 20.2902C15.1963 20.3831 15.1219 20.4937 15.0711 20.6156C15.0203 20.7375 14.9942 20.8682 14.9942 21.0002C14.9942 21.1322 15.0203 21.2629 15.0711 21.3848C15.1219 21.5066 15.1963 21.6172 15.29 21.7102C15.383 21.8039 15.4936 21.8783 15.6154 21.9291C15.7373 21.9798 15.868 22.006 16 22.006C16.132 22.006 16.2627 21.9798 16.3846 21.9291C16.5064 21.8783 16.617 21.8039 16.71 21.7102L20.71 17.7102C20.8037 17.6172 20.8781 17.5066 20.9289 17.3848C20.9797 17.2629 21.0058 17.1322 21.0058 17.0002C21.0058 16.8682 20.9797 16.7375 20.9289 16.6156C20.8781 16.4937 20.8037 16.3831 20.71 16.2902L16.71 12.2902Z" fill="url(#paint0_linear_4897_620)"/>
<defs>
<linearGradient id="paint0_linear_4897_620" x1="12" y1="2.25263" x2="12" y2="21.2363" gradientUnits="userSpaceOnUse">
<stop stop-color="#FF7312"/>
<stop offset="1" stop-color="#182452"/>
</linearGradient>
</defs>
</svg>
