<svg width="41" height="40" viewBox="0 0 41 40" fill="none" xmlns="http://www.w3.org/2000/svg">
<circle cx="20.5" cy="20" r="20" fill="#F4F9F7"/>
<path d="M17.788 25.1719C17.709 25.1723 17.6308 25.1572 17.5577 25.1273C17.4846 25.0975 17.4181 25.0535 17.362 24.9979L12.838 20.4739C12.7263 20.3614 12.6635 20.2094 12.6635 20.0509C12.6635 19.8923 12.7263 19.7403 12.838 19.6279C12.8938 19.5716 12.9601 19.527 13.0333 19.4965C13.1064 19.4661 13.1848 19.4504 13.264 19.4504C13.3432 19.4504 13.4216 19.4661 13.4947 19.4965C13.5679 19.527 13.6342 19.5716 13.69 19.6279L17.788 23.7259L27.772 13.7419C27.8844 13.6301 28.0365 13.5674 28.195 13.5674C28.3535 13.5674 28.5056 13.6301 28.618 13.7419C28.6742 13.7976 28.7189 13.864 28.7493 13.9371C28.7798 14.0102 28.7955 14.0887 28.7955 14.1679C28.7955 14.2471 28.7798 14.3255 28.7493 14.3986C28.7189 14.4717 28.6742 14.5381 28.618 14.5939L18.208 24.9979C18.0962 25.1087 17.9454 25.1712 17.788 25.1719Z" fill="#469C73"/>
</svg>
