<svg width="16" height="16" viewBox="0 0 16 16" fill="none" xmlns="http://www.w3.org/2000/svg">
<path d="M5.80671 5.13977L7.33337 3.60643V9.99977C7.33337 10.1766 7.40361 10.3461 7.52864 10.4712C7.65366 10.5962 7.82323 10.6664 8.00004 10.6664C8.17685 10.6664 8.34642 10.5962 8.47144 10.4712C8.59647 10.3461 8.66671 10.1766 8.66671 9.99977V3.60643L10.1934 5.13977C10.2553 5.20225 10.3291 5.25185 10.4103 5.2857C10.4916 5.31954 10.5787 5.33697 10.6667 5.33697C10.7547 5.33697 10.8419 5.31954 10.9231 5.2857C11.0043 5.25185 11.0781 5.20225 11.14 5.13977C11.2025 5.07779 11.2521 5.00406 11.286 4.92282C11.3198 4.84158 11.3372 4.75444 11.3372 4.66644C11.3372 4.57843 11.3198 4.49129 11.286 4.41005C11.2521 4.32881 11.2025 4.25508 11.14 4.1931L8.47337 1.52643C8.40997 1.46574 8.33521 1.41816 8.25337 1.38643C8.09107 1.31976 7.90901 1.31976 7.74671 1.38643C7.66487 1.41816 7.59011 1.46574 7.52671 1.52643L4.86004 4.1931C4.79788 4.25526 4.74857 4.32905 4.71493 4.41027C4.68129 4.49148 4.66398 4.57853 4.66398 4.66644C4.66398 4.75434 4.68129 4.84139 4.71493 4.9226C4.74857 5.00382 4.79788 5.07761 4.86004 5.13977C4.9222 5.20193 4.99599 5.25123 5.07721 5.28487C5.15842 5.31851 5.24547 5.33583 5.33337 5.33583C5.42128 5.33583 5.50833 5.31851 5.58954 5.28487C5.67075 5.25123 5.74455 5.20193 5.80671 5.13977ZM14 9.3331C13.8232 9.3331 13.6537 9.40334 13.5286 9.52836C13.4036 9.65339 13.3334 9.82296 13.3334 9.99977V12.6664C13.3334 12.8432 13.2631 13.0128 13.1381 13.1378C13.0131 13.2629 12.8435 13.3331 12.6667 13.3331H3.33337C3.15656 13.3331 2.98699 13.2629 2.86197 13.1378C2.73695 13.0128 2.66671 12.8432 2.66671 12.6664V9.99977C2.66671 9.82296 2.59647 9.65339 2.47145 9.52836C2.34642 9.40334 2.17685 9.3331 2.00004 9.3331C1.82323 9.3331 1.65366 9.40334 1.52864 9.52836C1.40361 9.65339 1.33337 9.82296 1.33337 9.99977V12.6664C1.33337 13.1969 1.54409 13.7056 1.91916 14.0806C2.29423 14.4557 2.80294 14.6664 3.33337 14.6664H12.6667C13.1971 14.6664 13.7058 14.4557 14.0809 14.0806C14.456 13.7056 14.6667 13.1969 14.6667 12.6664V9.99977C14.6667 9.82296 14.5965 9.65339 14.4714 9.52836C14.3464 9.40334 14.1769 9.3331 14 9.3331Z" fill="#FF7312"/>
</svg>
