<svg width="16" height="16" viewBox="0 0 16 16" fill="none" xmlns="http://www.w3.org/2000/svg">
<path d="M8.47642 4.88423C7.40786 4.60752 6.31733 5.24941 6.04063 6.31797C5.9854 6.53198 6.11411 6.75024 6.32812 6.80547C6.54214 6.86069 6.7604 6.73198 6.81563 6.51797C6.91699 6.12339 7.21172 5.80723 7.59819 5.67837C8.22681 5.4688 8.90625 5.80855 9.11577 6.43711C9.32534 7.06572 8.98564 7.74517 8.35703 7.95469C7.87412 8.13413 7.55864 8.60063 7.57188 9.11563V9.61841C7.57197 9.83921 7.75107 10.0181 7.97188 10.018C8.19268 10.0178 8.37202 9.83877 8.37187 9.61797V9.11563C8.36104 8.94375 8.45781 8.78315 8.61484 8.7125C9.25395 8.49668 9.74107 7.973 9.91016 7.31997C10.1869 6.25146 9.54492 5.16094 8.47642 4.88423ZM7.97173 10.7179C7.69556 10.7179 7.47173 10.9418 7.47173 11.2179C7.47173 11.494 7.69556 11.7179 7.97173 11.7179C8.24785 11.7179 8.47173 11.494 8.47173 11.2179C8.47173 10.9418 8.24785 10.7179 7.97173 10.7179ZM8 0C3.58174 0 0 3.58174 0 8C0 12.4183 3.58174 16 8 16C12.4161 15.9948 15.9948 12.4161 16 8C16 3.58174 12.4183 0 8 0ZM8 15.2C4.02354 15.2 0.8 11.9765 0.8 8C0.8 4.02354 4.02354 0.8 8 0.8C11.9747 0.804346 15.1957 4.02534 15.2 8C15.2 11.9765 11.9765 15.2 8 15.2Z" fill="#121212"/>
</svg>
